<?xml version="1.0" encoding="utf-8" standalone="no"?>
<!DOCTYPE svg PUBLIC "-//W3C//DTD SVG 1.1//EN"
  "http://www.w3.org/Graphics/SVG/1.1/DTD/svg11.dtd">
<!-- Created with matplotlib (http://matplotlib.org/) -->
<svg height="720pt" version="1.1" viewBox="0 0 720 720" width="720pt" xmlns="http://www.w3.org/2000/svg" xmlns:xlink="http://www.w3.org/1999/xlink">
 <defs>
  <style type="text/css">
*{stroke-linecap:butt;stroke-linejoin:round;}
  </style>
 </defs>
 <g id="figure_1">
  <g id="patch_1">
   <path d="M 0 720 
L 720 720 
L 720 0 
L 0 0 
z
" style="fill:#ffffff;"/>
  </g>
  <g id="axes_1">
   <g id="patch_2">
    <path d="M 36.8875 462.270312 
L 705.7 462.270312 
L 705.7 14.3 
L 36.8875 14.3 
z
" style="fill:#ffffff;"/>
   </g>
   <g id="patch_3">
    <path clip-path="url(#p3e63a3c85c)" d="M 50.821094 462.270312 
L 78.688281 462.270312 
L 78.688281 445.11902 
L 50.821094 445.11902 
z
" style="fill:#1f77b4;"/>
   </g>
   <g id="patch_4">
    <path clip-path="url(#p3e63a3c85c)" d="M 106.555469 462.270312 
L 134.422656 462.270312 
L 134.422656 460.126401 
L 106.555469 460.126401 
z
" style="fill:#1f77b4;"/>
   </g>
   <g id="patch_5">
    <path clip-path="url(#p3e63a3c85c)" d="M 162.289844 462.270312 
L 190.157031 462.270312 
L 190.157031 443.403891 
L 162.289844 443.403891 
z
" style="fill:#1f77b4;"/>
   </g>
   <g id="patch_6">
    <path clip-path="url(#p3e63a3c85c)" d="M 218.024219 462.270312 
L 245.891406 462.270312 
L 245.891406 451.979537 
L 218.024219 451.979537 
z
" style="fill:#1f77b4;"/>
   </g>
   <g id="patch_7">
    <path clip-path="url(#p3e63a3c85c)" d="M 273.758594 462.270312 
L 301.625781 462.270312 
L 301.625781 449.835626 
L 273.758594 449.835626 
z
" style="fill:#1f77b4;"/>
   </g>
   <g id="patch_8">
    <path clip-path="url(#p3e63a3c85c)" d="M 329.492969 462.270312 
L 357.360156 462.270312 
L 357.360156 455.409796 
L 329.492969 455.409796 
z
" style="fill:#1f77b4;"/>
   </g>
   <g id="patch_9">
    <path clip-path="url(#p3e63a3c85c)" d="M 385.227344 462.270312 
L 413.094531 462.270312 
L 413.094531 448.549279 
L 385.227344 448.549279 
z
" style="fill:#1f77b4;"/>
   </g>
   <g id="patch_10">
    <path clip-path="url(#p3e63a3c85c)" d="M 440.961719 462.270312 
L 468.828906 462.270312 
L 468.828906 451.550755 
L 440.961719 451.550755 
z
" style="fill:#1f77b4;"/>
   </g>
   <g id="patch_11">
    <path clip-path="url(#p3e63a3c85c)" d="M 496.696094 462.270312 
L 524.563281 462.270312 
L 524.563281 452.837102 
L 496.696094 452.837102 
z
" style="fill:#1f77b4;"/>
   </g>
   <g id="patch_12">
    <path clip-path="url(#p3e63a3c85c)" d="M 552.430469 462.270312 
L 580.297656 462.270312 
L 580.297656 458.411272 
L 552.430469 458.411272 
z
" style="fill:#1f77b4;"/>
   </g>
   <g id="patch_13">
    <path clip-path="url(#p3e63a3c85c)" d="M 608.164844 462.270312 
L 636.032031 462.270312 
L 636.032031 451.121973 
L 608.164844 451.121973 
z
" style="fill:#1f77b4;"/>
   </g>
   <g id="patch_14">
    <path clip-path="url(#p3e63a3c85c)" d="M 663.899219 462.270312 
L 691.766406 462.270312 
L 691.766406 454.552231 
L 663.899219 454.552231 
z
" style="fill:#1f77b4;"/>
   </g>
   <g id="patch_15">
    <path clip-path="url(#p3e63a3c85c)" d="M 50.821094 445.11902 
L 78.688281 445.11902 
L 78.688281 410.387654 
L 50.821094 410.387654 
z
" style="fill:#ff7f0e;"/>
   </g>
   <g id="patch_16">
    <path clip-path="url(#p3e63a3c85c)" d="M 106.555469 460.126401 
L 134.422656 460.126401 
L 134.422656 422.82234 
L 106.555469 422.82234 
z
" style="fill:#ff7f0e;"/>
   </g>
   <g id="patch_17">
    <path clip-path="url(#p3e63a3c85c)" d="M 162.289844 443.403891 
L 190.157031 443.403891 
L 190.157031 429.682857 
L 162.289844 429.682857 
z
" style="fill:#ff7f0e;"/>
   </g>
   <g id="patch_18">
    <path clip-path="url(#p3e63a3c85c)" d="M 218.024219 451.979537 
L 245.891406 451.979537 
L 245.891406 415.104259 
L 218.024219 415.104259 
z
" style="fill:#ff7f0e;"/>
   </g>
   <g id="patch_19">
    <path clip-path="url(#p3e63a3c85c)" d="M 273.758594 449.835626 
L 301.625781 449.835626 
L 301.625781 442.117544 
L 273.758594 442.117544 
z
" style="fill:#ff7f0e;"/>
   </g>
   <g id="patch_20">
    <path clip-path="url(#p3e63a3c85c)" d="M 329.492969 455.409796 
L 357.360156 455.409796 
L 357.360156 447.262932 
L 329.492969 447.262932 
z
" style="fill:#ff7f0e;"/>
   </g>
   <g id="patch_21">
    <path clip-path="url(#p3e63a3c85c)" d="M 385.227344 448.549279 
L 413.094531 448.549279 
L 413.094531 446.405367 
L 385.227344 446.405367 
z
" style="fill:#ff7f0e;"/>
   </g>
   <g id="patch_22">
    <path clip-path="url(#p3e63a3c85c)" d="M 440.961719 451.550755 
L 468.828906 451.550755 
L 468.828906 448.978061 
L 440.961719 448.978061 
z
" style="fill:#ff7f0e;"/>
   </g>
   <g id="patch_23">
    <path clip-path="url(#p3e63a3c85c)" d="M 496.696094 452.837102 
L 524.563281 452.837102 
L 524.563281 438.258503 
L 496.696094 438.258503 
z
" style="fill:#ff7f0e;"/>
   </g>
   <g id="patch_24">
    <path clip-path="url(#p3e63a3c85c)" d="M 552.430469 458.411272 
L 580.297656 458.411272 
L 580.297656 449.406843 
L 552.430469 449.406843 
z
" style="fill:#ff7f0e;"/>
   </g>
   <g id="patch_25">
    <path clip-path="url(#p3e63a3c85c)" d="M 608.164844 451.121973 
L 636.032031 451.121973 
L 636.032031 434.828245 
L 608.164844 434.828245 
z
" style="fill:#ff7f0e;"/>
   </g>
   <g id="patch_26">
    <path clip-path="url(#p3e63a3c85c)" d="M 663.899219 454.552231 
L 691.766406 454.552231 
L 691.766406 449.835626 
L 663.899219 449.835626 
z
" style="fill:#ff7f0e;"/>
   </g>
   <g id="patch_27">
    <path clip-path="url(#p3e63a3c85c)" d="M 50.821094 410.387654 
L 78.688281 410.387654 
L 78.688281 125.676204 
L 50.821094 125.676204 
z
" style="fill:#2ca02c;"/>
   </g>
   <g id="patch_28">
    <path clip-path="url(#p3e63a3c85c)" d="M 106.555469 422.82234 
L 134.422656 422.82234 
L 134.422656 138.539673 
L 106.555469 138.539673 
z
" style="fill:#2ca02c;"/>
   </g>
   <g id="patch_29">
    <path clip-path="url(#p3e63a3c85c)" d="M 162.289844 429.682857 
L 190.157031 429.682857 
L 190.157031 171.984692 
L 162.289844 171.984692 
z
" style="fill:#2ca02c;"/>
   </g>
   <g id="patch_30">
    <path clip-path="url(#p3e63a3c85c)" d="M 218.024219 415.104259 
L 245.891406 415.104259 
L 245.891406 101.235612 
L 218.024219 101.235612 
z
" style="fill:#2ca02c;"/>
   </g>
   <g id="patch_31">
    <path clip-path="url(#p3e63a3c85c)" d="M 273.758594 442.117544 
L 301.625781 442.117544 
L 301.625781 89.229708 
L 273.758594 89.229708 
z
" style="fill:#2ca02c;"/>
   </g>
   <g id="patch_32">
    <path clip-path="url(#p3e63a3c85c)" d="M 329.492969 447.262932 
L 357.360156 447.262932 
L 357.360156 95.661442 
L 329.492969 95.661442 
z
" style="fill:#2ca02c;"/>
   </g>
   <g id="patch_33">
    <path clip-path="url(#p3e63a3c85c)" d="M 385.227344 446.405367 
L 413.094531 446.405367 
L 413.094531 149.688013 
L 385.227344 149.688013 
z
" style="fill:#2ca02c;"/>
   </g>
   <g id="patch_34">
    <path clip-path="url(#p3e63a3c85c)" d="M 440.961719 448.978061 
L 468.828906 448.978061 
L 468.828906 65.646681 
L 440.961719 65.646681 
z
" style="fill:#2ca02c;"/>
   </g>
   <g id="patch_35">
    <path clip-path="url(#p3e63a3c85c)" d="M 496.696094 438.258503 
L 524.563281 438.258503 
L 524.563281 110.668823 
L 496.696094 110.668823 
z
" style="fill:#2ca02c;"/>
   </g>
   <g id="patch_36">
    <path clip-path="url(#p3e63a3c85c)" d="M 552.430469 449.406843 
L 580.297656 449.406843 
L 580.297656 96.090225 
L 552.430469 96.090225 
z
" style="fill:#2ca02c;"/>
   </g>
   <g id="patch_37">
    <path clip-path="url(#p3e63a3c85c)" d="M 608.164844 434.828245 
L 636.032031 434.828245 
L 636.032031 95.23266 
L 608.164844 95.23266 
z
" style="fill:#2ca02c;"/>
   </g>
   <g id="patch_38">
    <path clip-path="url(#p3e63a3c85c)" d="M 663.899219 449.835626 
L 691.766406 449.835626 
L 691.766406 75.079892 
L 663.899219 75.079892 
z
" style="fill:#2ca02c;"/>
   </g>
   <g id="patch_39">
    <path clip-path="url(#p3e63a3c85c)" d="M 50.821094 125.676204 
L 78.688281 125.676204 
L 78.688281 46.78026 
L 50.821094 46.78026 
z
" style="fill:#d62728;"/>
   </g>
   <g id="patch_40">
    <path clip-path="url(#p3e63a3c85c)" d="M 106.555469 138.539673 
L 134.422656 138.539673 
L 134.422656 39.919743 
L 106.555469 39.919743 
z
" style="fill:#d62728;"/>
   </g>
   <g id="patch_41">
    <path clip-path="url(#p3e63a3c85c)" d="M 162.289844 171.984692 
L 190.157031 171.984692 
L 190.157031 42.492437 
L 162.289844 42.492437 
z
" style="fill:#d62728;"/>
   </g>
   <g id="patch_42">
    <path clip-path="url(#p3e63a3c85c)" d="M 218.024219 101.235612 
L 245.891406 101.235612 
L 245.891406 39.062178 
L 218.024219 39.062178 
z
" style="fill:#d62728;"/>
   </g>
   <g id="patch_43">
    <path clip-path="url(#p3e63a3c85c)" d="M 273.758594 89.229708 
L 301.625781 89.229708 
L 301.625781 42.921219 
L 273.758594 42.921219 
z
" style="fill:#d62728;"/>
   </g>
   <g id="patch_44">
    <path clip-path="url(#p3e63a3c85c)" d="M 329.492969 95.661442 
L 357.360156 95.661442 
L 357.360156 46.78026 
L 329.492969 46.78026 
z
" style="fill:#d62728;"/>
   </g>
   <g id="patch_45">
    <path clip-path="url(#p3e63a3c85c)" d="M 385.227344 149.688013 
L 413.094531 149.688013 
L 413.094531 50.6393 
L 385.227344 50.6393 
z
" style="fill:#d62728;"/>
   </g>
   <g id="patch_46">
    <path clip-path="url(#p3e63a3c85c)" d="M 440.961719 65.646681 
L 468.828906 65.646681 
L 468.828906 36.489484 
L 440.961719 36.489484 
z
" style="fill:#d62728;"/>
   </g>
   <g id="patch_47">
    <path clip-path="url(#p3e63a3c85c)" d="M 496.696094 110.668823 
L 524.563281 110.668823 
L 524.563281 35.63192 
L 496.696094 35.63192 
z
" style="fill:#d62728;"/>
   </g>
   <g id="patch_48">
    <path clip-path="url(#p3e63a3c85c)" d="M 552.430469 96.090225 
L 580.297656 96.090225 
L 580.297656 47.637824 
L 552.430469 47.637824 
z
" style="fill:#d62728;"/>
   </g>
   <g id="patch_49">
    <path clip-path="url(#p3e63a3c85c)" d="M 608.164844 95.23266 
L 636.032031 95.23266 
L 636.032031 41.634872 
L 608.164844 41.634872 
z
" style="fill:#d62728;"/>
   </g>
   <g id="patch_50">
    <path clip-path="url(#p3e63a3c85c)" d="M 663.899219 75.079892 
L 691.766406 75.079892 
L 691.766406 42.492437 
L 663.899219 42.492437 
z
" style="fill:#d62728;"/>
   </g>
   <g id="matplotlib.axis_1">
    <g id="xtick_1">
     <g id="line2d_1">
      <defs>
       <path d="M 0 0 
L 0 3.5 
" id="m4361e3a138" style="stroke:#000000;stroke-width:0.8;"/>
      </defs>
      <g>
       <use style="stroke:#000000;stroke-width:0.8;" x="64.754688" xlink:href="#m4361e3a138" y="462.270312"/>
      </g>
     </g>
     <g id="text_1">
      <!-- Westfield - Abner Gibbs -->
      <defs>
       <path d="M 3.328125 72.90625 
L 13.28125 72.90625 
L 28.609375 11.28125 
L 43.890625 72.90625 
L 54.984375 72.90625 
L 70.3125 11.28125 
L 85.59375 72.90625 
L 95.609375 72.90625 
L 77.296875 0 
L 64.890625 0 
L 49.515625 63.28125 
L 33.984375 0 
L 21.578125 0 
z
" id="DejaVuSans-57"/>
       <path d="M 56.203125 29.59375 
L 56.203125 25.203125 
L 14.890625 25.203125 
Q 15.484375 15.921875 20.484375 11.0625 
Q 25.484375 6.203125 34.421875 6.203125 
Q 39.59375 6.203125 44.453125 7.46875 
Q 49.3125 8.734375 54.109375 11.28125 
L 54.109375 2.78125 
Q 49.265625 0.734375 44.1875 -0.34375 
Q 39.109375 -1.421875 33.890625 -1.421875 
Q 20.796875 -1.421875 13.15625 6.1875 
Q 5.515625 13.8125 5.515625 26.8125 
Q 5.515625 40.234375 12.765625 48.109375 
Q 20.015625 56 32.328125 56 
Q 43.359375 56 49.78125 48.890625 
Q 56.203125 41.796875 56.203125 29.59375 
z
M 47.21875 32.234375 
Q 47.125 39.59375 43.09375 43.984375 
Q 39.0625 48.390625 32.421875 48.390625 
Q 24.90625 48.390625 20.390625 44.140625 
Q 15.875 39.890625 15.1875 32.171875 
z
" id="DejaVuSans-65"/>
       <path d="M 44.28125 53.078125 
L 44.28125 44.578125 
Q 40.484375 46.53125 36.375 47.5 
Q 32.28125 48.484375 27.875 48.484375 
Q 21.1875 48.484375 17.84375 46.4375 
Q 14.5 44.390625 14.5 40.28125 
Q 14.5 37.15625 16.890625 35.375 
Q 19.28125 33.59375 26.515625 31.984375 
L 29.59375 31.296875 
Q 39.15625 29.25 43.1875 25.515625 
Q 47.21875 21.78125 47.21875 15.09375 
Q 47.21875 7.46875 41.1875 3.015625 
Q 35.15625 -1.421875 24.609375 -1.421875 
Q 20.21875 -1.421875 15.453125 -0.5625 
Q 10.6875 0.296875 5.421875 2 
L 5.421875 11.28125 
Q 10.40625 8.6875 15.234375 7.390625 
Q 20.0625 6.109375 24.8125 6.109375 
Q 31.15625 6.109375 34.5625 8.28125 
Q 37.984375 10.453125 37.984375 14.40625 
Q 37.984375 18.0625 35.515625 20.015625 
Q 33.0625 21.96875 24.703125 23.78125 
L 21.578125 24.515625 
Q 13.234375 26.265625 9.515625 29.90625 
Q 5.8125 33.546875 5.8125 39.890625 
Q 5.8125 47.609375 11.28125 51.796875 
Q 16.75 56 26.8125 56 
Q 31.78125 56 36.171875 55.265625 
Q 40.578125 54.546875 44.28125 53.078125 
z
" id="DejaVuSans-73"/>
       <path d="M 18.3125 70.21875 
L 18.3125 54.6875 
L 36.8125 54.6875 
L 36.8125 47.703125 
L 18.3125 47.703125 
L 18.3125 18.015625 
Q 18.3125 11.328125 20.140625 9.421875 
Q 21.96875 7.515625 27.59375 7.515625 
L 36.8125 7.515625 
L 36.8125 0 
L 27.59375 0 
Q 17.1875 0 13.234375 3.875 
Q 9.28125 7.765625 9.28125 18.015625 
L 9.28125 47.703125 
L 2.6875 47.703125 
L 2.6875 54.6875 
L 9.28125 54.6875 
L 9.28125 70.21875 
z
" id="DejaVuSans-74"/>
       <path d="M 37.109375 75.984375 
L 37.109375 68.5 
L 28.515625 68.5 
Q 23.6875 68.5 21.796875 66.546875 
Q 19.921875 64.59375 19.921875 59.515625 
L 19.921875 54.6875 
L 34.71875 54.6875 
L 34.71875 47.703125 
L 19.921875 47.703125 
L 19.921875 0 
L 10.890625 0 
L 10.890625 47.703125 
L 2.296875 47.703125 
L 2.296875 54.6875 
L 10.890625 54.6875 
L 10.890625 58.5 
Q 10.890625 67.625 15.140625 71.796875 
Q 19.390625 75.984375 28.609375 75.984375 
z
" id="DejaVuSans-66"/>
       <path d="M 9.421875 54.6875 
L 18.40625 54.6875 
L 18.40625 0 
L 9.421875 0 
z
M 9.421875 75.984375 
L 18.40625 75.984375 
L 18.40625 64.59375 
L 9.421875 64.59375 
z
" id="DejaVuSans-69"/>
       <path d="M 9.421875 75.984375 
L 18.40625 75.984375 
L 18.40625 0 
L 9.421875 0 
z
" id="DejaVuSans-6c"/>
       <path d="M 45.40625 46.390625 
L 45.40625 75.984375 
L 54.390625 75.984375 
L 54.390625 0 
L 45.40625 0 
L 45.40625 8.203125 
Q 42.578125 3.328125 38.25 0.953125 
Q 33.9375 -1.421875 27.875 -1.421875 
Q 17.96875 -1.421875 11.734375 6.484375 
Q 5.515625 14.40625 5.515625 27.296875 
Q 5.515625 40.1875 11.734375 48.09375 
Q 17.96875 56 27.875 56 
Q 33.9375 56 38.25 53.625 
Q 42.578125 51.265625 45.40625 46.390625 
z
M 14.796875 27.296875 
Q 14.796875 17.390625 18.875 11.75 
Q 22.953125 6.109375 30.078125 6.109375 
Q 37.203125 6.109375 41.296875 11.75 
Q 45.40625 17.390625 45.40625 27.296875 
Q 45.40625 37.203125 41.296875 42.84375 
Q 37.203125 48.484375 30.078125 48.484375 
Q 22.953125 48.484375 18.875 42.84375 
Q 14.796875 37.203125 14.796875 27.296875 
z
" id="DejaVuSans-64"/>
       <path id="DejaVuSans-20"/>
       <path d="M 4.890625 31.390625 
L 31.203125 31.390625 
L 31.203125 23.390625 
L 4.890625 23.390625 
z
" id="DejaVuSans-2d"/>
       <path d="M 34.1875 63.1875 
L 20.796875 26.90625 
L 47.609375 26.90625 
z
M 28.609375 72.90625 
L 39.796875 72.90625 
L 67.578125 0 
L 57.328125 0 
L 50.6875 18.703125 
L 17.828125 18.703125 
L 11.1875 0 
L 0.78125 0 
z
" id="DejaVuSans-41"/>
       <path d="M 48.6875 27.296875 
Q 48.6875 37.203125 44.609375 42.84375 
Q 40.53125 48.484375 33.40625 48.484375 
Q 26.265625 48.484375 22.1875 42.84375 
Q 18.109375 37.203125 18.109375 27.296875 
Q 18.109375 17.390625 22.1875 11.75 
Q 26.265625 6.109375 33.40625 6.109375 
Q 40.53125 6.109375 44.609375 11.75 
Q 48.6875 17.390625 48.6875 27.296875 
z
M 18.109375 46.390625 
Q 20.953125 51.265625 25.265625 53.625 
Q 29.59375 56 35.59375 56 
Q 45.5625 56 51.78125 48.09375 
Q 58.015625 40.1875 58.015625 27.296875 
Q 58.015625 14.40625 51.78125 6.484375 
Q 45.5625 -1.421875 35.59375 -1.421875 
Q 29.59375 -1.421875 25.265625 0.953125 
Q 20.953125 3.328125 18.109375 8.203125 
L 18.109375 0 
L 9.078125 0 
L 9.078125 75.984375 
L 18.109375 75.984375 
z
" id="DejaVuSans-62"/>
       <path d="M 54.890625 33.015625 
L 54.890625 0 
L 45.90625 0 
L 45.90625 32.71875 
Q 45.90625 40.484375 42.875 44.328125 
Q 39.84375 48.1875 33.796875 48.1875 
Q 26.515625 48.1875 22.3125 43.546875 
Q 18.109375 38.921875 18.109375 30.90625 
L 18.109375 0 
L 9.078125 0 
L 9.078125 54.6875 
L 18.109375 54.6875 
L 18.109375 46.1875 
Q 21.34375 51.125 25.703125 53.5625 
Q 30.078125 56 35.796875 56 
Q 45.21875 56 50.046875 50.171875 
Q 54.890625 44.34375 54.890625 33.015625 
z
" id="DejaVuSans-6e"/>
       <path d="M 41.109375 46.296875 
Q 39.59375 47.171875 37.8125 47.578125 
Q 36.03125 48 33.890625 48 
Q 26.265625 48 22.1875 43.046875 
Q 18.109375 38.09375 18.109375 28.8125 
L 18.109375 0 
L 9.078125 0 
L 9.078125 54.6875 
L 18.109375 54.6875 
L 18.109375 46.1875 
Q 20.953125 51.171875 25.484375 53.578125 
Q 30.03125 56 36.53125 56 
Q 37.453125 56 38.578125 55.875 
Q 39.703125 55.765625 41.0625 55.515625 
z
" id="DejaVuSans-72"/>
       <path d="M 59.515625 10.40625 
L 59.515625 29.984375 
L 43.40625 29.984375 
L 43.40625 38.09375 
L 69.28125 38.09375 
L 69.28125 6.78125 
Q 63.578125 2.734375 56.6875 0.65625 
Q 49.8125 -1.421875 42 -1.421875 
Q 24.90625 -1.421875 15.25 8.5625 
Q 5.609375 18.5625 5.609375 36.375 
Q 5.609375 54.25 15.25 64.234375 
Q 24.90625 74.21875 42 74.21875 
Q 49.125 74.21875 55.546875 72.453125 
Q 61.96875 70.703125 67.390625 67.28125 
L 67.390625 56.78125 
Q 61.921875 61.421875 55.765625 63.765625 
Q 49.609375 66.109375 42.828125 66.109375 
Q 29.4375 66.109375 22.71875 58.640625 
Q 16.015625 51.171875 16.015625 36.375 
Q 16.015625 21.625 22.71875 14.15625 
Q 29.4375 6.6875 42.828125 6.6875 
Q 48.046875 6.6875 52.140625 7.59375 
Q 56.25 8.5 59.515625 10.40625 
z
" id="DejaVuSans-47"/>
      </defs>
      <g transform="translate(67.514062 587.376562)rotate(-90)scale(0.1 -0.1)">
       <use xlink:href="#DejaVuSans-57"/>
       <use x="98.798828" xlink:href="#DejaVuSans-65"/>
       <use x="160.322266" xlink:href="#DejaVuSans-73"/>
       <use x="212.421875" xlink:href="#DejaVuSans-74"/>
       <use x="251.630859" xlink:href="#DejaVuSans-66"/>
       <use x="286.835938" xlink:href="#DejaVuSans-69"/>
       <use x="314.619141" xlink:href="#DejaVuSans-65"/>
       <use x="376.142578" xlink:href="#DejaVuSans-6c"/>
       <use x="403.925781" xlink:href="#DejaVuSans-64"/>
       <use x="467.402344" xlink:href="#DejaVuSans-20"/>
       <use x="499.189453" xlink:href="#DejaVuSans-2d"/>
       <use x="535.273438" xlink:href="#DejaVuSans-20"/>
       <use x="567.060547" xlink:href="#DejaVuSans-41"/>
       <use x="635.46875" xlink:href="#DejaVuSans-62"/>
       <use x="698.945312" xlink:href="#DejaVuSans-6e"/>
       <use x="762.324219" xlink:href="#DejaVuSans-65"/>
       <use x="823.847656" xlink:href="#DejaVuSans-72"/>
       <use x="864.960938" xlink:href="#DejaVuSans-20"/>
       <use x="896.748047" xlink:href="#DejaVuSans-47"/>
       <use x="974.238281" xlink:href="#DejaVuSans-69"/>
       <use x="1002.021484" xlink:href="#DejaVuSans-62"/>
       <use x="1065.498047" xlink:href="#DejaVuSans-62"/>
       <use x="1128.974609" xlink:href="#DejaVuSans-73"/>
      </g>
     </g>
    </g>
    <g id="xtick_2">
     <g id="line2d_2">
      <g>
       <use style="stroke:#000000;stroke-width:0.8;" x="120.489063" xlink:href="#m4361e3a138" y="462.270312"/>
      </g>
     </g>
     <g id="text_2">
      <!-- Westfield - Fort Meadow Early Childhood Center -->
      <defs>
       <path d="M 9.8125 72.90625 
L 51.703125 72.90625 
L 51.703125 64.59375 
L 19.671875 64.59375 
L 19.671875 43.109375 
L 48.578125 43.109375 
L 48.578125 34.8125 
L 19.671875 34.8125 
L 19.671875 0 
L 9.8125 0 
z
" id="DejaVuSans-46"/>
       <path d="M 30.609375 48.390625 
Q 23.390625 48.390625 19.1875 42.75 
Q 14.984375 37.109375 14.984375 27.296875 
Q 14.984375 17.484375 19.15625 11.84375 
Q 23.34375 6.203125 30.609375 6.203125 
Q 37.796875 6.203125 41.984375 11.859375 
Q 46.1875 17.53125 46.1875 27.296875 
Q 46.1875 37.015625 41.984375 42.703125 
Q 37.796875 48.390625 30.609375 48.390625 
z
M 30.609375 56 
Q 42.328125 56 49.015625 48.375 
Q 55.71875 40.765625 55.71875 27.296875 
Q 55.71875 13.875 49.015625 6.21875 
Q 42.328125 -1.421875 30.609375 -1.421875 
Q 18.84375 -1.421875 12.171875 6.21875 
Q 5.515625 13.875 5.515625 27.296875 
Q 5.515625 40.765625 12.171875 48.375 
Q 18.84375 56 30.609375 56 
z
" id="DejaVuSans-6f"/>
       <path d="M 9.8125 72.90625 
L 24.515625 72.90625 
L 43.109375 23.296875 
L 61.8125 72.90625 
L 76.515625 72.90625 
L 76.515625 0 
L 66.890625 0 
L 66.890625 64.015625 
L 48.09375 14.015625 
L 38.1875 14.015625 
L 19.390625 64.015625 
L 19.390625 0 
L 9.8125 0 
z
" id="DejaVuSans-4d"/>
       <path d="M 34.28125 27.484375 
Q 23.390625 27.484375 19.1875 25 
Q 14.984375 22.515625 14.984375 16.5 
Q 14.984375 11.71875 18.140625 8.90625 
Q 21.296875 6.109375 26.703125 6.109375 
Q 34.1875 6.109375 38.703125 11.40625 
Q 43.21875 16.703125 43.21875 25.484375 
L 43.21875 27.484375 
z
M 52.203125 31.203125 
L 52.203125 0 
L 43.21875 0 
L 43.21875 8.296875 
Q 40.140625 3.328125 35.546875 0.953125 
Q 30.953125 -1.421875 24.3125 -1.421875 
Q 15.921875 -1.421875 10.953125 3.296875 
Q 6 8.015625 6 15.921875 
Q 6 25.140625 12.171875 29.828125 
Q 18.359375 34.515625 30.609375 34.515625 
L 43.21875 34.515625 
L 43.21875 35.40625 
Q 43.21875 41.609375 39.140625 45 
Q 35.0625 48.390625 27.6875 48.390625 
Q 23 48.390625 18.546875 47.265625 
Q 14.109375 46.140625 10.015625 43.890625 
L 10.015625 52.203125 
Q 14.9375 54.109375 19.578125 55.046875 
Q 24.21875 56 28.609375 56 
Q 40.484375 56 46.34375 49.84375 
Q 52.203125 43.703125 52.203125 31.203125 
z
" id="DejaVuSans-61"/>
       <path d="M 4.203125 54.6875 
L 13.1875 54.6875 
L 24.421875 12.015625 
L 35.59375 54.6875 
L 46.1875 54.6875 
L 57.421875 12.015625 
L 68.609375 54.6875 
L 77.59375 54.6875 
L 63.28125 0 
L 52.6875 0 
L 40.921875 44.828125 
L 29.109375 0 
L 18.5 0 
z
" id="DejaVuSans-77"/>
       <path d="M 9.8125 72.90625 
L 55.90625 72.90625 
L 55.90625 64.59375 
L 19.671875 64.59375 
L 19.671875 43.015625 
L 54.390625 43.015625 
L 54.390625 34.71875 
L 19.671875 34.71875 
L 19.671875 8.296875 
L 56.78125 8.296875 
L 56.78125 0 
L 9.8125 0 
z
" id="DejaVuSans-45"/>
       <path d="M 32.171875 -5.078125 
Q 28.375 -14.84375 24.75 -17.8125 
Q 21.140625 -20.796875 15.09375 -20.796875 
L 7.90625 -20.796875 
L 7.90625 -13.28125 
L 13.1875 -13.28125 
Q 16.890625 -13.28125 18.9375 -11.515625 
Q 21 -9.765625 23.484375 -3.21875 
L 25.09375 0.875 
L 2.984375 54.6875 
L 12.5 54.6875 
L 29.59375 11.921875 
L 46.6875 54.6875 
L 56.203125 54.6875 
z
" id="DejaVuSans-79"/>
       <path d="M 64.40625 67.28125 
L 64.40625 56.890625 
Q 59.421875 61.53125 53.78125 63.8125 
Q 48.140625 66.109375 41.796875 66.109375 
Q 29.296875 66.109375 22.65625 58.46875 
Q 16.015625 50.828125 16.015625 36.375 
Q 16.015625 21.96875 22.65625 14.328125 
Q 29.296875 6.6875 41.796875 6.6875 
Q 48.140625 6.6875 53.78125 8.984375 
Q 59.421875 11.28125 64.40625 15.921875 
L 64.40625 5.609375 
Q 59.234375 2.09375 53.4375 0.328125 
Q 47.65625 -1.421875 41.21875 -1.421875 
Q 24.65625 -1.421875 15.125 8.703125 
Q 5.609375 18.84375 5.609375 36.375 
Q 5.609375 53.953125 15.125 64.078125 
Q 24.65625 74.21875 41.21875 74.21875 
Q 47.75 74.21875 53.53125 72.484375 
Q 59.328125 70.75 64.40625 67.28125 
z
" id="DejaVuSans-43"/>
       <path d="M 54.890625 33.015625 
L 54.890625 0 
L 45.90625 0 
L 45.90625 32.71875 
Q 45.90625 40.484375 42.875 44.328125 
Q 39.84375 48.1875 33.796875 48.1875 
Q 26.515625 48.1875 22.3125 43.546875 
Q 18.109375 38.921875 18.109375 30.90625 
L 18.109375 0 
L 9.078125 0 
L 9.078125 75.984375 
L 18.109375 75.984375 
L 18.109375 46.1875 
Q 21.34375 51.125 25.703125 53.5625 
Q 30.078125 56 35.796875 56 
Q 45.21875 56 50.046875 50.171875 
Q 54.890625 44.34375 54.890625 33.015625 
z
" id="DejaVuSans-68"/>
      </defs>
      <g transform="translate(123.248437 709.2)rotate(-90)scale(0.1 -0.1)">
       <use xlink:href="#DejaVuSans-57"/>
       <use x="98.798828" xlink:href="#DejaVuSans-65"/>
       <use x="160.322266" xlink:href="#DejaVuSans-73"/>
       <use x="212.421875" xlink:href="#DejaVuSans-74"/>
       <use x="251.630859" xlink:href="#DejaVuSans-66"/>
       <use x="286.835938" xlink:href="#DejaVuSans-69"/>
       <use x="314.619141" xlink:href="#DejaVuSans-65"/>
       <use x="376.142578" xlink:href="#DejaVuSans-6c"/>
       <use x="403.925781" xlink:href="#DejaVuSans-64"/>
       <use x="467.402344" xlink:href="#DejaVuSans-20"/>
       <use x="499.189453" xlink:href="#DejaVuSans-2d"/>
       <use x="535.273438" xlink:href="#DejaVuSans-20"/>
       <use x="567.060547" xlink:href="#DejaVuSans-46"/>
       <use x="624.533203" xlink:href="#DejaVuSans-6f"/>
       <use x="685.714844" xlink:href="#DejaVuSans-72"/>
       <use x="726.828125" xlink:href="#DejaVuSans-74"/>
       <use x="766.037109" xlink:href="#DejaVuSans-20"/>
       <use x="797.824219" xlink:href="#DejaVuSans-4d"/>
       <use x="884.103516" xlink:href="#DejaVuSans-65"/>
       <use x="945.626953" xlink:href="#DejaVuSans-61"/>
       <use x="1006.90625" xlink:href="#DejaVuSans-64"/>
       <use x="1070.382812" xlink:href="#DejaVuSans-6f"/>
       <use x="1131.564453" xlink:href="#DejaVuSans-77"/>
       <use x="1213.351562" xlink:href="#DejaVuSans-20"/>
       <use x="1245.138672" xlink:href="#DejaVuSans-45"/>
       <use x="1308.322266" xlink:href="#DejaVuSans-61"/>
       <use x="1369.601562" xlink:href="#DejaVuSans-72"/>
       <use x="1410.714844" xlink:href="#DejaVuSans-6c"/>
       <use x="1438.498047" xlink:href="#DejaVuSans-79"/>
       <use x="1497.677734" xlink:href="#DejaVuSans-20"/>
       <use x="1529.464844" xlink:href="#DejaVuSans-43"/>
       <use x="1599.289062" xlink:href="#DejaVuSans-68"/>
       <use x="1662.667969" xlink:href="#DejaVuSans-69"/>
       <use x="1690.451172" xlink:href="#DejaVuSans-6c"/>
       <use x="1718.234375" xlink:href="#DejaVuSans-64"/>
       <use x="1781.710938" xlink:href="#DejaVuSans-68"/>
       <use x="1845.089844" xlink:href="#DejaVuSans-6f"/>
       <use x="1906.271484" xlink:href="#DejaVuSans-6f"/>
       <use x="1967.453125" xlink:href="#DejaVuSans-64"/>
       <use x="2030.929688" xlink:href="#DejaVuSans-20"/>
       <use x="2062.716797" xlink:href="#DejaVuSans-43"/>
       <use x="2132.541016" xlink:href="#DejaVuSans-65"/>
       <use x="2194.064453" xlink:href="#DejaVuSans-6e"/>
       <use x="2257.443359" xlink:href="#DejaVuSans-74"/>
       <use x="2296.652344" xlink:href="#DejaVuSans-65"/>
       <use x="2358.175781" xlink:href="#DejaVuSans-72"/>
      </g>
     </g>
    </g>
    <g id="xtick_3">
     <g id="line2d_3">
      <g>
       <use style="stroke:#000000;stroke-width:0.8;" x="176.223437" xlink:href="#m4361e3a138" y="462.270312"/>
      </g>
     </g>
     <g id="text_3">
      <!-- Westfield - Franklin Ave -->
      <defs>
       <path d="M 9.078125 75.984375 
L 18.109375 75.984375 
L 18.109375 31.109375 
L 44.921875 54.6875 
L 56.390625 54.6875 
L 27.390625 29.109375 
L 57.625 0 
L 45.90625 0 
L 18.109375 26.703125 
L 18.109375 0 
L 9.078125 0 
z
" id="DejaVuSans-6b"/>
       <path d="M 2.984375 54.6875 
L 12.5 54.6875 
L 29.59375 8.796875 
L 46.6875 54.6875 
L 56.203125 54.6875 
L 35.6875 0 
L 23.484375 0 
z
" id="DejaVuSans-76"/>
      </defs>
      <g transform="translate(178.982812 588.059375)rotate(-90)scale(0.1 -0.1)">
       <use xlink:href="#DejaVuSans-57"/>
       <use x="98.798828" xlink:href="#DejaVuSans-65"/>
       <use x="160.322266" xlink:href="#DejaVuSans-73"/>
       <use x="212.421875" xlink:href="#DejaVuSans-74"/>
       <use x="251.630859" xlink:href="#DejaVuSans-66"/>
       <use x="286.835938" xlink:href="#DejaVuSans-69"/>
       <use x="314.619141" xlink:href="#DejaVuSans-65"/>
       <use x="376.142578" xlink:href="#DejaVuSans-6c"/>
       <use x="403.925781" xlink:href="#DejaVuSans-64"/>
       <use x="467.402344" xlink:href="#DejaVuSans-20"/>
       <use x="499.189453" xlink:href="#DejaVuSans-2d"/>
       <use x="535.273438" xlink:href="#DejaVuSans-20"/>
       <use x="567.060547" xlink:href="#DejaVuSans-46"/>
       <use x="624.470703" xlink:href="#DejaVuSans-72"/>
       <use x="665.583984" xlink:href="#DejaVuSans-61"/>
       <use x="726.863281" xlink:href="#DejaVuSans-6e"/>
       <use x="790.242188" xlink:href="#DejaVuSans-6b"/>
       <use x="848.152344" xlink:href="#DejaVuSans-6c"/>
       <use x="875.935547" xlink:href="#DejaVuSans-69"/>
       <use x="903.71875" xlink:href="#DejaVuSans-6e"/>
       <use x="967.097656" xlink:href="#DejaVuSans-20"/>
       <use x="998.884766" xlink:href="#DejaVuSans-41"/>
       <use x="1067.214844" xlink:href="#DejaVuSans-76"/>
       <use x="1126.394531" xlink:href="#DejaVuSans-65"/>
      </g>
     </g>
    </g>
    <g id="xtick_4">
     <g id="line2d_4">
      <g>
       <use style="stroke:#000000;stroke-width:0.8;" x="231.957812" xlink:href="#m4361e3a138" y="462.270312"/>
      </g>
     </g>
     <g id="text_4">
      <!-- Westfield - Highland -->
      <defs>
       <path d="M 9.8125 72.90625 
L 19.671875 72.90625 
L 19.671875 43.015625 
L 55.515625 43.015625 
L 55.515625 72.90625 
L 65.375 72.90625 
L 65.375 0 
L 55.515625 0 
L 55.515625 34.71875 
L 19.671875 34.71875 
L 19.671875 0 
L 9.8125 0 
z
" id="DejaVuSans-48"/>
       <path d="M 45.40625 27.984375 
Q 45.40625 37.75 41.375 43.109375 
Q 37.359375 48.484375 30.078125 48.484375 
Q 22.859375 48.484375 18.828125 43.109375 
Q 14.796875 37.75 14.796875 27.984375 
Q 14.796875 18.265625 18.828125 12.890625 
Q 22.859375 7.515625 30.078125 7.515625 
Q 37.359375 7.515625 41.375 12.890625 
Q 45.40625 18.265625 45.40625 27.984375 
z
M 54.390625 6.78125 
Q 54.390625 -7.171875 48.1875 -13.984375 
Q 42 -20.796875 29.203125 -20.796875 
Q 24.46875 -20.796875 20.265625 -20.09375 
Q 16.0625 -19.390625 12.109375 -17.921875 
L 12.109375 -9.1875 
Q 16.0625 -11.328125 19.921875 -12.34375 
Q 23.78125 -13.375 27.78125 -13.375 
Q 36.625 -13.375 41.015625 -8.765625 
Q 45.40625 -4.15625 45.40625 5.171875 
L 45.40625 9.625 
Q 42.625 4.78125 38.28125 2.390625 
Q 33.9375 0 27.875 0 
Q 17.828125 0 11.671875 7.65625 
Q 5.515625 15.328125 5.515625 27.984375 
Q 5.515625 40.671875 11.671875 48.328125 
Q 17.828125 56 27.875 56 
Q 33.9375 56 38.28125 53.609375 
Q 42.625 51.21875 45.40625 46.390625 
L 45.40625 54.6875 
L 54.390625 54.6875 
z
" id="DejaVuSans-67"/>
      </defs>
      <g transform="translate(234.717187 570.551563)rotate(-90)scale(0.1 -0.1)">
       <use xlink:href="#DejaVuSans-57"/>
       <use x="98.798828" xlink:href="#DejaVuSans-65"/>
       <use x="160.322266" xlink:href="#DejaVuSans-73"/>
       <use x="212.421875" xlink:href="#DejaVuSans-74"/>
       <use x="251.630859" xlink:href="#DejaVuSans-66"/>
       <use x="286.835938" xlink:href="#DejaVuSans-69"/>
       <use x="314.619141" xlink:href="#DejaVuSans-65"/>
       <use x="376.142578" xlink:href="#DejaVuSans-6c"/>
       <use x="403.925781" xlink:href="#DejaVuSans-64"/>
       <use x="467.402344" xlink:href="#DejaVuSans-20"/>
       <use x="499.189453" xlink:href="#DejaVuSans-2d"/>
       <use x="535.273438" xlink:href="#DejaVuSans-20"/>
       <use x="567.060547" xlink:href="#DejaVuSans-48"/>
       <use x="642.255859" xlink:href="#DejaVuSans-69"/>
       <use x="670.039062" xlink:href="#DejaVuSans-67"/>
       <use x="733.515625" xlink:href="#DejaVuSans-68"/>
       <use x="796.894531" xlink:href="#DejaVuSans-6c"/>
       <use x="824.677734" xlink:href="#DejaVuSans-61"/>
       <use x="885.957031" xlink:href="#DejaVuSans-6e"/>
       <use x="949.335938" xlink:href="#DejaVuSans-64"/>
      </g>
     </g>
    </g>
    <g id="xtick_5">
     <g id="line2d_5">
      <g>
       <use style="stroke:#000000;stroke-width:0.8;" x="287.692187" xlink:href="#m4361e3a138" y="462.270312"/>
      </g>
     </g>
     <g id="text_5">
      <!-- Westfield - Munger Hill -->
      <defs>
       <path d="M 8.5 21.578125 
L 8.5 54.6875 
L 17.484375 54.6875 
L 17.484375 21.921875 
Q 17.484375 14.15625 20.5 10.265625 
Q 23.53125 6.390625 29.59375 6.390625 
Q 36.859375 6.390625 41.078125 11.03125 
Q 45.3125 15.671875 45.3125 23.6875 
L 45.3125 54.6875 
L 54.296875 54.6875 
L 54.296875 0 
L 45.3125 0 
L 45.3125 8.40625 
Q 42.046875 3.421875 37.71875 1 
Q 33.40625 -1.421875 27.6875 -1.421875 
Q 18.265625 -1.421875 13.375 4.4375 
Q 8.5 10.296875 8.5 21.578125 
z
M 31.109375 56 
z
" id="DejaVuSans-75"/>
      </defs>
      <g transform="translate(290.451562 582.923437)rotate(-90)scale(0.1 -0.1)">
       <use xlink:href="#DejaVuSans-57"/>
       <use x="98.798828" xlink:href="#DejaVuSans-65"/>
       <use x="160.322266" xlink:href="#DejaVuSans-73"/>
       <use x="212.421875" xlink:href="#DejaVuSans-74"/>
       <use x="251.630859" xlink:href="#DejaVuSans-66"/>
       <use x="286.835938" xlink:href="#DejaVuSans-69"/>
       <use x="314.619141" xlink:href="#DejaVuSans-65"/>
       <use x="376.142578" xlink:href="#DejaVuSans-6c"/>
       <use x="403.925781" xlink:href="#DejaVuSans-64"/>
       <use x="467.402344" xlink:href="#DejaVuSans-20"/>
       <use x="499.189453" xlink:href="#DejaVuSans-2d"/>
       <use x="535.273438" xlink:href="#DejaVuSans-20"/>
       <use x="567.060547" xlink:href="#DejaVuSans-4d"/>
       <use x="653.339844" xlink:href="#DejaVuSans-75"/>
       <use x="716.71875" xlink:href="#DejaVuSans-6e"/>
       <use x="780.097656" xlink:href="#DejaVuSans-67"/>
       <use x="843.574219" xlink:href="#DejaVuSans-65"/>
       <use x="905.097656" xlink:href="#DejaVuSans-72"/>
       <use x="946.210938" xlink:href="#DejaVuSans-20"/>
       <use x="977.998047" xlink:href="#DejaVuSans-48"/>
       <use x="1053.193359" xlink:href="#DejaVuSans-69"/>
       <use x="1080.976562" xlink:href="#DejaVuSans-6c"/>
       <use x="1108.759766" xlink:href="#DejaVuSans-6c"/>
      </g>
     </g>
    </g>
    <g id="xtick_6">
     <g id="line2d_6">
      <g>
       <use style="stroke:#000000;stroke-width:0.8;" x="343.426562" xlink:href="#m4361e3a138" y="462.270312"/>
      </g>
     </g>
     <g id="text_6">
      <!-- Westfield - North Middle School -->
      <defs>
       <path d="M 9.8125 72.90625 
L 23.09375 72.90625 
L 55.421875 11.921875 
L 55.421875 72.90625 
L 64.984375 72.90625 
L 64.984375 0 
L 51.703125 0 
L 19.390625 60.984375 
L 19.390625 0 
L 9.8125 0 
z
" id="DejaVuSans-4e"/>
       <path d="M 53.515625 70.515625 
L 53.515625 60.890625 
Q 47.90625 63.578125 42.921875 64.890625 
Q 37.9375 66.21875 33.296875 66.21875 
Q 25.25 66.21875 20.875 63.09375 
Q 16.5 59.96875 16.5 54.203125 
Q 16.5 49.359375 19.40625 46.890625 
Q 22.3125 44.4375 30.421875 42.921875 
L 36.375 41.703125 
Q 47.40625 39.59375 52.65625 34.296875 
Q 57.90625 29 57.90625 20.125 
Q 57.90625 9.515625 50.796875 4.046875 
Q 43.703125 -1.421875 29.984375 -1.421875 
Q 24.8125 -1.421875 18.96875 -0.25 
Q 13.140625 0.921875 6.890625 3.21875 
L 6.890625 13.375 
Q 12.890625 10.015625 18.65625 8.296875 
Q 24.421875 6.59375 29.984375 6.59375 
Q 38.421875 6.59375 43.015625 9.90625 
Q 47.609375 13.234375 47.609375 19.390625 
Q 47.609375 24.75 44.3125 27.78125 
Q 41.015625 30.8125 33.5 32.328125 
L 27.484375 33.5 
Q 16.453125 35.6875 11.515625 40.375 
Q 6.59375 45.0625 6.59375 53.421875 
Q 6.59375 63.09375 13.40625 68.65625 
Q 20.21875 74.21875 32.171875 74.21875 
Q 37.3125 74.21875 42.625 73.28125 
Q 47.953125 72.359375 53.515625 70.515625 
z
" id="DejaVuSans-53"/>
       <path d="M 48.78125 52.59375 
L 48.78125 44.1875 
Q 44.96875 46.296875 41.140625 47.34375 
Q 37.3125 48.390625 33.40625 48.390625 
Q 24.65625 48.390625 19.8125 42.84375 
Q 14.984375 37.3125 14.984375 27.296875 
Q 14.984375 17.28125 19.8125 11.734375 
Q 24.65625 6.203125 33.40625 6.203125 
Q 37.3125 6.203125 41.140625 7.25 
Q 44.96875 8.296875 48.78125 10.40625 
L 48.78125 2.09375 
Q 45.015625 0.34375 40.984375 -0.53125 
Q 36.96875 -1.421875 32.421875 -1.421875 
Q 20.0625 -1.421875 12.78125 6.34375 
Q 5.515625 14.109375 5.515625 27.296875 
Q 5.515625 40.671875 12.859375 48.328125 
Q 20.21875 56 33.015625 56 
Q 37.15625 56 41.109375 55.140625 
Q 45.0625 54.296875 48.78125 52.59375 
z
" id="DejaVuSans-63"/>
      </defs>
      <g transform="translate(346.185937 626.534375)rotate(-90)scale(0.1 -0.1)">
       <use xlink:href="#DejaVuSans-57"/>
       <use x="98.798828" xlink:href="#DejaVuSans-65"/>
       <use x="160.322266" xlink:href="#DejaVuSans-73"/>
       <use x="212.421875" xlink:href="#DejaVuSans-74"/>
       <use x="251.630859" xlink:href="#DejaVuSans-66"/>
       <use x="286.835938" xlink:href="#DejaVuSans-69"/>
       <use x="314.619141" xlink:href="#DejaVuSans-65"/>
       <use x="376.142578" xlink:href="#DejaVuSans-6c"/>
       <use x="403.925781" xlink:href="#DejaVuSans-64"/>
       <use x="467.402344" xlink:href="#DejaVuSans-20"/>
       <use x="499.189453" xlink:href="#DejaVuSans-2d"/>
       <use x="535.273438" xlink:href="#DejaVuSans-20"/>
       <use x="567.060547" xlink:href="#DejaVuSans-4e"/>
       <use x="641.865234" xlink:href="#DejaVuSans-6f"/>
       <use x="703.046875" xlink:href="#DejaVuSans-72"/>
       <use x="744.160156" xlink:href="#DejaVuSans-74"/>
       <use x="783.369141" xlink:href="#DejaVuSans-68"/>
       <use x="846.748047" xlink:href="#DejaVuSans-20"/>
       <use x="878.535156" xlink:href="#DejaVuSans-4d"/>
       <use x="964.814453" xlink:href="#DejaVuSans-69"/>
       <use x="992.597656" xlink:href="#DejaVuSans-64"/>
       <use x="1056.074219" xlink:href="#DejaVuSans-64"/>
       <use x="1119.550781" xlink:href="#DejaVuSans-6c"/>
       <use x="1147.333984" xlink:href="#DejaVuSans-65"/>
       <use x="1208.857422" xlink:href="#DejaVuSans-20"/>
       <use x="1240.644531" xlink:href="#DejaVuSans-53"/>
       <use x="1304.121094" xlink:href="#DejaVuSans-63"/>
       <use x="1359.101562" xlink:href="#DejaVuSans-68"/>
       <use x="1422.480469" xlink:href="#DejaVuSans-6f"/>
       <use x="1483.662109" xlink:href="#DejaVuSans-6f"/>
       <use x="1544.84375" xlink:href="#DejaVuSans-6c"/>
      </g>
     </g>
    </g>
    <g id="xtick_7">
     <g id="line2d_7">
      <g>
       <use style="stroke:#000000;stroke-width:0.8;" x="399.160937" xlink:href="#m4361e3a138" y="462.270312"/>
      </g>
     </g>
     <g id="text_7">
      <!-- Westfield - Paper Mill -->
      <defs>
       <path d="M 19.671875 64.796875 
L 19.671875 37.40625 
L 32.078125 37.40625 
Q 38.96875 37.40625 42.71875 40.96875 
Q 46.484375 44.53125 46.484375 51.125 
Q 46.484375 57.671875 42.71875 61.234375 
Q 38.96875 64.796875 32.078125 64.796875 
z
M 9.8125 72.90625 
L 32.078125 72.90625 
Q 44.34375 72.90625 50.609375 67.359375 
Q 56.890625 61.8125 56.890625 51.125 
Q 56.890625 40.328125 50.609375 34.8125 
Q 44.34375 29.296875 32.078125 29.296875 
L 19.671875 29.296875 
L 19.671875 0 
L 9.8125 0 
z
" id="DejaVuSans-50"/>
       <path d="M 18.109375 8.203125 
L 18.109375 -20.796875 
L 9.078125 -20.796875 
L 9.078125 54.6875 
L 18.109375 54.6875 
L 18.109375 46.390625 
Q 20.953125 51.265625 25.265625 53.625 
Q 29.59375 56 35.59375 56 
Q 45.5625 56 51.78125 48.09375 
Q 58.015625 40.1875 58.015625 27.296875 
Q 58.015625 14.40625 51.78125 6.484375 
Q 45.5625 -1.421875 35.59375 -1.421875 
Q 29.59375 -1.421875 25.265625 0.953125 
Q 20.953125 3.328125 18.109375 8.203125 
z
M 48.6875 27.296875 
Q 48.6875 37.203125 44.609375 42.84375 
Q 40.53125 48.484375 33.40625 48.484375 
Q 26.265625 48.484375 22.1875 42.84375 
Q 18.109375 37.203125 18.109375 27.296875 
Q 18.109375 17.390625 22.1875 11.75 
Q 26.265625 6.109375 33.40625 6.109375 
Q 40.53125 6.109375 44.609375 11.75 
Q 48.6875 17.390625 48.6875 27.296875 
z
" id="DejaVuSans-70"/>
      </defs>
      <g transform="translate(401.920312 574.879688)rotate(-90)scale(0.1 -0.1)">
       <use xlink:href="#DejaVuSans-57"/>
       <use x="98.798828" xlink:href="#DejaVuSans-65"/>
       <use x="160.322266" xlink:href="#DejaVuSans-73"/>
       <use x="212.421875" xlink:href="#DejaVuSans-74"/>
       <use x="251.630859" xlink:href="#DejaVuSans-66"/>
       <use x="286.835938" xlink:href="#DejaVuSans-69"/>
       <use x="314.619141" xlink:href="#DejaVuSans-65"/>
       <use x="376.142578" xlink:href="#DejaVuSans-6c"/>
       <use x="403.925781" xlink:href="#DejaVuSans-64"/>
       <use x="467.402344" xlink:href="#DejaVuSans-20"/>
       <use x="499.189453" xlink:href="#DejaVuSans-2d"/>
       <use x="535.273438" xlink:href="#DejaVuSans-20"/>
       <use x="567.060547" xlink:href="#DejaVuSans-50"/>
       <use x="627.300781" xlink:href="#DejaVuSans-61"/>
       <use x="688.580078" xlink:href="#DejaVuSans-70"/>
       <use x="752.056641" xlink:href="#DejaVuSans-65"/>
       <use x="813.580078" xlink:href="#DejaVuSans-72"/>
       <use x="854.693359" xlink:href="#DejaVuSans-20"/>
       <use x="886.480469" xlink:href="#DejaVuSans-4d"/>
       <use x="972.759766" xlink:href="#DejaVuSans-69"/>
       <use x="1000.542969" xlink:href="#DejaVuSans-6c"/>
       <use x="1028.326172" xlink:href="#DejaVuSans-6c"/>
      </g>
     </g>
    </g>
    <g id="xtick_8">
     <g id="line2d_8">
      <g>
       <use style="stroke:#000000;stroke-width:0.8;" x="454.895312" xlink:href="#m4361e3a138" y="462.270312"/>
      </g>
     </g>
     <g id="text_8">
      <!-- Westfield - Russell Elementary School -->
      <defs>
       <path d="M 44.390625 34.1875 
Q 47.5625 33.109375 50.5625 29.59375 
Q 53.5625 26.078125 56.59375 19.921875 
L 66.609375 0 
L 56 0 
L 46.6875 18.703125 
Q 43.0625 26.03125 39.671875 28.421875 
Q 36.28125 30.8125 30.421875 30.8125 
L 19.671875 30.8125 
L 19.671875 0 
L 9.8125 0 
L 9.8125 72.90625 
L 32.078125 72.90625 
Q 44.578125 72.90625 50.734375 67.671875 
Q 56.890625 62.453125 56.890625 51.90625 
Q 56.890625 45.015625 53.6875 40.46875 
Q 50.484375 35.9375 44.390625 34.1875 
z
M 19.671875 64.796875 
L 19.671875 38.921875 
L 32.078125 38.921875 
Q 39.203125 38.921875 42.84375 42.21875 
Q 46.484375 45.515625 46.484375 51.90625 
Q 46.484375 58.296875 42.84375 61.546875 
Q 39.203125 64.796875 32.078125 64.796875 
z
" id="DejaVuSans-52"/>
       <path d="M 52 44.1875 
Q 55.375 50.25 60.0625 53.125 
Q 64.75 56 71.09375 56 
Q 79.640625 56 84.28125 50.015625 
Q 88.921875 44.046875 88.921875 33.015625 
L 88.921875 0 
L 79.890625 0 
L 79.890625 32.71875 
Q 79.890625 40.578125 77.09375 44.375 
Q 74.3125 48.1875 68.609375 48.1875 
Q 61.625 48.1875 57.5625 43.546875 
Q 53.515625 38.921875 53.515625 30.90625 
L 53.515625 0 
L 44.484375 0 
L 44.484375 32.71875 
Q 44.484375 40.625 41.703125 44.40625 
Q 38.921875 48.1875 33.109375 48.1875 
Q 26.21875 48.1875 22.15625 43.53125 
Q 18.109375 38.875 18.109375 30.90625 
L 18.109375 0 
L 9.078125 0 
L 9.078125 54.6875 
L 18.109375 54.6875 
L 18.109375 46.1875 
Q 21.1875 51.21875 25.484375 53.609375 
Q 29.78125 56 35.6875 56 
Q 41.65625 56 45.828125 52.96875 
Q 50 49.953125 52 44.1875 
z
" id="DejaVuSans-6d"/>
      </defs>
      <g transform="translate(457.654687 658.498438)rotate(-90)scale(0.1 -0.1)">
       <use xlink:href="#DejaVuSans-57"/>
       <use x="98.798828" xlink:href="#DejaVuSans-65"/>
       <use x="160.322266" xlink:href="#DejaVuSans-73"/>
       <use x="212.421875" xlink:href="#DejaVuSans-74"/>
       <use x="251.630859" xlink:href="#DejaVuSans-66"/>
       <use x="286.835938" xlink:href="#DejaVuSans-69"/>
       <use x="314.619141" xlink:href="#DejaVuSans-65"/>
       <use x="376.142578" xlink:href="#DejaVuSans-6c"/>
       <use x="403.925781" xlink:href="#DejaVuSans-64"/>
       <use x="467.402344" xlink:href="#DejaVuSans-20"/>
       <use x="499.189453" xlink:href="#DejaVuSans-2d"/>
       <use x="535.273438" xlink:href="#DejaVuSans-20"/>
       <use x="567.060547" xlink:href="#DejaVuSans-52"/>
       <use x="636.480469" xlink:href="#DejaVuSans-75"/>
       <use x="699.859375" xlink:href="#DejaVuSans-73"/>
       <use x="751.958984" xlink:href="#DejaVuSans-73"/>
       <use x="804.058594" xlink:href="#DejaVuSans-65"/>
       <use x="865.582031" xlink:href="#DejaVuSans-6c"/>
       <use x="893.365234" xlink:href="#DejaVuSans-6c"/>
       <use x="921.148438" xlink:href="#DejaVuSans-20"/>
       <use x="952.935547" xlink:href="#DejaVuSans-45"/>
       <use x="1016.119141" xlink:href="#DejaVuSans-6c"/>
       <use x="1043.902344" xlink:href="#DejaVuSans-65"/>
       <use x="1105.425781" xlink:href="#DejaVuSans-6d"/>
       <use x="1202.837891" xlink:href="#DejaVuSans-65"/>
       <use x="1264.361328" xlink:href="#DejaVuSans-6e"/>
       <use x="1327.740234" xlink:href="#DejaVuSans-74"/>
       <use x="1366.949219" xlink:href="#DejaVuSans-61"/>
       <use x="1428.228516" xlink:href="#DejaVuSans-72"/>
       <use x="1469.341797" xlink:href="#DejaVuSans-79"/>
       <use x="1528.521484" xlink:href="#DejaVuSans-20"/>
       <use x="1560.308594" xlink:href="#DejaVuSans-53"/>
       <use x="1623.785156" xlink:href="#DejaVuSans-63"/>
       <use x="1678.765625" xlink:href="#DejaVuSans-68"/>
       <use x="1742.144531" xlink:href="#DejaVuSans-6f"/>
       <use x="1803.326172" xlink:href="#DejaVuSans-6f"/>
       <use x="1864.507812" xlink:href="#DejaVuSans-6c"/>
      </g>
     </g>
    </g>
    <g id="xtick_9">
     <g id="line2d_9">
      <g>
       <use style="stroke:#000000;stroke-width:0.8;" x="510.629687" xlink:href="#m4361e3a138" y="462.270312"/>
      </g>
     </g>
     <g id="text_9">
      <!-- Westfield - South Middle School -->
      <g transform="translate(513.389063 627.628125)rotate(-90)scale(0.1 -0.1)">
       <use xlink:href="#DejaVuSans-57"/>
       <use x="98.798828" xlink:href="#DejaVuSans-65"/>
       <use x="160.322266" xlink:href="#DejaVuSans-73"/>
       <use x="212.421875" xlink:href="#DejaVuSans-74"/>
       <use x="251.630859" xlink:href="#DejaVuSans-66"/>
       <use x="286.835938" xlink:href="#DejaVuSans-69"/>
       <use x="314.619141" xlink:href="#DejaVuSans-65"/>
       <use x="376.142578" xlink:href="#DejaVuSans-6c"/>
       <use x="403.925781" xlink:href="#DejaVuSans-64"/>
       <use x="467.402344" xlink:href="#DejaVuSans-20"/>
       <use x="499.189453" xlink:href="#DejaVuSans-2d"/>
       <use x="535.273438" xlink:href="#DejaVuSans-20"/>
       <use x="567.060547" xlink:href="#DejaVuSans-53"/>
       <use x="630.537109" xlink:href="#DejaVuSans-6f"/>
       <use x="691.71875" xlink:href="#DejaVuSans-75"/>
       <use x="755.097656" xlink:href="#DejaVuSans-74"/>
       <use x="794.306641" xlink:href="#DejaVuSans-68"/>
       <use x="857.685547" xlink:href="#DejaVuSans-20"/>
       <use x="889.472656" xlink:href="#DejaVuSans-4d"/>
       <use x="975.751953" xlink:href="#DejaVuSans-69"/>
       <use x="1003.535156" xlink:href="#DejaVuSans-64"/>
       <use x="1067.011719" xlink:href="#DejaVuSans-64"/>
       <use x="1130.488281" xlink:href="#DejaVuSans-6c"/>
       <use x="1158.271484" xlink:href="#DejaVuSans-65"/>
       <use x="1219.794922" xlink:href="#DejaVuSans-20"/>
       <use x="1251.582031" xlink:href="#DejaVuSans-53"/>
       <use x="1315.058594" xlink:href="#DejaVuSans-63"/>
       <use x="1370.039062" xlink:href="#DejaVuSans-68"/>
       <use x="1433.417969" xlink:href="#DejaVuSans-6f"/>
       <use x="1494.599609" xlink:href="#DejaVuSans-6f"/>
       <use x="1555.78125" xlink:href="#DejaVuSans-6c"/>
      </g>
     </g>
    </g>
    <g id="xtick_10">
     <g id="line2d_10">
      <g>
       <use style="stroke:#000000;stroke-width:0.8;" x="566.364063" xlink:href="#m4361e3a138" y="462.270312"/>
      </g>
     </g>
     <g id="text_10">
      <!-- Westfield - Southampton Road -->
      <g transform="translate(569.123438 622.346875)rotate(-90)scale(0.1 -0.1)">
       <use xlink:href="#DejaVuSans-57"/>
       <use x="98.798828" xlink:href="#DejaVuSans-65"/>
       <use x="160.322266" xlink:href="#DejaVuSans-73"/>
       <use x="212.421875" xlink:href="#DejaVuSans-74"/>
       <use x="251.630859" xlink:href="#DejaVuSans-66"/>
       <use x="286.835938" xlink:href="#DejaVuSans-69"/>
       <use x="314.619141" xlink:href="#DejaVuSans-65"/>
       <use x="376.142578" xlink:href="#DejaVuSans-6c"/>
       <use x="403.925781" xlink:href="#DejaVuSans-64"/>
       <use x="467.402344" xlink:href="#DejaVuSans-20"/>
       <use x="499.189453" xlink:href="#DejaVuSans-2d"/>
       <use x="535.273438" xlink:href="#DejaVuSans-20"/>
       <use x="567.060547" xlink:href="#DejaVuSans-53"/>
       <use x="630.537109" xlink:href="#DejaVuSans-6f"/>
       <use x="691.71875" xlink:href="#DejaVuSans-75"/>
       <use x="755.097656" xlink:href="#DejaVuSans-74"/>
       <use x="794.306641" xlink:href="#DejaVuSans-68"/>
       <use x="857.685547" xlink:href="#DejaVuSans-61"/>
       <use x="918.964844" xlink:href="#DejaVuSans-6d"/>
       <use x="1016.376953" xlink:href="#DejaVuSans-70"/>
       <use x="1079.853516" xlink:href="#DejaVuSans-74"/>
       <use x="1119.0625" xlink:href="#DejaVuSans-6f"/>
       <use x="1180.244141" xlink:href="#DejaVuSans-6e"/>
       <use x="1243.623047" xlink:href="#DejaVuSans-20"/>
       <use x="1275.410156" xlink:href="#DejaVuSans-52"/>
       <use x="1344.830078" xlink:href="#DejaVuSans-6f"/>
       <use x="1406.011719" xlink:href="#DejaVuSans-61"/>
       <use x="1467.291016" xlink:href="#DejaVuSans-64"/>
      </g>
     </g>
    </g>
    <g id="xtick_11">
     <g id="line2d_11">
      <g>
       <use style="stroke:#000000;stroke-width:0.8;" x="622.098438" xlink:href="#m4361e3a138" y="462.270312"/>
      </g>
     </g>
     <g id="text_11">
      <!-- Westfield - Westfield High -->
      <g transform="translate(624.857813 598.878125)rotate(-90)scale(0.1 -0.1)">
       <use xlink:href="#DejaVuSans-57"/>
       <use x="98.798828" xlink:href="#DejaVuSans-65"/>
       <use x="160.322266" xlink:href="#DejaVuSans-73"/>
       <use x="212.421875" xlink:href="#DejaVuSans-74"/>
       <use x="251.630859" xlink:href="#DejaVuSans-66"/>
       <use x="286.835938" xlink:href="#DejaVuSans-69"/>
       <use x="314.619141" xlink:href="#DejaVuSans-65"/>
       <use x="376.142578" xlink:href="#DejaVuSans-6c"/>
       <use x="403.925781" xlink:href="#DejaVuSans-64"/>
       <use x="467.402344" xlink:href="#DejaVuSans-20"/>
       <use x="499.189453" xlink:href="#DejaVuSans-2d"/>
       <use x="535.273438" xlink:href="#DejaVuSans-20"/>
       <use x="567.060547" xlink:href="#DejaVuSans-57"/>
       <use x="665.859375" xlink:href="#DejaVuSans-65"/>
       <use x="727.382812" xlink:href="#DejaVuSans-73"/>
       <use x="779.482422" xlink:href="#DejaVuSans-74"/>
       <use x="818.691406" xlink:href="#DejaVuSans-66"/>
       <use x="853.896484" xlink:href="#DejaVuSans-69"/>
       <use x="881.679688" xlink:href="#DejaVuSans-65"/>
       <use x="943.203125" xlink:href="#DejaVuSans-6c"/>
       <use x="970.986328" xlink:href="#DejaVuSans-64"/>
       <use x="1034.462891" xlink:href="#DejaVuSans-20"/>
       <use x="1066.25" xlink:href="#DejaVuSans-48"/>
       <use x="1141.445312" xlink:href="#DejaVuSans-69"/>
       <use x="1169.228516" xlink:href="#DejaVuSans-67"/>
       <use x="1232.705078" xlink:href="#DejaVuSans-68"/>
      </g>
     </g>
    </g>
    <g id="xtick_12">
     <g id="line2d_12">
      <g>
       <use style="stroke:#000000;stroke-width:0.8;" x="677.832813" xlink:href="#m4361e3a138" y="462.270312"/>
      </g>
     </g>
     <g id="text_12">
      <!-- Westfield - Westfield Technical Academy -->
      <defs>
       <path d="M -0.296875 72.90625 
L 61.375 72.90625 
L 61.375 64.59375 
L 35.5 64.59375 
L 35.5 0 
L 25.59375 0 
L 25.59375 64.59375 
L -0.296875 64.59375 
z
" id="DejaVuSans-54"/>
      </defs>
      <g transform="translate(680.592188 673.289062)rotate(-90)scale(0.1 -0.1)">
       <use xlink:href="#DejaVuSans-57"/>
       <use x="98.798828" xlink:href="#DejaVuSans-65"/>
       <use x="160.322266" xlink:href="#DejaVuSans-73"/>
       <use x="212.421875" xlink:href="#DejaVuSans-74"/>
       <use x="251.630859" xlink:href="#DejaVuSans-66"/>
       <use x="286.835938" xlink:href="#DejaVuSans-69"/>
       <use x="314.619141" xlink:href="#DejaVuSans-65"/>
       <use x="376.142578" xlink:href="#DejaVuSans-6c"/>
       <use x="403.925781" xlink:href="#DejaVuSans-64"/>
       <use x="467.402344" xlink:href="#DejaVuSans-20"/>
       <use x="499.189453" xlink:href="#DejaVuSans-2d"/>
       <use x="535.273438" xlink:href="#DejaVuSans-20"/>
       <use x="567.060547" xlink:href="#DejaVuSans-57"/>
       <use x="665.859375" xlink:href="#DejaVuSans-65"/>
       <use x="727.382812" xlink:href="#DejaVuSans-73"/>
       <use x="779.482422" xlink:href="#DejaVuSans-74"/>
       <use x="818.691406" xlink:href="#DejaVuSans-66"/>
       <use x="853.896484" xlink:href="#DejaVuSans-69"/>
       <use x="881.679688" xlink:href="#DejaVuSans-65"/>
       <use x="943.203125" xlink:href="#DejaVuSans-6c"/>
       <use x="970.986328" xlink:href="#DejaVuSans-64"/>
       <use x="1034.462891" xlink:href="#DejaVuSans-20"/>
       <use x="1066.25" xlink:href="#DejaVuSans-54"/>
       <use x="1127.068359" xlink:href="#DejaVuSans-65"/>
       <use x="1188.591797" xlink:href="#DejaVuSans-63"/>
       <use x="1243.572266" xlink:href="#DejaVuSans-68"/>
       <use x="1306.951172" xlink:href="#DejaVuSans-6e"/>
       <use x="1370.330078" xlink:href="#DejaVuSans-69"/>
       <use x="1398.113281" xlink:href="#DejaVuSans-63"/>
       <use x="1453.09375" xlink:href="#DejaVuSans-61"/>
       <use x="1514.373047" xlink:href="#DejaVuSans-6c"/>
       <use x="1542.15625" xlink:href="#DejaVuSans-20"/>
       <use x="1573.943359" xlink:href="#DejaVuSans-41"/>
       <use x="1642.335938" xlink:href="#DejaVuSans-63"/>
       <use x="1697.316406" xlink:href="#DejaVuSans-61"/>
       <use x="1758.595703" xlink:href="#DejaVuSans-64"/>
       <use x="1822.072266" xlink:href="#DejaVuSans-65"/>
       <use x="1883.595703" xlink:href="#DejaVuSans-6d"/>
       <use x="1981.007812" xlink:href="#DejaVuSans-79"/>
      </g>
     </g>
    </g>
   </g>
   <g id="matplotlib.axis_2">
    <g id="ytick_1">
     <g id="line2d_13">
      <defs>
       <path d="M 0 0 
L -3.5 0 
" id="m8bacc27f31" style="stroke:#000000;stroke-width:0.8;"/>
      </defs>
      <g>
       <use style="stroke:#000000;stroke-width:0.8;" x="36.8875" xlink:href="#m8bacc27f31" y="462.270312"/>
      </g>
     </g>
     <g id="text_13">
      <!-- 0 -->
      <defs>
       <path d="M 31.78125 66.40625 
Q 24.171875 66.40625 20.328125 58.90625 
Q 16.5 51.421875 16.5 36.375 
Q 16.5 21.390625 20.328125 13.890625 
Q 24.171875 6.390625 31.78125 6.390625 
Q 39.453125 6.390625 43.28125 13.890625 
Q 47.125 21.390625 47.125 36.375 
Q 47.125 51.421875 43.28125 58.90625 
Q 39.453125 66.40625 31.78125 66.40625 
z
M 31.78125 74.21875 
Q 44.046875 74.21875 50.515625 64.515625 
Q 56.984375 54.828125 56.984375 36.375 
Q 56.984375 17.96875 50.515625 8.265625 
Q 44.046875 -1.421875 31.78125 -1.421875 
Q 19.53125 -1.421875 13.0625 8.265625 
Q 6.59375 17.96875 6.59375 36.375 
Q 6.59375 54.828125 13.0625 64.515625 
Q 19.53125 74.21875 31.78125 74.21875 
z
" id="DejaVuSans-30"/>
      </defs>
      <g transform="translate(23.525 466.069531)scale(0.1 -0.1)">
       <use xlink:href="#DejaVuSans-30"/>
      </g>
     </g>
    </g>
    <g id="ytick_2">
     <g id="line2d_14">
      <g>
       <use style="stroke:#000000;stroke-width:0.8;" x="36.8875" xlink:href="#m8bacc27f31" y="376.513852"/>
      </g>
     </g>
     <g id="text_14">
      <!-- 20 -->
      <defs>
       <path d="M 19.1875 8.296875 
L 53.609375 8.296875 
L 53.609375 0 
L 7.328125 0 
L 7.328125 8.296875 
Q 12.9375 14.109375 22.625 23.890625 
Q 32.328125 33.6875 34.8125 36.53125 
Q 39.546875 41.84375 41.421875 45.53125 
Q 43.3125 49.21875 43.3125 52.78125 
Q 43.3125 58.59375 39.234375 62.25 
Q 35.15625 65.921875 28.609375 65.921875 
Q 23.96875 65.921875 18.8125 64.3125 
Q 13.671875 62.703125 7.8125 59.421875 
L 7.8125 69.390625 
Q 13.765625 71.78125 18.9375 73 
Q 24.125 74.21875 28.421875 74.21875 
Q 39.75 74.21875 46.484375 68.546875 
Q 53.21875 62.890625 53.21875 53.421875 
Q 53.21875 48.921875 51.53125 44.890625 
Q 49.859375 40.875 45.40625 35.40625 
Q 44.1875 33.984375 37.640625 27.21875 
Q 31.109375 20.453125 19.1875 8.296875 
z
" id="DejaVuSans-32"/>
      </defs>
      <g transform="translate(17.1625 380.31307)scale(0.1 -0.1)">
       <use xlink:href="#DejaVuSans-32"/>
       <use x="63.623047" xlink:href="#DejaVuSans-30"/>
      </g>
     </g>
    </g>
    <g id="ytick_3">
     <g id="line2d_15">
      <g>
       <use style="stroke:#000000;stroke-width:0.8;" x="36.8875" xlink:href="#m8bacc27f31" y="290.757391"/>
      </g>
     </g>
     <g id="text_15">
      <!-- 40 -->
      <defs>
       <path d="M 37.796875 64.3125 
L 12.890625 25.390625 
L 37.796875 25.390625 
z
M 35.203125 72.90625 
L 47.609375 72.90625 
L 47.609375 25.390625 
L 58.015625 25.390625 
L 58.015625 17.1875 
L 47.609375 17.1875 
L 47.609375 0 
L 37.796875 0 
L 37.796875 17.1875 
L 4.890625 17.1875 
L 4.890625 26.703125 
z
" id="DejaVuSans-34"/>
      </defs>
      <g transform="translate(17.1625 294.556609)scale(0.1 -0.1)">
       <use xlink:href="#DejaVuSans-34"/>
       <use x="63.623047" xlink:href="#DejaVuSans-30"/>
      </g>
     </g>
    </g>
    <g id="ytick_4">
     <g id="line2d_16">
      <g>
       <use style="stroke:#000000;stroke-width:0.8;" x="36.8875" xlink:href="#m8bacc27f31" y="205.00093"/>
      </g>
     </g>
     <g id="text_16">
      <!-- 60 -->
      <defs>
       <path d="M 33.015625 40.375 
Q 26.375 40.375 22.484375 35.828125 
Q 18.609375 31.296875 18.609375 23.390625 
Q 18.609375 15.53125 22.484375 10.953125 
Q 26.375 6.390625 33.015625 6.390625 
Q 39.65625 6.390625 43.53125 10.953125 
Q 47.40625 15.53125 47.40625 23.390625 
Q 47.40625 31.296875 43.53125 35.828125 
Q 39.65625 40.375 33.015625 40.375 
z
M 52.59375 71.296875 
L 52.59375 62.3125 
Q 48.875 64.0625 45.09375 64.984375 
Q 41.3125 65.921875 37.59375 65.921875 
Q 27.828125 65.921875 22.671875 59.328125 
Q 17.53125 52.734375 16.796875 39.40625 
Q 19.671875 43.65625 24.015625 45.921875 
Q 28.375 48.1875 33.59375 48.1875 
Q 44.578125 48.1875 50.953125 41.515625 
Q 57.328125 34.859375 57.328125 23.390625 
Q 57.328125 12.15625 50.6875 5.359375 
Q 44.046875 -1.421875 33.015625 -1.421875 
Q 20.359375 -1.421875 13.671875 8.265625 
Q 6.984375 17.96875 6.984375 36.375 
Q 6.984375 53.65625 15.1875 63.9375 
Q 23.390625 74.21875 37.203125 74.21875 
Q 40.921875 74.21875 44.703125 73.484375 
Q 48.484375 72.75 52.59375 71.296875 
z
" id="DejaVuSans-36"/>
      </defs>
      <g transform="translate(17.1625 208.800149)scale(0.1 -0.1)">
       <use xlink:href="#DejaVuSans-36"/>
       <use x="63.623047" xlink:href="#DejaVuSans-30"/>
      </g>
     </g>
    </g>
    <g id="ytick_5">
     <g id="line2d_17">
      <g>
       <use style="stroke:#000000;stroke-width:0.8;" x="36.8875" xlink:href="#m8bacc27f31" y="119.244469"/>
      </g>
     </g>
     <g id="text_17">
      <!-- 80 -->
      <defs>
       <path d="M 31.78125 34.625 
Q 24.75 34.625 20.71875 30.859375 
Q 16.703125 27.09375 16.703125 20.515625 
Q 16.703125 13.921875 20.71875 10.15625 
Q 24.75 6.390625 31.78125 6.390625 
Q 38.8125 6.390625 42.859375 10.171875 
Q 46.921875 13.96875 46.921875 20.515625 
Q 46.921875 27.09375 42.890625 30.859375 
Q 38.875 34.625 31.78125 34.625 
z
M 21.921875 38.8125 
Q 15.578125 40.375 12.03125 44.71875 
Q 8.5 49.078125 8.5 55.328125 
Q 8.5 64.0625 14.71875 69.140625 
Q 20.953125 74.21875 31.78125 74.21875 
Q 42.671875 74.21875 48.875 69.140625 
Q 55.078125 64.0625 55.078125 55.328125 
Q 55.078125 49.078125 51.53125 44.71875 
Q 48 40.375 41.703125 38.8125 
Q 48.828125 37.15625 52.796875 32.3125 
Q 56.78125 27.484375 56.78125 20.515625 
Q 56.78125 9.90625 50.3125 4.234375 
Q 43.84375 -1.421875 31.78125 -1.421875 
Q 19.734375 -1.421875 13.25 4.234375 
Q 6.78125 9.90625 6.78125 20.515625 
Q 6.78125 27.484375 10.78125 32.3125 
Q 14.796875 37.15625 21.921875 38.8125 
z
M 18.3125 54.390625 
Q 18.3125 48.734375 21.84375 45.5625 
Q 25.390625 42.390625 31.78125 42.390625 
Q 38.140625 42.390625 41.71875 45.5625 
Q 45.3125 48.734375 45.3125 54.390625 
Q 45.3125 60.0625 41.71875 63.234375 
Q 38.140625 66.40625 31.78125 66.40625 
Q 25.390625 66.40625 21.84375 63.234375 
Q 18.3125 60.0625 18.3125 54.390625 
z
" id="DejaVuSans-38"/>
      </defs>
      <g transform="translate(17.1625 123.043688)scale(0.1 -0.1)">
       <use xlink:href="#DejaVuSans-38"/>
       <use x="63.623047" xlink:href="#DejaVuSans-30"/>
      </g>
     </g>
    </g>
    <g id="ytick_6">
     <g id="line2d_18">
      <g>
       <use style="stroke:#000000;stroke-width:0.8;" x="36.8875" xlink:href="#m8bacc27f31" y="33.488008"/>
      </g>
     </g>
     <g id="text_18">
      <!-- 100 -->
      <defs>
       <path d="M 12.40625 8.296875 
L 28.515625 8.296875 
L 28.515625 63.921875 
L 10.984375 60.40625 
L 10.984375 69.390625 
L 28.421875 72.90625 
L 38.28125 72.90625 
L 38.28125 8.296875 
L 54.390625 8.296875 
L 54.390625 0 
L 12.40625 0 
z
" id="DejaVuSans-31"/>
      </defs>
      <g transform="translate(10.8 37.287227)scale(0.1 -0.1)">
       <use xlink:href="#DejaVuSans-31"/>
       <use x="63.623047" xlink:href="#DejaVuSans-30"/>
       <use x="127.246094" xlink:href="#DejaVuSans-30"/>
      </g>
     </g>
    </g>
   </g>
   <g id="patch_51">
    <path d="M 36.8875 462.270312 
L 36.8875 14.3 
" style="fill:none;stroke:#000000;stroke-linecap:square;stroke-linejoin:miter;stroke-width:0.8;"/>
   </g>
   <g id="patch_52">
    <path d="M 705.7 462.270312 
L 705.7 14.3 
" style="fill:none;stroke:#000000;stroke-linecap:square;stroke-linejoin:miter;stroke-width:0.8;"/>
   </g>
   <g id="patch_53">
    <path d="M 36.8875 462.270312 
L 705.7 462.270312 
" style="fill:none;stroke:#000000;stroke-linecap:square;stroke-linejoin:miter;stroke-width:0.8;"/>
   </g>
   <g id="patch_54">
    <path d="M 36.8875 14.3 
L 705.7 14.3 
" style="fill:none;stroke:#000000;stroke-linecap:square;stroke-linejoin:miter;stroke-width:0.8;"/>
   </g>
   <g id="legend_1">
    <g id="patch_55">
     <path d="M 43.8875 81.0125 
L 158.684375 81.0125 
Q 160.684375 81.0125 160.684375 79.0125 
L 160.684375 21.3 
Q 160.684375 19.3 158.684375 19.3 
L 43.8875 19.3 
Q 41.8875 19.3 41.8875 21.3 
L 41.8875 79.0125 
Q 41.8875 81.0125 43.8875 81.0125 
z
" style="fill:#ffffff;opacity:0.8;stroke:#cccccc;stroke-linejoin:miter;"/>
    </g>
    <g id="patch_56">
     <path d="M 45.8875 30.898438 
L 65.8875 30.898438 
L 65.8875 23.898438 
L 45.8875 23.898438 
z
" style="fill:#1f77b4;"/>
    </g>
    <g id="text_19">
     <!-- AfricanAmerican -->
     <g transform="translate(73.8875 30.898438)scale(0.1 -0.1)">
      <use xlink:href="#DejaVuSans-41"/>
      <use x="68.361328" xlink:href="#DejaVuSans-66"/>
      <use x="103.566406" xlink:href="#DejaVuSans-72"/>
      <use x="144.679688" xlink:href="#DejaVuSans-69"/>
      <use x="172.462891" xlink:href="#DejaVuSans-63"/>
      <use x="227.443359" xlink:href="#DejaVuSans-61"/>
      <use x="288.722656" xlink:href="#DejaVuSans-6e"/>
      <use x="352.101562" xlink:href="#DejaVuSans-41"/>
      <use x="420.509766" xlink:href="#DejaVuSans-6d"/>
      <use x="517.921875" xlink:href="#DejaVuSans-65"/>
      <use x="579.445312" xlink:href="#DejaVuSans-72"/>
      <use x="620.558594" xlink:href="#DejaVuSans-69"/>
      <use x="648.341797" xlink:href="#DejaVuSans-63"/>
      <use x="703.322266" xlink:href="#DejaVuSans-61"/>
      <use x="764.601562" xlink:href="#DejaVuSans-6e"/>
     </g>
    </g>
    <g id="patch_57">
     <path d="M 45.8875 45.576563 
L 65.8875 45.576563 
L 65.8875 38.576563 
L 45.8875 38.576563 
z
" style="fill:#ff7f0e;"/>
    </g>
    <g id="text_20">
     <!-- Asian -->
     <g transform="translate(73.8875 45.576563)scale(0.1 -0.1)">
      <use xlink:href="#DejaVuSans-41"/>
      <use x="68.408203" xlink:href="#DejaVuSans-73"/>
      <use x="120.507812" xlink:href="#DejaVuSans-69"/>
      <use x="148.291016" xlink:href="#DejaVuSans-61"/>
      <use x="209.570312" xlink:href="#DejaVuSans-6e"/>
     </g>
    </g>
    <g id="patch_58">
     <path d="M 45.8875 60.254688 
L 65.8875 60.254688 
L 65.8875 53.254688 
L 45.8875 53.254688 
z
" style="fill:#2ca02c;"/>
    </g>
    <g id="text_21">
     <!-- White -->
     <g transform="translate(73.8875 60.254688)scale(0.1 -0.1)">
      <use xlink:href="#DejaVuSans-57"/>
      <use x="98.876953" xlink:href="#DejaVuSans-68"/>
      <use x="162.255859" xlink:href="#DejaVuSans-69"/>
      <use x="190.039062" xlink:href="#DejaVuSans-74"/>
      <use x="229.248047" xlink:href="#DejaVuSans-65"/>
     </g>
    </g>
    <g id="patch_59">
     <path d="M 45.8875 74.932812 
L 65.8875 74.932812 
L 65.8875 67.932812 
L 45.8875 67.932812 
z
" style="fill:#d62728;"/>
    </g>
    <g id="text_22">
     <!-- Hispanic -->
     <g transform="translate(73.8875 74.932812)scale(0.1 -0.1)">
      <use xlink:href="#DejaVuSans-48"/>
      <use x="75.195312" xlink:href="#DejaVuSans-69"/>
      <use x="102.978516" xlink:href="#DejaVuSans-73"/>
      <use x="155.078125" xlink:href="#DejaVuSans-70"/>
      <use x="218.554688" xlink:href="#DejaVuSans-61"/>
      <use x="279.833984" xlink:href="#DejaVuSans-6e"/>
      <use x="343.212891" xlink:href="#DejaVuSans-69"/>
      <use x="370.996094" xlink:href="#DejaVuSans-63"/>
     </g>
    </g>
   </g>
  </g>
 </g>
 <defs>
  <clipPath id="p3e63a3c85c">
   <rect height="447.970312" width="668.8125" x="36.8875" y="14.3"/>
  </clipPath>
 </defs>
</svg>
