<?xml version="1.0" encoding="utf-8" standalone="no"?>
<!DOCTYPE svg PUBLIC "-//W3C//DTD SVG 1.1//EN"
  "http://www.w3.org/Graphics/SVG/1.1/DTD/svg11.dtd">
<!-- Created with matplotlib (http://matplotlib.org/) -->
<svg height="720pt" version="1.1" viewBox="0 0 720 720" width="720pt" xmlns="http://www.w3.org/2000/svg" xmlns:xlink="http://www.w3.org/1999/xlink">
 <defs>
  <style type="text/css">
*{stroke-linecap:butt;stroke-linejoin:round;}
  </style>
 </defs>
 <g id="figure_1">
  <g id="patch_1">
   <path d="M 0 720 
L 720 720 
L 720 0 
L 0 0 
z
" style="fill:#ffffff;"/>
  </g>
  <g id="axes_1">
   <g id="patch_2">
    <path d="M 36.8875 482.59375 
L 705.7 482.59375 
L 705.7 14.3 
L 36.8875 14.3 
z
" style="fill:#ffffff;"/>
   </g>
   <g id="patch_3">
    <path clip-path="url(#pf00338fb3f)" d="M 48.83058 482.59375 
L 72.716741 482.59375 
L 72.716741 465.772364 
L 48.83058 465.772364 
z
" style="fill:#1f77b4;"/>
   </g>
   <g id="patch_4">
    <path clip-path="url(#pf00338fb3f)" d="M 96.602902 482.59375 
L 120.489062 482.59375 
L 120.489062 454.861195 
L 96.602902 454.861195 
z
" style="fill:#1f77b4;"/>
   </g>
   <g id="patch_5">
    <path clip-path="url(#pf00338fb3f)" d="M 144.375223 482.59375 
L 168.261384 482.59375 
L 168.261384 453.042666 
L 144.375223 453.042666 
z
" style="fill:#1f77b4;"/>
   </g>
   <g id="patch_6">
    <path clip-path="url(#pf00338fb3f)" d="M 192.147545 482.59375 
L 216.033705 482.59375 
L 216.033705 451.67877 
L 192.147545 451.67877 
z
" style="fill:#1f77b4;"/>
   </g>
   <g id="patch_7">
    <path clip-path="url(#pf00338fb3f)" d="M 239.919866 482.59375 
L 263.806027 482.59375 
L 263.806027 449.40561 
L 239.919866 449.40561 
z
" style="fill:#1f77b4;"/>
   </g>
   <g id="patch_8">
    <path clip-path="url(#pf00338fb3f)" d="M 287.692187 482.59375 
L 311.578348 482.59375 
L 311.578348 439.858337 
L 287.692187 439.858337 
z
" style="fill:#1f77b4;"/>
   </g>
   <g id="patch_9">
    <path clip-path="url(#pf00338fb3f)" d="M 335.464509 482.59375 
L 359.35067 482.59375 
L 359.35067 458.498251 
L 335.464509 458.498251 
z
" style="fill:#1f77b4;"/>
   </g>
   <g id="patch_10">
    <path clip-path="url(#pf00338fb3f)" d="M 383.23683 482.59375 
L 407.122991 482.59375 
L 407.122991 450.769506 
L 383.23683 450.769506 
z
" style="fill:#1f77b4;"/>
   </g>
   <g id="patch_11">
    <path clip-path="url(#pf00338fb3f)" d="M 431.009152 482.59375 
L 454.895312 482.59375 
L 454.895312 456.679723 
L 431.009152 456.679723 
z
" style="fill:#1f77b4;"/>
   </g>
   <g id="patch_12">
    <path clip-path="url(#pf00338fb3f)" d="M 478.781473 482.59375 
L 502.667634 482.59375 
L 502.667634 446.677818 
L 478.781473 446.677818 
z
" style="fill:#1f77b4;"/>
   </g>
   <g id="patch_13">
    <path clip-path="url(#pf00338fb3f)" d="M 526.553795 482.59375 
L 550.439955 482.59375 
L 550.439955 425.310111 
L 526.553795 425.310111 
z
" style="fill:#1f77b4;"/>
   </g>
   <g id="patch_14">
    <path clip-path="url(#pf00338fb3f)" d="M 574.326116 482.59375 
L 598.212277 482.59375 
L 598.212277 450.769506 
L 574.326116 450.769506 
z
" style="fill:#1f77b4;"/>
   </g>
   <g id="patch_15">
    <path clip-path="url(#pf00338fb3f)" d="M 622.098437 482.59375 
L 645.984598 482.59375 
L 645.984598 462.135307 
L 622.098437 462.135307 
z
" style="fill:#1f77b4;"/>
   </g>
   <g id="patch_16">
    <path clip-path="url(#pf00338fb3f)" d="M 669.870759 482.59375 
L 693.75692 482.59375 
L 693.75692 439.403705 
L 669.870759 439.403705 
z
" style="fill:#1f77b4;"/>
   </g>
   <g id="patch_17">
    <path clip-path="url(#pf00338fb3f)" d="M 48.83058 465.772364 
L 72.716741 465.772364 
L 72.716741 463.044572 
L 48.83058 463.044572 
z
" style="fill:#ff7f0e;"/>
   </g>
   <g id="patch_18">
    <path clip-path="url(#pf00338fb3f)" d="M 96.602902 454.861195 
L 120.489062 454.861195 
L 120.489062 437.585176 
L 96.602902 437.585176 
z
" style="fill:#ff7f0e;"/>
   </g>
   <g id="patch_19">
    <path clip-path="url(#pf00338fb3f)" d="M 144.375223 453.042666 
L 168.261384 453.042666 
L 168.261384 440.312969 
L 144.375223 440.312969 
z
" style="fill:#ff7f0e;"/>
   </g>
   <g id="patch_20">
    <path clip-path="url(#pf00338fb3f)" d="M 192.147545 451.67877 
L 216.033705 451.67877 
L 216.033705 393.940499 
L 192.147545 393.940499 
z
" style="fill:#ff7f0e;"/>
   </g>
   <g id="patch_21">
    <path clip-path="url(#pf00338fb3f)" d="M 239.919866 449.40561 
L 263.806027 449.40561 
L 263.806027 423.036951 
L 239.919866 423.036951 
z
" style="fill:#ff7f0e;"/>
   </g>
   <g id="patch_22">
    <path clip-path="url(#pf00338fb3f)" d="M 287.692187 439.858337 
L 311.578348 439.858337 
L 311.578348 428.947167 
L 287.692187 428.947167 
z
" style="fill:#ff7f0e;"/>
   </g>
   <g id="patch_23">
    <path clip-path="url(#pf00338fb3f)" d="M 335.464509 458.498251 
L 359.35067 458.498251 
L 359.35067 421.673054 
L 335.464509 421.673054 
z
" style="fill:#ff7f0e;"/>
   </g>
   <g id="patch_24">
    <path clip-path="url(#pf00338fb3f)" d="M 383.23683 450.769506 
L 407.122991 450.769506 
L 407.122991 400.75998 
L 383.23683 400.75998 
z
" style="fill:#ff7f0e;"/>
   </g>
   <g id="patch_25">
    <path clip-path="url(#pf00338fb3f)" d="M 431.009152 456.679723 
L 454.895312 456.679723 
L 454.895312 411.671149 
L 431.009152 411.671149 
z
" style="fill:#ff7f0e;"/>
   </g>
   <g id="patch_26">
    <path clip-path="url(#pf00338fb3f)" d="M 478.781473 446.677818 
L 502.667634 446.677818 
L 502.667634 427.128639 
L 478.781473 427.128639 
z
" style="fill:#ff7f0e;"/>
   </g>
   <g id="patch_27">
    <path clip-path="url(#pf00338fb3f)" d="M 526.553795 425.310111 
L 550.439955 425.310111 
L 550.439955 413.035045 
L 526.553795 413.035045 
z
" style="fill:#ff7f0e;"/>
   </g>
   <g id="patch_28">
    <path clip-path="url(#pf00338fb3f)" d="M 574.326116 450.769506 
L 598.212277 450.769506 
L 598.212277 425.764743 
L 574.326116 425.764743 
z
" style="fill:#ff7f0e;"/>
   </g>
   <g id="patch_29">
    <path clip-path="url(#pf00338fb3f)" d="M 622.098437 462.135307 
L 645.984598 462.135307 
L 645.984598 435.766648 
L 622.098437 435.766648 
z
" style="fill:#ff7f0e;"/>
   </g>
   <g id="patch_30">
    <path clip-path="url(#pf00338fb3f)" d="M 669.870759 439.403705 
L 693.75692 439.403705 
L 693.75692 436.22128 
L 669.870759 436.22128 
z
" style="fill:#ff7f0e;"/>
   </g>
   <g id="patch_31">
    <path clip-path="url(#pf00338fb3f)" d="M 48.83058 463.044572 
L 72.716741 463.044572 
L 72.716741 360.752359 
L 48.83058 360.752359 
z
" style="fill:#2ca02c;"/>
   </g>
   <g id="patch_32">
    <path clip-path="url(#pf00338fb3f)" d="M 96.602902 437.585176 
L 120.489062 437.585176 
L 120.489062 282.101013 
L 96.602902 282.101013 
z
" style="fill:#2ca02c;"/>
   </g>
   <g id="patch_33">
    <path clip-path="url(#pf00338fb3f)" d="M 144.375223 440.312969 
L 168.261384 440.312969 
L 168.261384 128.435378 
L 144.375223 128.435378 
z
" style="fill:#2ca02c;"/>
   </g>
   <g id="patch_34">
    <path clip-path="url(#pf00338fb3f)" d="M 192.147545 393.940499 
L 216.033705 393.940499 
L 216.033705 97.520398 
L 192.147545 97.520398 
z
" style="fill:#2ca02c;"/>
   </g>
   <g id="patch_35">
    <path clip-path="url(#pf00338fb3f)" d="M 239.919866 423.036951 
L 263.806027 423.036951 
L 263.806027 143.892868 
L 239.919866 143.892868 
z
" style="fill:#2ca02c;"/>
   </g>
   <g id="patch_36">
    <path clip-path="url(#pf00338fb3f)" d="M 287.692187 428.947167 
L 311.578348 428.947167 
L 311.578348 222.998846 
L 287.692187 222.998846 
z
" style="fill:#2ca02c;"/>
   </g>
   <g id="patch_37">
    <path clip-path="url(#pf00338fb3f)" d="M 335.464509 421.673054 
L 359.35067 421.673054 
L 359.35067 102.521351 
L 335.464509 102.521351 
z
" style="fill:#2ca02c;"/>
   </g>
   <g id="patch_38">
    <path clip-path="url(#pf00338fb3f)" d="M 383.23683 400.75998 
L 407.122991 400.75998 
L 407.122991 174.353216 
L 383.23683 174.353216 
z
" style="fill:#2ca02c;"/>
   </g>
   <g id="patch_39">
    <path clip-path="url(#pf00338fb3f)" d="M 431.009152 411.671149 
L 454.895312 411.671149 
L 454.895312 116.160312 
L 431.009152 116.160312 
z
" style="fill:#2ca02c;"/>
   </g>
   <g id="patch_40">
    <path clip-path="url(#pf00338fb3f)" d="M 478.781473 427.128639 
L 502.667634 427.128639 
L 502.667634 122.979793 
L 478.781473 122.979793 
z
" style="fill:#2ca02c;"/>
   </g>
   <g id="patch_41">
    <path clip-path="url(#pf00338fb3f)" d="M 526.553795 413.035045 
L 550.439955 413.035045 
L 550.439955 194.811658 
L 526.553795 194.811658 
z
" style="fill:#2ca02c;"/>
   </g>
   <g id="patch_42">
    <path clip-path="url(#pf00338fb3f)" d="M 574.326116 425.764743 
L 598.212277 425.764743 
L 598.212277 85.245332 
L 574.326116 85.245332 
z
" style="fill:#2ca02c;"/>
   </g>
   <g id="patch_43">
    <path clip-path="url(#pf00338fb3f)" d="M 622.098437 435.766648 
L 645.984598 435.766648 
L 645.984598 187.537545 
L 622.098437 187.537545 
z
" style="fill:#2ca02c;"/>
   </g>
   <g id="patch_44">
    <path clip-path="url(#pf00338fb3f)" d="M 669.870759 436.22128 
L 693.75692 436.22128 
L 693.75692 138.891915 
L 669.870759 138.891915 
z
" style="fill:#2ca02c;"/>
   </g>
   <g id="patch_45">
    <path clip-path="url(#pf00338fb3f)" d="M 48.83058 360.752359 
L 72.716741 360.752359 
L 72.716741 42.964551 
L 48.83058 42.964551 
z
" style="fill:#d62728;"/>
   </g>
   <g id="patch_46">
    <path clip-path="url(#pf00338fb3f)" d="M 96.602902 282.101013 
L 120.489062 282.101013 
L 120.489062 36.599702 
L 96.602902 36.599702 
z
" style="fill:#d62728;"/>
   </g>
   <g id="patch_47">
    <path clip-path="url(#pf00338fb3f)" d="M 144.375223 128.435378 
L 168.261384 128.435378 
L 168.261384 47.510872 
L 144.375223 47.510872 
z
" style="fill:#d62728;"/>
   </g>
   <g id="patch_48">
    <path clip-path="url(#pf00338fb3f)" d="M 192.147545 97.520398 
L 216.033705 97.520398 
L 216.033705 43.419183 
L 192.147545 43.419183 
z
" style="fill:#d62728;"/>
   </g>
   <g id="patch_49">
    <path clip-path="url(#pf00338fb3f)" d="M 239.919866 143.892868 
L 263.806027 143.892868 
L 263.806027 42.964551 
L 239.919866 42.964551 
z
" style="fill:#d62728;"/>
   </g>
   <g id="patch_50">
    <path clip-path="url(#pf00338fb3f)" d="M 287.692187 222.998846 
L 311.578348 222.998846 
L 311.578348 46.146976 
L 287.692187 46.146976 
z
" style="fill:#d62728;"/>
   </g>
   <g id="patch_51">
    <path clip-path="url(#pf00338fb3f)" d="M 335.464509 102.521351 
L 359.35067 102.521351 
L 359.35067 52.966456 
L 335.464509 52.966456 
z
" style="fill:#d62728;"/>
   </g>
   <g id="patch_52">
    <path clip-path="url(#pf00338fb3f)" d="M 383.23683 174.353216 
L 407.122991 174.353216 
L 407.122991 57.967409 
L 383.23683 57.967409 
z
" style="fill:#d62728;"/>
   </g>
   <g id="patch_53">
    <path clip-path="url(#pf00338fb3f)" d="M 431.009152 116.160312 
L 454.895312 116.160312 
L 454.895312 62.968362 
L 431.009152 62.968362 
z
" style="fill:#d62728;"/>
   </g>
   <g id="patch_54">
    <path clip-path="url(#pf00338fb3f)" d="M 478.781473 122.979793 
L 502.667634 122.979793 
L 502.667634 46.601608 
L 478.781473 46.601608 
z
" style="fill:#d62728;"/>
   </g>
   <g id="patch_55">
    <path clip-path="url(#pf00338fb3f)" d="M 526.553795 194.811658 
L 550.439955 194.811658 
L 550.439955 57.967409 
L 526.553795 57.967409 
z
" style="fill:#d62728;"/>
   </g>
   <g id="patch_56">
    <path clip-path="url(#pf00338fb3f)" d="M 574.326116 85.245332 
L 598.212277 85.245332 
L 598.212277 52.511824 
L 574.326116 52.511824 
z
" style="fill:#d62728;"/>
   </g>
   <g id="patch_57">
    <path clip-path="url(#pf00338fb3f)" d="M 622.098437 187.537545 
L 645.984598 187.537545 
L 645.984598 38.872863 
L 622.098437 38.872863 
z
" style="fill:#d62728;"/>
   </g>
   <g id="patch_58">
    <path clip-path="url(#pf00338fb3f)" d="M 669.870759 138.891915 
L 693.75692 138.891915 
L 693.75692 38.418231 
L 669.870759 38.418231 
z
" style="fill:#d62728;"/>
   </g>
   <g id="matplotlib.axis_1">
    <g id="xtick_1">
     <g id="line2d_1">
      <defs>
       <path d="M 0 0 
L 0 3.5 
" id="m65b7a9d6a4" style="stroke:#000000;stroke-width:0.8;"/>
      </defs>
      <g>
       <use style="stroke:#000000;stroke-width:0.8;" x="60.773661" xlink:href="#m65b7a9d6a4" y="482.59375"/>
      </g>
     </g>
     <g id="text_1">
      <!-- Framingham - Barbieri Elementary -->
      <defs>
       <path d="M 9.8125 72.90625 
L 51.703125 72.90625 
L 51.703125 64.59375 
L 19.671875 64.59375 
L 19.671875 43.109375 
L 48.578125 43.109375 
L 48.578125 34.8125 
L 19.671875 34.8125 
L 19.671875 0 
L 9.8125 0 
z
" id="DejaVuSans-46"/>
       <path d="M 41.109375 46.296875 
Q 39.59375 47.171875 37.8125 47.578125 
Q 36.03125 48 33.890625 48 
Q 26.265625 48 22.1875 43.046875 
Q 18.109375 38.09375 18.109375 28.8125 
L 18.109375 0 
L 9.078125 0 
L 9.078125 54.6875 
L 18.109375 54.6875 
L 18.109375 46.1875 
Q 20.953125 51.171875 25.484375 53.578125 
Q 30.03125 56 36.53125 56 
Q 37.453125 56 38.578125 55.875 
Q 39.703125 55.765625 41.0625 55.515625 
z
" id="DejaVuSans-72"/>
       <path d="M 34.28125 27.484375 
Q 23.390625 27.484375 19.1875 25 
Q 14.984375 22.515625 14.984375 16.5 
Q 14.984375 11.71875 18.140625 8.90625 
Q 21.296875 6.109375 26.703125 6.109375 
Q 34.1875 6.109375 38.703125 11.40625 
Q 43.21875 16.703125 43.21875 25.484375 
L 43.21875 27.484375 
z
M 52.203125 31.203125 
L 52.203125 0 
L 43.21875 0 
L 43.21875 8.296875 
Q 40.140625 3.328125 35.546875 0.953125 
Q 30.953125 -1.421875 24.3125 -1.421875 
Q 15.921875 -1.421875 10.953125 3.296875 
Q 6 8.015625 6 15.921875 
Q 6 25.140625 12.171875 29.828125 
Q 18.359375 34.515625 30.609375 34.515625 
L 43.21875 34.515625 
L 43.21875 35.40625 
Q 43.21875 41.609375 39.140625 45 
Q 35.0625 48.390625 27.6875 48.390625 
Q 23 48.390625 18.546875 47.265625 
Q 14.109375 46.140625 10.015625 43.890625 
L 10.015625 52.203125 
Q 14.9375 54.109375 19.578125 55.046875 
Q 24.21875 56 28.609375 56 
Q 40.484375 56 46.34375 49.84375 
Q 52.203125 43.703125 52.203125 31.203125 
z
" id="DejaVuSans-61"/>
       <path d="M 52 44.1875 
Q 55.375 50.25 60.0625 53.125 
Q 64.75 56 71.09375 56 
Q 79.640625 56 84.28125 50.015625 
Q 88.921875 44.046875 88.921875 33.015625 
L 88.921875 0 
L 79.890625 0 
L 79.890625 32.71875 
Q 79.890625 40.578125 77.09375 44.375 
Q 74.3125 48.1875 68.609375 48.1875 
Q 61.625 48.1875 57.5625 43.546875 
Q 53.515625 38.921875 53.515625 30.90625 
L 53.515625 0 
L 44.484375 0 
L 44.484375 32.71875 
Q 44.484375 40.625 41.703125 44.40625 
Q 38.921875 48.1875 33.109375 48.1875 
Q 26.21875 48.1875 22.15625 43.53125 
Q 18.109375 38.875 18.109375 30.90625 
L 18.109375 0 
L 9.078125 0 
L 9.078125 54.6875 
L 18.109375 54.6875 
L 18.109375 46.1875 
Q 21.1875 51.21875 25.484375 53.609375 
Q 29.78125 56 35.6875 56 
Q 41.65625 56 45.828125 52.96875 
Q 50 49.953125 52 44.1875 
z
" id="DejaVuSans-6d"/>
       <path d="M 9.421875 54.6875 
L 18.40625 54.6875 
L 18.40625 0 
L 9.421875 0 
z
M 9.421875 75.984375 
L 18.40625 75.984375 
L 18.40625 64.59375 
L 9.421875 64.59375 
z
" id="DejaVuSans-69"/>
       <path d="M 54.890625 33.015625 
L 54.890625 0 
L 45.90625 0 
L 45.90625 32.71875 
Q 45.90625 40.484375 42.875 44.328125 
Q 39.84375 48.1875 33.796875 48.1875 
Q 26.515625 48.1875 22.3125 43.546875 
Q 18.109375 38.921875 18.109375 30.90625 
L 18.109375 0 
L 9.078125 0 
L 9.078125 54.6875 
L 18.109375 54.6875 
L 18.109375 46.1875 
Q 21.34375 51.125 25.703125 53.5625 
Q 30.078125 56 35.796875 56 
Q 45.21875 56 50.046875 50.171875 
Q 54.890625 44.34375 54.890625 33.015625 
z
" id="DejaVuSans-6e"/>
       <path d="M 45.40625 27.984375 
Q 45.40625 37.75 41.375 43.109375 
Q 37.359375 48.484375 30.078125 48.484375 
Q 22.859375 48.484375 18.828125 43.109375 
Q 14.796875 37.75 14.796875 27.984375 
Q 14.796875 18.265625 18.828125 12.890625 
Q 22.859375 7.515625 30.078125 7.515625 
Q 37.359375 7.515625 41.375 12.890625 
Q 45.40625 18.265625 45.40625 27.984375 
z
M 54.390625 6.78125 
Q 54.390625 -7.171875 48.1875 -13.984375 
Q 42 -20.796875 29.203125 -20.796875 
Q 24.46875 -20.796875 20.265625 -20.09375 
Q 16.0625 -19.390625 12.109375 -17.921875 
L 12.109375 -9.1875 
Q 16.0625 -11.328125 19.921875 -12.34375 
Q 23.78125 -13.375 27.78125 -13.375 
Q 36.625 -13.375 41.015625 -8.765625 
Q 45.40625 -4.15625 45.40625 5.171875 
L 45.40625 9.625 
Q 42.625 4.78125 38.28125 2.390625 
Q 33.9375 0 27.875 0 
Q 17.828125 0 11.671875 7.65625 
Q 5.515625 15.328125 5.515625 27.984375 
Q 5.515625 40.671875 11.671875 48.328125 
Q 17.828125 56 27.875 56 
Q 33.9375 56 38.28125 53.609375 
Q 42.625 51.21875 45.40625 46.390625 
L 45.40625 54.6875 
L 54.390625 54.6875 
z
" id="DejaVuSans-67"/>
       <path d="M 54.890625 33.015625 
L 54.890625 0 
L 45.90625 0 
L 45.90625 32.71875 
Q 45.90625 40.484375 42.875 44.328125 
Q 39.84375 48.1875 33.796875 48.1875 
Q 26.515625 48.1875 22.3125 43.546875 
Q 18.109375 38.921875 18.109375 30.90625 
L 18.109375 0 
L 9.078125 0 
L 9.078125 75.984375 
L 18.109375 75.984375 
L 18.109375 46.1875 
Q 21.34375 51.125 25.703125 53.5625 
Q 30.078125 56 35.796875 56 
Q 45.21875 56 50.046875 50.171875 
Q 54.890625 44.34375 54.890625 33.015625 
z
" id="DejaVuSans-68"/>
       <path id="DejaVuSans-20"/>
       <path d="M 4.890625 31.390625 
L 31.203125 31.390625 
L 31.203125 23.390625 
L 4.890625 23.390625 
z
" id="DejaVuSans-2d"/>
       <path d="M 19.671875 34.8125 
L 19.671875 8.109375 
L 35.5 8.109375 
Q 43.453125 8.109375 47.28125 11.40625 
Q 51.125 14.703125 51.125 21.484375 
Q 51.125 28.328125 47.28125 31.5625 
Q 43.453125 34.8125 35.5 34.8125 
z
M 19.671875 64.796875 
L 19.671875 42.828125 
L 34.28125 42.828125 
Q 41.5 42.828125 45.03125 45.53125 
Q 48.578125 48.25 48.578125 53.8125 
Q 48.578125 59.328125 45.03125 62.0625 
Q 41.5 64.796875 34.28125 64.796875 
z
M 9.8125 72.90625 
L 35.015625 72.90625 
Q 46.296875 72.90625 52.390625 68.21875 
Q 58.5 63.53125 58.5 54.890625 
Q 58.5 48.1875 55.375 44.234375 
Q 52.25 40.28125 46.1875 39.3125 
Q 53.46875 37.75 57.5 32.78125 
Q 61.53125 27.828125 61.53125 20.40625 
Q 61.53125 10.640625 54.890625 5.3125 
Q 48.25 0 35.984375 0 
L 9.8125 0 
z
" id="DejaVuSans-42"/>
       <path d="M 48.6875 27.296875 
Q 48.6875 37.203125 44.609375 42.84375 
Q 40.53125 48.484375 33.40625 48.484375 
Q 26.265625 48.484375 22.1875 42.84375 
Q 18.109375 37.203125 18.109375 27.296875 
Q 18.109375 17.390625 22.1875 11.75 
Q 26.265625 6.109375 33.40625 6.109375 
Q 40.53125 6.109375 44.609375 11.75 
Q 48.6875 17.390625 48.6875 27.296875 
z
M 18.109375 46.390625 
Q 20.953125 51.265625 25.265625 53.625 
Q 29.59375 56 35.59375 56 
Q 45.5625 56 51.78125 48.09375 
Q 58.015625 40.1875 58.015625 27.296875 
Q 58.015625 14.40625 51.78125 6.484375 
Q 45.5625 -1.421875 35.59375 -1.421875 
Q 29.59375 -1.421875 25.265625 0.953125 
Q 20.953125 3.328125 18.109375 8.203125 
L 18.109375 0 
L 9.078125 0 
L 9.078125 75.984375 
L 18.109375 75.984375 
z
" id="DejaVuSans-62"/>
       <path d="M 56.203125 29.59375 
L 56.203125 25.203125 
L 14.890625 25.203125 
Q 15.484375 15.921875 20.484375 11.0625 
Q 25.484375 6.203125 34.421875 6.203125 
Q 39.59375 6.203125 44.453125 7.46875 
Q 49.3125 8.734375 54.109375 11.28125 
L 54.109375 2.78125 
Q 49.265625 0.734375 44.1875 -0.34375 
Q 39.109375 -1.421875 33.890625 -1.421875 
Q 20.796875 -1.421875 13.15625 6.1875 
Q 5.515625 13.8125 5.515625 26.8125 
Q 5.515625 40.234375 12.765625 48.109375 
Q 20.015625 56 32.328125 56 
Q 43.359375 56 49.78125 48.890625 
Q 56.203125 41.796875 56.203125 29.59375 
z
M 47.21875 32.234375 
Q 47.125 39.59375 43.09375 43.984375 
Q 39.0625 48.390625 32.421875 48.390625 
Q 24.90625 48.390625 20.390625 44.140625 
Q 15.875 39.890625 15.1875 32.171875 
z
" id="DejaVuSans-65"/>
       <path d="M 9.8125 72.90625 
L 55.90625 72.90625 
L 55.90625 64.59375 
L 19.671875 64.59375 
L 19.671875 43.015625 
L 54.390625 43.015625 
L 54.390625 34.71875 
L 19.671875 34.71875 
L 19.671875 8.296875 
L 56.78125 8.296875 
L 56.78125 0 
L 9.8125 0 
z
" id="DejaVuSans-45"/>
       <path d="M 9.421875 75.984375 
L 18.40625 75.984375 
L 18.40625 0 
L 9.421875 0 
z
" id="DejaVuSans-6c"/>
       <path d="M 18.3125 70.21875 
L 18.3125 54.6875 
L 36.8125 54.6875 
L 36.8125 47.703125 
L 18.3125 47.703125 
L 18.3125 18.015625 
Q 18.3125 11.328125 20.140625 9.421875 
Q 21.96875 7.515625 27.59375 7.515625 
L 36.8125 7.515625 
L 36.8125 0 
L 27.59375 0 
Q 17.1875 0 13.234375 3.875 
Q 9.28125 7.765625 9.28125 18.015625 
L 9.28125 47.703125 
L 2.6875 47.703125 
L 2.6875 54.6875 
L 9.28125 54.6875 
L 9.28125 70.21875 
z
" id="DejaVuSans-74"/>
       <path d="M 32.171875 -5.078125 
Q 28.375 -14.84375 24.75 -17.8125 
Q 21.140625 -20.796875 15.09375 -20.796875 
L 7.90625 -20.796875 
L 7.90625 -13.28125 
L 13.1875 -13.28125 
Q 16.890625 -13.28125 18.9375 -11.515625 
Q 21 -9.765625 23.484375 -3.21875 
L 25.09375 0.875 
L 2.984375 54.6875 
L 12.5 54.6875 
L 29.59375 11.921875 
L 46.6875 54.6875 
L 56.203125 54.6875 
z
" id="DejaVuSans-79"/>
      </defs>
      <g transform="translate(63.533036 662.954687)rotate(-90)scale(0.1 -0.1)">
       <use xlink:href="#DejaVuSans-46"/>
       <use x="57.410156" xlink:href="#DejaVuSans-72"/>
       <use x="98.523438" xlink:href="#DejaVuSans-61"/>
       <use x="159.802734" xlink:href="#DejaVuSans-6d"/>
       <use x="257.214844" xlink:href="#DejaVuSans-69"/>
       <use x="284.998047" xlink:href="#DejaVuSans-6e"/>
       <use x="348.376953" xlink:href="#DejaVuSans-67"/>
       <use x="411.853516" xlink:href="#DejaVuSans-68"/>
       <use x="475.232422" xlink:href="#DejaVuSans-61"/>
       <use x="536.511719" xlink:href="#DejaVuSans-6d"/>
       <use x="633.923828" xlink:href="#DejaVuSans-20"/>
       <use x="665.710938" xlink:href="#DejaVuSans-2d"/>
       <use x="701.794922" xlink:href="#DejaVuSans-20"/>
       <use x="733.582031" xlink:href="#DejaVuSans-42"/>
       <use x="802.185547" xlink:href="#DejaVuSans-61"/>
       <use x="863.464844" xlink:href="#DejaVuSans-72"/>
       <use x="904.578125" xlink:href="#DejaVuSans-62"/>
       <use x="968.054688" xlink:href="#DejaVuSans-69"/>
       <use x="995.837891" xlink:href="#DejaVuSans-65"/>
       <use x="1057.361328" xlink:href="#DejaVuSans-72"/>
       <use x="1098.474609" xlink:href="#DejaVuSans-69"/>
       <use x="1126.257812" xlink:href="#DejaVuSans-20"/>
       <use x="1158.044922" xlink:href="#DejaVuSans-45"/>
       <use x="1221.228516" xlink:href="#DejaVuSans-6c"/>
       <use x="1249.011719" xlink:href="#DejaVuSans-65"/>
       <use x="1310.535156" xlink:href="#DejaVuSans-6d"/>
       <use x="1407.947266" xlink:href="#DejaVuSans-65"/>
       <use x="1469.470703" xlink:href="#DejaVuSans-6e"/>
       <use x="1532.849609" xlink:href="#DejaVuSans-74"/>
       <use x="1572.058594" xlink:href="#DejaVuSans-61"/>
       <use x="1633.337891" xlink:href="#DejaVuSans-72"/>
       <use x="1674.451172" xlink:href="#DejaVuSans-79"/>
      </g>
     </g>
    </g>
    <g id="xtick_2">
     <g id="line2d_2">
      <g>
       <use style="stroke:#000000;stroke-width:0.8;" x="108.545982" xlink:href="#m65b7a9d6a4" y="482.59375"/>
      </g>
     </g>
     <g id="text_2">
      <!-- Framingham - Brophy -->
      <defs>
       <path d="M 30.609375 48.390625 
Q 23.390625 48.390625 19.1875 42.75 
Q 14.984375 37.109375 14.984375 27.296875 
Q 14.984375 17.484375 19.15625 11.84375 
Q 23.34375 6.203125 30.609375 6.203125 
Q 37.796875 6.203125 41.984375 11.859375 
Q 46.1875 17.53125 46.1875 27.296875 
Q 46.1875 37.015625 41.984375 42.703125 
Q 37.796875 48.390625 30.609375 48.390625 
z
M 30.609375 56 
Q 42.328125 56 49.015625 48.375 
Q 55.71875 40.765625 55.71875 27.296875 
Q 55.71875 13.875 49.015625 6.21875 
Q 42.328125 -1.421875 30.609375 -1.421875 
Q 18.84375 -1.421875 12.171875 6.21875 
Q 5.515625 13.875 5.515625 27.296875 
Q 5.515625 40.765625 12.171875 48.375 
Q 18.84375 56 30.609375 56 
z
" id="DejaVuSans-6f"/>
       <path d="M 18.109375 8.203125 
L 18.109375 -20.796875 
L 9.078125 -20.796875 
L 9.078125 54.6875 
L 18.109375 54.6875 
L 18.109375 46.390625 
Q 20.953125 51.265625 25.265625 53.625 
Q 29.59375 56 35.59375 56 
Q 45.5625 56 51.78125 48.09375 
Q 58.015625 40.1875 58.015625 27.296875 
Q 58.015625 14.40625 51.78125 6.484375 
Q 45.5625 -1.421875 35.59375 -1.421875 
Q 29.59375 -1.421875 25.265625 0.953125 
Q 20.953125 3.328125 18.109375 8.203125 
z
M 48.6875 27.296875 
Q 48.6875 37.203125 44.609375 42.84375 
Q 40.53125 48.484375 33.40625 48.484375 
Q 26.265625 48.484375 22.1875 42.84375 
Q 18.109375 37.203125 18.109375 27.296875 
Q 18.109375 17.390625 22.1875 11.75 
Q 26.265625 6.109375 33.40625 6.109375 
Q 40.53125 6.109375 44.609375 11.75 
Q 48.6875 17.390625 48.6875 27.296875 
z
" id="DejaVuSans-70"/>
      </defs>
      <g transform="translate(111.305357 598.640625)rotate(-90)scale(0.1 -0.1)">
       <use xlink:href="#DejaVuSans-46"/>
       <use x="57.410156" xlink:href="#DejaVuSans-72"/>
       <use x="98.523438" xlink:href="#DejaVuSans-61"/>
       <use x="159.802734" xlink:href="#DejaVuSans-6d"/>
       <use x="257.214844" xlink:href="#DejaVuSans-69"/>
       <use x="284.998047" xlink:href="#DejaVuSans-6e"/>
       <use x="348.376953" xlink:href="#DejaVuSans-67"/>
       <use x="411.853516" xlink:href="#DejaVuSans-68"/>
       <use x="475.232422" xlink:href="#DejaVuSans-61"/>
       <use x="536.511719" xlink:href="#DejaVuSans-6d"/>
       <use x="633.923828" xlink:href="#DejaVuSans-20"/>
       <use x="665.710938" xlink:href="#DejaVuSans-2d"/>
       <use x="701.794922" xlink:href="#DejaVuSans-20"/>
       <use x="733.582031" xlink:href="#DejaVuSans-42"/>
       <use x="802.185547" xlink:href="#DejaVuSans-72"/>
       <use x="843.267578" xlink:href="#DejaVuSans-6f"/>
       <use x="904.449219" xlink:href="#DejaVuSans-70"/>
       <use x="967.925781" xlink:href="#DejaVuSans-68"/>
       <use x="1031.304688" xlink:href="#DejaVuSans-79"/>
      </g>
     </g>
    </g>
    <g id="xtick_3">
     <g id="line2d_3">
      <g>
       <use style="stroke:#000000;stroke-width:0.8;" x="156.318304" xlink:href="#m65b7a9d6a4" y="482.59375"/>
      </g>
     </g>
     <g id="text_3">
      <!-- Framingham - Cameron Middle School -->
      <defs>
       <path d="M 64.40625 67.28125 
L 64.40625 56.890625 
Q 59.421875 61.53125 53.78125 63.8125 
Q 48.140625 66.109375 41.796875 66.109375 
Q 29.296875 66.109375 22.65625 58.46875 
Q 16.015625 50.828125 16.015625 36.375 
Q 16.015625 21.96875 22.65625 14.328125 
Q 29.296875 6.6875 41.796875 6.6875 
Q 48.140625 6.6875 53.78125 8.984375 
Q 59.421875 11.28125 64.40625 15.921875 
L 64.40625 5.609375 
Q 59.234375 2.09375 53.4375 0.328125 
Q 47.65625 -1.421875 41.21875 -1.421875 
Q 24.65625 -1.421875 15.125 8.703125 
Q 5.609375 18.84375 5.609375 36.375 
Q 5.609375 53.953125 15.125 64.078125 
Q 24.65625 74.21875 41.21875 74.21875 
Q 47.75 74.21875 53.53125 72.484375 
Q 59.328125 70.75 64.40625 67.28125 
z
" id="DejaVuSans-43"/>
       <path d="M 9.8125 72.90625 
L 24.515625 72.90625 
L 43.109375 23.296875 
L 61.8125 72.90625 
L 76.515625 72.90625 
L 76.515625 0 
L 66.890625 0 
L 66.890625 64.015625 
L 48.09375 14.015625 
L 38.1875 14.015625 
L 19.390625 64.015625 
L 19.390625 0 
L 9.8125 0 
z
" id="DejaVuSans-4d"/>
       <path d="M 45.40625 46.390625 
L 45.40625 75.984375 
L 54.390625 75.984375 
L 54.390625 0 
L 45.40625 0 
L 45.40625 8.203125 
Q 42.578125 3.328125 38.25 0.953125 
Q 33.9375 -1.421875 27.875 -1.421875 
Q 17.96875 -1.421875 11.734375 6.484375 
Q 5.515625 14.40625 5.515625 27.296875 
Q 5.515625 40.1875 11.734375 48.09375 
Q 17.96875 56 27.875 56 
Q 33.9375 56 38.25 53.625 
Q 42.578125 51.265625 45.40625 46.390625 
z
M 14.796875 27.296875 
Q 14.796875 17.390625 18.875 11.75 
Q 22.953125 6.109375 30.078125 6.109375 
Q 37.203125 6.109375 41.296875 11.75 
Q 45.40625 17.390625 45.40625 27.296875 
Q 45.40625 37.203125 41.296875 42.84375 
Q 37.203125 48.484375 30.078125 48.484375 
Q 22.953125 48.484375 18.875 42.84375 
Q 14.796875 37.203125 14.796875 27.296875 
z
" id="DejaVuSans-64"/>
       <path d="M 53.515625 70.515625 
L 53.515625 60.890625 
Q 47.90625 63.578125 42.921875 64.890625 
Q 37.9375 66.21875 33.296875 66.21875 
Q 25.25 66.21875 20.875 63.09375 
Q 16.5 59.96875 16.5 54.203125 
Q 16.5 49.359375 19.40625 46.890625 
Q 22.3125 44.4375 30.421875 42.921875 
L 36.375 41.703125 
Q 47.40625 39.59375 52.65625 34.296875 
Q 57.90625 29 57.90625 20.125 
Q 57.90625 9.515625 50.796875 4.046875 
Q 43.703125 -1.421875 29.984375 -1.421875 
Q 24.8125 -1.421875 18.96875 -0.25 
Q 13.140625 0.921875 6.890625 3.21875 
L 6.890625 13.375 
Q 12.890625 10.015625 18.65625 8.296875 
Q 24.421875 6.59375 29.984375 6.59375 
Q 38.421875 6.59375 43.015625 9.90625 
Q 47.609375 13.234375 47.609375 19.390625 
Q 47.609375 24.75 44.3125 27.78125 
Q 41.015625 30.8125 33.5 32.328125 
L 27.484375 33.5 
Q 16.453125 35.6875 11.515625 40.375 
Q 6.59375 45.0625 6.59375 53.421875 
Q 6.59375 63.09375 13.40625 68.65625 
Q 20.21875 74.21875 32.171875 74.21875 
Q 37.3125 74.21875 42.625 73.28125 
Q 47.953125 72.359375 53.515625 70.515625 
z
" id="DejaVuSans-53"/>
       <path d="M 48.78125 52.59375 
L 48.78125 44.1875 
Q 44.96875 46.296875 41.140625 47.34375 
Q 37.3125 48.390625 33.40625 48.390625 
Q 24.65625 48.390625 19.8125 42.84375 
Q 14.984375 37.3125 14.984375 27.296875 
Q 14.984375 17.28125 19.8125 11.734375 
Q 24.65625 6.203125 33.40625 6.203125 
Q 37.3125 6.203125 41.140625 7.25 
Q 44.96875 8.296875 48.78125 10.40625 
L 48.78125 2.09375 
Q 45.015625 0.34375 40.984375 -0.53125 
Q 36.96875 -1.421875 32.421875 -1.421875 
Q 20.0625 -1.421875 12.78125 6.34375 
Q 5.515625 14.109375 5.515625 27.296875 
Q 5.515625 40.671875 12.859375 48.328125 
Q 20.21875 56 33.015625 56 
Q 37.15625 56 41.109375 55.140625 
Q 45.0625 54.296875 48.78125 52.59375 
z
" id="DejaVuSans-63"/>
      </defs>
      <g transform="translate(159.077679 681.107813)rotate(-90)scale(0.1 -0.1)">
       <use xlink:href="#DejaVuSans-46"/>
       <use x="57.410156" xlink:href="#DejaVuSans-72"/>
       <use x="98.523438" xlink:href="#DejaVuSans-61"/>
       <use x="159.802734" xlink:href="#DejaVuSans-6d"/>
       <use x="257.214844" xlink:href="#DejaVuSans-69"/>
       <use x="284.998047" xlink:href="#DejaVuSans-6e"/>
       <use x="348.376953" xlink:href="#DejaVuSans-67"/>
       <use x="411.853516" xlink:href="#DejaVuSans-68"/>
       <use x="475.232422" xlink:href="#DejaVuSans-61"/>
       <use x="536.511719" xlink:href="#DejaVuSans-6d"/>
       <use x="633.923828" xlink:href="#DejaVuSans-20"/>
       <use x="665.710938" xlink:href="#DejaVuSans-2d"/>
       <use x="701.794922" xlink:href="#DejaVuSans-20"/>
       <use x="733.582031" xlink:href="#DejaVuSans-43"/>
       <use x="803.40625" xlink:href="#DejaVuSans-61"/>
       <use x="864.685547" xlink:href="#DejaVuSans-6d"/>
       <use x="962.097656" xlink:href="#DejaVuSans-65"/>
       <use x="1023.621094" xlink:href="#DejaVuSans-72"/>
       <use x="1064.703125" xlink:href="#DejaVuSans-6f"/>
       <use x="1125.884766" xlink:href="#DejaVuSans-6e"/>
       <use x="1189.263672" xlink:href="#DejaVuSans-20"/>
       <use x="1221.050781" xlink:href="#DejaVuSans-4d"/>
       <use x="1307.330078" xlink:href="#DejaVuSans-69"/>
       <use x="1335.113281" xlink:href="#DejaVuSans-64"/>
       <use x="1398.589844" xlink:href="#DejaVuSans-64"/>
       <use x="1462.066406" xlink:href="#DejaVuSans-6c"/>
       <use x="1489.849609" xlink:href="#DejaVuSans-65"/>
       <use x="1551.373047" xlink:href="#DejaVuSans-20"/>
       <use x="1583.160156" xlink:href="#DejaVuSans-53"/>
       <use x="1646.636719" xlink:href="#DejaVuSans-63"/>
       <use x="1701.617188" xlink:href="#DejaVuSans-68"/>
       <use x="1764.996094" xlink:href="#DejaVuSans-6f"/>
       <use x="1826.177734" xlink:href="#DejaVuSans-6f"/>
       <use x="1887.359375" xlink:href="#DejaVuSans-6c"/>
      </g>
     </g>
    </g>
    <g id="xtick_4">
     <g id="line2d_4">
      <g>
       <use style="stroke:#000000;stroke-width:0.8;" x="204.090625" xlink:href="#m65b7a9d6a4" y="482.59375"/>
      </g>
     </g>
     <g id="text_4">
      <!-- Framingham - Charlotte A Dunning -->
      <defs>
       <path d="M 34.1875 63.1875 
L 20.796875 26.90625 
L 47.609375 26.90625 
z
M 28.609375 72.90625 
L 39.796875 72.90625 
L 67.578125 0 
L 57.328125 0 
L 50.6875 18.703125 
L 17.828125 18.703125 
L 11.1875 0 
L 0.78125 0 
z
" id="DejaVuSans-41"/>
       <path d="M 19.671875 64.796875 
L 19.671875 8.109375 
L 31.59375 8.109375 
Q 46.6875 8.109375 53.6875 14.9375 
Q 60.6875 21.78125 60.6875 36.53125 
Q 60.6875 51.171875 53.6875 57.984375 
Q 46.6875 64.796875 31.59375 64.796875 
z
M 9.8125 72.90625 
L 30.078125 72.90625 
Q 51.265625 72.90625 61.171875 64.09375 
Q 71.09375 55.28125 71.09375 36.53125 
Q 71.09375 17.671875 61.125 8.828125 
Q 51.171875 0 30.078125 0 
L 9.8125 0 
z
" id="DejaVuSans-44"/>
       <path d="M 8.5 21.578125 
L 8.5 54.6875 
L 17.484375 54.6875 
L 17.484375 21.921875 
Q 17.484375 14.15625 20.5 10.265625 
Q 23.53125 6.390625 29.59375 6.390625 
Q 36.859375 6.390625 41.078125 11.03125 
Q 45.3125 15.671875 45.3125 23.6875 
L 45.3125 54.6875 
L 54.296875 54.6875 
L 54.296875 0 
L 45.3125 0 
L 45.3125 8.40625 
Q 42.046875 3.421875 37.71875 1 
Q 33.40625 -1.421875 27.6875 -1.421875 
Q 18.265625 -1.421875 13.375 4.4375 
Q 8.5 10.296875 8.5 21.578125 
z
M 31.109375 56 
z
" id="DejaVuSans-75"/>
      </defs>
      <g transform="translate(206.85 664.771875)rotate(-90)scale(0.1 -0.1)">
       <use xlink:href="#DejaVuSans-46"/>
       <use x="57.410156" xlink:href="#DejaVuSans-72"/>
       <use x="98.523438" xlink:href="#DejaVuSans-61"/>
       <use x="159.802734" xlink:href="#DejaVuSans-6d"/>
       <use x="257.214844" xlink:href="#DejaVuSans-69"/>
       <use x="284.998047" xlink:href="#DejaVuSans-6e"/>
       <use x="348.376953" xlink:href="#DejaVuSans-67"/>
       <use x="411.853516" xlink:href="#DejaVuSans-68"/>
       <use x="475.232422" xlink:href="#DejaVuSans-61"/>
       <use x="536.511719" xlink:href="#DejaVuSans-6d"/>
       <use x="633.923828" xlink:href="#DejaVuSans-20"/>
       <use x="665.710938" xlink:href="#DejaVuSans-2d"/>
       <use x="701.794922" xlink:href="#DejaVuSans-20"/>
       <use x="733.582031" xlink:href="#DejaVuSans-43"/>
       <use x="803.40625" xlink:href="#DejaVuSans-68"/>
       <use x="866.785156" xlink:href="#DejaVuSans-61"/>
       <use x="928.064453" xlink:href="#DejaVuSans-72"/>
       <use x="969.177734" xlink:href="#DejaVuSans-6c"/>
       <use x="996.960938" xlink:href="#DejaVuSans-6f"/>
       <use x="1058.142578" xlink:href="#DejaVuSans-74"/>
       <use x="1097.351562" xlink:href="#DejaVuSans-74"/>
       <use x="1136.560547" xlink:href="#DejaVuSans-65"/>
       <use x="1198.083984" xlink:href="#DejaVuSans-20"/>
       <use x="1229.871094" xlink:href="#DejaVuSans-41"/>
       <use x="1298.279297" xlink:href="#DejaVuSans-20"/>
       <use x="1330.066406" xlink:href="#DejaVuSans-44"/>
       <use x="1407.068359" xlink:href="#DejaVuSans-75"/>
       <use x="1470.447266" xlink:href="#DejaVuSans-6e"/>
       <use x="1533.826172" xlink:href="#DejaVuSans-6e"/>
       <use x="1597.205078" xlink:href="#DejaVuSans-69"/>
       <use x="1624.988281" xlink:href="#DejaVuSans-6e"/>
       <use x="1688.367188" xlink:href="#DejaVuSans-67"/>
      </g>
     </g>
    </g>
    <g id="xtick_5">
     <g id="line2d_5">
      <g>
       <use style="stroke:#000000;stroke-width:0.8;" x="251.862946" xlink:href="#m65b7a9d6a4" y="482.59375"/>
      </g>
     </g>
     <g id="text_5">
      <!-- Framingham - Framingham High School -->
      <defs>
       <path d="M 9.8125 72.90625 
L 19.671875 72.90625 
L 19.671875 43.015625 
L 55.515625 43.015625 
L 55.515625 72.90625 
L 65.375 72.90625 
L 65.375 0 
L 55.515625 0 
L 55.515625 34.71875 
L 19.671875 34.71875 
L 19.671875 0 
L 9.8125 0 
z
" id="DejaVuSans-48"/>
      </defs>
      <g transform="translate(254.622321 688.879688)rotate(-90)scale(0.1 -0.1)">
       <use xlink:href="#DejaVuSans-46"/>
       <use x="57.410156" xlink:href="#DejaVuSans-72"/>
       <use x="98.523438" xlink:href="#DejaVuSans-61"/>
       <use x="159.802734" xlink:href="#DejaVuSans-6d"/>
       <use x="257.214844" xlink:href="#DejaVuSans-69"/>
       <use x="284.998047" xlink:href="#DejaVuSans-6e"/>
       <use x="348.376953" xlink:href="#DejaVuSans-67"/>
       <use x="411.853516" xlink:href="#DejaVuSans-68"/>
       <use x="475.232422" xlink:href="#DejaVuSans-61"/>
       <use x="536.511719" xlink:href="#DejaVuSans-6d"/>
       <use x="633.923828" xlink:href="#DejaVuSans-20"/>
       <use x="665.710938" xlink:href="#DejaVuSans-2d"/>
       <use x="701.794922" xlink:href="#DejaVuSans-20"/>
       <use x="733.582031" xlink:href="#DejaVuSans-46"/>
       <use x="790.992188" xlink:href="#DejaVuSans-72"/>
       <use x="832.105469" xlink:href="#DejaVuSans-61"/>
       <use x="893.384766" xlink:href="#DejaVuSans-6d"/>
       <use x="990.796875" xlink:href="#DejaVuSans-69"/>
       <use x="1018.580078" xlink:href="#DejaVuSans-6e"/>
       <use x="1081.958984" xlink:href="#DejaVuSans-67"/>
       <use x="1145.435547" xlink:href="#DejaVuSans-68"/>
       <use x="1208.814453" xlink:href="#DejaVuSans-61"/>
       <use x="1270.09375" xlink:href="#DejaVuSans-6d"/>
       <use x="1367.505859" xlink:href="#DejaVuSans-20"/>
       <use x="1399.292969" xlink:href="#DejaVuSans-48"/>
       <use x="1474.488281" xlink:href="#DejaVuSans-69"/>
       <use x="1502.271484" xlink:href="#DejaVuSans-67"/>
       <use x="1565.748047" xlink:href="#DejaVuSans-68"/>
       <use x="1629.126953" xlink:href="#DejaVuSans-20"/>
       <use x="1660.914062" xlink:href="#DejaVuSans-53"/>
       <use x="1724.390625" xlink:href="#DejaVuSans-63"/>
       <use x="1779.371094" xlink:href="#DejaVuSans-68"/>
       <use x="1842.75" xlink:href="#DejaVuSans-6f"/>
       <use x="1903.931641" xlink:href="#DejaVuSans-6f"/>
       <use x="1965.113281" xlink:href="#DejaVuSans-6c"/>
      </g>
     </g>
    </g>
    <g id="xtick_6">
     <g id="line2d_6">
      <g>
       <use style="stroke:#000000;stroke-width:0.8;" x="299.635268" xlink:href="#m65b7a9d6a4" y="482.59375"/>
      </g>
     </g>
     <g id="text_6">
      <!-- Framingham - Fuller Middle -->
      <g transform="translate(302.394643 627.0625)rotate(-90)scale(0.1 -0.1)">
       <use xlink:href="#DejaVuSans-46"/>
       <use x="57.410156" xlink:href="#DejaVuSans-72"/>
       <use x="98.523438" xlink:href="#DejaVuSans-61"/>
       <use x="159.802734" xlink:href="#DejaVuSans-6d"/>
       <use x="257.214844" xlink:href="#DejaVuSans-69"/>
       <use x="284.998047" xlink:href="#DejaVuSans-6e"/>
       <use x="348.376953" xlink:href="#DejaVuSans-67"/>
       <use x="411.853516" xlink:href="#DejaVuSans-68"/>
       <use x="475.232422" xlink:href="#DejaVuSans-61"/>
       <use x="536.511719" xlink:href="#DejaVuSans-6d"/>
       <use x="633.923828" xlink:href="#DejaVuSans-20"/>
       <use x="665.710938" xlink:href="#DejaVuSans-2d"/>
       <use x="701.794922" xlink:href="#DejaVuSans-20"/>
       <use x="733.582031" xlink:href="#DejaVuSans-46"/>
       <use x="791.023438" xlink:href="#DejaVuSans-75"/>
       <use x="854.402344" xlink:href="#DejaVuSans-6c"/>
       <use x="882.185547" xlink:href="#DejaVuSans-6c"/>
       <use x="909.96875" xlink:href="#DejaVuSans-65"/>
       <use x="971.492188" xlink:href="#DejaVuSans-72"/>
       <use x="1012.605469" xlink:href="#DejaVuSans-20"/>
       <use x="1044.392578" xlink:href="#DejaVuSans-4d"/>
       <use x="1130.671875" xlink:href="#DejaVuSans-69"/>
       <use x="1158.455078" xlink:href="#DejaVuSans-64"/>
       <use x="1221.931641" xlink:href="#DejaVuSans-64"/>
       <use x="1285.408203" xlink:href="#DejaVuSans-6c"/>
       <use x="1313.191406" xlink:href="#DejaVuSans-65"/>
      </g>
     </g>
    </g>
    <g id="xtick_7">
     <g id="line2d_7">
      <g>
       <use style="stroke:#000000;stroke-width:0.8;" x="347.407589" xlink:href="#m65b7a9d6a4" y="482.59375"/>
      </g>
     </g>
     <g id="text_7">
      <!-- Framingham - Hemenway -->
      <defs>
       <path d="M 4.203125 54.6875 
L 13.1875 54.6875 
L 24.421875 12.015625 
L 35.59375 54.6875 
L 46.1875 54.6875 
L 57.421875 12.015625 
L 68.609375 54.6875 
L 77.59375 54.6875 
L 63.28125 0 
L 52.6875 0 
L 40.921875 44.828125 
L 29.109375 0 
L 18.5 0 
z
" id="DejaVuSans-77"/>
      </defs>
      <g transform="translate(350.166964 619.078125)rotate(-90)scale(0.1 -0.1)">
       <use xlink:href="#DejaVuSans-46"/>
       <use x="57.410156" xlink:href="#DejaVuSans-72"/>
       <use x="98.523438" xlink:href="#DejaVuSans-61"/>
       <use x="159.802734" xlink:href="#DejaVuSans-6d"/>
       <use x="257.214844" xlink:href="#DejaVuSans-69"/>
       <use x="284.998047" xlink:href="#DejaVuSans-6e"/>
       <use x="348.376953" xlink:href="#DejaVuSans-67"/>
       <use x="411.853516" xlink:href="#DejaVuSans-68"/>
       <use x="475.232422" xlink:href="#DejaVuSans-61"/>
       <use x="536.511719" xlink:href="#DejaVuSans-6d"/>
       <use x="633.923828" xlink:href="#DejaVuSans-20"/>
       <use x="665.710938" xlink:href="#DejaVuSans-2d"/>
       <use x="701.794922" xlink:href="#DejaVuSans-20"/>
       <use x="733.582031" xlink:href="#DejaVuSans-48"/>
       <use x="808.777344" xlink:href="#DejaVuSans-65"/>
       <use x="870.300781" xlink:href="#DejaVuSans-6d"/>
       <use x="967.712891" xlink:href="#DejaVuSans-65"/>
       <use x="1029.236328" xlink:href="#DejaVuSans-6e"/>
       <use x="1092.615234" xlink:href="#DejaVuSans-77"/>
       <use x="1174.402344" xlink:href="#DejaVuSans-61"/>
       <use x="1235.681641" xlink:href="#DejaVuSans-79"/>
      </g>
     </g>
    </g>
    <g id="xtick_8">
     <g id="line2d_8">
      <g>
       <use style="stroke:#000000;stroke-width:0.8;" x="395.179911" xlink:href="#m65b7a9d6a4" y="482.59375"/>
      </g>
     </g>
     <g id="text_8">
      <!-- Framingham - Juniper Hill School -->
      <defs>
       <path d="M 9.8125 72.90625 
L 19.671875 72.90625 
L 19.671875 5.078125 
Q 19.671875 -8.109375 14.671875 -14.0625 
Q 9.671875 -20.015625 -1.421875 -20.015625 
L -5.171875 -20.015625 
L -5.171875 -11.71875 
L -2.09375 -11.71875 
Q 4.4375 -11.71875 7.125 -8.046875 
Q 9.8125 -4.390625 9.8125 5.078125 
z
" id="DejaVuSans-4a"/>
      </defs>
      <g transform="translate(397.939286 653.375)rotate(-90)scale(0.1 -0.1)">
       <use xlink:href="#DejaVuSans-46"/>
       <use x="57.410156" xlink:href="#DejaVuSans-72"/>
       <use x="98.523438" xlink:href="#DejaVuSans-61"/>
       <use x="159.802734" xlink:href="#DejaVuSans-6d"/>
       <use x="257.214844" xlink:href="#DejaVuSans-69"/>
       <use x="284.998047" xlink:href="#DejaVuSans-6e"/>
       <use x="348.376953" xlink:href="#DejaVuSans-67"/>
       <use x="411.853516" xlink:href="#DejaVuSans-68"/>
       <use x="475.232422" xlink:href="#DejaVuSans-61"/>
       <use x="536.511719" xlink:href="#DejaVuSans-6d"/>
       <use x="633.923828" xlink:href="#DejaVuSans-20"/>
       <use x="665.710938" xlink:href="#DejaVuSans-2d"/>
       <use x="701.794922" xlink:href="#DejaVuSans-20"/>
       <use x="733.582031" xlink:href="#DejaVuSans-4a"/>
       <use x="763.074219" xlink:href="#DejaVuSans-75"/>
       <use x="826.453125" xlink:href="#DejaVuSans-6e"/>
       <use x="889.832031" xlink:href="#DejaVuSans-69"/>
       <use x="917.615234" xlink:href="#DejaVuSans-70"/>
       <use x="981.091797" xlink:href="#DejaVuSans-65"/>
       <use x="1042.615234" xlink:href="#DejaVuSans-72"/>
       <use x="1083.728516" xlink:href="#DejaVuSans-20"/>
       <use x="1115.515625" xlink:href="#DejaVuSans-48"/>
       <use x="1190.710938" xlink:href="#DejaVuSans-69"/>
       <use x="1218.494141" xlink:href="#DejaVuSans-6c"/>
       <use x="1246.277344" xlink:href="#DejaVuSans-6c"/>
       <use x="1274.060547" xlink:href="#DejaVuSans-20"/>
       <use x="1305.847656" xlink:href="#DejaVuSans-53"/>
       <use x="1369.324219" xlink:href="#DejaVuSans-63"/>
       <use x="1424.304688" xlink:href="#DejaVuSans-68"/>
       <use x="1487.683594" xlink:href="#DejaVuSans-6f"/>
       <use x="1548.865234" xlink:href="#DejaVuSans-6f"/>
       <use x="1610.046875" xlink:href="#DejaVuSans-6c"/>
      </g>
     </g>
    </g>
    <g id="xtick_9">
     <g id="line2d_9">
      <g>
       <use style="stroke:#000000;stroke-width:0.8;" x="442.952232" xlink:href="#m65b7a9d6a4" y="482.59375"/>
      </g>
     </g>
     <g id="text_9">
      <!-- Framingham - King Elementary School -->
      <defs>
       <path d="M 9.8125 72.90625 
L 19.671875 72.90625 
L 19.671875 42.09375 
L 52.390625 72.90625 
L 65.09375 72.90625 
L 28.90625 38.921875 
L 67.671875 0 
L 54.6875 0 
L 19.671875 35.109375 
L 19.671875 0 
L 9.8125 0 
z
" id="DejaVuSans-4b"/>
      </defs>
      <g transform="translate(445.711607 682.085938)rotate(-90)scale(0.1 -0.1)">
       <use xlink:href="#DejaVuSans-46"/>
       <use x="57.410156" xlink:href="#DejaVuSans-72"/>
       <use x="98.523438" xlink:href="#DejaVuSans-61"/>
       <use x="159.802734" xlink:href="#DejaVuSans-6d"/>
       <use x="257.214844" xlink:href="#DejaVuSans-69"/>
       <use x="284.998047" xlink:href="#DejaVuSans-6e"/>
       <use x="348.376953" xlink:href="#DejaVuSans-67"/>
       <use x="411.853516" xlink:href="#DejaVuSans-68"/>
       <use x="475.232422" xlink:href="#DejaVuSans-61"/>
       <use x="536.511719" xlink:href="#DejaVuSans-6d"/>
       <use x="633.923828" xlink:href="#DejaVuSans-20"/>
       <use x="665.710938" xlink:href="#DejaVuSans-2d"/>
       <use x="701.794922" xlink:href="#DejaVuSans-20"/>
       <use x="733.582031" xlink:href="#DejaVuSans-4b"/>
       <use x="799.158203" xlink:href="#DejaVuSans-69"/>
       <use x="826.941406" xlink:href="#DejaVuSans-6e"/>
       <use x="890.320312" xlink:href="#DejaVuSans-67"/>
       <use x="953.796875" xlink:href="#DejaVuSans-20"/>
       <use x="985.583984" xlink:href="#DejaVuSans-45"/>
       <use x="1048.767578" xlink:href="#DejaVuSans-6c"/>
       <use x="1076.550781" xlink:href="#DejaVuSans-65"/>
       <use x="1138.074219" xlink:href="#DejaVuSans-6d"/>
       <use x="1235.486328" xlink:href="#DejaVuSans-65"/>
       <use x="1297.009766" xlink:href="#DejaVuSans-6e"/>
       <use x="1360.388672" xlink:href="#DejaVuSans-74"/>
       <use x="1399.597656" xlink:href="#DejaVuSans-61"/>
       <use x="1460.876953" xlink:href="#DejaVuSans-72"/>
       <use x="1501.990234" xlink:href="#DejaVuSans-79"/>
       <use x="1561.169922" xlink:href="#DejaVuSans-20"/>
       <use x="1592.957031" xlink:href="#DejaVuSans-53"/>
       <use x="1656.433594" xlink:href="#DejaVuSans-63"/>
       <use x="1711.414062" xlink:href="#DejaVuSans-68"/>
       <use x="1774.792969" xlink:href="#DejaVuSans-6f"/>
       <use x="1835.974609" xlink:href="#DejaVuSans-6f"/>
       <use x="1897.15625" xlink:href="#DejaVuSans-6c"/>
      </g>
     </g>
    </g>
    <g id="xtick_10">
     <g id="line2d_10">
      <g>
       <use style="stroke:#000000;stroke-width:0.8;" x="490.724554" xlink:href="#m65b7a9d6a4" y="482.59375"/>
      </g>
     </g>
     <g id="text_10">
      <!-- Framingham - Mary E Stapleton Elementary -->
      <g transform="translate(493.483929 709.2)rotate(-90)scale(0.1 -0.1)">
       <use xlink:href="#DejaVuSans-46"/>
       <use x="57.410156" xlink:href="#DejaVuSans-72"/>
       <use x="98.523438" xlink:href="#DejaVuSans-61"/>
       <use x="159.802734" xlink:href="#DejaVuSans-6d"/>
       <use x="257.214844" xlink:href="#DejaVuSans-69"/>
       <use x="284.998047" xlink:href="#DejaVuSans-6e"/>
       <use x="348.376953" xlink:href="#DejaVuSans-67"/>
       <use x="411.853516" xlink:href="#DejaVuSans-68"/>
       <use x="475.232422" xlink:href="#DejaVuSans-61"/>
       <use x="536.511719" xlink:href="#DejaVuSans-6d"/>
       <use x="633.923828" xlink:href="#DejaVuSans-20"/>
       <use x="665.710938" xlink:href="#DejaVuSans-2d"/>
       <use x="701.794922" xlink:href="#DejaVuSans-20"/>
       <use x="733.582031" xlink:href="#DejaVuSans-4d"/>
       <use x="819.861328" xlink:href="#DejaVuSans-61"/>
       <use x="881.140625" xlink:href="#DejaVuSans-72"/>
       <use x="922.253906" xlink:href="#DejaVuSans-79"/>
       <use x="981.433594" xlink:href="#DejaVuSans-20"/>
       <use x="1013.220703" xlink:href="#DejaVuSans-45"/>
       <use x="1076.404297" xlink:href="#DejaVuSans-20"/>
       <use x="1108.191406" xlink:href="#DejaVuSans-53"/>
       <use x="1171.667969" xlink:href="#DejaVuSans-74"/>
       <use x="1210.876953" xlink:href="#DejaVuSans-61"/>
       <use x="1272.15625" xlink:href="#DejaVuSans-70"/>
       <use x="1335.632812" xlink:href="#DejaVuSans-6c"/>
       <use x="1363.416016" xlink:href="#DejaVuSans-65"/>
       <use x="1424.939453" xlink:href="#DejaVuSans-74"/>
       <use x="1464.148438" xlink:href="#DejaVuSans-6f"/>
       <use x="1525.330078" xlink:href="#DejaVuSans-6e"/>
       <use x="1588.708984" xlink:href="#DejaVuSans-20"/>
       <use x="1620.496094" xlink:href="#DejaVuSans-45"/>
       <use x="1683.679688" xlink:href="#DejaVuSans-6c"/>
       <use x="1711.462891" xlink:href="#DejaVuSans-65"/>
       <use x="1772.986328" xlink:href="#DejaVuSans-6d"/>
       <use x="1870.398438" xlink:href="#DejaVuSans-65"/>
       <use x="1931.921875" xlink:href="#DejaVuSans-6e"/>
       <use x="1995.300781" xlink:href="#DejaVuSans-74"/>
       <use x="2034.509766" xlink:href="#DejaVuSans-61"/>
       <use x="2095.789062" xlink:href="#DejaVuSans-72"/>
       <use x="2136.902344" xlink:href="#DejaVuSans-79"/>
      </g>
     </g>
    </g>
    <g id="xtick_11">
     <g id="line2d_11">
      <g>
       <use style="stroke:#000000;stroke-width:0.8;" x="538.496875" xlink:href="#m65b7a9d6a4" y="482.59375"/>
      </g>
     </g>
     <g id="text_11">
      <!-- Framingham - Miriam F McCarthy School -->
      <g transform="translate(541.25625 693.123438)rotate(-90)scale(0.1 -0.1)">
       <use xlink:href="#DejaVuSans-46"/>
       <use x="57.410156" xlink:href="#DejaVuSans-72"/>
       <use x="98.523438" xlink:href="#DejaVuSans-61"/>
       <use x="159.802734" xlink:href="#DejaVuSans-6d"/>
       <use x="257.214844" xlink:href="#DejaVuSans-69"/>
       <use x="284.998047" xlink:href="#DejaVuSans-6e"/>
       <use x="348.376953" xlink:href="#DejaVuSans-67"/>
       <use x="411.853516" xlink:href="#DejaVuSans-68"/>
       <use x="475.232422" xlink:href="#DejaVuSans-61"/>
       <use x="536.511719" xlink:href="#DejaVuSans-6d"/>
       <use x="633.923828" xlink:href="#DejaVuSans-20"/>
       <use x="665.710938" xlink:href="#DejaVuSans-2d"/>
       <use x="701.794922" xlink:href="#DejaVuSans-20"/>
       <use x="733.582031" xlink:href="#DejaVuSans-4d"/>
       <use x="819.861328" xlink:href="#DejaVuSans-69"/>
       <use x="847.644531" xlink:href="#DejaVuSans-72"/>
       <use x="888.757812" xlink:href="#DejaVuSans-69"/>
       <use x="916.541016" xlink:href="#DejaVuSans-61"/>
       <use x="977.820312" xlink:href="#DejaVuSans-6d"/>
       <use x="1075.232422" xlink:href="#DejaVuSans-20"/>
       <use x="1107.019531" xlink:href="#DejaVuSans-46"/>
       <use x="1164.539062" xlink:href="#DejaVuSans-20"/>
       <use x="1196.326172" xlink:href="#DejaVuSans-4d"/>
       <use x="1282.605469" xlink:href="#DejaVuSans-63"/>
       <use x="1337.585938" xlink:href="#DejaVuSans-43"/>
       <use x="1407.410156" xlink:href="#DejaVuSans-61"/>
       <use x="1468.689453" xlink:href="#DejaVuSans-72"/>
       <use x="1509.802734" xlink:href="#DejaVuSans-74"/>
       <use x="1549.011719" xlink:href="#DejaVuSans-68"/>
       <use x="1612.390625" xlink:href="#DejaVuSans-79"/>
       <use x="1671.570312" xlink:href="#DejaVuSans-20"/>
       <use x="1703.357422" xlink:href="#DejaVuSans-53"/>
       <use x="1766.833984" xlink:href="#DejaVuSans-63"/>
       <use x="1821.814453" xlink:href="#DejaVuSans-68"/>
       <use x="1885.193359" xlink:href="#DejaVuSans-6f"/>
       <use x="1946.375" xlink:href="#DejaVuSans-6f"/>
       <use x="2007.556641" xlink:href="#DejaVuSans-6c"/>
      </g>
     </g>
    </g>
    <g id="xtick_12">
     <g id="line2d_12">
      <g>
       <use style="stroke:#000000;stroke-width:0.8;" x="586.269196" xlink:href="#m65b7a9d6a4" y="482.59375"/>
      </g>
     </g>
     <g id="text_12">
      <!-- Framingham - Potter Road -->
      <defs>
       <path d="M 19.671875 64.796875 
L 19.671875 37.40625 
L 32.078125 37.40625 
Q 38.96875 37.40625 42.71875 40.96875 
Q 46.484375 44.53125 46.484375 51.125 
Q 46.484375 57.671875 42.71875 61.234375 
Q 38.96875 64.796875 32.078125 64.796875 
z
M 9.8125 72.90625 
L 32.078125 72.90625 
Q 44.34375 72.90625 50.609375 67.359375 
Q 56.890625 61.8125 56.890625 51.125 
Q 56.890625 40.328125 50.609375 34.8125 
Q 44.34375 29.296875 32.078125 29.296875 
L 19.671875 29.296875 
L 19.671875 0 
L 9.8125 0 
z
" id="DejaVuSans-50"/>
       <path d="M 44.390625 34.1875 
Q 47.5625 33.109375 50.5625 29.59375 
Q 53.5625 26.078125 56.59375 19.921875 
L 66.609375 0 
L 56 0 
L 46.6875 18.703125 
Q 43.0625 26.03125 39.671875 28.421875 
Q 36.28125 30.8125 30.421875 30.8125 
L 19.671875 30.8125 
L 19.671875 0 
L 9.8125 0 
L 9.8125 72.90625 
L 32.078125 72.90625 
Q 44.578125 72.90625 50.734375 67.671875 
Q 56.890625 62.453125 56.890625 51.90625 
Q 56.890625 45.015625 53.6875 40.46875 
Q 50.484375 35.9375 44.390625 34.1875 
z
M 19.671875 64.796875 
L 19.671875 38.921875 
L 32.078125 38.921875 
Q 39.203125 38.921875 42.84375 42.21875 
Q 46.484375 45.515625 46.484375 51.90625 
Q 46.484375 58.296875 42.84375 61.546875 
Q 39.203125 64.796875 32.078125 64.796875 
z
" id="DejaVuSans-52"/>
      </defs>
      <g transform="translate(589.028571 621.9125)rotate(-90)scale(0.1 -0.1)">
       <use xlink:href="#DejaVuSans-46"/>
       <use x="57.410156" xlink:href="#DejaVuSans-72"/>
       <use x="98.523438" xlink:href="#DejaVuSans-61"/>
       <use x="159.802734" xlink:href="#DejaVuSans-6d"/>
       <use x="257.214844" xlink:href="#DejaVuSans-69"/>
       <use x="284.998047" xlink:href="#DejaVuSans-6e"/>
       <use x="348.376953" xlink:href="#DejaVuSans-67"/>
       <use x="411.853516" xlink:href="#DejaVuSans-68"/>
       <use x="475.232422" xlink:href="#DejaVuSans-61"/>
       <use x="536.511719" xlink:href="#DejaVuSans-6d"/>
       <use x="633.923828" xlink:href="#DejaVuSans-20"/>
       <use x="665.710938" xlink:href="#DejaVuSans-2d"/>
       <use x="701.794922" xlink:href="#DejaVuSans-20"/>
       <use x="733.582031" xlink:href="#DejaVuSans-50"/>
       <use x="793.837891" xlink:href="#DejaVuSans-6f"/>
       <use x="855.019531" xlink:href="#DejaVuSans-74"/>
       <use x="894.228516" xlink:href="#DejaVuSans-74"/>
       <use x="933.4375" xlink:href="#DejaVuSans-65"/>
       <use x="994.960938" xlink:href="#DejaVuSans-72"/>
       <use x="1036.074219" xlink:href="#DejaVuSans-20"/>
       <use x="1067.861328" xlink:href="#DejaVuSans-52"/>
       <use x="1137.28125" xlink:href="#DejaVuSans-6f"/>
       <use x="1198.462891" xlink:href="#DejaVuSans-61"/>
       <use x="1259.742188" xlink:href="#DejaVuSans-64"/>
      </g>
     </g>
    </g>
    <g id="xtick_13">
     <g id="line2d_13">
      <g>
       <use style="stroke:#000000;stroke-width:0.8;" x="634.041518" xlink:href="#m65b7a9d6a4" y="482.59375"/>
      </g>
     </g>
     <g id="text_13">
      <!-- Framingham - Walsh Middle -->
      <defs>
       <path d="M 3.328125 72.90625 
L 13.28125 72.90625 
L 28.609375 11.28125 
L 43.890625 72.90625 
L 54.984375 72.90625 
L 70.3125 11.28125 
L 85.59375 72.90625 
L 95.609375 72.90625 
L 77.296875 0 
L 64.890625 0 
L 49.515625 63.28125 
L 33.984375 0 
L 21.578125 0 
z
" id="DejaVuSans-57"/>
       <path d="M 44.28125 53.078125 
L 44.28125 44.578125 
Q 40.484375 46.53125 36.375 47.5 
Q 32.28125 48.484375 27.875 48.484375 
Q 21.1875 48.484375 17.84375 46.4375 
Q 14.5 44.390625 14.5 40.28125 
Q 14.5 37.15625 16.890625 35.375 
Q 19.28125 33.59375 26.515625 31.984375 
L 29.59375 31.296875 
Q 39.15625 29.25 43.1875 25.515625 
Q 47.21875 21.78125 47.21875 15.09375 
Q 47.21875 7.46875 41.1875 3.015625 
Q 35.15625 -1.421875 24.609375 -1.421875 
Q 20.21875 -1.421875 15.453125 -0.5625 
Q 10.6875 0.296875 5.421875 2 
L 5.421875 11.28125 
Q 10.40625 8.6875 15.234375 7.390625 
Q 20.0625 6.109375 24.8125 6.109375 
Q 31.15625 6.109375 34.5625 8.28125 
Q 37.984375 10.453125 37.984375 14.40625 
Q 37.984375 18.0625 35.515625 20.015625 
Q 33.0625 21.96875 24.703125 23.78125 
L 21.578125 24.515625 
Q 13.234375 26.265625 9.515625 29.90625 
Q 5.8125 33.546875 5.8125 39.890625 
Q 5.8125 47.609375 11.28125 51.796875 
Q 16.75 56 26.8125 56 
Q 31.78125 56 36.171875 55.265625 
Q 40.578125 54.546875 44.28125 53.078125 
z
" id="DejaVuSans-73"/>
      </defs>
      <g transform="translate(636.800893 629.492188)rotate(-90)scale(0.1 -0.1)">
       <use xlink:href="#DejaVuSans-46"/>
       <use x="57.410156" xlink:href="#DejaVuSans-72"/>
       <use x="98.523438" xlink:href="#DejaVuSans-61"/>
       <use x="159.802734" xlink:href="#DejaVuSans-6d"/>
       <use x="257.214844" xlink:href="#DejaVuSans-69"/>
       <use x="284.998047" xlink:href="#DejaVuSans-6e"/>
       <use x="348.376953" xlink:href="#DejaVuSans-67"/>
       <use x="411.853516" xlink:href="#DejaVuSans-68"/>
       <use x="475.232422" xlink:href="#DejaVuSans-61"/>
       <use x="536.511719" xlink:href="#DejaVuSans-6d"/>
       <use x="633.923828" xlink:href="#DejaVuSans-20"/>
       <use x="665.710938" xlink:href="#DejaVuSans-2d"/>
       <use x="701.794922" xlink:href="#DejaVuSans-20"/>
       <use x="733.582031" xlink:href="#DejaVuSans-57"/>
       <use x="832.365234" xlink:href="#DejaVuSans-61"/>
       <use x="893.644531" xlink:href="#DejaVuSans-6c"/>
       <use x="921.427734" xlink:href="#DejaVuSans-73"/>
       <use x="973.527344" xlink:href="#DejaVuSans-68"/>
       <use x="1036.90625" xlink:href="#DejaVuSans-20"/>
       <use x="1068.693359" xlink:href="#DejaVuSans-4d"/>
       <use x="1154.972656" xlink:href="#DejaVuSans-69"/>
       <use x="1182.755859" xlink:href="#DejaVuSans-64"/>
       <use x="1246.232422" xlink:href="#DejaVuSans-64"/>
       <use x="1309.708984" xlink:href="#DejaVuSans-6c"/>
       <use x="1337.492188" xlink:href="#DejaVuSans-65"/>
      </g>
     </g>
    </g>
    <g id="xtick_14">
     <g id="line2d_14">
      <g>
       <use style="stroke:#000000;stroke-width:0.8;" x="681.813839" xlink:href="#m65b7a9d6a4" y="482.59375"/>
      </g>
     </g>
     <g id="text_14">
      <!-- Framingham - Woodrow Wilson -->
      <g transform="translate(684.573214 646.103125)rotate(-90)scale(0.1 -0.1)">
       <use xlink:href="#DejaVuSans-46"/>
       <use x="57.410156" xlink:href="#DejaVuSans-72"/>
       <use x="98.523438" xlink:href="#DejaVuSans-61"/>
       <use x="159.802734" xlink:href="#DejaVuSans-6d"/>
       <use x="257.214844" xlink:href="#DejaVuSans-69"/>
       <use x="284.998047" xlink:href="#DejaVuSans-6e"/>
       <use x="348.376953" xlink:href="#DejaVuSans-67"/>
       <use x="411.853516" xlink:href="#DejaVuSans-68"/>
       <use x="475.232422" xlink:href="#DejaVuSans-61"/>
       <use x="536.511719" xlink:href="#DejaVuSans-6d"/>
       <use x="633.923828" xlink:href="#DejaVuSans-20"/>
       <use x="665.710938" xlink:href="#DejaVuSans-2d"/>
       <use x="701.794922" xlink:href="#DejaVuSans-20"/>
       <use x="733.582031" xlink:href="#DejaVuSans-57"/>
       <use x="832.380859" xlink:href="#DejaVuSans-6f"/>
       <use x="893.5625" xlink:href="#DejaVuSans-6f"/>
       <use x="954.744141" xlink:href="#DejaVuSans-64"/>
       <use x="1018.220703" xlink:href="#DejaVuSans-72"/>
       <use x="1059.302734" xlink:href="#DejaVuSans-6f"/>
       <use x="1120.484375" xlink:href="#DejaVuSans-77"/>
       <use x="1202.271484" xlink:href="#DejaVuSans-20"/>
       <use x="1234.058594" xlink:href="#DejaVuSans-57"/>
       <use x="1332.904297" xlink:href="#DejaVuSans-69"/>
       <use x="1360.6875" xlink:href="#DejaVuSans-6c"/>
       <use x="1388.470703" xlink:href="#DejaVuSans-73"/>
       <use x="1440.570312" xlink:href="#DejaVuSans-6f"/>
       <use x="1501.751953" xlink:href="#DejaVuSans-6e"/>
      </g>
     </g>
    </g>
   </g>
   <g id="matplotlib.axis_2">
    <g id="ytick_1">
     <g id="line2d_15">
      <defs>
       <path d="M 0 0 
L -3.5 0 
" id="mab5217394d" style="stroke:#000000;stroke-width:0.8;"/>
      </defs>
      <g>
       <use style="stroke:#000000;stroke-width:0.8;" x="36.8875" xlink:href="#mab5217394d" y="482.59375"/>
      </g>
     </g>
     <g id="text_15">
      <!-- 0 -->
      <defs>
       <path d="M 31.78125 66.40625 
Q 24.171875 66.40625 20.328125 58.90625 
Q 16.5 51.421875 16.5 36.375 
Q 16.5 21.390625 20.328125 13.890625 
Q 24.171875 6.390625 31.78125 6.390625 
Q 39.453125 6.390625 43.28125 13.890625 
Q 47.125 21.390625 47.125 36.375 
Q 47.125 51.421875 43.28125 58.90625 
Q 39.453125 66.40625 31.78125 66.40625 
z
M 31.78125 74.21875 
Q 44.046875 74.21875 50.515625 64.515625 
Q 56.984375 54.828125 56.984375 36.375 
Q 56.984375 17.96875 50.515625 8.265625 
Q 44.046875 -1.421875 31.78125 -1.421875 
Q 19.53125 -1.421875 13.0625 8.265625 
Q 6.59375 17.96875 6.59375 36.375 
Q 6.59375 54.828125 13.0625 64.515625 
Q 19.53125 74.21875 31.78125 74.21875 
z
" id="DejaVuSans-30"/>
      </defs>
      <g transform="translate(23.525 486.392969)scale(0.1 -0.1)">
       <use xlink:href="#DejaVuSans-30"/>
      </g>
     </g>
    </g>
    <g id="ytick_2">
     <g id="line2d_16">
      <g>
       <use style="stroke:#000000;stroke-width:0.8;" x="36.8875" xlink:href="#mab5217394d" y="391.667339"/>
      </g>
     </g>
     <g id="text_16">
      <!-- 20 -->
      <defs>
       <path d="M 19.1875 8.296875 
L 53.609375 8.296875 
L 53.609375 0 
L 7.328125 0 
L 7.328125 8.296875 
Q 12.9375 14.109375 22.625 23.890625 
Q 32.328125 33.6875 34.8125 36.53125 
Q 39.546875 41.84375 41.421875 45.53125 
Q 43.3125 49.21875 43.3125 52.78125 
Q 43.3125 58.59375 39.234375 62.25 
Q 35.15625 65.921875 28.609375 65.921875 
Q 23.96875 65.921875 18.8125 64.3125 
Q 13.671875 62.703125 7.8125 59.421875 
L 7.8125 69.390625 
Q 13.765625 71.78125 18.9375 73 
Q 24.125 74.21875 28.421875 74.21875 
Q 39.75 74.21875 46.484375 68.546875 
Q 53.21875 62.890625 53.21875 53.421875 
Q 53.21875 48.921875 51.53125 44.890625 
Q 49.859375 40.875 45.40625 35.40625 
Q 44.1875 33.984375 37.640625 27.21875 
Q 31.109375 20.453125 19.1875 8.296875 
z
" id="DejaVuSans-32"/>
      </defs>
      <g transform="translate(17.1625 395.466557)scale(0.1 -0.1)">
       <use xlink:href="#DejaVuSans-32"/>
       <use x="63.623047" xlink:href="#DejaVuSans-30"/>
      </g>
     </g>
    </g>
    <g id="ytick_3">
     <g id="line2d_17">
      <g>
       <use style="stroke:#000000;stroke-width:0.8;" x="36.8875" xlink:href="#mab5217394d" y="300.740927"/>
      </g>
     </g>
     <g id="text_17">
      <!-- 40 -->
      <defs>
       <path d="M 37.796875 64.3125 
L 12.890625 25.390625 
L 37.796875 25.390625 
z
M 35.203125 72.90625 
L 47.609375 72.90625 
L 47.609375 25.390625 
L 58.015625 25.390625 
L 58.015625 17.1875 
L 47.609375 17.1875 
L 47.609375 0 
L 37.796875 0 
L 37.796875 17.1875 
L 4.890625 17.1875 
L 4.890625 26.703125 
z
" id="DejaVuSans-34"/>
      </defs>
      <g transform="translate(17.1625 304.540146)scale(0.1 -0.1)">
       <use xlink:href="#DejaVuSans-34"/>
       <use x="63.623047" xlink:href="#DejaVuSans-30"/>
      </g>
     </g>
    </g>
    <g id="ytick_4">
     <g id="line2d_18">
      <g>
       <use style="stroke:#000000;stroke-width:0.8;" x="36.8875" xlink:href="#mab5217394d" y="209.814516"/>
      </g>
     </g>
     <g id="text_18">
      <!-- 60 -->
      <defs>
       <path d="M 33.015625 40.375 
Q 26.375 40.375 22.484375 35.828125 
Q 18.609375 31.296875 18.609375 23.390625 
Q 18.609375 15.53125 22.484375 10.953125 
Q 26.375 6.390625 33.015625 6.390625 
Q 39.65625 6.390625 43.53125 10.953125 
Q 47.40625 15.53125 47.40625 23.390625 
Q 47.40625 31.296875 43.53125 35.828125 
Q 39.65625 40.375 33.015625 40.375 
z
M 52.59375 71.296875 
L 52.59375 62.3125 
Q 48.875 64.0625 45.09375 64.984375 
Q 41.3125 65.921875 37.59375 65.921875 
Q 27.828125 65.921875 22.671875 59.328125 
Q 17.53125 52.734375 16.796875 39.40625 
Q 19.671875 43.65625 24.015625 45.921875 
Q 28.375 48.1875 33.59375 48.1875 
Q 44.578125 48.1875 50.953125 41.515625 
Q 57.328125 34.859375 57.328125 23.390625 
Q 57.328125 12.15625 50.6875 5.359375 
Q 44.046875 -1.421875 33.015625 -1.421875 
Q 20.359375 -1.421875 13.671875 8.265625 
Q 6.984375 17.96875 6.984375 36.375 
Q 6.984375 53.65625 15.1875 63.9375 
Q 23.390625 74.21875 37.203125 74.21875 
Q 40.921875 74.21875 44.703125 73.484375 
Q 48.484375 72.75 52.59375 71.296875 
z
" id="DejaVuSans-36"/>
      </defs>
      <g transform="translate(17.1625 213.613735)scale(0.1 -0.1)">
       <use xlink:href="#DejaVuSans-36"/>
       <use x="63.623047" xlink:href="#DejaVuSans-30"/>
      </g>
     </g>
    </g>
    <g id="ytick_5">
     <g id="line2d_19">
      <g>
       <use style="stroke:#000000;stroke-width:0.8;" x="36.8875" xlink:href="#mab5217394d" y="118.888105"/>
      </g>
     </g>
     <g id="text_19">
      <!-- 80 -->
      <defs>
       <path d="M 31.78125 34.625 
Q 24.75 34.625 20.71875 30.859375 
Q 16.703125 27.09375 16.703125 20.515625 
Q 16.703125 13.921875 20.71875 10.15625 
Q 24.75 6.390625 31.78125 6.390625 
Q 38.8125 6.390625 42.859375 10.171875 
Q 46.921875 13.96875 46.921875 20.515625 
Q 46.921875 27.09375 42.890625 30.859375 
Q 38.875 34.625 31.78125 34.625 
z
M 21.921875 38.8125 
Q 15.578125 40.375 12.03125 44.71875 
Q 8.5 49.078125 8.5 55.328125 
Q 8.5 64.0625 14.71875 69.140625 
Q 20.953125 74.21875 31.78125 74.21875 
Q 42.671875 74.21875 48.875 69.140625 
Q 55.078125 64.0625 55.078125 55.328125 
Q 55.078125 49.078125 51.53125 44.71875 
Q 48 40.375 41.703125 38.8125 
Q 48.828125 37.15625 52.796875 32.3125 
Q 56.78125 27.484375 56.78125 20.515625 
Q 56.78125 9.90625 50.3125 4.234375 
Q 43.84375 -1.421875 31.78125 -1.421875 
Q 19.734375 -1.421875 13.25 4.234375 
Q 6.78125 9.90625 6.78125 20.515625 
Q 6.78125 27.484375 10.78125 32.3125 
Q 14.796875 37.15625 21.921875 38.8125 
z
M 18.3125 54.390625 
Q 18.3125 48.734375 21.84375 45.5625 
Q 25.390625 42.390625 31.78125 42.390625 
Q 38.140625 42.390625 41.71875 45.5625 
Q 45.3125 48.734375 45.3125 54.390625 
Q 45.3125 60.0625 41.71875 63.234375 
Q 38.140625 66.40625 31.78125 66.40625 
Q 25.390625 66.40625 21.84375 63.234375 
Q 18.3125 60.0625 18.3125 54.390625 
z
" id="DejaVuSans-38"/>
      </defs>
      <g transform="translate(17.1625 122.687323)scale(0.1 -0.1)">
       <use xlink:href="#DejaVuSans-38"/>
       <use x="63.623047" xlink:href="#DejaVuSans-30"/>
      </g>
     </g>
    </g>
    <g id="ytick_6">
     <g id="line2d_20">
      <g>
       <use style="stroke:#000000;stroke-width:0.8;" x="36.8875" xlink:href="#mab5217394d" y="27.961693"/>
      </g>
     </g>
     <g id="text_20">
      <!-- 100 -->
      <defs>
       <path d="M 12.40625 8.296875 
L 28.515625 8.296875 
L 28.515625 63.921875 
L 10.984375 60.40625 
L 10.984375 69.390625 
L 28.421875 72.90625 
L 38.28125 72.90625 
L 38.28125 8.296875 
L 54.390625 8.296875 
L 54.390625 0 
L 12.40625 0 
z
" id="DejaVuSans-31"/>
      </defs>
      <g transform="translate(10.8 31.760912)scale(0.1 -0.1)">
       <use xlink:href="#DejaVuSans-31"/>
       <use x="63.623047" xlink:href="#DejaVuSans-30"/>
       <use x="127.246094" xlink:href="#DejaVuSans-30"/>
      </g>
     </g>
    </g>
   </g>
   <g id="patch_59">
    <path d="M 36.8875 482.59375 
L 36.8875 14.3 
" style="fill:none;stroke:#000000;stroke-linecap:square;stroke-linejoin:miter;stroke-width:0.8;"/>
   </g>
   <g id="patch_60">
    <path d="M 705.7 482.59375 
L 705.7 14.3 
" style="fill:none;stroke:#000000;stroke-linecap:square;stroke-linejoin:miter;stroke-width:0.8;"/>
   </g>
   <g id="patch_61">
    <path d="M 36.8875 482.59375 
L 705.7 482.59375 
" style="fill:none;stroke:#000000;stroke-linecap:square;stroke-linejoin:miter;stroke-width:0.8;"/>
   </g>
   <g id="patch_62">
    <path d="M 36.8875 14.3 
L 705.7 14.3 
" style="fill:none;stroke:#000000;stroke-linecap:square;stroke-linejoin:miter;stroke-width:0.8;"/>
   </g>
   <g id="legend_1">
    <g id="patch_63">
     <path d="M 313.895312 81.0125 
L 428.692187 81.0125 
Q 430.692187 81.0125 430.692187 79.0125 
L 430.692187 21.3 
Q 430.692187 19.3 428.692187 19.3 
L 313.895312 19.3 
Q 311.895312 19.3 311.895312 21.3 
L 311.895312 79.0125 
Q 311.895312 81.0125 313.895312 81.0125 
z
" style="fill:#ffffff;opacity:0.8;stroke:#cccccc;stroke-linejoin:miter;"/>
    </g>
    <g id="patch_64">
     <path d="M 315.895312 30.898438 
L 335.895312 30.898438 
L 335.895312 23.898438 
L 315.895312 23.898438 
z
" style="fill:#1f77b4;"/>
    </g>
    <g id="text_21">
     <!-- AfricanAmerican -->
     <defs>
      <path d="M 37.109375 75.984375 
L 37.109375 68.5 
L 28.515625 68.5 
Q 23.6875 68.5 21.796875 66.546875 
Q 19.921875 64.59375 19.921875 59.515625 
L 19.921875 54.6875 
L 34.71875 54.6875 
L 34.71875 47.703125 
L 19.921875 47.703125 
L 19.921875 0 
L 10.890625 0 
L 10.890625 47.703125 
L 2.296875 47.703125 
L 2.296875 54.6875 
L 10.890625 54.6875 
L 10.890625 58.5 
Q 10.890625 67.625 15.140625 71.796875 
Q 19.390625 75.984375 28.609375 75.984375 
z
" id="DejaVuSans-66"/>
     </defs>
     <g transform="translate(343.895312 30.898438)scale(0.1 -0.1)">
      <use xlink:href="#DejaVuSans-41"/>
      <use x="68.361328" xlink:href="#DejaVuSans-66"/>
      <use x="103.566406" xlink:href="#DejaVuSans-72"/>
      <use x="144.679688" xlink:href="#DejaVuSans-69"/>
      <use x="172.462891" xlink:href="#DejaVuSans-63"/>
      <use x="227.443359" xlink:href="#DejaVuSans-61"/>
      <use x="288.722656" xlink:href="#DejaVuSans-6e"/>
      <use x="352.101562" xlink:href="#DejaVuSans-41"/>
      <use x="420.509766" xlink:href="#DejaVuSans-6d"/>
      <use x="517.921875" xlink:href="#DejaVuSans-65"/>
      <use x="579.445312" xlink:href="#DejaVuSans-72"/>
      <use x="620.558594" xlink:href="#DejaVuSans-69"/>
      <use x="648.341797" xlink:href="#DejaVuSans-63"/>
      <use x="703.322266" xlink:href="#DejaVuSans-61"/>
      <use x="764.601562" xlink:href="#DejaVuSans-6e"/>
     </g>
    </g>
    <g id="patch_65">
     <path d="M 315.895312 45.576563 
L 335.895312 45.576563 
L 335.895312 38.576563 
L 315.895312 38.576563 
z
" style="fill:#ff7f0e;"/>
    </g>
    <g id="text_22">
     <!-- Asian -->
     <g transform="translate(343.895312 45.576563)scale(0.1 -0.1)">
      <use xlink:href="#DejaVuSans-41"/>
      <use x="68.408203" xlink:href="#DejaVuSans-73"/>
      <use x="120.507812" xlink:href="#DejaVuSans-69"/>
      <use x="148.291016" xlink:href="#DejaVuSans-61"/>
      <use x="209.570312" xlink:href="#DejaVuSans-6e"/>
     </g>
    </g>
    <g id="patch_66">
     <path d="M 315.895312 60.254688 
L 335.895312 60.254688 
L 335.895312 53.254688 
L 315.895312 53.254688 
z
" style="fill:#2ca02c;"/>
    </g>
    <g id="text_23">
     <!-- White -->
     <g transform="translate(343.895312 60.254688)scale(0.1 -0.1)">
      <use xlink:href="#DejaVuSans-57"/>
      <use x="98.876953" xlink:href="#DejaVuSans-68"/>
      <use x="162.255859" xlink:href="#DejaVuSans-69"/>
      <use x="190.039062" xlink:href="#DejaVuSans-74"/>
      <use x="229.248047" xlink:href="#DejaVuSans-65"/>
     </g>
    </g>
    <g id="patch_67">
     <path d="M 315.895312 74.932812 
L 335.895312 74.932812 
L 335.895312 67.932812 
L 315.895312 67.932812 
z
" style="fill:#d62728;"/>
    </g>
    <g id="text_24">
     <!-- Hispanic -->
     <g transform="translate(343.895312 74.932812)scale(0.1 -0.1)">
      <use xlink:href="#DejaVuSans-48"/>
      <use x="75.195312" xlink:href="#DejaVuSans-69"/>
      <use x="102.978516" xlink:href="#DejaVuSans-73"/>
      <use x="155.078125" xlink:href="#DejaVuSans-70"/>
      <use x="218.554688" xlink:href="#DejaVuSans-61"/>
      <use x="279.833984" xlink:href="#DejaVuSans-6e"/>
      <use x="343.212891" xlink:href="#DejaVuSans-69"/>
      <use x="370.996094" xlink:href="#DejaVuSans-63"/>
     </g>
    </g>
   </g>
  </g>
 </g>
 <defs>
  <clipPath id="pf00338fb3f">
   <rect height="468.29375" width="668.8125" x="36.8875" y="14.3"/>
  </clipPath>
 </defs>
</svg>
