<?xml version="1.0" encoding="utf-8" standalone="no"?>
<!DOCTYPE svg PUBLIC "-//W3C//DTD SVG 1.1//EN"
  "http://www.w3.org/Graphics/SVG/1.1/DTD/svg11.dtd">
<!-- Created with matplotlib (http://matplotlib.org/) -->
<svg height="720pt" version="1.1" viewBox="0 0 720 720" width="720pt" xmlns="http://www.w3.org/2000/svg" xmlns:xlink="http://www.w3.org/1999/xlink">
 <defs>
  <style type="text/css">
*{stroke-linecap:butt;stroke-linejoin:round;}
  </style>
 </defs>
 <g id="figure_1">
  <g id="patch_1">
   <path d="M 0 720 
L 720 720 
L 720 0 
L 0 0 
z
" style="fill:#ffffff;"/>
  </g>
  <g id="axes_1">
   <g id="patch_2">
    <path d="M 30.525 482.59375 
L 705.7 482.59375 
L 705.7 14.3 
L 30.525 14.3 
z
" style="fill:#ffffff;"/>
   </g>
   <g id="patch_3">
    <path clip-path="url(#pdef3a04155)" d="M 42.581696 482.59375 
L 50.619494 482.59375 
L 50.619494 385.095051 
L 42.581696 385.095051 
z
" style="fill:#1f77b4;"/>
   </g>
   <g id="patch_4">
    <path clip-path="url(#pdef3a04155)" d="M 90.808482 482.59375 
L 98.84628 482.59375 
L 98.84628 410.094718 
L 90.808482 410.094718 
z
" style="fill:#1f77b4;"/>
   </g>
   <g id="patch_5">
    <path clip-path="url(#pdef3a04155)" d="M 139.035268 482.59375 
L 147.073065 482.59375 
L 147.073065 352.595485 
L 139.035268 352.595485 
z
" style="fill:#1f77b4;"/>
   </g>
   <g id="patch_6">
    <path clip-path="url(#pdef3a04155)" d="M 187.262054 482.59375 
L 195.299851 482.59375 
L 195.299851 369.095265 
L 187.262054 369.095265 
z
" style="fill:#1f77b4;"/>
   </g>
   <g id="patch_7">
    <path clip-path="url(#pdef3a04155)" d="M 235.488839 482.59375 
L 243.526637 482.59375 
L 243.526637 406.094771 
L 235.488839 406.094771 
z
" style="fill:#1f77b4;"/>
   </g>
   <g id="patch_8">
    <path clip-path="url(#pdef3a04155)" d="M 283.715625 482.59375 
L 291.753423 482.59375 
L 291.753423 356.095438 
L 283.715625 356.095438 
z
" style="fill:#1f77b4;"/>
   </g>
   <g id="patch_9">
    <path clip-path="url(#pdef3a04155)" d="M 331.942411 482.59375 
L 339.980208 482.59375 
L 339.980208 376.095171 
L 331.942411 376.095171 
z
" style="fill:#1f77b4;"/>
   </g>
   <g id="patch_10">
    <path clip-path="url(#pdef3a04155)" d="M 380.169196 482.59375 
L 388.206994 482.59375 
L 388.206994 303.096146 
L 380.169196 303.096146 
z
" style="fill:#1f77b4;"/>
   </g>
   <g id="patch_11">
    <path clip-path="url(#pdef3a04155)" d="M 428.395982 482.59375 
L 436.43378 482.59375 
L 436.43378 422.594551 
L 428.395982 422.594551 
z
" style="fill:#1f77b4;"/>
   </g>
   <g id="patch_12">
    <path clip-path="url(#pdef3a04155)" d="M 476.622768 482.59375 
L 484.660565 482.59375 
L 484.660565 344.595592 
L 476.622768 344.595592 
z
" style="fill:#1f77b4;"/>
   </g>
   <g id="patch_13">
    <path clip-path="url(#pdef3a04155)" d="M 524.849554 482.59375 
L 532.887351 482.59375 
L 532.887351 328.095812 
L 524.849554 328.095812 
z
" style="fill:#1f77b4;"/>
   </g>
   <g id="patch_14">
    <path clip-path="url(#pdef3a04155)" d="M 573.076339 482.59375 
L 581.114137 482.59375 
L 581.114137 415.094651 
L 573.076339 415.094651 
z
" style="fill:#1f77b4;"/>
   </g>
   <g id="patch_15">
    <path clip-path="url(#pdef3a04155)" d="M 621.303125 482.59375 
L 629.340923 482.59375 
L 629.340923 355.095452 
L 621.303125 355.095452 
z
" style="fill:#1f77b4;"/>
   </g>
   <g id="patch_16">
    <path clip-path="url(#pdef3a04155)" d="M 669.529911 482.59375 
L 677.567708 482.59375 
L 677.567708 414.594658 
L 669.529911 414.594658 
z
" style="fill:#1f77b4;"/>
   </g>
   <g id="patch_17">
    <path clip-path="url(#pdef3a04155)" d="M 50.619494 482.59375 
L 58.657292 482.59375 
L 58.657292 136.098374 
L 50.619494 136.098374 
z
" style="fill:#ff7f0e;"/>
   </g>
   <g id="patch_18">
    <path clip-path="url(#pdef3a04155)" d="M 98.84628 482.59375 
L 106.884077 482.59375 
L 106.884077 129.598461 
L 98.84628 129.598461 
z
" style="fill:#ff7f0e;"/>
   </g>
   <g id="patch_19">
    <path clip-path="url(#pdef3a04155)" d="M 147.073065 482.59375 
L 155.110863 482.59375 
L 155.110863 192.097627 
L 147.073065 192.097627 
z
" style="fill:#ff7f0e;"/>
   </g>
   <g id="patch_20">
    <path clip-path="url(#pdef3a04155)" d="M 195.299851 482.59375 
L 203.337649 482.59375 
L 203.337649 237.59702 
L 195.299851 237.59702 
z
" style="fill:#ff7f0e;"/>
   </g>
   <g id="patch_21">
    <path clip-path="url(#pdef3a04155)" d="M 243.526637 482.59375 
L 251.564435 482.59375 
L 251.564435 261.096706 
L 243.526637 261.096706 
z
" style="fill:#ff7f0e;"/>
   </g>
   <g id="patch_22">
    <path clip-path="url(#pdef3a04155)" d="M 291.753423 482.59375 
L 299.79122 482.59375 
L 299.79122 127.098495 
L 291.753423 127.098495 
z
" style="fill:#ff7f0e;"/>
   </g>
   <g id="patch_23">
    <path clip-path="url(#pdef3a04155)" d="M 339.980208 482.59375 
L 348.018006 482.59375 
L 348.018006 282.096426 
L 339.980208 282.096426 
z
" style="fill:#ff7f0e;"/>
   </g>
   <g id="patch_24">
    <path clip-path="url(#pdef3a04155)" d="M 388.206994 482.59375 
L 396.244792 482.59375 
L 396.244792 251.596833 
L 388.206994 251.596833 
z
" style="fill:#ff7f0e;"/>
   </g>
   <g id="patch_25">
    <path clip-path="url(#pdef3a04155)" d="M 436.43378 482.59375 
L 444.471577 482.59375 
L 444.471577 260.09672 
L 436.43378 260.09672 
z
" style="fill:#ff7f0e;"/>
   </g>
   <g id="patch_26">
    <path clip-path="url(#pdef3a04155)" d="M 484.660565 482.59375 
L 492.698363 482.59375 
L 492.698363 200.597514 
L 484.660565 200.597514 
z
" style="fill:#ff7f0e;"/>
   </g>
   <g id="patch_27">
    <path clip-path="url(#pdef3a04155)" d="M 532.887351 482.59375 
L 540.925149 482.59375 
L 540.925149 122.598555 
L 532.887351 122.598555 
z
" style="fill:#ff7f0e;"/>
   </g>
   <g id="patch_28">
    <path clip-path="url(#pdef3a04155)" d="M 581.114137 482.59375 
L 589.151935 482.59375 
L 589.151935 222.59722 
L 581.114137 222.59722 
z
" style="fill:#ff7f0e;"/>
   </g>
   <g id="patch_29">
    <path clip-path="url(#pdef3a04155)" d="M 629.340923 482.59375 
L 637.37872 482.59375 
L 637.37872 256.096773 
L 629.340923 256.096773 
z
" style="fill:#ff7f0e;"/>
   </g>
   <g id="patch_30">
    <path clip-path="url(#pdef3a04155)" d="M 677.567708 482.59375 
L 685.605506 482.59375 
L 685.605506 36.599702 
L 677.567708 36.599702 
z
" style="fill:#ff7f0e;"/>
   </g>
   <g id="patch_31">
    <path clip-path="url(#pdef3a04155)" d="M 58.657292 482.59375 
L 66.695089 482.59375 
L 66.695089 247.096893 
L 58.657292 247.096893 
z
" style="fill:#2ca02c;"/>
   </g>
   <g id="patch_32">
    <path clip-path="url(#pdef3a04155)" d="M 106.884077 482.59375 
L 114.921875 482.59375 
L 114.921875 233.597073 
L 106.884077 233.597073 
z
" style="fill:#2ca02c;"/>
   </g>
   <g id="patch_33">
    <path clip-path="url(#pdef3a04155)" d="M 155.110863 482.59375 
L 163.148661 482.59375 
L 163.148661 287.096359 
L 155.110863 287.096359 
z
" style="fill:#2ca02c;"/>
   </g>
   <g id="patch_34">
    <path clip-path="url(#pdef3a04155)" d="M 203.337649 482.59375 
L 211.375446 482.59375 
L 211.375446 373.095211 
L 203.337649 373.095211 
z
" style="fill:#2ca02c;"/>
   </g>
   <g id="patch_35">
    <path clip-path="url(#pdef3a04155)" d="M 251.564435 482.59375 
L 259.602232 482.59375 
L 259.602232 346.095572 
L 251.564435 346.095572 
z
" style="fill:#2ca02c;"/>
   </g>
   <g id="patch_36">
    <path clip-path="url(#pdef3a04155)" d="M 299.79122 482.59375 
L 307.829018 482.59375 
L 307.829018 252.096826 
L 299.79122 252.096826 
z
" style="fill:#2ca02c;"/>
   </g>
   <g id="patch_37">
    <path clip-path="url(#pdef3a04155)" d="M 348.018006 482.59375 
L 356.055804 482.59375 
L 356.055804 391.094971 
L 348.018006 391.094971 
z
" style="fill:#2ca02c;"/>
   </g>
   <g id="patch_38">
    <path clip-path="url(#pdef3a04155)" d="M 396.244792 482.59375 
L 404.282589 482.59375 
L 404.282589 350.595512 
L 396.244792 350.595512 
z
" style="fill:#2ca02c;"/>
   </g>
   <g id="patch_39">
    <path clip-path="url(#pdef3a04155)" d="M 444.471577 482.59375 
L 452.509375 482.59375 
L 452.509375 357.095425 
L 444.471577 357.095425 
z
" style="fill:#2ca02c;"/>
   </g>
   <g id="patch_40">
    <path clip-path="url(#pdef3a04155)" d="M 492.698363 482.59375 
L 500.736161 482.59375 
L 500.736161 283.596406 
L 492.698363 283.596406 
z
" style="fill:#2ca02c;"/>
   </g>
   <g id="patch_41">
    <path clip-path="url(#pdef3a04155)" d="M 540.925149 482.59375 
L 548.962946 482.59375 
L 548.962946 220.097253 
L 540.925149 220.097253 
z
" style="fill:#2ca02c;"/>
   </g>
   <g id="patch_42">
    <path clip-path="url(#pdef3a04155)" d="M 589.151935 482.59375 
L 597.189732 482.59375 
L 597.189732 362.595352 
L 589.151935 362.595352 
z
" style="fill:#2ca02c;"/>
   </g>
   <g id="patch_43">
    <path clip-path="url(#pdef3a04155)" d="M 637.37872 482.59375 
L 645.416518 482.59375 
L 645.416518 336.095705 
L 637.37872 336.095705 
z
" style="fill:#2ca02c;"/>
   </g>
   <g id="patch_44">
    <path clip-path="url(#pdef3a04155)" d="M 685.605506 482.59375 
L 693.643304 482.59375 
L 693.643304 204.097467 
L 685.605506 204.097467 
z
" style="fill:#2ca02c;"/>
   </g>
   <g id="matplotlib.axis_1">
    <g id="xtick_1">
     <g id="line2d_1">
      <defs>
       <path d="M 0 0 
L 0 3.5 
" id="mb733ff3225" style="stroke:#000000;stroke-width:0.8;"/>
      </defs>
      <g>
       <use style="stroke:#000000;stroke-width:0.8;" x="54.638393" xlink:href="#mb733ff3225" y="482.59375"/>
      </g>
     </g>
     <g id="text_1">
      <!-- Framingham - Barbieri Elementary -->
      <defs>
       <path d="M 9.8125 72.90625 
L 51.703125 72.90625 
L 51.703125 64.59375 
L 19.671875 64.59375 
L 19.671875 43.109375 
L 48.578125 43.109375 
L 48.578125 34.8125 
L 19.671875 34.8125 
L 19.671875 0 
L 9.8125 0 
z
" id="DejaVuSans-46"/>
       <path d="M 41.109375 46.296875 
Q 39.59375 47.171875 37.8125 47.578125 
Q 36.03125 48 33.890625 48 
Q 26.265625 48 22.1875 43.046875 
Q 18.109375 38.09375 18.109375 28.8125 
L 18.109375 0 
L 9.078125 0 
L 9.078125 54.6875 
L 18.109375 54.6875 
L 18.109375 46.1875 
Q 20.953125 51.171875 25.484375 53.578125 
Q 30.03125 56 36.53125 56 
Q 37.453125 56 38.578125 55.875 
Q 39.703125 55.765625 41.0625 55.515625 
z
" id="DejaVuSans-72"/>
       <path d="M 34.28125 27.484375 
Q 23.390625 27.484375 19.1875 25 
Q 14.984375 22.515625 14.984375 16.5 
Q 14.984375 11.71875 18.140625 8.90625 
Q 21.296875 6.109375 26.703125 6.109375 
Q 34.1875 6.109375 38.703125 11.40625 
Q 43.21875 16.703125 43.21875 25.484375 
L 43.21875 27.484375 
z
M 52.203125 31.203125 
L 52.203125 0 
L 43.21875 0 
L 43.21875 8.296875 
Q 40.140625 3.328125 35.546875 0.953125 
Q 30.953125 -1.421875 24.3125 -1.421875 
Q 15.921875 -1.421875 10.953125 3.296875 
Q 6 8.015625 6 15.921875 
Q 6 25.140625 12.171875 29.828125 
Q 18.359375 34.515625 30.609375 34.515625 
L 43.21875 34.515625 
L 43.21875 35.40625 
Q 43.21875 41.609375 39.140625 45 
Q 35.0625 48.390625 27.6875 48.390625 
Q 23 48.390625 18.546875 47.265625 
Q 14.109375 46.140625 10.015625 43.890625 
L 10.015625 52.203125 
Q 14.9375 54.109375 19.578125 55.046875 
Q 24.21875 56 28.609375 56 
Q 40.484375 56 46.34375 49.84375 
Q 52.203125 43.703125 52.203125 31.203125 
z
" id="DejaVuSans-61"/>
       <path d="M 52 44.1875 
Q 55.375 50.25 60.0625 53.125 
Q 64.75 56 71.09375 56 
Q 79.640625 56 84.28125 50.015625 
Q 88.921875 44.046875 88.921875 33.015625 
L 88.921875 0 
L 79.890625 0 
L 79.890625 32.71875 
Q 79.890625 40.578125 77.09375 44.375 
Q 74.3125 48.1875 68.609375 48.1875 
Q 61.625 48.1875 57.5625 43.546875 
Q 53.515625 38.921875 53.515625 30.90625 
L 53.515625 0 
L 44.484375 0 
L 44.484375 32.71875 
Q 44.484375 40.625 41.703125 44.40625 
Q 38.921875 48.1875 33.109375 48.1875 
Q 26.21875 48.1875 22.15625 43.53125 
Q 18.109375 38.875 18.109375 30.90625 
L 18.109375 0 
L 9.078125 0 
L 9.078125 54.6875 
L 18.109375 54.6875 
L 18.109375 46.1875 
Q 21.1875 51.21875 25.484375 53.609375 
Q 29.78125 56 35.6875 56 
Q 41.65625 56 45.828125 52.96875 
Q 50 49.953125 52 44.1875 
z
" id="DejaVuSans-6d"/>
       <path d="M 9.421875 54.6875 
L 18.40625 54.6875 
L 18.40625 0 
L 9.421875 0 
z
M 9.421875 75.984375 
L 18.40625 75.984375 
L 18.40625 64.59375 
L 9.421875 64.59375 
z
" id="DejaVuSans-69"/>
       <path d="M 54.890625 33.015625 
L 54.890625 0 
L 45.90625 0 
L 45.90625 32.71875 
Q 45.90625 40.484375 42.875 44.328125 
Q 39.84375 48.1875 33.796875 48.1875 
Q 26.515625 48.1875 22.3125 43.546875 
Q 18.109375 38.921875 18.109375 30.90625 
L 18.109375 0 
L 9.078125 0 
L 9.078125 54.6875 
L 18.109375 54.6875 
L 18.109375 46.1875 
Q 21.34375 51.125 25.703125 53.5625 
Q 30.078125 56 35.796875 56 
Q 45.21875 56 50.046875 50.171875 
Q 54.890625 44.34375 54.890625 33.015625 
z
" id="DejaVuSans-6e"/>
       <path d="M 45.40625 27.984375 
Q 45.40625 37.75 41.375 43.109375 
Q 37.359375 48.484375 30.078125 48.484375 
Q 22.859375 48.484375 18.828125 43.109375 
Q 14.796875 37.75 14.796875 27.984375 
Q 14.796875 18.265625 18.828125 12.890625 
Q 22.859375 7.515625 30.078125 7.515625 
Q 37.359375 7.515625 41.375 12.890625 
Q 45.40625 18.265625 45.40625 27.984375 
z
M 54.390625 6.78125 
Q 54.390625 -7.171875 48.1875 -13.984375 
Q 42 -20.796875 29.203125 -20.796875 
Q 24.46875 -20.796875 20.265625 -20.09375 
Q 16.0625 -19.390625 12.109375 -17.921875 
L 12.109375 -9.1875 
Q 16.0625 -11.328125 19.921875 -12.34375 
Q 23.78125 -13.375 27.78125 -13.375 
Q 36.625 -13.375 41.015625 -8.765625 
Q 45.40625 -4.15625 45.40625 5.171875 
L 45.40625 9.625 
Q 42.625 4.78125 38.28125 2.390625 
Q 33.9375 0 27.875 0 
Q 17.828125 0 11.671875 7.65625 
Q 5.515625 15.328125 5.515625 27.984375 
Q 5.515625 40.671875 11.671875 48.328125 
Q 17.828125 56 27.875 56 
Q 33.9375 56 38.28125 53.609375 
Q 42.625 51.21875 45.40625 46.390625 
L 45.40625 54.6875 
L 54.390625 54.6875 
z
" id="DejaVuSans-67"/>
       <path d="M 54.890625 33.015625 
L 54.890625 0 
L 45.90625 0 
L 45.90625 32.71875 
Q 45.90625 40.484375 42.875 44.328125 
Q 39.84375 48.1875 33.796875 48.1875 
Q 26.515625 48.1875 22.3125 43.546875 
Q 18.109375 38.921875 18.109375 30.90625 
L 18.109375 0 
L 9.078125 0 
L 9.078125 75.984375 
L 18.109375 75.984375 
L 18.109375 46.1875 
Q 21.34375 51.125 25.703125 53.5625 
Q 30.078125 56 35.796875 56 
Q 45.21875 56 50.046875 50.171875 
Q 54.890625 44.34375 54.890625 33.015625 
z
" id="DejaVuSans-68"/>
       <path id="DejaVuSans-20"/>
       <path d="M 4.890625 31.390625 
L 31.203125 31.390625 
L 31.203125 23.390625 
L 4.890625 23.390625 
z
" id="DejaVuSans-2d"/>
       <path d="M 19.671875 34.8125 
L 19.671875 8.109375 
L 35.5 8.109375 
Q 43.453125 8.109375 47.28125 11.40625 
Q 51.125 14.703125 51.125 21.484375 
Q 51.125 28.328125 47.28125 31.5625 
Q 43.453125 34.8125 35.5 34.8125 
z
M 19.671875 64.796875 
L 19.671875 42.828125 
L 34.28125 42.828125 
Q 41.5 42.828125 45.03125 45.53125 
Q 48.578125 48.25 48.578125 53.8125 
Q 48.578125 59.328125 45.03125 62.0625 
Q 41.5 64.796875 34.28125 64.796875 
z
M 9.8125 72.90625 
L 35.015625 72.90625 
Q 46.296875 72.90625 52.390625 68.21875 
Q 58.5 63.53125 58.5 54.890625 
Q 58.5 48.1875 55.375 44.234375 
Q 52.25 40.28125 46.1875 39.3125 
Q 53.46875 37.75 57.5 32.78125 
Q 61.53125 27.828125 61.53125 20.40625 
Q 61.53125 10.640625 54.890625 5.3125 
Q 48.25 0 35.984375 0 
L 9.8125 0 
z
" id="DejaVuSans-42"/>
       <path d="M 48.6875 27.296875 
Q 48.6875 37.203125 44.609375 42.84375 
Q 40.53125 48.484375 33.40625 48.484375 
Q 26.265625 48.484375 22.1875 42.84375 
Q 18.109375 37.203125 18.109375 27.296875 
Q 18.109375 17.390625 22.1875 11.75 
Q 26.265625 6.109375 33.40625 6.109375 
Q 40.53125 6.109375 44.609375 11.75 
Q 48.6875 17.390625 48.6875 27.296875 
z
M 18.109375 46.390625 
Q 20.953125 51.265625 25.265625 53.625 
Q 29.59375 56 35.59375 56 
Q 45.5625 56 51.78125 48.09375 
Q 58.015625 40.1875 58.015625 27.296875 
Q 58.015625 14.40625 51.78125 6.484375 
Q 45.5625 -1.421875 35.59375 -1.421875 
Q 29.59375 -1.421875 25.265625 0.953125 
Q 20.953125 3.328125 18.109375 8.203125 
L 18.109375 0 
L 9.078125 0 
L 9.078125 75.984375 
L 18.109375 75.984375 
z
" id="DejaVuSans-62"/>
       <path d="M 56.203125 29.59375 
L 56.203125 25.203125 
L 14.890625 25.203125 
Q 15.484375 15.921875 20.484375 11.0625 
Q 25.484375 6.203125 34.421875 6.203125 
Q 39.59375 6.203125 44.453125 7.46875 
Q 49.3125 8.734375 54.109375 11.28125 
L 54.109375 2.78125 
Q 49.265625 0.734375 44.1875 -0.34375 
Q 39.109375 -1.421875 33.890625 -1.421875 
Q 20.796875 -1.421875 13.15625 6.1875 
Q 5.515625 13.8125 5.515625 26.8125 
Q 5.515625 40.234375 12.765625 48.109375 
Q 20.015625 56 32.328125 56 
Q 43.359375 56 49.78125 48.890625 
Q 56.203125 41.796875 56.203125 29.59375 
z
M 47.21875 32.234375 
Q 47.125 39.59375 43.09375 43.984375 
Q 39.0625 48.390625 32.421875 48.390625 
Q 24.90625 48.390625 20.390625 44.140625 
Q 15.875 39.890625 15.1875 32.171875 
z
" id="DejaVuSans-65"/>
       <path d="M 9.8125 72.90625 
L 55.90625 72.90625 
L 55.90625 64.59375 
L 19.671875 64.59375 
L 19.671875 43.015625 
L 54.390625 43.015625 
L 54.390625 34.71875 
L 19.671875 34.71875 
L 19.671875 8.296875 
L 56.78125 8.296875 
L 56.78125 0 
L 9.8125 0 
z
" id="DejaVuSans-45"/>
       <path d="M 9.421875 75.984375 
L 18.40625 75.984375 
L 18.40625 0 
L 9.421875 0 
z
" id="DejaVuSans-6c"/>
       <path d="M 18.3125 70.21875 
L 18.3125 54.6875 
L 36.8125 54.6875 
L 36.8125 47.703125 
L 18.3125 47.703125 
L 18.3125 18.015625 
Q 18.3125 11.328125 20.140625 9.421875 
Q 21.96875 7.515625 27.59375 7.515625 
L 36.8125 7.515625 
L 36.8125 0 
L 27.59375 0 
Q 17.1875 0 13.234375 3.875 
Q 9.28125 7.765625 9.28125 18.015625 
L 9.28125 47.703125 
L 2.6875 47.703125 
L 2.6875 54.6875 
L 9.28125 54.6875 
L 9.28125 70.21875 
z
" id="DejaVuSans-74"/>
       <path d="M 32.171875 -5.078125 
Q 28.375 -14.84375 24.75 -17.8125 
Q 21.140625 -20.796875 15.09375 -20.796875 
L 7.90625 -20.796875 
L 7.90625 -13.28125 
L 13.1875 -13.28125 
Q 16.890625 -13.28125 18.9375 -11.515625 
Q 21 -9.765625 23.484375 -3.21875 
L 25.09375 0.875 
L 2.984375 54.6875 
L 12.5 54.6875 
L 29.59375 11.921875 
L 46.6875 54.6875 
L 56.203125 54.6875 
z
" id="DejaVuSans-79"/>
      </defs>
      <g transform="translate(57.397768 662.954687)rotate(-90)scale(0.1 -0.1)">
       <use xlink:href="#DejaVuSans-46"/>
       <use x="57.410156" xlink:href="#DejaVuSans-72"/>
       <use x="98.523438" xlink:href="#DejaVuSans-61"/>
       <use x="159.802734" xlink:href="#DejaVuSans-6d"/>
       <use x="257.214844" xlink:href="#DejaVuSans-69"/>
       <use x="284.998047" xlink:href="#DejaVuSans-6e"/>
       <use x="348.376953" xlink:href="#DejaVuSans-67"/>
       <use x="411.853516" xlink:href="#DejaVuSans-68"/>
       <use x="475.232422" xlink:href="#DejaVuSans-61"/>
       <use x="536.511719" xlink:href="#DejaVuSans-6d"/>
       <use x="633.923828" xlink:href="#DejaVuSans-20"/>
       <use x="665.710938" xlink:href="#DejaVuSans-2d"/>
       <use x="701.794922" xlink:href="#DejaVuSans-20"/>
       <use x="733.582031" xlink:href="#DejaVuSans-42"/>
       <use x="802.185547" xlink:href="#DejaVuSans-61"/>
       <use x="863.464844" xlink:href="#DejaVuSans-72"/>
       <use x="904.578125" xlink:href="#DejaVuSans-62"/>
       <use x="968.054688" xlink:href="#DejaVuSans-69"/>
       <use x="995.837891" xlink:href="#DejaVuSans-65"/>
       <use x="1057.361328" xlink:href="#DejaVuSans-72"/>
       <use x="1098.474609" xlink:href="#DejaVuSans-69"/>
       <use x="1126.257812" xlink:href="#DejaVuSans-20"/>
       <use x="1158.044922" xlink:href="#DejaVuSans-45"/>
       <use x="1221.228516" xlink:href="#DejaVuSans-6c"/>
       <use x="1249.011719" xlink:href="#DejaVuSans-65"/>
       <use x="1310.535156" xlink:href="#DejaVuSans-6d"/>
       <use x="1407.947266" xlink:href="#DejaVuSans-65"/>
       <use x="1469.470703" xlink:href="#DejaVuSans-6e"/>
       <use x="1532.849609" xlink:href="#DejaVuSans-74"/>
       <use x="1572.058594" xlink:href="#DejaVuSans-61"/>
       <use x="1633.337891" xlink:href="#DejaVuSans-72"/>
       <use x="1674.451172" xlink:href="#DejaVuSans-79"/>
      </g>
     </g>
    </g>
    <g id="xtick_2">
     <g id="line2d_2">
      <g>
       <use style="stroke:#000000;stroke-width:0.8;" x="102.865179" xlink:href="#mb733ff3225" y="482.59375"/>
      </g>
     </g>
     <g id="text_2">
      <!-- Framingham - Brophy -->
      <defs>
       <path d="M 30.609375 48.390625 
Q 23.390625 48.390625 19.1875 42.75 
Q 14.984375 37.109375 14.984375 27.296875 
Q 14.984375 17.484375 19.15625 11.84375 
Q 23.34375 6.203125 30.609375 6.203125 
Q 37.796875 6.203125 41.984375 11.859375 
Q 46.1875 17.53125 46.1875 27.296875 
Q 46.1875 37.015625 41.984375 42.703125 
Q 37.796875 48.390625 30.609375 48.390625 
z
M 30.609375 56 
Q 42.328125 56 49.015625 48.375 
Q 55.71875 40.765625 55.71875 27.296875 
Q 55.71875 13.875 49.015625 6.21875 
Q 42.328125 -1.421875 30.609375 -1.421875 
Q 18.84375 -1.421875 12.171875 6.21875 
Q 5.515625 13.875 5.515625 27.296875 
Q 5.515625 40.765625 12.171875 48.375 
Q 18.84375 56 30.609375 56 
z
" id="DejaVuSans-6f"/>
       <path d="M 18.109375 8.203125 
L 18.109375 -20.796875 
L 9.078125 -20.796875 
L 9.078125 54.6875 
L 18.109375 54.6875 
L 18.109375 46.390625 
Q 20.953125 51.265625 25.265625 53.625 
Q 29.59375 56 35.59375 56 
Q 45.5625 56 51.78125 48.09375 
Q 58.015625 40.1875 58.015625 27.296875 
Q 58.015625 14.40625 51.78125 6.484375 
Q 45.5625 -1.421875 35.59375 -1.421875 
Q 29.59375 -1.421875 25.265625 0.953125 
Q 20.953125 3.328125 18.109375 8.203125 
z
M 48.6875 27.296875 
Q 48.6875 37.203125 44.609375 42.84375 
Q 40.53125 48.484375 33.40625 48.484375 
Q 26.265625 48.484375 22.1875 42.84375 
Q 18.109375 37.203125 18.109375 27.296875 
Q 18.109375 17.390625 22.1875 11.75 
Q 26.265625 6.109375 33.40625 6.109375 
Q 40.53125 6.109375 44.609375 11.75 
Q 48.6875 17.390625 48.6875 27.296875 
z
" id="DejaVuSans-70"/>
      </defs>
      <g transform="translate(105.624554 598.640625)rotate(-90)scale(0.1 -0.1)">
       <use xlink:href="#DejaVuSans-46"/>
       <use x="57.410156" xlink:href="#DejaVuSans-72"/>
       <use x="98.523438" xlink:href="#DejaVuSans-61"/>
       <use x="159.802734" xlink:href="#DejaVuSans-6d"/>
       <use x="257.214844" xlink:href="#DejaVuSans-69"/>
       <use x="284.998047" xlink:href="#DejaVuSans-6e"/>
       <use x="348.376953" xlink:href="#DejaVuSans-67"/>
       <use x="411.853516" xlink:href="#DejaVuSans-68"/>
       <use x="475.232422" xlink:href="#DejaVuSans-61"/>
       <use x="536.511719" xlink:href="#DejaVuSans-6d"/>
       <use x="633.923828" xlink:href="#DejaVuSans-20"/>
       <use x="665.710938" xlink:href="#DejaVuSans-2d"/>
       <use x="701.794922" xlink:href="#DejaVuSans-20"/>
       <use x="733.582031" xlink:href="#DejaVuSans-42"/>
       <use x="802.185547" xlink:href="#DejaVuSans-72"/>
       <use x="843.267578" xlink:href="#DejaVuSans-6f"/>
       <use x="904.449219" xlink:href="#DejaVuSans-70"/>
       <use x="967.925781" xlink:href="#DejaVuSans-68"/>
       <use x="1031.304688" xlink:href="#DejaVuSans-79"/>
      </g>
     </g>
    </g>
    <g id="xtick_3">
     <g id="line2d_3">
      <g>
       <use style="stroke:#000000;stroke-width:0.8;" x="151.091964" xlink:href="#mb733ff3225" y="482.59375"/>
      </g>
     </g>
     <g id="text_3">
      <!-- Framingham - Cameron Middle School -->
      <defs>
       <path d="M 64.40625 67.28125 
L 64.40625 56.890625 
Q 59.421875 61.53125 53.78125 63.8125 
Q 48.140625 66.109375 41.796875 66.109375 
Q 29.296875 66.109375 22.65625 58.46875 
Q 16.015625 50.828125 16.015625 36.375 
Q 16.015625 21.96875 22.65625 14.328125 
Q 29.296875 6.6875 41.796875 6.6875 
Q 48.140625 6.6875 53.78125 8.984375 
Q 59.421875 11.28125 64.40625 15.921875 
L 64.40625 5.609375 
Q 59.234375 2.09375 53.4375 0.328125 
Q 47.65625 -1.421875 41.21875 -1.421875 
Q 24.65625 -1.421875 15.125 8.703125 
Q 5.609375 18.84375 5.609375 36.375 
Q 5.609375 53.953125 15.125 64.078125 
Q 24.65625 74.21875 41.21875 74.21875 
Q 47.75 74.21875 53.53125 72.484375 
Q 59.328125 70.75 64.40625 67.28125 
z
" id="DejaVuSans-43"/>
       <path d="M 9.8125 72.90625 
L 24.515625 72.90625 
L 43.109375 23.296875 
L 61.8125 72.90625 
L 76.515625 72.90625 
L 76.515625 0 
L 66.890625 0 
L 66.890625 64.015625 
L 48.09375 14.015625 
L 38.1875 14.015625 
L 19.390625 64.015625 
L 19.390625 0 
L 9.8125 0 
z
" id="DejaVuSans-4d"/>
       <path d="M 45.40625 46.390625 
L 45.40625 75.984375 
L 54.390625 75.984375 
L 54.390625 0 
L 45.40625 0 
L 45.40625 8.203125 
Q 42.578125 3.328125 38.25 0.953125 
Q 33.9375 -1.421875 27.875 -1.421875 
Q 17.96875 -1.421875 11.734375 6.484375 
Q 5.515625 14.40625 5.515625 27.296875 
Q 5.515625 40.1875 11.734375 48.09375 
Q 17.96875 56 27.875 56 
Q 33.9375 56 38.25 53.625 
Q 42.578125 51.265625 45.40625 46.390625 
z
M 14.796875 27.296875 
Q 14.796875 17.390625 18.875 11.75 
Q 22.953125 6.109375 30.078125 6.109375 
Q 37.203125 6.109375 41.296875 11.75 
Q 45.40625 17.390625 45.40625 27.296875 
Q 45.40625 37.203125 41.296875 42.84375 
Q 37.203125 48.484375 30.078125 48.484375 
Q 22.953125 48.484375 18.875 42.84375 
Q 14.796875 37.203125 14.796875 27.296875 
z
" id="DejaVuSans-64"/>
       <path d="M 53.515625 70.515625 
L 53.515625 60.890625 
Q 47.90625 63.578125 42.921875 64.890625 
Q 37.9375 66.21875 33.296875 66.21875 
Q 25.25 66.21875 20.875 63.09375 
Q 16.5 59.96875 16.5 54.203125 
Q 16.5 49.359375 19.40625 46.890625 
Q 22.3125 44.4375 30.421875 42.921875 
L 36.375 41.703125 
Q 47.40625 39.59375 52.65625 34.296875 
Q 57.90625 29 57.90625 20.125 
Q 57.90625 9.515625 50.796875 4.046875 
Q 43.703125 -1.421875 29.984375 -1.421875 
Q 24.8125 -1.421875 18.96875 -0.25 
Q 13.140625 0.921875 6.890625 3.21875 
L 6.890625 13.375 
Q 12.890625 10.015625 18.65625 8.296875 
Q 24.421875 6.59375 29.984375 6.59375 
Q 38.421875 6.59375 43.015625 9.90625 
Q 47.609375 13.234375 47.609375 19.390625 
Q 47.609375 24.75 44.3125 27.78125 
Q 41.015625 30.8125 33.5 32.328125 
L 27.484375 33.5 
Q 16.453125 35.6875 11.515625 40.375 
Q 6.59375 45.0625 6.59375 53.421875 
Q 6.59375 63.09375 13.40625 68.65625 
Q 20.21875 74.21875 32.171875 74.21875 
Q 37.3125 74.21875 42.625 73.28125 
Q 47.953125 72.359375 53.515625 70.515625 
z
" id="DejaVuSans-53"/>
       <path d="M 48.78125 52.59375 
L 48.78125 44.1875 
Q 44.96875 46.296875 41.140625 47.34375 
Q 37.3125 48.390625 33.40625 48.390625 
Q 24.65625 48.390625 19.8125 42.84375 
Q 14.984375 37.3125 14.984375 27.296875 
Q 14.984375 17.28125 19.8125 11.734375 
Q 24.65625 6.203125 33.40625 6.203125 
Q 37.3125 6.203125 41.140625 7.25 
Q 44.96875 8.296875 48.78125 10.40625 
L 48.78125 2.09375 
Q 45.015625 0.34375 40.984375 -0.53125 
Q 36.96875 -1.421875 32.421875 -1.421875 
Q 20.0625 -1.421875 12.78125 6.34375 
Q 5.515625 14.109375 5.515625 27.296875 
Q 5.515625 40.671875 12.859375 48.328125 
Q 20.21875 56 33.015625 56 
Q 37.15625 56 41.109375 55.140625 
Q 45.0625 54.296875 48.78125 52.59375 
z
" id="DejaVuSans-63"/>
      </defs>
      <g transform="translate(153.851339 681.107813)rotate(-90)scale(0.1 -0.1)">
       <use xlink:href="#DejaVuSans-46"/>
       <use x="57.410156" xlink:href="#DejaVuSans-72"/>
       <use x="98.523438" xlink:href="#DejaVuSans-61"/>
       <use x="159.802734" xlink:href="#DejaVuSans-6d"/>
       <use x="257.214844" xlink:href="#DejaVuSans-69"/>
       <use x="284.998047" xlink:href="#DejaVuSans-6e"/>
       <use x="348.376953" xlink:href="#DejaVuSans-67"/>
       <use x="411.853516" xlink:href="#DejaVuSans-68"/>
       <use x="475.232422" xlink:href="#DejaVuSans-61"/>
       <use x="536.511719" xlink:href="#DejaVuSans-6d"/>
       <use x="633.923828" xlink:href="#DejaVuSans-20"/>
       <use x="665.710938" xlink:href="#DejaVuSans-2d"/>
       <use x="701.794922" xlink:href="#DejaVuSans-20"/>
       <use x="733.582031" xlink:href="#DejaVuSans-43"/>
       <use x="803.40625" xlink:href="#DejaVuSans-61"/>
       <use x="864.685547" xlink:href="#DejaVuSans-6d"/>
       <use x="962.097656" xlink:href="#DejaVuSans-65"/>
       <use x="1023.621094" xlink:href="#DejaVuSans-72"/>
       <use x="1064.703125" xlink:href="#DejaVuSans-6f"/>
       <use x="1125.884766" xlink:href="#DejaVuSans-6e"/>
       <use x="1189.263672" xlink:href="#DejaVuSans-20"/>
       <use x="1221.050781" xlink:href="#DejaVuSans-4d"/>
       <use x="1307.330078" xlink:href="#DejaVuSans-69"/>
       <use x="1335.113281" xlink:href="#DejaVuSans-64"/>
       <use x="1398.589844" xlink:href="#DejaVuSans-64"/>
       <use x="1462.066406" xlink:href="#DejaVuSans-6c"/>
       <use x="1489.849609" xlink:href="#DejaVuSans-65"/>
       <use x="1551.373047" xlink:href="#DejaVuSans-20"/>
       <use x="1583.160156" xlink:href="#DejaVuSans-53"/>
       <use x="1646.636719" xlink:href="#DejaVuSans-63"/>
       <use x="1701.617188" xlink:href="#DejaVuSans-68"/>
       <use x="1764.996094" xlink:href="#DejaVuSans-6f"/>
       <use x="1826.177734" xlink:href="#DejaVuSans-6f"/>
       <use x="1887.359375" xlink:href="#DejaVuSans-6c"/>
      </g>
     </g>
    </g>
    <g id="xtick_4">
     <g id="line2d_4">
      <g>
       <use style="stroke:#000000;stroke-width:0.8;" x="199.31875" xlink:href="#mb733ff3225" y="482.59375"/>
      </g>
     </g>
     <g id="text_4">
      <!-- Framingham - Charlotte A Dunning -->
      <defs>
       <path d="M 34.1875 63.1875 
L 20.796875 26.90625 
L 47.609375 26.90625 
z
M 28.609375 72.90625 
L 39.796875 72.90625 
L 67.578125 0 
L 57.328125 0 
L 50.6875 18.703125 
L 17.828125 18.703125 
L 11.1875 0 
L 0.78125 0 
z
" id="DejaVuSans-41"/>
       <path d="M 19.671875 64.796875 
L 19.671875 8.109375 
L 31.59375 8.109375 
Q 46.6875 8.109375 53.6875 14.9375 
Q 60.6875 21.78125 60.6875 36.53125 
Q 60.6875 51.171875 53.6875 57.984375 
Q 46.6875 64.796875 31.59375 64.796875 
z
M 9.8125 72.90625 
L 30.078125 72.90625 
Q 51.265625 72.90625 61.171875 64.09375 
Q 71.09375 55.28125 71.09375 36.53125 
Q 71.09375 17.671875 61.125 8.828125 
Q 51.171875 0 30.078125 0 
L 9.8125 0 
z
" id="DejaVuSans-44"/>
       <path d="M 8.5 21.578125 
L 8.5 54.6875 
L 17.484375 54.6875 
L 17.484375 21.921875 
Q 17.484375 14.15625 20.5 10.265625 
Q 23.53125 6.390625 29.59375 6.390625 
Q 36.859375 6.390625 41.078125 11.03125 
Q 45.3125 15.671875 45.3125 23.6875 
L 45.3125 54.6875 
L 54.296875 54.6875 
L 54.296875 0 
L 45.3125 0 
L 45.3125 8.40625 
Q 42.046875 3.421875 37.71875 1 
Q 33.40625 -1.421875 27.6875 -1.421875 
Q 18.265625 -1.421875 13.375 4.4375 
Q 8.5 10.296875 8.5 21.578125 
z
M 31.109375 56 
z
" id="DejaVuSans-75"/>
      </defs>
      <g transform="translate(202.078125 664.771875)rotate(-90)scale(0.1 -0.1)">
       <use xlink:href="#DejaVuSans-46"/>
       <use x="57.410156" xlink:href="#DejaVuSans-72"/>
       <use x="98.523438" xlink:href="#DejaVuSans-61"/>
       <use x="159.802734" xlink:href="#DejaVuSans-6d"/>
       <use x="257.214844" xlink:href="#DejaVuSans-69"/>
       <use x="284.998047" xlink:href="#DejaVuSans-6e"/>
       <use x="348.376953" xlink:href="#DejaVuSans-67"/>
       <use x="411.853516" xlink:href="#DejaVuSans-68"/>
       <use x="475.232422" xlink:href="#DejaVuSans-61"/>
       <use x="536.511719" xlink:href="#DejaVuSans-6d"/>
       <use x="633.923828" xlink:href="#DejaVuSans-20"/>
       <use x="665.710938" xlink:href="#DejaVuSans-2d"/>
       <use x="701.794922" xlink:href="#DejaVuSans-20"/>
       <use x="733.582031" xlink:href="#DejaVuSans-43"/>
       <use x="803.40625" xlink:href="#DejaVuSans-68"/>
       <use x="866.785156" xlink:href="#DejaVuSans-61"/>
       <use x="928.064453" xlink:href="#DejaVuSans-72"/>
       <use x="969.177734" xlink:href="#DejaVuSans-6c"/>
       <use x="996.960938" xlink:href="#DejaVuSans-6f"/>
       <use x="1058.142578" xlink:href="#DejaVuSans-74"/>
       <use x="1097.351562" xlink:href="#DejaVuSans-74"/>
       <use x="1136.560547" xlink:href="#DejaVuSans-65"/>
       <use x="1198.083984" xlink:href="#DejaVuSans-20"/>
       <use x="1229.871094" xlink:href="#DejaVuSans-41"/>
       <use x="1298.279297" xlink:href="#DejaVuSans-20"/>
       <use x="1330.066406" xlink:href="#DejaVuSans-44"/>
       <use x="1407.068359" xlink:href="#DejaVuSans-75"/>
       <use x="1470.447266" xlink:href="#DejaVuSans-6e"/>
       <use x="1533.826172" xlink:href="#DejaVuSans-6e"/>
       <use x="1597.205078" xlink:href="#DejaVuSans-69"/>
       <use x="1624.988281" xlink:href="#DejaVuSans-6e"/>
       <use x="1688.367188" xlink:href="#DejaVuSans-67"/>
      </g>
     </g>
    </g>
    <g id="xtick_5">
     <g id="line2d_5">
      <g>
       <use style="stroke:#000000;stroke-width:0.8;" x="247.545536" xlink:href="#mb733ff3225" y="482.59375"/>
      </g>
     </g>
     <g id="text_5">
      <!-- Framingham - Framingham High School -->
      <defs>
       <path d="M 9.8125 72.90625 
L 19.671875 72.90625 
L 19.671875 43.015625 
L 55.515625 43.015625 
L 55.515625 72.90625 
L 65.375 72.90625 
L 65.375 0 
L 55.515625 0 
L 55.515625 34.71875 
L 19.671875 34.71875 
L 19.671875 0 
L 9.8125 0 
z
" id="DejaVuSans-48"/>
      </defs>
      <g transform="translate(250.304911 688.879688)rotate(-90)scale(0.1 -0.1)">
       <use xlink:href="#DejaVuSans-46"/>
       <use x="57.410156" xlink:href="#DejaVuSans-72"/>
       <use x="98.523438" xlink:href="#DejaVuSans-61"/>
       <use x="159.802734" xlink:href="#DejaVuSans-6d"/>
       <use x="257.214844" xlink:href="#DejaVuSans-69"/>
       <use x="284.998047" xlink:href="#DejaVuSans-6e"/>
       <use x="348.376953" xlink:href="#DejaVuSans-67"/>
       <use x="411.853516" xlink:href="#DejaVuSans-68"/>
       <use x="475.232422" xlink:href="#DejaVuSans-61"/>
       <use x="536.511719" xlink:href="#DejaVuSans-6d"/>
       <use x="633.923828" xlink:href="#DejaVuSans-20"/>
       <use x="665.710938" xlink:href="#DejaVuSans-2d"/>
       <use x="701.794922" xlink:href="#DejaVuSans-20"/>
       <use x="733.582031" xlink:href="#DejaVuSans-46"/>
       <use x="790.992188" xlink:href="#DejaVuSans-72"/>
       <use x="832.105469" xlink:href="#DejaVuSans-61"/>
       <use x="893.384766" xlink:href="#DejaVuSans-6d"/>
       <use x="990.796875" xlink:href="#DejaVuSans-69"/>
       <use x="1018.580078" xlink:href="#DejaVuSans-6e"/>
       <use x="1081.958984" xlink:href="#DejaVuSans-67"/>
       <use x="1145.435547" xlink:href="#DejaVuSans-68"/>
       <use x="1208.814453" xlink:href="#DejaVuSans-61"/>
       <use x="1270.09375" xlink:href="#DejaVuSans-6d"/>
       <use x="1367.505859" xlink:href="#DejaVuSans-20"/>
       <use x="1399.292969" xlink:href="#DejaVuSans-48"/>
       <use x="1474.488281" xlink:href="#DejaVuSans-69"/>
       <use x="1502.271484" xlink:href="#DejaVuSans-67"/>
       <use x="1565.748047" xlink:href="#DejaVuSans-68"/>
       <use x="1629.126953" xlink:href="#DejaVuSans-20"/>
       <use x="1660.914062" xlink:href="#DejaVuSans-53"/>
       <use x="1724.390625" xlink:href="#DejaVuSans-63"/>
       <use x="1779.371094" xlink:href="#DejaVuSans-68"/>
       <use x="1842.75" xlink:href="#DejaVuSans-6f"/>
       <use x="1903.931641" xlink:href="#DejaVuSans-6f"/>
       <use x="1965.113281" xlink:href="#DejaVuSans-6c"/>
      </g>
     </g>
    </g>
    <g id="xtick_6">
     <g id="line2d_6">
      <g>
       <use style="stroke:#000000;stroke-width:0.8;" x="295.772321" xlink:href="#mb733ff3225" y="482.59375"/>
      </g>
     </g>
     <g id="text_6">
      <!-- Framingham - Fuller Middle -->
      <g transform="translate(298.531696 627.0625)rotate(-90)scale(0.1 -0.1)">
       <use xlink:href="#DejaVuSans-46"/>
       <use x="57.410156" xlink:href="#DejaVuSans-72"/>
       <use x="98.523438" xlink:href="#DejaVuSans-61"/>
       <use x="159.802734" xlink:href="#DejaVuSans-6d"/>
       <use x="257.214844" xlink:href="#DejaVuSans-69"/>
       <use x="284.998047" xlink:href="#DejaVuSans-6e"/>
       <use x="348.376953" xlink:href="#DejaVuSans-67"/>
       <use x="411.853516" xlink:href="#DejaVuSans-68"/>
       <use x="475.232422" xlink:href="#DejaVuSans-61"/>
       <use x="536.511719" xlink:href="#DejaVuSans-6d"/>
       <use x="633.923828" xlink:href="#DejaVuSans-20"/>
       <use x="665.710938" xlink:href="#DejaVuSans-2d"/>
       <use x="701.794922" xlink:href="#DejaVuSans-20"/>
       <use x="733.582031" xlink:href="#DejaVuSans-46"/>
       <use x="791.023438" xlink:href="#DejaVuSans-75"/>
       <use x="854.402344" xlink:href="#DejaVuSans-6c"/>
       <use x="882.185547" xlink:href="#DejaVuSans-6c"/>
       <use x="909.96875" xlink:href="#DejaVuSans-65"/>
       <use x="971.492188" xlink:href="#DejaVuSans-72"/>
       <use x="1012.605469" xlink:href="#DejaVuSans-20"/>
       <use x="1044.392578" xlink:href="#DejaVuSans-4d"/>
       <use x="1130.671875" xlink:href="#DejaVuSans-69"/>
       <use x="1158.455078" xlink:href="#DejaVuSans-64"/>
       <use x="1221.931641" xlink:href="#DejaVuSans-64"/>
       <use x="1285.408203" xlink:href="#DejaVuSans-6c"/>
       <use x="1313.191406" xlink:href="#DejaVuSans-65"/>
      </g>
     </g>
    </g>
    <g id="xtick_7">
     <g id="line2d_7">
      <g>
       <use style="stroke:#000000;stroke-width:0.8;" x="343.999107" xlink:href="#mb733ff3225" y="482.59375"/>
      </g>
     </g>
     <g id="text_7">
      <!-- Framingham - Hemenway -->
      <defs>
       <path d="M 4.203125 54.6875 
L 13.1875 54.6875 
L 24.421875 12.015625 
L 35.59375 54.6875 
L 46.1875 54.6875 
L 57.421875 12.015625 
L 68.609375 54.6875 
L 77.59375 54.6875 
L 63.28125 0 
L 52.6875 0 
L 40.921875 44.828125 
L 29.109375 0 
L 18.5 0 
z
" id="DejaVuSans-77"/>
      </defs>
      <g transform="translate(346.758482 619.078125)rotate(-90)scale(0.1 -0.1)">
       <use xlink:href="#DejaVuSans-46"/>
       <use x="57.410156" xlink:href="#DejaVuSans-72"/>
       <use x="98.523438" xlink:href="#DejaVuSans-61"/>
       <use x="159.802734" xlink:href="#DejaVuSans-6d"/>
       <use x="257.214844" xlink:href="#DejaVuSans-69"/>
       <use x="284.998047" xlink:href="#DejaVuSans-6e"/>
       <use x="348.376953" xlink:href="#DejaVuSans-67"/>
       <use x="411.853516" xlink:href="#DejaVuSans-68"/>
       <use x="475.232422" xlink:href="#DejaVuSans-61"/>
       <use x="536.511719" xlink:href="#DejaVuSans-6d"/>
       <use x="633.923828" xlink:href="#DejaVuSans-20"/>
       <use x="665.710938" xlink:href="#DejaVuSans-2d"/>
       <use x="701.794922" xlink:href="#DejaVuSans-20"/>
       <use x="733.582031" xlink:href="#DejaVuSans-48"/>
       <use x="808.777344" xlink:href="#DejaVuSans-65"/>
       <use x="870.300781" xlink:href="#DejaVuSans-6d"/>
       <use x="967.712891" xlink:href="#DejaVuSans-65"/>
       <use x="1029.236328" xlink:href="#DejaVuSans-6e"/>
       <use x="1092.615234" xlink:href="#DejaVuSans-77"/>
       <use x="1174.402344" xlink:href="#DejaVuSans-61"/>
       <use x="1235.681641" xlink:href="#DejaVuSans-79"/>
      </g>
     </g>
    </g>
    <g id="xtick_8">
     <g id="line2d_8">
      <g>
       <use style="stroke:#000000;stroke-width:0.8;" x="392.225893" xlink:href="#mb733ff3225" y="482.59375"/>
      </g>
     </g>
     <g id="text_8">
      <!-- Framingham - Juniper Hill School -->
      <defs>
       <path d="M 9.8125 72.90625 
L 19.671875 72.90625 
L 19.671875 5.078125 
Q 19.671875 -8.109375 14.671875 -14.0625 
Q 9.671875 -20.015625 -1.421875 -20.015625 
L -5.171875 -20.015625 
L -5.171875 -11.71875 
L -2.09375 -11.71875 
Q 4.4375 -11.71875 7.125 -8.046875 
Q 9.8125 -4.390625 9.8125 5.078125 
z
" id="DejaVuSans-4a"/>
      </defs>
      <g transform="translate(394.985268 653.375)rotate(-90)scale(0.1 -0.1)">
       <use xlink:href="#DejaVuSans-46"/>
       <use x="57.410156" xlink:href="#DejaVuSans-72"/>
       <use x="98.523438" xlink:href="#DejaVuSans-61"/>
       <use x="159.802734" xlink:href="#DejaVuSans-6d"/>
       <use x="257.214844" xlink:href="#DejaVuSans-69"/>
       <use x="284.998047" xlink:href="#DejaVuSans-6e"/>
       <use x="348.376953" xlink:href="#DejaVuSans-67"/>
       <use x="411.853516" xlink:href="#DejaVuSans-68"/>
       <use x="475.232422" xlink:href="#DejaVuSans-61"/>
       <use x="536.511719" xlink:href="#DejaVuSans-6d"/>
       <use x="633.923828" xlink:href="#DejaVuSans-20"/>
       <use x="665.710938" xlink:href="#DejaVuSans-2d"/>
       <use x="701.794922" xlink:href="#DejaVuSans-20"/>
       <use x="733.582031" xlink:href="#DejaVuSans-4a"/>
       <use x="763.074219" xlink:href="#DejaVuSans-75"/>
       <use x="826.453125" xlink:href="#DejaVuSans-6e"/>
       <use x="889.832031" xlink:href="#DejaVuSans-69"/>
       <use x="917.615234" xlink:href="#DejaVuSans-70"/>
       <use x="981.091797" xlink:href="#DejaVuSans-65"/>
       <use x="1042.615234" xlink:href="#DejaVuSans-72"/>
       <use x="1083.728516" xlink:href="#DejaVuSans-20"/>
       <use x="1115.515625" xlink:href="#DejaVuSans-48"/>
       <use x="1190.710938" xlink:href="#DejaVuSans-69"/>
       <use x="1218.494141" xlink:href="#DejaVuSans-6c"/>
       <use x="1246.277344" xlink:href="#DejaVuSans-6c"/>
       <use x="1274.060547" xlink:href="#DejaVuSans-20"/>
       <use x="1305.847656" xlink:href="#DejaVuSans-53"/>
       <use x="1369.324219" xlink:href="#DejaVuSans-63"/>
       <use x="1424.304688" xlink:href="#DejaVuSans-68"/>
       <use x="1487.683594" xlink:href="#DejaVuSans-6f"/>
       <use x="1548.865234" xlink:href="#DejaVuSans-6f"/>
       <use x="1610.046875" xlink:href="#DejaVuSans-6c"/>
      </g>
     </g>
    </g>
    <g id="xtick_9">
     <g id="line2d_9">
      <g>
       <use style="stroke:#000000;stroke-width:0.8;" x="440.452679" xlink:href="#mb733ff3225" y="482.59375"/>
      </g>
     </g>
     <g id="text_9">
      <!-- Framingham - King Elementary School -->
      <defs>
       <path d="M 9.8125 72.90625 
L 19.671875 72.90625 
L 19.671875 42.09375 
L 52.390625 72.90625 
L 65.09375 72.90625 
L 28.90625 38.921875 
L 67.671875 0 
L 54.6875 0 
L 19.671875 35.109375 
L 19.671875 0 
L 9.8125 0 
z
" id="DejaVuSans-4b"/>
      </defs>
      <g transform="translate(443.212054 682.085938)rotate(-90)scale(0.1 -0.1)">
       <use xlink:href="#DejaVuSans-46"/>
       <use x="57.410156" xlink:href="#DejaVuSans-72"/>
       <use x="98.523438" xlink:href="#DejaVuSans-61"/>
       <use x="159.802734" xlink:href="#DejaVuSans-6d"/>
       <use x="257.214844" xlink:href="#DejaVuSans-69"/>
       <use x="284.998047" xlink:href="#DejaVuSans-6e"/>
       <use x="348.376953" xlink:href="#DejaVuSans-67"/>
       <use x="411.853516" xlink:href="#DejaVuSans-68"/>
       <use x="475.232422" xlink:href="#DejaVuSans-61"/>
       <use x="536.511719" xlink:href="#DejaVuSans-6d"/>
       <use x="633.923828" xlink:href="#DejaVuSans-20"/>
       <use x="665.710938" xlink:href="#DejaVuSans-2d"/>
       <use x="701.794922" xlink:href="#DejaVuSans-20"/>
       <use x="733.582031" xlink:href="#DejaVuSans-4b"/>
       <use x="799.158203" xlink:href="#DejaVuSans-69"/>
       <use x="826.941406" xlink:href="#DejaVuSans-6e"/>
       <use x="890.320312" xlink:href="#DejaVuSans-67"/>
       <use x="953.796875" xlink:href="#DejaVuSans-20"/>
       <use x="985.583984" xlink:href="#DejaVuSans-45"/>
       <use x="1048.767578" xlink:href="#DejaVuSans-6c"/>
       <use x="1076.550781" xlink:href="#DejaVuSans-65"/>
       <use x="1138.074219" xlink:href="#DejaVuSans-6d"/>
       <use x="1235.486328" xlink:href="#DejaVuSans-65"/>
       <use x="1297.009766" xlink:href="#DejaVuSans-6e"/>
       <use x="1360.388672" xlink:href="#DejaVuSans-74"/>
       <use x="1399.597656" xlink:href="#DejaVuSans-61"/>
       <use x="1460.876953" xlink:href="#DejaVuSans-72"/>
       <use x="1501.990234" xlink:href="#DejaVuSans-79"/>
       <use x="1561.169922" xlink:href="#DejaVuSans-20"/>
       <use x="1592.957031" xlink:href="#DejaVuSans-53"/>
       <use x="1656.433594" xlink:href="#DejaVuSans-63"/>
       <use x="1711.414062" xlink:href="#DejaVuSans-68"/>
       <use x="1774.792969" xlink:href="#DejaVuSans-6f"/>
       <use x="1835.974609" xlink:href="#DejaVuSans-6f"/>
       <use x="1897.15625" xlink:href="#DejaVuSans-6c"/>
      </g>
     </g>
    </g>
    <g id="xtick_10">
     <g id="line2d_10">
      <g>
       <use style="stroke:#000000;stroke-width:0.8;" x="488.679464" xlink:href="#mb733ff3225" y="482.59375"/>
      </g>
     </g>
     <g id="text_10">
      <!-- Framingham - Mary E Stapleton Elementary -->
      <g transform="translate(491.438839 709.2)rotate(-90)scale(0.1 -0.1)">
       <use xlink:href="#DejaVuSans-46"/>
       <use x="57.410156" xlink:href="#DejaVuSans-72"/>
       <use x="98.523438" xlink:href="#DejaVuSans-61"/>
       <use x="159.802734" xlink:href="#DejaVuSans-6d"/>
       <use x="257.214844" xlink:href="#DejaVuSans-69"/>
       <use x="284.998047" xlink:href="#DejaVuSans-6e"/>
       <use x="348.376953" xlink:href="#DejaVuSans-67"/>
       <use x="411.853516" xlink:href="#DejaVuSans-68"/>
       <use x="475.232422" xlink:href="#DejaVuSans-61"/>
       <use x="536.511719" xlink:href="#DejaVuSans-6d"/>
       <use x="633.923828" xlink:href="#DejaVuSans-20"/>
       <use x="665.710938" xlink:href="#DejaVuSans-2d"/>
       <use x="701.794922" xlink:href="#DejaVuSans-20"/>
       <use x="733.582031" xlink:href="#DejaVuSans-4d"/>
       <use x="819.861328" xlink:href="#DejaVuSans-61"/>
       <use x="881.140625" xlink:href="#DejaVuSans-72"/>
       <use x="922.253906" xlink:href="#DejaVuSans-79"/>
       <use x="981.433594" xlink:href="#DejaVuSans-20"/>
       <use x="1013.220703" xlink:href="#DejaVuSans-45"/>
       <use x="1076.404297" xlink:href="#DejaVuSans-20"/>
       <use x="1108.191406" xlink:href="#DejaVuSans-53"/>
       <use x="1171.667969" xlink:href="#DejaVuSans-74"/>
       <use x="1210.876953" xlink:href="#DejaVuSans-61"/>
       <use x="1272.15625" xlink:href="#DejaVuSans-70"/>
       <use x="1335.632812" xlink:href="#DejaVuSans-6c"/>
       <use x="1363.416016" xlink:href="#DejaVuSans-65"/>
       <use x="1424.939453" xlink:href="#DejaVuSans-74"/>
       <use x="1464.148438" xlink:href="#DejaVuSans-6f"/>
       <use x="1525.330078" xlink:href="#DejaVuSans-6e"/>
       <use x="1588.708984" xlink:href="#DejaVuSans-20"/>
       <use x="1620.496094" xlink:href="#DejaVuSans-45"/>
       <use x="1683.679688" xlink:href="#DejaVuSans-6c"/>
       <use x="1711.462891" xlink:href="#DejaVuSans-65"/>
       <use x="1772.986328" xlink:href="#DejaVuSans-6d"/>
       <use x="1870.398438" xlink:href="#DejaVuSans-65"/>
       <use x="1931.921875" xlink:href="#DejaVuSans-6e"/>
       <use x="1995.300781" xlink:href="#DejaVuSans-74"/>
       <use x="2034.509766" xlink:href="#DejaVuSans-61"/>
       <use x="2095.789062" xlink:href="#DejaVuSans-72"/>
       <use x="2136.902344" xlink:href="#DejaVuSans-79"/>
      </g>
     </g>
    </g>
    <g id="xtick_11">
     <g id="line2d_11">
      <g>
       <use style="stroke:#000000;stroke-width:0.8;" x="536.90625" xlink:href="#mb733ff3225" y="482.59375"/>
      </g>
     </g>
     <g id="text_11">
      <!-- Framingham - Miriam F McCarthy School -->
      <g transform="translate(539.665625 693.123438)rotate(-90)scale(0.1 -0.1)">
       <use xlink:href="#DejaVuSans-46"/>
       <use x="57.410156" xlink:href="#DejaVuSans-72"/>
       <use x="98.523438" xlink:href="#DejaVuSans-61"/>
       <use x="159.802734" xlink:href="#DejaVuSans-6d"/>
       <use x="257.214844" xlink:href="#DejaVuSans-69"/>
       <use x="284.998047" xlink:href="#DejaVuSans-6e"/>
       <use x="348.376953" xlink:href="#DejaVuSans-67"/>
       <use x="411.853516" xlink:href="#DejaVuSans-68"/>
       <use x="475.232422" xlink:href="#DejaVuSans-61"/>
       <use x="536.511719" xlink:href="#DejaVuSans-6d"/>
       <use x="633.923828" xlink:href="#DejaVuSans-20"/>
       <use x="665.710938" xlink:href="#DejaVuSans-2d"/>
       <use x="701.794922" xlink:href="#DejaVuSans-20"/>
       <use x="733.582031" xlink:href="#DejaVuSans-4d"/>
       <use x="819.861328" xlink:href="#DejaVuSans-69"/>
       <use x="847.644531" xlink:href="#DejaVuSans-72"/>
       <use x="888.757812" xlink:href="#DejaVuSans-69"/>
       <use x="916.541016" xlink:href="#DejaVuSans-61"/>
       <use x="977.820312" xlink:href="#DejaVuSans-6d"/>
       <use x="1075.232422" xlink:href="#DejaVuSans-20"/>
       <use x="1107.019531" xlink:href="#DejaVuSans-46"/>
       <use x="1164.539062" xlink:href="#DejaVuSans-20"/>
       <use x="1196.326172" xlink:href="#DejaVuSans-4d"/>
       <use x="1282.605469" xlink:href="#DejaVuSans-63"/>
       <use x="1337.585938" xlink:href="#DejaVuSans-43"/>
       <use x="1407.410156" xlink:href="#DejaVuSans-61"/>
       <use x="1468.689453" xlink:href="#DejaVuSans-72"/>
       <use x="1509.802734" xlink:href="#DejaVuSans-74"/>
       <use x="1549.011719" xlink:href="#DejaVuSans-68"/>
       <use x="1612.390625" xlink:href="#DejaVuSans-79"/>
       <use x="1671.570312" xlink:href="#DejaVuSans-20"/>
       <use x="1703.357422" xlink:href="#DejaVuSans-53"/>
       <use x="1766.833984" xlink:href="#DejaVuSans-63"/>
       <use x="1821.814453" xlink:href="#DejaVuSans-68"/>
       <use x="1885.193359" xlink:href="#DejaVuSans-6f"/>
       <use x="1946.375" xlink:href="#DejaVuSans-6f"/>
       <use x="2007.556641" xlink:href="#DejaVuSans-6c"/>
      </g>
     </g>
    </g>
    <g id="xtick_12">
     <g id="line2d_12">
      <g>
       <use style="stroke:#000000;stroke-width:0.8;" x="585.133036" xlink:href="#mb733ff3225" y="482.59375"/>
      </g>
     </g>
     <g id="text_12">
      <!-- Framingham - Potter Road -->
      <defs>
       <path d="M 19.671875 64.796875 
L 19.671875 37.40625 
L 32.078125 37.40625 
Q 38.96875 37.40625 42.71875 40.96875 
Q 46.484375 44.53125 46.484375 51.125 
Q 46.484375 57.671875 42.71875 61.234375 
Q 38.96875 64.796875 32.078125 64.796875 
z
M 9.8125 72.90625 
L 32.078125 72.90625 
Q 44.34375 72.90625 50.609375 67.359375 
Q 56.890625 61.8125 56.890625 51.125 
Q 56.890625 40.328125 50.609375 34.8125 
Q 44.34375 29.296875 32.078125 29.296875 
L 19.671875 29.296875 
L 19.671875 0 
L 9.8125 0 
z
" id="DejaVuSans-50"/>
       <path d="M 44.390625 34.1875 
Q 47.5625 33.109375 50.5625 29.59375 
Q 53.5625 26.078125 56.59375 19.921875 
L 66.609375 0 
L 56 0 
L 46.6875 18.703125 
Q 43.0625 26.03125 39.671875 28.421875 
Q 36.28125 30.8125 30.421875 30.8125 
L 19.671875 30.8125 
L 19.671875 0 
L 9.8125 0 
L 9.8125 72.90625 
L 32.078125 72.90625 
Q 44.578125 72.90625 50.734375 67.671875 
Q 56.890625 62.453125 56.890625 51.90625 
Q 56.890625 45.015625 53.6875 40.46875 
Q 50.484375 35.9375 44.390625 34.1875 
z
M 19.671875 64.796875 
L 19.671875 38.921875 
L 32.078125 38.921875 
Q 39.203125 38.921875 42.84375 42.21875 
Q 46.484375 45.515625 46.484375 51.90625 
Q 46.484375 58.296875 42.84375 61.546875 
Q 39.203125 64.796875 32.078125 64.796875 
z
" id="DejaVuSans-52"/>
      </defs>
      <g transform="translate(587.892411 621.9125)rotate(-90)scale(0.1 -0.1)">
       <use xlink:href="#DejaVuSans-46"/>
       <use x="57.410156" xlink:href="#DejaVuSans-72"/>
       <use x="98.523438" xlink:href="#DejaVuSans-61"/>
       <use x="159.802734" xlink:href="#DejaVuSans-6d"/>
       <use x="257.214844" xlink:href="#DejaVuSans-69"/>
       <use x="284.998047" xlink:href="#DejaVuSans-6e"/>
       <use x="348.376953" xlink:href="#DejaVuSans-67"/>
       <use x="411.853516" xlink:href="#DejaVuSans-68"/>
       <use x="475.232422" xlink:href="#DejaVuSans-61"/>
       <use x="536.511719" xlink:href="#DejaVuSans-6d"/>
       <use x="633.923828" xlink:href="#DejaVuSans-20"/>
       <use x="665.710938" xlink:href="#DejaVuSans-2d"/>
       <use x="701.794922" xlink:href="#DejaVuSans-20"/>
       <use x="733.582031" xlink:href="#DejaVuSans-50"/>
       <use x="793.837891" xlink:href="#DejaVuSans-6f"/>
       <use x="855.019531" xlink:href="#DejaVuSans-74"/>
       <use x="894.228516" xlink:href="#DejaVuSans-74"/>
       <use x="933.4375" xlink:href="#DejaVuSans-65"/>
       <use x="994.960938" xlink:href="#DejaVuSans-72"/>
       <use x="1036.074219" xlink:href="#DejaVuSans-20"/>
       <use x="1067.861328" xlink:href="#DejaVuSans-52"/>
       <use x="1137.28125" xlink:href="#DejaVuSans-6f"/>
       <use x="1198.462891" xlink:href="#DejaVuSans-61"/>
       <use x="1259.742188" xlink:href="#DejaVuSans-64"/>
      </g>
     </g>
    </g>
    <g id="xtick_13">
     <g id="line2d_13">
      <g>
       <use style="stroke:#000000;stroke-width:0.8;" x="633.359821" xlink:href="#mb733ff3225" y="482.59375"/>
      </g>
     </g>
     <g id="text_13">
      <!-- Framingham - Walsh Middle -->
      <defs>
       <path d="M 3.328125 72.90625 
L 13.28125 72.90625 
L 28.609375 11.28125 
L 43.890625 72.90625 
L 54.984375 72.90625 
L 70.3125 11.28125 
L 85.59375 72.90625 
L 95.609375 72.90625 
L 77.296875 0 
L 64.890625 0 
L 49.515625 63.28125 
L 33.984375 0 
L 21.578125 0 
z
" id="DejaVuSans-57"/>
       <path d="M 44.28125 53.078125 
L 44.28125 44.578125 
Q 40.484375 46.53125 36.375 47.5 
Q 32.28125 48.484375 27.875 48.484375 
Q 21.1875 48.484375 17.84375 46.4375 
Q 14.5 44.390625 14.5 40.28125 
Q 14.5 37.15625 16.890625 35.375 
Q 19.28125 33.59375 26.515625 31.984375 
L 29.59375 31.296875 
Q 39.15625 29.25 43.1875 25.515625 
Q 47.21875 21.78125 47.21875 15.09375 
Q 47.21875 7.46875 41.1875 3.015625 
Q 35.15625 -1.421875 24.609375 -1.421875 
Q 20.21875 -1.421875 15.453125 -0.5625 
Q 10.6875 0.296875 5.421875 2 
L 5.421875 11.28125 
Q 10.40625 8.6875 15.234375 7.390625 
Q 20.0625 6.109375 24.8125 6.109375 
Q 31.15625 6.109375 34.5625 8.28125 
Q 37.984375 10.453125 37.984375 14.40625 
Q 37.984375 18.0625 35.515625 20.015625 
Q 33.0625 21.96875 24.703125 23.78125 
L 21.578125 24.515625 
Q 13.234375 26.265625 9.515625 29.90625 
Q 5.8125 33.546875 5.8125 39.890625 
Q 5.8125 47.609375 11.28125 51.796875 
Q 16.75 56 26.8125 56 
Q 31.78125 56 36.171875 55.265625 
Q 40.578125 54.546875 44.28125 53.078125 
z
" id="DejaVuSans-73"/>
      </defs>
      <g transform="translate(636.119196 629.492188)rotate(-90)scale(0.1 -0.1)">
       <use xlink:href="#DejaVuSans-46"/>
       <use x="57.410156" xlink:href="#DejaVuSans-72"/>
       <use x="98.523438" xlink:href="#DejaVuSans-61"/>
       <use x="159.802734" xlink:href="#DejaVuSans-6d"/>
       <use x="257.214844" xlink:href="#DejaVuSans-69"/>
       <use x="284.998047" xlink:href="#DejaVuSans-6e"/>
       <use x="348.376953" xlink:href="#DejaVuSans-67"/>
       <use x="411.853516" xlink:href="#DejaVuSans-68"/>
       <use x="475.232422" xlink:href="#DejaVuSans-61"/>
       <use x="536.511719" xlink:href="#DejaVuSans-6d"/>
       <use x="633.923828" xlink:href="#DejaVuSans-20"/>
       <use x="665.710938" xlink:href="#DejaVuSans-2d"/>
       <use x="701.794922" xlink:href="#DejaVuSans-20"/>
       <use x="733.582031" xlink:href="#DejaVuSans-57"/>
       <use x="832.365234" xlink:href="#DejaVuSans-61"/>
       <use x="893.644531" xlink:href="#DejaVuSans-6c"/>
       <use x="921.427734" xlink:href="#DejaVuSans-73"/>
       <use x="973.527344" xlink:href="#DejaVuSans-68"/>
       <use x="1036.90625" xlink:href="#DejaVuSans-20"/>
       <use x="1068.693359" xlink:href="#DejaVuSans-4d"/>
       <use x="1154.972656" xlink:href="#DejaVuSans-69"/>
       <use x="1182.755859" xlink:href="#DejaVuSans-64"/>
       <use x="1246.232422" xlink:href="#DejaVuSans-64"/>
       <use x="1309.708984" xlink:href="#DejaVuSans-6c"/>
       <use x="1337.492188" xlink:href="#DejaVuSans-65"/>
      </g>
     </g>
    </g>
    <g id="xtick_14">
     <g id="line2d_14">
      <g>
       <use style="stroke:#000000;stroke-width:0.8;" x="681.586607" xlink:href="#mb733ff3225" y="482.59375"/>
      </g>
     </g>
     <g id="text_14">
      <!-- Framingham - Woodrow Wilson -->
      <g transform="translate(684.345982 646.103125)rotate(-90)scale(0.1 -0.1)">
       <use xlink:href="#DejaVuSans-46"/>
       <use x="57.410156" xlink:href="#DejaVuSans-72"/>
       <use x="98.523438" xlink:href="#DejaVuSans-61"/>
       <use x="159.802734" xlink:href="#DejaVuSans-6d"/>
       <use x="257.214844" xlink:href="#DejaVuSans-69"/>
       <use x="284.998047" xlink:href="#DejaVuSans-6e"/>
       <use x="348.376953" xlink:href="#DejaVuSans-67"/>
       <use x="411.853516" xlink:href="#DejaVuSans-68"/>
       <use x="475.232422" xlink:href="#DejaVuSans-61"/>
       <use x="536.511719" xlink:href="#DejaVuSans-6d"/>
       <use x="633.923828" xlink:href="#DejaVuSans-20"/>
       <use x="665.710938" xlink:href="#DejaVuSans-2d"/>
       <use x="701.794922" xlink:href="#DejaVuSans-20"/>
       <use x="733.582031" xlink:href="#DejaVuSans-57"/>
       <use x="832.380859" xlink:href="#DejaVuSans-6f"/>
       <use x="893.5625" xlink:href="#DejaVuSans-6f"/>
       <use x="954.744141" xlink:href="#DejaVuSans-64"/>
       <use x="1018.220703" xlink:href="#DejaVuSans-72"/>
       <use x="1059.302734" xlink:href="#DejaVuSans-6f"/>
       <use x="1120.484375" xlink:href="#DejaVuSans-77"/>
       <use x="1202.271484" xlink:href="#DejaVuSans-20"/>
       <use x="1234.058594" xlink:href="#DejaVuSans-57"/>
       <use x="1332.904297" xlink:href="#DejaVuSans-69"/>
       <use x="1360.6875" xlink:href="#DejaVuSans-6c"/>
       <use x="1388.470703" xlink:href="#DejaVuSans-73"/>
       <use x="1440.570312" xlink:href="#DejaVuSans-6f"/>
       <use x="1501.751953" xlink:href="#DejaVuSans-6e"/>
      </g>
     </g>
    </g>
   </g>
   <g id="matplotlib.axis_2">
    <g id="ytick_1">
     <g id="line2d_15">
      <defs>
       <path d="M 0 0 
L -3.5 0 
" id="m40b08f66f8" style="stroke:#000000;stroke-width:0.8;"/>
      </defs>
      <g>
       <use style="stroke:#000000;stroke-width:0.8;" x="30.525" xlink:href="#m40b08f66f8" y="482.59375"/>
      </g>
     </g>
     <g id="text_15">
      <!-- 0 -->
      <defs>
       <path d="M 31.78125 66.40625 
Q 24.171875 66.40625 20.328125 58.90625 
Q 16.5 51.421875 16.5 36.375 
Q 16.5 21.390625 20.328125 13.890625 
Q 24.171875 6.390625 31.78125 6.390625 
Q 39.453125 6.390625 43.28125 13.890625 
Q 47.125 21.390625 47.125 36.375 
Q 47.125 51.421875 43.28125 58.90625 
Q 39.453125 66.40625 31.78125 66.40625 
z
M 31.78125 74.21875 
Q 44.046875 74.21875 50.515625 64.515625 
Q 56.984375 54.828125 56.984375 36.375 
Q 56.984375 17.96875 50.515625 8.265625 
Q 44.046875 -1.421875 31.78125 -1.421875 
Q 19.53125 -1.421875 13.0625 8.265625 
Q 6.59375 17.96875 6.59375 36.375 
Q 6.59375 54.828125 13.0625 64.515625 
Q 19.53125 74.21875 31.78125 74.21875 
z
" id="DejaVuSans-30"/>
      </defs>
      <g transform="translate(17.1625 486.392969)scale(0.1 -0.1)">
       <use xlink:href="#DejaVuSans-30"/>
      </g>
     </g>
    </g>
    <g id="ytick_2">
     <g id="line2d_16">
      <g>
       <use style="stroke:#000000;stroke-width:0.8;" x="30.525" xlink:href="#m40b08f66f8" y="382.595085"/>
      </g>
     </g>
     <g id="text_16">
      <!-- 20 -->
      <defs>
       <path d="M 19.1875 8.296875 
L 53.609375 8.296875 
L 53.609375 0 
L 7.328125 0 
L 7.328125 8.296875 
Q 12.9375 14.109375 22.625 23.890625 
Q 32.328125 33.6875 34.8125 36.53125 
Q 39.546875 41.84375 41.421875 45.53125 
Q 43.3125 49.21875 43.3125 52.78125 
Q 43.3125 58.59375 39.234375 62.25 
Q 35.15625 65.921875 28.609375 65.921875 
Q 23.96875 65.921875 18.8125 64.3125 
Q 13.671875 62.703125 7.8125 59.421875 
L 7.8125 69.390625 
Q 13.765625 71.78125 18.9375 73 
Q 24.125 74.21875 28.421875 74.21875 
Q 39.75 74.21875 46.484375 68.546875 
Q 53.21875 62.890625 53.21875 53.421875 
Q 53.21875 48.921875 51.53125 44.890625 
Q 49.859375 40.875 45.40625 35.40625 
Q 44.1875 33.984375 37.640625 27.21875 
Q 31.109375 20.453125 19.1875 8.296875 
z
" id="DejaVuSans-32"/>
      </defs>
      <g transform="translate(10.8 386.394303)scale(0.1 -0.1)">
       <use xlink:href="#DejaVuSans-32"/>
       <use x="63.623047" xlink:href="#DejaVuSans-30"/>
      </g>
     </g>
    </g>
    <g id="ytick_3">
     <g id="line2d_17">
      <g>
       <use style="stroke:#000000;stroke-width:0.8;" x="30.525" xlink:href="#m40b08f66f8" y="282.596419"/>
      </g>
     </g>
     <g id="text_17">
      <!-- 40 -->
      <defs>
       <path d="M 37.796875 64.3125 
L 12.890625 25.390625 
L 37.796875 25.390625 
z
M 35.203125 72.90625 
L 47.609375 72.90625 
L 47.609375 25.390625 
L 58.015625 25.390625 
L 58.015625 17.1875 
L 47.609375 17.1875 
L 47.609375 0 
L 37.796875 0 
L 37.796875 17.1875 
L 4.890625 17.1875 
L 4.890625 26.703125 
z
" id="DejaVuSans-34"/>
      </defs>
      <g transform="translate(10.8 286.395638)scale(0.1 -0.1)">
       <use xlink:href="#DejaVuSans-34"/>
       <use x="63.623047" xlink:href="#DejaVuSans-30"/>
      </g>
     </g>
    </g>
    <g id="ytick_4">
     <g id="line2d_18">
      <g>
       <use style="stroke:#000000;stroke-width:0.8;" x="30.525" xlink:href="#m40b08f66f8" y="182.597754"/>
      </g>
     </g>
     <g id="text_18">
      <!-- 60 -->
      <defs>
       <path d="M 33.015625 40.375 
Q 26.375 40.375 22.484375 35.828125 
Q 18.609375 31.296875 18.609375 23.390625 
Q 18.609375 15.53125 22.484375 10.953125 
Q 26.375 6.390625 33.015625 6.390625 
Q 39.65625 6.390625 43.53125 10.953125 
Q 47.40625 15.53125 47.40625 23.390625 
Q 47.40625 31.296875 43.53125 35.828125 
Q 39.65625 40.375 33.015625 40.375 
z
M 52.59375 71.296875 
L 52.59375 62.3125 
Q 48.875 64.0625 45.09375 64.984375 
Q 41.3125 65.921875 37.59375 65.921875 
Q 27.828125 65.921875 22.671875 59.328125 
Q 17.53125 52.734375 16.796875 39.40625 
Q 19.671875 43.65625 24.015625 45.921875 
Q 28.375 48.1875 33.59375 48.1875 
Q 44.578125 48.1875 50.953125 41.515625 
Q 57.328125 34.859375 57.328125 23.390625 
Q 57.328125 12.15625 50.6875 5.359375 
Q 44.046875 -1.421875 33.015625 -1.421875 
Q 20.359375 -1.421875 13.671875 8.265625 
Q 6.984375 17.96875 6.984375 36.375 
Q 6.984375 53.65625 15.1875 63.9375 
Q 23.390625 74.21875 37.203125 74.21875 
Q 40.921875 74.21875 44.703125 73.484375 
Q 48.484375 72.75 52.59375 71.296875 
z
" id="DejaVuSans-36"/>
      </defs>
      <g transform="translate(10.8 186.396973)scale(0.1 -0.1)">
       <use xlink:href="#DejaVuSans-36"/>
       <use x="63.623047" xlink:href="#DejaVuSans-30"/>
      </g>
     </g>
    </g>
    <g id="ytick_5">
     <g id="line2d_19">
      <g>
       <use style="stroke:#000000;stroke-width:0.8;" x="30.525" xlink:href="#m40b08f66f8" y="82.599088"/>
      </g>
     </g>
     <g id="text_19">
      <!-- 80 -->
      <defs>
       <path d="M 31.78125 34.625 
Q 24.75 34.625 20.71875 30.859375 
Q 16.703125 27.09375 16.703125 20.515625 
Q 16.703125 13.921875 20.71875 10.15625 
Q 24.75 6.390625 31.78125 6.390625 
Q 38.8125 6.390625 42.859375 10.171875 
Q 46.921875 13.96875 46.921875 20.515625 
Q 46.921875 27.09375 42.890625 30.859375 
Q 38.875 34.625 31.78125 34.625 
z
M 21.921875 38.8125 
Q 15.578125 40.375 12.03125 44.71875 
Q 8.5 49.078125 8.5 55.328125 
Q 8.5 64.0625 14.71875 69.140625 
Q 20.953125 74.21875 31.78125 74.21875 
Q 42.671875 74.21875 48.875 69.140625 
Q 55.078125 64.0625 55.078125 55.328125 
Q 55.078125 49.078125 51.53125 44.71875 
Q 48 40.375 41.703125 38.8125 
Q 48.828125 37.15625 52.796875 32.3125 
Q 56.78125 27.484375 56.78125 20.515625 
Q 56.78125 9.90625 50.3125 4.234375 
Q 43.84375 -1.421875 31.78125 -1.421875 
Q 19.734375 -1.421875 13.25 4.234375 
Q 6.78125 9.90625 6.78125 20.515625 
Q 6.78125 27.484375 10.78125 32.3125 
Q 14.796875 37.15625 21.921875 38.8125 
z
M 18.3125 54.390625 
Q 18.3125 48.734375 21.84375 45.5625 
Q 25.390625 42.390625 31.78125 42.390625 
Q 38.140625 42.390625 41.71875 45.5625 
Q 45.3125 48.734375 45.3125 54.390625 
Q 45.3125 60.0625 41.71875 63.234375 
Q 38.140625 66.40625 31.78125 66.40625 
Q 25.390625 66.40625 21.84375 63.234375 
Q 18.3125 60.0625 18.3125 54.390625 
z
" id="DejaVuSans-38"/>
      </defs>
      <g transform="translate(10.8 86.398307)scale(0.1 -0.1)">
       <use xlink:href="#DejaVuSans-38"/>
       <use x="63.623047" xlink:href="#DejaVuSans-30"/>
      </g>
     </g>
    </g>
   </g>
   <g id="patch_45">
    <path d="M 30.525 482.59375 
L 30.525 14.3 
" style="fill:none;stroke:#000000;stroke-linecap:square;stroke-linejoin:miter;stroke-width:0.8;"/>
   </g>
   <g id="patch_46">
    <path d="M 705.7 482.59375 
L 705.7 14.3 
" style="fill:none;stroke:#000000;stroke-linecap:square;stroke-linejoin:miter;stroke-width:0.8;"/>
   </g>
   <g id="patch_47">
    <path d="M 30.525 482.59375 
L 705.7 482.59375 
" style="fill:none;stroke:#000000;stroke-linecap:square;stroke-linejoin:miter;stroke-width:0.8;"/>
   </g>
   <g id="patch_48">
    <path d="M 30.525 14.3 
L 705.7 14.3 
" style="fill:none;stroke:#000000;stroke-linecap:square;stroke-linejoin:miter;stroke-width:0.8;"/>
   </g>
   <g id="legend_1">
    <g id="patch_49">
     <path d="M 37.525 66.334375 
L 249.179688 66.334375 
Q 251.179688 66.334375 251.179688 64.334375 
L 251.179688 21.3 
Q 251.179688 19.3 249.179688 19.3 
L 37.525 19.3 
Q 35.525 19.3 35.525 21.3 
L 35.525 64.334375 
Q 35.525 66.334375 37.525 66.334375 
z
" style="fill:#ffffff;opacity:0.8;stroke:#cccccc;stroke-linejoin:miter;"/>
    </g>
    <g id="patch_50">
     <path d="M 39.525 30.898438 
L 59.525 30.898438 
L 59.525 23.898438 
L 39.525 23.898438 
z
" style="fill:#1f77b4;"/>
    </g>
    <g id="text_20">
     <!-- StudentsWithDisabilitiesPercent -->
     <g transform="translate(67.525 30.898438)scale(0.1 -0.1)">
      <use xlink:href="#DejaVuSans-53"/>
      <use x="63.476562" xlink:href="#DejaVuSans-74"/>
      <use x="102.685547" xlink:href="#DejaVuSans-75"/>
      <use x="166.064453" xlink:href="#DejaVuSans-64"/>
      <use x="229.541016" xlink:href="#DejaVuSans-65"/>
      <use x="291.064453" xlink:href="#DejaVuSans-6e"/>
      <use x="354.443359" xlink:href="#DejaVuSans-74"/>
      <use x="393.652344" xlink:href="#DejaVuSans-73"/>
      <use x="445.751953" xlink:href="#DejaVuSans-57"/>
      <use x="544.597656" xlink:href="#DejaVuSans-69"/>
      <use x="572.380859" xlink:href="#DejaVuSans-74"/>
      <use x="611.589844" xlink:href="#DejaVuSans-68"/>
      <use x="674.96875" xlink:href="#DejaVuSans-44"/>
      <use x="751.970703" xlink:href="#DejaVuSans-69"/>
      <use x="779.753906" xlink:href="#DejaVuSans-73"/>
      <use x="831.853516" xlink:href="#DejaVuSans-61"/>
      <use x="893.132812" xlink:href="#DejaVuSans-62"/>
      <use x="956.609375" xlink:href="#DejaVuSans-69"/>
      <use x="984.392578" xlink:href="#DejaVuSans-6c"/>
      <use x="1012.175781" xlink:href="#DejaVuSans-69"/>
      <use x="1039.958984" xlink:href="#DejaVuSans-74"/>
      <use x="1079.167969" xlink:href="#DejaVuSans-69"/>
      <use x="1106.951172" xlink:href="#DejaVuSans-65"/>
      <use x="1168.474609" xlink:href="#DejaVuSans-73"/>
      <use x="1220.574219" xlink:href="#DejaVuSans-50"/>
      <use x="1280.830078" xlink:href="#DejaVuSans-65"/>
      <use x="1342.353516" xlink:href="#DejaVuSans-72"/>
      <use x="1383.435547" xlink:href="#DejaVuSans-63"/>
      <use x="1438.416016" xlink:href="#DejaVuSans-65"/>
      <use x="1499.939453" xlink:href="#DejaVuSans-6e"/>
      <use x="1563.318359" xlink:href="#DejaVuSans-74"/>
     </g>
    </g>
    <g id="patch_51">
     <path d="M 39.525 45.576563 
L 59.525 45.576563 
L 59.525 38.576563 
L 39.525 38.576563 
z
" style="fill:#ff7f0e;"/>
    </g>
    <g id="text_21">
     <!-- HighNeedsPercent -->
     <defs>
      <path d="M 9.8125 72.90625 
L 23.09375 72.90625 
L 55.421875 11.921875 
L 55.421875 72.90625 
L 64.984375 72.90625 
L 64.984375 0 
L 51.703125 0 
L 19.390625 60.984375 
L 19.390625 0 
L 9.8125 0 
z
" id="DejaVuSans-4e"/>
     </defs>
     <g transform="translate(67.525 45.576563)scale(0.1 -0.1)">
      <use xlink:href="#DejaVuSans-48"/>
      <use x="75.195312" xlink:href="#DejaVuSans-69"/>
      <use x="102.978516" xlink:href="#DejaVuSans-67"/>
      <use x="166.455078" xlink:href="#DejaVuSans-68"/>
      <use x="229.833984" xlink:href="#DejaVuSans-4e"/>
      <use x="304.638672" xlink:href="#DejaVuSans-65"/>
      <use x="366.162109" xlink:href="#DejaVuSans-65"/>
      <use x="427.685547" xlink:href="#DejaVuSans-64"/>
      <use x="491.162109" xlink:href="#DejaVuSans-73"/>
      <use x="543.261719" xlink:href="#DejaVuSans-50"/>
      <use x="603.517578" xlink:href="#DejaVuSans-65"/>
      <use x="665.041016" xlink:href="#DejaVuSans-72"/>
      <use x="706.123047" xlink:href="#DejaVuSans-63"/>
      <use x="761.103516" xlink:href="#DejaVuSans-65"/>
      <use x="822.626953" xlink:href="#DejaVuSans-6e"/>
      <use x="886.005859" xlink:href="#DejaVuSans-74"/>
     </g>
    </g>
    <g id="patch_52">
     <path d="M 39.525 60.254688 
L 59.525 60.254688 
L 59.525 53.254688 
L 39.525 53.254688 
z
" style="fill:#2ca02c;"/>
    </g>
    <g id="text_22">
     <!-- EconomicallyDisadvantagedPercent -->
     <defs>
      <path d="M 2.984375 54.6875 
L 12.5 54.6875 
L 29.59375 8.796875 
L 46.6875 54.6875 
L 56.203125 54.6875 
L 35.6875 0 
L 23.484375 0 
z
" id="DejaVuSans-76"/>
     </defs>
     <g transform="translate(67.525 60.254688)scale(0.1 -0.1)">
      <use xlink:href="#DejaVuSans-45"/>
      <use x="63.183594" xlink:href="#DejaVuSans-63"/>
      <use x="118.164062" xlink:href="#DejaVuSans-6f"/>
      <use x="179.345703" xlink:href="#DejaVuSans-6e"/>
      <use x="242.724609" xlink:href="#DejaVuSans-6f"/>
      <use x="303.90625" xlink:href="#DejaVuSans-6d"/>
      <use x="401.318359" xlink:href="#DejaVuSans-69"/>
      <use x="429.101562" xlink:href="#DejaVuSans-63"/>
      <use x="484.082031" xlink:href="#DejaVuSans-61"/>
      <use x="545.361328" xlink:href="#DejaVuSans-6c"/>
      <use x="573.144531" xlink:href="#DejaVuSans-6c"/>
      <use x="600.927734" xlink:href="#DejaVuSans-79"/>
      <use x="660.107422" xlink:href="#DejaVuSans-44"/>
      <use x="737.109375" xlink:href="#DejaVuSans-69"/>
      <use x="764.892578" xlink:href="#DejaVuSans-73"/>
      <use x="816.992188" xlink:href="#DejaVuSans-61"/>
      <use x="878.271484" xlink:href="#DejaVuSans-64"/>
      <use x="941.748047" xlink:href="#DejaVuSans-76"/>
      <use x="1000.927734" xlink:href="#DejaVuSans-61"/>
      <use x="1062.207031" xlink:href="#DejaVuSans-6e"/>
      <use x="1125.585938" xlink:href="#DejaVuSans-74"/>
      <use x="1164.794922" xlink:href="#DejaVuSans-61"/>
      <use x="1226.074219" xlink:href="#DejaVuSans-67"/>
      <use x="1289.550781" xlink:href="#DejaVuSans-65"/>
      <use x="1351.074219" xlink:href="#DejaVuSans-64"/>
      <use x="1414.550781" xlink:href="#DejaVuSans-50"/>
      <use x="1474.806641" xlink:href="#DejaVuSans-65"/>
      <use x="1536.330078" xlink:href="#DejaVuSans-72"/>
      <use x="1577.412109" xlink:href="#DejaVuSans-63"/>
      <use x="1632.392578" xlink:href="#DejaVuSans-65"/>
      <use x="1693.916016" xlink:href="#DejaVuSans-6e"/>
      <use x="1757.294922" xlink:href="#DejaVuSans-74"/>
     </g>
    </g>
   </g>
  </g>
 </g>
 <defs>
  <clipPath id="pdef3a04155">
   <rect height="468.29375" width="675.175" x="30.525" y="14.3"/>
  </clipPath>
 </defs>
</svg>
