<?xml version="1.0" encoding="utf-8" standalone="no"?>
<!DOCTYPE svg PUBLIC "-//W3C//DTD SVG 1.1//EN"
  "http://www.w3.org/Graphics/SVG/1.1/DTD/svg11.dtd">
<!-- Created with matplotlib (http://matplotlib.org/) -->
<svg height="720pt" version="1.1" viewBox="0 0 720 720" width="720pt" xmlns="http://www.w3.org/2000/svg" xmlns:xlink="http://www.w3.org/1999/xlink">
 <defs>
  <style type="text/css">
*{stroke-linecap:butt;stroke-linejoin:round;}
  </style>
 </defs>
 <g id="figure_1">
  <g id="patch_1">
   <path d="M 0 720 
L 720 720 
L 720 0 
L 0 0 
z
" style="fill:#ffffff;"/>
  </g>
  <g id="axes_1">
   <g id="patch_2">
    <path d="M 30.525 488.973437 
L 705.7 488.973437 
L 705.7 14.3 
L 30.525 14.3 
z
" style="fill:#ffffff;"/>
   </g>
   <g id="patch_3">
    <path clip-path="url(#p15a9fca90f)" d="M 37.017067 488.973437 
L 43.509135 488.973437 
L 43.509135 91.581503 
L 37.017067 91.581503 
z
" style="fill:#1f77b4;"/>
   </g>
   <g id="patch_4">
    <path clip-path="url(#p15a9fca90f)" d="M 62.985337 488.973437 
L 69.477404 488.973437 
L 69.477404 262.450271 
L 62.985337 262.450271 
z
" style="fill:#1f77b4;"/>
   </g>
   <g id="patch_5">
    <path clip-path="url(#p15a9fca90f)" d="M 88.953606 488.973437 
L 95.445673 488.973437 
L 95.445673 174.574904 
L 88.953606 174.574904 
z
" style="fill:#1f77b4;"/>
   </g>
   <g id="patch_6">
    <path clip-path="url(#p15a9fca90f)" d="M 114.921875 488.973437 
L 121.413942 488.973437 
L 121.413942 75.959215 
L 114.921875 75.959215 
z
" style="fill:#1f77b4;"/>
   </g>
   <g id="patch_7">
    <path clip-path="url(#p15a9fca90f)" d="M 140.890144 488.973437 
L 147.382212 488.973437 
L 147.382212 36.903497 
L 140.890144 36.903497 
z
" style="fill:#1f77b4;"/>
   </g>
   <g id="patch_8">
    <path clip-path="url(#p15a9fca90f)" d="M 166.858413 488.973437 
L 173.350481 488.973437 
L 173.350481 182.386048 
L 166.858413 182.386048 
z
" style="fill:#1f77b4;"/>
   </g>
   <g id="patch_9">
    <path clip-path="url(#p15a9fca90f)" d="M 192.826683 488.973437 
L 199.31875 488.973437 
L 199.31875 216.559802 
L 192.826683 216.559802 
z
" style="fill:#1f77b4;"/>
   </g>
   <g id="patch_10">
    <path clip-path="url(#p15a9fca90f)" d="M 218.794952 488.973437 
L 225.287019 488.973437 
L 225.287019 148.212294 
L 218.794952 148.212294 
z
" style="fill:#1f77b4;"/>
   </g>
   <g id="patch_11">
    <path clip-path="url(#p15a9fca90f)" d="M 244.763221 488.973437 
L 251.255288 488.973437 
L 251.255288 205.819479 
L 244.763221 205.819479 
z
" style="fill:#1f77b4;"/>
   </g>
   <g id="patch_12">
    <path clip-path="url(#p15a9fca90f)" d="M 270.73149 488.973437 
L 277.223558 488.973437 
L 277.223558 289.789274 
L 270.73149 289.789274 
z
" style="fill:#1f77b4;"/>
   </g>
   <g id="patch_13">
    <path clip-path="url(#p15a9fca90f)" d="M 296.69976 488.973437 
L 303.191827 488.973437 
L 303.191827 139.424758 
L 296.69976 139.424758 
z
" style="fill:#1f77b4;"/>
   </g>
   <g id="patch_14">
    <path clip-path="url(#p15a9fca90f)" d="M 322.668029 488.973437 
L 329.160096 488.973437 
L 329.160096 171.645726 
L 322.668029 171.645726 
z
" style="fill:#1f77b4;"/>
   </g>
   <g id="patch_15">
    <path clip-path="url(#p15a9fca90f)" d="M 348.636298 488.973437 
L 355.128365 488.973437 
L 355.128365 131.613614 
L 348.636298 131.613614 
z
" style="fill:#1f77b4;"/>
   </g>
   <g id="patch_16">
    <path clip-path="url(#p15a9fca90f)" d="M 374.604567 488.973437 
L 381.096635 488.973437 
L 381.096635 92.557896 
L 374.604567 92.557896 
z
" style="fill:#1f77b4;"/>
   </g>
   <g id="patch_17">
    <path clip-path="url(#p15a9fca90f)" d="M 400.572837 488.973437 
L 407.064904 488.973437 
L 407.064904 404.02725 
L 400.572837 404.02725 
z
" style="fill:#1f77b4;"/>
   </g>
   <g id="patch_18">
    <path clip-path="url(#p15a9fca90f)" d="M 426.541106 488.973437 
L 433.033173 488.973437 
L 433.033173 380.593819 
L 426.541106 380.593819 
z
" style="fill:#1f77b4;"/>
   </g>
   <g id="patch_19">
    <path clip-path="url(#p15a9fca90f)" d="M 452.509375 488.973437 
L 459.001442 488.973437 
L 459.001442 226.323731 
L 452.509375 226.323731 
z
" style="fill:#1f77b4;"/>
   </g>
   <g id="patch_20">
    <path clip-path="url(#p15a9fca90f)" d="M 478.477644 488.973437 
L 484.969712 488.973437 
L 484.969712 303.458775 
L 478.477644 303.458775 
z
" style="fill:#1f77b4;"/>
   </g>
   <g id="patch_21">
    <path clip-path="url(#p15a9fca90f)" d="M 504.445913 488.973437 
L 510.937981 488.973437 
L 510.937981 71.077251 
L 504.445913 71.077251 
z
" style="fill:#1f77b4;"/>
   </g>
   <g id="patch_22">
    <path clip-path="url(#p15a9fca90f)" d="M 530.414183 488.973437 
L 536.90625 488.973437 
L 536.90625 235.111268 
L 530.414183 235.111268 
z
" style="fill:#1f77b4;"/>
   </g>
   <g id="patch_23">
    <path clip-path="url(#p15a9fca90f)" d="M 556.382452 488.973437 
L 562.874519 488.973437 
L 562.874519 226.323731 
L 556.382452 226.323731 
z
" style="fill:#1f77b4;"/>
   </g>
   <g id="patch_24">
    <path clip-path="url(#p15a9fca90f)" d="M 582.350721 488.973437 
L 588.842788 488.973437 
L 588.842788 291.74206 
L 582.350721 291.74206 
z
" style="fill:#1f77b4;"/>
   </g>
   <g id="patch_25">
    <path clip-path="url(#p15a9fca90f)" d="M 608.31899 488.973437 
L 614.811058 488.973437 
L 614.811058 117.944113 
L 608.31899 117.944113 
z
" style="fill:#1f77b4;"/>
   </g>
   <g id="patch_26">
    <path clip-path="url(#p15a9fca90f)" d="M 634.28726 488.973437 
L 640.779327 488.973437 
L 640.779327 246.827983 
L 634.28726 246.827983 
z
" style="fill:#1f77b4;"/>
   </g>
   <g id="patch_27">
    <path clip-path="url(#p15a9fca90f)" d="M 660.255529 488.973437 
L 666.747596 488.973437 
L 666.747596 385.475784 
L 660.255529 385.475784 
z
" style="fill:#1f77b4;"/>
   </g>
   <g id="patch_28">
    <path clip-path="url(#p15a9fca90f)" d="M 686.223798 488.973437 
L 692.715865 488.973437 
L 692.715865 154.070652 
L 686.223798 154.070652 
z
" style="fill:#1f77b4;"/>
   </g>
   <g id="patch_29">
    <path clip-path="url(#p15a9fca90f)" d="M 43.509135 488.973437 
L 50.001202 488.973437 
L 50.001202 148.212294 
L 43.509135 148.212294 
z
" style="fill:#ff7f0e;"/>
   </g>
   <g id="patch_30">
    <path clip-path="url(#p15a9fca90f)" d="M 69.477404 488.973437 
L 75.969471 488.973437 
L 75.969471 275.143379 
L 69.477404 275.143379 
z
" style="fill:#ff7f0e;"/>
   </g>
   <g id="patch_31">
    <path clip-path="url(#p15a9fca90f)" d="M 95.445673 488.973437 
L 101.93774 488.973437 
L 101.93774 239.993233 
L 95.445673 239.993233 
z
" style="fill:#ff7f0e;"/>
   </g>
   <g id="patch_32">
    <path clip-path="url(#p15a9fca90f)" d="M 121.413942 488.973437 
L 127.90601 488.973437 
L 127.90601 115.014934 
L 121.413942 115.014934 
z
" style="fill:#ff7f0e;"/>
   </g>
   <g id="patch_33">
    <path clip-path="url(#p15a9fca90f)" d="M 147.382212 488.973437 
L 153.874279 488.973437 
L 153.874279 99.392646 
L 147.382212 99.392646 
z
" style="fill:#ff7f0e;"/>
   </g>
   <g id="patch_34">
    <path clip-path="url(#p15a9fca90f)" d="M 173.350481 488.973437 
L 179.842548 488.973437 
L 179.842548 219.488981 
L 173.350481 219.488981 
z
" style="fill:#ff7f0e;"/>
   </g>
   <g id="patch_35">
    <path clip-path="url(#p15a9fca90f)" d="M 199.31875 488.973437 
L 205.810817 488.973437 
L 205.810817 262.450271 
L 199.31875 262.450271 
z
" style="fill:#ff7f0e;"/>
   </g>
   <g id="patch_36">
    <path clip-path="url(#p15a9fca90f)" d="M 225.287019 488.973437 
L 231.779087 488.973437 
L 231.779087 187.268013 
L 225.287019 187.268013 
z
" style="fill:#ff7f0e;"/>
   </g>
   <g id="patch_37">
    <path clip-path="url(#p15a9fca90f)" d="M 251.255288 488.973437 
L 257.747356 488.973437 
L 257.747356 232.182089 
L 251.255288 232.182089 
z
" style="fill:#ff7f0e;"/>
   </g>
   <g id="patch_38">
    <path clip-path="url(#p15a9fca90f)" d="M 277.223558 488.973437 
L 283.715625 488.973437 
L 283.715625 313.222705 
L 277.223558 313.222705 
z
" style="fill:#ff7f0e;"/>
   </g>
   <g id="patch_39">
    <path clip-path="url(#p15a9fca90f)" d="M 303.191827 488.973437 
L 309.683894 488.973437 
L 309.683894 173.598511 
L 303.191827 173.598511 
z
" style="fill:#ff7f0e;"/>
   </g>
   <g id="patch_40">
    <path clip-path="url(#p15a9fca90f)" d="M 329.160096 488.973437 
L 335.652163 488.973437 
L 335.652163 231.205696 
L 329.160096 231.205696 
z
" style="fill:#ff7f0e;"/>
   </g>
   <g id="patch_41">
    <path clip-path="url(#p15a9fca90f)" d="M 355.128365 488.973437 
L 361.620433 488.973437 
L 361.620433 157.976224 
L 355.128365 157.976224 
z
" style="fill:#ff7f0e;"/>
   </g>
   <g id="patch_42">
    <path clip-path="url(#p15a9fca90f)" d="M 381.096635 488.973437 
L 387.588702 488.973437 
L 387.588702 145.283116 
L 381.096635 145.283116 
z
" style="fill:#ff7f0e;"/>
   </g>
   <g id="patch_43">
    <path clip-path="url(#p15a9fca90f)" d="M 407.064904 488.973437 
L 413.556971 488.973437 
L 413.556971 404.02725 
L 407.064904 404.02725 
z
" style="fill:#ff7f0e;"/>
   </g>
   <g id="patch_44">
    <path clip-path="url(#p15a9fca90f)" d="M 433.033173 488.973437 
L 439.52524 488.973437 
L 439.52524 434.295432 
L 433.033173 434.295432 
z
" style="fill:#ff7f0e;"/>
   </g>
   <g id="patch_45">
    <path clip-path="url(#p15a9fca90f)" d="M 459.001442 488.973437 
L 465.49351 488.973437 
L 465.49351 451.870505 
L 459.001442 451.870505 
z
" style="fill:#ff7f0e;"/>
   </g>
   <g id="patch_46">
    <path clip-path="url(#p15a9fca90f)" d="M 484.969712 488.973437 
L 491.461779 488.973437 
L 491.461779 377.66464 
L 484.969712 377.66464 
z
" style="fill:#ff7f0e;"/>
   </g>
   <g id="patch_47">
    <path clip-path="url(#p15a9fca90f)" d="M 510.937981 488.973437 
L 517.430048 488.973437 
L 517.430048 107.20379 
L 510.937981 107.20379 
z
" style="fill:#ff7f0e;"/>
   </g>
   <g id="patch_48">
    <path clip-path="url(#p15a9fca90f)" d="M 536.90625 488.973437 
L 543.398317 488.973437 
L 543.398317 269.285022 
L 536.90625 269.285022 
z
" style="fill:#ff7f0e;"/>
   </g>
   <g id="patch_49">
    <path clip-path="url(#p15a9fca90f)" d="M 562.874519 488.973437 
L 569.366587 488.973437 
L 569.366587 241.946019 
L 562.874519 241.946019 
z
" style="fill:#ff7f0e;"/>
   </g>
   <g id="patch_50">
    <path clip-path="url(#p15a9fca90f)" d="M 588.842788 488.973437 
L 595.334856 488.973437 
L 595.334856 309.317133 
L 588.842788 309.317133 
z
" style="fill:#ff7f0e;"/>
   </g>
   <g id="patch_51">
    <path clip-path="url(#p15a9fca90f)" d="M 614.811058 488.973437 
L 621.303125 488.973437 
L 621.303125 192.149978 
L 614.811058 192.149978 
z
" style="fill:#ff7f0e;"/>
   </g>
   <g id="patch_52">
    <path clip-path="url(#p15a9fca90f)" d="M 640.779327 488.973437 
L 647.271394 488.973437 
L 647.271394 290.765667 
L 640.779327 290.765667 
z
" style="fill:#ff7f0e;"/>
   </g>
   <g id="patch_53">
    <path clip-path="url(#p15a9fca90f)" d="M 666.747596 488.973437 
L 673.239663 488.973437 
L 673.239663 394.26332 
L 666.747596 394.26332 
z
" style="fill:#ff7f0e;"/>
   </g>
   <g id="patch_54">
    <path clip-path="url(#p15a9fca90f)" d="M 692.715865 488.973437 
L 699.207933 488.973437 
L 699.207933 233.158482 
L 692.715865 233.158482 
z
" style="fill:#ff7f0e;"/>
   </g>
   <g id="matplotlib.axis_1">
    <g id="xtick_1">
     <g id="line2d_1">
      <defs>
       <path d="M 0 0 
L 0 3.5 
" id="m92a40f8865" style="stroke:#000000;stroke-width:0.8;"/>
      </defs>
      <g>
       <use style="stroke:#000000;stroke-width:0.8;" x="43.509135" xlink:href="#m92a40f8865" y="488.973437"/>
      </g>
     </g>
     <g id="text_1">
      <!-- Lowell - Abraham Lincoln -->
      <defs>
       <path d="M 9.8125 72.90625 
L 19.671875 72.90625 
L 19.671875 8.296875 
L 55.171875 8.296875 
L 55.171875 0 
L 9.8125 0 
z
" id="DejaVuSans-4c"/>
       <path d="M 30.609375 48.390625 
Q 23.390625 48.390625 19.1875 42.75 
Q 14.984375 37.109375 14.984375 27.296875 
Q 14.984375 17.484375 19.15625 11.84375 
Q 23.34375 6.203125 30.609375 6.203125 
Q 37.796875 6.203125 41.984375 11.859375 
Q 46.1875 17.53125 46.1875 27.296875 
Q 46.1875 37.015625 41.984375 42.703125 
Q 37.796875 48.390625 30.609375 48.390625 
z
M 30.609375 56 
Q 42.328125 56 49.015625 48.375 
Q 55.71875 40.765625 55.71875 27.296875 
Q 55.71875 13.875 49.015625 6.21875 
Q 42.328125 -1.421875 30.609375 -1.421875 
Q 18.84375 -1.421875 12.171875 6.21875 
Q 5.515625 13.875 5.515625 27.296875 
Q 5.515625 40.765625 12.171875 48.375 
Q 18.84375 56 30.609375 56 
z
" id="DejaVuSans-6f"/>
       <path d="M 4.203125 54.6875 
L 13.1875 54.6875 
L 24.421875 12.015625 
L 35.59375 54.6875 
L 46.1875 54.6875 
L 57.421875 12.015625 
L 68.609375 54.6875 
L 77.59375 54.6875 
L 63.28125 0 
L 52.6875 0 
L 40.921875 44.828125 
L 29.109375 0 
L 18.5 0 
z
" id="DejaVuSans-77"/>
       <path d="M 56.203125 29.59375 
L 56.203125 25.203125 
L 14.890625 25.203125 
Q 15.484375 15.921875 20.484375 11.0625 
Q 25.484375 6.203125 34.421875 6.203125 
Q 39.59375 6.203125 44.453125 7.46875 
Q 49.3125 8.734375 54.109375 11.28125 
L 54.109375 2.78125 
Q 49.265625 0.734375 44.1875 -0.34375 
Q 39.109375 -1.421875 33.890625 -1.421875 
Q 20.796875 -1.421875 13.15625 6.1875 
Q 5.515625 13.8125 5.515625 26.8125 
Q 5.515625 40.234375 12.765625 48.109375 
Q 20.015625 56 32.328125 56 
Q 43.359375 56 49.78125 48.890625 
Q 56.203125 41.796875 56.203125 29.59375 
z
M 47.21875 32.234375 
Q 47.125 39.59375 43.09375 43.984375 
Q 39.0625 48.390625 32.421875 48.390625 
Q 24.90625 48.390625 20.390625 44.140625 
Q 15.875 39.890625 15.1875 32.171875 
z
" id="DejaVuSans-65"/>
       <path d="M 9.421875 75.984375 
L 18.40625 75.984375 
L 18.40625 0 
L 9.421875 0 
z
" id="DejaVuSans-6c"/>
       <path id="DejaVuSans-20"/>
       <path d="M 4.890625 31.390625 
L 31.203125 31.390625 
L 31.203125 23.390625 
L 4.890625 23.390625 
z
" id="DejaVuSans-2d"/>
       <path d="M 34.1875 63.1875 
L 20.796875 26.90625 
L 47.609375 26.90625 
z
M 28.609375 72.90625 
L 39.796875 72.90625 
L 67.578125 0 
L 57.328125 0 
L 50.6875 18.703125 
L 17.828125 18.703125 
L 11.1875 0 
L 0.78125 0 
z
" id="DejaVuSans-41"/>
       <path d="M 48.6875 27.296875 
Q 48.6875 37.203125 44.609375 42.84375 
Q 40.53125 48.484375 33.40625 48.484375 
Q 26.265625 48.484375 22.1875 42.84375 
Q 18.109375 37.203125 18.109375 27.296875 
Q 18.109375 17.390625 22.1875 11.75 
Q 26.265625 6.109375 33.40625 6.109375 
Q 40.53125 6.109375 44.609375 11.75 
Q 48.6875 17.390625 48.6875 27.296875 
z
M 18.109375 46.390625 
Q 20.953125 51.265625 25.265625 53.625 
Q 29.59375 56 35.59375 56 
Q 45.5625 56 51.78125 48.09375 
Q 58.015625 40.1875 58.015625 27.296875 
Q 58.015625 14.40625 51.78125 6.484375 
Q 45.5625 -1.421875 35.59375 -1.421875 
Q 29.59375 -1.421875 25.265625 0.953125 
Q 20.953125 3.328125 18.109375 8.203125 
L 18.109375 0 
L 9.078125 0 
L 9.078125 75.984375 
L 18.109375 75.984375 
z
" id="DejaVuSans-62"/>
       <path d="M 41.109375 46.296875 
Q 39.59375 47.171875 37.8125 47.578125 
Q 36.03125 48 33.890625 48 
Q 26.265625 48 22.1875 43.046875 
Q 18.109375 38.09375 18.109375 28.8125 
L 18.109375 0 
L 9.078125 0 
L 9.078125 54.6875 
L 18.109375 54.6875 
L 18.109375 46.1875 
Q 20.953125 51.171875 25.484375 53.578125 
Q 30.03125 56 36.53125 56 
Q 37.453125 56 38.578125 55.875 
Q 39.703125 55.765625 41.0625 55.515625 
z
" id="DejaVuSans-72"/>
       <path d="M 34.28125 27.484375 
Q 23.390625 27.484375 19.1875 25 
Q 14.984375 22.515625 14.984375 16.5 
Q 14.984375 11.71875 18.140625 8.90625 
Q 21.296875 6.109375 26.703125 6.109375 
Q 34.1875 6.109375 38.703125 11.40625 
Q 43.21875 16.703125 43.21875 25.484375 
L 43.21875 27.484375 
z
M 52.203125 31.203125 
L 52.203125 0 
L 43.21875 0 
L 43.21875 8.296875 
Q 40.140625 3.328125 35.546875 0.953125 
Q 30.953125 -1.421875 24.3125 -1.421875 
Q 15.921875 -1.421875 10.953125 3.296875 
Q 6 8.015625 6 15.921875 
Q 6 25.140625 12.171875 29.828125 
Q 18.359375 34.515625 30.609375 34.515625 
L 43.21875 34.515625 
L 43.21875 35.40625 
Q 43.21875 41.609375 39.140625 45 
Q 35.0625 48.390625 27.6875 48.390625 
Q 23 48.390625 18.546875 47.265625 
Q 14.109375 46.140625 10.015625 43.890625 
L 10.015625 52.203125 
Q 14.9375 54.109375 19.578125 55.046875 
Q 24.21875 56 28.609375 56 
Q 40.484375 56 46.34375 49.84375 
Q 52.203125 43.703125 52.203125 31.203125 
z
" id="DejaVuSans-61"/>
       <path d="M 54.890625 33.015625 
L 54.890625 0 
L 45.90625 0 
L 45.90625 32.71875 
Q 45.90625 40.484375 42.875 44.328125 
Q 39.84375 48.1875 33.796875 48.1875 
Q 26.515625 48.1875 22.3125 43.546875 
Q 18.109375 38.921875 18.109375 30.90625 
L 18.109375 0 
L 9.078125 0 
L 9.078125 75.984375 
L 18.109375 75.984375 
L 18.109375 46.1875 
Q 21.34375 51.125 25.703125 53.5625 
Q 30.078125 56 35.796875 56 
Q 45.21875 56 50.046875 50.171875 
Q 54.890625 44.34375 54.890625 33.015625 
z
" id="DejaVuSans-68"/>
       <path d="M 52 44.1875 
Q 55.375 50.25 60.0625 53.125 
Q 64.75 56 71.09375 56 
Q 79.640625 56 84.28125 50.015625 
Q 88.921875 44.046875 88.921875 33.015625 
L 88.921875 0 
L 79.890625 0 
L 79.890625 32.71875 
Q 79.890625 40.578125 77.09375 44.375 
Q 74.3125 48.1875 68.609375 48.1875 
Q 61.625 48.1875 57.5625 43.546875 
Q 53.515625 38.921875 53.515625 30.90625 
L 53.515625 0 
L 44.484375 0 
L 44.484375 32.71875 
Q 44.484375 40.625 41.703125 44.40625 
Q 38.921875 48.1875 33.109375 48.1875 
Q 26.21875 48.1875 22.15625 43.53125 
Q 18.109375 38.875 18.109375 30.90625 
L 18.109375 0 
L 9.078125 0 
L 9.078125 54.6875 
L 18.109375 54.6875 
L 18.109375 46.1875 
Q 21.1875 51.21875 25.484375 53.609375 
Q 29.78125 56 35.6875 56 
Q 41.65625 56 45.828125 52.96875 
Q 50 49.953125 52 44.1875 
z
" id="DejaVuSans-6d"/>
       <path d="M 9.421875 54.6875 
L 18.40625 54.6875 
L 18.40625 0 
L 9.421875 0 
z
M 9.421875 75.984375 
L 18.40625 75.984375 
L 18.40625 64.59375 
L 9.421875 64.59375 
z
" id="DejaVuSans-69"/>
       <path d="M 54.890625 33.015625 
L 54.890625 0 
L 45.90625 0 
L 45.90625 32.71875 
Q 45.90625 40.484375 42.875 44.328125 
Q 39.84375 48.1875 33.796875 48.1875 
Q 26.515625 48.1875 22.3125 43.546875 
Q 18.109375 38.921875 18.109375 30.90625 
L 18.109375 0 
L 9.078125 0 
L 9.078125 54.6875 
L 18.109375 54.6875 
L 18.109375 46.1875 
Q 21.34375 51.125 25.703125 53.5625 
Q 30.078125 56 35.796875 56 
Q 45.21875 56 50.046875 50.171875 
Q 54.890625 44.34375 54.890625 33.015625 
z
" id="DejaVuSans-6e"/>
       <path d="M 48.78125 52.59375 
L 48.78125 44.1875 
Q 44.96875 46.296875 41.140625 47.34375 
Q 37.3125 48.390625 33.40625 48.390625 
Q 24.65625 48.390625 19.8125 42.84375 
Q 14.984375 37.3125 14.984375 27.296875 
Q 14.984375 17.28125 19.8125 11.734375 
Q 24.65625 6.203125 33.40625 6.203125 
Q 37.3125 6.203125 41.140625 7.25 
Q 44.96875 8.296875 48.78125 10.40625 
L 48.78125 2.09375 
Q 45.015625 0.34375 40.984375 -0.53125 
Q 36.96875 -1.421875 32.421875 -1.421875 
Q 20.0625 -1.421875 12.78125 6.34375 
Q 5.515625 14.109375 5.515625 27.296875 
Q 5.515625 40.671875 12.859375 48.328125 
Q 20.21875 56 33.015625 56 
Q 37.15625 56 41.109375 55.140625 
Q 45.0625 54.296875 48.78125 52.59375 
z
" id="DejaVuSans-63"/>
      </defs>
      <g transform="translate(46.26851 621.746875)rotate(-90)scale(0.1 -0.1)">
       <use xlink:href="#DejaVuSans-4c"/>
       <use x="55.697266" xlink:href="#DejaVuSans-6f"/>
       <use x="116.878906" xlink:href="#DejaVuSans-77"/>
       <use x="198.666016" xlink:href="#DejaVuSans-65"/>
       <use x="260.189453" xlink:href="#DejaVuSans-6c"/>
       <use x="287.972656" xlink:href="#DejaVuSans-6c"/>
       <use x="315.755859" xlink:href="#DejaVuSans-20"/>
       <use x="347.542969" xlink:href="#DejaVuSans-2d"/>
       <use x="383.626953" xlink:href="#DejaVuSans-20"/>
       <use x="415.414062" xlink:href="#DejaVuSans-41"/>
       <use x="483.822266" xlink:href="#DejaVuSans-62"/>
       <use x="547.298828" xlink:href="#DejaVuSans-72"/>
       <use x="588.412109" xlink:href="#DejaVuSans-61"/>
       <use x="649.691406" xlink:href="#DejaVuSans-68"/>
       <use x="713.070312" xlink:href="#DejaVuSans-61"/>
       <use x="774.349609" xlink:href="#DejaVuSans-6d"/>
       <use x="871.761719" xlink:href="#DejaVuSans-20"/>
       <use x="903.548828" xlink:href="#DejaVuSans-4c"/>
       <use x="959.261719" xlink:href="#DejaVuSans-69"/>
       <use x="987.044922" xlink:href="#DejaVuSans-6e"/>
       <use x="1050.423828" xlink:href="#DejaVuSans-63"/>
       <use x="1105.404297" xlink:href="#DejaVuSans-6f"/>
       <use x="1166.585938" xlink:href="#DejaVuSans-6c"/>
       <use x="1194.369141" xlink:href="#DejaVuSans-6e"/>
      </g>
     </g>
    </g>
    <g id="xtick_2">
     <g id="line2d_2">
      <g>
       <use style="stroke:#000000;stroke-width:0.8;" x="69.477404" xlink:href="#m92a40f8865" y="488.973437"/>
      </g>
     </g>
     <g id="text_2">
      <!-- Lowell - B.F. Butler Middle School -->
      <defs>
       <path d="M 19.671875 34.8125 
L 19.671875 8.109375 
L 35.5 8.109375 
Q 43.453125 8.109375 47.28125 11.40625 
Q 51.125 14.703125 51.125 21.484375 
Q 51.125 28.328125 47.28125 31.5625 
Q 43.453125 34.8125 35.5 34.8125 
z
M 19.671875 64.796875 
L 19.671875 42.828125 
L 34.28125 42.828125 
Q 41.5 42.828125 45.03125 45.53125 
Q 48.578125 48.25 48.578125 53.8125 
Q 48.578125 59.328125 45.03125 62.0625 
Q 41.5 64.796875 34.28125 64.796875 
z
M 9.8125 72.90625 
L 35.015625 72.90625 
Q 46.296875 72.90625 52.390625 68.21875 
Q 58.5 63.53125 58.5 54.890625 
Q 58.5 48.1875 55.375 44.234375 
Q 52.25 40.28125 46.1875 39.3125 
Q 53.46875 37.75 57.5 32.78125 
Q 61.53125 27.828125 61.53125 20.40625 
Q 61.53125 10.640625 54.890625 5.3125 
Q 48.25 0 35.984375 0 
L 9.8125 0 
z
" id="DejaVuSans-42"/>
       <path d="M 10.6875 12.40625 
L 21 12.40625 
L 21 0 
L 10.6875 0 
z
" id="DejaVuSans-2e"/>
       <path d="M 9.8125 72.90625 
L 51.703125 72.90625 
L 51.703125 64.59375 
L 19.671875 64.59375 
L 19.671875 43.109375 
L 48.578125 43.109375 
L 48.578125 34.8125 
L 19.671875 34.8125 
L 19.671875 0 
L 9.8125 0 
z
" id="DejaVuSans-46"/>
       <path d="M 8.5 21.578125 
L 8.5 54.6875 
L 17.484375 54.6875 
L 17.484375 21.921875 
Q 17.484375 14.15625 20.5 10.265625 
Q 23.53125 6.390625 29.59375 6.390625 
Q 36.859375 6.390625 41.078125 11.03125 
Q 45.3125 15.671875 45.3125 23.6875 
L 45.3125 54.6875 
L 54.296875 54.6875 
L 54.296875 0 
L 45.3125 0 
L 45.3125 8.40625 
Q 42.046875 3.421875 37.71875 1 
Q 33.40625 -1.421875 27.6875 -1.421875 
Q 18.265625 -1.421875 13.375 4.4375 
Q 8.5 10.296875 8.5 21.578125 
z
M 31.109375 56 
z
" id="DejaVuSans-75"/>
       <path d="M 18.3125 70.21875 
L 18.3125 54.6875 
L 36.8125 54.6875 
L 36.8125 47.703125 
L 18.3125 47.703125 
L 18.3125 18.015625 
Q 18.3125 11.328125 20.140625 9.421875 
Q 21.96875 7.515625 27.59375 7.515625 
L 36.8125 7.515625 
L 36.8125 0 
L 27.59375 0 
Q 17.1875 0 13.234375 3.875 
Q 9.28125 7.765625 9.28125 18.015625 
L 9.28125 47.703125 
L 2.6875 47.703125 
L 2.6875 54.6875 
L 9.28125 54.6875 
L 9.28125 70.21875 
z
" id="DejaVuSans-74"/>
       <path d="M 9.8125 72.90625 
L 24.515625 72.90625 
L 43.109375 23.296875 
L 61.8125 72.90625 
L 76.515625 72.90625 
L 76.515625 0 
L 66.890625 0 
L 66.890625 64.015625 
L 48.09375 14.015625 
L 38.1875 14.015625 
L 19.390625 64.015625 
L 19.390625 0 
L 9.8125 0 
z
" id="DejaVuSans-4d"/>
       <path d="M 45.40625 46.390625 
L 45.40625 75.984375 
L 54.390625 75.984375 
L 54.390625 0 
L 45.40625 0 
L 45.40625 8.203125 
Q 42.578125 3.328125 38.25 0.953125 
Q 33.9375 -1.421875 27.875 -1.421875 
Q 17.96875 -1.421875 11.734375 6.484375 
Q 5.515625 14.40625 5.515625 27.296875 
Q 5.515625 40.1875 11.734375 48.09375 
Q 17.96875 56 27.875 56 
Q 33.9375 56 38.25 53.625 
Q 42.578125 51.265625 45.40625 46.390625 
z
M 14.796875 27.296875 
Q 14.796875 17.390625 18.875 11.75 
Q 22.953125 6.109375 30.078125 6.109375 
Q 37.203125 6.109375 41.296875 11.75 
Q 45.40625 17.390625 45.40625 27.296875 
Q 45.40625 37.203125 41.296875 42.84375 
Q 37.203125 48.484375 30.078125 48.484375 
Q 22.953125 48.484375 18.875 42.84375 
Q 14.796875 37.203125 14.796875 27.296875 
z
" id="DejaVuSans-64"/>
       <path d="M 53.515625 70.515625 
L 53.515625 60.890625 
Q 47.90625 63.578125 42.921875 64.890625 
Q 37.9375 66.21875 33.296875 66.21875 
Q 25.25 66.21875 20.875 63.09375 
Q 16.5 59.96875 16.5 54.203125 
Q 16.5 49.359375 19.40625 46.890625 
Q 22.3125 44.4375 30.421875 42.921875 
L 36.375 41.703125 
Q 47.40625 39.59375 52.65625 34.296875 
Q 57.90625 29 57.90625 20.125 
Q 57.90625 9.515625 50.796875 4.046875 
Q 43.703125 -1.421875 29.984375 -1.421875 
Q 24.8125 -1.421875 18.96875 -0.25 
Q 13.140625 0.921875 6.890625 3.21875 
L 6.890625 13.375 
Q 12.890625 10.015625 18.65625 8.296875 
Q 24.421875 6.59375 29.984375 6.59375 
Q 38.421875 6.59375 43.015625 9.90625 
Q 47.609375 13.234375 47.609375 19.390625 
Q 47.609375 24.75 44.3125 27.78125 
Q 41.015625 30.8125 33.5 32.328125 
L 27.484375 33.5 
Q 16.453125 35.6875 11.515625 40.375 
Q 6.59375 45.0625 6.59375 53.421875 
Q 6.59375 63.09375 13.40625 68.65625 
Q 20.21875 74.21875 32.171875 74.21875 
Q 37.3125 74.21875 42.625 73.28125 
Q 47.953125 72.359375 53.515625 70.515625 
z
" id="DejaVuSans-53"/>
      </defs>
      <g transform="translate(72.236779 662.3875)rotate(-90)scale(0.1 -0.1)">
       <use xlink:href="#DejaVuSans-4c"/>
       <use x="55.697266" xlink:href="#DejaVuSans-6f"/>
       <use x="116.878906" xlink:href="#DejaVuSans-77"/>
       <use x="198.666016" xlink:href="#DejaVuSans-65"/>
       <use x="260.189453" xlink:href="#DejaVuSans-6c"/>
       <use x="287.972656" xlink:href="#DejaVuSans-6c"/>
       <use x="315.755859" xlink:href="#DejaVuSans-20"/>
       <use x="347.542969" xlink:href="#DejaVuSans-2d"/>
       <use x="383.626953" xlink:href="#DejaVuSans-20"/>
       <use x="415.414062" xlink:href="#DejaVuSans-42"/>
       <use x="484.017578" xlink:href="#DejaVuSans-2e"/>
       <use x="515.804688" xlink:href="#DejaVuSans-46"/>
       <use x="573.074219" xlink:href="#DejaVuSans-2e"/>
       <use x="604.861328" xlink:href="#DejaVuSans-20"/>
       <use x="636.648438" xlink:href="#DejaVuSans-42"/>
       <use x="705.251953" xlink:href="#DejaVuSans-75"/>
       <use x="768.630859" xlink:href="#DejaVuSans-74"/>
       <use x="807.839844" xlink:href="#DejaVuSans-6c"/>
       <use x="835.623047" xlink:href="#DejaVuSans-65"/>
       <use x="897.146484" xlink:href="#DejaVuSans-72"/>
       <use x="938.259766" xlink:href="#DejaVuSans-20"/>
       <use x="970.046875" xlink:href="#DejaVuSans-4d"/>
       <use x="1056.326172" xlink:href="#DejaVuSans-69"/>
       <use x="1084.109375" xlink:href="#DejaVuSans-64"/>
       <use x="1147.585938" xlink:href="#DejaVuSans-64"/>
       <use x="1211.0625" xlink:href="#DejaVuSans-6c"/>
       <use x="1238.845703" xlink:href="#DejaVuSans-65"/>
       <use x="1300.369141" xlink:href="#DejaVuSans-20"/>
       <use x="1332.15625" xlink:href="#DejaVuSans-53"/>
       <use x="1395.632812" xlink:href="#DejaVuSans-63"/>
       <use x="1450.613281" xlink:href="#DejaVuSans-68"/>
       <use x="1513.992188" xlink:href="#DejaVuSans-6f"/>
       <use x="1575.173828" xlink:href="#DejaVuSans-6f"/>
       <use x="1636.355469" xlink:href="#DejaVuSans-6c"/>
      </g>
     </g>
    </g>
    <g id="xtick_3">
     <g id="line2d_3">
      <g>
       <use style="stroke:#000000;stroke-width:0.8;" x="95.445673" xlink:href="#m92a40f8865" y="488.973437"/>
      </g>
     </g>
     <g id="text_3">
      <!-- Lowell - Bartlett Community Partnership -->
      <defs>
       <path d="M 64.40625 67.28125 
L 64.40625 56.890625 
Q 59.421875 61.53125 53.78125 63.8125 
Q 48.140625 66.109375 41.796875 66.109375 
Q 29.296875 66.109375 22.65625 58.46875 
Q 16.015625 50.828125 16.015625 36.375 
Q 16.015625 21.96875 22.65625 14.328125 
Q 29.296875 6.6875 41.796875 6.6875 
Q 48.140625 6.6875 53.78125 8.984375 
Q 59.421875 11.28125 64.40625 15.921875 
L 64.40625 5.609375 
Q 59.234375 2.09375 53.4375 0.328125 
Q 47.65625 -1.421875 41.21875 -1.421875 
Q 24.65625 -1.421875 15.125 8.703125 
Q 5.609375 18.84375 5.609375 36.375 
Q 5.609375 53.953125 15.125 64.078125 
Q 24.65625 74.21875 41.21875 74.21875 
Q 47.75 74.21875 53.53125 72.484375 
Q 59.328125 70.75 64.40625 67.28125 
z
" id="DejaVuSans-43"/>
       <path d="M 32.171875 -5.078125 
Q 28.375 -14.84375 24.75 -17.8125 
Q 21.140625 -20.796875 15.09375 -20.796875 
L 7.90625 -20.796875 
L 7.90625 -13.28125 
L 13.1875 -13.28125 
Q 16.890625 -13.28125 18.9375 -11.515625 
Q 21 -9.765625 23.484375 -3.21875 
L 25.09375 0.875 
L 2.984375 54.6875 
L 12.5 54.6875 
L 29.59375 11.921875 
L 46.6875 54.6875 
L 56.203125 54.6875 
z
" id="DejaVuSans-79"/>
       <path d="M 19.671875 64.796875 
L 19.671875 37.40625 
L 32.078125 37.40625 
Q 38.96875 37.40625 42.71875 40.96875 
Q 46.484375 44.53125 46.484375 51.125 
Q 46.484375 57.671875 42.71875 61.234375 
Q 38.96875 64.796875 32.078125 64.796875 
z
M 9.8125 72.90625 
L 32.078125 72.90625 
Q 44.34375 72.90625 50.609375 67.359375 
Q 56.890625 61.8125 56.890625 51.125 
Q 56.890625 40.328125 50.609375 34.8125 
Q 44.34375 29.296875 32.078125 29.296875 
L 19.671875 29.296875 
L 19.671875 0 
L 9.8125 0 
z
" id="DejaVuSans-50"/>
       <path d="M 44.28125 53.078125 
L 44.28125 44.578125 
Q 40.484375 46.53125 36.375 47.5 
Q 32.28125 48.484375 27.875 48.484375 
Q 21.1875 48.484375 17.84375 46.4375 
Q 14.5 44.390625 14.5 40.28125 
Q 14.5 37.15625 16.890625 35.375 
Q 19.28125 33.59375 26.515625 31.984375 
L 29.59375 31.296875 
Q 39.15625 29.25 43.1875 25.515625 
Q 47.21875 21.78125 47.21875 15.09375 
Q 47.21875 7.46875 41.1875 3.015625 
Q 35.15625 -1.421875 24.609375 -1.421875 
Q 20.21875 -1.421875 15.453125 -0.5625 
Q 10.6875 0.296875 5.421875 2 
L 5.421875 11.28125 
Q 10.40625 8.6875 15.234375 7.390625 
Q 20.0625 6.109375 24.8125 6.109375 
Q 31.15625 6.109375 34.5625 8.28125 
Q 37.984375 10.453125 37.984375 14.40625 
Q 37.984375 18.0625 35.515625 20.015625 
Q 33.0625 21.96875 24.703125 23.78125 
L 21.578125 24.515625 
Q 13.234375 26.265625 9.515625 29.90625 
Q 5.8125 33.546875 5.8125 39.890625 
Q 5.8125 47.609375 11.28125 51.796875 
Q 16.75 56 26.8125 56 
Q 31.78125 56 36.171875 55.265625 
Q 40.578125 54.546875 44.28125 53.078125 
z
" id="DejaVuSans-73"/>
       <path d="M 18.109375 8.203125 
L 18.109375 -20.796875 
L 9.078125 -20.796875 
L 9.078125 54.6875 
L 18.109375 54.6875 
L 18.109375 46.390625 
Q 20.953125 51.265625 25.265625 53.625 
Q 29.59375 56 35.59375 56 
Q 45.5625 56 51.78125 48.09375 
Q 58.015625 40.1875 58.015625 27.296875 
Q 58.015625 14.40625 51.78125 6.484375 
Q 45.5625 -1.421875 35.59375 -1.421875 
Q 29.59375 -1.421875 25.265625 0.953125 
Q 20.953125 3.328125 18.109375 8.203125 
z
M 48.6875 27.296875 
Q 48.6875 37.203125 44.609375 42.84375 
Q 40.53125 48.484375 33.40625 48.484375 
Q 26.265625 48.484375 22.1875 42.84375 
Q 18.109375 37.203125 18.109375 27.296875 
Q 18.109375 17.390625 22.1875 11.75 
Q 26.265625 6.109375 33.40625 6.109375 
Q 40.53125 6.109375 44.609375 11.75 
Q 48.6875 17.390625 48.6875 27.296875 
z
" id="DejaVuSans-70"/>
      </defs>
      <g transform="translate(98.205048 696.995312)rotate(-90)scale(0.1 -0.1)">
       <use xlink:href="#DejaVuSans-4c"/>
       <use x="55.697266" xlink:href="#DejaVuSans-6f"/>
       <use x="116.878906" xlink:href="#DejaVuSans-77"/>
       <use x="198.666016" xlink:href="#DejaVuSans-65"/>
       <use x="260.189453" xlink:href="#DejaVuSans-6c"/>
       <use x="287.972656" xlink:href="#DejaVuSans-6c"/>
       <use x="315.755859" xlink:href="#DejaVuSans-20"/>
       <use x="347.542969" xlink:href="#DejaVuSans-2d"/>
       <use x="383.626953" xlink:href="#DejaVuSans-20"/>
       <use x="415.414062" xlink:href="#DejaVuSans-42"/>
       <use x="484.017578" xlink:href="#DejaVuSans-61"/>
       <use x="545.296875" xlink:href="#DejaVuSans-72"/>
       <use x="586.410156" xlink:href="#DejaVuSans-74"/>
       <use x="625.619141" xlink:href="#DejaVuSans-6c"/>
       <use x="653.402344" xlink:href="#DejaVuSans-65"/>
       <use x="714.925781" xlink:href="#DejaVuSans-74"/>
       <use x="754.134766" xlink:href="#DejaVuSans-74"/>
       <use x="793.34375" xlink:href="#DejaVuSans-20"/>
       <use x="825.130859" xlink:href="#DejaVuSans-43"/>
       <use x="894.955078" xlink:href="#DejaVuSans-6f"/>
       <use x="956.136719" xlink:href="#DejaVuSans-6d"/>
       <use x="1053.548828" xlink:href="#DejaVuSans-6d"/>
       <use x="1150.960938" xlink:href="#DejaVuSans-75"/>
       <use x="1214.339844" xlink:href="#DejaVuSans-6e"/>
       <use x="1277.71875" xlink:href="#DejaVuSans-69"/>
       <use x="1305.501953" xlink:href="#DejaVuSans-74"/>
       <use x="1344.710938" xlink:href="#DejaVuSans-79"/>
       <use x="1403.890625" xlink:href="#DejaVuSans-20"/>
       <use x="1435.677734" xlink:href="#DejaVuSans-50"/>
       <use x="1495.917969" xlink:href="#DejaVuSans-61"/>
       <use x="1557.197266" xlink:href="#DejaVuSans-72"/>
       <use x="1598.310547" xlink:href="#DejaVuSans-74"/>
       <use x="1637.519531" xlink:href="#DejaVuSans-6e"/>
       <use x="1700.898438" xlink:href="#DejaVuSans-65"/>
       <use x="1762.421875" xlink:href="#DejaVuSans-72"/>
       <use x="1803.535156" xlink:href="#DejaVuSans-73"/>
       <use x="1855.634766" xlink:href="#DejaVuSans-68"/>
       <use x="1919.013672" xlink:href="#DejaVuSans-69"/>
       <use x="1946.796875" xlink:href="#DejaVuSans-70"/>
      </g>
     </g>
    </g>
    <g id="xtick_4">
     <g id="line2d_4">
      <g>
       <use style="stroke:#000000;stroke-width:0.8;" x="121.413942" xlink:href="#m92a40f8865" y="488.973437"/>
      </g>
     </g>
     <g id="text_4">
      <!-- Lowell - Charles W Morey -->
      <defs>
       <path d="M 3.328125 72.90625 
L 13.28125 72.90625 
L 28.609375 11.28125 
L 43.890625 72.90625 
L 54.984375 72.90625 
L 70.3125 11.28125 
L 85.59375 72.90625 
L 95.609375 72.90625 
L 77.296875 0 
L 64.890625 0 
L 49.515625 63.28125 
L 33.984375 0 
L 21.578125 0 
z
" id="DejaVuSans-57"/>
      </defs>
      <g transform="translate(124.173317 622.384375)rotate(-90)scale(0.1 -0.1)">
       <use xlink:href="#DejaVuSans-4c"/>
       <use x="55.697266" xlink:href="#DejaVuSans-6f"/>
       <use x="116.878906" xlink:href="#DejaVuSans-77"/>
       <use x="198.666016" xlink:href="#DejaVuSans-65"/>
       <use x="260.189453" xlink:href="#DejaVuSans-6c"/>
       <use x="287.972656" xlink:href="#DejaVuSans-6c"/>
       <use x="315.755859" xlink:href="#DejaVuSans-20"/>
       <use x="347.542969" xlink:href="#DejaVuSans-2d"/>
       <use x="383.626953" xlink:href="#DejaVuSans-20"/>
       <use x="415.414062" xlink:href="#DejaVuSans-43"/>
       <use x="485.238281" xlink:href="#DejaVuSans-68"/>
       <use x="548.617188" xlink:href="#DejaVuSans-61"/>
       <use x="609.896484" xlink:href="#DejaVuSans-72"/>
       <use x="651.009766" xlink:href="#DejaVuSans-6c"/>
       <use x="678.792969" xlink:href="#DejaVuSans-65"/>
       <use x="740.316406" xlink:href="#DejaVuSans-73"/>
       <use x="792.416016" xlink:href="#DejaVuSans-20"/>
       <use x="824.203125" xlink:href="#DejaVuSans-57"/>
       <use x="923.080078" xlink:href="#DejaVuSans-20"/>
       <use x="954.867188" xlink:href="#DejaVuSans-4d"/>
       <use x="1041.146484" xlink:href="#DejaVuSans-6f"/>
       <use x="1102.328125" xlink:href="#DejaVuSans-72"/>
       <use x="1143.410156" xlink:href="#DejaVuSans-65"/>
       <use x="1204.933594" xlink:href="#DejaVuSans-79"/>
      </g>
     </g>
    </g>
    <g id="xtick_5">
     <g id="line2d_5">
      <g>
       <use style="stroke:#000000;stroke-width:0.8;" x="147.382212" xlink:href="#m92a40f8865" y="488.973437"/>
      </g>
     </g>
     <g id="text_5">
      <!-- Lowell - Charlotte M Murkland Elementary -->
      <defs>
       <path d="M 9.078125 75.984375 
L 18.109375 75.984375 
L 18.109375 31.109375 
L 44.921875 54.6875 
L 56.390625 54.6875 
L 27.390625 29.109375 
L 57.625 0 
L 45.90625 0 
L 18.109375 26.703125 
L 18.109375 0 
L 9.078125 0 
z
" id="DejaVuSans-6b"/>
       <path d="M 9.8125 72.90625 
L 55.90625 72.90625 
L 55.90625 64.59375 
L 19.671875 64.59375 
L 19.671875 43.015625 
L 54.390625 43.015625 
L 54.390625 34.71875 
L 19.671875 34.71875 
L 19.671875 8.296875 
L 56.78125 8.296875 
L 56.78125 0 
L 9.8125 0 
z
" id="DejaVuSans-45"/>
      </defs>
      <g transform="translate(150.141587 706.145313)rotate(-90)scale(0.1 -0.1)">
       <use xlink:href="#DejaVuSans-4c"/>
       <use x="55.697266" xlink:href="#DejaVuSans-6f"/>
       <use x="116.878906" xlink:href="#DejaVuSans-77"/>
       <use x="198.666016" xlink:href="#DejaVuSans-65"/>
       <use x="260.189453" xlink:href="#DejaVuSans-6c"/>
       <use x="287.972656" xlink:href="#DejaVuSans-6c"/>
       <use x="315.755859" xlink:href="#DejaVuSans-20"/>
       <use x="347.542969" xlink:href="#DejaVuSans-2d"/>
       <use x="383.626953" xlink:href="#DejaVuSans-20"/>
       <use x="415.414062" xlink:href="#DejaVuSans-43"/>
       <use x="485.238281" xlink:href="#DejaVuSans-68"/>
       <use x="548.617188" xlink:href="#DejaVuSans-61"/>
       <use x="609.896484" xlink:href="#DejaVuSans-72"/>
       <use x="651.009766" xlink:href="#DejaVuSans-6c"/>
       <use x="678.792969" xlink:href="#DejaVuSans-6f"/>
       <use x="739.974609" xlink:href="#DejaVuSans-74"/>
       <use x="779.183594" xlink:href="#DejaVuSans-74"/>
       <use x="818.392578" xlink:href="#DejaVuSans-65"/>
       <use x="879.916016" xlink:href="#DejaVuSans-20"/>
       <use x="911.703125" xlink:href="#DejaVuSans-4d"/>
       <use x="997.982422" xlink:href="#DejaVuSans-20"/>
       <use x="1029.769531" xlink:href="#DejaVuSans-4d"/>
       <use x="1116.048828" xlink:href="#DejaVuSans-75"/>
       <use x="1179.427734" xlink:href="#DejaVuSans-72"/>
       <use x="1220.541016" xlink:href="#DejaVuSans-6b"/>
       <use x="1278.451172" xlink:href="#DejaVuSans-6c"/>
       <use x="1306.234375" xlink:href="#DejaVuSans-61"/>
       <use x="1367.513672" xlink:href="#DejaVuSans-6e"/>
       <use x="1430.892578" xlink:href="#DejaVuSans-64"/>
       <use x="1494.369141" xlink:href="#DejaVuSans-20"/>
       <use x="1526.15625" xlink:href="#DejaVuSans-45"/>
       <use x="1589.339844" xlink:href="#DejaVuSans-6c"/>
       <use x="1617.123047" xlink:href="#DejaVuSans-65"/>
       <use x="1678.646484" xlink:href="#DejaVuSans-6d"/>
       <use x="1776.058594" xlink:href="#DejaVuSans-65"/>
       <use x="1837.582031" xlink:href="#DejaVuSans-6e"/>
       <use x="1900.960938" xlink:href="#DejaVuSans-74"/>
       <use x="1940.169922" xlink:href="#DejaVuSans-61"/>
       <use x="2001.449219" xlink:href="#DejaVuSans-72"/>
       <use x="2042.5625" xlink:href="#DejaVuSans-79"/>
      </g>
     </g>
    </g>
    <g id="xtick_6">
     <g id="line2d_6">
      <g>
       <use style="stroke:#000000;stroke-width:0.8;" x="173.350481" xlink:href="#m92a40f8865" y="488.973437"/>
      </g>
     </g>
     <g id="text_6">
      <!-- Lowell - Dr An Wang School -->
      <defs>
       <path d="M 19.671875 64.796875 
L 19.671875 8.109375 
L 31.59375 8.109375 
Q 46.6875 8.109375 53.6875 14.9375 
Q 60.6875 21.78125 60.6875 36.53125 
Q 60.6875 51.171875 53.6875 57.984375 
Q 46.6875 64.796875 31.59375 64.796875 
z
M 9.8125 72.90625 
L 30.078125 72.90625 
Q 51.265625 72.90625 61.171875 64.09375 
Q 71.09375 55.28125 71.09375 36.53125 
Q 71.09375 17.671875 61.125 8.828125 
Q 51.171875 0 30.078125 0 
L 9.8125 0 
z
" id="DejaVuSans-44"/>
       <path d="M 45.40625 27.984375 
Q 45.40625 37.75 41.375 43.109375 
Q 37.359375 48.484375 30.078125 48.484375 
Q 22.859375 48.484375 18.828125 43.109375 
Q 14.796875 37.75 14.796875 27.984375 
Q 14.796875 18.265625 18.828125 12.890625 
Q 22.859375 7.515625 30.078125 7.515625 
Q 37.359375 7.515625 41.375 12.890625 
Q 45.40625 18.265625 45.40625 27.984375 
z
M 54.390625 6.78125 
Q 54.390625 -7.171875 48.1875 -13.984375 
Q 42 -20.796875 29.203125 -20.796875 
Q 24.46875 -20.796875 20.265625 -20.09375 
Q 16.0625 -19.390625 12.109375 -17.921875 
L 12.109375 -9.1875 
Q 16.0625 -11.328125 19.921875 -12.34375 
Q 23.78125 -13.375 27.78125 -13.375 
Q 36.625 -13.375 41.015625 -8.765625 
Q 45.40625 -4.15625 45.40625 5.171875 
L 45.40625 9.625 
Q 42.625 4.78125 38.28125 2.390625 
Q 33.9375 0 27.875 0 
Q 17.828125 0 11.671875 7.65625 
Q 5.515625 15.328125 5.515625 27.984375 
Q 5.515625 40.671875 11.671875 48.328125 
Q 17.828125 56 27.875 56 
Q 33.9375 56 38.28125 53.609375 
Q 42.625 51.21875 45.40625 46.390625 
L 45.40625 54.6875 
L 54.390625 54.6875 
z
" id="DejaVuSans-67"/>
      </defs>
      <g transform="translate(176.109856 633.929688)rotate(-90)scale(0.1 -0.1)">
       <use xlink:href="#DejaVuSans-4c"/>
       <use x="55.697266" xlink:href="#DejaVuSans-6f"/>
       <use x="116.878906" xlink:href="#DejaVuSans-77"/>
       <use x="198.666016" xlink:href="#DejaVuSans-65"/>
       <use x="260.189453" xlink:href="#DejaVuSans-6c"/>
       <use x="287.972656" xlink:href="#DejaVuSans-6c"/>
       <use x="315.755859" xlink:href="#DejaVuSans-20"/>
       <use x="347.542969" xlink:href="#DejaVuSans-2d"/>
       <use x="383.626953" xlink:href="#DejaVuSans-20"/>
       <use x="415.414062" xlink:href="#DejaVuSans-44"/>
       <use x="492.416016" xlink:href="#DejaVuSans-72"/>
       <use x="533.529297" xlink:href="#DejaVuSans-20"/>
       <use x="565.316406" xlink:href="#DejaVuSans-41"/>
       <use x="633.724609" xlink:href="#DejaVuSans-6e"/>
       <use x="697.103516" xlink:href="#DejaVuSans-20"/>
       <use x="728.890625" xlink:href="#DejaVuSans-57"/>
       <use x="827.673828" xlink:href="#DejaVuSans-61"/>
       <use x="888.953125" xlink:href="#DejaVuSans-6e"/>
       <use x="952.332031" xlink:href="#DejaVuSans-67"/>
       <use x="1015.808594" xlink:href="#DejaVuSans-20"/>
       <use x="1047.595703" xlink:href="#DejaVuSans-53"/>
       <use x="1111.072266" xlink:href="#DejaVuSans-63"/>
       <use x="1166.052734" xlink:href="#DejaVuSans-68"/>
       <use x="1229.431641" xlink:href="#DejaVuSans-6f"/>
       <use x="1290.613281" xlink:href="#DejaVuSans-6f"/>
       <use x="1351.794922" xlink:href="#DejaVuSans-6c"/>
      </g>
     </g>
    </g>
    <g id="xtick_7">
     <g id="line2d_7">
      <g>
       <use style="stroke:#000000;stroke-width:0.8;" x="199.31875" xlink:href="#m92a40f8865" y="488.973437"/>
      </g>
     </g>
     <g id="text_7">
      <!-- Lowell - Dr Gertrude Bailey -->
      <defs>
       <path d="M 59.515625 10.40625 
L 59.515625 29.984375 
L 43.40625 29.984375 
L 43.40625 38.09375 
L 69.28125 38.09375 
L 69.28125 6.78125 
Q 63.578125 2.734375 56.6875 0.65625 
Q 49.8125 -1.421875 42 -1.421875 
Q 24.90625 -1.421875 15.25 8.5625 
Q 5.609375 18.5625 5.609375 36.375 
Q 5.609375 54.25 15.25 64.234375 
Q 24.90625 74.21875 42 74.21875 
Q 49.125 74.21875 55.546875 72.453125 
Q 61.96875 70.703125 67.390625 67.28125 
L 67.390625 56.78125 
Q 61.921875 61.421875 55.765625 63.765625 
Q 49.609375 66.109375 42.828125 66.109375 
Q 29.4375 66.109375 22.71875 58.640625 
Q 16.015625 51.171875 16.015625 36.375 
Q 16.015625 21.625 22.71875 14.15625 
Q 29.4375 6.6875 42.828125 6.6875 
Q 48.046875 6.6875 52.140625 7.59375 
Q 56.25 8.5 59.515625 10.40625 
z
" id="DejaVuSans-47"/>
      </defs>
      <g transform="translate(202.078125 631.18125)rotate(-90)scale(0.1 -0.1)">
       <use xlink:href="#DejaVuSans-4c"/>
       <use x="55.697266" xlink:href="#DejaVuSans-6f"/>
       <use x="116.878906" xlink:href="#DejaVuSans-77"/>
       <use x="198.666016" xlink:href="#DejaVuSans-65"/>
       <use x="260.189453" xlink:href="#DejaVuSans-6c"/>
       <use x="287.972656" xlink:href="#DejaVuSans-6c"/>
       <use x="315.755859" xlink:href="#DejaVuSans-20"/>
       <use x="347.542969" xlink:href="#DejaVuSans-2d"/>
       <use x="383.626953" xlink:href="#DejaVuSans-20"/>
       <use x="415.414062" xlink:href="#DejaVuSans-44"/>
       <use x="492.416016" xlink:href="#DejaVuSans-72"/>
       <use x="533.529297" xlink:href="#DejaVuSans-20"/>
       <use x="565.316406" xlink:href="#DejaVuSans-47"/>
       <use x="642.806641" xlink:href="#DejaVuSans-65"/>
       <use x="704.330078" xlink:href="#DejaVuSans-72"/>
       <use x="745.443359" xlink:href="#DejaVuSans-74"/>
       <use x="784.652344" xlink:href="#DejaVuSans-72"/>
       <use x="825.765625" xlink:href="#DejaVuSans-75"/>
       <use x="889.144531" xlink:href="#DejaVuSans-64"/>
       <use x="952.621094" xlink:href="#DejaVuSans-65"/>
       <use x="1014.144531" xlink:href="#DejaVuSans-20"/>
       <use x="1045.931641" xlink:href="#DejaVuSans-42"/>
       <use x="1114.535156" xlink:href="#DejaVuSans-61"/>
       <use x="1175.814453" xlink:href="#DejaVuSans-69"/>
       <use x="1203.597656" xlink:href="#DejaVuSans-6c"/>
       <use x="1231.380859" xlink:href="#DejaVuSans-65"/>
       <use x="1292.904297" xlink:href="#DejaVuSans-79"/>
      </g>
     </g>
    </g>
    <g id="xtick_8">
     <g id="line2d_8">
      <g>
       <use style="stroke:#000000;stroke-width:0.8;" x="225.287019" xlink:href="#m92a40f8865" y="488.973437"/>
      </g>
     </g>
     <g id="text_8">
      <!-- Lowell - Greenhalge -->
      <g transform="translate(228.046394 595.759375)rotate(-90)scale(0.1 -0.1)">
       <use xlink:href="#DejaVuSans-4c"/>
       <use x="55.697266" xlink:href="#DejaVuSans-6f"/>
       <use x="116.878906" xlink:href="#DejaVuSans-77"/>
       <use x="198.666016" xlink:href="#DejaVuSans-65"/>
       <use x="260.189453" xlink:href="#DejaVuSans-6c"/>
       <use x="287.972656" xlink:href="#DejaVuSans-6c"/>
       <use x="315.755859" xlink:href="#DejaVuSans-20"/>
       <use x="347.542969" xlink:href="#DejaVuSans-2d"/>
       <use x="383.626953" xlink:href="#DejaVuSans-20"/>
       <use x="415.414062" xlink:href="#DejaVuSans-47"/>
       <use x="492.904297" xlink:href="#DejaVuSans-72"/>
       <use x="533.986328" xlink:href="#DejaVuSans-65"/>
       <use x="595.509766" xlink:href="#DejaVuSans-65"/>
       <use x="657.033203" xlink:href="#DejaVuSans-6e"/>
       <use x="720.412109" xlink:href="#DejaVuSans-68"/>
       <use x="783.791016" xlink:href="#DejaVuSans-61"/>
       <use x="845.070312" xlink:href="#DejaVuSans-6c"/>
       <use x="872.853516" xlink:href="#DejaVuSans-67"/>
       <use x="936.330078" xlink:href="#DejaVuSans-65"/>
      </g>
     </g>
    </g>
    <g id="xtick_9">
     <g id="line2d_9">
      <g>
       <use style="stroke:#000000;stroke-width:0.8;" x="251.255288" xlink:href="#m92a40f8865" y="488.973437"/>
      </g>
     </g>
     <g id="text_9">
      <!-- Lowell - Henry J Robinson Middle -->
      <defs>
       <path d="M 9.8125 72.90625 
L 19.671875 72.90625 
L 19.671875 43.015625 
L 55.515625 43.015625 
L 55.515625 72.90625 
L 65.375 72.90625 
L 65.375 0 
L 55.515625 0 
L 55.515625 34.71875 
L 19.671875 34.71875 
L 19.671875 0 
L 9.8125 0 
z
" id="DejaVuSans-48"/>
       <path d="M 9.8125 72.90625 
L 19.671875 72.90625 
L 19.671875 5.078125 
Q 19.671875 -8.109375 14.671875 -14.0625 
Q 9.671875 -20.015625 -1.421875 -20.015625 
L -5.171875 -20.015625 
L -5.171875 -11.71875 
L -2.09375 -11.71875 
Q 4.4375 -11.71875 7.125 -8.046875 
Q 9.8125 -4.390625 9.8125 5.078125 
z
" id="DejaVuSans-4a"/>
       <path d="M 44.390625 34.1875 
Q 47.5625 33.109375 50.5625 29.59375 
Q 53.5625 26.078125 56.59375 19.921875 
L 66.609375 0 
L 56 0 
L 46.6875 18.703125 
Q 43.0625 26.03125 39.671875 28.421875 
Q 36.28125 30.8125 30.421875 30.8125 
L 19.671875 30.8125 
L 19.671875 0 
L 9.8125 0 
L 9.8125 72.90625 
L 32.078125 72.90625 
Q 44.578125 72.90625 50.734375 67.671875 
Q 56.890625 62.453125 56.890625 51.90625 
Q 56.890625 45.015625 53.6875 40.46875 
Q 50.484375 35.9375 44.390625 34.1875 
z
M 19.671875 64.796875 
L 19.671875 38.921875 
L 32.078125 38.921875 
Q 39.203125 38.921875 42.84375 42.21875 
Q 46.484375 45.515625 46.484375 51.90625 
Q 46.484375 58.296875 42.84375 61.546875 
Q 39.203125 64.796875 32.078125 64.796875 
z
" id="DejaVuSans-52"/>
      </defs>
      <g transform="translate(254.014663 659.264063)rotate(-90)scale(0.1 -0.1)">
       <use xlink:href="#DejaVuSans-4c"/>
       <use x="55.697266" xlink:href="#DejaVuSans-6f"/>
       <use x="116.878906" xlink:href="#DejaVuSans-77"/>
       <use x="198.666016" xlink:href="#DejaVuSans-65"/>
       <use x="260.189453" xlink:href="#DejaVuSans-6c"/>
       <use x="287.972656" xlink:href="#DejaVuSans-6c"/>
       <use x="315.755859" xlink:href="#DejaVuSans-20"/>
       <use x="347.542969" xlink:href="#DejaVuSans-2d"/>
       <use x="383.626953" xlink:href="#DejaVuSans-20"/>
       <use x="415.414062" xlink:href="#DejaVuSans-48"/>
       <use x="490.609375" xlink:href="#DejaVuSans-65"/>
       <use x="552.132812" xlink:href="#DejaVuSans-6e"/>
       <use x="615.511719" xlink:href="#DejaVuSans-72"/>
       <use x="656.625" xlink:href="#DejaVuSans-79"/>
       <use x="715.804688" xlink:href="#DejaVuSans-20"/>
       <use x="747.591797" xlink:href="#DejaVuSans-4a"/>
       <use x="777.083984" xlink:href="#DejaVuSans-20"/>
       <use x="808.871094" xlink:href="#DejaVuSans-52"/>
       <use x="878.291016" xlink:href="#DejaVuSans-6f"/>
       <use x="939.472656" xlink:href="#DejaVuSans-62"/>
       <use x="1002.949219" xlink:href="#DejaVuSans-69"/>
       <use x="1030.732422" xlink:href="#DejaVuSans-6e"/>
       <use x="1094.111328" xlink:href="#DejaVuSans-73"/>
       <use x="1146.210938" xlink:href="#DejaVuSans-6f"/>
       <use x="1207.392578" xlink:href="#DejaVuSans-6e"/>
       <use x="1270.771484" xlink:href="#DejaVuSans-20"/>
       <use x="1302.558594" xlink:href="#DejaVuSans-4d"/>
       <use x="1388.837891" xlink:href="#DejaVuSans-69"/>
       <use x="1416.621094" xlink:href="#DejaVuSans-64"/>
       <use x="1480.097656" xlink:href="#DejaVuSans-64"/>
       <use x="1543.574219" xlink:href="#DejaVuSans-6c"/>
       <use x="1571.357422" xlink:href="#DejaVuSans-65"/>
      </g>
     </g>
    </g>
    <g id="xtick_10">
     <g id="line2d_10">
      <g>
       <use style="stroke:#000000;stroke-width:0.8;" x="277.223558" xlink:href="#m92a40f8865" y="488.973437"/>
      </g>
     </g>
     <g id="text_10">
      <!-- Lowell - James S Daley Middle School -->
      <g transform="translate(279.982933 681.66875)rotate(-90)scale(0.1 -0.1)">
       <use xlink:href="#DejaVuSans-4c"/>
       <use x="55.697266" xlink:href="#DejaVuSans-6f"/>
       <use x="116.878906" xlink:href="#DejaVuSans-77"/>
       <use x="198.666016" xlink:href="#DejaVuSans-65"/>
       <use x="260.189453" xlink:href="#DejaVuSans-6c"/>
       <use x="287.972656" xlink:href="#DejaVuSans-6c"/>
       <use x="315.755859" xlink:href="#DejaVuSans-20"/>
       <use x="347.542969" xlink:href="#DejaVuSans-2d"/>
       <use x="383.626953" xlink:href="#DejaVuSans-20"/>
       <use x="415.414062" xlink:href="#DejaVuSans-4a"/>
       <use x="444.90625" xlink:href="#DejaVuSans-61"/>
       <use x="506.185547" xlink:href="#DejaVuSans-6d"/>
       <use x="603.597656" xlink:href="#DejaVuSans-65"/>
       <use x="665.121094" xlink:href="#DejaVuSans-73"/>
       <use x="717.220703" xlink:href="#DejaVuSans-20"/>
       <use x="749.007812" xlink:href="#DejaVuSans-53"/>
       <use x="812.484375" xlink:href="#DejaVuSans-20"/>
       <use x="844.271484" xlink:href="#DejaVuSans-44"/>
       <use x="921.273438" xlink:href="#DejaVuSans-61"/>
       <use x="982.552734" xlink:href="#DejaVuSans-6c"/>
       <use x="1010.335938" xlink:href="#DejaVuSans-65"/>
       <use x="1071.859375" xlink:href="#DejaVuSans-79"/>
       <use x="1131.039062" xlink:href="#DejaVuSans-20"/>
       <use x="1162.826172" xlink:href="#DejaVuSans-4d"/>
       <use x="1249.105469" xlink:href="#DejaVuSans-69"/>
       <use x="1276.888672" xlink:href="#DejaVuSans-64"/>
       <use x="1340.365234" xlink:href="#DejaVuSans-64"/>
       <use x="1403.841797" xlink:href="#DejaVuSans-6c"/>
       <use x="1431.625" xlink:href="#DejaVuSans-65"/>
       <use x="1493.148438" xlink:href="#DejaVuSans-20"/>
       <use x="1524.935547" xlink:href="#DejaVuSans-53"/>
       <use x="1588.412109" xlink:href="#DejaVuSans-63"/>
       <use x="1643.392578" xlink:href="#DejaVuSans-68"/>
       <use x="1706.771484" xlink:href="#DejaVuSans-6f"/>
       <use x="1767.953125" xlink:href="#DejaVuSans-6f"/>
       <use x="1829.134766" xlink:href="#DejaVuSans-6c"/>
      </g>
     </g>
    </g>
    <g id="xtick_11">
     <g id="line2d_11">
      <g>
       <use style="stroke:#000000;stroke-width:0.8;" x="303.191827" xlink:href="#m92a40f8865" y="488.973437"/>
      </g>
     </g>
     <g id="text_11">
      <!-- Lowell - James Sullivan Middle School -->
      <defs>
       <path d="M 2.984375 54.6875 
L 12.5 54.6875 
L 29.59375 8.796875 
L 46.6875 54.6875 
L 56.203125 54.6875 
L 35.6875 0 
L 23.484375 0 
z
" id="DejaVuSans-76"/>
      </defs>
      <g transform="translate(305.951202 682.86875)rotate(-90)scale(0.1 -0.1)">
       <use xlink:href="#DejaVuSans-4c"/>
       <use x="55.697266" xlink:href="#DejaVuSans-6f"/>
       <use x="116.878906" xlink:href="#DejaVuSans-77"/>
       <use x="198.666016" xlink:href="#DejaVuSans-65"/>
       <use x="260.189453" xlink:href="#DejaVuSans-6c"/>
       <use x="287.972656" xlink:href="#DejaVuSans-6c"/>
       <use x="315.755859" xlink:href="#DejaVuSans-20"/>
       <use x="347.542969" xlink:href="#DejaVuSans-2d"/>
       <use x="383.626953" xlink:href="#DejaVuSans-20"/>
       <use x="415.414062" xlink:href="#DejaVuSans-4a"/>
       <use x="444.90625" xlink:href="#DejaVuSans-61"/>
       <use x="506.185547" xlink:href="#DejaVuSans-6d"/>
       <use x="603.597656" xlink:href="#DejaVuSans-65"/>
       <use x="665.121094" xlink:href="#DejaVuSans-73"/>
       <use x="717.220703" xlink:href="#DejaVuSans-20"/>
       <use x="749.007812" xlink:href="#DejaVuSans-53"/>
       <use x="812.484375" xlink:href="#DejaVuSans-75"/>
       <use x="875.863281" xlink:href="#DejaVuSans-6c"/>
       <use x="903.646484" xlink:href="#DejaVuSans-6c"/>
       <use x="931.429688" xlink:href="#DejaVuSans-69"/>
       <use x="959.212891" xlink:href="#DejaVuSans-76"/>
       <use x="1018.392578" xlink:href="#DejaVuSans-61"/>
       <use x="1079.671875" xlink:href="#DejaVuSans-6e"/>
       <use x="1143.050781" xlink:href="#DejaVuSans-20"/>
       <use x="1174.837891" xlink:href="#DejaVuSans-4d"/>
       <use x="1261.117188" xlink:href="#DejaVuSans-69"/>
       <use x="1288.900391" xlink:href="#DejaVuSans-64"/>
       <use x="1352.376953" xlink:href="#DejaVuSans-64"/>
       <use x="1415.853516" xlink:href="#DejaVuSans-6c"/>
       <use x="1443.636719" xlink:href="#DejaVuSans-65"/>
       <use x="1505.160156" xlink:href="#DejaVuSans-20"/>
       <use x="1536.947266" xlink:href="#DejaVuSans-53"/>
       <use x="1600.423828" xlink:href="#DejaVuSans-63"/>
       <use x="1655.404297" xlink:href="#DejaVuSans-68"/>
       <use x="1718.783203" xlink:href="#DejaVuSans-6f"/>
       <use x="1779.964844" xlink:href="#DejaVuSans-6f"/>
       <use x="1841.146484" xlink:href="#DejaVuSans-6c"/>
      </g>
     </g>
    </g>
    <g id="xtick_12">
     <g id="line2d_12">
      <g>
       <use style="stroke:#000000;stroke-width:0.8;" x="329.160096" xlink:href="#m92a40f8865" y="488.973437"/>
      </g>
     </g>
     <g id="text_12">
      <!-- Lowell - John J Shaughnessy -->
      <g transform="translate(331.919471 635.229687)rotate(-90)scale(0.1 -0.1)">
       <use xlink:href="#DejaVuSans-4c"/>
       <use x="55.697266" xlink:href="#DejaVuSans-6f"/>
       <use x="116.878906" xlink:href="#DejaVuSans-77"/>
       <use x="198.666016" xlink:href="#DejaVuSans-65"/>
       <use x="260.189453" xlink:href="#DejaVuSans-6c"/>
       <use x="287.972656" xlink:href="#DejaVuSans-6c"/>
       <use x="315.755859" xlink:href="#DejaVuSans-20"/>
       <use x="347.542969" xlink:href="#DejaVuSans-2d"/>
       <use x="383.626953" xlink:href="#DejaVuSans-20"/>
       <use x="415.414062" xlink:href="#DejaVuSans-4a"/>
       <use x="444.90625" xlink:href="#DejaVuSans-6f"/>
       <use x="506.087891" xlink:href="#DejaVuSans-68"/>
       <use x="569.466797" xlink:href="#DejaVuSans-6e"/>
       <use x="632.845703" xlink:href="#DejaVuSans-20"/>
       <use x="664.632812" xlink:href="#DejaVuSans-4a"/>
       <use x="694.125" xlink:href="#DejaVuSans-20"/>
       <use x="725.912109" xlink:href="#DejaVuSans-53"/>
       <use x="789.388672" xlink:href="#DejaVuSans-68"/>
       <use x="852.767578" xlink:href="#DejaVuSans-61"/>
       <use x="914.046875" xlink:href="#DejaVuSans-75"/>
       <use x="977.425781" xlink:href="#DejaVuSans-67"/>
       <use x="1040.902344" xlink:href="#DejaVuSans-68"/>
       <use x="1104.28125" xlink:href="#DejaVuSans-6e"/>
       <use x="1167.660156" xlink:href="#DejaVuSans-65"/>
       <use x="1229.183594" xlink:href="#DejaVuSans-73"/>
       <use x="1281.283203" xlink:href="#DejaVuSans-73"/>
       <use x="1333.382812" xlink:href="#DejaVuSans-79"/>
      </g>
     </g>
    </g>
    <g id="xtick_13">
     <g id="line2d_13">
      <g>
       <use style="stroke:#000000;stroke-width:0.8;" x="355.128365" xlink:href="#m92a40f8865" y="488.973437"/>
      </g>
     </g>
     <g id="text_13">
      <!-- Lowell - Joseph McAvinnue -->
      <g transform="translate(357.88774 628.63125)rotate(-90)scale(0.1 -0.1)">
       <use xlink:href="#DejaVuSans-4c"/>
       <use x="55.697266" xlink:href="#DejaVuSans-6f"/>
       <use x="116.878906" xlink:href="#DejaVuSans-77"/>
       <use x="198.666016" xlink:href="#DejaVuSans-65"/>
       <use x="260.189453" xlink:href="#DejaVuSans-6c"/>
       <use x="287.972656" xlink:href="#DejaVuSans-6c"/>
       <use x="315.755859" xlink:href="#DejaVuSans-20"/>
       <use x="347.542969" xlink:href="#DejaVuSans-2d"/>
       <use x="383.626953" xlink:href="#DejaVuSans-20"/>
       <use x="415.414062" xlink:href="#DejaVuSans-4a"/>
       <use x="444.90625" xlink:href="#DejaVuSans-6f"/>
       <use x="506.087891" xlink:href="#DejaVuSans-73"/>
       <use x="558.1875" xlink:href="#DejaVuSans-65"/>
       <use x="619.710938" xlink:href="#DejaVuSans-70"/>
       <use x="683.1875" xlink:href="#DejaVuSans-68"/>
       <use x="746.566406" xlink:href="#DejaVuSans-20"/>
       <use x="778.353516" xlink:href="#DejaVuSans-4d"/>
       <use x="864.632812" xlink:href="#DejaVuSans-63"/>
       <use x="919.613281" xlink:href="#DejaVuSans-41"/>
       <use x="987.943359" xlink:href="#DejaVuSans-76"/>
       <use x="1047.123047" xlink:href="#DejaVuSans-69"/>
       <use x="1074.90625" xlink:href="#DejaVuSans-6e"/>
       <use x="1138.285156" xlink:href="#DejaVuSans-6e"/>
       <use x="1201.664062" xlink:href="#DejaVuSans-75"/>
       <use x="1265.042969" xlink:href="#DejaVuSans-65"/>
      </g>
     </g>
    </g>
    <g id="xtick_14">
     <g id="line2d_14">
      <g>
       <use style="stroke:#000000;stroke-width:0.8;" x="381.096635" xlink:href="#m92a40f8865" y="488.973437"/>
      </g>
     </g>
     <g id="text_14">
      <!-- Lowell - Kathryn P. Stoklosa Middle School -->
      <defs>
       <path d="M 9.8125 72.90625 
L 19.671875 72.90625 
L 19.671875 42.09375 
L 52.390625 72.90625 
L 65.09375 72.90625 
L 28.90625 38.921875 
L 67.671875 0 
L 54.6875 0 
L 19.671875 35.109375 
L 19.671875 0 
L 9.8125 0 
z
" id="DejaVuSans-4b"/>
      </defs>
      <g transform="translate(383.85601 707.367188)rotate(-90)scale(0.1 -0.1)">
       <use xlink:href="#DejaVuSans-4c"/>
       <use x="55.697266" xlink:href="#DejaVuSans-6f"/>
       <use x="116.878906" xlink:href="#DejaVuSans-77"/>
       <use x="198.666016" xlink:href="#DejaVuSans-65"/>
       <use x="260.189453" xlink:href="#DejaVuSans-6c"/>
       <use x="287.972656" xlink:href="#DejaVuSans-6c"/>
       <use x="315.755859" xlink:href="#DejaVuSans-20"/>
       <use x="347.542969" xlink:href="#DejaVuSans-2d"/>
       <use x="383.626953" xlink:href="#DejaVuSans-20"/>
       <use x="415.414062" xlink:href="#DejaVuSans-4b"/>
       <use x="480.974609" xlink:href="#DejaVuSans-61"/>
       <use x="542.253906" xlink:href="#DejaVuSans-74"/>
       <use x="581.462891" xlink:href="#DejaVuSans-68"/>
       <use x="644.841797" xlink:href="#DejaVuSans-72"/>
       <use x="685.955078" xlink:href="#DejaVuSans-79"/>
       <use x="745.134766" xlink:href="#DejaVuSans-6e"/>
       <use x="808.513672" xlink:href="#DejaVuSans-20"/>
       <use x="840.300781" xlink:href="#DejaVuSans-50"/>
       <use x="900.369141" xlink:href="#DejaVuSans-2e"/>
       <use x="932.15625" xlink:href="#DejaVuSans-20"/>
       <use x="963.943359" xlink:href="#DejaVuSans-53"/>
       <use x="1027.419922" xlink:href="#DejaVuSans-74"/>
       <use x="1066.628906" xlink:href="#DejaVuSans-6f"/>
       <use x="1127.810547" xlink:href="#DejaVuSans-6b"/>
       <use x="1185.720703" xlink:href="#DejaVuSans-6c"/>
       <use x="1213.503906" xlink:href="#DejaVuSans-6f"/>
       <use x="1274.685547" xlink:href="#DejaVuSans-73"/>
       <use x="1326.785156" xlink:href="#DejaVuSans-61"/>
       <use x="1388.064453" xlink:href="#DejaVuSans-20"/>
       <use x="1419.851562" xlink:href="#DejaVuSans-4d"/>
       <use x="1506.130859" xlink:href="#DejaVuSans-69"/>
       <use x="1533.914062" xlink:href="#DejaVuSans-64"/>
       <use x="1597.390625" xlink:href="#DejaVuSans-64"/>
       <use x="1660.867188" xlink:href="#DejaVuSans-6c"/>
       <use x="1688.650391" xlink:href="#DejaVuSans-65"/>
       <use x="1750.173828" xlink:href="#DejaVuSans-20"/>
       <use x="1781.960938" xlink:href="#DejaVuSans-53"/>
       <use x="1845.4375" xlink:href="#DejaVuSans-63"/>
       <use x="1900.417969" xlink:href="#DejaVuSans-68"/>
       <use x="1963.796875" xlink:href="#DejaVuSans-6f"/>
       <use x="2024.978516" xlink:href="#DejaVuSans-6f"/>
       <use x="2086.160156" xlink:href="#DejaVuSans-6c"/>
      </g>
     </g>
    </g>
    <g id="xtick_15">
     <g id="line2d_15">
      <g>
       <use style="stroke:#000000;stroke-width:0.8;" x="407.064904" xlink:href="#m92a40f8865" y="488.973437"/>
      </g>
     </g>
     <g id="text_15">
      <!-- Lowell - Laura Lee Therapeutic Day School -->
      <defs>
       <path d="M -0.296875 72.90625 
L 61.375 72.90625 
L 61.375 64.59375 
L 35.5 64.59375 
L 35.5 0 
L 25.59375 0 
L 25.59375 64.59375 
L -0.296875 64.59375 
z
" id="DejaVuSans-54"/>
      </defs>
      <g transform="translate(409.824279 709.2)rotate(-90)scale(0.1 -0.1)">
       <use xlink:href="#DejaVuSans-4c"/>
       <use x="55.697266" xlink:href="#DejaVuSans-6f"/>
       <use x="116.878906" xlink:href="#DejaVuSans-77"/>
       <use x="198.666016" xlink:href="#DejaVuSans-65"/>
       <use x="260.189453" xlink:href="#DejaVuSans-6c"/>
       <use x="287.972656" xlink:href="#DejaVuSans-6c"/>
       <use x="315.755859" xlink:href="#DejaVuSans-20"/>
       <use x="347.542969" xlink:href="#DejaVuSans-2d"/>
       <use x="383.626953" xlink:href="#DejaVuSans-20"/>
       <use x="415.414062" xlink:href="#DejaVuSans-4c"/>
       <use x="471.126953" xlink:href="#DejaVuSans-61"/>
       <use x="532.40625" xlink:href="#DejaVuSans-75"/>
       <use x="595.785156" xlink:href="#DejaVuSans-72"/>
       <use x="636.898438" xlink:href="#DejaVuSans-61"/>
       <use x="698.177734" xlink:href="#DejaVuSans-20"/>
       <use x="729.964844" xlink:href="#DejaVuSans-4c"/>
       <use x="785.662109" xlink:href="#DejaVuSans-65"/>
       <use x="847.185547" xlink:href="#DejaVuSans-65"/>
       <use x="908.708984" xlink:href="#DejaVuSans-20"/>
       <use x="940.496094" xlink:href="#DejaVuSans-54"/>
       <use x="1001.580078" xlink:href="#DejaVuSans-68"/>
       <use x="1064.958984" xlink:href="#DejaVuSans-65"/>
       <use x="1126.482422" xlink:href="#DejaVuSans-72"/>
       <use x="1167.595703" xlink:href="#DejaVuSans-61"/>
       <use x="1228.875" xlink:href="#DejaVuSans-70"/>
       <use x="1292.351562" xlink:href="#DejaVuSans-65"/>
       <use x="1353.875" xlink:href="#DejaVuSans-75"/>
       <use x="1417.253906" xlink:href="#DejaVuSans-74"/>
       <use x="1456.462891" xlink:href="#DejaVuSans-69"/>
       <use x="1484.246094" xlink:href="#DejaVuSans-63"/>
       <use x="1539.226562" xlink:href="#DejaVuSans-20"/>
       <use x="1571.013672" xlink:href="#DejaVuSans-44"/>
       <use x="1648.015625" xlink:href="#DejaVuSans-61"/>
       <use x="1709.294922" xlink:href="#DejaVuSans-79"/>
       <use x="1768.474609" xlink:href="#DejaVuSans-20"/>
       <use x="1800.261719" xlink:href="#DejaVuSans-53"/>
       <use x="1863.738281" xlink:href="#DejaVuSans-63"/>
       <use x="1918.71875" xlink:href="#DejaVuSans-68"/>
       <use x="1982.097656" xlink:href="#DejaVuSans-6f"/>
       <use x="2043.279297" xlink:href="#DejaVuSans-6f"/>
       <use x="2104.460938" xlink:href="#DejaVuSans-6c"/>
      </g>
     </g>
    </g>
    <g id="xtick_16">
     <g id="line2d_16">
      <g>
       <use style="stroke:#000000;stroke-width:0.8;" x="433.033173" xlink:href="#m92a40f8865" y="488.973437"/>
      </g>
     </g>
     <g id="text_16">
      <!-- Lowell - Leblanc Therapeutic Day School -->
      <g transform="translate(435.792548 698.682812)rotate(-90)scale(0.1 -0.1)">
       <use xlink:href="#DejaVuSans-4c"/>
       <use x="55.697266" xlink:href="#DejaVuSans-6f"/>
       <use x="116.878906" xlink:href="#DejaVuSans-77"/>
       <use x="198.666016" xlink:href="#DejaVuSans-65"/>
       <use x="260.189453" xlink:href="#DejaVuSans-6c"/>
       <use x="287.972656" xlink:href="#DejaVuSans-6c"/>
       <use x="315.755859" xlink:href="#DejaVuSans-20"/>
       <use x="347.542969" xlink:href="#DejaVuSans-2d"/>
       <use x="383.626953" xlink:href="#DejaVuSans-20"/>
       <use x="415.414062" xlink:href="#DejaVuSans-4c"/>
       <use x="471.111328" xlink:href="#DejaVuSans-65"/>
       <use x="532.634766" xlink:href="#DejaVuSans-62"/>
       <use x="596.111328" xlink:href="#DejaVuSans-6c"/>
       <use x="623.894531" xlink:href="#DejaVuSans-61"/>
       <use x="685.173828" xlink:href="#DejaVuSans-6e"/>
       <use x="748.552734" xlink:href="#DejaVuSans-63"/>
       <use x="803.533203" xlink:href="#DejaVuSans-20"/>
       <use x="835.320312" xlink:href="#DejaVuSans-54"/>
       <use x="896.404297" xlink:href="#DejaVuSans-68"/>
       <use x="959.783203" xlink:href="#DejaVuSans-65"/>
       <use x="1021.306641" xlink:href="#DejaVuSans-72"/>
       <use x="1062.419922" xlink:href="#DejaVuSans-61"/>
       <use x="1123.699219" xlink:href="#DejaVuSans-70"/>
       <use x="1187.175781" xlink:href="#DejaVuSans-65"/>
       <use x="1248.699219" xlink:href="#DejaVuSans-75"/>
       <use x="1312.078125" xlink:href="#DejaVuSans-74"/>
       <use x="1351.287109" xlink:href="#DejaVuSans-69"/>
       <use x="1379.070312" xlink:href="#DejaVuSans-63"/>
       <use x="1434.050781" xlink:href="#DejaVuSans-20"/>
       <use x="1465.837891" xlink:href="#DejaVuSans-44"/>
       <use x="1542.839844" xlink:href="#DejaVuSans-61"/>
       <use x="1604.119141" xlink:href="#DejaVuSans-79"/>
       <use x="1663.298828" xlink:href="#DejaVuSans-20"/>
       <use x="1695.085938" xlink:href="#DejaVuSans-53"/>
       <use x="1758.5625" xlink:href="#DejaVuSans-63"/>
       <use x="1813.542969" xlink:href="#DejaVuSans-68"/>
       <use x="1876.921875" xlink:href="#DejaVuSans-6f"/>
       <use x="1938.103516" xlink:href="#DejaVuSans-6f"/>
       <use x="1999.285156" xlink:href="#DejaVuSans-6c"/>
      </g>
     </g>
    </g>
    <g id="xtick_17">
     <g id="line2d_17">
      <g>
       <use style="stroke:#000000;stroke-width:0.8;" x="459.001442" xlink:href="#m92a40f8865" y="488.973437"/>
      </g>
     </g>
     <g id="text_17">
      <!-- Lowell - Lowell Day School on Broadway -->
      <g transform="translate(461.760817 696.995312)rotate(-90)scale(0.1 -0.1)">
       <use xlink:href="#DejaVuSans-4c"/>
       <use x="55.697266" xlink:href="#DejaVuSans-6f"/>
       <use x="116.878906" xlink:href="#DejaVuSans-77"/>
       <use x="198.666016" xlink:href="#DejaVuSans-65"/>
       <use x="260.189453" xlink:href="#DejaVuSans-6c"/>
       <use x="287.972656" xlink:href="#DejaVuSans-6c"/>
       <use x="315.755859" xlink:href="#DejaVuSans-20"/>
       <use x="347.542969" xlink:href="#DejaVuSans-2d"/>
       <use x="383.626953" xlink:href="#DejaVuSans-20"/>
       <use x="415.414062" xlink:href="#DejaVuSans-4c"/>
       <use x="471.111328" xlink:href="#DejaVuSans-6f"/>
       <use x="532.292969" xlink:href="#DejaVuSans-77"/>
       <use x="614.080078" xlink:href="#DejaVuSans-65"/>
       <use x="675.603516" xlink:href="#DejaVuSans-6c"/>
       <use x="703.386719" xlink:href="#DejaVuSans-6c"/>
       <use x="731.169922" xlink:href="#DejaVuSans-20"/>
       <use x="762.957031" xlink:href="#DejaVuSans-44"/>
       <use x="839.958984" xlink:href="#DejaVuSans-61"/>
       <use x="901.238281" xlink:href="#DejaVuSans-79"/>
       <use x="960.417969" xlink:href="#DejaVuSans-20"/>
       <use x="992.205078" xlink:href="#DejaVuSans-53"/>
       <use x="1055.681641" xlink:href="#DejaVuSans-63"/>
       <use x="1110.662109" xlink:href="#DejaVuSans-68"/>
       <use x="1174.041016" xlink:href="#DejaVuSans-6f"/>
       <use x="1235.222656" xlink:href="#DejaVuSans-6f"/>
       <use x="1296.404297" xlink:href="#DejaVuSans-6c"/>
       <use x="1324.1875" xlink:href="#DejaVuSans-20"/>
       <use x="1355.974609" xlink:href="#DejaVuSans-6f"/>
       <use x="1417.15625" xlink:href="#DejaVuSans-6e"/>
       <use x="1480.535156" xlink:href="#DejaVuSans-20"/>
       <use x="1512.322266" xlink:href="#DejaVuSans-42"/>
       <use x="1580.925781" xlink:href="#DejaVuSans-72"/>
       <use x="1622.007812" xlink:href="#DejaVuSans-6f"/>
       <use x="1683.189453" xlink:href="#DejaVuSans-61"/>
       <use x="1744.46875" xlink:href="#DejaVuSans-64"/>
       <use x="1807.945312" xlink:href="#DejaVuSans-77"/>
       <use x="1889.732422" xlink:href="#DejaVuSans-61"/>
       <use x="1951.011719" xlink:href="#DejaVuSans-79"/>
      </g>
     </g>
    </g>
    <g id="xtick_18">
     <g id="line2d_18">
      <g>
       <use style="stroke:#000000;stroke-width:0.8;" x="484.969712" xlink:href="#m92a40f8865" y="488.973437"/>
      </g>
     </g>
     <g id="text_18">
      <!-- Lowell - Lowell High -->
      <g transform="translate(487.729087 595.253125)rotate(-90)scale(0.1 -0.1)">
       <use xlink:href="#DejaVuSans-4c"/>
       <use x="55.697266" xlink:href="#DejaVuSans-6f"/>
       <use x="116.878906" xlink:href="#DejaVuSans-77"/>
       <use x="198.666016" xlink:href="#DejaVuSans-65"/>
       <use x="260.189453" xlink:href="#DejaVuSans-6c"/>
       <use x="287.972656" xlink:href="#DejaVuSans-6c"/>
       <use x="315.755859" xlink:href="#DejaVuSans-20"/>
       <use x="347.542969" xlink:href="#DejaVuSans-2d"/>
       <use x="383.626953" xlink:href="#DejaVuSans-20"/>
       <use x="415.414062" xlink:href="#DejaVuSans-4c"/>
       <use x="471.111328" xlink:href="#DejaVuSans-6f"/>
       <use x="532.292969" xlink:href="#DejaVuSans-77"/>
       <use x="614.080078" xlink:href="#DejaVuSans-65"/>
       <use x="675.603516" xlink:href="#DejaVuSans-6c"/>
       <use x="703.386719" xlink:href="#DejaVuSans-6c"/>
       <use x="731.169922" xlink:href="#DejaVuSans-20"/>
       <use x="762.957031" xlink:href="#DejaVuSans-48"/>
       <use x="838.152344" xlink:href="#DejaVuSans-69"/>
       <use x="865.935547" xlink:href="#DejaVuSans-67"/>
       <use x="929.412109" xlink:href="#DejaVuSans-68"/>
      </g>
     </g>
    </g>
    <g id="xtick_19">
     <g id="line2d_19">
      <g>
       <use style="stroke:#000000;stroke-width:0.8;" x="510.937981" xlink:href="#m92a40f8865" y="488.973437"/>
      </g>
     </g>
     <g id="text_19">
      <!-- Lowell - Moody Elementary -->
      <g transform="translate(513.697356 631.384375)rotate(-90)scale(0.1 -0.1)">
       <use xlink:href="#DejaVuSans-4c"/>
       <use x="55.697266" xlink:href="#DejaVuSans-6f"/>
       <use x="116.878906" xlink:href="#DejaVuSans-77"/>
       <use x="198.666016" xlink:href="#DejaVuSans-65"/>
       <use x="260.189453" xlink:href="#DejaVuSans-6c"/>
       <use x="287.972656" xlink:href="#DejaVuSans-6c"/>
       <use x="315.755859" xlink:href="#DejaVuSans-20"/>
       <use x="347.542969" xlink:href="#DejaVuSans-2d"/>
       <use x="383.626953" xlink:href="#DejaVuSans-20"/>
       <use x="415.414062" xlink:href="#DejaVuSans-4d"/>
       <use x="501.693359" xlink:href="#DejaVuSans-6f"/>
       <use x="562.875" xlink:href="#DejaVuSans-6f"/>
       <use x="624.056641" xlink:href="#DejaVuSans-64"/>
       <use x="687.533203" xlink:href="#DejaVuSans-79"/>
       <use x="746.712891" xlink:href="#DejaVuSans-20"/>
       <use x="778.5" xlink:href="#DejaVuSans-45"/>
       <use x="841.683594" xlink:href="#DejaVuSans-6c"/>
       <use x="869.466797" xlink:href="#DejaVuSans-65"/>
       <use x="930.990234" xlink:href="#DejaVuSans-6d"/>
       <use x="1028.402344" xlink:href="#DejaVuSans-65"/>
       <use x="1089.925781" xlink:href="#DejaVuSans-6e"/>
       <use x="1153.304688" xlink:href="#DejaVuSans-74"/>
       <use x="1192.513672" xlink:href="#DejaVuSans-61"/>
       <use x="1253.792969" xlink:href="#DejaVuSans-72"/>
       <use x="1294.90625" xlink:href="#DejaVuSans-79"/>
      </g>
     </g>
    </g>
    <g id="xtick_20">
     <g id="line2d_20">
      <g>
       <use style="stroke:#000000;stroke-width:0.8;" x="536.90625" xlink:href="#m92a40f8865" y="488.973437"/>
      </g>
     </g>
     <g id="text_20">
      <!-- Lowell - Pawtucketville Memorial -->
      <g transform="translate(539.665625 659.479687)rotate(-90)scale(0.1 -0.1)">
       <use xlink:href="#DejaVuSans-4c"/>
       <use x="55.697266" xlink:href="#DejaVuSans-6f"/>
       <use x="116.878906" xlink:href="#DejaVuSans-77"/>
       <use x="198.666016" xlink:href="#DejaVuSans-65"/>
       <use x="260.189453" xlink:href="#DejaVuSans-6c"/>
       <use x="287.972656" xlink:href="#DejaVuSans-6c"/>
       <use x="315.755859" xlink:href="#DejaVuSans-20"/>
       <use x="347.542969" xlink:href="#DejaVuSans-2d"/>
       <use x="383.626953" xlink:href="#DejaVuSans-20"/>
       <use x="415.414062" xlink:href="#DejaVuSans-50"/>
       <use x="475.654297" xlink:href="#DejaVuSans-61"/>
       <use x="536.933594" xlink:href="#DejaVuSans-77"/>
       <use x="618.720703" xlink:href="#DejaVuSans-74"/>
       <use x="657.929688" xlink:href="#DejaVuSans-75"/>
       <use x="721.308594" xlink:href="#DejaVuSans-63"/>
       <use x="776.289062" xlink:href="#DejaVuSans-6b"/>
       <use x="834.152344" xlink:href="#DejaVuSans-65"/>
       <use x="895.675781" xlink:href="#DejaVuSans-74"/>
       <use x="934.884766" xlink:href="#DejaVuSans-76"/>
       <use x="994.064453" xlink:href="#DejaVuSans-69"/>
       <use x="1021.847656" xlink:href="#DejaVuSans-6c"/>
       <use x="1049.630859" xlink:href="#DejaVuSans-6c"/>
       <use x="1077.414062" xlink:href="#DejaVuSans-65"/>
       <use x="1138.9375" xlink:href="#DejaVuSans-20"/>
       <use x="1170.724609" xlink:href="#DejaVuSans-4d"/>
       <use x="1257.003906" xlink:href="#DejaVuSans-65"/>
       <use x="1318.527344" xlink:href="#DejaVuSans-6d"/>
       <use x="1415.939453" xlink:href="#DejaVuSans-6f"/>
       <use x="1477.121094" xlink:href="#DejaVuSans-72"/>
       <use x="1518.234375" xlink:href="#DejaVuSans-69"/>
       <use x="1546.017578" xlink:href="#DejaVuSans-61"/>
       <use x="1607.296875" xlink:href="#DejaVuSans-6c"/>
      </g>
     </g>
    </g>
    <g id="xtick_21">
     <g id="line2d_21">
      <g>
       <use style="stroke:#000000;stroke-width:0.8;" x="562.874519" xlink:href="#m92a40f8865" y="488.973437"/>
      </g>
     </g>
     <g id="text_21">
      <!-- Lowell - Peter W Reilly -->
      <g transform="translate(565.633894 607.46875)rotate(-90)scale(0.1 -0.1)">
       <use xlink:href="#DejaVuSans-4c"/>
       <use x="55.697266" xlink:href="#DejaVuSans-6f"/>
       <use x="116.878906" xlink:href="#DejaVuSans-77"/>
       <use x="198.666016" xlink:href="#DejaVuSans-65"/>
       <use x="260.189453" xlink:href="#DejaVuSans-6c"/>
       <use x="287.972656" xlink:href="#DejaVuSans-6c"/>
       <use x="315.755859" xlink:href="#DejaVuSans-20"/>
       <use x="347.542969" xlink:href="#DejaVuSans-2d"/>
       <use x="383.626953" xlink:href="#DejaVuSans-20"/>
       <use x="415.414062" xlink:href="#DejaVuSans-50"/>
       <use x="475.669922" xlink:href="#DejaVuSans-65"/>
       <use x="537.193359" xlink:href="#DejaVuSans-74"/>
       <use x="576.402344" xlink:href="#DejaVuSans-65"/>
       <use x="637.925781" xlink:href="#DejaVuSans-72"/>
       <use x="679.039062" xlink:href="#DejaVuSans-20"/>
       <use x="710.826172" xlink:href="#DejaVuSans-57"/>
       <use x="809.703125" xlink:href="#DejaVuSans-20"/>
       <use x="841.490234" xlink:href="#DejaVuSans-52"/>
       <use x="910.910156" xlink:href="#DejaVuSans-65"/>
       <use x="972.433594" xlink:href="#DejaVuSans-69"/>
       <use x="1000.216797" xlink:href="#DejaVuSans-6c"/>
       <use x="1028" xlink:href="#DejaVuSans-6c"/>
       <use x="1055.783203" xlink:href="#DejaVuSans-79"/>
      </g>
     </g>
    </g>
    <g id="xtick_22">
     <g id="line2d_22">
      <g>
       <use style="stroke:#000000;stroke-width:0.8;" x="588.842788" xlink:href="#m92a40f8865" y="488.973437"/>
      </g>
     </g>
     <g id="text_22">
      <!-- Lowell - Pyne Arts -->
      <g transform="translate(591.602163 585.2125)rotate(-90)scale(0.1 -0.1)">
       <use xlink:href="#DejaVuSans-4c"/>
       <use x="55.697266" xlink:href="#DejaVuSans-6f"/>
       <use x="116.878906" xlink:href="#DejaVuSans-77"/>
       <use x="198.666016" xlink:href="#DejaVuSans-65"/>
       <use x="260.189453" xlink:href="#DejaVuSans-6c"/>
       <use x="287.972656" xlink:href="#DejaVuSans-6c"/>
       <use x="315.755859" xlink:href="#DejaVuSans-20"/>
       <use x="347.542969" xlink:href="#DejaVuSans-2d"/>
       <use x="383.626953" xlink:href="#DejaVuSans-20"/>
       <use x="415.414062" xlink:href="#DejaVuSans-50"/>
       <use x="475.716797" xlink:href="#DejaVuSans-79"/>
       <use x="534.896484" xlink:href="#DejaVuSans-6e"/>
       <use x="598.275391" xlink:href="#DejaVuSans-65"/>
       <use x="659.798828" xlink:href="#DejaVuSans-20"/>
       <use x="691.585938" xlink:href="#DejaVuSans-41"/>
       <use x="759.994141" xlink:href="#DejaVuSans-72"/>
       <use x="801.107422" xlink:href="#DejaVuSans-74"/>
       <use x="840.316406" xlink:href="#DejaVuSans-73"/>
      </g>
     </g>
    </g>
    <g id="xtick_23">
     <g id="line2d_23">
      <g>
       <use style="stroke:#000000;stroke-width:0.8;" x="614.811058" xlink:href="#m92a40f8865" y="488.973437"/>
      </g>
     </g>
     <g id="text_23">
      <!-- Lowell - Rogers STEM Academy -->
      <g transform="translate(617.570433 652.782812)rotate(-90)scale(0.1 -0.1)">
       <use xlink:href="#DejaVuSans-4c"/>
       <use x="55.697266" xlink:href="#DejaVuSans-6f"/>
       <use x="116.878906" xlink:href="#DejaVuSans-77"/>
       <use x="198.666016" xlink:href="#DejaVuSans-65"/>
       <use x="260.189453" xlink:href="#DejaVuSans-6c"/>
       <use x="287.972656" xlink:href="#DejaVuSans-6c"/>
       <use x="315.755859" xlink:href="#DejaVuSans-20"/>
       <use x="347.542969" xlink:href="#DejaVuSans-2d"/>
       <use x="383.626953" xlink:href="#DejaVuSans-20"/>
       <use x="415.414062" xlink:href="#DejaVuSans-52"/>
       <use x="484.833984" xlink:href="#DejaVuSans-6f"/>
       <use x="546.015625" xlink:href="#DejaVuSans-67"/>
       <use x="609.492188" xlink:href="#DejaVuSans-65"/>
       <use x="671.015625" xlink:href="#DejaVuSans-72"/>
       <use x="712.128906" xlink:href="#DejaVuSans-73"/>
       <use x="764.228516" xlink:href="#DejaVuSans-20"/>
       <use x="796.015625" xlink:href="#DejaVuSans-53"/>
       <use x="859.492188" xlink:href="#DejaVuSans-54"/>
       <use x="920.576172" xlink:href="#DejaVuSans-45"/>
       <use x="983.759766" xlink:href="#DejaVuSans-4d"/>
       <use x="1070.039062" xlink:href="#DejaVuSans-20"/>
       <use x="1101.826172" xlink:href="#DejaVuSans-41"/>
       <use x="1170.21875" xlink:href="#DejaVuSans-63"/>
       <use x="1225.199219" xlink:href="#DejaVuSans-61"/>
       <use x="1286.478516" xlink:href="#DejaVuSans-64"/>
       <use x="1349.955078" xlink:href="#DejaVuSans-65"/>
       <use x="1411.478516" xlink:href="#DejaVuSans-6d"/>
       <use x="1508.890625" xlink:href="#DejaVuSans-79"/>
      </g>
     </g>
    </g>
    <g id="xtick_24">
     <g id="line2d_24">
      <g>
       <use style="stroke:#000000;stroke-width:0.8;" x="640.779327" xlink:href="#m92a40f8865" y="488.973437"/>
      </g>
     </g>
     <g id="text_24">
      <!-- Lowell - S Christa McAuliffe Elementary -->
      <defs>
       <path d="M 37.109375 75.984375 
L 37.109375 68.5 
L 28.515625 68.5 
Q 23.6875 68.5 21.796875 66.546875 
Q 19.921875 64.59375 19.921875 59.515625 
L 19.921875 54.6875 
L 34.71875 54.6875 
L 34.71875 47.703125 
L 19.921875 47.703125 
L 19.921875 0 
L 10.890625 0 
L 10.890625 47.703125 
L 2.296875 47.703125 
L 2.296875 54.6875 
L 10.890625 54.6875 
L 10.890625 58.5 
Q 10.890625 67.625 15.140625 71.796875 
Q 19.390625 75.984375 28.609375 75.984375 
z
" id="DejaVuSans-66"/>
      </defs>
      <g transform="translate(643.538702 692.478125)rotate(-90)scale(0.1 -0.1)">
       <use xlink:href="#DejaVuSans-4c"/>
       <use x="55.697266" xlink:href="#DejaVuSans-6f"/>
       <use x="116.878906" xlink:href="#DejaVuSans-77"/>
       <use x="198.666016" xlink:href="#DejaVuSans-65"/>
       <use x="260.189453" xlink:href="#DejaVuSans-6c"/>
       <use x="287.972656" xlink:href="#DejaVuSans-6c"/>
       <use x="315.755859" xlink:href="#DejaVuSans-20"/>
       <use x="347.542969" xlink:href="#DejaVuSans-2d"/>
       <use x="383.626953" xlink:href="#DejaVuSans-20"/>
       <use x="415.414062" xlink:href="#DejaVuSans-53"/>
       <use x="478.890625" xlink:href="#DejaVuSans-20"/>
       <use x="510.677734" xlink:href="#DejaVuSans-43"/>
       <use x="580.501953" xlink:href="#DejaVuSans-68"/>
       <use x="643.880859" xlink:href="#DejaVuSans-72"/>
       <use x="684.994141" xlink:href="#DejaVuSans-69"/>
       <use x="712.777344" xlink:href="#DejaVuSans-73"/>
       <use x="764.876953" xlink:href="#DejaVuSans-74"/>
       <use x="804.085938" xlink:href="#DejaVuSans-61"/>
       <use x="865.365234" xlink:href="#DejaVuSans-20"/>
       <use x="897.152344" xlink:href="#DejaVuSans-4d"/>
       <use x="983.431641" xlink:href="#DejaVuSans-63"/>
       <use x="1038.412109" xlink:href="#DejaVuSans-41"/>
       <use x="1106.820312" xlink:href="#DejaVuSans-75"/>
       <use x="1170.199219" xlink:href="#DejaVuSans-6c"/>
       <use x="1197.982422" xlink:href="#DejaVuSans-69"/>
       <use x="1225.765625" xlink:href="#DejaVuSans-66"/>
       <use x="1260.970703" xlink:href="#DejaVuSans-66"/>
       <use x="1296.175781" xlink:href="#DejaVuSans-65"/>
       <use x="1357.699219" xlink:href="#DejaVuSans-20"/>
       <use x="1389.486328" xlink:href="#DejaVuSans-45"/>
       <use x="1452.669922" xlink:href="#DejaVuSans-6c"/>
       <use x="1480.453125" xlink:href="#DejaVuSans-65"/>
       <use x="1541.976562" xlink:href="#DejaVuSans-6d"/>
       <use x="1639.388672" xlink:href="#DejaVuSans-65"/>
       <use x="1700.912109" xlink:href="#DejaVuSans-6e"/>
       <use x="1764.291016" xlink:href="#DejaVuSans-74"/>
       <use x="1803.5" xlink:href="#DejaVuSans-61"/>
       <use x="1864.779297" xlink:href="#DejaVuSans-72"/>
       <use x="1905.892578" xlink:href="#DejaVuSans-79"/>
      </g>
     </g>
    </g>
    <g id="xtick_25">
     <g id="line2d_25">
      <g>
       <use style="stroke:#000000;stroke-width:0.8;" x="666.747596" xlink:href="#m92a40f8865" y="488.973437"/>
      </g>
     </g>
     <g id="text_25">
      <!-- Lowell - The Career Academy -->
      <g transform="translate(669.506971 642.73125)rotate(-90)scale(0.1 -0.1)">
       <use xlink:href="#DejaVuSans-4c"/>
       <use x="55.697266" xlink:href="#DejaVuSans-6f"/>
       <use x="116.878906" xlink:href="#DejaVuSans-77"/>
       <use x="198.666016" xlink:href="#DejaVuSans-65"/>
       <use x="260.189453" xlink:href="#DejaVuSans-6c"/>
       <use x="287.972656" xlink:href="#DejaVuSans-6c"/>
       <use x="315.755859" xlink:href="#DejaVuSans-20"/>
       <use x="347.542969" xlink:href="#DejaVuSans-2d"/>
       <use x="383.626953" xlink:href="#DejaVuSans-20"/>
       <use x="415.414062" xlink:href="#DejaVuSans-54"/>
       <use x="476.498047" xlink:href="#DejaVuSans-68"/>
       <use x="539.876953" xlink:href="#DejaVuSans-65"/>
       <use x="601.400391" xlink:href="#DejaVuSans-20"/>
       <use x="633.1875" xlink:href="#DejaVuSans-43"/>
       <use x="703.011719" xlink:href="#DejaVuSans-61"/>
       <use x="764.291016" xlink:href="#DejaVuSans-72"/>
       <use x="805.373047" xlink:href="#DejaVuSans-65"/>
       <use x="866.896484" xlink:href="#DejaVuSans-65"/>
       <use x="928.419922" xlink:href="#DejaVuSans-72"/>
       <use x="969.533203" xlink:href="#DejaVuSans-20"/>
       <use x="1001.320312" xlink:href="#DejaVuSans-41"/>
       <use x="1069.712891" xlink:href="#DejaVuSans-63"/>
       <use x="1124.693359" xlink:href="#DejaVuSans-61"/>
       <use x="1185.972656" xlink:href="#DejaVuSans-64"/>
       <use x="1249.449219" xlink:href="#DejaVuSans-65"/>
       <use x="1310.972656" xlink:href="#DejaVuSans-6d"/>
       <use x="1408.384766" xlink:href="#DejaVuSans-79"/>
      </g>
     </g>
    </g>
    <g id="xtick_26">
     <g id="line2d_26">
      <g>
       <use style="stroke:#000000;stroke-width:0.8;" x="692.715865" xlink:href="#m92a40f8865" y="488.973437"/>
      </g>
     </g>
     <g id="text_26">
      <!-- Lowell - Washington -->
      <g transform="translate(695.47524 596.907812)rotate(-90)scale(0.1 -0.1)">
       <use xlink:href="#DejaVuSans-4c"/>
       <use x="55.697266" xlink:href="#DejaVuSans-6f"/>
       <use x="116.878906" xlink:href="#DejaVuSans-77"/>
       <use x="198.666016" xlink:href="#DejaVuSans-65"/>
       <use x="260.189453" xlink:href="#DejaVuSans-6c"/>
       <use x="287.972656" xlink:href="#DejaVuSans-6c"/>
       <use x="315.755859" xlink:href="#DejaVuSans-20"/>
       <use x="347.542969" xlink:href="#DejaVuSans-2d"/>
       <use x="383.626953" xlink:href="#DejaVuSans-20"/>
       <use x="415.414062" xlink:href="#DejaVuSans-57"/>
       <use x="514.197266" xlink:href="#DejaVuSans-61"/>
       <use x="575.476562" xlink:href="#DejaVuSans-73"/>
       <use x="627.576172" xlink:href="#DejaVuSans-68"/>
       <use x="690.955078" xlink:href="#DejaVuSans-69"/>
       <use x="718.738281" xlink:href="#DejaVuSans-6e"/>
       <use x="782.117188" xlink:href="#DejaVuSans-67"/>
       <use x="845.59375" xlink:href="#DejaVuSans-74"/>
       <use x="884.802734" xlink:href="#DejaVuSans-6f"/>
       <use x="945.984375" xlink:href="#DejaVuSans-6e"/>
      </g>
     </g>
    </g>
   </g>
   <g id="matplotlib.axis_2">
    <g id="ytick_1">
     <g id="line2d_27">
      <defs>
       <path d="M 0 0 
L -3.5 0 
" id="mcc00f20387" style="stroke:#000000;stroke-width:0.8;"/>
      </defs>
      <g>
       <use style="stroke:#000000;stroke-width:0.8;" x="30.525" xlink:href="#mcc00f20387" y="488.973437"/>
      </g>
     </g>
     <g id="text_27">
      <!-- 0 -->
      <defs>
       <path d="M 31.78125 66.40625 
Q 24.171875 66.40625 20.328125 58.90625 
Q 16.5 51.421875 16.5 36.375 
Q 16.5 21.390625 20.328125 13.890625 
Q 24.171875 6.390625 31.78125 6.390625 
Q 39.453125 6.390625 43.28125 13.890625 
Q 47.125 21.390625 47.125 36.375 
Q 47.125 51.421875 43.28125 58.90625 
Q 39.453125 66.40625 31.78125 66.40625 
z
M 31.78125 74.21875 
Q 44.046875 74.21875 50.515625 64.515625 
Q 56.984375 54.828125 56.984375 36.375 
Q 56.984375 17.96875 50.515625 8.265625 
Q 44.046875 -1.421875 31.78125 -1.421875 
Q 19.53125 -1.421875 13.0625 8.265625 
Q 6.59375 17.96875 6.59375 36.375 
Q 6.59375 54.828125 13.0625 64.515625 
Q 19.53125 74.21875 31.78125 74.21875 
z
" id="DejaVuSans-30"/>
      </defs>
      <g transform="translate(17.1625 492.772656)scale(0.1 -0.1)">
       <use xlink:href="#DejaVuSans-30"/>
      </g>
     </g>
    </g>
    <g id="ytick_2">
     <g id="line2d_28">
      <g>
       <use style="stroke:#000000;stroke-width:0.8;" x="30.525" xlink:href="#mcc00f20387" y="391.334142"/>
      </g>
     </g>
     <g id="text_28">
      <!-- 10 -->
      <defs>
       <path d="M 12.40625 8.296875 
L 28.515625 8.296875 
L 28.515625 63.921875 
L 10.984375 60.40625 
L 10.984375 69.390625 
L 28.421875 72.90625 
L 38.28125 72.90625 
L 38.28125 8.296875 
L 54.390625 8.296875 
L 54.390625 0 
L 12.40625 0 
z
" id="DejaVuSans-31"/>
      </defs>
      <g transform="translate(10.8 395.13336)scale(0.1 -0.1)">
       <use xlink:href="#DejaVuSans-31"/>
       <use x="63.623047" xlink:href="#DejaVuSans-30"/>
      </g>
     </g>
    </g>
    <g id="ytick_3">
     <g id="line2d_29">
      <g>
       <use style="stroke:#000000;stroke-width:0.8;" x="30.525" xlink:href="#mcc00f20387" y="293.694846"/>
      </g>
     </g>
     <g id="text_29">
      <!-- 20 -->
      <defs>
       <path d="M 19.1875 8.296875 
L 53.609375 8.296875 
L 53.609375 0 
L 7.328125 0 
L 7.328125 8.296875 
Q 12.9375 14.109375 22.625 23.890625 
Q 32.328125 33.6875 34.8125 36.53125 
Q 39.546875 41.84375 41.421875 45.53125 
Q 43.3125 49.21875 43.3125 52.78125 
Q 43.3125 58.59375 39.234375 62.25 
Q 35.15625 65.921875 28.609375 65.921875 
Q 23.96875 65.921875 18.8125 64.3125 
Q 13.671875 62.703125 7.8125 59.421875 
L 7.8125 69.390625 
Q 13.765625 71.78125 18.9375 73 
Q 24.125 74.21875 28.421875 74.21875 
Q 39.75 74.21875 46.484375 68.546875 
Q 53.21875 62.890625 53.21875 53.421875 
Q 53.21875 48.921875 51.53125 44.890625 
Q 49.859375 40.875 45.40625 35.40625 
Q 44.1875 33.984375 37.640625 27.21875 
Q 31.109375 20.453125 19.1875 8.296875 
z
" id="DejaVuSans-32"/>
      </defs>
      <g transform="translate(10.8 297.494064)scale(0.1 -0.1)">
       <use xlink:href="#DejaVuSans-32"/>
       <use x="63.623047" xlink:href="#DejaVuSans-30"/>
      </g>
     </g>
    </g>
    <g id="ytick_4">
     <g id="line2d_30">
      <g>
       <use style="stroke:#000000;stroke-width:0.8;" x="30.525" xlink:href="#mcc00f20387" y="196.05555"/>
      </g>
     </g>
     <g id="text_30">
      <!-- 30 -->
      <defs>
       <path d="M 40.578125 39.3125 
Q 47.65625 37.796875 51.625 33 
Q 55.609375 28.21875 55.609375 21.1875 
Q 55.609375 10.40625 48.1875 4.484375 
Q 40.765625 -1.421875 27.09375 -1.421875 
Q 22.515625 -1.421875 17.65625 -0.515625 
Q 12.796875 0.390625 7.625 2.203125 
L 7.625 11.71875 
Q 11.71875 9.328125 16.59375 8.109375 
Q 21.484375 6.890625 26.8125 6.890625 
Q 36.078125 6.890625 40.9375 10.546875 
Q 45.796875 14.203125 45.796875 21.1875 
Q 45.796875 27.640625 41.28125 31.265625 
Q 36.765625 34.90625 28.71875 34.90625 
L 20.21875 34.90625 
L 20.21875 43.015625 
L 29.109375 43.015625 
Q 36.375 43.015625 40.234375 45.921875 
Q 44.09375 48.828125 44.09375 54.296875 
Q 44.09375 59.90625 40.109375 62.90625 
Q 36.140625 65.921875 28.71875 65.921875 
Q 24.65625 65.921875 20.015625 65.03125 
Q 15.375 64.15625 9.8125 62.3125 
L 9.8125 71.09375 
Q 15.4375 72.65625 20.34375 73.4375 
Q 25.25 74.21875 29.59375 74.21875 
Q 40.828125 74.21875 47.359375 69.109375 
Q 53.90625 64.015625 53.90625 55.328125 
Q 53.90625 49.265625 50.4375 45.09375 
Q 46.96875 40.921875 40.578125 39.3125 
z
" id="DejaVuSans-33"/>
      </defs>
      <g transform="translate(10.8 199.854768)scale(0.1 -0.1)">
       <use xlink:href="#DejaVuSans-33"/>
       <use x="63.623047" xlink:href="#DejaVuSans-30"/>
      </g>
     </g>
    </g>
    <g id="ytick_5">
     <g id="line2d_31">
      <g>
       <use style="stroke:#000000;stroke-width:0.8;" x="30.525" xlink:href="#mcc00f20387" y="98.416254"/>
      </g>
     </g>
     <g id="text_31">
      <!-- 40 -->
      <defs>
       <path d="M 37.796875 64.3125 
L 12.890625 25.390625 
L 37.796875 25.390625 
z
M 35.203125 72.90625 
L 47.609375 72.90625 
L 47.609375 25.390625 
L 58.015625 25.390625 
L 58.015625 17.1875 
L 47.609375 17.1875 
L 47.609375 0 
L 37.796875 0 
L 37.796875 17.1875 
L 4.890625 17.1875 
L 4.890625 26.703125 
z
" id="DejaVuSans-34"/>
      </defs>
      <g transform="translate(10.8 102.215472)scale(0.1 -0.1)">
       <use xlink:href="#DejaVuSans-34"/>
       <use x="63.623047" xlink:href="#DejaVuSans-30"/>
      </g>
     </g>
    </g>
   </g>
   <g id="patch_55">
    <path d="M 30.525 488.973437 
L 30.525 14.3 
" style="fill:none;stroke:#000000;stroke-linecap:square;stroke-linejoin:miter;stroke-width:0.8;"/>
   </g>
   <g id="patch_56">
    <path d="M 705.7 488.973437 
L 705.7 14.3 
" style="fill:none;stroke:#000000;stroke-linecap:square;stroke-linejoin:miter;stroke-width:0.8;"/>
   </g>
   <g id="patch_57">
    <path d="M 30.525 488.973437 
L 705.7 488.973437 
" style="fill:none;stroke:#000000;stroke-linecap:square;stroke-linejoin:miter;stroke-width:0.8;"/>
   </g>
   <g id="patch_58">
    <path d="M 30.525 14.3 
L 705.7 14.3 
" style="fill:none;stroke:#000000;stroke-linecap:square;stroke-linejoin:miter;stroke-width:0.8;"/>
   </g>
   <g id="legend_1">
    <g id="patch_59">
     <path d="M 503.764063 51.65625 
L 698.7 51.65625 
Q 700.7 51.65625 700.7 49.65625 
L 700.7 21.3 
Q 700.7 19.3 698.7 19.3 
L 503.764063 19.3 
Q 501.764063 19.3 501.764063 21.3 
L 501.764063 49.65625 
Q 501.764063 51.65625 503.764063 51.65625 
z
" style="fill:#ffffff;opacity:0.8;stroke:#cccccc;stroke-linejoin:miter;"/>
    </g>
    <g id="patch_60">
     <path d="M 505.764063 30.898438 
L 525.764063 30.898438 
L 525.764063 23.898438 
L 505.764063 23.898438 
z
" style="fill:#1f77b4;"/>
    </g>
    <g id="text_32">
     <!-- FirstLanguageNotEnglishPercent -->
     <defs>
      <path d="M 9.8125 72.90625 
L 23.09375 72.90625 
L 55.421875 11.921875 
L 55.421875 72.90625 
L 64.984375 72.90625 
L 64.984375 0 
L 51.703125 0 
L 19.390625 60.984375 
L 19.390625 0 
L 9.8125 0 
z
" id="DejaVuSans-4e"/>
     </defs>
     <g transform="translate(533.764063 30.898438)scale(0.1 -0.1)">
      <use xlink:href="#DejaVuSans-46"/>
      <use x="57.410156" xlink:href="#DejaVuSans-69"/>
      <use x="85.193359" xlink:href="#DejaVuSans-72"/>
      <use x="126.306641" xlink:href="#DejaVuSans-73"/>
      <use x="178.40625" xlink:href="#DejaVuSans-74"/>
      <use x="217.615234" xlink:href="#DejaVuSans-4c"/>
      <use x="273.328125" xlink:href="#DejaVuSans-61"/>
      <use x="334.607422" xlink:href="#DejaVuSans-6e"/>
      <use x="397.986328" xlink:href="#DejaVuSans-67"/>
      <use x="461.462891" xlink:href="#DejaVuSans-75"/>
      <use x="524.841797" xlink:href="#DejaVuSans-61"/>
      <use x="586.121094" xlink:href="#DejaVuSans-67"/>
      <use x="649.597656" xlink:href="#DejaVuSans-65"/>
      <use x="711.121094" xlink:href="#DejaVuSans-4e"/>
      <use x="785.925781" xlink:href="#DejaVuSans-6f"/>
      <use x="847.107422" xlink:href="#DejaVuSans-74"/>
      <use x="886.316406" xlink:href="#DejaVuSans-45"/>
      <use x="949.5" xlink:href="#DejaVuSans-6e"/>
      <use x="1012.878906" xlink:href="#DejaVuSans-67"/>
      <use x="1076.355469" xlink:href="#DejaVuSans-6c"/>
      <use x="1104.138672" xlink:href="#DejaVuSans-69"/>
      <use x="1131.921875" xlink:href="#DejaVuSans-73"/>
      <use x="1184.021484" xlink:href="#DejaVuSans-68"/>
      <use x="1247.400391" xlink:href="#DejaVuSans-50"/>
      <use x="1307.65625" xlink:href="#DejaVuSans-65"/>
      <use x="1369.179688" xlink:href="#DejaVuSans-72"/>
      <use x="1410.261719" xlink:href="#DejaVuSans-63"/>
      <use x="1465.242188" xlink:href="#DejaVuSans-65"/>
      <use x="1526.765625" xlink:href="#DejaVuSans-6e"/>
      <use x="1590.144531" xlink:href="#DejaVuSans-74"/>
     </g>
    </g>
    <g id="patch_61">
     <path d="M 505.764063 45.576563 
L 525.764063 45.576563 
L 525.764063 38.576563 
L 505.764063 38.576563 
z
" style="fill:#ff7f0e;"/>
    </g>
    <g id="text_33">
     <!-- EnglishLanguageLearnerPercent -->
     <g transform="translate(533.764063 45.576563)scale(0.1 -0.1)">
      <use xlink:href="#DejaVuSans-45"/>
      <use x="63.183594" xlink:href="#DejaVuSans-6e"/>
      <use x="126.5625" xlink:href="#DejaVuSans-67"/>
      <use x="190.039062" xlink:href="#DejaVuSans-6c"/>
      <use x="217.822266" xlink:href="#DejaVuSans-69"/>
      <use x="245.605469" xlink:href="#DejaVuSans-73"/>
      <use x="297.705078" xlink:href="#DejaVuSans-68"/>
      <use x="361.083984" xlink:href="#DejaVuSans-4c"/>
      <use x="416.796875" xlink:href="#DejaVuSans-61"/>
      <use x="478.076172" xlink:href="#DejaVuSans-6e"/>
      <use x="541.455078" xlink:href="#DejaVuSans-67"/>
      <use x="604.931641" xlink:href="#DejaVuSans-75"/>
      <use x="668.310547" xlink:href="#DejaVuSans-61"/>
      <use x="729.589844" xlink:href="#DejaVuSans-67"/>
      <use x="793.066406" xlink:href="#DejaVuSans-65"/>
      <use x="854.589844" xlink:href="#DejaVuSans-4c"/>
      <use x="910.287109" xlink:href="#DejaVuSans-65"/>
      <use x="971.810547" xlink:href="#DejaVuSans-61"/>
      <use x="1033.089844" xlink:href="#DejaVuSans-72"/>
      <use x="1074.1875" xlink:href="#DejaVuSans-6e"/>
      <use x="1137.566406" xlink:href="#DejaVuSans-65"/>
      <use x="1199.089844" xlink:href="#DejaVuSans-72"/>
      <use x="1240.203125" xlink:href="#DejaVuSans-50"/>
      <use x="1300.458984" xlink:href="#DejaVuSans-65"/>
      <use x="1361.982422" xlink:href="#DejaVuSans-72"/>
      <use x="1403.064453" xlink:href="#DejaVuSans-63"/>
      <use x="1458.044922" xlink:href="#DejaVuSans-65"/>
      <use x="1519.568359" xlink:href="#DejaVuSans-6e"/>
      <use x="1582.947266" xlink:href="#DejaVuSans-74"/>
     </g>
    </g>
   </g>
  </g>
 </g>
 <defs>
  <clipPath id="p15a9fca90f">
   <rect height="474.673437" width="675.175" x="30.525" y="14.3"/>
  </clipPath>
 </defs>
</svg>
