<?xml version="1.0" encoding="utf-8" standalone="no"?>
<!DOCTYPE svg PUBLIC "-//W3C//DTD SVG 1.1//EN"
  "http://www.w3.org/Graphics/SVG/1.1/DTD/svg11.dtd">
<!-- Created with matplotlib (http://matplotlib.org/) -->
<svg height="720pt" version="1.1" viewBox="0 0 720 720" width="720pt" xmlns="http://www.w3.org/2000/svg" xmlns:xlink="http://www.w3.org/1999/xlink">
 <defs>
  <style type="text/css">
*{stroke-linecap:butt;stroke-linejoin:round;}
  </style>
 </defs>
 <g id="figure_1">
  <g id="patch_1">
   <path d="M 0 720 
L 720 720 
L 720 0 
L 0 0 
z
" style="fill:#ffffff;"/>
  </g>
  <g id="axes_1">
   <g id="patch_2">
    <path d="M 36.8875 491.95625 
L 705.7 491.95625 
L 705.7 14.3 
L 36.8875 14.3 
z
" style="fill:#ffffff;"/>
   </g>
   <g id="patch_3">
    <path clip-path="url(#pa1936919d3)" d="M 49.749279 491.95625 
L 75.472837 491.95625 
L 75.472837 486.876029 
L 49.749279 486.876029 
z
" style="fill:#1f77b4;"/>
   </g>
   <g id="patch_4">
    <path clip-path="url(#pa1936919d3)" d="M 101.196394 491.95625 
L 126.919952 491.95625 
L 126.919952 485.490514 
L 101.196394 485.490514 
z
" style="fill:#1f77b4;"/>
   </g>
   <g id="patch_5">
    <path clip-path="url(#pa1936919d3)" d="M 152.64351 491.95625 
L 178.367067 491.95625 
L 178.367067 478.56294 
L 152.64351 478.56294 
z
" style="fill:#1f77b4;"/>
   </g>
   <g id="patch_6">
    <path clip-path="url(#pa1936919d3)" d="M 204.090625 491.95625 
L 229.814183 491.95625 
L 229.814183 480.872131 
L 204.090625 480.872131 
z
" style="fill:#1f77b4;"/>
   </g>
   <g id="patch_7">
    <path clip-path="url(#pa1936919d3)" d="M 255.53774 491.95625 
L 281.261298 491.95625 
L 281.261298 483.181323 
L 255.53774 483.181323 
z
" style="fill:#1f77b4;"/>
   </g>
   <g id="patch_8">
    <path clip-path="url(#pa1936919d3)" d="M 306.984856 491.95625 
L 332.708413 491.95625 
L 332.708413 482.719484 
L 306.984856 482.719484 
z
" style="fill:#1f77b4;"/>
   </g>
   <g id="patch_9">
    <path clip-path="url(#pa1936919d3)" d="M 358.431971 491.95625 
L 384.155529 491.95625 
L 384.155529 483.181323 
L 358.431971 483.181323 
z
" style="fill:#1f77b4;"/>
   </g>
   <g id="patch_10">
    <path clip-path="url(#pa1936919d3)" d="M 409.879087 491.95625 
L 435.602644 491.95625 
L 435.602644 479.486616 
L 409.879087 479.486616 
z
" style="fill:#1f77b4;"/>
   </g>
   <g id="patch_11">
    <path clip-path="url(#pa1936919d3)" d="M 461.326202 491.95625 
L 487.04976 491.95625 
L 487.04976 482.719484 
L 461.326202 482.719484 
z
" style="fill:#1f77b4;"/>
   </g>
   <g id="patch_12">
    <path clip-path="url(#pa1936919d3)" d="M 512.773317 491.95625 
L 538.496875 491.95625 
L 538.496875 486.414191 
L 512.773317 486.414191 
z
" style="fill:#1f77b4;"/>
   </g>
   <g id="patch_13">
    <path clip-path="url(#pa1936919d3)" d="M 564.220433 491.95625 
L 589.94399 491.95625 
L 589.94399 482.257646 
L 564.220433 482.257646 
z
" style="fill:#1f77b4;"/>
   </g>
   <g id="patch_14">
    <path clip-path="url(#pa1936919d3)" d="M 615.667548 491.95625 
L 641.391106 491.95625 
L 641.391106 488.723382 
L 615.667548 488.723382 
z
" style="fill:#1f77b4;"/>
   </g>
   <g id="patch_15">
    <path clip-path="url(#pa1936919d3)" d="M 667.114663 491.95625 
L 692.838221 491.95625 
L 692.838221 481.795808 
L 667.114663 481.795808 
z
" style="fill:#1f77b4;"/>
   </g>
   <g id="patch_16">
    <path clip-path="url(#pa1936919d3)" d="M 49.749279 486.876029 
L 75.472837 486.876029 
L 75.472837 476.715586 
L 49.749279 476.715586 
z
" style="fill:#ff7f0e;"/>
   </g>
   <g id="patch_17">
    <path clip-path="url(#pa1936919d3)" d="M 101.196394 485.490514 
L 126.919952 485.490514 
L 126.919952 473.944557 
L 101.196394 473.944557 
z
" style="fill:#ff7f0e;"/>
   </g>
   <g id="patch_18">
    <path clip-path="url(#pa1936919d3)" d="M 152.64351 478.56294 
L 178.367067 478.56294 
L 178.367067 473.482718 
L 152.64351 473.482718 
z
" style="fill:#ff7f0e;"/>
   </g>
   <g id="patch_19">
    <path clip-path="url(#pa1936919d3)" d="M 204.090625 480.872131 
L 229.814183 480.872131 
L 229.814183 462.860438 
L 204.090625 462.860438 
z
" style="fill:#ff7f0e;"/>
   </g>
   <g id="patch_20">
    <path clip-path="url(#pa1936919d3)" d="M 255.53774 483.181323 
L 281.261298 483.181323 
L 281.261298 460.551246 
L 255.53774 460.551246 
z
" style="fill:#ff7f0e;"/>
   </g>
   <g id="patch_21">
    <path clip-path="url(#pa1936919d3)" d="M 306.984856 482.719484 
L 332.708413 482.719484 
L 332.708413 469.326174 
L 306.984856 469.326174 
z
" style="fill:#ff7f0e;"/>
   </g>
   <g id="patch_22">
    <path clip-path="url(#pa1936919d3)" d="M 358.431971 483.181323 
L 384.155529 483.181323 
L 384.155529 474.406395 
L 358.431971 474.406395 
z
" style="fill:#ff7f0e;"/>
   </g>
   <g id="patch_23">
    <path clip-path="url(#pa1936919d3)" d="M 409.879087 479.486616 
L 435.602644 479.486616 
L 435.602644 457.318378 
L 409.879087 457.318378 
z
" style="fill:#ff7f0e;"/>
   </g>
   <g id="patch_24">
    <path clip-path="url(#pa1936919d3)" d="M 461.326202 482.719484 
L 487.04976 482.719484 
L 487.04976 465.631468 
L 461.326202 465.631468 
z
" style="fill:#ff7f0e;"/>
   </g>
   <g id="patch_25">
    <path clip-path="url(#pa1936919d3)" d="M 512.773317 486.414191 
L 538.496875 486.414191 
L 538.496875 480.872131 
L 512.773317 480.872131 
z
" style="fill:#ff7f0e;"/>
   </g>
   <g id="patch_26">
    <path clip-path="url(#pa1936919d3)" d="M 564.220433 482.257646 
L 589.94399 482.257646 
L 589.94399 470.24985 
L 564.220433 470.24985 
z
" style="fill:#ff7f0e;"/>
   </g>
   <g id="patch_27">
    <path clip-path="url(#pa1936919d3)" d="M 615.667548 488.723382 
L 641.391106 488.723382 
L 641.391106 483.181323 
L 615.667548 483.181323 
z
" style="fill:#ff7f0e;"/>
   </g>
   <g id="patch_28">
    <path clip-path="url(#pa1936919d3)" d="M 667.114663 481.795808 
L 692.838221 481.795808 
L 692.838221 465.169629 
L 667.114663 465.169629 
z
" style="fill:#ff7f0e;"/>
   </g>
   <g id="patch_29">
    <path clip-path="url(#pa1936919d3)" d="M 49.749279 476.715586 
L 75.472837 476.715586 
L 75.472837 69.374216 
L 49.749279 69.374216 
z
" style="fill:#2ca02c;"/>
   </g>
   <g id="patch_30">
    <path clip-path="url(#pa1936919d3)" d="M 101.196394 473.944557 
L 126.919952 473.944557 
L 126.919952 66.603186 
L 101.196394 66.603186 
z
" style="fill:#2ca02c;"/>
   </g>
   <g id="patch_31">
    <path clip-path="url(#pa1936919d3)" d="M 152.64351 473.482718 
L 178.367067 473.482718 
L 178.367067 83.229365 
L 152.64351 83.229365 
z
" style="fill:#2ca02c;"/>
   </g>
   <g id="patch_32">
    <path clip-path="url(#pa1936919d3)" d="M 204.090625 462.860438 
L 229.814183 462.860438 
L 229.814183 67.065024 
L 204.090625 67.065024 
z
" style="fill:#2ca02c;"/>
   </g>
   <g id="patch_33">
    <path clip-path="url(#pa1936919d3)" d="M 255.53774 460.551246 
L 281.261298 460.551246 
L 281.261298 78.610982 
L 255.53774 78.610982 
z
" style="fill:#2ca02c;"/>
   </g>
   <g id="patch_34">
    <path clip-path="url(#pa1936919d3)" d="M 306.984856 469.326174 
L 332.708413 469.326174 
L 332.708413 72.145246 
L 306.984856 72.145246 
z
" style="fill:#2ca02c;"/>
   </g>
   <g id="patch_35">
    <path clip-path="url(#pa1936919d3)" d="M 358.431971 474.406395 
L 384.155529 474.406395 
L 384.155529 69.374216 
L 358.431971 69.374216 
z
" style="fill:#2ca02c;"/>
   </g>
   <g id="patch_36">
    <path clip-path="url(#pa1936919d3)" d="M 409.879087 457.318378 
L 435.602644 457.318378 
L 435.602644 62.446642 
L 409.879087 62.446642 
z
" style="fill:#2ca02c;"/>
   </g>
   <g id="patch_37">
    <path clip-path="url(#pa1936919d3)" d="M 461.326202 465.631468 
L 487.04976 465.631468 
L 487.04976 64.755833 
L 461.326202 64.755833 
z
" style="fill:#2ca02c;"/>
   </g>
   <g id="patch_38">
    <path clip-path="url(#pa1936919d3)" d="M 512.773317 480.872131 
L 538.496875 480.872131 
L 538.496875 68.912378 
L 512.773317 68.912378 
z
" style="fill:#2ca02c;"/>
   </g>
   <g id="patch_39">
    <path clip-path="url(#pa1936919d3)" d="M 564.220433 470.24985 
L 589.94399 470.24985 
L 589.94399 70.759731 
L 564.220433 70.759731 
z
" style="fill:#2ca02c;"/>
   </g>
   <g id="patch_40">
    <path clip-path="url(#pa1936919d3)" d="M 615.667548 483.181323 
L 641.391106 483.181323 
L 641.391106 58.290097 
L 615.667548 58.290097 
z
" style="fill:#2ca02c;"/>
   </g>
   <g id="patch_41">
    <path clip-path="url(#pa1936919d3)" d="M 667.114663 465.169629 
L 692.838221 465.169629 
L 692.838221 57.828259 
L 667.114663 57.828259 
z
" style="fill:#2ca02c;"/>
   </g>
   <g id="patch_42">
    <path clip-path="url(#pa1936919d3)" d="M 49.749279 69.374216 
L 75.472837 69.374216 
L 75.472837 54.595391 
L 49.749279 54.595391 
z
" style="fill:#d62728;"/>
   </g>
   <g id="patch_43">
    <path clip-path="url(#pa1936919d3)" d="M 101.196394 66.603186 
L 126.919952 66.603186 
L 126.919952 38.892889 
L 101.196394 38.892889 
z
" style="fill:#d62728;"/>
   </g>
   <g id="patch_44">
    <path clip-path="url(#pa1936919d3)" d="M 152.64351 83.229365 
L 178.367067 83.229365 
L 178.367067 50.438846 
L 152.64351 50.438846 
z
" style="fill:#d62728;"/>
   </g>
   <g id="patch_45">
    <path clip-path="url(#pa1936919d3)" d="M 204.090625 67.065024 
L 229.814183 67.065024 
L 229.814183 43.97311 
L 204.090625 43.97311 
z
" style="fill:#d62728;"/>
   </g>
   <g id="patch_46">
    <path clip-path="url(#pa1936919d3)" d="M 255.53774 78.610982 
L 281.261298 78.610982 
L 281.261298 44.434948 
L 255.53774 44.434948 
z
" style="fill:#d62728;"/>
   </g>
   <g id="patch_47">
    <path clip-path="url(#pa1936919d3)" d="M 306.984856 72.145246 
L 332.708413 72.145246 
L 332.708413 49.053331 
L 306.984856 49.053331 
z
" style="fill:#d62728;"/>
   </g>
   <g id="patch_48">
    <path clip-path="url(#pa1936919d3)" d="M 358.431971 69.374216 
L 384.155529 69.374216 
L 384.155529 42.125757 
L 358.431971 42.125757 
z
" style="fill:#d62728;"/>
   </g>
   <g id="patch_49">
    <path clip-path="url(#pa1936919d3)" d="M 409.879087 62.446642 
L 435.602644 62.446642 
L 435.602644 38.431051 
L 409.879087 38.431051 
z
" style="fill:#d62728;"/>
   </g>
   <g id="patch_50">
    <path clip-path="url(#pa1936919d3)" d="M 461.326202 64.755833 
L 487.04976 64.755833 
L 487.04976 41.20208 
L 461.326202 41.20208 
z
" style="fill:#d62728;"/>
   </g>
   <g id="patch_51">
    <path clip-path="url(#pa1936919d3)" d="M 512.773317 68.912378 
L 538.496875 68.912378 
L 538.496875 39.354727 
L 512.773317 39.354727 
z
" style="fill:#d62728;"/>
   </g>
   <g id="patch_52">
    <path clip-path="url(#pa1936919d3)" d="M 564.220433 70.759731 
L 589.94399 70.759731 
L 589.94399 37.045536 
L 564.220433 37.045536 
z
" style="fill:#d62728;"/>
   </g>
   <g id="patch_53">
    <path clip-path="url(#pa1936919d3)" d="M 615.667548 58.290097 
L 641.391106 58.290097 
L 641.391106 39.816565 
L 615.667548 39.816565 
z
" style="fill:#d62728;"/>
   </g>
   <g id="patch_54">
    <path clip-path="url(#pa1936919d3)" d="M 667.114663 57.828259 
L 692.838221 57.828259 
L 692.838221 38.431051 
L 667.114663 38.431051 
z
" style="fill:#d62728;"/>
   </g>
   <g id="matplotlib.axis_1">
    <g id="xtick_1">
     <g id="line2d_1">
      <defs>
       <path d="M 0 0 
L 0 3.5 
" id="m941df7eb10" style="stroke:#000000;stroke-width:0.8;"/>
      </defs>
      <g>
       <use style="stroke:#000000;stroke-width:0.8;" x="62.611058" xlink:href="#m941df7eb10" y="491.95625"/>
      </g>
     </g>
     <g id="text_1">
      <!-- Wachusett - Central Tree Middle -->
      <defs>
       <path d="M 3.328125 72.90625 
L 13.28125 72.90625 
L 28.609375 11.28125 
L 43.890625 72.90625 
L 54.984375 72.90625 
L 70.3125 11.28125 
L 85.59375 72.90625 
L 95.609375 72.90625 
L 77.296875 0 
L 64.890625 0 
L 49.515625 63.28125 
L 33.984375 0 
L 21.578125 0 
z
" id="DejaVuSans-57"/>
       <path d="M 34.28125 27.484375 
Q 23.390625 27.484375 19.1875 25 
Q 14.984375 22.515625 14.984375 16.5 
Q 14.984375 11.71875 18.140625 8.90625 
Q 21.296875 6.109375 26.703125 6.109375 
Q 34.1875 6.109375 38.703125 11.40625 
Q 43.21875 16.703125 43.21875 25.484375 
L 43.21875 27.484375 
z
M 52.203125 31.203125 
L 52.203125 0 
L 43.21875 0 
L 43.21875 8.296875 
Q 40.140625 3.328125 35.546875 0.953125 
Q 30.953125 -1.421875 24.3125 -1.421875 
Q 15.921875 -1.421875 10.953125 3.296875 
Q 6 8.015625 6 15.921875 
Q 6 25.140625 12.171875 29.828125 
Q 18.359375 34.515625 30.609375 34.515625 
L 43.21875 34.515625 
L 43.21875 35.40625 
Q 43.21875 41.609375 39.140625 45 
Q 35.0625 48.390625 27.6875 48.390625 
Q 23 48.390625 18.546875 47.265625 
Q 14.109375 46.140625 10.015625 43.890625 
L 10.015625 52.203125 
Q 14.9375 54.109375 19.578125 55.046875 
Q 24.21875 56 28.609375 56 
Q 40.484375 56 46.34375 49.84375 
Q 52.203125 43.703125 52.203125 31.203125 
z
" id="DejaVuSans-61"/>
       <path d="M 48.78125 52.59375 
L 48.78125 44.1875 
Q 44.96875 46.296875 41.140625 47.34375 
Q 37.3125 48.390625 33.40625 48.390625 
Q 24.65625 48.390625 19.8125 42.84375 
Q 14.984375 37.3125 14.984375 27.296875 
Q 14.984375 17.28125 19.8125 11.734375 
Q 24.65625 6.203125 33.40625 6.203125 
Q 37.3125 6.203125 41.140625 7.25 
Q 44.96875 8.296875 48.78125 10.40625 
L 48.78125 2.09375 
Q 45.015625 0.34375 40.984375 -0.53125 
Q 36.96875 -1.421875 32.421875 -1.421875 
Q 20.0625 -1.421875 12.78125 6.34375 
Q 5.515625 14.109375 5.515625 27.296875 
Q 5.515625 40.671875 12.859375 48.328125 
Q 20.21875 56 33.015625 56 
Q 37.15625 56 41.109375 55.140625 
Q 45.0625 54.296875 48.78125 52.59375 
z
" id="DejaVuSans-63"/>
       <path d="M 54.890625 33.015625 
L 54.890625 0 
L 45.90625 0 
L 45.90625 32.71875 
Q 45.90625 40.484375 42.875 44.328125 
Q 39.84375 48.1875 33.796875 48.1875 
Q 26.515625 48.1875 22.3125 43.546875 
Q 18.109375 38.921875 18.109375 30.90625 
L 18.109375 0 
L 9.078125 0 
L 9.078125 75.984375 
L 18.109375 75.984375 
L 18.109375 46.1875 
Q 21.34375 51.125 25.703125 53.5625 
Q 30.078125 56 35.796875 56 
Q 45.21875 56 50.046875 50.171875 
Q 54.890625 44.34375 54.890625 33.015625 
z
" id="DejaVuSans-68"/>
       <path d="M 8.5 21.578125 
L 8.5 54.6875 
L 17.484375 54.6875 
L 17.484375 21.921875 
Q 17.484375 14.15625 20.5 10.265625 
Q 23.53125 6.390625 29.59375 6.390625 
Q 36.859375 6.390625 41.078125 11.03125 
Q 45.3125 15.671875 45.3125 23.6875 
L 45.3125 54.6875 
L 54.296875 54.6875 
L 54.296875 0 
L 45.3125 0 
L 45.3125 8.40625 
Q 42.046875 3.421875 37.71875 1 
Q 33.40625 -1.421875 27.6875 -1.421875 
Q 18.265625 -1.421875 13.375 4.4375 
Q 8.5 10.296875 8.5 21.578125 
z
M 31.109375 56 
z
" id="DejaVuSans-75"/>
       <path d="M 44.28125 53.078125 
L 44.28125 44.578125 
Q 40.484375 46.53125 36.375 47.5 
Q 32.28125 48.484375 27.875 48.484375 
Q 21.1875 48.484375 17.84375 46.4375 
Q 14.5 44.390625 14.5 40.28125 
Q 14.5 37.15625 16.890625 35.375 
Q 19.28125 33.59375 26.515625 31.984375 
L 29.59375 31.296875 
Q 39.15625 29.25 43.1875 25.515625 
Q 47.21875 21.78125 47.21875 15.09375 
Q 47.21875 7.46875 41.1875 3.015625 
Q 35.15625 -1.421875 24.609375 -1.421875 
Q 20.21875 -1.421875 15.453125 -0.5625 
Q 10.6875 0.296875 5.421875 2 
L 5.421875 11.28125 
Q 10.40625 8.6875 15.234375 7.390625 
Q 20.0625 6.109375 24.8125 6.109375 
Q 31.15625 6.109375 34.5625 8.28125 
Q 37.984375 10.453125 37.984375 14.40625 
Q 37.984375 18.0625 35.515625 20.015625 
Q 33.0625 21.96875 24.703125 23.78125 
L 21.578125 24.515625 
Q 13.234375 26.265625 9.515625 29.90625 
Q 5.8125 33.546875 5.8125 39.890625 
Q 5.8125 47.609375 11.28125 51.796875 
Q 16.75 56 26.8125 56 
Q 31.78125 56 36.171875 55.265625 
Q 40.578125 54.546875 44.28125 53.078125 
z
" id="DejaVuSans-73"/>
       <path d="M 56.203125 29.59375 
L 56.203125 25.203125 
L 14.890625 25.203125 
Q 15.484375 15.921875 20.484375 11.0625 
Q 25.484375 6.203125 34.421875 6.203125 
Q 39.59375 6.203125 44.453125 7.46875 
Q 49.3125 8.734375 54.109375 11.28125 
L 54.109375 2.78125 
Q 49.265625 0.734375 44.1875 -0.34375 
Q 39.109375 -1.421875 33.890625 -1.421875 
Q 20.796875 -1.421875 13.15625 6.1875 
Q 5.515625 13.8125 5.515625 26.8125 
Q 5.515625 40.234375 12.765625 48.109375 
Q 20.015625 56 32.328125 56 
Q 43.359375 56 49.78125 48.890625 
Q 56.203125 41.796875 56.203125 29.59375 
z
M 47.21875 32.234375 
Q 47.125 39.59375 43.09375 43.984375 
Q 39.0625 48.390625 32.421875 48.390625 
Q 24.90625 48.390625 20.390625 44.140625 
Q 15.875 39.890625 15.1875 32.171875 
z
" id="DejaVuSans-65"/>
       <path d="M 18.3125 70.21875 
L 18.3125 54.6875 
L 36.8125 54.6875 
L 36.8125 47.703125 
L 18.3125 47.703125 
L 18.3125 18.015625 
Q 18.3125 11.328125 20.140625 9.421875 
Q 21.96875 7.515625 27.59375 7.515625 
L 36.8125 7.515625 
L 36.8125 0 
L 27.59375 0 
Q 17.1875 0 13.234375 3.875 
Q 9.28125 7.765625 9.28125 18.015625 
L 9.28125 47.703125 
L 2.6875 47.703125 
L 2.6875 54.6875 
L 9.28125 54.6875 
L 9.28125 70.21875 
z
" id="DejaVuSans-74"/>
       <path id="DejaVuSans-20"/>
       <path d="M 4.890625 31.390625 
L 31.203125 31.390625 
L 31.203125 23.390625 
L 4.890625 23.390625 
z
" id="DejaVuSans-2d"/>
       <path d="M 64.40625 67.28125 
L 64.40625 56.890625 
Q 59.421875 61.53125 53.78125 63.8125 
Q 48.140625 66.109375 41.796875 66.109375 
Q 29.296875 66.109375 22.65625 58.46875 
Q 16.015625 50.828125 16.015625 36.375 
Q 16.015625 21.96875 22.65625 14.328125 
Q 29.296875 6.6875 41.796875 6.6875 
Q 48.140625 6.6875 53.78125 8.984375 
Q 59.421875 11.28125 64.40625 15.921875 
L 64.40625 5.609375 
Q 59.234375 2.09375 53.4375 0.328125 
Q 47.65625 -1.421875 41.21875 -1.421875 
Q 24.65625 -1.421875 15.125 8.703125 
Q 5.609375 18.84375 5.609375 36.375 
Q 5.609375 53.953125 15.125 64.078125 
Q 24.65625 74.21875 41.21875 74.21875 
Q 47.75 74.21875 53.53125 72.484375 
Q 59.328125 70.75 64.40625 67.28125 
z
" id="DejaVuSans-43"/>
       <path d="M 54.890625 33.015625 
L 54.890625 0 
L 45.90625 0 
L 45.90625 32.71875 
Q 45.90625 40.484375 42.875 44.328125 
Q 39.84375 48.1875 33.796875 48.1875 
Q 26.515625 48.1875 22.3125 43.546875 
Q 18.109375 38.921875 18.109375 30.90625 
L 18.109375 0 
L 9.078125 0 
L 9.078125 54.6875 
L 18.109375 54.6875 
L 18.109375 46.1875 
Q 21.34375 51.125 25.703125 53.5625 
Q 30.078125 56 35.796875 56 
Q 45.21875 56 50.046875 50.171875 
Q 54.890625 44.34375 54.890625 33.015625 
z
" id="DejaVuSans-6e"/>
       <path d="M 41.109375 46.296875 
Q 39.59375 47.171875 37.8125 47.578125 
Q 36.03125 48 33.890625 48 
Q 26.265625 48 22.1875 43.046875 
Q 18.109375 38.09375 18.109375 28.8125 
L 18.109375 0 
L 9.078125 0 
L 9.078125 54.6875 
L 18.109375 54.6875 
L 18.109375 46.1875 
Q 20.953125 51.171875 25.484375 53.578125 
Q 30.03125 56 36.53125 56 
Q 37.453125 56 38.578125 55.875 
Q 39.703125 55.765625 41.0625 55.515625 
z
" id="DejaVuSans-72"/>
       <path d="M 9.421875 75.984375 
L 18.40625 75.984375 
L 18.40625 0 
L 9.421875 0 
z
" id="DejaVuSans-6c"/>
       <path d="M -0.296875 72.90625 
L 61.375 72.90625 
L 61.375 64.59375 
L 35.5 64.59375 
L 35.5 0 
L 25.59375 0 
L 25.59375 64.59375 
L -0.296875 64.59375 
z
" id="DejaVuSans-54"/>
       <path d="M 9.8125 72.90625 
L 24.515625 72.90625 
L 43.109375 23.296875 
L 61.8125 72.90625 
L 76.515625 72.90625 
L 76.515625 0 
L 66.890625 0 
L 66.890625 64.015625 
L 48.09375 14.015625 
L 38.1875 14.015625 
L 19.390625 64.015625 
L 19.390625 0 
L 9.8125 0 
z
" id="DejaVuSans-4d"/>
       <path d="M 9.421875 54.6875 
L 18.40625 54.6875 
L 18.40625 0 
L 9.421875 0 
z
M 9.421875 75.984375 
L 18.40625 75.984375 
L 18.40625 64.59375 
L 9.421875 64.59375 
z
" id="DejaVuSans-69"/>
       <path d="M 45.40625 46.390625 
L 45.40625 75.984375 
L 54.390625 75.984375 
L 54.390625 0 
L 45.40625 0 
L 45.40625 8.203125 
Q 42.578125 3.328125 38.25 0.953125 
Q 33.9375 -1.421875 27.875 -1.421875 
Q 17.96875 -1.421875 11.734375 6.484375 
Q 5.515625 14.40625 5.515625 27.296875 
Q 5.515625 40.1875 11.734375 48.09375 
Q 17.96875 56 27.875 56 
Q 33.9375 56 38.25 53.625 
Q 42.578125 51.265625 45.40625 46.390625 
z
M 14.796875 27.296875 
Q 14.796875 17.390625 18.875 11.75 
Q 22.953125 6.109375 30.078125 6.109375 
Q 37.203125 6.109375 41.296875 11.75 
Q 45.40625 17.390625 45.40625 27.296875 
Q 45.40625 37.203125 41.296875 42.84375 
Q 37.203125 48.484375 30.078125 48.484375 
Q 22.953125 48.484375 18.875 42.84375 
Q 14.796875 37.203125 14.796875 27.296875 
z
" id="DejaVuSans-64"/>
      </defs>
      <g transform="translate(65.370433 660.604687)rotate(-90)scale(0.1 -0.1)">
       <use xlink:href="#DejaVuSans-57"/>
       <use x="98.783203" xlink:href="#DejaVuSans-61"/>
       <use x="160.0625" xlink:href="#DejaVuSans-63"/>
       <use x="215.042969" xlink:href="#DejaVuSans-68"/>
       <use x="278.421875" xlink:href="#DejaVuSans-75"/>
       <use x="341.800781" xlink:href="#DejaVuSans-73"/>
       <use x="393.900391" xlink:href="#DejaVuSans-65"/>
       <use x="455.423828" xlink:href="#DejaVuSans-74"/>
       <use x="494.632812" xlink:href="#DejaVuSans-74"/>
       <use x="533.841797" xlink:href="#DejaVuSans-20"/>
       <use x="565.628906" xlink:href="#DejaVuSans-2d"/>
       <use x="601.712891" xlink:href="#DejaVuSans-20"/>
       <use x="633.5" xlink:href="#DejaVuSans-43"/>
       <use x="703.324219" xlink:href="#DejaVuSans-65"/>
       <use x="764.847656" xlink:href="#DejaVuSans-6e"/>
       <use x="828.226562" xlink:href="#DejaVuSans-74"/>
       <use x="867.435547" xlink:href="#DejaVuSans-72"/>
       <use x="908.548828" xlink:href="#DejaVuSans-61"/>
       <use x="969.828125" xlink:href="#DejaVuSans-6c"/>
       <use x="997.611328" xlink:href="#DejaVuSans-20"/>
       <use x="1029.398438" xlink:href="#DejaVuSans-54"/>
       <use x="1090.263672" xlink:href="#DejaVuSans-72"/>
       <use x="1131.345703" xlink:href="#DejaVuSans-65"/>
       <use x="1192.869141" xlink:href="#DejaVuSans-65"/>
       <use x="1254.392578" xlink:href="#DejaVuSans-20"/>
       <use x="1286.179688" xlink:href="#DejaVuSans-4d"/>
       <use x="1372.458984" xlink:href="#DejaVuSans-69"/>
       <use x="1400.242188" xlink:href="#DejaVuSans-64"/>
       <use x="1463.71875" xlink:href="#DejaVuSans-64"/>
       <use x="1527.195312" xlink:href="#DejaVuSans-6c"/>
       <use x="1554.978516" xlink:href="#DejaVuSans-65"/>
      </g>
     </g>
    </g>
    <g id="xtick_2">
     <g id="line2d_2">
      <g>
       <use style="stroke:#000000;stroke-width:0.8;" x="114.058173" xlink:href="#m941df7eb10" y="491.95625"/>
      </g>
     </g>
     <g id="text_2">
      <!-- Wachusett - Chocksett Middle School -->
      <defs>
       <path d="M 30.609375 48.390625 
Q 23.390625 48.390625 19.1875 42.75 
Q 14.984375 37.109375 14.984375 27.296875 
Q 14.984375 17.484375 19.15625 11.84375 
Q 23.34375 6.203125 30.609375 6.203125 
Q 37.796875 6.203125 41.984375 11.859375 
Q 46.1875 17.53125 46.1875 27.296875 
Q 46.1875 37.015625 41.984375 42.703125 
Q 37.796875 48.390625 30.609375 48.390625 
z
M 30.609375 56 
Q 42.328125 56 49.015625 48.375 
Q 55.71875 40.765625 55.71875 27.296875 
Q 55.71875 13.875 49.015625 6.21875 
Q 42.328125 -1.421875 30.609375 -1.421875 
Q 18.84375 -1.421875 12.171875 6.21875 
Q 5.515625 13.875 5.515625 27.296875 
Q 5.515625 40.765625 12.171875 48.375 
Q 18.84375 56 30.609375 56 
z
" id="DejaVuSans-6f"/>
       <path d="M 9.078125 75.984375 
L 18.109375 75.984375 
L 18.109375 31.109375 
L 44.921875 54.6875 
L 56.390625 54.6875 
L 27.390625 29.109375 
L 57.625 0 
L 45.90625 0 
L 18.109375 26.703125 
L 18.109375 0 
L 9.078125 0 
z
" id="DejaVuSans-6b"/>
       <path d="M 53.515625 70.515625 
L 53.515625 60.890625 
Q 47.90625 63.578125 42.921875 64.890625 
Q 37.9375 66.21875 33.296875 66.21875 
Q 25.25 66.21875 20.875 63.09375 
Q 16.5 59.96875 16.5 54.203125 
Q 16.5 49.359375 19.40625 46.890625 
Q 22.3125 44.4375 30.421875 42.921875 
L 36.375 41.703125 
Q 47.40625 39.59375 52.65625 34.296875 
Q 57.90625 29 57.90625 20.125 
Q 57.90625 9.515625 50.796875 4.046875 
Q 43.703125 -1.421875 29.984375 -1.421875 
Q 24.8125 -1.421875 18.96875 -0.25 
Q 13.140625 0.921875 6.890625 3.21875 
L 6.890625 13.375 
Q 12.890625 10.015625 18.65625 8.296875 
Q 24.421875 6.59375 29.984375 6.59375 
Q 38.421875 6.59375 43.015625 9.90625 
Q 47.609375 13.234375 47.609375 19.390625 
Q 47.609375 24.75 44.3125 27.78125 
Q 41.015625 30.8125 33.5 32.328125 
L 27.484375 33.5 
Q 16.453125 35.6875 11.515625 40.375 
Q 6.59375 45.0625 6.59375 53.421875 
Q 6.59375 63.09375 13.40625 68.65625 
Q 20.21875 74.21875 32.171875 74.21875 
Q 37.3125 74.21875 42.625 73.28125 
Q 47.953125 72.359375 53.515625 70.515625 
z
" id="DejaVuSans-53"/>
      </defs>
      <g transform="translate(116.817548 684.825)rotate(-90)scale(0.1 -0.1)">
       <use xlink:href="#DejaVuSans-57"/>
       <use x="98.783203" xlink:href="#DejaVuSans-61"/>
       <use x="160.0625" xlink:href="#DejaVuSans-63"/>
       <use x="215.042969" xlink:href="#DejaVuSans-68"/>
       <use x="278.421875" xlink:href="#DejaVuSans-75"/>
       <use x="341.800781" xlink:href="#DejaVuSans-73"/>
       <use x="393.900391" xlink:href="#DejaVuSans-65"/>
       <use x="455.423828" xlink:href="#DejaVuSans-74"/>
       <use x="494.632812" xlink:href="#DejaVuSans-74"/>
       <use x="533.841797" xlink:href="#DejaVuSans-20"/>
       <use x="565.628906" xlink:href="#DejaVuSans-2d"/>
       <use x="601.712891" xlink:href="#DejaVuSans-20"/>
       <use x="633.5" xlink:href="#DejaVuSans-43"/>
       <use x="703.324219" xlink:href="#DejaVuSans-68"/>
       <use x="766.703125" xlink:href="#DejaVuSans-6f"/>
       <use x="827.884766" xlink:href="#DejaVuSans-63"/>
       <use x="882.865234" xlink:href="#DejaVuSans-6b"/>
       <use x="940.775391" xlink:href="#DejaVuSans-73"/>
       <use x="992.875" xlink:href="#DejaVuSans-65"/>
       <use x="1054.398438" xlink:href="#DejaVuSans-74"/>
       <use x="1093.607422" xlink:href="#DejaVuSans-74"/>
       <use x="1132.816406" xlink:href="#DejaVuSans-20"/>
       <use x="1164.603516" xlink:href="#DejaVuSans-4d"/>
       <use x="1250.882812" xlink:href="#DejaVuSans-69"/>
       <use x="1278.666016" xlink:href="#DejaVuSans-64"/>
       <use x="1342.142578" xlink:href="#DejaVuSans-64"/>
       <use x="1405.619141" xlink:href="#DejaVuSans-6c"/>
       <use x="1433.402344" xlink:href="#DejaVuSans-65"/>
       <use x="1494.925781" xlink:href="#DejaVuSans-20"/>
       <use x="1526.712891" xlink:href="#DejaVuSans-53"/>
       <use x="1590.189453" xlink:href="#DejaVuSans-63"/>
       <use x="1645.169922" xlink:href="#DejaVuSans-68"/>
       <use x="1708.548828" xlink:href="#DejaVuSans-6f"/>
       <use x="1769.730469" xlink:href="#DejaVuSans-6f"/>
       <use x="1830.912109" xlink:href="#DejaVuSans-6c"/>
      </g>
     </g>
    </g>
    <g id="xtick_3">
     <g id="line2d_3">
      <g>
       <use style="stroke:#000000;stroke-width:0.8;" x="165.505288" xlink:href="#m941df7eb10" y="491.95625"/>
      </g>
     </g>
     <g id="text_3">
      <!-- Wachusett - Davis Hill Elementary -->
      <defs>
       <path d="M 19.671875 64.796875 
L 19.671875 8.109375 
L 31.59375 8.109375 
Q 46.6875 8.109375 53.6875 14.9375 
Q 60.6875 21.78125 60.6875 36.53125 
Q 60.6875 51.171875 53.6875 57.984375 
Q 46.6875 64.796875 31.59375 64.796875 
z
M 9.8125 72.90625 
L 30.078125 72.90625 
Q 51.265625 72.90625 61.171875 64.09375 
Q 71.09375 55.28125 71.09375 36.53125 
Q 71.09375 17.671875 61.125 8.828125 
Q 51.171875 0 30.078125 0 
L 9.8125 0 
z
" id="DejaVuSans-44"/>
       <path d="M 2.984375 54.6875 
L 12.5 54.6875 
L 29.59375 8.796875 
L 46.6875 54.6875 
L 56.203125 54.6875 
L 35.6875 0 
L 23.484375 0 
z
" id="DejaVuSans-76"/>
       <path d="M 9.8125 72.90625 
L 19.671875 72.90625 
L 19.671875 43.015625 
L 55.515625 43.015625 
L 55.515625 72.90625 
L 65.375 72.90625 
L 65.375 0 
L 55.515625 0 
L 55.515625 34.71875 
L 19.671875 34.71875 
L 19.671875 0 
L 9.8125 0 
z
" id="DejaVuSans-48"/>
       <path d="M 9.8125 72.90625 
L 55.90625 72.90625 
L 55.90625 64.59375 
L 19.671875 64.59375 
L 19.671875 43.015625 
L 54.390625 43.015625 
L 54.390625 34.71875 
L 19.671875 34.71875 
L 19.671875 8.296875 
L 56.78125 8.296875 
L 56.78125 0 
L 9.8125 0 
z
" id="DejaVuSans-45"/>
       <path d="M 52 44.1875 
Q 55.375 50.25 60.0625 53.125 
Q 64.75 56 71.09375 56 
Q 79.640625 56 84.28125 50.015625 
Q 88.921875 44.046875 88.921875 33.015625 
L 88.921875 0 
L 79.890625 0 
L 79.890625 32.71875 
Q 79.890625 40.578125 77.09375 44.375 
Q 74.3125 48.1875 68.609375 48.1875 
Q 61.625 48.1875 57.5625 43.546875 
Q 53.515625 38.921875 53.515625 30.90625 
L 53.515625 0 
L 44.484375 0 
L 44.484375 32.71875 
Q 44.484375 40.625 41.703125 44.40625 
Q 38.921875 48.1875 33.109375 48.1875 
Q 26.21875 48.1875 22.15625 43.53125 
Q 18.109375 38.875 18.109375 30.90625 
L 18.109375 0 
L 9.078125 0 
L 9.078125 54.6875 
L 18.109375 54.6875 
L 18.109375 46.1875 
Q 21.1875 51.21875 25.484375 53.609375 
Q 29.78125 56 35.6875 56 
Q 41.65625 56 45.828125 52.96875 
Q 50 49.953125 52 44.1875 
z
" id="DejaVuSans-6d"/>
       <path d="M 32.171875 -5.078125 
Q 28.375 -14.84375 24.75 -17.8125 
Q 21.140625 -20.796875 15.09375 -20.796875 
L 7.90625 -20.796875 
L 7.90625 -13.28125 
L 13.1875 -13.28125 
Q 16.890625 -13.28125 18.9375 -11.515625 
Q 21 -9.765625 23.484375 -3.21875 
L 25.09375 0.875 
L 2.984375 54.6875 
L 12.5 54.6875 
L 29.59375 11.921875 
L 46.6875 54.6875 
L 56.203125 54.6875 
z
" id="DejaVuSans-79"/>
      </defs>
      <g transform="translate(168.264663 669.807812)rotate(-90)scale(0.1 -0.1)">
       <use xlink:href="#DejaVuSans-57"/>
       <use x="98.783203" xlink:href="#DejaVuSans-61"/>
       <use x="160.0625" xlink:href="#DejaVuSans-63"/>
       <use x="215.042969" xlink:href="#DejaVuSans-68"/>
       <use x="278.421875" xlink:href="#DejaVuSans-75"/>
       <use x="341.800781" xlink:href="#DejaVuSans-73"/>
       <use x="393.900391" xlink:href="#DejaVuSans-65"/>
       <use x="455.423828" xlink:href="#DejaVuSans-74"/>
       <use x="494.632812" xlink:href="#DejaVuSans-74"/>
       <use x="533.841797" xlink:href="#DejaVuSans-20"/>
       <use x="565.628906" xlink:href="#DejaVuSans-2d"/>
       <use x="601.712891" xlink:href="#DejaVuSans-20"/>
       <use x="633.5" xlink:href="#DejaVuSans-44"/>
       <use x="710.501953" xlink:href="#DejaVuSans-61"/>
       <use x="771.78125" xlink:href="#DejaVuSans-76"/>
       <use x="830.960938" xlink:href="#DejaVuSans-69"/>
       <use x="858.744141" xlink:href="#DejaVuSans-73"/>
       <use x="910.84375" xlink:href="#DejaVuSans-20"/>
       <use x="942.630859" xlink:href="#DejaVuSans-48"/>
       <use x="1017.826172" xlink:href="#DejaVuSans-69"/>
       <use x="1045.609375" xlink:href="#DejaVuSans-6c"/>
       <use x="1073.392578" xlink:href="#DejaVuSans-6c"/>
       <use x="1101.175781" xlink:href="#DejaVuSans-20"/>
       <use x="1132.962891" xlink:href="#DejaVuSans-45"/>
       <use x="1196.146484" xlink:href="#DejaVuSans-6c"/>
       <use x="1223.929688" xlink:href="#DejaVuSans-65"/>
       <use x="1285.453125" xlink:href="#DejaVuSans-6d"/>
       <use x="1382.865234" xlink:href="#DejaVuSans-65"/>
       <use x="1444.388672" xlink:href="#DejaVuSans-6e"/>
       <use x="1507.767578" xlink:href="#DejaVuSans-74"/>
       <use x="1546.976562" xlink:href="#DejaVuSans-61"/>
       <use x="1608.255859" xlink:href="#DejaVuSans-72"/>
       <use x="1649.369141" xlink:href="#DejaVuSans-79"/>
      </g>
     </g>
    </g>
    <g id="xtick_4">
     <g id="line2d_4">
      <g>
       <use style="stroke:#000000;stroke-width:0.8;" x="216.952404" xlink:href="#m941df7eb10" y="491.95625"/>
      </g>
     </g>
     <g id="text_4">
      <!-- Wachusett - Dawson -->
      <defs>
       <path d="M 4.203125 54.6875 
L 13.1875 54.6875 
L 24.421875 12.015625 
L 35.59375 54.6875 
L 46.1875 54.6875 
L 57.421875 12.015625 
L 68.609375 54.6875 
L 77.59375 54.6875 
L 63.28125 0 
L 52.6875 0 
L 40.921875 44.828125 
L 29.109375 0 
L 18.5 0 
z
" id="DejaVuSans-77"/>
      </defs>
      <g transform="translate(219.711779 601.975)rotate(-90)scale(0.1 -0.1)">
       <use xlink:href="#DejaVuSans-57"/>
       <use x="98.783203" xlink:href="#DejaVuSans-61"/>
       <use x="160.0625" xlink:href="#DejaVuSans-63"/>
       <use x="215.042969" xlink:href="#DejaVuSans-68"/>
       <use x="278.421875" xlink:href="#DejaVuSans-75"/>
       <use x="341.800781" xlink:href="#DejaVuSans-73"/>
       <use x="393.900391" xlink:href="#DejaVuSans-65"/>
       <use x="455.423828" xlink:href="#DejaVuSans-74"/>
       <use x="494.632812" xlink:href="#DejaVuSans-74"/>
       <use x="533.841797" xlink:href="#DejaVuSans-20"/>
       <use x="565.628906" xlink:href="#DejaVuSans-2d"/>
       <use x="601.712891" xlink:href="#DejaVuSans-20"/>
       <use x="633.5" xlink:href="#DejaVuSans-44"/>
       <use x="710.501953" xlink:href="#DejaVuSans-61"/>
       <use x="771.78125" xlink:href="#DejaVuSans-77"/>
       <use x="853.568359" xlink:href="#DejaVuSans-73"/>
       <use x="905.667969" xlink:href="#DejaVuSans-6f"/>
       <use x="966.849609" xlink:href="#DejaVuSans-6e"/>
      </g>
     </g>
    </g>
    <g id="xtick_5">
     <g id="line2d_5">
      <g>
       <use style="stroke:#000000;stroke-width:0.8;" x="268.399519" xlink:href="#m941df7eb10" y="491.95625"/>
      </g>
     </g>
     <g id="text_5">
      <!-- Wachusett - Early Childhood Center -->
      <g transform="translate(271.158894 677.720313)rotate(-90)scale(0.1 -0.1)">
       <use xlink:href="#DejaVuSans-57"/>
       <use x="98.783203" xlink:href="#DejaVuSans-61"/>
       <use x="160.0625" xlink:href="#DejaVuSans-63"/>
       <use x="215.042969" xlink:href="#DejaVuSans-68"/>
       <use x="278.421875" xlink:href="#DejaVuSans-75"/>
       <use x="341.800781" xlink:href="#DejaVuSans-73"/>
       <use x="393.900391" xlink:href="#DejaVuSans-65"/>
       <use x="455.423828" xlink:href="#DejaVuSans-74"/>
       <use x="494.632812" xlink:href="#DejaVuSans-74"/>
       <use x="533.841797" xlink:href="#DejaVuSans-20"/>
       <use x="565.628906" xlink:href="#DejaVuSans-2d"/>
       <use x="601.712891" xlink:href="#DejaVuSans-20"/>
       <use x="633.5" xlink:href="#DejaVuSans-45"/>
       <use x="696.683594" xlink:href="#DejaVuSans-61"/>
       <use x="757.962891" xlink:href="#DejaVuSans-72"/>
       <use x="799.076172" xlink:href="#DejaVuSans-6c"/>
       <use x="826.859375" xlink:href="#DejaVuSans-79"/>
       <use x="886.039062" xlink:href="#DejaVuSans-20"/>
       <use x="917.826172" xlink:href="#DejaVuSans-43"/>
       <use x="987.650391" xlink:href="#DejaVuSans-68"/>
       <use x="1051.029297" xlink:href="#DejaVuSans-69"/>
       <use x="1078.8125" xlink:href="#DejaVuSans-6c"/>
       <use x="1106.595703" xlink:href="#DejaVuSans-64"/>
       <use x="1170.072266" xlink:href="#DejaVuSans-68"/>
       <use x="1233.451172" xlink:href="#DejaVuSans-6f"/>
       <use x="1294.632812" xlink:href="#DejaVuSans-6f"/>
       <use x="1355.814453" xlink:href="#DejaVuSans-64"/>
       <use x="1419.291016" xlink:href="#DejaVuSans-20"/>
       <use x="1451.078125" xlink:href="#DejaVuSans-43"/>
       <use x="1520.902344" xlink:href="#DejaVuSans-65"/>
       <use x="1582.425781" xlink:href="#DejaVuSans-6e"/>
       <use x="1645.804688" xlink:href="#DejaVuSans-74"/>
       <use x="1685.013672" xlink:href="#DejaVuSans-65"/>
       <use x="1746.537109" xlink:href="#DejaVuSans-72"/>
      </g>
     </g>
    </g>
    <g id="xtick_6">
     <g id="line2d_6">
      <g>
       <use style="stroke:#000000;stroke-width:0.8;" x="319.846635" xlink:href="#m941df7eb10" y="491.95625"/>
      </g>
     </g>
     <g id="text_6">
      <!-- Wachusett - Glenwood Elementary School -->
      <defs>
       <path d="M 59.515625 10.40625 
L 59.515625 29.984375 
L 43.40625 29.984375 
L 43.40625 38.09375 
L 69.28125 38.09375 
L 69.28125 6.78125 
Q 63.578125 2.734375 56.6875 0.65625 
Q 49.8125 -1.421875 42 -1.421875 
Q 24.90625 -1.421875 15.25 8.5625 
Q 5.609375 18.5625 5.609375 36.375 
Q 5.609375 54.25 15.25 64.234375 
Q 24.90625 74.21875 42 74.21875 
Q 49.125 74.21875 55.546875 72.453125 
Q 61.96875 70.703125 67.390625 67.28125 
L 67.390625 56.78125 
Q 61.921875 61.421875 55.765625 63.765625 
Q 49.609375 66.109375 42.828125 66.109375 
Q 29.4375 66.109375 22.71875 58.640625 
Q 16.015625 51.171875 16.015625 36.375 
Q 16.015625 21.625 22.71875 14.15625 
Q 29.4375 6.6875 42.828125 6.6875 
Q 48.046875 6.6875 52.140625 7.59375 
Q 56.25 8.5 59.515625 10.40625 
z
" id="DejaVuSans-47"/>
      </defs>
      <g transform="translate(322.60601 709.2)rotate(-90)scale(0.1 -0.1)">
       <use xlink:href="#DejaVuSans-57"/>
       <use x="98.783203" xlink:href="#DejaVuSans-61"/>
       <use x="160.0625" xlink:href="#DejaVuSans-63"/>
       <use x="215.042969" xlink:href="#DejaVuSans-68"/>
       <use x="278.421875" xlink:href="#DejaVuSans-75"/>
       <use x="341.800781" xlink:href="#DejaVuSans-73"/>
       <use x="393.900391" xlink:href="#DejaVuSans-65"/>
       <use x="455.423828" xlink:href="#DejaVuSans-74"/>
       <use x="494.632812" xlink:href="#DejaVuSans-74"/>
       <use x="533.841797" xlink:href="#DejaVuSans-20"/>
       <use x="565.628906" xlink:href="#DejaVuSans-2d"/>
       <use x="601.712891" xlink:href="#DejaVuSans-20"/>
       <use x="633.5" xlink:href="#DejaVuSans-47"/>
       <use x="710.990234" xlink:href="#DejaVuSans-6c"/>
       <use x="738.773438" xlink:href="#DejaVuSans-65"/>
       <use x="800.296875" xlink:href="#DejaVuSans-6e"/>
       <use x="863.675781" xlink:href="#DejaVuSans-77"/>
       <use x="945.462891" xlink:href="#DejaVuSans-6f"/>
       <use x="1006.644531" xlink:href="#DejaVuSans-6f"/>
       <use x="1067.826172" xlink:href="#DejaVuSans-64"/>
       <use x="1131.302734" xlink:href="#DejaVuSans-20"/>
       <use x="1163.089844" xlink:href="#DejaVuSans-45"/>
       <use x="1226.273438" xlink:href="#DejaVuSans-6c"/>
       <use x="1254.056641" xlink:href="#DejaVuSans-65"/>
       <use x="1315.580078" xlink:href="#DejaVuSans-6d"/>
       <use x="1412.992188" xlink:href="#DejaVuSans-65"/>
       <use x="1474.515625" xlink:href="#DejaVuSans-6e"/>
       <use x="1537.894531" xlink:href="#DejaVuSans-74"/>
       <use x="1577.103516" xlink:href="#DejaVuSans-61"/>
       <use x="1638.382812" xlink:href="#DejaVuSans-72"/>
       <use x="1679.496094" xlink:href="#DejaVuSans-79"/>
       <use x="1738.675781" xlink:href="#DejaVuSans-20"/>
       <use x="1770.462891" xlink:href="#DejaVuSans-53"/>
       <use x="1833.939453" xlink:href="#DejaVuSans-63"/>
       <use x="1888.919922" xlink:href="#DejaVuSans-68"/>
       <use x="1952.298828" xlink:href="#DejaVuSans-6f"/>
       <use x="2013.480469" xlink:href="#DejaVuSans-6f"/>
       <use x="2074.662109" xlink:href="#DejaVuSans-6c"/>
      </g>
     </g>
    </g>
    <g id="xtick_7">
     <g id="line2d_7">
      <g>
       <use style="stroke:#000000;stroke-width:0.8;" x="371.29375" xlink:href="#m941df7eb10" y="491.95625"/>
      </g>
     </g>
     <g id="text_7">
      <!-- Wachusett - Houghton Elementary -->
      <defs>
       <path d="M 45.40625 27.984375 
Q 45.40625 37.75 41.375 43.109375 
Q 37.359375 48.484375 30.078125 48.484375 
Q 22.859375 48.484375 18.828125 43.109375 
Q 14.796875 37.75 14.796875 27.984375 
Q 14.796875 18.265625 18.828125 12.890625 
Q 22.859375 7.515625 30.078125 7.515625 
Q 37.359375 7.515625 41.375 12.890625 
Q 45.40625 18.265625 45.40625 27.984375 
z
M 54.390625 6.78125 
Q 54.390625 -7.171875 48.1875 -13.984375 
Q 42 -20.796875 29.203125 -20.796875 
Q 24.46875 -20.796875 20.265625 -20.09375 
Q 16.0625 -19.390625 12.109375 -17.921875 
L 12.109375 -9.1875 
Q 16.0625 -11.328125 19.921875 -12.34375 
Q 23.78125 -13.375 27.78125 -13.375 
Q 36.625 -13.375 41.015625 -8.765625 
Q 45.40625 -4.15625 45.40625 5.171875 
L 45.40625 9.625 
Q 42.625 4.78125 38.28125 2.390625 
Q 33.9375 0 27.875 0 
Q 17.828125 0 11.671875 7.65625 
Q 5.515625 15.328125 5.515625 27.984375 
Q 5.515625 40.671875 11.671875 48.328125 
Q 17.828125 56 27.875 56 
Q 33.9375 56 38.28125 53.609375 
Q 42.625 51.21875 45.40625 46.390625 
L 45.40625 54.6875 
L 54.390625 54.6875 
z
" id="DejaVuSans-67"/>
      </defs>
      <g transform="translate(374.053125 672.079688)rotate(-90)scale(0.1 -0.1)">
       <use xlink:href="#DejaVuSans-57"/>
       <use x="98.783203" xlink:href="#DejaVuSans-61"/>
       <use x="160.0625" xlink:href="#DejaVuSans-63"/>
       <use x="215.042969" xlink:href="#DejaVuSans-68"/>
       <use x="278.421875" xlink:href="#DejaVuSans-75"/>
       <use x="341.800781" xlink:href="#DejaVuSans-73"/>
       <use x="393.900391" xlink:href="#DejaVuSans-65"/>
       <use x="455.423828" xlink:href="#DejaVuSans-74"/>
       <use x="494.632812" xlink:href="#DejaVuSans-74"/>
       <use x="533.841797" xlink:href="#DejaVuSans-20"/>
       <use x="565.628906" xlink:href="#DejaVuSans-2d"/>
       <use x="601.712891" xlink:href="#DejaVuSans-20"/>
       <use x="633.5" xlink:href="#DejaVuSans-48"/>
       <use x="708.695312" xlink:href="#DejaVuSans-6f"/>
       <use x="769.876953" xlink:href="#DejaVuSans-75"/>
       <use x="833.255859" xlink:href="#DejaVuSans-67"/>
       <use x="896.732422" xlink:href="#DejaVuSans-68"/>
       <use x="960.111328" xlink:href="#DejaVuSans-74"/>
       <use x="999.320312" xlink:href="#DejaVuSans-6f"/>
       <use x="1060.501953" xlink:href="#DejaVuSans-6e"/>
       <use x="1123.880859" xlink:href="#DejaVuSans-20"/>
       <use x="1155.667969" xlink:href="#DejaVuSans-45"/>
       <use x="1218.851562" xlink:href="#DejaVuSans-6c"/>
       <use x="1246.634766" xlink:href="#DejaVuSans-65"/>
       <use x="1308.158203" xlink:href="#DejaVuSans-6d"/>
       <use x="1405.570312" xlink:href="#DejaVuSans-65"/>
       <use x="1467.09375" xlink:href="#DejaVuSans-6e"/>
       <use x="1530.472656" xlink:href="#DejaVuSans-74"/>
       <use x="1569.681641" xlink:href="#DejaVuSans-61"/>
       <use x="1630.960938" xlink:href="#DejaVuSans-72"/>
       <use x="1672.074219" xlink:href="#DejaVuSans-79"/>
      </g>
     </g>
    </g>
    <g id="xtick_8">
     <g id="line2d_8">
      <g>
       <use style="stroke:#000000;stroke-width:0.8;" x="422.740865" xlink:href="#m941df7eb10" y="491.95625"/>
      </g>
     </g>
     <g id="text_8">
      <!-- Wachusett - Leroy E.Mayo -->
      <defs>
       <path d="M 9.8125 72.90625 
L 19.671875 72.90625 
L 19.671875 8.296875 
L 55.171875 8.296875 
L 55.171875 0 
L 9.8125 0 
z
" id="DejaVuSans-4c"/>
       <path d="M 10.6875 12.40625 
L 21 12.40625 
L 21 0 
L 10.6875 0 
z
" id="DejaVuSans-2e"/>
      </defs>
      <g transform="translate(425.50024 629.640625)rotate(-90)scale(0.1 -0.1)">
       <use xlink:href="#DejaVuSans-57"/>
       <use x="98.783203" xlink:href="#DejaVuSans-61"/>
       <use x="160.0625" xlink:href="#DejaVuSans-63"/>
       <use x="215.042969" xlink:href="#DejaVuSans-68"/>
       <use x="278.421875" xlink:href="#DejaVuSans-75"/>
       <use x="341.800781" xlink:href="#DejaVuSans-73"/>
       <use x="393.900391" xlink:href="#DejaVuSans-65"/>
       <use x="455.423828" xlink:href="#DejaVuSans-74"/>
       <use x="494.632812" xlink:href="#DejaVuSans-74"/>
       <use x="533.841797" xlink:href="#DejaVuSans-20"/>
       <use x="565.628906" xlink:href="#DejaVuSans-2d"/>
       <use x="601.712891" xlink:href="#DejaVuSans-20"/>
       <use x="633.5" xlink:href="#DejaVuSans-4c"/>
       <use x="689.197266" xlink:href="#DejaVuSans-65"/>
       <use x="750.720703" xlink:href="#DejaVuSans-72"/>
       <use x="791.802734" xlink:href="#DejaVuSans-6f"/>
       <use x="852.984375" xlink:href="#DejaVuSans-79"/>
       <use x="912.164062" xlink:href="#DejaVuSans-20"/>
       <use x="943.951172" xlink:href="#DejaVuSans-45"/>
       <use x="1007.134766" xlink:href="#DejaVuSans-2e"/>
       <use x="1038.921875" xlink:href="#DejaVuSans-4d"/>
       <use x="1125.201172" xlink:href="#DejaVuSans-61"/>
       <use x="1186.480469" xlink:href="#DejaVuSans-79"/>
       <use x="1245.660156" xlink:href="#DejaVuSans-6f"/>
      </g>
     </g>
    </g>
    <g id="xtick_9">
     <g id="line2d_9">
      <g>
       <use style="stroke:#000000;stroke-width:0.8;" x="474.187981" xlink:href="#m941df7eb10" y="491.95625"/>
      </g>
     </g>
     <g id="text_9">
      <!-- Wachusett - Mountview Middle -->
      <g transform="translate(476.947356 652.885937)rotate(-90)scale(0.1 -0.1)">
       <use xlink:href="#DejaVuSans-57"/>
       <use x="98.783203" xlink:href="#DejaVuSans-61"/>
       <use x="160.0625" xlink:href="#DejaVuSans-63"/>
       <use x="215.042969" xlink:href="#DejaVuSans-68"/>
       <use x="278.421875" xlink:href="#DejaVuSans-75"/>
       <use x="341.800781" xlink:href="#DejaVuSans-73"/>
       <use x="393.900391" xlink:href="#DejaVuSans-65"/>
       <use x="455.423828" xlink:href="#DejaVuSans-74"/>
       <use x="494.632812" xlink:href="#DejaVuSans-74"/>
       <use x="533.841797" xlink:href="#DejaVuSans-20"/>
       <use x="565.628906" xlink:href="#DejaVuSans-2d"/>
       <use x="601.712891" xlink:href="#DejaVuSans-20"/>
       <use x="633.5" xlink:href="#DejaVuSans-4d"/>
       <use x="719.779297" xlink:href="#DejaVuSans-6f"/>
       <use x="780.960938" xlink:href="#DejaVuSans-75"/>
       <use x="844.339844" xlink:href="#DejaVuSans-6e"/>
       <use x="907.71875" xlink:href="#DejaVuSans-74"/>
       <use x="946.927734" xlink:href="#DejaVuSans-76"/>
       <use x="1006.107422" xlink:href="#DejaVuSans-69"/>
       <use x="1033.890625" xlink:href="#DejaVuSans-65"/>
       <use x="1095.414062" xlink:href="#DejaVuSans-77"/>
       <use x="1177.201172" xlink:href="#DejaVuSans-20"/>
       <use x="1208.988281" xlink:href="#DejaVuSans-4d"/>
       <use x="1295.267578" xlink:href="#DejaVuSans-69"/>
       <use x="1323.050781" xlink:href="#DejaVuSans-64"/>
       <use x="1386.527344" xlink:href="#DejaVuSans-64"/>
       <use x="1450.003906" xlink:href="#DejaVuSans-6c"/>
       <use x="1477.787109" xlink:href="#DejaVuSans-65"/>
      </g>
     </g>
    </g>
    <g id="xtick_10">
     <g id="line2d_10">
      <g>
       <use style="stroke:#000000;stroke-width:0.8;" x="525.635096" xlink:href="#m941df7eb10" y="491.95625"/>
      </g>
     </g>
     <g id="text_10">
      <!-- Wachusett - Naquag Elementary School -->
      <defs>
       <path d="M 9.8125 72.90625 
L 23.09375 72.90625 
L 55.421875 11.921875 
L 55.421875 72.90625 
L 64.984375 72.90625 
L 64.984375 0 
L 51.703125 0 
L 19.390625 60.984375 
L 19.390625 0 
L 9.8125 0 
z
" id="DejaVuSans-4e"/>
       <path d="M 14.796875 27.296875 
Q 14.796875 17.390625 18.875 11.75 
Q 22.953125 6.109375 30.078125 6.109375 
Q 37.203125 6.109375 41.296875 11.75 
Q 45.40625 17.390625 45.40625 27.296875 
Q 45.40625 37.203125 41.296875 42.84375 
Q 37.203125 48.484375 30.078125 48.484375 
Q 22.953125 48.484375 18.875 42.84375 
Q 14.796875 37.203125 14.796875 27.296875 
z
M 45.40625 8.203125 
Q 42.578125 3.328125 38.25 0.953125 
Q 33.9375 -1.421875 27.875 -1.421875 
Q 17.96875 -1.421875 11.734375 6.484375 
Q 5.515625 14.40625 5.515625 27.296875 
Q 5.515625 40.1875 11.734375 48.09375 
Q 17.96875 56 27.875 56 
Q 33.9375 56 38.25 53.625 
Q 42.578125 51.265625 45.40625 46.390625 
L 45.40625 54.6875 
L 54.390625 54.6875 
L 54.390625 -20.796875 
L 45.40625 -20.796875 
z
" id="DejaVuSans-71"/>
      </defs>
      <g transform="translate(528.394471 698.190625)rotate(-90)scale(0.1 -0.1)">
       <use xlink:href="#DejaVuSans-57"/>
       <use x="98.783203" xlink:href="#DejaVuSans-61"/>
       <use x="160.0625" xlink:href="#DejaVuSans-63"/>
       <use x="215.042969" xlink:href="#DejaVuSans-68"/>
       <use x="278.421875" xlink:href="#DejaVuSans-75"/>
       <use x="341.800781" xlink:href="#DejaVuSans-73"/>
       <use x="393.900391" xlink:href="#DejaVuSans-65"/>
       <use x="455.423828" xlink:href="#DejaVuSans-74"/>
       <use x="494.632812" xlink:href="#DejaVuSans-74"/>
       <use x="533.841797" xlink:href="#DejaVuSans-20"/>
       <use x="565.628906" xlink:href="#DejaVuSans-2d"/>
       <use x="601.712891" xlink:href="#DejaVuSans-20"/>
       <use x="633.5" xlink:href="#DejaVuSans-4e"/>
       <use x="708.304688" xlink:href="#DejaVuSans-61"/>
       <use x="769.583984" xlink:href="#DejaVuSans-71"/>
       <use x="833.060547" xlink:href="#DejaVuSans-75"/>
       <use x="896.439453" xlink:href="#DejaVuSans-61"/>
       <use x="957.71875" xlink:href="#DejaVuSans-67"/>
       <use x="1021.195312" xlink:href="#DejaVuSans-20"/>
       <use x="1052.982422" xlink:href="#DejaVuSans-45"/>
       <use x="1116.166016" xlink:href="#DejaVuSans-6c"/>
       <use x="1143.949219" xlink:href="#DejaVuSans-65"/>
       <use x="1205.472656" xlink:href="#DejaVuSans-6d"/>
       <use x="1302.884766" xlink:href="#DejaVuSans-65"/>
       <use x="1364.408203" xlink:href="#DejaVuSans-6e"/>
       <use x="1427.787109" xlink:href="#DejaVuSans-74"/>
       <use x="1466.996094" xlink:href="#DejaVuSans-61"/>
       <use x="1528.275391" xlink:href="#DejaVuSans-72"/>
       <use x="1569.388672" xlink:href="#DejaVuSans-79"/>
       <use x="1628.568359" xlink:href="#DejaVuSans-20"/>
       <use x="1660.355469" xlink:href="#DejaVuSans-53"/>
       <use x="1723.832031" xlink:href="#DejaVuSans-63"/>
       <use x="1778.8125" xlink:href="#DejaVuSans-68"/>
       <use x="1842.191406" xlink:href="#DejaVuSans-6f"/>
       <use x="1903.373047" xlink:href="#DejaVuSans-6f"/>
       <use x="1964.554688" xlink:href="#DejaVuSans-6c"/>
      </g>
     </g>
    </g>
    <g id="xtick_11">
     <g id="line2d_11">
      <g>
       <use style="stroke:#000000;stroke-width:0.8;" x="577.082212" xlink:href="#m941df7eb10" y="491.95625"/>
      </g>
     </g>
     <g id="text_11">
      <!-- Wachusett - Paxton Center -->
      <defs>
       <path d="M 19.671875 64.796875 
L 19.671875 37.40625 
L 32.078125 37.40625 
Q 38.96875 37.40625 42.71875 40.96875 
Q 46.484375 44.53125 46.484375 51.125 
Q 46.484375 57.671875 42.71875 61.234375 
Q 38.96875 64.796875 32.078125 64.796875 
z
M 9.8125 72.90625 
L 32.078125 72.90625 
Q 44.34375 72.90625 50.609375 67.359375 
Q 56.890625 61.8125 56.890625 51.125 
Q 56.890625 40.328125 50.609375 34.8125 
Q 44.34375 29.296875 32.078125 29.296875 
L 19.671875 29.296875 
L 19.671875 0 
L 9.8125 0 
z
" id="DejaVuSans-50"/>
       <path d="M 54.890625 54.6875 
L 35.109375 28.078125 
L 55.90625 0 
L 45.3125 0 
L 29.390625 21.484375 
L 13.484375 0 
L 2.875 0 
L 24.125 28.609375 
L 4.6875 54.6875 
L 15.28125 54.6875 
L 29.78125 35.203125 
L 44.28125 54.6875 
z
" id="DejaVuSans-78"/>
      </defs>
      <g transform="translate(579.841587 633.585938)rotate(-90)scale(0.1 -0.1)">
       <use xlink:href="#DejaVuSans-57"/>
       <use x="98.783203" xlink:href="#DejaVuSans-61"/>
       <use x="160.0625" xlink:href="#DejaVuSans-63"/>
       <use x="215.042969" xlink:href="#DejaVuSans-68"/>
       <use x="278.421875" xlink:href="#DejaVuSans-75"/>
       <use x="341.800781" xlink:href="#DejaVuSans-73"/>
       <use x="393.900391" xlink:href="#DejaVuSans-65"/>
       <use x="455.423828" xlink:href="#DejaVuSans-74"/>
       <use x="494.632812" xlink:href="#DejaVuSans-74"/>
       <use x="533.841797" xlink:href="#DejaVuSans-20"/>
       <use x="565.628906" xlink:href="#DejaVuSans-2d"/>
       <use x="601.712891" xlink:href="#DejaVuSans-20"/>
       <use x="633.5" xlink:href="#DejaVuSans-50"/>
       <use x="693.740234" xlink:href="#DejaVuSans-61"/>
       <use x="755.019531" xlink:href="#DejaVuSans-78"/>
       <use x="814.199219" xlink:href="#DejaVuSans-74"/>
       <use x="853.408203" xlink:href="#DejaVuSans-6f"/>
       <use x="914.589844" xlink:href="#DejaVuSans-6e"/>
       <use x="977.96875" xlink:href="#DejaVuSans-20"/>
       <use x="1009.755859" xlink:href="#DejaVuSans-43"/>
       <use x="1079.580078" xlink:href="#DejaVuSans-65"/>
       <use x="1141.103516" xlink:href="#DejaVuSans-6e"/>
       <use x="1204.482422" xlink:href="#DejaVuSans-74"/>
       <use x="1243.691406" xlink:href="#DejaVuSans-65"/>
       <use x="1305.214844" xlink:href="#DejaVuSans-72"/>
      </g>
     </g>
    </g>
    <g id="xtick_12">
     <g id="line2d_12">
      <g>
       <use style="stroke:#000000;stroke-width:0.8;" x="628.529327" xlink:href="#m941df7eb10" y="491.95625"/>
      </g>
     </g>
     <g id="text_12">
      <!-- Wachusett - Thomas Prince -->
      <g transform="translate(631.288702 636.029688)rotate(-90)scale(0.1 -0.1)">
       <use xlink:href="#DejaVuSans-57"/>
       <use x="98.783203" xlink:href="#DejaVuSans-61"/>
       <use x="160.0625" xlink:href="#DejaVuSans-63"/>
       <use x="215.042969" xlink:href="#DejaVuSans-68"/>
       <use x="278.421875" xlink:href="#DejaVuSans-75"/>
       <use x="341.800781" xlink:href="#DejaVuSans-73"/>
       <use x="393.900391" xlink:href="#DejaVuSans-65"/>
       <use x="455.423828" xlink:href="#DejaVuSans-74"/>
       <use x="494.632812" xlink:href="#DejaVuSans-74"/>
       <use x="533.841797" xlink:href="#DejaVuSans-20"/>
       <use x="565.628906" xlink:href="#DejaVuSans-2d"/>
       <use x="601.712891" xlink:href="#DejaVuSans-20"/>
       <use x="633.5" xlink:href="#DejaVuSans-54"/>
       <use x="694.583984" xlink:href="#DejaVuSans-68"/>
       <use x="757.962891" xlink:href="#DejaVuSans-6f"/>
       <use x="819.144531" xlink:href="#DejaVuSans-6d"/>
       <use x="916.556641" xlink:href="#DejaVuSans-61"/>
       <use x="977.835938" xlink:href="#DejaVuSans-73"/>
       <use x="1029.935547" xlink:href="#DejaVuSans-20"/>
       <use x="1061.722656" xlink:href="#DejaVuSans-50"/>
       <use x="1122.009766" xlink:href="#DejaVuSans-72"/>
       <use x="1163.123047" xlink:href="#DejaVuSans-69"/>
       <use x="1190.90625" xlink:href="#DejaVuSans-6e"/>
       <use x="1254.285156" xlink:href="#DejaVuSans-63"/>
       <use x="1309.265625" xlink:href="#DejaVuSans-65"/>
      </g>
     </g>
    </g>
    <g id="xtick_13">
     <g id="line2d_13">
      <g>
       <use style="stroke:#000000;stroke-width:0.8;" x="679.976442" xlink:href="#m941df7eb10" y="491.95625"/>
      </g>
     </g>
     <g id="text_13">
      <!-- Wachusett - Wachusett Regional High -->
      <defs>
       <path d="M 44.390625 34.1875 
Q 47.5625 33.109375 50.5625 29.59375 
Q 53.5625 26.078125 56.59375 19.921875 
L 66.609375 0 
L 56 0 
L 46.6875 18.703125 
Q 43.0625 26.03125 39.671875 28.421875 
Q 36.28125 30.8125 30.421875 30.8125 
L 19.671875 30.8125 
L 19.671875 0 
L 9.8125 0 
L 9.8125 72.90625 
L 32.078125 72.90625 
Q 44.578125 72.90625 50.734375 67.671875 
Q 56.890625 62.453125 56.890625 51.90625 
Q 56.890625 45.015625 53.6875 40.46875 
Q 50.484375 35.9375 44.390625 34.1875 
z
M 19.671875 64.796875 
L 19.671875 38.921875 
L 32.078125 38.921875 
Q 39.203125 38.921875 42.84375 42.21875 
Q 46.484375 45.515625 46.484375 51.90625 
Q 46.484375 58.296875 42.84375 61.546875 
Q 39.203125 64.796875 32.078125 64.796875 
z
" id="DejaVuSans-52"/>
      </defs>
      <g transform="translate(682.735817 688.610938)rotate(-90)scale(0.1 -0.1)">
       <use xlink:href="#DejaVuSans-57"/>
       <use x="98.783203" xlink:href="#DejaVuSans-61"/>
       <use x="160.0625" xlink:href="#DejaVuSans-63"/>
       <use x="215.042969" xlink:href="#DejaVuSans-68"/>
       <use x="278.421875" xlink:href="#DejaVuSans-75"/>
       <use x="341.800781" xlink:href="#DejaVuSans-73"/>
       <use x="393.900391" xlink:href="#DejaVuSans-65"/>
       <use x="455.423828" xlink:href="#DejaVuSans-74"/>
       <use x="494.632812" xlink:href="#DejaVuSans-74"/>
       <use x="533.841797" xlink:href="#DejaVuSans-20"/>
       <use x="565.628906" xlink:href="#DejaVuSans-2d"/>
       <use x="601.712891" xlink:href="#DejaVuSans-20"/>
       <use x="633.5" xlink:href="#DejaVuSans-57"/>
       <use x="732.283203" xlink:href="#DejaVuSans-61"/>
       <use x="793.5625" xlink:href="#DejaVuSans-63"/>
       <use x="848.542969" xlink:href="#DejaVuSans-68"/>
       <use x="911.921875" xlink:href="#DejaVuSans-75"/>
       <use x="975.300781" xlink:href="#DejaVuSans-73"/>
       <use x="1027.400391" xlink:href="#DejaVuSans-65"/>
       <use x="1088.923828" xlink:href="#DejaVuSans-74"/>
       <use x="1128.132812" xlink:href="#DejaVuSans-74"/>
       <use x="1167.341797" xlink:href="#DejaVuSans-20"/>
       <use x="1199.128906" xlink:href="#DejaVuSans-52"/>
       <use x="1268.548828" xlink:href="#DejaVuSans-65"/>
       <use x="1330.072266" xlink:href="#DejaVuSans-67"/>
       <use x="1393.548828" xlink:href="#DejaVuSans-69"/>
       <use x="1421.332031" xlink:href="#DejaVuSans-6f"/>
       <use x="1482.513672" xlink:href="#DejaVuSans-6e"/>
       <use x="1545.892578" xlink:href="#DejaVuSans-61"/>
       <use x="1607.171875" xlink:href="#DejaVuSans-6c"/>
       <use x="1634.955078" xlink:href="#DejaVuSans-20"/>
       <use x="1666.742188" xlink:href="#DejaVuSans-48"/>
       <use x="1741.9375" xlink:href="#DejaVuSans-69"/>
       <use x="1769.720703" xlink:href="#DejaVuSans-67"/>
       <use x="1833.197266" xlink:href="#DejaVuSans-68"/>
      </g>
     </g>
    </g>
   </g>
   <g id="matplotlib.axis_2">
    <g id="ytick_1">
     <g id="line2d_14">
      <defs>
       <path d="M 0 0 
L -3.5 0 
" id="m9511d0359c" style="stroke:#000000;stroke-width:0.8;"/>
      </defs>
      <g>
       <use style="stroke:#000000;stroke-width:0.8;" x="36.8875" xlink:href="#m9511d0359c" y="491.95625"/>
      </g>
     </g>
     <g id="text_14">
      <!-- 0 -->
      <defs>
       <path d="M 31.78125 66.40625 
Q 24.171875 66.40625 20.328125 58.90625 
Q 16.5 51.421875 16.5 36.375 
Q 16.5 21.390625 20.328125 13.890625 
Q 24.171875 6.390625 31.78125 6.390625 
Q 39.453125 6.390625 43.28125 13.890625 
Q 47.125 21.390625 47.125 36.375 
Q 47.125 51.421875 43.28125 58.90625 
Q 39.453125 66.40625 31.78125 66.40625 
z
M 31.78125 74.21875 
Q 44.046875 74.21875 50.515625 64.515625 
Q 56.984375 54.828125 56.984375 36.375 
Q 56.984375 17.96875 50.515625 8.265625 
Q 44.046875 -1.421875 31.78125 -1.421875 
Q 19.53125 -1.421875 13.0625 8.265625 
Q 6.59375 17.96875 6.59375 36.375 
Q 6.59375 54.828125 13.0625 64.515625 
Q 19.53125 74.21875 31.78125 74.21875 
z
" id="DejaVuSans-30"/>
      </defs>
      <g transform="translate(23.525 495.755469)scale(0.1 -0.1)">
       <use xlink:href="#DejaVuSans-30"/>
      </g>
     </g>
    </g>
    <g id="ytick_2">
     <g id="line2d_15">
      <g>
       <use style="stroke:#000000;stroke-width:0.8;" x="36.8875" xlink:href="#m9511d0359c" y="399.588592"/>
      </g>
     </g>
     <g id="text_15">
      <!-- 20 -->
      <defs>
       <path d="M 19.1875 8.296875 
L 53.609375 8.296875 
L 53.609375 0 
L 7.328125 0 
L 7.328125 8.296875 
Q 12.9375 14.109375 22.625 23.890625 
Q 32.328125 33.6875 34.8125 36.53125 
Q 39.546875 41.84375 41.421875 45.53125 
Q 43.3125 49.21875 43.3125 52.78125 
Q 43.3125 58.59375 39.234375 62.25 
Q 35.15625 65.921875 28.609375 65.921875 
Q 23.96875 65.921875 18.8125 64.3125 
Q 13.671875 62.703125 7.8125 59.421875 
L 7.8125 69.390625 
Q 13.765625 71.78125 18.9375 73 
Q 24.125 74.21875 28.421875 74.21875 
Q 39.75 74.21875 46.484375 68.546875 
Q 53.21875 62.890625 53.21875 53.421875 
Q 53.21875 48.921875 51.53125 44.890625 
Q 49.859375 40.875 45.40625 35.40625 
Q 44.1875 33.984375 37.640625 27.21875 
Q 31.109375 20.453125 19.1875 8.296875 
z
" id="DejaVuSans-32"/>
      </defs>
      <g transform="translate(17.1625 403.387811)scale(0.1 -0.1)">
       <use xlink:href="#DejaVuSans-32"/>
       <use x="63.623047" xlink:href="#DejaVuSans-30"/>
      </g>
     </g>
    </g>
    <g id="ytick_3">
     <g id="line2d_16">
      <g>
       <use style="stroke:#000000;stroke-width:0.8;" x="36.8875" xlink:href="#m9511d0359c" y="307.220935"/>
      </g>
     </g>
     <g id="text_16">
      <!-- 40 -->
      <defs>
       <path d="M 37.796875 64.3125 
L 12.890625 25.390625 
L 37.796875 25.390625 
z
M 35.203125 72.90625 
L 47.609375 72.90625 
L 47.609375 25.390625 
L 58.015625 25.390625 
L 58.015625 17.1875 
L 47.609375 17.1875 
L 47.609375 0 
L 37.796875 0 
L 37.796875 17.1875 
L 4.890625 17.1875 
L 4.890625 26.703125 
z
" id="DejaVuSans-34"/>
      </defs>
      <g transform="translate(17.1625 311.020153)scale(0.1 -0.1)">
       <use xlink:href="#DejaVuSans-34"/>
       <use x="63.623047" xlink:href="#DejaVuSans-30"/>
      </g>
     </g>
    </g>
    <g id="ytick_4">
     <g id="line2d_17">
      <g>
       <use style="stroke:#000000;stroke-width:0.8;" x="36.8875" xlink:href="#m9511d0359c" y="214.853277"/>
      </g>
     </g>
     <g id="text_17">
      <!-- 60 -->
      <defs>
       <path d="M 33.015625 40.375 
Q 26.375 40.375 22.484375 35.828125 
Q 18.609375 31.296875 18.609375 23.390625 
Q 18.609375 15.53125 22.484375 10.953125 
Q 26.375 6.390625 33.015625 6.390625 
Q 39.65625 6.390625 43.53125 10.953125 
Q 47.40625 15.53125 47.40625 23.390625 
Q 47.40625 31.296875 43.53125 35.828125 
Q 39.65625 40.375 33.015625 40.375 
z
M 52.59375 71.296875 
L 52.59375 62.3125 
Q 48.875 64.0625 45.09375 64.984375 
Q 41.3125 65.921875 37.59375 65.921875 
Q 27.828125 65.921875 22.671875 59.328125 
Q 17.53125 52.734375 16.796875 39.40625 
Q 19.671875 43.65625 24.015625 45.921875 
Q 28.375 48.1875 33.59375 48.1875 
Q 44.578125 48.1875 50.953125 41.515625 
Q 57.328125 34.859375 57.328125 23.390625 
Q 57.328125 12.15625 50.6875 5.359375 
Q 44.046875 -1.421875 33.015625 -1.421875 
Q 20.359375 -1.421875 13.671875 8.265625 
Q 6.984375 17.96875 6.984375 36.375 
Q 6.984375 53.65625 15.1875 63.9375 
Q 23.390625 74.21875 37.203125 74.21875 
Q 40.921875 74.21875 44.703125 73.484375 
Q 48.484375 72.75 52.59375 71.296875 
z
" id="DejaVuSans-36"/>
      </defs>
      <g transform="translate(17.1625 218.652496)scale(0.1 -0.1)">
       <use xlink:href="#DejaVuSans-36"/>
       <use x="63.623047" xlink:href="#DejaVuSans-30"/>
      </g>
     </g>
    </g>
    <g id="ytick_5">
     <g id="line2d_18">
      <g>
       <use style="stroke:#000000;stroke-width:0.8;" x="36.8875" xlink:href="#m9511d0359c" y="122.485619"/>
      </g>
     </g>
     <g id="text_18">
      <!-- 80 -->
      <defs>
       <path d="M 31.78125 34.625 
Q 24.75 34.625 20.71875 30.859375 
Q 16.703125 27.09375 16.703125 20.515625 
Q 16.703125 13.921875 20.71875 10.15625 
Q 24.75 6.390625 31.78125 6.390625 
Q 38.8125 6.390625 42.859375 10.171875 
Q 46.921875 13.96875 46.921875 20.515625 
Q 46.921875 27.09375 42.890625 30.859375 
Q 38.875 34.625 31.78125 34.625 
z
M 21.921875 38.8125 
Q 15.578125 40.375 12.03125 44.71875 
Q 8.5 49.078125 8.5 55.328125 
Q 8.5 64.0625 14.71875 69.140625 
Q 20.953125 74.21875 31.78125 74.21875 
Q 42.671875 74.21875 48.875 69.140625 
Q 55.078125 64.0625 55.078125 55.328125 
Q 55.078125 49.078125 51.53125 44.71875 
Q 48 40.375 41.703125 38.8125 
Q 48.828125 37.15625 52.796875 32.3125 
Q 56.78125 27.484375 56.78125 20.515625 
Q 56.78125 9.90625 50.3125 4.234375 
Q 43.84375 -1.421875 31.78125 -1.421875 
Q 19.734375 -1.421875 13.25 4.234375 
Q 6.78125 9.90625 6.78125 20.515625 
Q 6.78125 27.484375 10.78125 32.3125 
Q 14.796875 37.15625 21.921875 38.8125 
z
M 18.3125 54.390625 
Q 18.3125 48.734375 21.84375 45.5625 
Q 25.390625 42.390625 31.78125 42.390625 
Q 38.140625 42.390625 41.71875 45.5625 
Q 45.3125 48.734375 45.3125 54.390625 
Q 45.3125 60.0625 41.71875 63.234375 
Q 38.140625 66.40625 31.78125 66.40625 
Q 25.390625 66.40625 21.84375 63.234375 
Q 18.3125 60.0625 18.3125 54.390625 
z
" id="DejaVuSans-38"/>
      </defs>
      <g transform="translate(17.1625 126.284838)scale(0.1 -0.1)">
       <use xlink:href="#DejaVuSans-38"/>
       <use x="63.623047" xlink:href="#DejaVuSans-30"/>
      </g>
     </g>
    </g>
    <g id="ytick_6">
     <g id="line2d_19">
      <g>
       <use style="stroke:#000000;stroke-width:0.8;" x="36.8875" xlink:href="#m9511d0359c" y="30.117961"/>
      </g>
     </g>
     <g id="text_19">
      <!-- 100 -->
      <defs>
       <path d="M 12.40625 8.296875 
L 28.515625 8.296875 
L 28.515625 63.921875 
L 10.984375 60.40625 
L 10.984375 69.390625 
L 28.421875 72.90625 
L 38.28125 72.90625 
L 38.28125 8.296875 
L 54.390625 8.296875 
L 54.390625 0 
L 12.40625 0 
z
" id="DejaVuSans-31"/>
      </defs>
      <g transform="translate(10.8 33.91718)scale(0.1 -0.1)">
       <use xlink:href="#DejaVuSans-31"/>
       <use x="63.623047" xlink:href="#DejaVuSans-30"/>
       <use x="127.246094" xlink:href="#DejaVuSans-30"/>
      </g>
     </g>
    </g>
   </g>
   <g id="patch_55">
    <path d="M 36.8875 491.95625 
L 36.8875 14.3 
" style="fill:none;stroke:#000000;stroke-linecap:square;stroke-linejoin:miter;stroke-width:0.8;"/>
   </g>
   <g id="patch_56">
    <path d="M 705.7 491.95625 
L 705.7 14.3 
" style="fill:none;stroke:#000000;stroke-linecap:square;stroke-linejoin:miter;stroke-width:0.8;"/>
   </g>
   <g id="patch_57">
    <path d="M 36.8875 491.95625 
L 705.7 491.95625 
" style="fill:none;stroke:#000000;stroke-linecap:square;stroke-linejoin:miter;stroke-width:0.8;"/>
   </g>
   <g id="patch_58">
    <path d="M 36.8875 14.3 
L 705.7 14.3 
" style="fill:none;stroke:#000000;stroke-linecap:square;stroke-linejoin:miter;stroke-width:0.8;"/>
   </g>
   <g id="legend_1">
    <g id="patch_59">
     <path d="M 583.903125 283.984375 
L 698.7 283.984375 
Q 700.7 283.984375 700.7 281.984375 
L 700.7 224.271875 
Q 700.7 222.271875 698.7 222.271875 
L 583.903125 222.271875 
Q 581.903125 222.271875 581.903125 224.271875 
L 581.903125 281.984375 
Q 581.903125 283.984375 583.903125 283.984375 
z
" style="fill:#ffffff;opacity:0.8;stroke:#cccccc;stroke-linejoin:miter;"/>
    </g>
    <g id="patch_60">
     <path d="M 585.903125 233.870313 
L 605.903125 233.870313 
L 605.903125 226.870313 
L 585.903125 226.870313 
z
" style="fill:#1f77b4;"/>
    </g>
    <g id="text_20">
     <!-- AfricanAmerican -->
     <defs>
      <path d="M 34.1875 63.1875 
L 20.796875 26.90625 
L 47.609375 26.90625 
z
M 28.609375 72.90625 
L 39.796875 72.90625 
L 67.578125 0 
L 57.328125 0 
L 50.6875 18.703125 
L 17.828125 18.703125 
L 11.1875 0 
L 0.78125 0 
z
" id="DejaVuSans-41"/>
      <path d="M 37.109375 75.984375 
L 37.109375 68.5 
L 28.515625 68.5 
Q 23.6875 68.5 21.796875 66.546875 
Q 19.921875 64.59375 19.921875 59.515625 
L 19.921875 54.6875 
L 34.71875 54.6875 
L 34.71875 47.703125 
L 19.921875 47.703125 
L 19.921875 0 
L 10.890625 0 
L 10.890625 47.703125 
L 2.296875 47.703125 
L 2.296875 54.6875 
L 10.890625 54.6875 
L 10.890625 58.5 
Q 10.890625 67.625 15.140625 71.796875 
Q 19.390625 75.984375 28.609375 75.984375 
z
" id="DejaVuSans-66"/>
     </defs>
     <g transform="translate(613.903125 233.870313)scale(0.1 -0.1)">
      <use xlink:href="#DejaVuSans-41"/>
      <use x="68.361328" xlink:href="#DejaVuSans-66"/>
      <use x="103.566406" xlink:href="#DejaVuSans-72"/>
      <use x="144.679688" xlink:href="#DejaVuSans-69"/>
      <use x="172.462891" xlink:href="#DejaVuSans-63"/>
      <use x="227.443359" xlink:href="#DejaVuSans-61"/>
      <use x="288.722656" xlink:href="#DejaVuSans-6e"/>
      <use x="352.101562" xlink:href="#DejaVuSans-41"/>
      <use x="420.509766" xlink:href="#DejaVuSans-6d"/>
      <use x="517.921875" xlink:href="#DejaVuSans-65"/>
      <use x="579.445312" xlink:href="#DejaVuSans-72"/>
      <use x="620.558594" xlink:href="#DejaVuSans-69"/>
      <use x="648.341797" xlink:href="#DejaVuSans-63"/>
      <use x="703.322266" xlink:href="#DejaVuSans-61"/>
      <use x="764.601562" xlink:href="#DejaVuSans-6e"/>
     </g>
    </g>
    <g id="patch_61">
     <path d="M 585.903125 248.548438 
L 605.903125 248.548438 
L 605.903125 241.548438 
L 585.903125 241.548438 
z
" style="fill:#ff7f0e;"/>
    </g>
    <g id="text_21">
     <!-- Asian -->
     <g transform="translate(613.903125 248.548438)scale(0.1 -0.1)">
      <use xlink:href="#DejaVuSans-41"/>
      <use x="68.408203" xlink:href="#DejaVuSans-73"/>
      <use x="120.507812" xlink:href="#DejaVuSans-69"/>
      <use x="148.291016" xlink:href="#DejaVuSans-61"/>
      <use x="209.570312" xlink:href="#DejaVuSans-6e"/>
     </g>
    </g>
    <g id="patch_62">
     <path d="M 585.903125 263.226563 
L 605.903125 263.226563 
L 605.903125 256.226563 
L 585.903125 256.226563 
z
" style="fill:#2ca02c;"/>
    </g>
    <g id="text_22">
     <!-- White -->
     <g transform="translate(613.903125 263.226563)scale(0.1 -0.1)">
      <use xlink:href="#DejaVuSans-57"/>
      <use x="98.876953" xlink:href="#DejaVuSans-68"/>
      <use x="162.255859" xlink:href="#DejaVuSans-69"/>
      <use x="190.039062" xlink:href="#DejaVuSans-74"/>
      <use x="229.248047" xlink:href="#DejaVuSans-65"/>
     </g>
    </g>
    <g id="patch_63">
     <path d="M 585.903125 277.904688 
L 605.903125 277.904688 
L 605.903125 270.904688 
L 585.903125 270.904688 
z
" style="fill:#d62728;"/>
    </g>
    <g id="text_23">
     <!-- Hispanic -->
     <defs>
      <path d="M 18.109375 8.203125 
L 18.109375 -20.796875 
L 9.078125 -20.796875 
L 9.078125 54.6875 
L 18.109375 54.6875 
L 18.109375 46.390625 
Q 20.953125 51.265625 25.265625 53.625 
Q 29.59375 56 35.59375 56 
Q 45.5625 56 51.78125 48.09375 
Q 58.015625 40.1875 58.015625 27.296875 
Q 58.015625 14.40625 51.78125 6.484375 
Q 45.5625 -1.421875 35.59375 -1.421875 
Q 29.59375 -1.421875 25.265625 0.953125 
Q 20.953125 3.328125 18.109375 8.203125 
z
M 48.6875 27.296875 
Q 48.6875 37.203125 44.609375 42.84375 
Q 40.53125 48.484375 33.40625 48.484375 
Q 26.265625 48.484375 22.1875 42.84375 
Q 18.109375 37.203125 18.109375 27.296875 
Q 18.109375 17.390625 22.1875 11.75 
Q 26.265625 6.109375 33.40625 6.109375 
Q 40.53125 6.109375 44.609375 11.75 
Q 48.6875 17.390625 48.6875 27.296875 
z
" id="DejaVuSans-70"/>
     </defs>
     <g transform="translate(613.903125 277.904688)scale(0.1 -0.1)">
      <use xlink:href="#DejaVuSans-48"/>
      <use x="75.195312" xlink:href="#DejaVuSans-69"/>
      <use x="102.978516" xlink:href="#DejaVuSans-73"/>
      <use x="155.078125" xlink:href="#DejaVuSans-70"/>
      <use x="218.554688" xlink:href="#DejaVuSans-61"/>
      <use x="279.833984" xlink:href="#DejaVuSans-6e"/>
      <use x="343.212891" xlink:href="#DejaVuSans-69"/>
      <use x="370.996094" xlink:href="#DejaVuSans-63"/>
     </g>
    </g>
   </g>
  </g>
 </g>
 <defs>
  <clipPath id="pa1936919d3">
   <rect height="477.65625" width="668.8125" x="36.8875" y="14.3"/>
  </clipPath>
 </defs>
</svg>
