<?xml version="1.0" encoding="utf-8" standalone="no"?>
<!DOCTYPE svg PUBLIC "-//W3C//DTD SVG 1.1//EN"
  "http://www.w3.org/Graphics/SVG/1.1/DTD/svg11.dtd">
<!-- Created with matplotlib (http://matplotlib.org/) -->
<svg height="720pt" version="1.1" viewBox="0 0 720 720" width="720pt" xmlns="http://www.w3.org/2000/svg" xmlns:xlink="http://www.w3.org/1999/xlink">
 <defs>
  <style type="text/css">
*{stroke-linecap:butt;stroke-linejoin:round;}
  </style>
 </defs>
 <g id="figure_1">
  <g id="patch_1">
   <path d="M 0 720 
L 720 720 
L 720 0 
L 0 0 
z
" style="fill:#ffffff;"/>
  </g>
  <g id="axes_1">
   <g id="patch_2">
    <path d="M 30.525 503.435937 
L 705.7 503.435937 
L 705.7 14.3 
L 30.525 14.3 
z
" style="fill:#ffffff;"/>
   </g>
   <g id="patch_3">
    <path clip-path="url(#pd3c1ae407d)" d="M 49.279861 503.435937 
L 61.783102 503.435937 
L 61.783102 365.052941 
L 49.279861 365.052941 
z
" style="fill:#1f77b4;"/>
   </g>
   <g id="patch_4">
    <path clip-path="url(#pd3c1ae407d)" d="M 124.299306 503.435937 
L 136.802546 503.435937 
L 136.802546 252.70239 
L 124.299306 252.70239 
z
" style="fill:#1f77b4;"/>
   </g>
   <g id="patch_5">
    <path clip-path="url(#pd3c1ae407d)" d="M 199.31875 503.435937 
L 211.821991 503.435937 
L 211.821991 277.364706 
L 199.31875 277.364706 
z
" style="fill:#1f77b4;"/>
   </g>
   <g id="patch_6">
    <path clip-path="url(#pd3c1ae407d)" d="M 274.338194 503.435937 
L 286.841435 503.435937 
L 286.841435 311.617923 
L 274.338194 311.617923 
z
" style="fill:#1f77b4;"/>
   </g>
   <g id="patch_7">
    <path clip-path="url(#pd3c1ae407d)" d="M 349.357639 503.435937 
L 361.86088 503.435937 
L 361.86088 340.390625 
L 349.357639 340.390625 
z
" style="fill:#1f77b4;"/>
   </g>
   <g id="patch_8">
    <path clip-path="url(#pd3c1ae407d)" d="M 424.377083 503.435937 
L 436.880324 503.435937 
L 436.880324 66.36489 
L 424.377083 66.36489 
z
" style="fill:#1f77b4;"/>
   </g>
   <g id="patch_9">
    <path clip-path="url(#pd3c1ae407d)" d="M 499.396528 503.435937 
L 511.899769 503.435937 
L 511.899769 271.884191 
L 499.396528 271.884191 
z
" style="fill:#1f77b4;"/>
   </g>
   <g id="patch_10">
    <path clip-path="url(#pd3c1ae407d)" d="M 574.415972 503.435937 
L 586.919213 503.435937 
L 586.919213 318.468566 
L 574.415972 318.468566 
z
" style="fill:#1f77b4;"/>
   </g>
   <g id="patch_11">
    <path clip-path="url(#pd3c1ae407d)" d="M 649.435417 503.435937 
L 661.938657 503.435937 
L 661.938657 291.065993 
L 649.435417 291.065993 
z
" style="fill:#1f77b4;"/>
   </g>
   <g id="patch_12">
    <path clip-path="url(#pd3c1ae407d)" d="M 61.783102 503.435937 
L 74.286343 503.435937 
L 74.286343 241.74136 
L 61.783102 241.74136 
z
" style="fill:#ff7f0e;"/>
   </g>
   <g id="patch_13">
    <path clip-path="url(#pd3c1ae407d)" d="M 136.802546 503.435937 
L 149.305787 503.435937 
L 149.305787 184.195956 
L 136.802546 184.195956 
z
" style="fill:#ff7f0e;"/>
   </g>
   <g id="patch_14">
    <path clip-path="url(#pd3c1ae407d)" d="M 211.821991 503.435937 
L 224.325231 503.435937 
L 224.325231 207.488143 
L 211.821991 207.488143 
z
" style="fill:#ff7f0e;"/>
   </g>
   <g id="patch_15">
    <path clip-path="url(#pd3c1ae407d)" d="M 286.841435 503.435937 
L 299.344676 503.435937 
L 299.344676 180.08557 
L 286.841435 180.08557 
z
" style="fill:#ff7f0e;"/>
   </g>
   <g id="patch_16">
    <path clip-path="url(#pd3c1ae407d)" d="M 361.86088 503.435937 
L 374.36412 503.435937 
L 374.36412 217.079044 
L 361.86088 217.079044 
z
" style="fill:#ff7f0e;"/>
   </g>
   <g id="patch_17">
    <path clip-path="url(#pd3c1ae407d)" d="M 436.880324 503.435937 
L 449.383565 503.435937 
L 449.383565 37.592188 
L 436.880324 37.592188 
z
" style="fill:#ff7f0e;"/>
   </g>
   <g id="patch_18">
    <path clip-path="url(#pd3c1ae407d)" d="M 511.899769 503.435937 
L 524.403009 503.435937 
L 524.403009 196.527114 
L 511.899769 196.527114 
z
" style="fill:#ff7f0e;"/>
   </g>
   <g id="patch_19">
    <path clip-path="url(#pd3c1ae407d)" d="M 586.919213 503.435937 
L 599.422454 503.435937 
L 599.422454 192.416728 
L 586.919213 192.416728 
z
" style="fill:#ff7f0e;"/>
   </g>
   <g id="patch_20">
    <path clip-path="url(#pd3c1ae407d)" d="M 661.938657 503.435937 
L 674.441898 503.435937 
L 674.441898 206.118015 
L 661.938657 206.118015 
z
" style="fill:#ff7f0e;"/>
   </g>
   <g id="patch_21">
    <path clip-path="url(#pd3c1ae407d)" d="M 74.286343 503.435937 
L 86.789583 503.435937 
L 86.789583 382.864614 
L 74.286343 382.864614 
z
" style="fill:#2ca02c;"/>
   </g>
   <g id="patch_22">
    <path clip-path="url(#pd3c1ae407d)" d="M 149.305787 503.435937 
L 161.809028 503.435937 
L 161.809028 396.565901 
L 149.305787 396.565901 
z
" style="fill:#2ca02c;"/>
   </g>
   <g id="patch_23">
    <path clip-path="url(#pd3c1ae407d)" d="M 224.325231 503.435937 
L 236.828472 503.435937 
L 236.828472 422.598346 
L 224.325231 422.598346 
z
" style="fill:#2ca02c;"/>
   </g>
   <g id="patch_24">
    <path clip-path="url(#pd3c1ae407d)" d="M 299.344676 503.435937 
L 311.847917 503.435937 
L 311.847917 373.273713 
L 299.344676 373.273713 
z
" style="fill:#2ca02c;"/>
   </g>
   <g id="patch_25">
    <path clip-path="url(#pd3c1ae407d)" d="M 374.36412 503.435937 
L 386.867361 503.435937 
L 386.867361 358.202298 
L 374.36412 358.202298 
z
" style="fill:#2ca02c;"/>
   </g>
   <g id="patch_26">
    <path clip-path="url(#pd3c1ae407d)" d="M 449.383565 503.435937 
L 461.886806 503.435937 
L 461.886806 386.975 
L 449.383565 386.975 
z
" style="fill:#2ca02c;"/>
   </g>
   <g id="patch_27">
    <path clip-path="url(#pd3c1ae407d)" d="M 524.403009 503.435937 
L 536.90625 503.435937 
L 536.90625 399.306158 
L 524.403009 399.306158 
z
" style="fill:#2ca02c;"/>
   </g>
   <g id="patch_28">
    <path clip-path="url(#pd3c1ae407d)" d="M 599.422454 503.435937 
L 611.925694 503.435937 
L 611.925694 349.981526 
L 599.422454 349.981526 
z
" style="fill:#2ca02c;"/>
   </g>
   <g id="patch_29">
    <path clip-path="url(#pd3c1ae407d)" d="M 674.441898 503.435937 
L 686.945139 503.435937 
L 686.945139 395.195772 
L 674.441898 395.195772 
z
" style="fill:#2ca02c;"/>
   </g>
   <g id="matplotlib.axis_1">
    <g id="xtick_1">
     <g id="line2d_1">
      <defs>
       <path d="M 0 0 
L 0 3.5 
" id="m3186da300b" style="stroke:#000000;stroke-width:0.8;"/>
      </defs>
      <g>
       <use style="stroke:#000000;stroke-width:0.8;" x="68.034722" xlink:href="#m3186da300b" y="503.435937"/>
      </g>
     </g>
     <g id="text_1">
      <!-- Reading - Alice M Barrows -->
      <defs>
       <path d="M 44.390625 34.1875 
Q 47.5625 33.109375 50.5625 29.59375 
Q 53.5625 26.078125 56.59375 19.921875 
L 66.609375 0 
L 56 0 
L 46.6875 18.703125 
Q 43.0625 26.03125 39.671875 28.421875 
Q 36.28125 30.8125 30.421875 30.8125 
L 19.671875 30.8125 
L 19.671875 0 
L 9.8125 0 
L 9.8125 72.90625 
L 32.078125 72.90625 
Q 44.578125 72.90625 50.734375 67.671875 
Q 56.890625 62.453125 56.890625 51.90625 
Q 56.890625 45.015625 53.6875 40.46875 
Q 50.484375 35.9375 44.390625 34.1875 
z
M 19.671875 64.796875 
L 19.671875 38.921875 
L 32.078125 38.921875 
Q 39.203125 38.921875 42.84375 42.21875 
Q 46.484375 45.515625 46.484375 51.90625 
Q 46.484375 58.296875 42.84375 61.546875 
Q 39.203125 64.796875 32.078125 64.796875 
z
" id="DejaVuSans-52"/>
       <path d="M 56.203125 29.59375 
L 56.203125 25.203125 
L 14.890625 25.203125 
Q 15.484375 15.921875 20.484375 11.0625 
Q 25.484375 6.203125 34.421875 6.203125 
Q 39.59375 6.203125 44.453125 7.46875 
Q 49.3125 8.734375 54.109375 11.28125 
L 54.109375 2.78125 
Q 49.265625 0.734375 44.1875 -0.34375 
Q 39.109375 -1.421875 33.890625 -1.421875 
Q 20.796875 -1.421875 13.15625 6.1875 
Q 5.515625 13.8125 5.515625 26.8125 
Q 5.515625 40.234375 12.765625 48.109375 
Q 20.015625 56 32.328125 56 
Q 43.359375 56 49.78125 48.890625 
Q 56.203125 41.796875 56.203125 29.59375 
z
M 47.21875 32.234375 
Q 47.125 39.59375 43.09375 43.984375 
Q 39.0625 48.390625 32.421875 48.390625 
Q 24.90625 48.390625 20.390625 44.140625 
Q 15.875 39.890625 15.1875 32.171875 
z
" id="DejaVuSans-65"/>
       <path d="M 34.28125 27.484375 
Q 23.390625 27.484375 19.1875 25 
Q 14.984375 22.515625 14.984375 16.5 
Q 14.984375 11.71875 18.140625 8.90625 
Q 21.296875 6.109375 26.703125 6.109375 
Q 34.1875 6.109375 38.703125 11.40625 
Q 43.21875 16.703125 43.21875 25.484375 
L 43.21875 27.484375 
z
M 52.203125 31.203125 
L 52.203125 0 
L 43.21875 0 
L 43.21875 8.296875 
Q 40.140625 3.328125 35.546875 0.953125 
Q 30.953125 -1.421875 24.3125 -1.421875 
Q 15.921875 -1.421875 10.953125 3.296875 
Q 6 8.015625 6 15.921875 
Q 6 25.140625 12.171875 29.828125 
Q 18.359375 34.515625 30.609375 34.515625 
L 43.21875 34.515625 
L 43.21875 35.40625 
Q 43.21875 41.609375 39.140625 45 
Q 35.0625 48.390625 27.6875 48.390625 
Q 23 48.390625 18.546875 47.265625 
Q 14.109375 46.140625 10.015625 43.890625 
L 10.015625 52.203125 
Q 14.9375 54.109375 19.578125 55.046875 
Q 24.21875 56 28.609375 56 
Q 40.484375 56 46.34375 49.84375 
Q 52.203125 43.703125 52.203125 31.203125 
z
" id="DejaVuSans-61"/>
       <path d="M 45.40625 46.390625 
L 45.40625 75.984375 
L 54.390625 75.984375 
L 54.390625 0 
L 45.40625 0 
L 45.40625 8.203125 
Q 42.578125 3.328125 38.25 0.953125 
Q 33.9375 -1.421875 27.875 -1.421875 
Q 17.96875 -1.421875 11.734375 6.484375 
Q 5.515625 14.40625 5.515625 27.296875 
Q 5.515625 40.1875 11.734375 48.09375 
Q 17.96875 56 27.875 56 
Q 33.9375 56 38.25 53.625 
Q 42.578125 51.265625 45.40625 46.390625 
z
M 14.796875 27.296875 
Q 14.796875 17.390625 18.875 11.75 
Q 22.953125 6.109375 30.078125 6.109375 
Q 37.203125 6.109375 41.296875 11.75 
Q 45.40625 17.390625 45.40625 27.296875 
Q 45.40625 37.203125 41.296875 42.84375 
Q 37.203125 48.484375 30.078125 48.484375 
Q 22.953125 48.484375 18.875 42.84375 
Q 14.796875 37.203125 14.796875 27.296875 
z
" id="DejaVuSans-64"/>
       <path d="M 9.421875 54.6875 
L 18.40625 54.6875 
L 18.40625 0 
L 9.421875 0 
z
M 9.421875 75.984375 
L 18.40625 75.984375 
L 18.40625 64.59375 
L 9.421875 64.59375 
z
" id="DejaVuSans-69"/>
       <path d="M 54.890625 33.015625 
L 54.890625 0 
L 45.90625 0 
L 45.90625 32.71875 
Q 45.90625 40.484375 42.875 44.328125 
Q 39.84375 48.1875 33.796875 48.1875 
Q 26.515625 48.1875 22.3125 43.546875 
Q 18.109375 38.921875 18.109375 30.90625 
L 18.109375 0 
L 9.078125 0 
L 9.078125 54.6875 
L 18.109375 54.6875 
L 18.109375 46.1875 
Q 21.34375 51.125 25.703125 53.5625 
Q 30.078125 56 35.796875 56 
Q 45.21875 56 50.046875 50.171875 
Q 54.890625 44.34375 54.890625 33.015625 
z
" id="DejaVuSans-6e"/>
       <path d="M 45.40625 27.984375 
Q 45.40625 37.75 41.375 43.109375 
Q 37.359375 48.484375 30.078125 48.484375 
Q 22.859375 48.484375 18.828125 43.109375 
Q 14.796875 37.75 14.796875 27.984375 
Q 14.796875 18.265625 18.828125 12.890625 
Q 22.859375 7.515625 30.078125 7.515625 
Q 37.359375 7.515625 41.375 12.890625 
Q 45.40625 18.265625 45.40625 27.984375 
z
M 54.390625 6.78125 
Q 54.390625 -7.171875 48.1875 -13.984375 
Q 42 -20.796875 29.203125 -20.796875 
Q 24.46875 -20.796875 20.265625 -20.09375 
Q 16.0625 -19.390625 12.109375 -17.921875 
L 12.109375 -9.1875 
Q 16.0625 -11.328125 19.921875 -12.34375 
Q 23.78125 -13.375 27.78125 -13.375 
Q 36.625 -13.375 41.015625 -8.765625 
Q 45.40625 -4.15625 45.40625 5.171875 
L 45.40625 9.625 
Q 42.625 4.78125 38.28125 2.390625 
Q 33.9375 0 27.875 0 
Q 17.828125 0 11.671875 7.65625 
Q 5.515625 15.328125 5.515625 27.984375 
Q 5.515625 40.671875 11.671875 48.328125 
Q 17.828125 56 27.875 56 
Q 33.9375 56 38.28125 53.609375 
Q 42.625 51.21875 45.40625 46.390625 
L 45.40625 54.6875 
L 54.390625 54.6875 
z
" id="DejaVuSans-67"/>
       <path id="DejaVuSans-20"/>
       <path d="M 4.890625 31.390625 
L 31.203125 31.390625 
L 31.203125 23.390625 
L 4.890625 23.390625 
z
" id="DejaVuSans-2d"/>
       <path d="M 34.1875 63.1875 
L 20.796875 26.90625 
L 47.609375 26.90625 
z
M 28.609375 72.90625 
L 39.796875 72.90625 
L 67.578125 0 
L 57.328125 0 
L 50.6875 18.703125 
L 17.828125 18.703125 
L 11.1875 0 
L 0.78125 0 
z
" id="DejaVuSans-41"/>
       <path d="M 9.421875 75.984375 
L 18.40625 75.984375 
L 18.40625 0 
L 9.421875 0 
z
" id="DejaVuSans-6c"/>
       <path d="M 48.78125 52.59375 
L 48.78125 44.1875 
Q 44.96875 46.296875 41.140625 47.34375 
Q 37.3125 48.390625 33.40625 48.390625 
Q 24.65625 48.390625 19.8125 42.84375 
Q 14.984375 37.3125 14.984375 27.296875 
Q 14.984375 17.28125 19.8125 11.734375 
Q 24.65625 6.203125 33.40625 6.203125 
Q 37.3125 6.203125 41.140625 7.25 
Q 44.96875 8.296875 48.78125 10.40625 
L 48.78125 2.09375 
Q 45.015625 0.34375 40.984375 -0.53125 
Q 36.96875 -1.421875 32.421875 -1.421875 
Q 20.0625 -1.421875 12.78125 6.34375 
Q 5.515625 14.109375 5.515625 27.296875 
Q 5.515625 40.671875 12.859375 48.328125 
Q 20.21875 56 33.015625 56 
Q 37.15625 56 41.109375 55.140625 
Q 45.0625 54.296875 48.78125 52.59375 
z
" id="DejaVuSans-63"/>
       <path d="M 9.8125 72.90625 
L 24.515625 72.90625 
L 43.109375 23.296875 
L 61.8125 72.90625 
L 76.515625 72.90625 
L 76.515625 0 
L 66.890625 0 
L 66.890625 64.015625 
L 48.09375 14.015625 
L 38.1875 14.015625 
L 19.390625 64.015625 
L 19.390625 0 
L 9.8125 0 
z
" id="DejaVuSans-4d"/>
       <path d="M 19.671875 34.8125 
L 19.671875 8.109375 
L 35.5 8.109375 
Q 43.453125 8.109375 47.28125 11.40625 
Q 51.125 14.703125 51.125 21.484375 
Q 51.125 28.328125 47.28125 31.5625 
Q 43.453125 34.8125 35.5 34.8125 
z
M 19.671875 64.796875 
L 19.671875 42.828125 
L 34.28125 42.828125 
Q 41.5 42.828125 45.03125 45.53125 
Q 48.578125 48.25 48.578125 53.8125 
Q 48.578125 59.328125 45.03125 62.0625 
Q 41.5 64.796875 34.28125 64.796875 
z
M 9.8125 72.90625 
L 35.015625 72.90625 
Q 46.296875 72.90625 52.390625 68.21875 
Q 58.5 63.53125 58.5 54.890625 
Q 58.5 48.1875 55.375 44.234375 
Q 52.25 40.28125 46.1875 39.3125 
Q 53.46875 37.75 57.5 32.78125 
Q 61.53125 27.828125 61.53125 20.40625 
Q 61.53125 10.640625 54.890625 5.3125 
Q 48.25 0 35.984375 0 
L 9.8125 0 
z
" id="DejaVuSans-42"/>
       <path d="M 41.109375 46.296875 
Q 39.59375 47.171875 37.8125 47.578125 
Q 36.03125 48 33.890625 48 
Q 26.265625 48 22.1875 43.046875 
Q 18.109375 38.09375 18.109375 28.8125 
L 18.109375 0 
L 9.078125 0 
L 9.078125 54.6875 
L 18.109375 54.6875 
L 18.109375 46.1875 
Q 20.953125 51.171875 25.484375 53.578125 
Q 30.03125 56 36.53125 56 
Q 37.453125 56 38.578125 55.875 
Q 39.703125 55.765625 41.0625 55.515625 
z
" id="DejaVuSans-72"/>
       <path d="M 30.609375 48.390625 
Q 23.390625 48.390625 19.1875 42.75 
Q 14.984375 37.109375 14.984375 27.296875 
Q 14.984375 17.484375 19.15625 11.84375 
Q 23.34375 6.203125 30.609375 6.203125 
Q 37.796875 6.203125 41.984375 11.859375 
Q 46.1875 17.53125 46.1875 27.296875 
Q 46.1875 37.015625 41.984375 42.703125 
Q 37.796875 48.390625 30.609375 48.390625 
z
M 30.609375 56 
Q 42.328125 56 49.015625 48.375 
Q 55.71875 40.765625 55.71875 27.296875 
Q 55.71875 13.875 49.015625 6.21875 
Q 42.328125 -1.421875 30.609375 -1.421875 
Q 18.84375 -1.421875 12.171875 6.21875 
Q 5.515625 13.875 5.515625 27.296875 
Q 5.515625 40.765625 12.171875 48.375 
Q 18.84375 56 30.609375 56 
z
" id="DejaVuSans-6f"/>
       <path d="M 4.203125 54.6875 
L 13.1875 54.6875 
L 24.421875 12.015625 
L 35.59375 54.6875 
L 46.1875 54.6875 
L 57.421875 12.015625 
L 68.609375 54.6875 
L 77.59375 54.6875 
L 63.28125 0 
L 52.6875 0 
L 40.921875 44.828125 
L 29.109375 0 
L 18.5 0 
z
" id="DejaVuSans-77"/>
       <path d="M 44.28125 53.078125 
L 44.28125 44.578125 
Q 40.484375 46.53125 36.375 47.5 
Q 32.28125 48.484375 27.875 48.484375 
Q 21.1875 48.484375 17.84375 46.4375 
Q 14.5 44.390625 14.5 40.28125 
Q 14.5 37.15625 16.890625 35.375 
Q 19.28125 33.59375 26.515625 31.984375 
L 29.59375 31.296875 
Q 39.15625 29.25 43.1875 25.515625 
Q 47.21875 21.78125 47.21875 15.09375 
Q 47.21875 7.46875 41.1875 3.015625 
Q 35.15625 -1.421875 24.609375 -1.421875 
Q 20.21875 -1.421875 15.453125 -0.5625 
Q 10.6875 0.296875 5.421875 2 
L 5.421875 11.28125 
Q 10.40625 8.6875 15.234375 7.390625 
Q 20.0625 6.109375 24.8125 6.109375 
Q 31.15625 6.109375 34.5625 8.28125 
Q 37.984375 10.453125 37.984375 14.40625 
Q 37.984375 18.0625 35.515625 20.015625 
Q 33.0625 21.96875 24.703125 23.78125 
L 21.578125 24.515625 
Q 13.234375 26.265625 9.515625 29.90625 
Q 5.8125 33.546875 5.8125 39.890625 
Q 5.8125 47.609375 11.28125 51.796875 
Q 16.75 56 26.8125 56 
Q 31.78125 56 36.171875 55.265625 
Q 40.578125 54.546875 44.28125 53.078125 
z
" id="DejaVuSans-73"/>
      </defs>
      <g transform="translate(70.794097 641.18125)rotate(-90)scale(0.1 -0.1)">
       <use xlink:href="#DejaVuSans-52"/>
       <use x="69.419922" xlink:href="#DejaVuSans-65"/>
       <use x="130.943359" xlink:href="#DejaVuSans-61"/>
       <use x="192.222656" xlink:href="#DejaVuSans-64"/>
       <use x="255.699219" xlink:href="#DejaVuSans-69"/>
       <use x="283.482422" xlink:href="#DejaVuSans-6e"/>
       <use x="346.861328" xlink:href="#DejaVuSans-67"/>
       <use x="410.337891" xlink:href="#DejaVuSans-20"/>
       <use x="442.125" xlink:href="#DejaVuSans-2d"/>
       <use x="478.208984" xlink:href="#DejaVuSans-20"/>
       <use x="509.996094" xlink:href="#DejaVuSans-41"/>
       <use x="578.404297" xlink:href="#DejaVuSans-6c"/>
       <use x="606.1875" xlink:href="#DejaVuSans-69"/>
       <use x="633.970703" xlink:href="#DejaVuSans-63"/>
       <use x="688.951172" xlink:href="#DejaVuSans-65"/>
       <use x="750.474609" xlink:href="#DejaVuSans-20"/>
       <use x="782.261719" xlink:href="#DejaVuSans-4d"/>
       <use x="868.541016" xlink:href="#DejaVuSans-20"/>
       <use x="900.328125" xlink:href="#DejaVuSans-42"/>
       <use x="968.931641" xlink:href="#DejaVuSans-61"/>
       <use x="1030.210938" xlink:href="#DejaVuSans-72"/>
       <use x="1071.308594" xlink:href="#DejaVuSans-72"/>
       <use x="1112.390625" xlink:href="#DejaVuSans-6f"/>
       <use x="1173.572266" xlink:href="#DejaVuSans-77"/>
       <use x="1255.359375" xlink:href="#DejaVuSans-73"/>
      </g>
     </g>
    </g>
    <g id="xtick_2">
     <g id="line2d_2">
      <g>
       <use style="stroke:#000000;stroke-width:0.8;" x="143.054167" xlink:href="#m3186da300b" y="503.435937"/>
      </g>
     </g>
     <g id="text_2">
      <!-- Reading - Arthur W Coolidge Middle -->
      <defs>
       <path d="M 18.3125 70.21875 
L 18.3125 54.6875 
L 36.8125 54.6875 
L 36.8125 47.703125 
L 18.3125 47.703125 
L 18.3125 18.015625 
Q 18.3125 11.328125 20.140625 9.421875 
Q 21.96875 7.515625 27.59375 7.515625 
L 36.8125 7.515625 
L 36.8125 0 
L 27.59375 0 
Q 17.1875 0 13.234375 3.875 
Q 9.28125 7.765625 9.28125 18.015625 
L 9.28125 47.703125 
L 2.6875 47.703125 
L 2.6875 54.6875 
L 9.28125 54.6875 
L 9.28125 70.21875 
z
" id="DejaVuSans-74"/>
       <path d="M 54.890625 33.015625 
L 54.890625 0 
L 45.90625 0 
L 45.90625 32.71875 
Q 45.90625 40.484375 42.875 44.328125 
Q 39.84375 48.1875 33.796875 48.1875 
Q 26.515625 48.1875 22.3125 43.546875 
Q 18.109375 38.921875 18.109375 30.90625 
L 18.109375 0 
L 9.078125 0 
L 9.078125 75.984375 
L 18.109375 75.984375 
L 18.109375 46.1875 
Q 21.34375 51.125 25.703125 53.5625 
Q 30.078125 56 35.796875 56 
Q 45.21875 56 50.046875 50.171875 
Q 54.890625 44.34375 54.890625 33.015625 
z
" id="DejaVuSans-68"/>
       <path d="M 8.5 21.578125 
L 8.5 54.6875 
L 17.484375 54.6875 
L 17.484375 21.921875 
Q 17.484375 14.15625 20.5 10.265625 
Q 23.53125 6.390625 29.59375 6.390625 
Q 36.859375 6.390625 41.078125 11.03125 
Q 45.3125 15.671875 45.3125 23.6875 
L 45.3125 54.6875 
L 54.296875 54.6875 
L 54.296875 0 
L 45.3125 0 
L 45.3125 8.40625 
Q 42.046875 3.421875 37.71875 1 
Q 33.40625 -1.421875 27.6875 -1.421875 
Q 18.265625 -1.421875 13.375 4.4375 
Q 8.5 10.296875 8.5 21.578125 
z
M 31.109375 56 
z
" id="DejaVuSans-75"/>
       <path d="M 3.328125 72.90625 
L 13.28125 72.90625 
L 28.609375 11.28125 
L 43.890625 72.90625 
L 54.984375 72.90625 
L 70.3125 11.28125 
L 85.59375 72.90625 
L 95.609375 72.90625 
L 77.296875 0 
L 64.890625 0 
L 49.515625 63.28125 
L 33.984375 0 
L 21.578125 0 
z
" id="DejaVuSans-57"/>
       <path d="M 64.40625 67.28125 
L 64.40625 56.890625 
Q 59.421875 61.53125 53.78125 63.8125 
Q 48.140625 66.109375 41.796875 66.109375 
Q 29.296875 66.109375 22.65625 58.46875 
Q 16.015625 50.828125 16.015625 36.375 
Q 16.015625 21.96875 22.65625 14.328125 
Q 29.296875 6.6875 41.796875 6.6875 
Q 48.140625 6.6875 53.78125 8.984375 
Q 59.421875 11.28125 64.40625 15.921875 
L 64.40625 5.609375 
Q 59.234375 2.09375 53.4375 0.328125 
Q 47.65625 -1.421875 41.21875 -1.421875 
Q 24.65625 -1.421875 15.125 8.703125 
Q 5.609375 18.84375 5.609375 36.375 
Q 5.609375 53.953125 15.125 64.078125 
Q 24.65625 74.21875 41.21875 74.21875 
Q 47.75 74.21875 53.53125 72.484375 
Q 59.328125 70.75 64.40625 67.28125 
z
" id="DejaVuSans-43"/>
      </defs>
      <g transform="translate(145.813542 689.176563)rotate(-90)scale(0.1 -0.1)">
       <use xlink:href="#DejaVuSans-52"/>
       <use x="69.419922" xlink:href="#DejaVuSans-65"/>
       <use x="130.943359" xlink:href="#DejaVuSans-61"/>
       <use x="192.222656" xlink:href="#DejaVuSans-64"/>
       <use x="255.699219" xlink:href="#DejaVuSans-69"/>
       <use x="283.482422" xlink:href="#DejaVuSans-6e"/>
       <use x="346.861328" xlink:href="#DejaVuSans-67"/>
       <use x="410.337891" xlink:href="#DejaVuSans-20"/>
       <use x="442.125" xlink:href="#DejaVuSans-2d"/>
       <use x="478.208984" xlink:href="#DejaVuSans-20"/>
       <use x="509.996094" xlink:href="#DejaVuSans-41"/>
       <use x="578.404297" xlink:href="#DejaVuSans-72"/>
       <use x="619.517578" xlink:href="#DejaVuSans-74"/>
       <use x="658.726562" xlink:href="#DejaVuSans-68"/>
       <use x="722.105469" xlink:href="#DejaVuSans-75"/>
       <use x="785.484375" xlink:href="#DejaVuSans-72"/>
       <use x="826.597656" xlink:href="#DejaVuSans-20"/>
       <use x="858.384766" xlink:href="#DejaVuSans-57"/>
       <use x="957.261719" xlink:href="#DejaVuSans-20"/>
       <use x="989.048828" xlink:href="#DejaVuSans-43"/>
       <use x="1058.873047" xlink:href="#DejaVuSans-6f"/>
       <use x="1120.054688" xlink:href="#DejaVuSans-6f"/>
       <use x="1181.236328" xlink:href="#DejaVuSans-6c"/>
       <use x="1209.019531" xlink:href="#DejaVuSans-69"/>
       <use x="1236.802734" xlink:href="#DejaVuSans-64"/>
       <use x="1300.279297" xlink:href="#DejaVuSans-67"/>
       <use x="1363.755859" xlink:href="#DejaVuSans-65"/>
       <use x="1425.279297" xlink:href="#DejaVuSans-20"/>
       <use x="1457.066406" xlink:href="#DejaVuSans-4d"/>
       <use x="1543.345703" xlink:href="#DejaVuSans-69"/>
       <use x="1571.128906" xlink:href="#DejaVuSans-64"/>
       <use x="1634.605469" xlink:href="#DejaVuSans-64"/>
       <use x="1698.082031" xlink:href="#DejaVuSans-6c"/>
       <use x="1725.865234" xlink:href="#DejaVuSans-65"/>
      </g>
     </g>
    </g>
    <g id="xtick_3">
     <g id="line2d_3">
      <g>
       <use style="stroke:#000000;stroke-width:0.8;" x="218.073611" xlink:href="#m3186da300b" y="503.435937"/>
      </g>
     </g>
     <g id="text_3">
      <!-- Reading - Birch Meadow -->
      <g transform="translate(220.832986 631.751562)rotate(-90)scale(0.1 -0.1)">
       <use xlink:href="#DejaVuSans-52"/>
       <use x="69.419922" xlink:href="#DejaVuSans-65"/>
       <use x="130.943359" xlink:href="#DejaVuSans-61"/>
       <use x="192.222656" xlink:href="#DejaVuSans-64"/>
       <use x="255.699219" xlink:href="#DejaVuSans-69"/>
       <use x="283.482422" xlink:href="#DejaVuSans-6e"/>
       <use x="346.861328" xlink:href="#DejaVuSans-67"/>
       <use x="410.337891" xlink:href="#DejaVuSans-20"/>
       <use x="442.125" xlink:href="#DejaVuSans-2d"/>
       <use x="478.208984" xlink:href="#DejaVuSans-20"/>
       <use x="509.996094" xlink:href="#DejaVuSans-42"/>
       <use x="578.599609" xlink:href="#DejaVuSans-69"/>
       <use x="606.382812" xlink:href="#DejaVuSans-72"/>
       <use x="647.464844" xlink:href="#DejaVuSans-63"/>
       <use x="702.445312" xlink:href="#DejaVuSans-68"/>
       <use x="765.824219" xlink:href="#DejaVuSans-20"/>
       <use x="797.611328" xlink:href="#DejaVuSans-4d"/>
       <use x="883.890625" xlink:href="#DejaVuSans-65"/>
       <use x="945.414062" xlink:href="#DejaVuSans-61"/>
       <use x="1006.693359" xlink:href="#DejaVuSans-64"/>
       <use x="1070.169922" xlink:href="#DejaVuSans-6f"/>
       <use x="1131.351562" xlink:href="#DejaVuSans-77"/>
      </g>
     </g>
    </g>
    <g id="xtick_4">
     <g id="line2d_4">
      <g>
       <use style="stroke:#000000;stroke-width:0.8;" x="293.093056" xlink:href="#m3186da300b" y="503.435937"/>
      </g>
     </g>
     <g id="text_4">
      <!-- Reading - J Warren Killam -->
      <defs>
       <path d="M 9.8125 72.90625 
L 19.671875 72.90625 
L 19.671875 5.078125 
Q 19.671875 -8.109375 14.671875 -14.0625 
Q 9.671875 -20.015625 -1.421875 -20.015625 
L -5.171875 -20.015625 
L -5.171875 -11.71875 
L -2.09375 -11.71875 
Q 4.4375 -11.71875 7.125 -8.046875 
Q 9.8125 -4.390625 9.8125 5.078125 
z
" id="DejaVuSans-4a"/>
       <path d="M 9.8125 72.90625 
L 19.671875 72.90625 
L 19.671875 42.09375 
L 52.390625 72.90625 
L 65.09375 72.90625 
L 28.90625 38.921875 
L 67.671875 0 
L 54.6875 0 
L 19.671875 35.109375 
L 19.671875 0 
L 9.8125 0 
z
" id="DejaVuSans-4b"/>
       <path d="M 52 44.1875 
Q 55.375 50.25 60.0625 53.125 
Q 64.75 56 71.09375 56 
Q 79.640625 56 84.28125 50.015625 
Q 88.921875 44.046875 88.921875 33.015625 
L 88.921875 0 
L 79.890625 0 
L 79.890625 32.71875 
Q 79.890625 40.578125 77.09375 44.375 
Q 74.3125 48.1875 68.609375 48.1875 
Q 61.625 48.1875 57.5625 43.546875 
Q 53.515625 38.921875 53.515625 30.90625 
L 53.515625 0 
L 44.484375 0 
L 44.484375 32.71875 
Q 44.484375 40.625 41.703125 44.40625 
Q 38.921875 48.1875 33.109375 48.1875 
Q 26.21875 48.1875 22.15625 43.53125 
Q 18.109375 38.875 18.109375 30.90625 
L 18.109375 0 
L 9.078125 0 
L 9.078125 54.6875 
L 18.109375 54.6875 
L 18.109375 46.1875 
Q 21.1875 51.21875 25.484375 53.609375 
Q 29.78125 56 35.6875 56 
Q 41.65625 56 45.828125 52.96875 
Q 50 49.953125 52 44.1875 
z
" id="DejaVuSans-6d"/>
      </defs>
      <g transform="translate(295.852431 638.217187)rotate(-90)scale(0.1 -0.1)">
       <use xlink:href="#DejaVuSans-52"/>
       <use x="69.419922" xlink:href="#DejaVuSans-65"/>
       <use x="130.943359" xlink:href="#DejaVuSans-61"/>
       <use x="192.222656" xlink:href="#DejaVuSans-64"/>
       <use x="255.699219" xlink:href="#DejaVuSans-69"/>
       <use x="283.482422" xlink:href="#DejaVuSans-6e"/>
       <use x="346.861328" xlink:href="#DejaVuSans-67"/>
       <use x="410.337891" xlink:href="#DejaVuSans-20"/>
       <use x="442.125" xlink:href="#DejaVuSans-2d"/>
       <use x="478.208984" xlink:href="#DejaVuSans-20"/>
       <use x="509.996094" xlink:href="#DejaVuSans-4a"/>
       <use x="539.488281" xlink:href="#DejaVuSans-20"/>
       <use x="571.275391" xlink:href="#DejaVuSans-57"/>
       <use x="670.058594" xlink:href="#DejaVuSans-61"/>
       <use x="731.337891" xlink:href="#DejaVuSans-72"/>
       <use x="772.435547" xlink:href="#DejaVuSans-72"/>
       <use x="813.517578" xlink:href="#DejaVuSans-65"/>
       <use x="875.041016" xlink:href="#DejaVuSans-6e"/>
       <use x="938.419922" xlink:href="#DejaVuSans-20"/>
       <use x="970.207031" xlink:href="#DejaVuSans-4b"/>
       <use x="1035.783203" xlink:href="#DejaVuSans-69"/>
       <use x="1063.566406" xlink:href="#DejaVuSans-6c"/>
       <use x="1091.349609" xlink:href="#DejaVuSans-6c"/>
       <use x="1119.132812" xlink:href="#DejaVuSans-61"/>
       <use x="1180.412109" xlink:href="#DejaVuSans-6d"/>
      </g>
     </g>
    </g>
    <g id="xtick_5">
     <g id="line2d_5">
      <g>
       <use style="stroke:#000000;stroke-width:0.8;" x="368.1125" xlink:href="#m3186da300b" y="503.435937"/>
      </g>
     </g>
     <g id="text_5">
      <!-- Reading - Joshua Eaton -->
      <defs>
       <path d="M 9.8125 72.90625 
L 55.90625 72.90625 
L 55.90625 64.59375 
L 19.671875 64.59375 
L 19.671875 43.015625 
L 54.390625 43.015625 
L 54.390625 34.71875 
L 19.671875 34.71875 
L 19.671875 8.296875 
L 56.78125 8.296875 
L 56.78125 0 
L 9.8125 0 
z
" id="DejaVuSans-45"/>
      </defs>
      <g transform="translate(370.871875 626.51875)rotate(-90)scale(0.1 -0.1)">
       <use xlink:href="#DejaVuSans-52"/>
       <use x="69.419922" xlink:href="#DejaVuSans-65"/>
       <use x="130.943359" xlink:href="#DejaVuSans-61"/>
       <use x="192.222656" xlink:href="#DejaVuSans-64"/>
       <use x="255.699219" xlink:href="#DejaVuSans-69"/>
       <use x="283.482422" xlink:href="#DejaVuSans-6e"/>
       <use x="346.861328" xlink:href="#DejaVuSans-67"/>
       <use x="410.337891" xlink:href="#DejaVuSans-20"/>
       <use x="442.125" xlink:href="#DejaVuSans-2d"/>
       <use x="478.208984" xlink:href="#DejaVuSans-20"/>
       <use x="509.996094" xlink:href="#DejaVuSans-4a"/>
       <use x="539.488281" xlink:href="#DejaVuSans-6f"/>
       <use x="600.669922" xlink:href="#DejaVuSans-73"/>
       <use x="652.769531" xlink:href="#DejaVuSans-68"/>
       <use x="716.148438" xlink:href="#DejaVuSans-75"/>
       <use x="779.527344" xlink:href="#DejaVuSans-61"/>
       <use x="840.806641" xlink:href="#DejaVuSans-20"/>
       <use x="872.59375" xlink:href="#DejaVuSans-45"/>
       <use x="935.777344" xlink:href="#DejaVuSans-61"/>
       <use x="997.056641" xlink:href="#DejaVuSans-74"/>
       <use x="1036.265625" xlink:href="#DejaVuSans-6f"/>
       <use x="1097.447266" xlink:href="#DejaVuSans-6e"/>
      </g>
     </g>
    </g>
    <g id="xtick_6">
     <g id="line2d_6">
      <g>
       <use style="stroke:#000000;stroke-width:0.8;" x="443.131944" xlink:href="#m3186da300b" y="503.435937"/>
      </g>
     </g>
     <g id="text_6">
      <!-- Reading - RISE PreSchool -->
      <defs>
       <path d="M 9.8125 72.90625 
L 19.671875 72.90625 
L 19.671875 0 
L 9.8125 0 
z
" id="DejaVuSans-49"/>
       <path d="M 53.515625 70.515625 
L 53.515625 60.890625 
Q 47.90625 63.578125 42.921875 64.890625 
Q 37.9375 66.21875 33.296875 66.21875 
Q 25.25 66.21875 20.875 63.09375 
Q 16.5 59.96875 16.5 54.203125 
Q 16.5 49.359375 19.40625 46.890625 
Q 22.3125 44.4375 30.421875 42.921875 
L 36.375 41.703125 
Q 47.40625 39.59375 52.65625 34.296875 
Q 57.90625 29 57.90625 20.125 
Q 57.90625 9.515625 50.796875 4.046875 
Q 43.703125 -1.421875 29.984375 -1.421875 
Q 24.8125 -1.421875 18.96875 -0.25 
Q 13.140625 0.921875 6.890625 3.21875 
L 6.890625 13.375 
Q 12.890625 10.015625 18.65625 8.296875 
Q 24.421875 6.59375 29.984375 6.59375 
Q 38.421875 6.59375 43.015625 9.90625 
Q 47.609375 13.234375 47.609375 19.390625 
Q 47.609375 24.75 44.3125 27.78125 
Q 41.015625 30.8125 33.5 32.328125 
L 27.484375 33.5 
Q 16.453125 35.6875 11.515625 40.375 
Q 6.59375 45.0625 6.59375 53.421875 
Q 6.59375 63.09375 13.40625 68.65625 
Q 20.21875 74.21875 32.171875 74.21875 
Q 37.3125 74.21875 42.625 73.28125 
Q 47.953125 72.359375 53.515625 70.515625 
z
" id="DejaVuSans-53"/>
       <path d="M 19.671875 64.796875 
L 19.671875 37.40625 
L 32.078125 37.40625 
Q 38.96875 37.40625 42.71875 40.96875 
Q 46.484375 44.53125 46.484375 51.125 
Q 46.484375 57.671875 42.71875 61.234375 
Q 38.96875 64.796875 32.078125 64.796875 
z
M 9.8125 72.90625 
L 32.078125 72.90625 
Q 44.34375 72.90625 50.609375 67.359375 
Q 56.890625 61.8125 56.890625 51.125 
Q 56.890625 40.328125 50.609375 34.8125 
Q 44.34375 29.296875 32.078125 29.296875 
L 19.671875 29.296875 
L 19.671875 0 
L 9.8125 0 
z
" id="DejaVuSans-50"/>
      </defs>
      <g transform="translate(445.891319 636.66875)rotate(-90)scale(0.1 -0.1)">
       <use xlink:href="#DejaVuSans-52"/>
       <use x="69.419922" xlink:href="#DejaVuSans-65"/>
       <use x="130.943359" xlink:href="#DejaVuSans-61"/>
       <use x="192.222656" xlink:href="#DejaVuSans-64"/>
       <use x="255.699219" xlink:href="#DejaVuSans-69"/>
       <use x="283.482422" xlink:href="#DejaVuSans-6e"/>
       <use x="346.861328" xlink:href="#DejaVuSans-67"/>
       <use x="410.337891" xlink:href="#DejaVuSans-20"/>
       <use x="442.125" xlink:href="#DejaVuSans-2d"/>
       <use x="478.208984" xlink:href="#DejaVuSans-20"/>
       <use x="509.996094" xlink:href="#DejaVuSans-52"/>
       <use x="579.478516" xlink:href="#DejaVuSans-49"/>
       <use x="608.970703" xlink:href="#DejaVuSans-53"/>
       <use x="672.447266" xlink:href="#DejaVuSans-45"/>
       <use x="735.630859" xlink:href="#DejaVuSans-20"/>
       <use x="767.417969" xlink:href="#DejaVuSans-50"/>
       <use x="827.705078" xlink:href="#DejaVuSans-72"/>
       <use x="868.787109" xlink:href="#DejaVuSans-65"/>
       <use x="930.310547" xlink:href="#DejaVuSans-53"/>
       <use x="993.787109" xlink:href="#DejaVuSans-63"/>
       <use x="1048.767578" xlink:href="#DejaVuSans-68"/>
       <use x="1112.146484" xlink:href="#DejaVuSans-6f"/>
       <use x="1173.328125" xlink:href="#DejaVuSans-6f"/>
       <use x="1234.509766" xlink:href="#DejaVuSans-6c"/>
      </g>
     </g>
    </g>
    <g id="xtick_7">
     <g id="line2d_7">
      <g>
       <use style="stroke:#000000;stroke-width:0.8;" x="518.151389" xlink:href="#m3186da300b" y="503.435937"/>
      </g>
     </g>
     <g id="text_7">
      <!-- Reading - Reading Memorial High -->
      <defs>
       <path d="M 9.8125 72.90625 
L 19.671875 72.90625 
L 19.671875 43.015625 
L 55.515625 43.015625 
L 55.515625 72.90625 
L 65.375 72.90625 
L 65.375 0 
L 55.515625 0 
L 55.515625 34.71875 
L 19.671875 34.71875 
L 19.671875 0 
L 9.8125 0 
z
" id="DejaVuSans-48"/>
      </defs>
      <g transform="translate(520.910764 678.248437)rotate(-90)scale(0.1 -0.1)">
       <use xlink:href="#DejaVuSans-52"/>
       <use x="69.419922" xlink:href="#DejaVuSans-65"/>
       <use x="130.943359" xlink:href="#DejaVuSans-61"/>
       <use x="192.222656" xlink:href="#DejaVuSans-64"/>
       <use x="255.699219" xlink:href="#DejaVuSans-69"/>
       <use x="283.482422" xlink:href="#DejaVuSans-6e"/>
       <use x="346.861328" xlink:href="#DejaVuSans-67"/>
       <use x="410.337891" xlink:href="#DejaVuSans-20"/>
       <use x="442.125" xlink:href="#DejaVuSans-2d"/>
       <use x="478.208984" xlink:href="#DejaVuSans-20"/>
       <use x="509.996094" xlink:href="#DejaVuSans-52"/>
       <use x="579.416016" xlink:href="#DejaVuSans-65"/>
       <use x="640.939453" xlink:href="#DejaVuSans-61"/>
       <use x="702.21875" xlink:href="#DejaVuSans-64"/>
       <use x="765.695312" xlink:href="#DejaVuSans-69"/>
       <use x="793.478516" xlink:href="#DejaVuSans-6e"/>
       <use x="856.857422" xlink:href="#DejaVuSans-67"/>
       <use x="920.333984" xlink:href="#DejaVuSans-20"/>
       <use x="952.121094" xlink:href="#DejaVuSans-4d"/>
       <use x="1038.400391" xlink:href="#DejaVuSans-65"/>
       <use x="1099.923828" xlink:href="#DejaVuSans-6d"/>
       <use x="1197.335938" xlink:href="#DejaVuSans-6f"/>
       <use x="1258.517578" xlink:href="#DejaVuSans-72"/>
       <use x="1299.630859" xlink:href="#DejaVuSans-69"/>
       <use x="1327.414062" xlink:href="#DejaVuSans-61"/>
       <use x="1388.693359" xlink:href="#DejaVuSans-6c"/>
       <use x="1416.476562" xlink:href="#DejaVuSans-20"/>
       <use x="1448.263672" xlink:href="#DejaVuSans-48"/>
       <use x="1523.458984" xlink:href="#DejaVuSans-69"/>
       <use x="1551.242188" xlink:href="#DejaVuSans-67"/>
       <use x="1614.71875" xlink:href="#DejaVuSans-68"/>
      </g>
     </g>
    </g>
    <g id="xtick_8">
     <g id="line2d_8">
      <g>
       <use style="stroke:#000000;stroke-width:0.8;" x="593.170833" xlink:href="#m3186da300b" y="503.435937"/>
      </g>
     </g>
     <g id="text_8">
      <!-- Reading - Walter S Parker Middle -->
      <defs>
       <path d="M 9.078125 75.984375 
L 18.109375 75.984375 
L 18.109375 31.109375 
L 44.921875 54.6875 
L 56.390625 54.6875 
L 27.390625 29.109375 
L 57.625 0 
L 45.90625 0 
L 18.109375 26.703125 
L 18.109375 0 
L 9.078125 0 
z
" id="DejaVuSans-6b"/>
      </defs>
      <g transform="translate(595.930208 675.634375)rotate(-90)scale(0.1 -0.1)">
       <use xlink:href="#DejaVuSans-52"/>
       <use x="69.419922" xlink:href="#DejaVuSans-65"/>
       <use x="130.943359" xlink:href="#DejaVuSans-61"/>
       <use x="192.222656" xlink:href="#DejaVuSans-64"/>
       <use x="255.699219" xlink:href="#DejaVuSans-69"/>
       <use x="283.482422" xlink:href="#DejaVuSans-6e"/>
       <use x="346.861328" xlink:href="#DejaVuSans-67"/>
       <use x="410.337891" xlink:href="#DejaVuSans-20"/>
       <use x="442.125" xlink:href="#DejaVuSans-2d"/>
       <use x="478.208984" xlink:href="#DejaVuSans-20"/>
       <use x="509.996094" xlink:href="#DejaVuSans-57"/>
       <use x="608.779297" xlink:href="#DejaVuSans-61"/>
       <use x="670.058594" xlink:href="#DejaVuSans-6c"/>
       <use x="697.841797" xlink:href="#DejaVuSans-74"/>
       <use x="737.050781" xlink:href="#DejaVuSans-65"/>
       <use x="798.574219" xlink:href="#DejaVuSans-72"/>
       <use x="839.6875" xlink:href="#DejaVuSans-20"/>
       <use x="871.474609" xlink:href="#DejaVuSans-53"/>
       <use x="934.951172" xlink:href="#DejaVuSans-20"/>
       <use x="966.738281" xlink:href="#DejaVuSans-50"/>
       <use x="1026.978516" xlink:href="#DejaVuSans-61"/>
       <use x="1088.257812" xlink:href="#DejaVuSans-72"/>
       <use x="1129.371094" xlink:href="#DejaVuSans-6b"/>
       <use x="1187.234375" xlink:href="#DejaVuSans-65"/>
       <use x="1248.757812" xlink:href="#DejaVuSans-72"/>
       <use x="1289.871094" xlink:href="#DejaVuSans-20"/>
       <use x="1321.658203" xlink:href="#DejaVuSans-4d"/>
       <use x="1407.9375" xlink:href="#DejaVuSans-69"/>
       <use x="1435.720703" xlink:href="#DejaVuSans-64"/>
       <use x="1499.197266" xlink:href="#DejaVuSans-64"/>
       <use x="1562.673828" xlink:href="#DejaVuSans-6c"/>
       <use x="1590.457031" xlink:href="#DejaVuSans-65"/>
      </g>
     </g>
    </g>
    <g id="xtick_9">
     <g id="line2d_9">
      <g>
       <use style="stroke:#000000;stroke-width:0.8;" x="668.190278" xlink:href="#m3186da300b" y="503.435937"/>
      </g>
     </g>
     <g id="text_9">
      <!-- Reading - Wood End Elementary School -->
      <defs>
       <path d="M 32.171875 -5.078125 
Q 28.375 -14.84375 24.75 -17.8125 
Q 21.140625 -20.796875 15.09375 -20.796875 
L 7.90625 -20.796875 
L 7.90625 -13.28125 
L 13.1875 -13.28125 
Q 16.890625 -13.28125 18.9375 -11.515625 
Q 21 -9.765625 23.484375 -3.21875 
L 25.09375 0.875 
L 2.984375 54.6875 
L 12.5 54.6875 
L 29.59375 11.921875 
L 46.6875 54.6875 
L 56.203125 54.6875 
z
" id="DejaVuSans-79"/>
      </defs>
      <g transform="translate(670.949653 709.2)rotate(-90)scale(0.1 -0.1)">
       <use xlink:href="#DejaVuSans-52"/>
       <use x="69.419922" xlink:href="#DejaVuSans-65"/>
       <use x="130.943359" xlink:href="#DejaVuSans-61"/>
       <use x="192.222656" xlink:href="#DejaVuSans-64"/>
       <use x="255.699219" xlink:href="#DejaVuSans-69"/>
       <use x="283.482422" xlink:href="#DejaVuSans-6e"/>
       <use x="346.861328" xlink:href="#DejaVuSans-67"/>
       <use x="410.337891" xlink:href="#DejaVuSans-20"/>
       <use x="442.125" xlink:href="#DejaVuSans-2d"/>
       <use x="478.208984" xlink:href="#DejaVuSans-20"/>
       <use x="509.996094" xlink:href="#DejaVuSans-57"/>
       <use x="608.794922" xlink:href="#DejaVuSans-6f"/>
       <use x="669.976562" xlink:href="#DejaVuSans-6f"/>
       <use x="731.158203" xlink:href="#DejaVuSans-64"/>
       <use x="794.634766" xlink:href="#DejaVuSans-20"/>
       <use x="826.421875" xlink:href="#DejaVuSans-45"/>
       <use x="889.605469" xlink:href="#DejaVuSans-6e"/>
       <use x="952.984375" xlink:href="#DejaVuSans-64"/>
       <use x="1016.460938" xlink:href="#DejaVuSans-20"/>
       <use x="1048.248047" xlink:href="#DejaVuSans-45"/>
       <use x="1111.431641" xlink:href="#DejaVuSans-6c"/>
       <use x="1139.214844" xlink:href="#DejaVuSans-65"/>
       <use x="1200.738281" xlink:href="#DejaVuSans-6d"/>
       <use x="1298.150391" xlink:href="#DejaVuSans-65"/>
       <use x="1359.673828" xlink:href="#DejaVuSans-6e"/>
       <use x="1423.052734" xlink:href="#DejaVuSans-74"/>
       <use x="1462.261719" xlink:href="#DejaVuSans-61"/>
       <use x="1523.541016" xlink:href="#DejaVuSans-72"/>
       <use x="1564.654297" xlink:href="#DejaVuSans-79"/>
       <use x="1623.833984" xlink:href="#DejaVuSans-20"/>
       <use x="1655.621094" xlink:href="#DejaVuSans-53"/>
       <use x="1719.097656" xlink:href="#DejaVuSans-63"/>
       <use x="1774.078125" xlink:href="#DejaVuSans-68"/>
       <use x="1837.457031" xlink:href="#DejaVuSans-6f"/>
       <use x="1898.638672" xlink:href="#DejaVuSans-6f"/>
       <use x="1959.820312" xlink:href="#DejaVuSans-6c"/>
      </g>
     </g>
    </g>
   </g>
   <g id="matplotlib.axis_2">
    <g id="ytick_1">
     <g id="line2d_10">
      <defs>
       <path d="M 0 0 
L -3.5 0 
" id="mdb9d28367c" style="stroke:#000000;stroke-width:0.8;"/>
      </defs>
      <g>
       <use style="stroke:#000000;stroke-width:0.8;" x="30.525" xlink:href="#mdb9d28367c" y="503.435937"/>
      </g>
     </g>
     <g id="text_10">
      <!-- 0 -->
      <defs>
       <path d="M 31.78125 66.40625 
Q 24.171875 66.40625 20.328125 58.90625 
Q 16.5 51.421875 16.5 36.375 
Q 16.5 21.390625 20.328125 13.890625 
Q 24.171875 6.390625 31.78125 6.390625 
Q 39.453125 6.390625 43.28125 13.890625 
Q 47.125 21.390625 47.125 36.375 
Q 47.125 51.421875 43.28125 58.90625 
Q 39.453125 66.40625 31.78125 66.40625 
z
M 31.78125 74.21875 
Q 44.046875 74.21875 50.515625 64.515625 
Q 56.984375 54.828125 56.984375 36.375 
Q 56.984375 17.96875 50.515625 8.265625 
Q 44.046875 -1.421875 31.78125 -1.421875 
Q 19.53125 -1.421875 13.0625 8.265625 
Q 6.59375 17.96875 6.59375 36.375 
Q 6.59375 54.828125 13.0625 64.515625 
Q 19.53125 74.21875 31.78125 74.21875 
z
" id="DejaVuSans-30"/>
      </defs>
      <g transform="translate(17.1625 507.235156)scale(0.1 -0.1)">
       <use xlink:href="#DejaVuSans-30"/>
      </g>
     </g>
    </g>
    <g id="ytick_2">
     <g id="line2d_11">
      <g>
       <use style="stroke:#000000;stroke-width:0.8;" x="30.525" xlink:href="#mdb9d28367c" y="434.929504"/>
      </g>
     </g>
     <g id="text_11">
      <!-- 5 -->
      <defs>
       <path d="M 10.796875 72.90625 
L 49.515625 72.90625 
L 49.515625 64.59375 
L 19.828125 64.59375 
L 19.828125 46.734375 
Q 21.96875 47.46875 24.109375 47.828125 
Q 26.265625 48.1875 28.421875 48.1875 
Q 40.625 48.1875 47.75 41.5 
Q 54.890625 34.8125 54.890625 23.390625 
Q 54.890625 11.625 47.5625 5.09375 
Q 40.234375 -1.421875 26.90625 -1.421875 
Q 22.3125 -1.421875 17.546875 -0.640625 
Q 12.796875 0.140625 7.71875 1.703125 
L 7.71875 11.625 
Q 12.109375 9.234375 16.796875 8.0625 
Q 21.484375 6.890625 26.703125 6.890625 
Q 35.15625 6.890625 40.078125 11.328125 
Q 45.015625 15.765625 45.015625 23.390625 
Q 45.015625 31 40.078125 35.4375 
Q 35.15625 39.890625 26.703125 39.890625 
Q 22.75 39.890625 18.8125 39.015625 
Q 14.890625 38.140625 10.796875 36.28125 
z
" id="DejaVuSans-35"/>
      </defs>
      <g transform="translate(17.1625 438.728722)scale(0.1 -0.1)">
       <use xlink:href="#DejaVuSans-35"/>
      </g>
     </g>
    </g>
    <g id="ytick_3">
     <g id="line2d_12">
      <g>
       <use style="stroke:#000000;stroke-width:0.8;" x="30.525" xlink:href="#mdb9d28367c" y="366.42307"/>
      </g>
     </g>
     <g id="text_12">
      <!-- 10 -->
      <defs>
       <path d="M 12.40625 8.296875 
L 28.515625 8.296875 
L 28.515625 63.921875 
L 10.984375 60.40625 
L 10.984375 69.390625 
L 28.421875 72.90625 
L 38.28125 72.90625 
L 38.28125 8.296875 
L 54.390625 8.296875 
L 54.390625 0 
L 12.40625 0 
z
" id="DejaVuSans-31"/>
      </defs>
      <g transform="translate(10.8 370.222289)scale(0.1 -0.1)">
       <use xlink:href="#DejaVuSans-31"/>
       <use x="63.623047" xlink:href="#DejaVuSans-30"/>
      </g>
     </g>
    </g>
    <g id="ytick_4">
     <g id="line2d_13">
      <g>
       <use style="stroke:#000000;stroke-width:0.8;" x="30.525" xlink:href="#mdb9d28367c" y="297.916636"/>
      </g>
     </g>
     <g id="text_13">
      <!-- 15 -->
      <g transform="translate(10.8 301.715855)scale(0.1 -0.1)">
       <use xlink:href="#DejaVuSans-31"/>
       <use x="63.623047" xlink:href="#DejaVuSans-35"/>
      </g>
     </g>
    </g>
    <g id="ytick_5">
     <g id="line2d_14">
      <g>
       <use style="stroke:#000000;stroke-width:0.8;" x="30.525" xlink:href="#mdb9d28367c" y="229.410202"/>
      </g>
     </g>
     <g id="text_14">
      <!-- 20 -->
      <defs>
       <path d="M 19.1875 8.296875 
L 53.609375 8.296875 
L 53.609375 0 
L 7.328125 0 
L 7.328125 8.296875 
Q 12.9375 14.109375 22.625 23.890625 
Q 32.328125 33.6875 34.8125 36.53125 
Q 39.546875 41.84375 41.421875 45.53125 
Q 43.3125 49.21875 43.3125 52.78125 
Q 43.3125 58.59375 39.234375 62.25 
Q 35.15625 65.921875 28.609375 65.921875 
Q 23.96875 65.921875 18.8125 64.3125 
Q 13.671875 62.703125 7.8125 59.421875 
L 7.8125 69.390625 
Q 13.765625 71.78125 18.9375 73 
Q 24.125 74.21875 28.421875 74.21875 
Q 39.75 74.21875 46.484375 68.546875 
Q 53.21875 62.890625 53.21875 53.421875 
Q 53.21875 48.921875 51.53125 44.890625 
Q 49.859375 40.875 45.40625 35.40625 
Q 44.1875 33.984375 37.640625 27.21875 
Q 31.109375 20.453125 19.1875 8.296875 
z
" id="DejaVuSans-32"/>
      </defs>
      <g transform="translate(10.8 233.209421)scale(0.1 -0.1)">
       <use xlink:href="#DejaVuSans-32"/>
       <use x="63.623047" xlink:href="#DejaVuSans-30"/>
      </g>
     </g>
    </g>
    <g id="ytick_6">
     <g id="line2d_15">
      <g>
       <use style="stroke:#000000;stroke-width:0.8;" x="30.525" xlink:href="#mdb9d28367c" y="160.903768"/>
      </g>
     </g>
     <g id="text_15">
      <!-- 25 -->
      <g transform="translate(10.8 164.702987)scale(0.1 -0.1)">
       <use xlink:href="#DejaVuSans-32"/>
       <use x="63.623047" xlink:href="#DejaVuSans-35"/>
      </g>
     </g>
    </g>
    <g id="ytick_7">
     <g id="line2d_16">
      <g>
       <use style="stroke:#000000;stroke-width:0.8;" x="30.525" xlink:href="#mdb9d28367c" y="92.397335"/>
      </g>
     </g>
     <g id="text_16">
      <!-- 30 -->
      <defs>
       <path d="M 40.578125 39.3125 
Q 47.65625 37.796875 51.625 33 
Q 55.609375 28.21875 55.609375 21.1875 
Q 55.609375 10.40625 48.1875 4.484375 
Q 40.765625 -1.421875 27.09375 -1.421875 
Q 22.515625 -1.421875 17.65625 -0.515625 
Q 12.796875 0.390625 7.625 2.203125 
L 7.625 11.71875 
Q 11.71875 9.328125 16.59375 8.109375 
Q 21.484375 6.890625 26.8125 6.890625 
Q 36.078125 6.890625 40.9375 10.546875 
Q 45.796875 14.203125 45.796875 21.1875 
Q 45.796875 27.640625 41.28125 31.265625 
Q 36.765625 34.90625 28.71875 34.90625 
L 20.21875 34.90625 
L 20.21875 43.015625 
L 29.109375 43.015625 
Q 36.375 43.015625 40.234375 45.921875 
Q 44.09375 48.828125 44.09375 54.296875 
Q 44.09375 59.90625 40.109375 62.90625 
Q 36.140625 65.921875 28.71875 65.921875 
Q 24.65625 65.921875 20.015625 65.03125 
Q 15.375 64.15625 9.8125 62.3125 
L 9.8125 71.09375 
Q 15.4375 72.65625 20.34375 73.4375 
Q 25.25 74.21875 29.59375 74.21875 
Q 40.828125 74.21875 47.359375 69.109375 
Q 53.90625 64.015625 53.90625 55.328125 
Q 53.90625 49.265625 50.4375 45.09375 
Q 46.96875 40.921875 40.578125 39.3125 
z
" id="DejaVuSans-33"/>
      </defs>
      <g transform="translate(10.8 96.196553)scale(0.1 -0.1)">
       <use xlink:href="#DejaVuSans-33"/>
       <use x="63.623047" xlink:href="#DejaVuSans-30"/>
      </g>
     </g>
    </g>
    <g id="ytick_8">
     <g id="line2d_17">
      <g>
       <use style="stroke:#000000;stroke-width:0.8;" x="30.525" xlink:href="#mdb9d28367c" y="23.890901"/>
      </g>
     </g>
     <g id="text_17">
      <!-- 35 -->
      <g transform="translate(10.8 27.690119)scale(0.1 -0.1)">
       <use xlink:href="#DejaVuSans-33"/>
       <use x="63.623047" xlink:href="#DejaVuSans-35"/>
      </g>
     </g>
    </g>
   </g>
   <g id="patch_30">
    <path d="M 30.525 503.435937 
L 30.525 14.3 
" style="fill:none;stroke:#000000;stroke-linecap:square;stroke-linejoin:miter;stroke-width:0.8;"/>
   </g>
   <g id="patch_31">
    <path d="M 705.7 503.435937 
L 705.7 14.3 
" style="fill:none;stroke:#000000;stroke-linecap:square;stroke-linejoin:miter;stroke-width:0.8;"/>
   </g>
   <g id="patch_32">
    <path d="M 30.525 503.435937 
L 705.7 503.435937 
" style="fill:none;stroke:#000000;stroke-linecap:square;stroke-linejoin:miter;stroke-width:0.8;"/>
   </g>
   <g id="patch_33">
    <path d="M 30.525 14.3 
L 705.7 14.3 
" style="fill:none;stroke:#000000;stroke-linecap:square;stroke-linejoin:miter;stroke-width:0.8;"/>
   </g>
   <g id="legend_1">
    <g id="patch_34">
     <path d="M 487.045313 66.334375 
L 698.7 66.334375 
Q 700.7 66.334375 700.7 64.334375 
L 700.7 21.3 
Q 700.7 19.3 698.7 19.3 
L 487.045313 19.3 
Q 485.045313 19.3 485.045313 21.3 
L 485.045313 64.334375 
Q 485.045313 66.334375 487.045313 66.334375 
z
" style="fill:#ffffff;opacity:0.8;stroke:#cccccc;stroke-linejoin:miter;"/>
    </g>
    <g id="patch_35">
     <path d="M 489.045313 30.898438 
L 509.045313 30.898438 
L 509.045313 23.898438 
L 489.045313 23.898438 
z
" style="fill:#1f77b4;"/>
    </g>
    <g id="text_18">
     <!-- StudentsWithDisabilitiesPercent -->
     <defs>
      <path d="M 19.671875 64.796875 
L 19.671875 8.109375 
L 31.59375 8.109375 
Q 46.6875 8.109375 53.6875 14.9375 
Q 60.6875 21.78125 60.6875 36.53125 
Q 60.6875 51.171875 53.6875 57.984375 
Q 46.6875 64.796875 31.59375 64.796875 
z
M 9.8125 72.90625 
L 30.078125 72.90625 
Q 51.265625 72.90625 61.171875 64.09375 
Q 71.09375 55.28125 71.09375 36.53125 
Q 71.09375 17.671875 61.125 8.828125 
Q 51.171875 0 30.078125 0 
L 9.8125 0 
z
" id="DejaVuSans-44"/>
      <path d="M 48.6875 27.296875 
Q 48.6875 37.203125 44.609375 42.84375 
Q 40.53125 48.484375 33.40625 48.484375 
Q 26.265625 48.484375 22.1875 42.84375 
Q 18.109375 37.203125 18.109375 27.296875 
Q 18.109375 17.390625 22.1875 11.75 
Q 26.265625 6.109375 33.40625 6.109375 
Q 40.53125 6.109375 44.609375 11.75 
Q 48.6875 17.390625 48.6875 27.296875 
z
M 18.109375 46.390625 
Q 20.953125 51.265625 25.265625 53.625 
Q 29.59375 56 35.59375 56 
Q 45.5625 56 51.78125 48.09375 
Q 58.015625 40.1875 58.015625 27.296875 
Q 58.015625 14.40625 51.78125 6.484375 
Q 45.5625 -1.421875 35.59375 -1.421875 
Q 29.59375 -1.421875 25.265625 0.953125 
Q 20.953125 3.328125 18.109375 8.203125 
L 18.109375 0 
L 9.078125 0 
L 9.078125 75.984375 
L 18.109375 75.984375 
z
" id="DejaVuSans-62"/>
     </defs>
     <g transform="translate(517.045313 30.898438)scale(0.1 -0.1)">
      <use xlink:href="#DejaVuSans-53"/>
      <use x="63.476562" xlink:href="#DejaVuSans-74"/>
      <use x="102.685547" xlink:href="#DejaVuSans-75"/>
      <use x="166.064453" xlink:href="#DejaVuSans-64"/>
      <use x="229.541016" xlink:href="#DejaVuSans-65"/>
      <use x="291.064453" xlink:href="#DejaVuSans-6e"/>
      <use x="354.443359" xlink:href="#DejaVuSans-74"/>
      <use x="393.652344" xlink:href="#DejaVuSans-73"/>
      <use x="445.751953" xlink:href="#DejaVuSans-57"/>
      <use x="544.597656" xlink:href="#DejaVuSans-69"/>
      <use x="572.380859" xlink:href="#DejaVuSans-74"/>
      <use x="611.589844" xlink:href="#DejaVuSans-68"/>
      <use x="674.96875" xlink:href="#DejaVuSans-44"/>
      <use x="751.970703" xlink:href="#DejaVuSans-69"/>
      <use x="779.753906" xlink:href="#DejaVuSans-73"/>
      <use x="831.853516" xlink:href="#DejaVuSans-61"/>
      <use x="893.132812" xlink:href="#DejaVuSans-62"/>
      <use x="956.609375" xlink:href="#DejaVuSans-69"/>
      <use x="984.392578" xlink:href="#DejaVuSans-6c"/>
      <use x="1012.175781" xlink:href="#DejaVuSans-69"/>
      <use x="1039.958984" xlink:href="#DejaVuSans-74"/>
      <use x="1079.167969" xlink:href="#DejaVuSans-69"/>
      <use x="1106.951172" xlink:href="#DejaVuSans-65"/>
      <use x="1168.474609" xlink:href="#DejaVuSans-73"/>
      <use x="1220.574219" xlink:href="#DejaVuSans-50"/>
      <use x="1280.830078" xlink:href="#DejaVuSans-65"/>
      <use x="1342.353516" xlink:href="#DejaVuSans-72"/>
      <use x="1383.435547" xlink:href="#DejaVuSans-63"/>
      <use x="1438.416016" xlink:href="#DejaVuSans-65"/>
      <use x="1499.939453" xlink:href="#DejaVuSans-6e"/>
      <use x="1563.318359" xlink:href="#DejaVuSans-74"/>
     </g>
    </g>
    <g id="patch_36">
     <path d="M 489.045313 45.576563 
L 509.045313 45.576563 
L 509.045313 38.576563 
L 489.045313 38.576563 
z
" style="fill:#ff7f0e;"/>
    </g>
    <g id="text_19">
     <!-- HighNeedsPercent -->
     <defs>
      <path d="M 9.8125 72.90625 
L 23.09375 72.90625 
L 55.421875 11.921875 
L 55.421875 72.90625 
L 64.984375 72.90625 
L 64.984375 0 
L 51.703125 0 
L 19.390625 60.984375 
L 19.390625 0 
L 9.8125 0 
z
" id="DejaVuSans-4e"/>
     </defs>
     <g transform="translate(517.045313 45.576563)scale(0.1 -0.1)">
      <use xlink:href="#DejaVuSans-48"/>
      <use x="75.195312" xlink:href="#DejaVuSans-69"/>
      <use x="102.978516" xlink:href="#DejaVuSans-67"/>
      <use x="166.455078" xlink:href="#DejaVuSans-68"/>
      <use x="229.833984" xlink:href="#DejaVuSans-4e"/>
      <use x="304.638672" xlink:href="#DejaVuSans-65"/>
      <use x="366.162109" xlink:href="#DejaVuSans-65"/>
      <use x="427.685547" xlink:href="#DejaVuSans-64"/>
      <use x="491.162109" xlink:href="#DejaVuSans-73"/>
      <use x="543.261719" xlink:href="#DejaVuSans-50"/>
      <use x="603.517578" xlink:href="#DejaVuSans-65"/>
      <use x="665.041016" xlink:href="#DejaVuSans-72"/>
      <use x="706.123047" xlink:href="#DejaVuSans-63"/>
      <use x="761.103516" xlink:href="#DejaVuSans-65"/>
      <use x="822.626953" xlink:href="#DejaVuSans-6e"/>
      <use x="886.005859" xlink:href="#DejaVuSans-74"/>
     </g>
    </g>
    <g id="patch_37">
     <path d="M 489.045313 60.254688 
L 509.045313 60.254688 
L 509.045313 53.254688 
L 489.045313 53.254688 
z
" style="fill:#2ca02c;"/>
    </g>
    <g id="text_20">
     <!-- EconomicallyDisadvantagedPercent -->
     <defs>
      <path d="M 2.984375 54.6875 
L 12.5 54.6875 
L 29.59375 8.796875 
L 46.6875 54.6875 
L 56.203125 54.6875 
L 35.6875 0 
L 23.484375 0 
z
" id="DejaVuSans-76"/>
     </defs>
     <g transform="translate(517.045313 60.254688)scale(0.1 -0.1)">
      <use xlink:href="#DejaVuSans-45"/>
      <use x="63.183594" xlink:href="#DejaVuSans-63"/>
      <use x="118.164062" xlink:href="#DejaVuSans-6f"/>
      <use x="179.345703" xlink:href="#DejaVuSans-6e"/>
      <use x="242.724609" xlink:href="#DejaVuSans-6f"/>
      <use x="303.90625" xlink:href="#DejaVuSans-6d"/>
      <use x="401.318359" xlink:href="#DejaVuSans-69"/>
      <use x="429.101562" xlink:href="#DejaVuSans-63"/>
      <use x="484.082031" xlink:href="#DejaVuSans-61"/>
      <use x="545.361328" xlink:href="#DejaVuSans-6c"/>
      <use x="573.144531" xlink:href="#DejaVuSans-6c"/>
      <use x="600.927734" xlink:href="#DejaVuSans-79"/>
      <use x="660.107422" xlink:href="#DejaVuSans-44"/>
      <use x="737.109375" xlink:href="#DejaVuSans-69"/>
      <use x="764.892578" xlink:href="#DejaVuSans-73"/>
      <use x="816.992188" xlink:href="#DejaVuSans-61"/>
      <use x="878.271484" xlink:href="#DejaVuSans-64"/>
      <use x="941.748047" xlink:href="#DejaVuSans-76"/>
      <use x="1000.927734" xlink:href="#DejaVuSans-61"/>
      <use x="1062.207031" xlink:href="#DejaVuSans-6e"/>
      <use x="1125.585938" xlink:href="#DejaVuSans-74"/>
      <use x="1164.794922" xlink:href="#DejaVuSans-61"/>
      <use x="1226.074219" xlink:href="#DejaVuSans-67"/>
      <use x="1289.550781" xlink:href="#DejaVuSans-65"/>
      <use x="1351.074219" xlink:href="#DejaVuSans-64"/>
      <use x="1414.550781" xlink:href="#DejaVuSans-50"/>
      <use x="1474.806641" xlink:href="#DejaVuSans-65"/>
      <use x="1536.330078" xlink:href="#DejaVuSans-72"/>
      <use x="1577.412109" xlink:href="#DejaVuSans-63"/>
      <use x="1632.392578" xlink:href="#DejaVuSans-65"/>
      <use x="1693.916016" xlink:href="#DejaVuSans-6e"/>
      <use x="1757.294922" xlink:href="#DejaVuSans-74"/>
     </g>
    </g>
   </g>
  </g>
 </g>
 <defs>
  <clipPath id="pd3c1ae407d">
   <rect height="489.135937" width="675.175" x="30.525" y="14.3"/>
  </clipPath>
 </defs>
</svg>
