<?xml version="1.0" encoding="utf-8" standalone="no"?>
<!DOCTYPE svg PUBLIC "-//W3C//DTD SVG 1.1//EN"
  "http://www.w3.org/Graphics/SVG/1.1/DTD/svg11.dtd">
<!-- Created with matplotlib (http://matplotlib.org/) -->
<svg height="720pt" version="1.1" viewBox="0 0 720 720" width="720pt" xmlns="http://www.w3.org/2000/svg" xmlns:xlink="http://www.w3.org/1999/xlink">
 <defs>
  <style type="text/css">
*{stroke-linecap:butt;stroke-linejoin:round;}
  </style>
 </defs>
 <g id="figure_1">
  <g id="patch_1">
   <path d="M 0 720 
L 720 720 
L 720 0 
L 0 0 
z
" style="fill:#ffffff;"/>
  </g>
  <g id="axes_1">
   <g id="patch_2">
    <path d="M 36.8875 523.16875 
L 705.7 523.16875 
L 705.7 14.3 
L 36.8875 14.3 
z
" style="fill:#ffffff;"/>
   </g>
   <g id="patch_3">
    <path clip-path="url(#p437b464778)" d="M 55.465625 523.16875 
L 92.621875 523.16875 
L 92.621875 523.16875 
L 55.465625 523.16875 
z
" style="fill:#1f77b4;"/>
   </g>
   <g id="patch_4">
    <path clip-path="url(#p437b464778)" d="M 129.778125 523.16875 
L 166.934375 523.16875 
L 166.934375 523.16875 
L 129.778125 523.16875 
z
" style="fill:#1f77b4;"/>
   </g>
   <g id="patch_5">
    <path clip-path="url(#p437b464778)" d="M 204.090625 523.16875 
L 241.246875 523.16875 
L 241.246875 451.192972 
L 204.090625 451.192972 
z
" style="fill:#1f77b4;"/>
   </g>
   <g id="patch_6">
    <path clip-path="url(#p437b464778)" d="M 278.403125 523.16875 
L 315.559375 523.16875 
L 315.559375 508.773594 
L 278.403125 508.773594 
z
" style="fill:#1f77b4;"/>
   </g>
   <g id="patch_7">
    <path clip-path="url(#p437b464778)" d="M 352.715625 523.16875 
L 389.871875 523.16875 
L 389.871875 499.176824 
L 352.715625 499.176824 
z
" style="fill:#1f77b4;"/>
   </g>
   <g id="patch_8">
    <path clip-path="url(#p437b464778)" d="M 427.028125 523.16875 
L 464.184375 523.16875 
L 464.184375 503.975209 
L 427.028125 503.975209 
z
" style="fill:#1f77b4;"/>
   </g>
   <g id="patch_9">
    <path clip-path="url(#p437b464778)" d="M 501.340625 523.16875 
L 538.496875 523.16875 
L 538.496875 499.176824 
L 501.340625 499.176824 
z
" style="fill:#1f77b4;"/>
   </g>
   <g id="patch_10">
    <path clip-path="url(#p437b464778)" d="M 575.653125 523.16875 
L 612.809375 523.16875 
L 612.809375 489.580054 
L 575.653125 489.580054 
z
" style="fill:#1f77b4;"/>
   </g>
   <g id="patch_11">
    <path clip-path="url(#p437b464778)" d="M 649.965625 523.16875 
L 687.121875 523.16875 
L 687.121875 523.16875 
L 649.965625 523.16875 
z
" style="fill:#1f77b4;"/>
   </g>
   <g id="patch_12">
    <path clip-path="url(#p437b464778)" d="M 55.465625 523.16875 
L 92.621875 523.16875 
L 92.621875 523.16875 
L 55.465625 523.16875 
z
" style="fill:#ff7f0e;"/>
   </g>
   <g id="patch_13">
    <path clip-path="url(#p437b464778)" d="M 129.778125 523.16875 
L 166.934375 523.16875 
L 166.934375 523.16875 
L 129.778125 523.16875 
z
" style="fill:#ff7f0e;"/>
   </g>
   <g id="patch_14">
    <path clip-path="url(#p437b464778)" d="M 204.090625 451.192972 
L 241.246875 451.192972 
L 241.246875 240.064023 
L 204.090625 240.064023 
z
" style="fill:#ff7f0e;"/>
   </g>
   <g id="patch_15">
    <path clip-path="url(#p437b464778)" d="M 278.403125 508.773594 
L 315.559375 508.773594 
L 315.559375 355.225268 
L 278.403125 355.225268 
z
" style="fill:#ff7f0e;"/>
   </g>
   <g id="patch_16">
    <path clip-path="url(#p437b464778)" d="M 352.715625 499.176824 
L 389.871875 499.176824 
L 389.871875 379.217194 
L 352.715625 379.217194 
z
" style="fill:#ff7f0e;"/>
   </g>
   <g id="patch_17">
    <path clip-path="url(#p437b464778)" d="M 427.028125 503.975209 
L 464.184375 503.975209 
L 464.184375 412.80589 
L 427.028125 412.80589 
z
" style="fill:#ff7f0e;"/>
   </g>
   <g id="patch_18">
    <path clip-path="url(#p437b464778)" d="M 501.340625 499.176824 
L 538.496875 499.176824 
L 538.496875 417.604276 
L 501.340625 417.604276 
z
" style="fill:#ff7f0e;"/>
   </g>
   <g id="patch_19">
    <path clip-path="url(#p437b464778)" d="M 575.653125 489.580054 
L 612.809375 489.580054 
L 612.809375 312.039801 
L 575.653125 312.039801 
z
" style="fill:#ff7f0e;"/>
   </g>
   <g id="patch_20">
    <path clip-path="url(#p437b464778)" d="M 649.965625 523.16875 
L 687.121875 523.16875 
L 687.121875 523.16875 
L 649.965625 523.16875 
z
" style="fill:#ff7f0e;"/>
   </g>
   <g id="patch_21">
    <path clip-path="url(#p437b464778)" d="M 55.465625 523.16875 
L 92.621875 523.16875 
L 92.621875 523.16875 
L 55.465625 523.16875 
z
" style="fill:#2ca02c;"/>
   </g>
   <g id="patch_22">
    <path clip-path="url(#p437b464778)" d="M 129.778125 523.16875 
L 166.934375 523.16875 
L 166.934375 523.16875 
L 129.778125 523.16875 
z
" style="fill:#2ca02c;"/>
   </g>
   <g id="patch_23">
    <path clip-path="url(#p437b464778)" d="M 204.090625 240.064023 
L 241.246875 240.064023 
L 241.246875 72.120542 
L 204.090625 72.120542 
z
" style="fill:#2ca02c;"/>
   </g>
   <g id="patch_24">
    <path clip-path="url(#p437b464778)" d="M 278.403125 355.225268 
L 315.559375 355.225268 
L 315.559375 110.507623 
L 278.403125 110.507623 
z
" style="fill:#2ca02c;"/>
   </g>
   <g id="patch_25">
    <path clip-path="url(#p437b464778)" d="M 352.715625 379.217194 
L 389.871875 379.217194 
L 389.871875 172.886631 
L 352.715625 172.886631 
z
" style="fill:#2ca02c;"/>
   </g>
   <g id="patch_26">
    <path clip-path="url(#p437b464778)" d="M 427.028125 412.80589 
L 464.184375 412.80589 
L 464.184375 153.69309 
L 427.028125 153.69309 
z
" style="fill:#2ca02c;"/>
   </g>
   <g id="patch_27">
    <path clip-path="url(#p437b464778)" d="M 501.340625 417.604276 
L 538.496875 417.604276 
L 538.496875 201.676942 
L 501.340625 201.676942 
z
" style="fill:#2ca02c;"/>
   </g>
   <g id="patch_28">
    <path clip-path="url(#p437b464778)" d="M 575.653125 312.039801 
L 612.809375 312.039801 
L 612.809375 120.104394 
L 575.653125 120.104394 
z
" style="fill:#2ca02c;"/>
   </g>
   <g id="patch_29">
    <path clip-path="url(#p437b464778)" d="M 649.965625 523.16875 
L 687.121875 523.16875 
L 687.121875 523.16875 
L 649.965625 523.16875 
z
" style="fill:#2ca02c;"/>
   </g>
   <g id="patch_30">
    <path clip-path="url(#p437b464778)" d="M 55.465625 523.16875 
L 92.621875 523.16875 
L 92.621875 523.16875 
L 55.465625 523.16875 
z
" style="fill:#d62728;"/>
   </g>
   <g id="patch_31">
    <path clip-path="url(#p437b464778)" d="M 129.778125 523.16875 
L 166.934375 523.16875 
L 166.934375 523.16875 
L 129.778125 523.16875 
z
" style="fill:#d62728;"/>
   </g>
   <g id="patch_32">
    <path clip-path="url(#p437b464778)" d="M 204.090625 72.120542 
L 241.246875 72.120542 
L 241.246875 38.531845 
L 204.090625 38.531845 
z
" style="fill:#d62728;"/>
   </g>
   <g id="patch_33">
    <path clip-path="url(#p437b464778)" d="M 278.403125 110.507623 
L 315.559375 110.507623 
L 315.559375 48.128616 
L 278.403125 48.128616 
z
" style="fill:#d62728;"/>
   </g>
   <g id="patch_34">
    <path clip-path="url(#p437b464778)" d="M 352.715625 172.886631 
L 389.871875 172.886631 
L 389.871875 43.33023 
L 352.715625 43.33023 
z
" style="fill:#d62728;"/>
   </g>
   <g id="patch_35">
    <path clip-path="url(#p437b464778)" d="M 427.028125 153.69309 
L 464.184375 153.69309 
L 464.184375 48.128616 
L 427.028125 48.128616 
z
" style="fill:#d62728;"/>
   </g>
   <g id="patch_36">
    <path clip-path="url(#p437b464778)" d="M 501.340625 201.676942 
L 538.496875 201.676942 
L 538.496875 38.531845 
L 501.340625 38.531845 
z
" style="fill:#d62728;"/>
   </g>
   <g id="patch_37">
    <path clip-path="url(#p437b464778)" d="M 575.653125 120.104394 
L 612.809375 120.104394 
L 612.809375 43.33023 
L 575.653125 43.33023 
z
" style="fill:#d62728;"/>
   </g>
   <g id="patch_38">
    <path clip-path="url(#p437b464778)" d="M 649.965625 523.16875 
L 687.121875 523.16875 
L 687.121875 523.16875 
L 649.965625 523.16875 
z
" style="fill:#d62728;"/>
   </g>
   <g id="matplotlib.axis_1">
    <g id="xtick_1">
     <g id="line2d_1">
      <defs>
       <path d="M 0 0 
L 0 3.5 
" id="m51f94eef34" style="stroke:#000000;stroke-width:0.8;"/>
      </defs>
      <g>
       <use style="stroke:#000000;stroke-width:0.8;" x="74.04375" xlink:href="#m51f94eef34" y="523.16875"/>
      </g>
     </g>
     <g id="text_1">
      <!-- Everett - Adams School -->
      <defs>
       <path d="M 9.8125 72.90625 
L 55.90625 72.90625 
L 55.90625 64.59375 
L 19.671875 64.59375 
L 19.671875 43.015625 
L 54.390625 43.015625 
L 54.390625 34.71875 
L 19.671875 34.71875 
L 19.671875 8.296875 
L 56.78125 8.296875 
L 56.78125 0 
L 9.8125 0 
z
" id="DejaVuSans-45"/>
       <path d="M 2.984375 54.6875 
L 12.5 54.6875 
L 29.59375 8.796875 
L 46.6875 54.6875 
L 56.203125 54.6875 
L 35.6875 0 
L 23.484375 0 
z
" id="DejaVuSans-76"/>
       <path d="M 56.203125 29.59375 
L 56.203125 25.203125 
L 14.890625 25.203125 
Q 15.484375 15.921875 20.484375 11.0625 
Q 25.484375 6.203125 34.421875 6.203125 
Q 39.59375 6.203125 44.453125 7.46875 
Q 49.3125 8.734375 54.109375 11.28125 
L 54.109375 2.78125 
Q 49.265625 0.734375 44.1875 -0.34375 
Q 39.109375 -1.421875 33.890625 -1.421875 
Q 20.796875 -1.421875 13.15625 6.1875 
Q 5.515625 13.8125 5.515625 26.8125 
Q 5.515625 40.234375 12.765625 48.109375 
Q 20.015625 56 32.328125 56 
Q 43.359375 56 49.78125 48.890625 
Q 56.203125 41.796875 56.203125 29.59375 
z
M 47.21875 32.234375 
Q 47.125 39.59375 43.09375 43.984375 
Q 39.0625 48.390625 32.421875 48.390625 
Q 24.90625 48.390625 20.390625 44.140625 
Q 15.875 39.890625 15.1875 32.171875 
z
" id="DejaVuSans-65"/>
       <path d="M 41.109375 46.296875 
Q 39.59375 47.171875 37.8125 47.578125 
Q 36.03125 48 33.890625 48 
Q 26.265625 48 22.1875 43.046875 
Q 18.109375 38.09375 18.109375 28.8125 
L 18.109375 0 
L 9.078125 0 
L 9.078125 54.6875 
L 18.109375 54.6875 
L 18.109375 46.1875 
Q 20.953125 51.171875 25.484375 53.578125 
Q 30.03125 56 36.53125 56 
Q 37.453125 56 38.578125 55.875 
Q 39.703125 55.765625 41.0625 55.515625 
z
" id="DejaVuSans-72"/>
       <path d="M 18.3125 70.21875 
L 18.3125 54.6875 
L 36.8125 54.6875 
L 36.8125 47.703125 
L 18.3125 47.703125 
L 18.3125 18.015625 
Q 18.3125 11.328125 20.140625 9.421875 
Q 21.96875 7.515625 27.59375 7.515625 
L 36.8125 7.515625 
L 36.8125 0 
L 27.59375 0 
Q 17.1875 0 13.234375 3.875 
Q 9.28125 7.765625 9.28125 18.015625 
L 9.28125 47.703125 
L 2.6875 47.703125 
L 2.6875 54.6875 
L 9.28125 54.6875 
L 9.28125 70.21875 
z
" id="DejaVuSans-74"/>
       <path id="DejaVuSans-20"/>
       <path d="M 4.890625 31.390625 
L 31.203125 31.390625 
L 31.203125 23.390625 
L 4.890625 23.390625 
z
" id="DejaVuSans-2d"/>
       <path d="M 34.1875 63.1875 
L 20.796875 26.90625 
L 47.609375 26.90625 
z
M 28.609375 72.90625 
L 39.796875 72.90625 
L 67.578125 0 
L 57.328125 0 
L 50.6875 18.703125 
L 17.828125 18.703125 
L 11.1875 0 
L 0.78125 0 
z
" id="DejaVuSans-41"/>
       <path d="M 45.40625 46.390625 
L 45.40625 75.984375 
L 54.390625 75.984375 
L 54.390625 0 
L 45.40625 0 
L 45.40625 8.203125 
Q 42.578125 3.328125 38.25 0.953125 
Q 33.9375 -1.421875 27.875 -1.421875 
Q 17.96875 -1.421875 11.734375 6.484375 
Q 5.515625 14.40625 5.515625 27.296875 
Q 5.515625 40.1875 11.734375 48.09375 
Q 17.96875 56 27.875 56 
Q 33.9375 56 38.25 53.625 
Q 42.578125 51.265625 45.40625 46.390625 
z
M 14.796875 27.296875 
Q 14.796875 17.390625 18.875 11.75 
Q 22.953125 6.109375 30.078125 6.109375 
Q 37.203125 6.109375 41.296875 11.75 
Q 45.40625 17.390625 45.40625 27.296875 
Q 45.40625 37.203125 41.296875 42.84375 
Q 37.203125 48.484375 30.078125 48.484375 
Q 22.953125 48.484375 18.875 42.84375 
Q 14.796875 37.203125 14.796875 27.296875 
z
" id="DejaVuSans-64"/>
       <path d="M 34.28125 27.484375 
Q 23.390625 27.484375 19.1875 25 
Q 14.984375 22.515625 14.984375 16.5 
Q 14.984375 11.71875 18.140625 8.90625 
Q 21.296875 6.109375 26.703125 6.109375 
Q 34.1875 6.109375 38.703125 11.40625 
Q 43.21875 16.703125 43.21875 25.484375 
L 43.21875 27.484375 
z
M 52.203125 31.203125 
L 52.203125 0 
L 43.21875 0 
L 43.21875 8.296875 
Q 40.140625 3.328125 35.546875 0.953125 
Q 30.953125 -1.421875 24.3125 -1.421875 
Q 15.921875 -1.421875 10.953125 3.296875 
Q 6 8.015625 6 15.921875 
Q 6 25.140625 12.171875 29.828125 
Q 18.359375 34.515625 30.609375 34.515625 
L 43.21875 34.515625 
L 43.21875 35.40625 
Q 43.21875 41.609375 39.140625 45 
Q 35.0625 48.390625 27.6875 48.390625 
Q 23 48.390625 18.546875 47.265625 
Q 14.109375 46.140625 10.015625 43.890625 
L 10.015625 52.203125 
Q 14.9375 54.109375 19.578125 55.046875 
Q 24.21875 56 28.609375 56 
Q 40.484375 56 46.34375 49.84375 
Q 52.203125 43.703125 52.203125 31.203125 
z
" id="DejaVuSans-61"/>
       <path d="M 52 44.1875 
Q 55.375 50.25 60.0625 53.125 
Q 64.75 56 71.09375 56 
Q 79.640625 56 84.28125 50.015625 
Q 88.921875 44.046875 88.921875 33.015625 
L 88.921875 0 
L 79.890625 0 
L 79.890625 32.71875 
Q 79.890625 40.578125 77.09375 44.375 
Q 74.3125 48.1875 68.609375 48.1875 
Q 61.625 48.1875 57.5625 43.546875 
Q 53.515625 38.921875 53.515625 30.90625 
L 53.515625 0 
L 44.484375 0 
L 44.484375 32.71875 
Q 44.484375 40.625 41.703125 44.40625 
Q 38.921875 48.1875 33.109375 48.1875 
Q 26.21875 48.1875 22.15625 43.53125 
Q 18.109375 38.875 18.109375 30.90625 
L 18.109375 0 
L 9.078125 0 
L 9.078125 54.6875 
L 18.109375 54.6875 
L 18.109375 46.1875 
Q 21.1875 51.21875 25.484375 53.609375 
Q 29.78125 56 35.6875 56 
Q 41.65625 56 45.828125 52.96875 
Q 50 49.953125 52 44.1875 
z
" id="DejaVuSans-6d"/>
       <path d="M 44.28125 53.078125 
L 44.28125 44.578125 
Q 40.484375 46.53125 36.375 47.5 
Q 32.28125 48.484375 27.875 48.484375 
Q 21.1875 48.484375 17.84375 46.4375 
Q 14.5 44.390625 14.5 40.28125 
Q 14.5 37.15625 16.890625 35.375 
Q 19.28125 33.59375 26.515625 31.984375 
L 29.59375 31.296875 
Q 39.15625 29.25 43.1875 25.515625 
Q 47.21875 21.78125 47.21875 15.09375 
Q 47.21875 7.46875 41.1875 3.015625 
Q 35.15625 -1.421875 24.609375 -1.421875 
Q 20.21875 -1.421875 15.453125 -0.5625 
Q 10.6875 0.296875 5.421875 2 
L 5.421875 11.28125 
Q 10.40625 8.6875 15.234375 7.390625 
Q 20.0625 6.109375 24.8125 6.109375 
Q 31.15625 6.109375 34.5625 8.28125 
Q 37.984375 10.453125 37.984375 14.40625 
Q 37.984375 18.0625 35.515625 20.015625 
Q 33.0625 21.96875 24.703125 23.78125 
L 21.578125 24.515625 
Q 13.234375 26.265625 9.515625 29.90625 
Q 5.8125 33.546875 5.8125 39.890625 
Q 5.8125 47.609375 11.28125 51.796875 
Q 16.75 56 26.8125 56 
Q 31.78125 56 36.171875 55.265625 
Q 40.578125 54.546875 44.28125 53.078125 
z
" id="DejaVuSans-73"/>
       <path d="M 53.515625 70.515625 
L 53.515625 60.890625 
Q 47.90625 63.578125 42.921875 64.890625 
Q 37.9375 66.21875 33.296875 66.21875 
Q 25.25 66.21875 20.875 63.09375 
Q 16.5 59.96875 16.5 54.203125 
Q 16.5 49.359375 19.40625 46.890625 
Q 22.3125 44.4375 30.421875 42.921875 
L 36.375 41.703125 
Q 47.40625 39.59375 52.65625 34.296875 
Q 57.90625 29 57.90625 20.125 
Q 57.90625 9.515625 50.796875 4.046875 
Q 43.703125 -1.421875 29.984375 -1.421875 
Q 24.8125 -1.421875 18.96875 -0.25 
Q 13.140625 0.921875 6.890625 3.21875 
L 6.890625 13.375 
Q 12.890625 10.015625 18.65625 8.296875 
Q 24.421875 6.59375 29.984375 6.59375 
Q 38.421875 6.59375 43.015625 9.90625 
Q 47.609375 13.234375 47.609375 19.390625 
Q 47.609375 24.75 44.3125 27.78125 
Q 41.015625 30.8125 33.5 32.328125 
L 27.484375 33.5 
Q 16.453125 35.6875 11.515625 40.375 
Q 6.59375 45.0625 6.59375 53.421875 
Q 6.59375 63.09375 13.40625 68.65625 
Q 20.21875 74.21875 32.171875 74.21875 
Q 37.3125 74.21875 42.625 73.28125 
Q 47.953125 72.359375 53.515625 70.515625 
z
" id="DejaVuSans-53"/>
       <path d="M 48.78125 52.59375 
L 48.78125 44.1875 
Q 44.96875 46.296875 41.140625 47.34375 
Q 37.3125 48.390625 33.40625 48.390625 
Q 24.65625 48.390625 19.8125 42.84375 
Q 14.984375 37.3125 14.984375 27.296875 
Q 14.984375 17.28125 19.8125 11.734375 
Q 24.65625 6.203125 33.40625 6.203125 
Q 37.3125 6.203125 41.140625 7.25 
Q 44.96875 8.296875 48.78125 10.40625 
L 48.78125 2.09375 
Q 45.015625 0.34375 40.984375 -0.53125 
Q 36.96875 -1.421875 32.421875 -1.421875 
Q 20.0625 -1.421875 12.78125 6.34375 
Q 5.515625 14.109375 5.515625 27.296875 
Q 5.515625 40.671875 12.859375 48.328125 
Q 20.21875 56 33.015625 56 
Q 37.15625 56 41.109375 55.140625 
Q 45.0625 54.296875 48.78125 52.59375 
z
" id="DejaVuSans-63"/>
       <path d="M 54.890625 33.015625 
L 54.890625 0 
L 45.90625 0 
L 45.90625 32.71875 
Q 45.90625 40.484375 42.875 44.328125 
Q 39.84375 48.1875 33.796875 48.1875 
Q 26.515625 48.1875 22.3125 43.546875 
Q 18.109375 38.921875 18.109375 30.90625 
L 18.109375 0 
L 9.078125 0 
L 9.078125 75.984375 
L 18.109375 75.984375 
L 18.109375 46.1875 
Q 21.34375 51.125 25.703125 53.5625 
Q 30.078125 56 35.796875 56 
Q 45.21875 56 50.046875 50.171875 
Q 54.890625 44.34375 54.890625 33.015625 
z
" id="DejaVuSans-68"/>
       <path d="M 30.609375 48.390625 
Q 23.390625 48.390625 19.1875 42.75 
Q 14.984375 37.109375 14.984375 27.296875 
Q 14.984375 17.484375 19.15625 11.84375 
Q 23.34375 6.203125 30.609375 6.203125 
Q 37.796875 6.203125 41.984375 11.859375 
Q 46.1875 17.53125 46.1875 27.296875 
Q 46.1875 37.015625 41.984375 42.703125 
Q 37.796875 48.390625 30.609375 48.390625 
z
M 30.609375 56 
Q 42.328125 56 49.015625 48.375 
Q 55.71875 40.765625 55.71875 27.296875 
Q 55.71875 13.875 49.015625 6.21875 
Q 42.328125 -1.421875 30.609375 -1.421875 
Q 18.84375 -1.421875 12.171875 6.21875 
Q 5.515625 13.875 5.515625 27.296875 
Q 5.515625 40.765625 12.171875 48.375 
Q 18.84375 56 30.609375 56 
z
" id="DejaVuSans-6f"/>
       <path d="M 9.421875 75.984375 
L 18.40625 75.984375 
L 18.40625 0 
L 9.421875 0 
z
" id="DejaVuSans-6c"/>
      </defs>
      <g transform="translate(76.803125 647.26875)rotate(-90)scale(0.1 -0.1)">
       <use xlink:href="#DejaVuSans-45"/>
       <use x="63.183594" xlink:href="#DejaVuSans-76"/>
       <use x="122.363281" xlink:href="#DejaVuSans-65"/>
       <use x="183.886719" xlink:href="#DejaVuSans-72"/>
       <use x="224.96875" xlink:href="#DejaVuSans-65"/>
       <use x="286.492188" xlink:href="#DejaVuSans-74"/>
       <use x="325.701172" xlink:href="#DejaVuSans-74"/>
       <use x="364.910156" xlink:href="#DejaVuSans-20"/>
       <use x="396.697266" xlink:href="#DejaVuSans-2d"/>
       <use x="432.78125" xlink:href="#DejaVuSans-20"/>
       <use x="464.568359" xlink:href="#DejaVuSans-41"/>
       <use x="532.960938" xlink:href="#DejaVuSans-64"/>
       <use x="596.4375" xlink:href="#DejaVuSans-61"/>
       <use x="657.716797" xlink:href="#DejaVuSans-6d"/>
       <use x="755.128906" xlink:href="#DejaVuSans-73"/>
       <use x="807.228516" xlink:href="#DejaVuSans-20"/>
       <use x="839.015625" xlink:href="#DejaVuSans-53"/>
       <use x="902.492188" xlink:href="#DejaVuSans-63"/>
       <use x="957.472656" xlink:href="#DejaVuSans-68"/>
       <use x="1020.851562" xlink:href="#DejaVuSans-6f"/>
       <use x="1082.033203" xlink:href="#DejaVuSans-6f"/>
       <use x="1143.214844" xlink:href="#DejaVuSans-6c"/>
      </g>
     </g>
    </g>
    <g id="xtick_2">
     <g id="line2d_2">
      <g>
       <use style="stroke:#000000;stroke-width:0.8;" x="148.35625" xlink:href="#m51f94eef34" y="523.16875"/>
      </g>
     </g>
     <g id="text_2">
      <!-- Everett - Devens School -->
      <defs>
       <path d="M 19.671875 64.796875 
L 19.671875 8.109375 
L 31.59375 8.109375 
Q 46.6875 8.109375 53.6875 14.9375 
Q 60.6875 21.78125 60.6875 36.53125 
Q 60.6875 51.171875 53.6875 57.984375 
Q 46.6875 64.796875 31.59375 64.796875 
z
M 9.8125 72.90625 
L 30.078125 72.90625 
Q 51.265625 72.90625 61.171875 64.09375 
Q 71.09375 55.28125 71.09375 36.53125 
Q 71.09375 17.671875 61.125 8.828125 
Q 51.171875 0 30.078125 0 
L 9.8125 0 
z
" id="DejaVuSans-44"/>
       <path d="M 54.890625 33.015625 
L 54.890625 0 
L 45.90625 0 
L 45.90625 32.71875 
Q 45.90625 40.484375 42.875 44.328125 
Q 39.84375 48.1875 33.796875 48.1875 
Q 26.515625 48.1875 22.3125 43.546875 
Q 18.109375 38.921875 18.109375 30.90625 
L 18.109375 0 
L 9.078125 0 
L 9.078125 54.6875 
L 18.109375 54.6875 
L 18.109375 46.1875 
Q 21.34375 51.125 25.703125 53.5625 
Q 30.078125 56 35.796875 56 
Q 45.21875 56 50.046875 50.171875 
Q 54.890625 44.34375 54.890625 33.015625 
z
" id="DejaVuSans-6e"/>
      </defs>
      <g transform="translate(151.115625 650.475)rotate(-90)scale(0.1 -0.1)">
       <use xlink:href="#DejaVuSans-45"/>
       <use x="63.183594" xlink:href="#DejaVuSans-76"/>
       <use x="122.363281" xlink:href="#DejaVuSans-65"/>
       <use x="183.886719" xlink:href="#DejaVuSans-72"/>
       <use x="224.96875" xlink:href="#DejaVuSans-65"/>
       <use x="286.492188" xlink:href="#DejaVuSans-74"/>
       <use x="325.701172" xlink:href="#DejaVuSans-74"/>
       <use x="364.910156" xlink:href="#DejaVuSans-20"/>
       <use x="396.697266" xlink:href="#DejaVuSans-2d"/>
       <use x="432.78125" xlink:href="#DejaVuSans-20"/>
       <use x="464.568359" xlink:href="#DejaVuSans-44"/>
       <use x="541.570312" xlink:href="#DejaVuSans-65"/>
       <use x="603.09375" xlink:href="#DejaVuSans-76"/>
       <use x="662.273438" xlink:href="#DejaVuSans-65"/>
       <use x="723.796875" xlink:href="#DejaVuSans-6e"/>
       <use x="787.175781" xlink:href="#DejaVuSans-73"/>
       <use x="839.275391" xlink:href="#DejaVuSans-20"/>
       <use x="871.0625" xlink:href="#DejaVuSans-53"/>
       <use x="934.539062" xlink:href="#DejaVuSans-63"/>
       <use x="989.519531" xlink:href="#DejaVuSans-68"/>
       <use x="1052.898438" xlink:href="#DejaVuSans-6f"/>
       <use x="1114.080078" xlink:href="#DejaVuSans-6f"/>
       <use x="1175.261719" xlink:href="#DejaVuSans-6c"/>
      </g>
     </g>
    </g>
    <g id="xtick_3">
     <g id="line2d_3">
      <g>
       <use style="stroke:#000000;stroke-width:0.8;" x="222.66875" xlink:href="#m51f94eef34" y="523.16875"/>
      </g>
     </g>
     <g id="text_3">
      <!-- Everett - Everett High -->
      <defs>
       <path d="M 9.8125 72.90625 
L 19.671875 72.90625 
L 19.671875 43.015625 
L 55.515625 43.015625 
L 55.515625 72.90625 
L 65.375 72.90625 
L 65.375 0 
L 55.515625 0 
L 55.515625 34.71875 
L 19.671875 34.71875 
L 19.671875 0 
L 9.8125 0 
z
" id="DejaVuSans-48"/>
       <path d="M 9.421875 54.6875 
L 18.40625 54.6875 
L 18.40625 0 
L 9.421875 0 
z
M 9.421875 75.984375 
L 18.40625 75.984375 
L 18.40625 64.59375 
L 9.421875 64.59375 
z
" id="DejaVuSans-69"/>
       <path d="M 45.40625 27.984375 
Q 45.40625 37.75 41.375 43.109375 
Q 37.359375 48.484375 30.078125 48.484375 
Q 22.859375 48.484375 18.828125 43.109375 
Q 14.796875 37.75 14.796875 27.984375 
Q 14.796875 18.265625 18.828125 12.890625 
Q 22.859375 7.515625 30.078125 7.515625 
Q 37.359375 7.515625 41.375 12.890625 
Q 45.40625 18.265625 45.40625 27.984375 
z
M 54.390625 6.78125 
Q 54.390625 -7.171875 48.1875 -13.984375 
Q 42 -20.796875 29.203125 -20.796875 
Q 24.46875 -20.796875 20.265625 -20.09375 
Q 16.0625 -19.390625 12.109375 -17.921875 
L 12.109375 -9.1875 
Q 16.0625 -11.328125 19.921875 -12.34375 
Q 23.78125 -13.375 27.78125 -13.375 
Q 36.625 -13.375 41.015625 -8.765625 
Q 45.40625 -4.15625 45.40625 5.171875 
L 45.40625 9.625 
Q 42.625 4.78125 38.28125 2.390625 
Q 33.9375 0 27.875 0 
Q 17.828125 0 11.671875 7.65625 
Q 5.515625 15.328125 5.515625 27.984375 
Q 5.515625 40.671875 11.671875 48.328125 
Q 17.828125 56 27.875 56 
Q 33.9375 56 38.28125 53.609375 
Q 42.625 51.21875 45.40625 46.390625 
L 45.40625 54.6875 
L 54.390625 54.6875 
z
" id="DejaVuSans-67"/>
      </defs>
      <g transform="translate(225.428125 639.279688)rotate(-90)scale(0.1 -0.1)">
       <use xlink:href="#DejaVuSans-45"/>
       <use x="63.183594" xlink:href="#DejaVuSans-76"/>
       <use x="122.363281" xlink:href="#DejaVuSans-65"/>
       <use x="183.886719" xlink:href="#DejaVuSans-72"/>
       <use x="224.96875" xlink:href="#DejaVuSans-65"/>
       <use x="286.492188" xlink:href="#DejaVuSans-74"/>
       <use x="325.701172" xlink:href="#DejaVuSans-74"/>
       <use x="364.910156" xlink:href="#DejaVuSans-20"/>
       <use x="396.697266" xlink:href="#DejaVuSans-2d"/>
       <use x="432.78125" xlink:href="#DejaVuSans-20"/>
       <use x="464.568359" xlink:href="#DejaVuSans-45"/>
       <use x="527.751953" xlink:href="#DejaVuSans-76"/>
       <use x="586.931641" xlink:href="#DejaVuSans-65"/>
       <use x="648.455078" xlink:href="#DejaVuSans-72"/>
       <use x="689.537109" xlink:href="#DejaVuSans-65"/>
       <use x="751.060547" xlink:href="#DejaVuSans-74"/>
       <use x="790.269531" xlink:href="#DejaVuSans-74"/>
       <use x="829.478516" xlink:href="#DejaVuSans-20"/>
       <use x="861.265625" xlink:href="#DejaVuSans-48"/>
       <use x="936.460938" xlink:href="#DejaVuSans-69"/>
       <use x="964.244141" xlink:href="#DejaVuSans-67"/>
       <use x="1027.720703" xlink:href="#DejaVuSans-68"/>
      </g>
     </g>
    </g>
    <g id="xtick_4">
     <g id="line2d_4">
      <g>
       <use style="stroke:#000000;stroke-width:0.8;" x="296.98125" xlink:href="#m51f94eef34" y="523.16875"/>
      </g>
     </g>
     <g id="text_4">
      <!-- Everett - George Keverian School -->
      <defs>
       <path d="M 59.515625 10.40625 
L 59.515625 29.984375 
L 43.40625 29.984375 
L 43.40625 38.09375 
L 69.28125 38.09375 
L 69.28125 6.78125 
Q 63.578125 2.734375 56.6875 0.65625 
Q 49.8125 -1.421875 42 -1.421875 
Q 24.90625 -1.421875 15.25 8.5625 
Q 5.609375 18.5625 5.609375 36.375 
Q 5.609375 54.25 15.25 64.234375 
Q 24.90625 74.21875 42 74.21875 
Q 49.125 74.21875 55.546875 72.453125 
Q 61.96875 70.703125 67.390625 67.28125 
L 67.390625 56.78125 
Q 61.921875 61.421875 55.765625 63.765625 
Q 49.609375 66.109375 42.828125 66.109375 
Q 29.4375 66.109375 22.71875 58.640625 
Q 16.015625 51.171875 16.015625 36.375 
Q 16.015625 21.625 22.71875 14.15625 
Q 29.4375 6.6875 42.828125 6.6875 
Q 48.046875 6.6875 52.140625 7.59375 
Q 56.25 8.5 59.515625 10.40625 
z
" id="DejaVuSans-47"/>
       <path d="M 9.8125 72.90625 
L 19.671875 72.90625 
L 19.671875 42.09375 
L 52.390625 72.90625 
L 65.09375 72.90625 
L 28.90625 38.921875 
L 67.671875 0 
L 54.6875 0 
L 19.671875 35.109375 
L 19.671875 0 
L 9.8125 0 
z
" id="DejaVuSans-4b"/>
      </defs>
      <g transform="translate(299.740625 696.942188)rotate(-90)scale(0.1 -0.1)">
       <use xlink:href="#DejaVuSans-45"/>
       <use x="63.183594" xlink:href="#DejaVuSans-76"/>
       <use x="122.363281" xlink:href="#DejaVuSans-65"/>
       <use x="183.886719" xlink:href="#DejaVuSans-72"/>
       <use x="224.96875" xlink:href="#DejaVuSans-65"/>
       <use x="286.492188" xlink:href="#DejaVuSans-74"/>
       <use x="325.701172" xlink:href="#DejaVuSans-74"/>
       <use x="364.910156" xlink:href="#DejaVuSans-20"/>
       <use x="396.697266" xlink:href="#DejaVuSans-2d"/>
       <use x="432.78125" xlink:href="#DejaVuSans-20"/>
       <use x="464.568359" xlink:href="#DejaVuSans-47"/>
       <use x="542.058594" xlink:href="#DejaVuSans-65"/>
       <use x="603.582031" xlink:href="#DejaVuSans-6f"/>
       <use x="664.763672" xlink:href="#DejaVuSans-72"/>
       <use x="705.861328" xlink:href="#DejaVuSans-67"/>
       <use x="769.337891" xlink:href="#DejaVuSans-65"/>
       <use x="830.861328" xlink:href="#DejaVuSans-20"/>
       <use x="862.648438" xlink:href="#DejaVuSans-4b"/>
       <use x="928.146484" xlink:href="#DejaVuSans-65"/>
       <use x="989.669922" xlink:href="#DejaVuSans-76"/>
       <use x="1048.849609" xlink:href="#DejaVuSans-65"/>
       <use x="1110.373047" xlink:href="#DejaVuSans-72"/>
       <use x="1151.486328" xlink:href="#DejaVuSans-69"/>
       <use x="1179.269531" xlink:href="#DejaVuSans-61"/>
       <use x="1240.548828" xlink:href="#DejaVuSans-6e"/>
       <use x="1303.927734" xlink:href="#DejaVuSans-20"/>
       <use x="1335.714844" xlink:href="#DejaVuSans-53"/>
       <use x="1399.191406" xlink:href="#DejaVuSans-63"/>
       <use x="1454.171875" xlink:href="#DejaVuSans-68"/>
       <use x="1517.550781" xlink:href="#DejaVuSans-6f"/>
       <use x="1578.732422" xlink:href="#DejaVuSans-6f"/>
       <use x="1639.914062" xlink:href="#DejaVuSans-6c"/>
      </g>
     </g>
    </g>
    <g id="xtick_5">
     <g id="line2d_5">
      <g>
       <use style="stroke:#000000;stroke-width:0.8;" x="371.29375" xlink:href="#m51f94eef34" y="523.16875"/>
      </g>
     </g>
     <g id="text_5">
      <!-- Everett - Lafayette School -->
      <defs>
       <path d="M 9.8125 72.90625 
L 19.671875 72.90625 
L 19.671875 8.296875 
L 55.171875 8.296875 
L 55.171875 0 
L 9.8125 0 
z
" id="DejaVuSans-4c"/>
       <path d="M 37.109375 75.984375 
L 37.109375 68.5 
L 28.515625 68.5 
Q 23.6875 68.5 21.796875 66.546875 
Q 19.921875 64.59375 19.921875 59.515625 
L 19.921875 54.6875 
L 34.71875 54.6875 
L 34.71875 47.703125 
L 19.921875 47.703125 
L 19.921875 0 
L 10.890625 0 
L 10.890625 47.703125 
L 2.296875 47.703125 
L 2.296875 54.6875 
L 10.890625 54.6875 
L 10.890625 58.5 
Q 10.890625 67.625 15.140625 71.796875 
Q 19.390625 75.984375 28.609375 75.984375 
z
" id="DejaVuSans-66"/>
       <path d="M 32.171875 -5.078125 
Q 28.375 -14.84375 24.75 -17.8125 
Q 21.140625 -20.796875 15.09375 -20.796875 
L 7.90625 -20.796875 
L 7.90625 -13.28125 
L 13.1875 -13.28125 
Q 16.890625 -13.28125 18.9375 -11.515625 
Q 21 -9.765625 23.484375 -3.21875 
L 25.09375 0.875 
L 2.984375 54.6875 
L 12.5 54.6875 
L 29.59375 11.921875 
L 46.6875 54.6875 
L 56.203125 54.6875 
z
" id="DejaVuSans-79"/>
      </defs>
      <g transform="translate(374.053125 660.417187)rotate(-90)scale(0.1 -0.1)">
       <use xlink:href="#DejaVuSans-45"/>
       <use x="63.183594" xlink:href="#DejaVuSans-76"/>
       <use x="122.363281" xlink:href="#DejaVuSans-65"/>
       <use x="183.886719" xlink:href="#DejaVuSans-72"/>
       <use x="224.96875" xlink:href="#DejaVuSans-65"/>
       <use x="286.492188" xlink:href="#DejaVuSans-74"/>
       <use x="325.701172" xlink:href="#DejaVuSans-74"/>
       <use x="364.910156" xlink:href="#DejaVuSans-20"/>
       <use x="396.697266" xlink:href="#DejaVuSans-2d"/>
       <use x="432.78125" xlink:href="#DejaVuSans-20"/>
       <use x="464.568359" xlink:href="#DejaVuSans-4c"/>
       <use x="520.28125" xlink:href="#DejaVuSans-61"/>
       <use x="581.560547" xlink:href="#DejaVuSans-66"/>
       <use x="616.765625" xlink:href="#DejaVuSans-61"/>
       <use x="678.044922" xlink:href="#DejaVuSans-79"/>
       <use x="737.224609" xlink:href="#DejaVuSans-65"/>
       <use x="798.748047" xlink:href="#DejaVuSans-74"/>
       <use x="837.957031" xlink:href="#DejaVuSans-74"/>
       <use x="877.166016" xlink:href="#DejaVuSans-65"/>
       <use x="938.689453" xlink:href="#DejaVuSans-20"/>
       <use x="970.476562" xlink:href="#DejaVuSans-53"/>
       <use x="1033.953125" xlink:href="#DejaVuSans-63"/>
       <use x="1088.933594" xlink:href="#DejaVuSans-68"/>
       <use x="1152.3125" xlink:href="#DejaVuSans-6f"/>
       <use x="1213.494141" xlink:href="#DejaVuSans-6f"/>
       <use x="1274.675781" xlink:href="#DejaVuSans-6c"/>
      </g>
     </g>
    </g>
    <g id="xtick_6">
     <g id="line2d_6">
      <g>
       <use style="stroke:#000000;stroke-width:0.8;" x="445.60625" xlink:href="#m51f94eef34" y="523.16875"/>
      </g>
     </g>
     <g id="text_6">
      <!-- Everett - Madeline English School -->
      <defs>
       <path d="M 9.8125 72.90625 
L 24.515625 72.90625 
L 43.109375 23.296875 
L 61.8125 72.90625 
L 76.515625 72.90625 
L 76.515625 0 
L 66.890625 0 
L 66.890625 64.015625 
L 48.09375 14.015625 
L 38.1875 14.015625 
L 19.390625 64.015625 
L 19.390625 0 
L 9.8125 0 
z
" id="DejaVuSans-4d"/>
      </defs>
      <g transform="translate(448.365625 697.59375)rotate(-90)scale(0.1 -0.1)">
       <use xlink:href="#DejaVuSans-45"/>
       <use x="63.183594" xlink:href="#DejaVuSans-76"/>
       <use x="122.363281" xlink:href="#DejaVuSans-65"/>
       <use x="183.886719" xlink:href="#DejaVuSans-72"/>
       <use x="224.96875" xlink:href="#DejaVuSans-65"/>
       <use x="286.492188" xlink:href="#DejaVuSans-74"/>
       <use x="325.701172" xlink:href="#DejaVuSans-74"/>
       <use x="364.910156" xlink:href="#DejaVuSans-20"/>
       <use x="396.697266" xlink:href="#DejaVuSans-2d"/>
       <use x="432.78125" xlink:href="#DejaVuSans-20"/>
       <use x="464.568359" xlink:href="#DejaVuSans-4d"/>
       <use x="550.847656" xlink:href="#DejaVuSans-61"/>
       <use x="612.126953" xlink:href="#DejaVuSans-64"/>
       <use x="675.603516" xlink:href="#DejaVuSans-65"/>
       <use x="737.126953" xlink:href="#DejaVuSans-6c"/>
       <use x="764.910156" xlink:href="#DejaVuSans-69"/>
       <use x="792.693359" xlink:href="#DejaVuSans-6e"/>
       <use x="856.072266" xlink:href="#DejaVuSans-65"/>
       <use x="917.595703" xlink:href="#DejaVuSans-20"/>
       <use x="949.382812" xlink:href="#DejaVuSans-45"/>
       <use x="1012.566406" xlink:href="#DejaVuSans-6e"/>
       <use x="1075.945312" xlink:href="#DejaVuSans-67"/>
       <use x="1139.421875" xlink:href="#DejaVuSans-6c"/>
       <use x="1167.205078" xlink:href="#DejaVuSans-69"/>
       <use x="1194.988281" xlink:href="#DejaVuSans-73"/>
       <use x="1247.087891" xlink:href="#DejaVuSans-68"/>
       <use x="1310.466797" xlink:href="#DejaVuSans-20"/>
       <use x="1342.253906" xlink:href="#DejaVuSans-53"/>
       <use x="1405.730469" xlink:href="#DejaVuSans-63"/>
       <use x="1460.710938" xlink:href="#DejaVuSans-68"/>
       <use x="1524.089844" xlink:href="#DejaVuSans-6f"/>
       <use x="1585.271484" xlink:href="#DejaVuSans-6f"/>
       <use x="1646.453125" xlink:href="#DejaVuSans-6c"/>
      </g>
     </g>
    </g>
    <g id="xtick_7">
     <g id="line2d_7">
      <g>
       <use style="stroke:#000000;stroke-width:0.8;" x="519.91875" xlink:href="#m51f94eef34" y="523.16875"/>
      </g>
     </g>
     <g id="text_7">
      <!-- Everett - Parlin School -->
      <defs>
       <path d="M 19.671875 64.796875 
L 19.671875 37.40625 
L 32.078125 37.40625 
Q 38.96875 37.40625 42.71875 40.96875 
Q 46.484375 44.53125 46.484375 51.125 
Q 46.484375 57.671875 42.71875 61.234375 
Q 38.96875 64.796875 32.078125 64.796875 
z
M 9.8125 72.90625 
L 32.078125 72.90625 
Q 44.34375 72.90625 50.609375 67.359375 
Q 56.890625 61.8125 56.890625 51.125 
Q 56.890625 40.328125 50.609375 34.8125 
Q 44.34375 29.296875 32.078125 29.296875 
L 19.671875 29.296875 
L 19.671875 0 
L 9.8125 0 
z
" id="DejaVuSans-50"/>
      </defs>
      <g transform="translate(522.678125 641.159375)rotate(-90)scale(0.1 -0.1)">
       <use xlink:href="#DejaVuSans-45"/>
       <use x="63.183594" xlink:href="#DejaVuSans-76"/>
       <use x="122.363281" xlink:href="#DejaVuSans-65"/>
       <use x="183.886719" xlink:href="#DejaVuSans-72"/>
       <use x="224.96875" xlink:href="#DejaVuSans-65"/>
       <use x="286.492188" xlink:href="#DejaVuSans-74"/>
       <use x="325.701172" xlink:href="#DejaVuSans-74"/>
       <use x="364.910156" xlink:href="#DejaVuSans-20"/>
       <use x="396.697266" xlink:href="#DejaVuSans-2d"/>
       <use x="432.78125" xlink:href="#DejaVuSans-20"/>
       <use x="464.568359" xlink:href="#DejaVuSans-50"/>
       <use x="524.808594" xlink:href="#DejaVuSans-61"/>
       <use x="586.087891" xlink:href="#DejaVuSans-72"/>
       <use x="627.201172" xlink:href="#DejaVuSans-6c"/>
       <use x="654.984375" xlink:href="#DejaVuSans-69"/>
       <use x="682.767578" xlink:href="#DejaVuSans-6e"/>
       <use x="746.146484" xlink:href="#DejaVuSans-20"/>
       <use x="777.933594" xlink:href="#DejaVuSans-53"/>
       <use x="841.410156" xlink:href="#DejaVuSans-63"/>
       <use x="896.390625" xlink:href="#DejaVuSans-68"/>
       <use x="959.769531" xlink:href="#DejaVuSans-6f"/>
       <use x="1020.951172" xlink:href="#DejaVuSans-6f"/>
       <use x="1082.132812" xlink:href="#DejaVuSans-6c"/>
      </g>
     </g>
    </g>
    <g id="xtick_8">
     <g id="line2d_8">
      <g>
       <use style="stroke:#000000;stroke-width:0.8;" x="594.23125" xlink:href="#m51f94eef34" y="523.16875"/>
      </g>
     </g>
     <g id="text_8">
      <!-- Everett - Sumner G. Whittier School -->
      <defs>
       <path d="M 8.5 21.578125 
L 8.5 54.6875 
L 17.484375 54.6875 
L 17.484375 21.921875 
Q 17.484375 14.15625 20.5 10.265625 
Q 23.53125 6.390625 29.59375 6.390625 
Q 36.859375 6.390625 41.078125 11.03125 
Q 45.3125 15.671875 45.3125 23.6875 
L 45.3125 54.6875 
L 54.296875 54.6875 
L 54.296875 0 
L 45.3125 0 
L 45.3125 8.40625 
Q 42.046875 3.421875 37.71875 1 
Q 33.40625 -1.421875 27.6875 -1.421875 
Q 18.265625 -1.421875 13.375 4.4375 
Q 8.5 10.296875 8.5 21.578125 
z
M 31.109375 56 
z
" id="DejaVuSans-75"/>
       <path d="M 10.6875 12.40625 
L 21 12.40625 
L 21 0 
L 10.6875 0 
z
" id="DejaVuSans-2e"/>
       <path d="M 3.328125 72.90625 
L 13.28125 72.90625 
L 28.609375 11.28125 
L 43.890625 72.90625 
L 54.984375 72.90625 
L 70.3125 11.28125 
L 85.59375 72.90625 
L 95.609375 72.90625 
L 77.296875 0 
L 64.890625 0 
L 49.515625 63.28125 
L 33.984375 0 
L 21.578125 0 
z
" id="DejaVuSans-57"/>
      </defs>
      <g transform="translate(596.990625 709.2)rotate(-90)scale(0.1 -0.1)">
       <use xlink:href="#DejaVuSans-45"/>
       <use x="63.183594" xlink:href="#DejaVuSans-76"/>
       <use x="122.363281" xlink:href="#DejaVuSans-65"/>
       <use x="183.886719" xlink:href="#DejaVuSans-72"/>
       <use x="224.96875" xlink:href="#DejaVuSans-65"/>
       <use x="286.492188" xlink:href="#DejaVuSans-74"/>
       <use x="325.701172" xlink:href="#DejaVuSans-74"/>
       <use x="364.910156" xlink:href="#DejaVuSans-20"/>
       <use x="396.697266" xlink:href="#DejaVuSans-2d"/>
       <use x="432.78125" xlink:href="#DejaVuSans-20"/>
       <use x="464.568359" xlink:href="#DejaVuSans-53"/>
       <use x="528.044922" xlink:href="#DejaVuSans-75"/>
       <use x="591.423828" xlink:href="#DejaVuSans-6d"/>
       <use x="688.835938" xlink:href="#DejaVuSans-6e"/>
       <use x="752.214844" xlink:href="#DejaVuSans-65"/>
       <use x="813.738281" xlink:href="#DejaVuSans-72"/>
       <use x="854.851562" xlink:href="#DejaVuSans-20"/>
       <use x="886.638672" xlink:href="#DejaVuSans-47"/>
       <use x="964.128906" xlink:href="#DejaVuSans-2e"/>
       <use x="995.916016" xlink:href="#DejaVuSans-20"/>
       <use x="1027.703125" xlink:href="#DejaVuSans-57"/>
       <use x="1126.580078" xlink:href="#DejaVuSans-68"/>
       <use x="1189.958984" xlink:href="#DejaVuSans-69"/>
       <use x="1217.742188" xlink:href="#DejaVuSans-74"/>
       <use x="1256.951172" xlink:href="#DejaVuSans-74"/>
       <use x="1296.160156" xlink:href="#DejaVuSans-69"/>
       <use x="1323.943359" xlink:href="#DejaVuSans-65"/>
       <use x="1385.466797" xlink:href="#DejaVuSans-72"/>
       <use x="1426.580078" xlink:href="#DejaVuSans-20"/>
       <use x="1458.367188" xlink:href="#DejaVuSans-53"/>
       <use x="1521.84375" xlink:href="#DejaVuSans-63"/>
       <use x="1576.824219" xlink:href="#DejaVuSans-68"/>
       <use x="1640.203125" xlink:href="#DejaVuSans-6f"/>
       <use x="1701.384766" xlink:href="#DejaVuSans-6f"/>
       <use x="1762.566406" xlink:href="#DejaVuSans-6c"/>
      </g>
     </g>
    </g>
    <g id="xtick_9">
     <g id="line2d_9">
      <g>
       <use style="stroke:#000000;stroke-width:0.8;" x="668.54375" xlink:href="#m51f94eef34" y="523.16875"/>
      </g>
     </g>
     <g id="text_9">
      <!-- Everett - Webster School -->
      <defs>
       <path d="M 48.6875 27.296875 
Q 48.6875 37.203125 44.609375 42.84375 
Q 40.53125 48.484375 33.40625 48.484375 
Q 26.265625 48.484375 22.1875 42.84375 
Q 18.109375 37.203125 18.109375 27.296875 
Q 18.109375 17.390625 22.1875 11.75 
Q 26.265625 6.109375 33.40625 6.109375 
Q 40.53125 6.109375 44.609375 11.75 
Q 48.6875 17.390625 48.6875 27.296875 
z
M 18.109375 46.390625 
Q 20.953125 51.265625 25.265625 53.625 
Q 29.59375 56 35.59375 56 
Q 45.5625 56 51.78125 48.09375 
Q 58.015625 40.1875 58.015625 27.296875 
Q 58.015625 14.40625 51.78125 6.484375 
Q 45.5625 -1.421875 35.59375 -1.421875 
Q 29.59375 -1.421875 25.265625 0.953125 
Q 20.953125 3.328125 18.109375 8.203125 
L 18.109375 0 
L 9.078125 0 
L 9.078125 75.984375 
L 18.109375 75.984375 
z
" id="DejaVuSans-62"/>
      </defs>
      <g transform="translate(671.303125 654.778125)rotate(-90)scale(0.1 -0.1)">
       <use xlink:href="#DejaVuSans-45"/>
       <use x="63.183594" xlink:href="#DejaVuSans-76"/>
       <use x="122.363281" xlink:href="#DejaVuSans-65"/>
       <use x="183.886719" xlink:href="#DejaVuSans-72"/>
       <use x="224.96875" xlink:href="#DejaVuSans-65"/>
       <use x="286.492188" xlink:href="#DejaVuSans-74"/>
       <use x="325.701172" xlink:href="#DejaVuSans-74"/>
       <use x="364.910156" xlink:href="#DejaVuSans-20"/>
       <use x="396.697266" xlink:href="#DejaVuSans-2d"/>
       <use x="432.78125" xlink:href="#DejaVuSans-20"/>
       <use x="464.568359" xlink:href="#DejaVuSans-57"/>
       <use x="563.367188" xlink:href="#DejaVuSans-65"/>
       <use x="624.890625" xlink:href="#DejaVuSans-62"/>
       <use x="688.367188" xlink:href="#DejaVuSans-73"/>
       <use x="740.466797" xlink:href="#DejaVuSans-74"/>
       <use x="779.675781" xlink:href="#DejaVuSans-65"/>
       <use x="841.199219" xlink:href="#DejaVuSans-72"/>
       <use x="882.3125" xlink:href="#DejaVuSans-20"/>
       <use x="914.099609" xlink:href="#DejaVuSans-53"/>
       <use x="977.576172" xlink:href="#DejaVuSans-63"/>
       <use x="1032.556641" xlink:href="#DejaVuSans-68"/>
       <use x="1095.935547" xlink:href="#DejaVuSans-6f"/>
       <use x="1157.117188" xlink:href="#DejaVuSans-6f"/>
       <use x="1218.298828" xlink:href="#DejaVuSans-6c"/>
      </g>
     </g>
    </g>
   </g>
   <g id="matplotlib.axis_2">
    <g id="ytick_1">
     <g id="line2d_10">
      <defs>
       <path d="M 0 0 
L -3.5 0 
" id="m8ed9e57ad9" style="stroke:#000000;stroke-width:0.8;"/>
      </defs>
      <g>
       <use style="stroke:#000000;stroke-width:0.8;" x="36.8875" xlink:href="#m8ed9e57ad9" y="523.16875"/>
      </g>
     </g>
     <g id="text_10">
      <!-- 0 -->
      <defs>
       <path d="M 31.78125 66.40625 
Q 24.171875 66.40625 20.328125 58.90625 
Q 16.5 51.421875 16.5 36.375 
Q 16.5 21.390625 20.328125 13.890625 
Q 24.171875 6.390625 31.78125 6.390625 
Q 39.453125 6.390625 43.28125 13.890625 
Q 47.125 21.390625 47.125 36.375 
Q 47.125 51.421875 43.28125 58.90625 
Q 39.453125 66.40625 31.78125 66.40625 
z
M 31.78125 74.21875 
Q 44.046875 74.21875 50.515625 64.515625 
Q 56.984375 54.828125 56.984375 36.375 
Q 56.984375 17.96875 50.515625 8.265625 
Q 44.046875 -1.421875 31.78125 -1.421875 
Q 19.53125 -1.421875 13.0625 8.265625 
Q 6.59375 17.96875 6.59375 36.375 
Q 6.59375 54.828125 13.0625 64.515625 
Q 19.53125 74.21875 31.78125 74.21875 
z
" id="DejaVuSans-30"/>
      </defs>
      <g transform="translate(23.525 526.967969)scale(0.1 -0.1)">
       <use xlink:href="#DejaVuSans-30"/>
      </g>
     </g>
    </g>
    <g id="ytick_2">
     <g id="line2d_11">
      <g>
       <use style="stroke:#000000;stroke-width:0.8;" x="36.8875" xlink:href="#m8ed9e57ad9" y="427.201046"/>
      </g>
     </g>
     <g id="text_11">
      <!-- 20 -->
      <defs>
       <path d="M 19.1875 8.296875 
L 53.609375 8.296875 
L 53.609375 0 
L 7.328125 0 
L 7.328125 8.296875 
Q 12.9375 14.109375 22.625 23.890625 
Q 32.328125 33.6875 34.8125 36.53125 
Q 39.546875 41.84375 41.421875 45.53125 
Q 43.3125 49.21875 43.3125 52.78125 
Q 43.3125 58.59375 39.234375 62.25 
Q 35.15625 65.921875 28.609375 65.921875 
Q 23.96875 65.921875 18.8125 64.3125 
Q 13.671875 62.703125 7.8125 59.421875 
L 7.8125 69.390625 
Q 13.765625 71.78125 18.9375 73 
Q 24.125 74.21875 28.421875 74.21875 
Q 39.75 74.21875 46.484375 68.546875 
Q 53.21875 62.890625 53.21875 53.421875 
Q 53.21875 48.921875 51.53125 44.890625 
Q 49.859375 40.875 45.40625 35.40625 
Q 44.1875 33.984375 37.640625 27.21875 
Q 31.109375 20.453125 19.1875 8.296875 
z
" id="DejaVuSans-32"/>
      </defs>
      <g transform="translate(17.1625 431.000265)scale(0.1 -0.1)">
       <use xlink:href="#DejaVuSans-32"/>
       <use x="63.623047" xlink:href="#DejaVuSans-30"/>
      </g>
     </g>
    </g>
    <g id="ytick_3">
     <g id="line2d_12">
      <g>
       <use style="stroke:#000000;stroke-width:0.8;" x="36.8875" xlink:href="#m8ed9e57ad9" y="331.233342"/>
      </g>
     </g>
     <g id="text_12">
      <!-- 40 -->
      <defs>
       <path d="M 37.796875 64.3125 
L 12.890625 25.390625 
L 37.796875 25.390625 
z
M 35.203125 72.90625 
L 47.609375 72.90625 
L 47.609375 25.390625 
L 58.015625 25.390625 
L 58.015625 17.1875 
L 47.609375 17.1875 
L 47.609375 0 
L 37.796875 0 
L 37.796875 17.1875 
L 4.890625 17.1875 
L 4.890625 26.703125 
z
" id="DejaVuSans-34"/>
      </defs>
      <g transform="translate(17.1625 335.032561)scale(0.1 -0.1)">
       <use xlink:href="#DejaVuSans-34"/>
       <use x="63.623047" xlink:href="#DejaVuSans-30"/>
      </g>
     </g>
    </g>
    <g id="ytick_4">
     <g id="line2d_13">
      <g>
       <use style="stroke:#000000;stroke-width:0.8;" x="36.8875" xlink:href="#m8ed9e57ad9" y="235.265638"/>
      </g>
     </g>
     <g id="text_13">
      <!-- 60 -->
      <defs>
       <path d="M 33.015625 40.375 
Q 26.375 40.375 22.484375 35.828125 
Q 18.609375 31.296875 18.609375 23.390625 
Q 18.609375 15.53125 22.484375 10.953125 
Q 26.375 6.390625 33.015625 6.390625 
Q 39.65625 6.390625 43.53125 10.953125 
Q 47.40625 15.53125 47.40625 23.390625 
Q 47.40625 31.296875 43.53125 35.828125 
Q 39.65625 40.375 33.015625 40.375 
z
M 52.59375 71.296875 
L 52.59375 62.3125 
Q 48.875 64.0625 45.09375 64.984375 
Q 41.3125 65.921875 37.59375 65.921875 
Q 27.828125 65.921875 22.671875 59.328125 
Q 17.53125 52.734375 16.796875 39.40625 
Q 19.671875 43.65625 24.015625 45.921875 
Q 28.375 48.1875 33.59375 48.1875 
Q 44.578125 48.1875 50.953125 41.515625 
Q 57.328125 34.859375 57.328125 23.390625 
Q 57.328125 12.15625 50.6875 5.359375 
Q 44.046875 -1.421875 33.015625 -1.421875 
Q 20.359375 -1.421875 13.671875 8.265625 
Q 6.984375 17.96875 6.984375 36.375 
Q 6.984375 53.65625 15.1875 63.9375 
Q 23.390625 74.21875 37.203125 74.21875 
Q 40.921875 74.21875 44.703125 73.484375 
Q 48.484375 72.75 52.59375 71.296875 
z
" id="DejaVuSans-36"/>
      </defs>
      <g transform="translate(17.1625 239.064857)scale(0.1 -0.1)">
       <use xlink:href="#DejaVuSans-36"/>
       <use x="63.623047" xlink:href="#DejaVuSans-30"/>
      </g>
     </g>
    </g>
    <g id="ytick_5">
     <g id="line2d_14">
      <g>
       <use style="stroke:#000000;stroke-width:0.8;" x="36.8875" xlink:href="#m8ed9e57ad9" y="139.297934"/>
      </g>
     </g>
     <g id="text_14">
      <!-- 80 -->
      <defs>
       <path d="M 31.78125 34.625 
Q 24.75 34.625 20.71875 30.859375 
Q 16.703125 27.09375 16.703125 20.515625 
Q 16.703125 13.921875 20.71875 10.15625 
Q 24.75 6.390625 31.78125 6.390625 
Q 38.8125 6.390625 42.859375 10.171875 
Q 46.921875 13.96875 46.921875 20.515625 
Q 46.921875 27.09375 42.890625 30.859375 
Q 38.875 34.625 31.78125 34.625 
z
M 21.921875 38.8125 
Q 15.578125 40.375 12.03125 44.71875 
Q 8.5 49.078125 8.5 55.328125 
Q 8.5 64.0625 14.71875 69.140625 
Q 20.953125 74.21875 31.78125 74.21875 
Q 42.671875 74.21875 48.875 69.140625 
Q 55.078125 64.0625 55.078125 55.328125 
Q 55.078125 49.078125 51.53125 44.71875 
Q 48 40.375 41.703125 38.8125 
Q 48.828125 37.15625 52.796875 32.3125 
Q 56.78125 27.484375 56.78125 20.515625 
Q 56.78125 9.90625 50.3125 4.234375 
Q 43.84375 -1.421875 31.78125 -1.421875 
Q 19.734375 -1.421875 13.25 4.234375 
Q 6.78125 9.90625 6.78125 20.515625 
Q 6.78125 27.484375 10.78125 32.3125 
Q 14.796875 37.15625 21.921875 38.8125 
z
M 18.3125 54.390625 
Q 18.3125 48.734375 21.84375 45.5625 
Q 25.390625 42.390625 31.78125 42.390625 
Q 38.140625 42.390625 41.71875 45.5625 
Q 45.3125 48.734375 45.3125 54.390625 
Q 45.3125 60.0625 41.71875 63.234375 
Q 38.140625 66.40625 31.78125 66.40625 
Q 25.390625 66.40625 21.84375 63.234375 
Q 18.3125 60.0625 18.3125 54.390625 
z
" id="DejaVuSans-38"/>
      </defs>
      <g transform="translate(17.1625 143.097153)scale(0.1 -0.1)">
       <use xlink:href="#DejaVuSans-38"/>
       <use x="63.623047" xlink:href="#DejaVuSans-30"/>
      </g>
     </g>
    </g>
    <g id="ytick_6">
     <g id="line2d_15">
      <g>
       <use style="stroke:#000000;stroke-width:0.8;" x="36.8875" xlink:href="#m8ed9e57ad9" y="43.33023"/>
      </g>
     </g>
     <g id="text_15">
      <!-- 100 -->
      <defs>
       <path d="M 12.40625 8.296875 
L 28.515625 8.296875 
L 28.515625 63.921875 
L 10.984375 60.40625 
L 10.984375 69.390625 
L 28.421875 72.90625 
L 38.28125 72.90625 
L 38.28125 8.296875 
L 54.390625 8.296875 
L 54.390625 0 
L 12.40625 0 
z
" id="DejaVuSans-31"/>
      </defs>
      <g transform="translate(10.8 47.129449)scale(0.1 -0.1)">
       <use xlink:href="#DejaVuSans-31"/>
       <use x="63.623047" xlink:href="#DejaVuSans-30"/>
       <use x="127.246094" xlink:href="#DejaVuSans-30"/>
      </g>
     </g>
    </g>
   </g>
   <g id="patch_39">
    <path d="M 36.8875 523.16875 
L 36.8875 14.3 
" style="fill:none;stroke:#000000;stroke-linecap:square;stroke-linejoin:miter;stroke-width:0.8;"/>
   </g>
   <g id="patch_40">
    <path d="M 705.7 523.16875 
L 705.7 14.3 
" style="fill:none;stroke:#000000;stroke-linecap:square;stroke-linejoin:miter;stroke-width:0.8;"/>
   </g>
   <g id="patch_41">
    <path d="M 36.8875 523.16875 
L 705.7 523.16875 
" style="fill:none;stroke:#000000;stroke-linecap:square;stroke-linejoin:miter;stroke-width:0.8;"/>
   </g>
   <g id="patch_42">
    <path d="M 36.8875 14.3 
L 705.7 14.3 
" style="fill:none;stroke:#000000;stroke-linecap:square;stroke-linejoin:miter;stroke-width:0.8;"/>
   </g>
   <g id="legend_1">
    <g id="patch_43">
     <path d="M 43.8875 81.0125 
L 133.090625 81.0125 
Q 135.090625 81.0125 135.090625 79.0125 
L 135.090625 21.3 
Q 135.090625 19.3 133.090625 19.3 
L 43.8875 19.3 
Q 41.8875 19.3 41.8875 21.3 
L 41.8875 79.0125 
Q 41.8875 81.0125 43.8875 81.0125 
z
" style="fill:#ffffff;opacity:0.8;stroke:#cccccc;stroke-linejoin:miter;"/>
    </g>
    <g id="patch_44">
     <path d="M 45.8875 30.898438 
L 65.8875 30.898438 
L 65.8875 23.898438 
L 45.8875 23.898438 
z
" style="fill:#1f77b4;"/>
    </g>
    <g id="text_16">
     <!-- APercent -->
     <g transform="translate(73.8875 30.898438)scale(0.1 -0.1)">
      <use xlink:href="#DejaVuSans-41"/>
      <use x="68.408203" xlink:href="#DejaVuSans-50"/>
      <use x="128.664062" xlink:href="#DejaVuSans-65"/>
      <use x="190.1875" xlink:href="#DejaVuSans-72"/>
      <use x="231.269531" xlink:href="#DejaVuSans-63"/>
      <use x="286.25" xlink:href="#DejaVuSans-65"/>
      <use x="347.773438" xlink:href="#DejaVuSans-6e"/>
      <use x="411.152344" xlink:href="#DejaVuSans-74"/>
     </g>
    </g>
    <g id="patch_45">
     <path d="M 45.8875 45.576563 
L 65.8875 45.576563 
L 65.8875 38.576563 
L 45.8875 38.576563 
z
" style="fill:#ff7f0e;"/>
    </g>
    <g id="text_17">
     <!-- PPercent -->
     <g transform="translate(73.8875 45.576563)scale(0.1 -0.1)">
      <use xlink:href="#DejaVuSans-50"/>
      <use x="60.302734" xlink:href="#DejaVuSans-50"/>
      <use x="120.558594" xlink:href="#DejaVuSans-65"/>
      <use x="182.082031" xlink:href="#DejaVuSans-72"/>
      <use x="223.164062" xlink:href="#DejaVuSans-63"/>
      <use x="278.144531" xlink:href="#DejaVuSans-65"/>
      <use x="339.667969" xlink:href="#DejaVuSans-6e"/>
      <use x="403.046875" xlink:href="#DejaVuSans-74"/>
     </g>
    </g>
    <g id="patch_46">
     <path d="M 45.8875 60.254688 
L 65.8875 60.254688 
L 65.8875 53.254688 
L 45.8875 53.254688 
z
" style="fill:#2ca02c;"/>
    </g>
    <g id="text_18">
     <!-- NIPercent -->
     <defs>
      <path d="M 9.8125 72.90625 
L 23.09375 72.90625 
L 55.421875 11.921875 
L 55.421875 72.90625 
L 64.984375 72.90625 
L 64.984375 0 
L 51.703125 0 
L 19.390625 60.984375 
L 19.390625 0 
L 9.8125 0 
z
" id="DejaVuSans-4e"/>
      <path d="M 9.8125 72.90625 
L 19.671875 72.90625 
L 19.671875 0 
L 9.8125 0 
z
" id="DejaVuSans-49"/>
     </defs>
     <g transform="translate(73.8875 60.254688)scale(0.1 -0.1)">
      <use xlink:href="#DejaVuSans-4e"/>
      <use x="74.804688" xlink:href="#DejaVuSans-49"/>
      <use x="104.296875" xlink:href="#DejaVuSans-50"/>
      <use x="164.552734" xlink:href="#DejaVuSans-65"/>
      <use x="226.076172" xlink:href="#DejaVuSans-72"/>
      <use x="267.158203" xlink:href="#DejaVuSans-63"/>
      <use x="322.138672" xlink:href="#DejaVuSans-65"/>
      <use x="383.662109" xlink:href="#DejaVuSans-6e"/>
      <use x="447.041016" xlink:href="#DejaVuSans-74"/>
     </g>
    </g>
    <g id="patch_47">
     <path d="M 45.8875 74.932812 
L 65.8875 74.932812 
L 65.8875 67.932812 
L 45.8875 67.932812 
z
" style="fill:#d62728;"/>
    </g>
    <g id="text_19">
     <!-- W/FPercent -->
     <defs>
      <path d="M 25.390625 72.90625 
L 33.6875 72.90625 
L 8.296875 -9.28125 
L 0 -9.28125 
z
" id="DejaVuSans-2f"/>
      <path d="M 9.8125 72.90625 
L 51.703125 72.90625 
L 51.703125 64.59375 
L 19.671875 64.59375 
L 19.671875 43.109375 
L 48.578125 43.109375 
L 48.578125 34.8125 
L 19.671875 34.8125 
L 19.671875 0 
L 9.8125 0 
z
" id="DejaVuSans-46"/>
     </defs>
     <g transform="translate(73.8875 74.932812)scale(0.1 -0.1)">
      <use xlink:href="#DejaVuSans-57"/>
      <use x="98.876953" xlink:href="#DejaVuSans-2f"/>
      <use x="132.568359" xlink:href="#DejaVuSans-46"/>
      <use x="190.087891" xlink:href="#DejaVuSans-50"/>
      <use x="250.34375" xlink:href="#DejaVuSans-65"/>
      <use x="311.867188" xlink:href="#DejaVuSans-72"/>
      <use x="352.949219" xlink:href="#DejaVuSans-63"/>
      <use x="407.929688" xlink:href="#DejaVuSans-65"/>
      <use x="469.453125" xlink:href="#DejaVuSans-6e"/>
      <use x="532.832031" xlink:href="#DejaVuSans-74"/>
     </g>
    </g>
   </g>
  </g>
 </g>
 <defs>
  <clipPath id="p437b464778">
   <rect height="508.86875" width="668.8125" x="36.8875" y="14.3"/>
  </clipPath>
 </defs>
</svg>
