<?xml version="1.0" encoding="utf-8" standalone="no"?>
<!DOCTYPE svg PUBLIC "-//W3C//DTD SVG 1.1//EN"
  "http://www.w3.org/Graphics/SVG/1.1/DTD/svg11.dtd">
<!-- Created with matplotlib (http://matplotlib.org/) -->
<svg height="720pt" version="1.1" viewBox="0 0 720 720" width="720pt" xmlns="http://www.w3.org/2000/svg" xmlns:xlink="http://www.w3.org/1999/xlink">
 <defs>
  <style type="text/css">
*{stroke-linecap:butt;stroke-linejoin:round;}
  </style>
 </defs>
 <g id="figure_1">
  <g id="patch_1">
   <path d="M 0 720 
L 720 720 
L 720 0 
L 0 0 
z
" style="fill:#ffffff;"/>
  </g>
  <g id="axes_1">
   <g id="patch_2">
    <path d="M 30.525 481.30625 
L 705.7 481.30625 
L 705.7 14.3 
L 30.525 14.3 
z
" style="fill:#ffffff;"/>
   </g>
   <g id="patch_3">
    <path clip-path="url(#p9f886c1ed8)" d="M 51.624219 481.30625 
L 72.723438 481.30625 
L 72.723438 297.686492 
L 51.624219 297.686492 
z
" style="fill:#1f77b4;"/>
   </g>
   <g id="patch_4">
    <path clip-path="url(#p9f886c1ed8)" d="M 136.021094 481.30625 
L 157.120313 481.30625 
L 157.120313 138.549369 
L 136.021094 138.549369 
z
" style="fill:#1f77b4;"/>
   </g>
   <g id="patch_5">
    <path clip-path="url(#p9f886c1ed8)" d="M 220.417969 481.30625 
L 241.517188 481.30625 
L 241.517188 269.123419 
L 220.417969 269.123419 
z
" style="fill:#1f77b4;"/>
   </g>
   <g id="patch_6">
    <path clip-path="url(#p9f886c1ed8)" d="M 304.814844 481.30625 
L 325.914062 481.30625 
L 325.914062 342.571322 
L 304.814844 342.571322 
z
" style="fill:#1f77b4;"/>
   </g>
   <g id="patch_7">
    <path clip-path="url(#p9f886c1ed8)" d="M 389.211719 481.30625 
L 410.310938 481.30625 
L 410.310938 220.15815 
L 389.211719 220.15815 
z
" style="fill:#1f77b4;"/>
   </g>
   <g id="patch_8">
    <path clip-path="url(#p9f886c1ed8)" d="M 473.608594 481.30625 
L 494.707812 481.30625 
L 494.707812 326.249566 
L 473.608594 326.249566 
z
" style="fill:#1f77b4;"/>
   </g>
   <g id="patch_9">
    <path clip-path="url(#p9f886c1ed8)" d="M 558.005469 481.30625 
L 579.104688 481.30625 
L 579.104688 36.538393 
L 558.005469 36.538393 
z
" style="fill:#1f77b4;"/>
   </g>
   <g id="patch_10">
    <path clip-path="url(#p9f886c1ed8)" d="M 642.402344 481.30625 
L 663.501563 481.30625 
L 663.501563 338.490883 
L 642.402344 338.490883 
z
" style="fill:#1f77b4;"/>
   </g>
   <g id="patch_11">
    <path clip-path="url(#p9f886c1ed8)" d="M 72.723438 481.30625 
L 93.822656 481.30625 
L 93.822656 297.686492 
L 72.723438 297.686492 
z
" style="fill:#ff7f0e;"/>
   </g>
   <g id="patch_12">
    <path clip-path="url(#p9f886c1ed8)" d="M 157.120313 481.30625 
L 178.219531 481.30625 
L 178.219531 367.053956 
L 157.120313 367.053956 
z
" style="fill:#ff7f0e;"/>
   </g>
   <g id="patch_13">
    <path clip-path="url(#p9f886c1ed8)" d="M 241.517188 481.30625 
L 262.616406 481.30625 
L 262.616406 460.904055 
L 241.517188 460.904055 
z
" style="fill:#ff7f0e;"/>
   </g>
   <g id="patch_14">
    <path clip-path="url(#p9f886c1ed8)" d="M 325.914062 481.30625 
L 347.013281 481.30625 
L 347.013281 481.30625 
L 325.914062 481.30625 
z
" style="fill:#ff7f0e;"/>
   </g>
   <g id="patch_15">
    <path clip-path="url(#p9f886c1ed8)" d="M 410.310938 481.30625 
L 431.410156 481.30625 
L 431.410156 424.180103 
L 410.310938 424.180103 
z
" style="fill:#ff7f0e;"/>
   </g>
   <g id="patch_16">
    <path clip-path="url(#p9f886c1ed8)" d="M 494.707813 481.30625 
L 515.807031 481.30625 
L 515.807031 473.145372 
L 494.707813 473.145372 
z
" style="fill:#ff7f0e;"/>
   </g>
   <g id="patch_17">
    <path clip-path="url(#p9f886c1ed8)" d="M 579.104688 481.30625 
L 600.203906 481.30625 
L 600.203906 481.30625 
L 579.104688 481.30625 
z
" style="fill:#ff7f0e;"/>
   </g>
   <g id="patch_18">
    <path clip-path="url(#p9f886c1ed8)" d="M 663.501563 481.30625 
L 684.600781 481.30625 
L 684.600781 416.019225 
L 663.501563 416.019225 
z
" style="fill:#ff7f0e;"/>
   </g>
   <g id="matplotlib.axis_1">
    <g id="xtick_1">
     <g id="line2d_1">
      <defs>
       <path d="M 0 0 
L 0 3.5 
" id="m8a376ac10b" style="stroke:#000000;stroke-width:0.8;"/>
      </defs>
      <g>
       <use style="stroke:#000000;stroke-width:0.8;" x="72.723438" xlink:href="#m8a376ac10b" y="481.30625"/>
      </g>
     </g>
     <g id="text_1">
      <!-- Westwood - Deerfield School -->
      <defs>
       <path d="M 3.328125 72.90625 
L 13.28125 72.90625 
L 28.609375 11.28125 
L 43.890625 72.90625 
L 54.984375 72.90625 
L 70.3125 11.28125 
L 85.59375 72.90625 
L 95.609375 72.90625 
L 77.296875 0 
L 64.890625 0 
L 49.515625 63.28125 
L 33.984375 0 
L 21.578125 0 
z
" id="DejaVuSans-57"/>
       <path d="M 56.203125 29.59375 
L 56.203125 25.203125 
L 14.890625 25.203125 
Q 15.484375 15.921875 20.484375 11.0625 
Q 25.484375 6.203125 34.421875 6.203125 
Q 39.59375 6.203125 44.453125 7.46875 
Q 49.3125 8.734375 54.109375 11.28125 
L 54.109375 2.78125 
Q 49.265625 0.734375 44.1875 -0.34375 
Q 39.109375 -1.421875 33.890625 -1.421875 
Q 20.796875 -1.421875 13.15625 6.1875 
Q 5.515625 13.8125 5.515625 26.8125 
Q 5.515625 40.234375 12.765625 48.109375 
Q 20.015625 56 32.328125 56 
Q 43.359375 56 49.78125 48.890625 
Q 56.203125 41.796875 56.203125 29.59375 
z
M 47.21875 32.234375 
Q 47.125 39.59375 43.09375 43.984375 
Q 39.0625 48.390625 32.421875 48.390625 
Q 24.90625 48.390625 20.390625 44.140625 
Q 15.875 39.890625 15.1875 32.171875 
z
" id="DejaVuSans-65"/>
       <path d="M 44.28125 53.078125 
L 44.28125 44.578125 
Q 40.484375 46.53125 36.375 47.5 
Q 32.28125 48.484375 27.875 48.484375 
Q 21.1875 48.484375 17.84375 46.4375 
Q 14.5 44.390625 14.5 40.28125 
Q 14.5 37.15625 16.890625 35.375 
Q 19.28125 33.59375 26.515625 31.984375 
L 29.59375 31.296875 
Q 39.15625 29.25 43.1875 25.515625 
Q 47.21875 21.78125 47.21875 15.09375 
Q 47.21875 7.46875 41.1875 3.015625 
Q 35.15625 -1.421875 24.609375 -1.421875 
Q 20.21875 -1.421875 15.453125 -0.5625 
Q 10.6875 0.296875 5.421875 2 
L 5.421875 11.28125 
Q 10.40625 8.6875 15.234375 7.390625 
Q 20.0625 6.109375 24.8125 6.109375 
Q 31.15625 6.109375 34.5625 8.28125 
Q 37.984375 10.453125 37.984375 14.40625 
Q 37.984375 18.0625 35.515625 20.015625 
Q 33.0625 21.96875 24.703125 23.78125 
L 21.578125 24.515625 
Q 13.234375 26.265625 9.515625 29.90625 
Q 5.8125 33.546875 5.8125 39.890625 
Q 5.8125 47.609375 11.28125 51.796875 
Q 16.75 56 26.8125 56 
Q 31.78125 56 36.171875 55.265625 
Q 40.578125 54.546875 44.28125 53.078125 
z
" id="DejaVuSans-73"/>
       <path d="M 18.3125 70.21875 
L 18.3125 54.6875 
L 36.8125 54.6875 
L 36.8125 47.703125 
L 18.3125 47.703125 
L 18.3125 18.015625 
Q 18.3125 11.328125 20.140625 9.421875 
Q 21.96875 7.515625 27.59375 7.515625 
L 36.8125 7.515625 
L 36.8125 0 
L 27.59375 0 
Q 17.1875 0 13.234375 3.875 
Q 9.28125 7.765625 9.28125 18.015625 
L 9.28125 47.703125 
L 2.6875 47.703125 
L 2.6875 54.6875 
L 9.28125 54.6875 
L 9.28125 70.21875 
z
" id="DejaVuSans-74"/>
       <path d="M 4.203125 54.6875 
L 13.1875 54.6875 
L 24.421875 12.015625 
L 35.59375 54.6875 
L 46.1875 54.6875 
L 57.421875 12.015625 
L 68.609375 54.6875 
L 77.59375 54.6875 
L 63.28125 0 
L 52.6875 0 
L 40.921875 44.828125 
L 29.109375 0 
L 18.5 0 
z
" id="DejaVuSans-77"/>
       <path d="M 30.609375 48.390625 
Q 23.390625 48.390625 19.1875 42.75 
Q 14.984375 37.109375 14.984375 27.296875 
Q 14.984375 17.484375 19.15625 11.84375 
Q 23.34375 6.203125 30.609375 6.203125 
Q 37.796875 6.203125 41.984375 11.859375 
Q 46.1875 17.53125 46.1875 27.296875 
Q 46.1875 37.015625 41.984375 42.703125 
Q 37.796875 48.390625 30.609375 48.390625 
z
M 30.609375 56 
Q 42.328125 56 49.015625 48.375 
Q 55.71875 40.765625 55.71875 27.296875 
Q 55.71875 13.875 49.015625 6.21875 
Q 42.328125 -1.421875 30.609375 -1.421875 
Q 18.84375 -1.421875 12.171875 6.21875 
Q 5.515625 13.875 5.515625 27.296875 
Q 5.515625 40.765625 12.171875 48.375 
Q 18.84375 56 30.609375 56 
z
" id="DejaVuSans-6f"/>
       <path d="M 45.40625 46.390625 
L 45.40625 75.984375 
L 54.390625 75.984375 
L 54.390625 0 
L 45.40625 0 
L 45.40625 8.203125 
Q 42.578125 3.328125 38.25 0.953125 
Q 33.9375 -1.421875 27.875 -1.421875 
Q 17.96875 -1.421875 11.734375 6.484375 
Q 5.515625 14.40625 5.515625 27.296875 
Q 5.515625 40.1875 11.734375 48.09375 
Q 17.96875 56 27.875 56 
Q 33.9375 56 38.25 53.625 
Q 42.578125 51.265625 45.40625 46.390625 
z
M 14.796875 27.296875 
Q 14.796875 17.390625 18.875 11.75 
Q 22.953125 6.109375 30.078125 6.109375 
Q 37.203125 6.109375 41.296875 11.75 
Q 45.40625 17.390625 45.40625 27.296875 
Q 45.40625 37.203125 41.296875 42.84375 
Q 37.203125 48.484375 30.078125 48.484375 
Q 22.953125 48.484375 18.875 42.84375 
Q 14.796875 37.203125 14.796875 27.296875 
z
" id="DejaVuSans-64"/>
       <path id="DejaVuSans-20"/>
       <path d="M 4.890625 31.390625 
L 31.203125 31.390625 
L 31.203125 23.390625 
L 4.890625 23.390625 
z
" id="DejaVuSans-2d"/>
       <path d="M 19.671875 64.796875 
L 19.671875 8.109375 
L 31.59375 8.109375 
Q 46.6875 8.109375 53.6875 14.9375 
Q 60.6875 21.78125 60.6875 36.53125 
Q 60.6875 51.171875 53.6875 57.984375 
Q 46.6875 64.796875 31.59375 64.796875 
z
M 9.8125 72.90625 
L 30.078125 72.90625 
Q 51.265625 72.90625 61.171875 64.09375 
Q 71.09375 55.28125 71.09375 36.53125 
Q 71.09375 17.671875 61.125 8.828125 
Q 51.171875 0 30.078125 0 
L 9.8125 0 
z
" id="DejaVuSans-44"/>
       <path d="M 41.109375 46.296875 
Q 39.59375 47.171875 37.8125 47.578125 
Q 36.03125 48 33.890625 48 
Q 26.265625 48 22.1875 43.046875 
Q 18.109375 38.09375 18.109375 28.8125 
L 18.109375 0 
L 9.078125 0 
L 9.078125 54.6875 
L 18.109375 54.6875 
L 18.109375 46.1875 
Q 20.953125 51.171875 25.484375 53.578125 
Q 30.03125 56 36.53125 56 
Q 37.453125 56 38.578125 55.875 
Q 39.703125 55.765625 41.0625 55.515625 
z
" id="DejaVuSans-72"/>
       <path d="M 37.109375 75.984375 
L 37.109375 68.5 
L 28.515625 68.5 
Q 23.6875 68.5 21.796875 66.546875 
Q 19.921875 64.59375 19.921875 59.515625 
L 19.921875 54.6875 
L 34.71875 54.6875 
L 34.71875 47.703125 
L 19.921875 47.703125 
L 19.921875 0 
L 10.890625 0 
L 10.890625 47.703125 
L 2.296875 47.703125 
L 2.296875 54.6875 
L 10.890625 54.6875 
L 10.890625 58.5 
Q 10.890625 67.625 15.140625 71.796875 
Q 19.390625 75.984375 28.609375 75.984375 
z
" id="DejaVuSans-66"/>
       <path d="M 9.421875 54.6875 
L 18.40625 54.6875 
L 18.40625 0 
L 9.421875 0 
z
M 9.421875 75.984375 
L 18.40625 75.984375 
L 18.40625 64.59375 
L 9.421875 64.59375 
z
" id="DejaVuSans-69"/>
       <path d="M 9.421875 75.984375 
L 18.40625 75.984375 
L 18.40625 0 
L 9.421875 0 
z
" id="DejaVuSans-6c"/>
       <path d="M 53.515625 70.515625 
L 53.515625 60.890625 
Q 47.90625 63.578125 42.921875 64.890625 
Q 37.9375 66.21875 33.296875 66.21875 
Q 25.25 66.21875 20.875 63.09375 
Q 16.5 59.96875 16.5 54.203125 
Q 16.5 49.359375 19.40625 46.890625 
Q 22.3125 44.4375 30.421875 42.921875 
L 36.375 41.703125 
Q 47.40625 39.59375 52.65625 34.296875 
Q 57.90625 29 57.90625 20.125 
Q 57.90625 9.515625 50.796875 4.046875 
Q 43.703125 -1.421875 29.984375 -1.421875 
Q 24.8125 -1.421875 18.96875 -0.25 
Q 13.140625 0.921875 6.890625 3.21875 
L 6.890625 13.375 
Q 12.890625 10.015625 18.65625 8.296875 
Q 24.421875 6.59375 29.984375 6.59375 
Q 38.421875 6.59375 43.015625 9.90625 
Q 47.609375 13.234375 47.609375 19.390625 
Q 47.609375 24.75 44.3125 27.78125 
Q 41.015625 30.8125 33.5 32.328125 
L 27.484375 33.5 
Q 16.453125 35.6875 11.515625 40.375 
Q 6.59375 45.0625 6.59375 53.421875 
Q 6.59375 63.09375 13.40625 68.65625 
Q 20.21875 74.21875 32.171875 74.21875 
Q 37.3125 74.21875 42.625 73.28125 
Q 47.953125 72.359375 53.515625 70.515625 
z
" id="DejaVuSans-53"/>
       <path d="M 48.78125 52.59375 
L 48.78125 44.1875 
Q 44.96875 46.296875 41.140625 47.34375 
Q 37.3125 48.390625 33.40625 48.390625 
Q 24.65625 48.390625 19.8125 42.84375 
Q 14.984375 37.3125 14.984375 27.296875 
Q 14.984375 17.28125 19.8125 11.734375 
Q 24.65625 6.203125 33.40625 6.203125 
Q 37.3125 6.203125 41.140625 7.25 
Q 44.96875 8.296875 48.78125 10.40625 
L 48.78125 2.09375 
Q 45.015625 0.34375 40.984375 -0.53125 
Q 36.96875 -1.421875 32.421875 -1.421875 
Q 20.0625 -1.421875 12.78125 6.34375 
Q 5.515625 14.109375 5.515625 27.296875 
Q 5.515625 40.671875 12.859375 48.328125 
Q 20.21875 56 33.015625 56 
Q 37.15625 56 41.109375 55.140625 
Q 45.0625 54.296875 48.78125 52.59375 
z
" id="DejaVuSans-63"/>
       <path d="M 54.890625 33.015625 
L 54.890625 0 
L 45.90625 0 
L 45.90625 32.71875 
Q 45.90625 40.484375 42.875 44.328125 
Q 39.84375 48.1875 33.796875 48.1875 
Q 26.515625 48.1875 22.3125 43.546875 
Q 18.109375 38.921875 18.109375 30.90625 
L 18.109375 0 
L 9.078125 0 
L 9.078125 75.984375 
L 18.109375 75.984375 
L 18.109375 46.1875 
Q 21.34375 51.125 25.703125 53.5625 
Q 30.078125 56 35.796875 56 
Q 45.21875 56 50.046875 50.171875 
Q 54.890625 44.34375 54.890625 33.015625 
z
" id="DejaVuSans-68"/>
      </defs>
      <g transform="translate(75.482812 632.270312)rotate(-90)scale(0.1 -0.1)">
       <use xlink:href="#DejaVuSans-57"/>
       <use x="98.798828" xlink:href="#DejaVuSans-65"/>
       <use x="160.322266" xlink:href="#DejaVuSans-73"/>
       <use x="212.421875" xlink:href="#DejaVuSans-74"/>
       <use x="251.630859" xlink:href="#DejaVuSans-77"/>
       <use x="333.417969" xlink:href="#DejaVuSans-6f"/>
       <use x="394.599609" xlink:href="#DejaVuSans-6f"/>
       <use x="455.78125" xlink:href="#DejaVuSans-64"/>
       <use x="519.257812" xlink:href="#DejaVuSans-20"/>
       <use x="551.044922" xlink:href="#DejaVuSans-2d"/>
       <use x="587.128906" xlink:href="#DejaVuSans-20"/>
       <use x="618.916016" xlink:href="#DejaVuSans-44"/>
       <use x="695.917969" xlink:href="#DejaVuSans-65"/>
       <use x="757.441406" xlink:href="#DejaVuSans-65"/>
       <use x="818.964844" xlink:href="#DejaVuSans-72"/>
       <use x="860.078125" xlink:href="#DejaVuSans-66"/>
       <use x="895.283203" xlink:href="#DejaVuSans-69"/>
       <use x="923.066406" xlink:href="#DejaVuSans-65"/>
       <use x="984.589844" xlink:href="#DejaVuSans-6c"/>
       <use x="1012.373047" xlink:href="#DejaVuSans-64"/>
       <use x="1075.849609" xlink:href="#DejaVuSans-20"/>
       <use x="1107.636719" xlink:href="#DejaVuSans-53"/>
       <use x="1171.113281" xlink:href="#DejaVuSans-63"/>
       <use x="1226.09375" xlink:href="#DejaVuSans-68"/>
       <use x="1289.472656" xlink:href="#DejaVuSans-6f"/>
       <use x="1350.654297" xlink:href="#DejaVuSans-6f"/>
       <use x="1411.835938" xlink:href="#DejaVuSans-6c"/>
      </g>
     </g>
    </g>
    <g id="xtick_2">
     <g id="line2d_2">
      <g>
       <use style="stroke:#000000;stroke-width:0.8;" x="157.120313" xlink:href="#m8a376ac10b" y="481.30625"/>
      </g>
     </g>
     <g id="text_2">
      <!-- Westwood - Downey -->
      <defs>
       <path d="M 54.890625 33.015625 
L 54.890625 0 
L 45.90625 0 
L 45.90625 32.71875 
Q 45.90625 40.484375 42.875 44.328125 
Q 39.84375 48.1875 33.796875 48.1875 
Q 26.515625 48.1875 22.3125 43.546875 
Q 18.109375 38.921875 18.109375 30.90625 
L 18.109375 0 
L 9.078125 0 
L 9.078125 54.6875 
L 18.109375 54.6875 
L 18.109375 46.1875 
Q 21.34375 51.125 25.703125 53.5625 
Q 30.078125 56 35.796875 56 
Q 45.21875 56 50.046875 50.171875 
Q 54.890625 44.34375 54.890625 33.015625 
z
" id="DejaVuSans-6e"/>
       <path d="M 32.171875 -5.078125 
Q 28.375 -14.84375 24.75 -17.8125 
Q 21.140625 -20.796875 15.09375 -20.796875 
L 7.90625 -20.796875 
L 7.90625 -13.28125 
L 13.1875 -13.28125 
Q 16.890625 -13.28125 18.9375 -11.515625 
Q 21 -9.765625 23.484375 -3.21875 
L 25.09375 0.875 
L 2.984375 54.6875 
L 12.5 54.6875 
L 29.59375 11.921875 
L 46.6875 54.6875 
L 56.203125 54.6875 
z
" id="DejaVuSans-79"/>
      </defs>
      <g transform="translate(159.879688 590.603125)rotate(-90)scale(0.1 -0.1)">
       <use xlink:href="#DejaVuSans-57"/>
       <use x="98.798828" xlink:href="#DejaVuSans-65"/>
       <use x="160.322266" xlink:href="#DejaVuSans-73"/>
       <use x="212.421875" xlink:href="#DejaVuSans-74"/>
       <use x="251.630859" xlink:href="#DejaVuSans-77"/>
       <use x="333.417969" xlink:href="#DejaVuSans-6f"/>
       <use x="394.599609" xlink:href="#DejaVuSans-6f"/>
       <use x="455.78125" xlink:href="#DejaVuSans-64"/>
       <use x="519.257812" xlink:href="#DejaVuSans-20"/>
       <use x="551.044922" xlink:href="#DejaVuSans-2d"/>
       <use x="587.128906" xlink:href="#DejaVuSans-20"/>
       <use x="618.916016" xlink:href="#DejaVuSans-44"/>
       <use x="695.917969" xlink:href="#DejaVuSans-6f"/>
       <use x="757.099609" xlink:href="#DejaVuSans-77"/>
       <use x="838.886719" xlink:href="#DejaVuSans-6e"/>
       <use x="902.265625" xlink:href="#DejaVuSans-65"/>
       <use x="963.789062" xlink:href="#DejaVuSans-79"/>
      </g>
     </g>
    </g>
    <g id="xtick_3">
     <g id="line2d_3">
      <g>
       <use style="stroke:#000000;stroke-width:0.8;" x="241.517188" xlink:href="#m8a376ac10b" y="481.30625"/>
      </g>
     </g>
     <g id="text_3">
      <!-- Westwood - E W Thurston Middle -->
      <defs>
       <path d="M 9.8125 72.90625 
L 55.90625 72.90625 
L 55.90625 64.59375 
L 19.671875 64.59375 
L 19.671875 43.015625 
L 54.390625 43.015625 
L 54.390625 34.71875 
L 19.671875 34.71875 
L 19.671875 8.296875 
L 56.78125 8.296875 
L 56.78125 0 
L 9.8125 0 
z
" id="DejaVuSans-45"/>
       <path d="M -0.296875 72.90625 
L 61.375 72.90625 
L 61.375 64.59375 
L 35.5 64.59375 
L 35.5 0 
L 25.59375 0 
L 25.59375 64.59375 
L -0.296875 64.59375 
z
" id="DejaVuSans-54"/>
       <path d="M 8.5 21.578125 
L 8.5 54.6875 
L 17.484375 54.6875 
L 17.484375 21.921875 
Q 17.484375 14.15625 20.5 10.265625 
Q 23.53125 6.390625 29.59375 6.390625 
Q 36.859375 6.390625 41.078125 11.03125 
Q 45.3125 15.671875 45.3125 23.6875 
L 45.3125 54.6875 
L 54.296875 54.6875 
L 54.296875 0 
L 45.3125 0 
L 45.3125 8.40625 
Q 42.046875 3.421875 37.71875 1 
Q 33.40625 -1.421875 27.6875 -1.421875 
Q 18.265625 -1.421875 13.375 4.4375 
Q 8.5 10.296875 8.5 21.578125 
z
M 31.109375 56 
z
" id="DejaVuSans-75"/>
       <path d="M 9.8125 72.90625 
L 24.515625 72.90625 
L 43.109375 23.296875 
L 61.8125 72.90625 
L 76.515625 72.90625 
L 76.515625 0 
L 66.890625 0 
L 66.890625 64.015625 
L 48.09375 14.015625 
L 38.1875 14.015625 
L 19.390625 64.015625 
L 19.390625 0 
L 9.8125 0 
z
" id="DejaVuSans-4d"/>
      </defs>
      <g transform="translate(244.276563 653.451562)rotate(-90)scale(0.1 -0.1)">
       <use xlink:href="#DejaVuSans-57"/>
       <use x="98.798828" xlink:href="#DejaVuSans-65"/>
       <use x="160.322266" xlink:href="#DejaVuSans-73"/>
       <use x="212.421875" xlink:href="#DejaVuSans-74"/>
       <use x="251.630859" xlink:href="#DejaVuSans-77"/>
       <use x="333.417969" xlink:href="#DejaVuSans-6f"/>
       <use x="394.599609" xlink:href="#DejaVuSans-6f"/>
       <use x="455.78125" xlink:href="#DejaVuSans-64"/>
       <use x="519.257812" xlink:href="#DejaVuSans-20"/>
       <use x="551.044922" xlink:href="#DejaVuSans-2d"/>
       <use x="587.128906" xlink:href="#DejaVuSans-20"/>
       <use x="618.916016" xlink:href="#DejaVuSans-45"/>
       <use x="682.099609" xlink:href="#DejaVuSans-20"/>
       <use x="713.886719" xlink:href="#DejaVuSans-57"/>
       <use x="812.763672" xlink:href="#DejaVuSans-20"/>
       <use x="844.550781" xlink:href="#DejaVuSans-54"/>
       <use x="905.634766" xlink:href="#DejaVuSans-68"/>
       <use x="969.013672" xlink:href="#DejaVuSans-75"/>
       <use x="1032.392578" xlink:href="#DejaVuSans-72"/>
       <use x="1073.505859" xlink:href="#DejaVuSans-73"/>
       <use x="1125.605469" xlink:href="#DejaVuSans-74"/>
       <use x="1164.814453" xlink:href="#DejaVuSans-6f"/>
       <use x="1225.996094" xlink:href="#DejaVuSans-6e"/>
       <use x="1289.375" xlink:href="#DejaVuSans-20"/>
       <use x="1321.162109" xlink:href="#DejaVuSans-4d"/>
       <use x="1407.441406" xlink:href="#DejaVuSans-69"/>
       <use x="1435.224609" xlink:href="#DejaVuSans-64"/>
       <use x="1498.701172" xlink:href="#DejaVuSans-64"/>
       <use x="1562.177734" xlink:href="#DejaVuSans-6c"/>
       <use x="1589.960938" xlink:href="#DejaVuSans-65"/>
      </g>
     </g>
    </g>
    <g id="xtick_4">
     <g id="line2d_4">
      <g>
       <use style="stroke:#000000;stroke-width:0.8;" x="325.914062" xlink:href="#m8a376ac10b" y="481.30625"/>
      </g>
     </g>
     <g id="text_4">
      <!-- Westwood - Martha Jones -->
      <defs>
       <path d="M 34.28125 27.484375 
Q 23.390625 27.484375 19.1875 25 
Q 14.984375 22.515625 14.984375 16.5 
Q 14.984375 11.71875 18.140625 8.90625 
Q 21.296875 6.109375 26.703125 6.109375 
Q 34.1875 6.109375 38.703125 11.40625 
Q 43.21875 16.703125 43.21875 25.484375 
L 43.21875 27.484375 
z
M 52.203125 31.203125 
L 52.203125 0 
L 43.21875 0 
L 43.21875 8.296875 
Q 40.140625 3.328125 35.546875 0.953125 
Q 30.953125 -1.421875 24.3125 -1.421875 
Q 15.921875 -1.421875 10.953125 3.296875 
Q 6 8.015625 6 15.921875 
Q 6 25.140625 12.171875 29.828125 
Q 18.359375 34.515625 30.609375 34.515625 
L 43.21875 34.515625 
L 43.21875 35.40625 
Q 43.21875 41.609375 39.140625 45 
Q 35.0625 48.390625 27.6875 48.390625 
Q 23 48.390625 18.546875 47.265625 
Q 14.109375 46.140625 10.015625 43.890625 
L 10.015625 52.203125 
Q 14.9375 54.109375 19.578125 55.046875 
Q 24.21875 56 28.609375 56 
Q 40.484375 56 46.34375 49.84375 
Q 52.203125 43.703125 52.203125 31.203125 
z
" id="DejaVuSans-61"/>
       <path d="M 9.8125 72.90625 
L 19.671875 72.90625 
L 19.671875 5.078125 
Q 19.671875 -8.109375 14.671875 -14.0625 
Q 9.671875 -20.015625 -1.421875 -20.015625 
L -5.171875 -20.015625 
L -5.171875 -11.71875 
L -2.09375 -11.71875 
Q 4.4375 -11.71875 7.125 -8.046875 
Q 9.8125 -4.390625 9.8125 5.078125 
z
" id="DejaVuSans-4a"/>
      </defs>
      <g transform="translate(328.673437 615.396875)rotate(-90)scale(0.1 -0.1)">
       <use xlink:href="#DejaVuSans-57"/>
       <use x="98.798828" xlink:href="#DejaVuSans-65"/>
       <use x="160.322266" xlink:href="#DejaVuSans-73"/>
       <use x="212.421875" xlink:href="#DejaVuSans-74"/>
       <use x="251.630859" xlink:href="#DejaVuSans-77"/>
       <use x="333.417969" xlink:href="#DejaVuSans-6f"/>
       <use x="394.599609" xlink:href="#DejaVuSans-6f"/>
       <use x="455.78125" xlink:href="#DejaVuSans-64"/>
       <use x="519.257812" xlink:href="#DejaVuSans-20"/>
       <use x="551.044922" xlink:href="#DejaVuSans-2d"/>
       <use x="587.128906" xlink:href="#DejaVuSans-20"/>
       <use x="618.916016" xlink:href="#DejaVuSans-4d"/>
       <use x="705.195312" xlink:href="#DejaVuSans-61"/>
       <use x="766.474609" xlink:href="#DejaVuSans-72"/>
       <use x="807.587891" xlink:href="#DejaVuSans-74"/>
       <use x="846.796875" xlink:href="#DejaVuSans-68"/>
       <use x="910.175781" xlink:href="#DejaVuSans-61"/>
       <use x="971.455078" xlink:href="#DejaVuSans-20"/>
       <use x="1003.242188" xlink:href="#DejaVuSans-4a"/>
       <use x="1032.734375" xlink:href="#DejaVuSans-6f"/>
       <use x="1093.916016" xlink:href="#DejaVuSans-6e"/>
       <use x="1157.294922" xlink:href="#DejaVuSans-65"/>
       <use x="1218.818359" xlink:href="#DejaVuSans-73"/>
      </g>
     </g>
    </g>
    <g id="xtick_5">
     <g id="line2d_5">
      <g>
       <use style="stroke:#000000;stroke-width:0.8;" x="410.310938" xlink:href="#m8a376ac10b" y="481.30625"/>
      </g>
     </g>
     <g id="text_5">
      <!-- Westwood - Paul Hanlon -->
      <defs>
       <path d="M 19.671875 64.796875 
L 19.671875 37.40625 
L 32.078125 37.40625 
Q 38.96875 37.40625 42.71875 40.96875 
Q 46.484375 44.53125 46.484375 51.125 
Q 46.484375 57.671875 42.71875 61.234375 
Q 38.96875 64.796875 32.078125 64.796875 
z
M 9.8125 72.90625 
L 32.078125 72.90625 
Q 44.34375 72.90625 50.609375 67.359375 
Q 56.890625 61.8125 56.890625 51.125 
Q 56.890625 40.328125 50.609375 34.8125 
Q 44.34375 29.296875 32.078125 29.296875 
L 19.671875 29.296875 
L 19.671875 0 
L 9.8125 0 
z
" id="DejaVuSans-50"/>
       <path d="M 9.8125 72.90625 
L 19.671875 72.90625 
L 19.671875 43.015625 
L 55.515625 43.015625 
L 55.515625 72.90625 
L 65.375 72.90625 
L 65.375 0 
L 55.515625 0 
L 55.515625 34.71875 
L 19.671875 34.71875 
L 19.671875 0 
L 9.8125 0 
z
" id="DejaVuSans-48"/>
      </defs>
      <g transform="translate(413.070312 609.8625)rotate(-90)scale(0.1 -0.1)">
       <use xlink:href="#DejaVuSans-57"/>
       <use x="98.798828" xlink:href="#DejaVuSans-65"/>
       <use x="160.322266" xlink:href="#DejaVuSans-73"/>
       <use x="212.421875" xlink:href="#DejaVuSans-74"/>
       <use x="251.630859" xlink:href="#DejaVuSans-77"/>
       <use x="333.417969" xlink:href="#DejaVuSans-6f"/>
       <use x="394.599609" xlink:href="#DejaVuSans-6f"/>
       <use x="455.78125" xlink:href="#DejaVuSans-64"/>
       <use x="519.257812" xlink:href="#DejaVuSans-20"/>
       <use x="551.044922" xlink:href="#DejaVuSans-2d"/>
       <use x="587.128906" xlink:href="#DejaVuSans-20"/>
       <use x="618.916016" xlink:href="#DejaVuSans-50"/>
       <use x="679.15625" xlink:href="#DejaVuSans-61"/>
       <use x="740.435547" xlink:href="#DejaVuSans-75"/>
       <use x="803.814453" xlink:href="#DejaVuSans-6c"/>
       <use x="831.597656" xlink:href="#DejaVuSans-20"/>
       <use x="863.384766" xlink:href="#DejaVuSans-48"/>
       <use x="938.580078" xlink:href="#DejaVuSans-61"/>
       <use x="999.859375" xlink:href="#DejaVuSans-6e"/>
       <use x="1063.238281" xlink:href="#DejaVuSans-6c"/>
       <use x="1091.021484" xlink:href="#DejaVuSans-6f"/>
       <use x="1152.203125" xlink:href="#DejaVuSans-6e"/>
      </g>
     </g>
    </g>
    <g id="xtick_6">
     <g id="line2d_6">
      <g>
       <use style="stroke:#000000;stroke-width:0.8;" x="494.707813" xlink:href="#m8a376ac10b" y="481.30625"/>
      </g>
     </g>
     <g id="text_6">
      <!-- Westwood - Westwood High -->
      <defs>
       <path d="M 45.40625 27.984375 
Q 45.40625 37.75 41.375 43.109375 
Q 37.359375 48.484375 30.078125 48.484375 
Q 22.859375 48.484375 18.828125 43.109375 
Q 14.796875 37.75 14.796875 27.984375 
Q 14.796875 18.265625 18.828125 12.890625 
Q 22.859375 7.515625 30.078125 7.515625 
Q 37.359375 7.515625 41.375 12.890625 
Q 45.40625 18.265625 45.40625 27.984375 
z
M 54.390625 6.78125 
Q 54.390625 -7.171875 48.1875 -13.984375 
Q 42 -20.796875 29.203125 -20.796875 
Q 24.46875 -20.796875 20.265625 -20.09375 
Q 16.0625 -19.390625 12.109375 -17.921875 
L 12.109375 -9.1875 
Q 16.0625 -11.328125 19.921875 -12.34375 
Q 23.78125 -13.375 27.78125 -13.375 
Q 36.625 -13.375 41.015625 -8.765625 
Q 45.40625 -4.15625 45.40625 5.171875 
L 45.40625 9.625 
Q 42.625 4.78125 38.28125 2.390625 
Q 33.9375 0 27.875 0 
Q 17.828125 0 11.671875 7.65625 
Q 5.515625 15.328125 5.515625 27.984375 
Q 5.515625 40.671875 11.671875 48.328125 
Q 17.828125 56 27.875 56 
Q 33.9375 56 38.28125 53.609375 
Q 42.625 51.21875 45.40625 46.390625 
L 45.40625 54.6875 
L 54.390625 54.6875 
z
" id="DejaVuSans-67"/>
      </defs>
      <g transform="translate(497.467188 628.285937)rotate(-90)scale(0.1 -0.1)">
       <use xlink:href="#DejaVuSans-57"/>
       <use x="98.798828" xlink:href="#DejaVuSans-65"/>
       <use x="160.322266" xlink:href="#DejaVuSans-73"/>
       <use x="212.421875" xlink:href="#DejaVuSans-74"/>
       <use x="251.630859" xlink:href="#DejaVuSans-77"/>
       <use x="333.417969" xlink:href="#DejaVuSans-6f"/>
       <use x="394.599609" xlink:href="#DejaVuSans-6f"/>
       <use x="455.78125" xlink:href="#DejaVuSans-64"/>
       <use x="519.257812" xlink:href="#DejaVuSans-20"/>
       <use x="551.044922" xlink:href="#DejaVuSans-2d"/>
       <use x="587.128906" xlink:href="#DejaVuSans-20"/>
       <use x="618.916016" xlink:href="#DejaVuSans-57"/>
       <use x="717.714844" xlink:href="#DejaVuSans-65"/>
       <use x="779.238281" xlink:href="#DejaVuSans-73"/>
       <use x="831.337891" xlink:href="#DejaVuSans-74"/>
       <use x="870.546875" xlink:href="#DejaVuSans-77"/>
       <use x="952.333984" xlink:href="#DejaVuSans-6f"/>
       <use x="1013.515625" xlink:href="#DejaVuSans-6f"/>
       <use x="1074.697266" xlink:href="#DejaVuSans-64"/>
       <use x="1138.173828" xlink:href="#DejaVuSans-20"/>
       <use x="1169.960938" xlink:href="#DejaVuSans-48"/>
       <use x="1245.15625" xlink:href="#DejaVuSans-69"/>
       <use x="1272.939453" xlink:href="#DejaVuSans-67"/>
       <use x="1336.416016" xlink:href="#DejaVuSans-68"/>
      </g>
     </g>
    </g>
    <g id="xtick_7">
     <g id="line2d_7">
      <g>
       <use style="stroke:#000000;stroke-width:0.8;" x="579.104688" xlink:href="#m8a376ac10b" y="481.30625"/>
      </g>
     </g>
     <g id="text_7">
      <!-- Westwood - Westwood Integrated Preschool -->
      <defs>
       <path d="M 9.8125 72.90625 
L 19.671875 72.90625 
L 19.671875 0 
L 9.8125 0 
z
" id="DejaVuSans-49"/>
      </defs>
      <g transform="translate(581.864063 709.2)rotate(-90)scale(0.1 -0.1)">
       <use xlink:href="#DejaVuSans-57"/>
       <use x="98.798828" xlink:href="#DejaVuSans-65"/>
       <use x="160.322266" xlink:href="#DejaVuSans-73"/>
       <use x="212.421875" xlink:href="#DejaVuSans-74"/>
       <use x="251.630859" xlink:href="#DejaVuSans-77"/>
       <use x="333.417969" xlink:href="#DejaVuSans-6f"/>
       <use x="394.599609" xlink:href="#DejaVuSans-6f"/>
       <use x="455.78125" xlink:href="#DejaVuSans-64"/>
       <use x="519.257812" xlink:href="#DejaVuSans-20"/>
       <use x="551.044922" xlink:href="#DejaVuSans-2d"/>
       <use x="587.128906" xlink:href="#DejaVuSans-20"/>
       <use x="618.916016" xlink:href="#DejaVuSans-57"/>
       <use x="717.714844" xlink:href="#DejaVuSans-65"/>
       <use x="779.238281" xlink:href="#DejaVuSans-73"/>
       <use x="831.337891" xlink:href="#DejaVuSans-74"/>
       <use x="870.546875" xlink:href="#DejaVuSans-77"/>
       <use x="952.333984" xlink:href="#DejaVuSans-6f"/>
       <use x="1013.515625" xlink:href="#DejaVuSans-6f"/>
       <use x="1074.697266" xlink:href="#DejaVuSans-64"/>
       <use x="1138.173828" xlink:href="#DejaVuSans-20"/>
       <use x="1169.960938" xlink:href="#DejaVuSans-49"/>
       <use x="1199.453125" xlink:href="#DejaVuSans-6e"/>
       <use x="1262.832031" xlink:href="#DejaVuSans-74"/>
       <use x="1302.041016" xlink:href="#DejaVuSans-65"/>
       <use x="1363.564453" xlink:href="#DejaVuSans-67"/>
       <use x="1427.041016" xlink:href="#DejaVuSans-72"/>
       <use x="1468.154297" xlink:href="#DejaVuSans-61"/>
       <use x="1529.433594" xlink:href="#DejaVuSans-74"/>
       <use x="1568.642578" xlink:href="#DejaVuSans-65"/>
       <use x="1630.166016" xlink:href="#DejaVuSans-64"/>
       <use x="1693.642578" xlink:href="#DejaVuSans-20"/>
       <use x="1725.429688" xlink:href="#DejaVuSans-50"/>
       <use x="1785.716797" xlink:href="#DejaVuSans-72"/>
       <use x="1826.798828" xlink:href="#DejaVuSans-65"/>
       <use x="1888.322266" xlink:href="#DejaVuSans-73"/>
       <use x="1940.421875" xlink:href="#DejaVuSans-63"/>
       <use x="1995.402344" xlink:href="#DejaVuSans-68"/>
       <use x="2058.78125" xlink:href="#DejaVuSans-6f"/>
       <use x="2119.962891" xlink:href="#DejaVuSans-6f"/>
       <use x="2181.144531" xlink:href="#DejaVuSans-6c"/>
      </g>
     </g>
    </g>
    <g id="xtick_8">
     <g id="line2d_8">
      <g>
       <use style="stroke:#000000;stroke-width:0.8;" x="663.501563" xlink:href="#m8a376ac10b" y="481.30625"/>
      </g>
     </g>
     <g id="text_8">
      <!-- Westwood - William E Sheehan -->
      <defs>
       <path d="M 52 44.1875 
Q 55.375 50.25 60.0625 53.125 
Q 64.75 56 71.09375 56 
Q 79.640625 56 84.28125 50.015625 
Q 88.921875 44.046875 88.921875 33.015625 
L 88.921875 0 
L 79.890625 0 
L 79.890625 32.71875 
Q 79.890625 40.578125 77.09375 44.375 
Q 74.3125 48.1875 68.609375 48.1875 
Q 61.625 48.1875 57.5625 43.546875 
Q 53.515625 38.921875 53.515625 30.90625 
L 53.515625 0 
L 44.484375 0 
L 44.484375 32.71875 
Q 44.484375 40.625 41.703125 44.40625 
Q 38.921875 48.1875 33.109375 48.1875 
Q 26.21875 48.1875 22.15625 43.53125 
Q 18.109375 38.875 18.109375 30.90625 
L 18.109375 0 
L 9.078125 0 
L 9.078125 54.6875 
L 18.109375 54.6875 
L 18.109375 46.1875 
Q 21.1875 51.21875 25.484375 53.609375 
Q 29.78125 56 35.6875 56 
Q 41.65625 56 45.828125 52.96875 
Q 50 49.953125 52 44.1875 
z
" id="DejaVuSans-6d"/>
      </defs>
      <g transform="translate(666.260938 643.532812)rotate(-90)scale(0.1 -0.1)">
       <use xlink:href="#DejaVuSans-57"/>
       <use x="98.798828" xlink:href="#DejaVuSans-65"/>
       <use x="160.322266" xlink:href="#DejaVuSans-73"/>
       <use x="212.421875" xlink:href="#DejaVuSans-74"/>
       <use x="251.630859" xlink:href="#DejaVuSans-77"/>
       <use x="333.417969" xlink:href="#DejaVuSans-6f"/>
       <use x="394.599609" xlink:href="#DejaVuSans-6f"/>
       <use x="455.78125" xlink:href="#DejaVuSans-64"/>
       <use x="519.257812" xlink:href="#DejaVuSans-20"/>
       <use x="551.044922" xlink:href="#DejaVuSans-2d"/>
       <use x="587.128906" xlink:href="#DejaVuSans-20"/>
       <use x="618.916016" xlink:href="#DejaVuSans-57"/>
       <use x="717.761719" xlink:href="#DejaVuSans-69"/>
       <use x="745.544922" xlink:href="#DejaVuSans-6c"/>
       <use x="773.328125" xlink:href="#DejaVuSans-6c"/>
       <use x="801.111328" xlink:href="#DejaVuSans-69"/>
       <use x="828.894531" xlink:href="#DejaVuSans-61"/>
       <use x="890.173828" xlink:href="#DejaVuSans-6d"/>
       <use x="987.585938" xlink:href="#DejaVuSans-20"/>
       <use x="1019.373047" xlink:href="#DejaVuSans-45"/>
       <use x="1082.556641" xlink:href="#DejaVuSans-20"/>
       <use x="1114.34375" xlink:href="#DejaVuSans-53"/>
       <use x="1177.820312" xlink:href="#DejaVuSans-68"/>
       <use x="1241.199219" xlink:href="#DejaVuSans-65"/>
       <use x="1302.722656" xlink:href="#DejaVuSans-65"/>
       <use x="1364.246094" xlink:href="#DejaVuSans-68"/>
       <use x="1427.625" xlink:href="#DejaVuSans-61"/>
       <use x="1488.904297" xlink:href="#DejaVuSans-6e"/>
      </g>
     </g>
    </g>
   </g>
   <g id="matplotlib.axis_2">
    <g id="ytick_1">
     <g id="line2d_9">
      <defs>
       <path d="M 0 0 
L -3.5 0 
" id="m8f6da41cc7" style="stroke:#000000;stroke-width:0.8;"/>
      </defs>
      <g>
       <use style="stroke:#000000;stroke-width:0.8;" x="30.525" xlink:href="#m8f6da41cc7" y="481.30625"/>
      </g>
     </g>
     <g id="text_9">
      <!-- 0 -->
      <defs>
       <path d="M 31.78125 66.40625 
Q 24.171875 66.40625 20.328125 58.90625 
Q 16.5 51.421875 16.5 36.375 
Q 16.5 21.390625 20.328125 13.890625 
Q 24.171875 6.390625 31.78125 6.390625 
Q 39.453125 6.390625 43.28125 13.890625 
Q 47.125 21.390625 47.125 36.375 
Q 47.125 51.421875 43.28125 58.90625 
Q 39.453125 66.40625 31.78125 66.40625 
z
M 31.78125 74.21875 
Q 44.046875 74.21875 50.515625 64.515625 
Q 56.984375 54.828125 56.984375 36.375 
Q 56.984375 17.96875 50.515625 8.265625 
Q 44.046875 -1.421875 31.78125 -1.421875 
Q 19.53125 -1.421875 13.0625 8.265625 
Q 6.59375 17.96875 6.59375 36.375 
Q 6.59375 54.828125 13.0625 64.515625 
Q 19.53125 74.21875 31.78125 74.21875 
z
" id="DejaVuSans-30"/>
      </defs>
      <g transform="translate(17.1625 485.105469)scale(0.1 -0.1)">
       <use xlink:href="#DejaVuSans-30"/>
      </g>
     </g>
    </g>
    <g id="ytick_2">
     <g id="line2d_10">
      <g>
       <use style="stroke:#000000;stroke-width:0.8;" x="30.525" xlink:href="#m8f6da41cc7" y="399.697469"/>
      </g>
     </g>
     <g id="text_10">
      <!-- 2 -->
      <defs>
       <path d="M 19.1875 8.296875 
L 53.609375 8.296875 
L 53.609375 0 
L 7.328125 0 
L 7.328125 8.296875 
Q 12.9375 14.109375 22.625 23.890625 
Q 32.328125 33.6875 34.8125 36.53125 
Q 39.546875 41.84375 41.421875 45.53125 
Q 43.3125 49.21875 43.3125 52.78125 
Q 43.3125 58.59375 39.234375 62.25 
Q 35.15625 65.921875 28.609375 65.921875 
Q 23.96875 65.921875 18.8125 64.3125 
Q 13.671875 62.703125 7.8125 59.421875 
L 7.8125 69.390625 
Q 13.765625 71.78125 18.9375 73 
Q 24.125 74.21875 28.421875 74.21875 
Q 39.75 74.21875 46.484375 68.546875 
Q 53.21875 62.890625 53.21875 53.421875 
Q 53.21875 48.921875 51.53125 44.890625 
Q 49.859375 40.875 45.40625 35.40625 
Q 44.1875 33.984375 37.640625 27.21875 
Q 31.109375 20.453125 19.1875 8.296875 
z
" id="DejaVuSans-32"/>
      </defs>
      <g transform="translate(17.1625 403.496688)scale(0.1 -0.1)">
       <use xlink:href="#DejaVuSans-32"/>
      </g>
     </g>
    </g>
    <g id="ytick_3">
     <g id="line2d_11">
      <g>
       <use style="stroke:#000000;stroke-width:0.8;" x="30.525" xlink:href="#m8f6da41cc7" y="318.088688"/>
      </g>
     </g>
     <g id="text_11">
      <!-- 4 -->
      <defs>
       <path d="M 37.796875 64.3125 
L 12.890625 25.390625 
L 37.796875 25.390625 
z
M 35.203125 72.90625 
L 47.609375 72.90625 
L 47.609375 25.390625 
L 58.015625 25.390625 
L 58.015625 17.1875 
L 47.609375 17.1875 
L 47.609375 0 
L 37.796875 0 
L 37.796875 17.1875 
L 4.890625 17.1875 
L 4.890625 26.703125 
z
" id="DejaVuSans-34"/>
      </defs>
      <g transform="translate(17.1625 321.887906)scale(0.1 -0.1)">
       <use xlink:href="#DejaVuSans-34"/>
      </g>
     </g>
    </g>
    <g id="ytick_4">
     <g id="line2d_12">
      <g>
       <use style="stroke:#000000;stroke-width:0.8;" x="30.525" xlink:href="#m8f6da41cc7" y="236.479907"/>
      </g>
     </g>
     <g id="text_12">
      <!-- 6 -->
      <defs>
       <path d="M 33.015625 40.375 
Q 26.375 40.375 22.484375 35.828125 
Q 18.609375 31.296875 18.609375 23.390625 
Q 18.609375 15.53125 22.484375 10.953125 
Q 26.375 6.390625 33.015625 6.390625 
Q 39.65625 6.390625 43.53125 10.953125 
Q 47.40625 15.53125 47.40625 23.390625 
Q 47.40625 31.296875 43.53125 35.828125 
Q 39.65625 40.375 33.015625 40.375 
z
M 52.59375 71.296875 
L 52.59375 62.3125 
Q 48.875 64.0625 45.09375 64.984375 
Q 41.3125 65.921875 37.59375 65.921875 
Q 27.828125 65.921875 22.671875 59.328125 
Q 17.53125 52.734375 16.796875 39.40625 
Q 19.671875 43.65625 24.015625 45.921875 
Q 28.375 48.1875 33.59375 48.1875 
Q 44.578125 48.1875 50.953125 41.515625 
Q 57.328125 34.859375 57.328125 23.390625 
Q 57.328125 12.15625 50.6875 5.359375 
Q 44.046875 -1.421875 33.015625 -1.421875 
Q 20.359375 -1.421875 13.671875 8.265625 
Q 6.984375 17.96875 6.984375 36.375 
Q 6.984375 53.65625 15.1875 63.9375 
Q 23.390625 74.21875 37.203125 74.21875 
Q 40.921875 74.21875 44.703125 73.484375 
Q 48.484375 72.75 52.59375 71.296875 
z
" id="DejaVuSans-36"/>
      </defs>
      <g transform="translate(17.1625 240.279125)scale(0.1 -0.1)">
       <use xlink:href="#DejaVuSans-36"/>
      </g>
     </g>
    </g>
    <g id="ytick_5">
     <g id="line2d_13">
      <g>
       <use style="stroke:#000000;stroke-width:0.8;" x="30.525" xlink:href="#m8f6da41cc7" y="154.871125"/>
      </g>
     </g>
     <g id="text_13">
      <!-- 8 -->
      <defs>
       <path d="M 31.78125 34.625 
Q 24.75 34.625 20.71875 30.859375 
Q 16.703125 27.09375 16.703125 20.515625 
Q 16.703125 13.921875 20.71875 10.15625 
Q 24.75 6.390625 31.78125 6.390625 
Q 38.8125 6.390625 42.859375 10.171875 
Q 46.921875 13.96875 46.921875 20.515625 
Q 46.921875 27.09375 42.890625 30.859375 
Q 38.875 34.625 31.78125 34.625 
z
M 21.921875 38.8125 
Q 15.578125 40.375 12.03125 44.71875 
Q 8.5 49.078125 8.5 55.328125 
Q 8.5 64.0625 14.71875 69.140625 
Q 20.953125 74.21875 31.78125 74.21875 
Q 42.671875 74.21875 48.875 69.140625 
Q 55.078125 64.0625 55.078125 55.328125 
Q 55.078125 49.078125 51.53125 44.71875 
Q 48 40.375 41.703125 38.8125 
Q 48.828125 37.15625 52.796875 32.3125 
Q 56.78125 27.484375 56.78125 20.515625 
Q 56.78125 9.90625 50.3125 4.234375 
Q 43.84375 -1.421875 31.78125 -1.421875 
Q 19.734375 -1.421875 13.25 4.234375 
Q 6.78125 9.90625 6.78125 20.515625 
Q 6.78125 27.484375 10.78125 32.3125 
Q 14.796875 37.15625 21.921875 38.8125 
z
M 18.3125 54.390625 
Q 18.3125 48.734375 21.84375 45.5625 
Q 25.390625 42.390625 31.78125 42.390625 
Q 38.140625 42.390625 41.71875 45.5625 
Q 45.3125 48.734375 45.3125 54.390625 
Q 45.3125 60.0625 41.71875 63.234375 
Q 38.140625 66.40625 31.78125 66.40625 
Q 25.390625 66.40625 21.84375 63.234375 
Q 18.3125 60.0625 18.3125 54.390625 
z
" id="DejaVuSans-38"/>
      </defs>
      <g transform="translate(17.1625 158.670344)scale(0.1 -0.1)">
       <use xlink:href="#DejaVuSans-38"/>
      </g>
     </g>
    </g>
    <g id="ytick_6">
     <g id="line2d_14">
      <g>
       <use style="stroke:#000000;stroke-width:0.8;" x="30.525" xlink:href="#m8f6da41cc7" y="73.262344"/>
      </g>
     </g>
     <g id="text_14">
      <!-- 10 -->
      <defs>
       <path d="M 12.40625 8.296875 
L 28.515625 8.296875 
L 28.515625 63.921875 
L 10.984375 60.40625 
L 10.984375 69.390625 
L 28.421875 72.90625 
L 38.28125 72.90625 
L 38.28125 8.296875 
L 54.390625 8.296875 
L 54.390625 0 
L 12.40625 0 
z
" id="DejaVuSans-31"/>
      </defs>
      <g transform="translate(10.8 77.061563)scale(0.1 -0.1)">
       <use xlink:href="#DejaVuSans-31"/>
       <use x="63.623047" xlink:href="#DejaVuSans-30"/>
      </g>
     </g>
    </g>
   </g>
   <g id="patch_19">
    <path d="M 30.525 481.30625 
L 30.525 14.3 
" style="fill:none;stroke:#000000;stroke-linecap:square;stroke-linejoin:miter;stroke-width:0.8;"/>
   </g>
   <g id="patch_20">
    <path d="M 705.7 481.30625 
L 705.7 14.3 
" style="fill:none;stroke:#000000;stroke-linecap:square;stroke-linejoin:miter;stroke-width:0.8;"/>
   </g>
   <g id="patch_21">
    <path d="M 30.525 481.30625 
L 705.7 481.30625 
" style="fill:none;stroke:#000000;stroke-linecap:square;stroke-linejoin:miter;stroke-width:0.8;"/>
   </g>
   <g id="patch_22">
    <path d="M 30.525 14.3 
L 705.7 14.3 
" style="fill:none;stroke:#000000;stroke-linecap:square;stroke-linejoin:miter;stroke-width:0.8;"/>
   </g>
   <g id="legend_1">
    <g id="patch_23">
     <path d="M 37.525 51.65625 
L 232.460938 51.65625 
Q 234.460938 51.65625 234.460938 49.65625 
L 234.460938 21.3 
Q 234.460938 19.3 232.460938 19.3 
L 37.525 19.3 
Q 35.525 19.3 35.525 21.3 
L 35.525 49.65625 
Q 35.525 51.65625 37.525 51.65625 
z
" style="fill:#ffffff;opacity:0.8;stroke:#cccccc;stroke-linejoin:miter;"/>
    </g>
    <g id="patch_24">
     <path d="M 39.525 30.898438 
L 59.525 30.898438 
L 59.525 23.898438 
L 39.525 23.898438 
z
" style="fill:#1f77b4;"/>
    </g>
    <g id="text_15">
     <!-- FirstLanguageNotEnglishPercent -->
     <defs>
      <path d="M 9.8125 72.90625 
L 51.703125 72.90625 
L 51.703125 64.59375 
L 19.671875 64.59375 
L 19.671875 43.109375 
L 48.578125 43.109375 
L 48.578125 34.8125 
L 19.671875 34.8125 
L 19.671875 0 
L 9.8125 0 
z
" id="DejaVuSans-46"/>
      <path d="M 9.8125 72.90625 
L 19.671875 72.90625 
L 19.671875 8.296875 
L 55.171875 8.296875 
L 55.171875 0 
L 9.8125 0 
z
" id="DejaVuSans-4c"/>
      <path d="M 9.8125 72.90625 
L 23.09375 72.90625 
L 55.421875 11.921875 
L 55.421875 72.90625 
L 64.984375 72.90625 
L 64.984375 0 
L 51.703125 0 
L 19.390625 60.984375 
L 19.390625 0 
L 9.8125 0 
z
" id="DejaVuSans-4e"/>
     </defs>
     <g transform="translate(67.525 30.898438)scale(0.1 -0.1)">
      <use xlink:href="#DejaVuSans-46"/>
      <use x="57.410156" xlink:href="#DejaVuSans-69"/>
      <use x="85.193359" xlink:href="#DejaVuSans-72"/>
      <use x="126.306641" xlink:href="#DejaVuSans-73"/>
      <use x="178.40625" xlink:href="#DejaVuSans-74"/>
      <use x="217.615234" xlink:href="#DejaVuSans-4c"/>
      <use x="273.328125" xlink:href="#DejaVuSans-61"/>
      <use x="334.607422" xlink:href="#DejaVuSans-6e"/>
      <use x="397.986328" xlink:href="#DejaVuSans-67"/>
      <use x="461.462891" xlink:href="#DejaVuSans-75"/>
      <use x="524.841797" xlink:href="#DejaVuSans-61"/>
      <use x="586.121094" xlink:href="#DejaVuSans-67"/>
      <use x="649.597656" xlink:href="#DejaVuSans-65"/>
      <use x="711.121094" xlink:href="#DejaVuSans-4e"/>
      <use x="785.925781" xlink:href="#DejaVuSans-6f"/>
      <use x="847.107422" xlink:href="#DejaVuSans-74"/>
      <use x="886.316406" xlink:href="#DejaVuSans-45"/>
      <use x="949.5" xlink:href="#DejaVuSans-6e"/>
      <use x="1012.878906" xlink:href="#DejaVuSans-67"/>
      <use x="1076.355469" xlink:href="#DejaVuSans-6c"/>
      <use x="1104.138672" xlink:href="#DejaVuSans-69"/>
      <use x="1131.921875" xlink:href="#DejaVuSans-73"/>
      <use x="1184.021484" xlink:href="#DejaVuSans-68"/>
      <use x="1247.400391" xlink:href="#DejaVuSans-50"/>
      <use x="1307.65625" xlink:href="#DejaVuSans-65"/>
      <use x="1369.179688" xlink:href="#DejaVuSans-72"/>
      <use x="1410.261719" xlink:href="#DejaVuSans-63"/>
      <use x="1465.242188" xlink:href="#DejaVuSans-65"/>
      <use x="1526.765625" xlink:href="#DejaVuSans-6e"/>
      <use x="1590.144531" xlink:href="#DejaVuSans-74"/>
     </g>
    </g>
    <g id="patch_25">
     <path d="M 39.525 45.576563 
L 59.525 45.576563 
L 59.525 38.576563 
L 39.525 38.576563 
z
" style="fill:#ff7f0e;"/>
    </g>
    <g id="text_16">
     <!-- EnglishLanguageLearnerPercent -->
     <g transform="translate(67.525 45.576563)scale(0.1 -0.1)">
      <use xlink:href="#DejaVuSans-45"/>
      <use x="63.183594" xlink:href="#DejaVuSans-6e"/>
      <use x="126.5625" xlink:href="#DejaVuSans-67"/>
      <use x="190.039062" xlink:href="#DejaVuSans-6c"/>
      <use x="217.822266" xlink:href="#DejaVuSans-69"/>
      <use x="245.605469" xlink:href="#DejaVuSans-73"/>
      <use x="297.705078" xlink:href="#DejaVuSans-68"/>
      <use x="361.083984" xlink:href="#DejaVuSans-4c"/>
      <use x="416.796875" xlink:href="#DejaVuSans-61"/>
      <use x="478.076172" xlink:href="#DejaVuSans-6e"/>
      <use x="541.455078" xlink:href="#DejaVuSans-67"/>
      <use x="604.931641" xlink:href="#DejaVuSans-75"/>
      <use x="668.310547" xlink:href="#DejaVuSans-61"/>
      <use x="729.589844" xlink:href="#DejaVuSans-67"/>
      <use x="793.066406" xlink:href="#DejaVuSans-65"/>
      <use x="854.589844" xlink:href="#DejaVuSans-4c"/>
      <use x="910.287109" xlink:href="#DejaVuSans-65"/>
      <use x="971.810547" xlink:href="#DejaVuSans-61"/>
      <use x="1033.089844" xlink:href="#DejaVuSans-72"/>
      <use x="1074.1875" xlink:href="#DejaVuSans-6e"/>
      <use x="1137.566406" xlink:href="#DejaVuSans-65"/>
      <use x="1199.089844" xlink:href="#DejaVuSans-72"/>
      <use x="1240.203125" xlink:href="#DejaVuSans-50"/>
      <use x="1300.458984" xlink:href="#DejaVuSans-65"/>
      <use x="1361.982422" xlink:href="#DejaVuSans-72"/>
      <use x="1403.064453" xlink:href="#DejaVuSans-63"/>
      <use x="1458.044922" xlink:href="#DejaVuSans-65"/>
      <use x="1519.568359" xlink:href="#DejaVuSans-6e"/>
      <use x="1582.947266" xlink:href="#DejaVuSans-74"/>
     </g>
    </g>
   </g>
  </g>
 </g>
 <defs>
  <clipPath id="p9f886c1ed8">
   <rect height="467.00625" width="675.175" x="30.525" y="14.3"/>
  </clipPath>
 </defs>
</svg>
