<?xml version="1.0" encoding="utf-8" standalone="no"?>
<!DOCTYPE svg PUBLIC "-//W3C//DTD SVG 1.1//EN"
  "http://www.w3.org/Graphics/SVG/1.1/DTD/svg11.dtd">
<!-- Created with matplotlib (http://matplotlib.org/) -->
<svg height="720pt" version="1.1" viewBox="0 0 720 720" width="720pt" xmlns="http://www.w3.org/2000/svg" xmlns:xlink="http://www.w3.org/1999/xlink">
 <defs>
  <style type="text/css">
*{stroke-linecap:butt;stroke-linejoin:round;}
  </style>
 </defs>
 <g id="figure_1">
  <g id="patch_1">
   <path d="M 0 720 
L 720 720 
L 720 0 
L 0 0 
z
" style="fill:#ffffff;"/>
  </g>
  <g id="axes_1">
   <g id="patch_2">
    <path d="M 36.8875 454.170312 
L 705.7 454.170312 
L 705.7 14.3 
L 36.8875 14.3 
z
" style="fill:#ffffff;"/>
   </g>
   <g id="patch_3">
    <path clip-path="url(#pedd5128e3c)" d="M 46.722978 454.170312 
L 66.393934 454.170312 
L 66.393934 420.23746 
L 46.722978 420.23746 
z
" style="fill:#1f77b4;"/>
   </g>
   <g id="patch_4">
    <path clip-path="url(#pedd5128e3c)" d="M 86.06489 454.170312 
L 105.735846 454.170312 
L 105.735846 421.913156 
L 86.06489 421.913156 
z
" style="fill:#1f77b4;"/>
   </g>
   <g id="patch_5">
    <path clip-path="url(#pedd5128e3c)" d="M 125.406801 454.170312 
L 145.077757 454.170312 
L 145.077757 454.170312 
L 125.406801 454.170312 
z
" style="fill:#1f77b4;"/>
   </g>
   <g id="patch_6">
    <path clip-path="url(#pedd5128e3c)" d="M 164.748713 454.170312 
L 184.419669 454.170312 
L 184.419669 409.764357 
L 164.748713 409.764357 
z
" style="fill:#1f77b4;"/>
   </g>
   <g id="patch_7">
    <path clip-path="url(#pedd5128e3c)" d="M 204.090625 454.170312 
L 223.761581 454.170312 
L 223.761581 443.69721 
L 204.090625 443.69721 
z
" style="fill:#1f77b4;"/>
   </g>
   <g id="patch_8">
    <path clip-path="url(#pedd5128e3c)" d="M 243.432537 454.170312 
L 263.103493 454.170312 
L 263.103493 416.467143 
L 243.432537 416.467143 
z
" style="fill:#1f77b4;"/>
   </g>
   <g id="patch_9">
    <path clip-path="url(#pedd5128e3c)" d="M 282.774449 454.170312 
L 302.445404 454.170312 
L 302.445404 429.872714 
L 282.774449 429.872714 
z
" style="fill:#1f77b4;"/>
   </g>
   <g id="patch_10">
    <path clip-path="url(#pedd5128e3c)" d="M 322.11636 454.170312 
L 341.787316 454.170312 
L 341.787316 415.210371 
L 322.11636 415.210371 
z
" style="fill:#1f77b4;"/>
   </g>
   <g id="patch_11">
    <path clip-path="url(#pedd5128e3c)" d="M 361.458272 454.170312 
L 381.129228 454.170312 
L 381.129228 416.886067 
L 361.458272 416.886067 
z
" style="fill:#1f77b4;"/>
   </g>
   <g id="patch_12">
    <path clip-path="url(#pedd5128e3c)" d="M 400.800184 454.170312 
L 420.47114 454.170312 
L 420.47114 418.561763 
L 400.800184 418.561763 
z
" style="fill:#1f77b4;"/>
   </g>
   <g id="patch_13">
    <path clip-path="url(#pedd5128e3c)" d="M 440.142096 454.170312 
L 459.813051 454.170312 
L 459.813051 427.35917 
L 440.142096 427.35917 
z
" style="fill:#1f77b4;"/>
   </g>
   <g id="patch_14">
    <path clip-path="url(#pedd5128e3c)" d="M 479.484007 454.170312 
L 499.154963 454.170312 
L 499.154963 410.602205 
L 479.484007 410.602205 
z
" style="fill:#1f77b4;"/>
   </g>
   <g id="patch_15">
    <path clip-path="url(#pedd5128e3c)" d="M 518.825919 454.170312 
L 538.496875 454.170312 
L 538.496875 399.291254 
L 518.825919 399.291254 
z
" style="fill:#1f77b4;"/>
   </g>
   <g id="patch_16">
    <path clip-path="url(#pedd5128e3c)" d="M 558.167831 454.170312 
L 577.838787 454.170312 
L 577.838787 431.967335 
L 558.167831 431.967335 
z
" style="fill:#1f77b4;"/>
   </g>
   <g id="patch_17">
    <path clip-path="url(#pedd5128e3c)" d="M 597.509743 454.170312 
L 617.180699 454.170312 
L 617.180699 400.548027 
L 597.509743 400.548027 
z
" style="fill:#1f77b4;"/>
   </g>
   <g id="patch_18">
    <path clip-path="url(#pedd5128e3c)" d="M 636.851654 454.170312 
L 656.52261 454.170312 
L 656.52261 420.23746 
L 636.851654 420.23746 
z
" style="fill:#1f77b4;"/>
   </g>
   <g id="patch_19">
    <path clip-path="url(#pedd5128e3c)" d="M 676.193566 454.170312 
L 695.864522 454.170312 
L 695.864522 434.061955 
L 676.193566 434.061955 
z
" style="fill:#1f77b4;"/>
   </g>
   <g id="patch_20">
    <path clip-path="url(#pedd5128e3c)" d="M 46.722978 420.23746 
L 66.393934 420.23746 
L 66.393934 397.615558 
L 46.722978 397.615558 
z
" style="fill:#ff7f0e;"/>
   </g>
   <g id="patch_21">
    <path clip-path="url(#pedd5128e3c)" d="M 86.06489 421.913156 
L 105.735846 421.913156 
L 105.735846 404.318344 
L 86.06489 404.318344 
z
" style="fill:#ff7f0e;"/>
   </g>
   <g id="patch_22">
    <path clip-path="url(#pedd5128e3c)" d="M 125.406801 454.170312 
L 145.077757 454.170312 
L 145.077757 454.170312 
L 125.406801 454.170312 
z
" style="fill:#ff7f0e;"/>
   </g>
   <g id="patch_23">
    <path clip-path="url(#pedd5128e3c)" d="M 164.748713 409.764357 
L 184.419669 409.764357 
L 184.419669 390.493848 
L 164.748713 390.493848 
z
" style="fill:#ff7f0e;"/>
   </g>
   <g id="patch_24">
    <path clip-path="url(#pedd5128e3c)" d="M 204.090625 443.69721 
L 223.761581 443.69721 
L 223.761581 441.183665 
L 204.090625 441.183665 
z
" style="fill:#ff7f0e;"/>
   </g>
   <g id="patch_25">
    <path clip-path="url(#pedd5128e3c)" d="M 243.432537 416.467143 
L 263.103493 416.467143 
L 263.103493 411.858978 
L 243.432537 411.858978 
z
" style="fill:#ff7f0e;"/>
   </g>
   <g id="patch_26">
    <path clip-path="url(#pedd5128e3c)" d="M 282.774449 429.872714 
L 302.445404 429.872714 
L 302.445404 421.075308 
L 282.774449 421.075308 
z
" style="fill:#ff7f0e;"/>
   </g>
   <g id="patch_27">
    <path clip-path="url(#pedd5128e3c)" d="M 322.11636 415.210371 
L 341.787316 415.210371 
L 341.787316 394.683089 
L 322.11636 394.683089 
z
" style="fill:#ff7f0e;"/>
   </g>
   <g id="patch_28">
    <path clip-path="url(#pedd5128e3c)" d="M 361.458272 416.886067 
L 381.129228 416.886067 
L 381.129228 397.196634 
L 361.458272 397.196634 
z
" style="fill:#ff7f0e;"/>
   </g>
   <g id="patch_29">
    <path clip-path="url(#pedd5128e3c)" d="M 400.800184 418.561763 
L 420.47114 418.561763 
L 420.47114 397.196634 
L 400.800184 397.196634 
z
" style="fill:#ff7f0e;"/>
   </g>
   <g id="patch_30">
    <path clip-path="url(#pedd5128e3c)" d="M 440.142096 427.35917 
L 459.813051 427.35917 
L 459.813051 414.372522 
L 440.142096 414.372522 
z
" style="fill:#ff7f0e;"/>
   </g>
   <g id="patch_31">
    <path clip-path="url(#pedd5128e3c)" d="M 479.484007 410.602205 
L 499.154963 410.602205 
L 499.154963 403.89942 
L 479.484007 403.89942 
z
" style="fill:#ff7f0e;"/>
   </g>
   <g id="patch_32">
    <path clip-path="url(#pedd5128e3c)" d="M 518.825919 399.291254 
L 538.496875 399.291254 
L 538.496875 390.493848 
L 518.825919 390.493848 
z
" style="fill:#ff7f0e;"/>
   </g>
   <g id="patch_33">
    <path clip-path="url(#pedd5128e3c)" d="M 558.167831 431.967335 
L 577.838787 431.967335 
L 577.838787 411.858978 
L 558.167831 411.858978 
z
" style="fill:#ff7f0e;"/>
   </g>
   <g id="patch_34">
    <path clip-path="url(#pedd5128e3c)" d="M 597.509743 454.170312 
L 617.180699 454.170312 
L 617.180699 454.170312 
L 597.509743 454.170312 
z
" style="fill:#ff7f0e;"/>
   </g>
   <g id="patch_35">
    <path clip-path="url(#pedd5128e3c)" d="M 636.851654 420.23746 
L 656.52261 420.23746 
L 656.52261 400.548027 
L 636.851654 400.548027 
z
" style="fill:#ff7f0e;"/>
   </g>
   <g id="patch_36">
    <path clip-path="url(#pedd5128e3c)" d="M 676.193566 434.061955 
L 695.864522 434.061955 
L 695.864522 412.696826 
L 676.193566 412.696826 
z
" style="fill:#ff7f0e;"/>
   </g>
   <g id="patch_37">
    <path clip-path="url(#pedd5128e3c)" d="M 46.722978 397.615558 
L 66.393934 397.615558 
L 66.393934 154.639576 
L 46.722978 154.639576 
z
" style="fill:#2ca02c;"/>
   </g>
   <g id="patch_38">
    <path clip-path="url(#pedd5128e3c)" d="M 86.06489 404.318344 
L 105.735846 404.318344 
L 105.735846 211.613254 
L 86.06489 211.613254 
z
" style="fill:#2ca02c;"/>
   </g>
   <g id="patch_39">
    <path clip-path="url(#pedd5128e3c)" d="M 125.406801 454.170312 
L 145.077757 454.170312 
L 145.077757 35.246205 
L 125.406801 35.246205 
z
" style="fill:#2ca02c;"/>
   </g>
   <g id="patch_40">
    <path clip-path="url(#pedd5128e3c)" d="M 164.748713 390.493848 
L 184.419669 390.493848 
L 184.419669 217.897116 
L 164.748713 217.897116 
z
" style="fill:#2ca02c;"/>
   </g>
   <g id="patch_41">
    <path clip-path="url(#pedd5128e3c)" d="M 204.090625 441.183665 
L 223.761581 441.183665 
L 223.761581 101.855138 
L 204.090625 101.855138 
z
" style="fill:#2ca02c;"/>
   </g>
   <g id="patch_42">
    <path clip-path="url(#pedd5128e3c)" d="M 243.432537 411.858978 
L 263.103493 411.858978 
L 263.103493 200.302304 
L 243.432537 200.302304 
z
" style="fill:#2ca02c;"/>
   </g>
   <g id="patch_43">
    <path clip-path="url(#pedd5128e3c)" d="M 282.774449 421.075308 
L 302.445404 421.075308 
L 302.445404 211.613254 
L 282.774449 211.613254 
z
" style="fill:#2ca02c;"/>
   </g>
   <g id="patch_44">
    <path clip-path="url(#pedd5128e3c)" d="M 322.11636 394.683089 
L 341.787316 394.683089 
L 341.787316 245.127183 
L 322.11636 245.127183 
z
" style="fill:#2ca02c;"/>
   </g>
   <g id="patch_45">
    <path clip-path="url(#pedd5128e3c)" d="M 361.458272 397.196634 
L 381.129228 397.196634 
L 381.129228 149.612487 
L 361.458272 149.612487 
z
" style="fill:#2ca02c;"/>
   </g>
   <g id="patch_46">
    <path clip-path="url(#pedd5128e3c)" d="M 400.800184 397.196634 
L 420.47114 397.196634 
L 420.47114 157.990969 
L 400.800184 157.990969 
z
" style="fill:#2ca02c;"/>
   </g>
   <g id="patch_47">
    <path clip-path="url(#pedd5128e3c)" d="M 440.142096 414.372522 
L 459.813051 414.372522 
L 459.813051 162.599134 
L 440.142096 162.599134 
z
" style="fill:#2ca02c;"/>
   </g>
   <g id="patch_48">
    <path clip-path="url(#pedd5128e3c)" d="M 479.484007 403.89942 
L 499.154963 403.89942 
L 499.154963 171.39654 
L 479.484007 171.39654 
z
" style="fill:#2ca02c;"/>
   </g>
   <g id="patch_49">
    <path clip-path="url(#pedd5128e3c)" d="M 518.825919 390.493848 
L 538.496875 390.493848 
L 538.496875 183.126415 
L 518.825919 183.126415 
z
" style="fill:#2ca02c;"/>
   </g>
   <g id="patch_50">
    <path clip-path="url(#pedd5128e3c)" d="M 558.167831 411.858978 
L 577.838787 411.858978 
L 577.838787 155.0585 
L 558.167831 155.0585 
z
" style="fill:#2ca02c;"/>
   </g>
   <g id="patch_51">
    <path clip-path="url(#pedd5128e3c)" d="M 597.509743 400.548027 
L 617.180699 400.548027 
L 617.180699 185.63996 
L 597.509743 185.63996 
z
" style="fill:#2ca02c;"/>
   </g>
   <g id="patch_52">
    <path clip-path="url(#pedd5128e3c)" d="M 636.851654 400.548027 
L 656.52261 400.548027 
L 656.52261 210.775406 
L 636.851654 210.775406 
z
" style="fill:#2ca02c;"/>
   </g>
   <g id="patch_53">
    <path clip-path="url(#pedd5128e3c)" d="M 676.193566 412.696826 
L 695.864522 412.696826 
L 695.864522 183.545339 
L 676.193566 183.545339 
z
" style="fill:#2ca02c;"/>
   </g>
   <g id="patch_54">
    <path clip-path="url(#pedd5128e3c)" d="M 46.722978 154.639576 
L 66.393934 154.639576 
L 66.393934 55.354562 
L 46.722978 55.354562 
z
" style="fill:#d62728;"/>
   </g>
   <g id="patch_55">
    <path clip-path="url(#pedd5128e3c)" d="M 86.06489 211.613254 
L 105.735846 211.613254 
L 105.735846 78.395388 
L 86.06489 78.395388 
z
" style="fill:#d62728;"/>
   </g>
   <g id="patch_56">
    <path clip-path="url(#pedd5128e3c)" d="M 125.406801 454.170312 
L 145.077757 454.170312 
L 145.077757 454.170312 
L 125.406801 454.170312 
z
" style="fill:#d62728;"/>
   </g>
   <g id="patch_57">
    <path clip-path="url(#pedd5128e3c)" d="M 164.748713 217.897116 
L 184.419669 217.897116 
L 184.419669 80.071085 
L 164.748713 80.071085 
z
" style="fill:#d62728;"/>
   </g>
   <g id="patch_58">
    <path clip-path="url(#pedd5128e3c)" d="M 204.090625 101.855138 
L 223.761581 101.855138 
L 223.761581 72.530451 
L 204.090625 72.530451 
z
" style="fill:#d62728;"/>
   </g>
   <g id="patch_59">
    <path clip-path="url(#pedd5128e3c)" d="M 243.432537 200.302304 
L 263.103493 200.302304 
L 263.103493 76.719692 
L 243.432537 76.719692 
z
" style="fill:#d62728;"/>
   </g>
   <g id="patch_60">
    <path clip-path="url(#pedd5128e3c)" d="M 282.774449 211.613254 
L 302.445404 211.613254 
L 302.445404 68.760134 
L 282.774449 68.760134 
z
" style="fill:#d62728;"/>
   </g>
   <g id="patch_61">
    <path clip-path="url(#pedd5128e3c)" d="M 322.11636 245.127183 
L 341.787316 245.127183 
L 341.787316 88.030643 
L 322.11636 88.030643 
z
" style="fill:#d62728;"/>
   </g>
   <g id="patch_62">
    <path clip-path="url(#pedd5128e3c)" d="M 361.458272 149.612487 
L 381.129228 149.612487 
L 381.129228 63.733045 
L 361.458272 63.733045 
z
" style="fill:#d62728;"/>
   </g>
   <g id="patch_63">
    <path clip-path="url(#pedd5128e3c)" d="M 400.800184 157.990969 
L 420.47114 157.990969 
L 420.47114 61.638424 
L 400.800184 61.638424 
z
" style="fill:#d62728;"/>
   </g>
   <g id="patch_64">
    <path clip-path="url(#pedd5128e3c)" d="M 440.142096 162.599134 
L 459.813051 162.599134 
L 459.813051 80.490009 
L 440.142096 80.490009 
z
" style="fill:#d62728;"/>
   </g>
   <g id="patch_65">
    <path clip-path="url(#pedd5128e3c)" d="M 479.484007 171.39654 
L 499.154963 171.39654 
L 499.154963 65.408741 
L 479.484007 65.408741 
z
" style="fill:#d62728;"/>
   </g>
   <g id="patch_66">
    <path clip-path="url(#pedd5128e3c)" d="M 518.825919 183.126415 
L 538.496875 183.126415 
L 538.496875 92.638808 
L 518.825919 92.638808 
z
" style="fill:#d62728;"/>
   </g>
   <g id="patch_67">
    <path clip-path="url(#pedd5128e3c)" d="M 558.167831 155.0585 
L 577.838787 155.0585 
L 577.838787 75.46292 
L 558.167831 75.46292 
z
" style="fill:#d62728;"/>
   </g>
   <g id="patch_68">
    <path clip-path="url(#pedd5128e3c)" d="M 597.509743 185.63996 
L 617.180699 185.63996 
L 617.180699 88.868491 
L 597.509743 88.868491 
z
" style="fill:#d62728;"/>
   </g>
   <g id="patch_69">
    <path clip-path="url(#pedd5128e3c)" d="M 636.851654 210.775406 
L 656.52261 210.775406 
L 656.52261 70.854754 
L 636.851654 70.854754 
z
" style="fill:#d62728;"/>
   </g>
   <g id="patch_70">
    <path clip-path="url(#pedd5128e3c)" d="M 676.193566 183.545339 
L 695.864522 183.545339 
L 695.864522 76.300768 
L 676.193566 76.300768 
z
" style="fill:#d62728;"/>
   </g>
   <g id="matplotlib.axis_1">
    <g id="xtick_1">
     <g id="line2d_1">
      <defs>
       <path d="M 0 0 
L 0 3.5 
" id="m7c41e61226" style="stroke:#000000;stroke-width:0.8;"/>
      </defs>
      <g>
       <use style="stroke:#000000;stroke-width:0.8;" x="56.558456" xlink:href="#m7c41e61226" y="454.170312"/>
      </g>
     </g>
     <g id="text_1">
      <!-- Fall River - B M C Durfee High -->
      <defs>
       <path d="M 9.8125 72.90625 
L 51.703125 72.90625 
L 51.703125 64.59375 
L 19.671875 64.59375 
L 19.671875 43.109375 
L 48.578125 43.109375 
L 48.578125 34.8125 
L 19.671875 34.8125 
L 19.671875 0 
L 9.8125 0 
z
" id="DejaVuSans-46"/>
       <path d="M 34.28125 27.484375 
Q 23.390625 27.484375 19.1875 25 
Q 14.984375 22.515625 14.984375 16.5 
Q 14.984375 11.71875 18.140625 8.90625 
Q 21.296875 6.109375 26.703125 6.109375 
Q 34.1875 6.109375 38.703125 11.40625 
Q 43.21875 16.703125 43.21875 25.484375 
L 43.21875 27.484375 
z
M 52.203125 31.203125 
L 52.203125 0 
L 43.21875 0 
L 43.21875 8.296875 
Q 40.140625 3.328125 35.546875 0.953125 
Q 30.953125 -1.421875 24.3125 -1.421875 
Q 15.921875 -1.421875 10.953125 3.296875 
Q 6 8.015625 6 15.921875 
Q 6 25.140625 12.171875 29.828125 
Q 18.359375 34.515625 30.609375 34.515625 
L 43.21875 34.515625 
L 43.21875 35.40625 
Q 43.21875 41.609375 39.140625 45 
Q 35.0625 48.390625 27.6875 48.390625 
Q 23 48.390625 18.546875 47.265625 
Q 14.109375 46.140625 10.015625 43.890625 
L 10.015625 52.203125 
Q 14.9375 54.109375 19.578125 55.046875 
Q 24.21875 56 28.609375 56 
Q 40.484375 56 46.34375 49.84375 
Q 52.203125 43.703125 52.203125 31.203125 
z
" id="DejaVuSans-61"/>
       <path d="M 9.421875 75.984375 
L 18.40625 75.984375 
L 18.40625 0 
L 9.421875 0 
z
" id="DejaVuSans-6c"/>
       <path id="DejaVuSans-20"/>
       <path d="M 44.390625 34.1875 
Q 47.5625 33.109375 50.5625 29.59375 
Q 53.5625 26.078125 56.59375 19.921875 
L 66.609375 0 
L 56 0 
L 46.6875 18.703125 
Q 43.0625 26.03125 39.671875 28.421875 
Q 36.28125 30.8125 30.421875 30.8125 
L 19.671875 30.8125 
L 19.671875 0 
L 9.8125 0 
L 9.8125 72.90625 
L 32.078125 72.90625 
Q 44.578125 72.90625 50.734375 67.671875 
Q 56.890625 62.453125 56.890625 51.90625 
Q 56.890625 45.015625 53.6875 40.46875 
Q 50.484375 35.9375 44.390625 34.1875 
z
M 19.671875 64.796875 
L 19.671875 38.921875 
L 32.078125 38.921875 
Q 39.203125 38.921875 42.84375 42.21875 
Q 46.484375 45.515625 46.484375 51.90625 
Q 46.484375 58.296875 42.84375 61.546875 
Q 39.203125 64.796875 32.078125 64.796875 
z
" id="DejaVuSans-52"/>
       <path d="M 9.421875 54.6875 
L 18.40625 54.6875 
L 18.40625 0 
L 9.421875 0 
z
M 9.421875 75.984375 
L 18.40625 75.984375 
L 18.40625 64.59375 
L 9.421875 64.59375 
z
" id="DejaVuSans-69"/>
       <path d="M 2.984375 54.6875 
L 12.5 54.6875 
L 29.59375 8.796875 
L 46.6875 54.6875 
L 56.203125 54.6875 
L 35.6875 0 
L 23.484375 0 
z
" id="DejaVuSans-76"/>
       <path d="M 56.203125 29.59375 
L 56.203125 25.203125 
L 14.890625 25.203125 
Q 15.484375 15.921875 20.484375 11.0625 
Q 25.484375 6.203125 34.421875 6.203125 
Q 39.59375 6.203125 44.453125 7.46875 
Q 49.3125 8.734375 54.109375 11.28125 
L 54.109375 2.78125 
Q 49.265625 0.734375 44.1875 -0.34375 
Q 39.109375 -1.421875 33.890625 -1.421875 
Q 20.796875 -1.421875 13.15625 6.1875 
Q 5.515625 13.8125 5.515625 26.8125 
Q 5.515625 40.234375 12.765625 48.109375 
Q 20.015625 56 32.328125 56 
Q 43.359375 56 49.78125 48.890625 
Q 56.203125 41.796875 56.203125 29.59375 
z
M 47.21875 32.234375 
Q 47.125 39.59375 43.09375 43.984375 
Q 39.0625 48.390625 32.421875 48.390625 
Q 24.90625 48.390625 20.390625 44.140625 
Q 15.875 39.890625 15.1875 32.171875 
z
" id="DejaVuSans-65"/>
       <path d="M 41.109375 46.296875 
Q 39.59375 47.171875 37.8125 47.578125 
Q 36.03125 48 33.890625 48 
Q 26.265625 48 22.1875 43.046875 
Q 18.109375 38.09375 18.109375 28.8125 
L 18.109375 0 
L 9.078125 0 
L 9.078125 54.6875 
L 18.109375 54.6875 
L 18.109375 46.1875 
Q 20.953125 51.171875 25.484375 53.578125 
Q 30.03125 56 36.53125 56 
Q 37.453125 56 38.578125 55.875 
Q 39.703125 55.765625 41.0625 55.515625 
z
" id="DejaVuSans-72"/>
       <path d="M 4.890625 31.390625 
L 31.203125 31.390625 
L 31.203125 23.390625 
L 4.890625 23.390625 
z
" id="DejaVuSans-2d"/>
       <path d="M 19.671875 34.8125 
L 19.671875 8.109375 
L 35.5 8.109375 
Q 43.453125 8.109375 47.28125 11.40625 
Q 51.125 14.703125 51.125 21.484375 
Q 51.125 28.328125 47.28125 31.5625 
Q 43.453125 34.8125 35.5 34.8125 
z
M 19.671875 64.796875 
L 19.671875 42.828125 
L 34.28125 42.828125 
Q 41.5 42.828125 45.03125 45.53125 
Q 48.578125 48.25 48.578125 53.8125 
Q 48.578125 59.328125 45.03125 62.0625 
Q 41.5 64.796875 34.28125 64.796875 
z
M 9.8125 72.90625 
L 35.015625 72.90625 
Q 46.296875 72.90625 52.390625 68.21875 
Q 58.5 63.53125 58.5 54.890625 
Q 58.5 48.1875 55.375 44.234375 
Q 52.25 40.28125 46.1875 39.3125 
Q 53.46875 37.75 57.5 32.78125 
Q 61.53125 27.828125 61.53125 20.40625 
Q 61.53125 10.640625 54.890625 5.3125 
Q 48.25 0 35.984375 0 
L 9.8125 0 
z
" id="DejaVuSans-42"/>
       <path d="M 9.8125 72.90625 
L 24.515625 72.90625 
L 43.109375 23.296875 
L 61.8125 72.90625 
L 76.515625 72.90625 
L 76.515625 0 
L 66.890625 0 
L 66.890625 64.015625 
L 48.09375 14.015625 
L 38.1875 14.015625 
L 19.390625 64.015625 
L 19.390625 0 
L 9.8125 0 
z
" id="DejaVuSans-4d"/>
       <path d="M 64.40625 67.28125 
L 64.40625 56.890625 
Q 59.421875 61.53125 53.78125 63.8125 
Q 48.140625 66.109375 41.796875 66.109375 
Q 29.296875 66.109375 22.65625 58.46875 
Q 16.015625 50.828125 16.015625 36.375 
Q 16.015625 21.96875 22.65625 14.328125 
Q 29.296875 6.6875 41.796875 6.6875 
Q 48.140625 6.6875 53.78125 8.984375 
Q 59.421875 11.28125 64.40625 15.921875 
L 64.40625 5.609375 
Q 59.234375 2.09375 53.4375 0.328125 
Q 47.65625 -1.421875 41.21875 -1.421875 
Q 24.65625 -1.421875 15.125 8.703125 
Q 5.609375 18.84375 5.609375 36.375 
Q 5.609375 53.953125 15.125 64.078125 
Q 24.65625 74.21875 41.21875 74.21875 
Q 47.75 74.21875 53.53125 72.484375 
Q 59.328125 70.75 64.40625 67.28125 
z
" id="DejaVuSans-43"/>
       <path d="M 19.671875 64.796875 
L 19.671875 8.109375 
L 31.59375 8.109375 
Q 46.6875 8.109375 53.6875 14.9375 
Q 60.6875 21.78125 60.6875 36.53125 
Q 60.6875 51.171875 53.6875 57.984375 
Q 46.6875 64.796875 31.59375 64.796875 
z
M 9.8125 72.90625 
L 30.078125 72.90625 
Q 51.265625 72.90625 61.171875 64.09375 
Q 71.09375 55.28125 71.09375 36.53125 
Q 71.09375 17.671875 61.125 8.828125 
Q 51.171875 0 30.078125 0 
L 9.8125 0 
z
" id="DejaVuSans-44"/>
       <path d="M 8.5 21.578125 
L 8.5 54.6875 
L 17.484375 54.6875 
L 17.484375 21.921875 
Q 17.484375 14.15625 20.5 10.265625 
Q 23.53125 6.390625 29.59375 6.390625 
Q 36.859375 6.390625 41.078125 11.03125 
Q 45.3125 15.671875 45.3125 23.6875 
L 45.3125 54.6875 
L 54.296875 54.6875 
L 54.296875 0 
L 45.3125 0 
L 45.3125 8.40625 
Q 42.046875 3.421875 37.71875 1 
Q 33.40625 -1.421875 27.6875 -1.421875 
Q 18.265625 -1.421875 13.375 4.4375 
Q 8.5 10.296875 8.5 21.578125 
z
M 31.109375 56 
z
" id="DejaVuSans-75"/>
       <path d="M 37.109375 75.984375 
L 37.109375 68.5 
L 28.515625 68.5 
Q 23.6875 68.5 21.796875 66.546875 
Q 19.921875 64.59375 19.921875 59.515625 
L 19.921875 54.6875 
L 34.71875 54.6875 
L 34.71875 47.703125 
L 19.921875 47.703125 
L 19.921875 0 
L 10.890625 0 
L 10.890625 47.703125 
L 2.296875 47.703125 
L 2.296875 54.6875 
L 10.890625 54.6875 
L 10.890625 58.5 
Q 10.890625 67.625 15.140625 71.796875 
Q 19.390625 75.984375 28.609375 75.984375 
z
" id="DejaVuSans-66"/>
       <path d="M 9.8125 72.90625 
L 19.671875 72.90625 
L 19.671875 43.015625 
L 55.515625 43.015625 
L 55.515625 72.90625 
L 65.375 72.90625 
L 65.375 0 
L 55.515625 0 
L 55.515625 34.71875 
L 19.671875 34.71875 
L 19.671875 0 
L 9.8125 0 
z
" id="DejaVuSans-48"/>
       <path d="M 45.40625 27.984375 
Q 45.40625 37.75 41.375 43.109375 
Q 37.359375 48.484375 30.078125 48.484375 
Q 22.859375 48.484375 18.828125 43.109375 
Q 14.796875 37.75 14.796875 27.984375 
Q 14.796875 18.265625 18.828125 12.890625 
Q 22.859375 7.515625 30.078125 7.515625 
Q 37.359375 7.515625 41.375 12.890625 
Q 45.40625 18.265625 45.40625 27.984375 
z
M 54.390625 6.78125 
Q 54.390625 -7.171875 48.1875 -13.984375 
Q 42 -20.796875 29.203125 -20.796875 
Q 24.46875 -20.796875 20.265625 -20.09375 
Q 16.0625 -19.390625 12.109375 -17.921875 
L 12.109375 -9.1875 
Q 16.0625 -11.328125 19.921875 -12.34375 
Q 23.78125 -13.375 27.78125 -13.375 
Q 36.625 -13.375 41.015625 -8.765625 
Q 45.40625 -4.15625 45.40625 5.171875 
L 45.40625 9.625 
Q 42.625 4.78125 38.28125 2.390625 
Q 33.9375 0 27.875 0 
Q 17.828125 0 11.671875 7.65625 
Q 5.515625 15.328125 5.515625 27.984375 
Q 5.515625 40.671875 11.671875 48.328125 
Q 17.828125 56 27.875 56 
Q 33.9375 56 38.28125 53.609375 
Q 42.625 51.21875 45.40625 46.390625 
L 45.40625 54.6875 
L 54.390625 54.6875 
z
" id="DejaVuSans-67"/>
       <path d="M 54.890625 33.015625 
L 54.890625 0 
L 45.90625 0 
L 45.90625 32.71875 
Q 45.90625 40.484375 42.875 44.328125 
Q 39.84375 48.1875 33.796875 48.1875 
Q 26.515625 48.1875 22.3125 43.546875 
Q 18.109375 38.921875 18.109375 30.90625 
L 18.109375 0 
L 9.078125 0 
L 9.078125 75.984375 
L 18.109375 75.984375 
L 18.109375 46.1875 
Q 21.34375 51.125 25.703125 53.5625 
Q 30.078125 56 35.796875 56 
Q 45.21875 56 50.046875 50.171875 
Q 54.890625 44.34375 54.890625 33.015625 
z
" id="DejaVuSans-68"/>
      </defs>
      <g transform="translate(59.317831 609.7875)rotate(-90)scale(0.1 -0.1)">
       <use xlink:href="#DejaVuSans-46"/>
       <use x="57.378906" xlink:href="#DejaVuSans-61"/>
       <use x="118.658203" xlink:href="#DejaVuSans-6c"/>
       <use x="146.441406" xlink:href="#DejaVuSans-6c"/>
       <use x="174.224609" xlink:href="#DejaVuSans-20"/>
       <use x="206.011719" xlink:href="#DejaVuSans-52"/>
       <use x="275.494141" xlink:href="#DejaVuSans-69"/>
       <use x="303.277344" xlink:href="#DejaVuSans-76"/>
       <use x="362.457031" xlink:href="#DejaVuSans-65"/>
       <use x="423.980469" xlink:href="#DejaVuSans-72"/>
       <use x="465.09375" xlink:href="#DejaVuSans-20"/>
       <use x="496.880859" xlink:href="#DejaVuSans-2d"/>
       <use x="532.964844" xlink:href="#DejaVuSans-20"/>
       <use x="564.751953" xlink:href="#DejaVuSans-42"/>
       <use x="633.355469" xlink:href="#DejaVuSans-20"/>
       <use x="665.142578" xlink:href="#DejaVuSans-4d"/>
       <use x="751.421875" xlink:href="#DejaVuSans-20"/>
       <use x="783.208984" xlink:href="#DejaVuSans-43"/>
       <use x="853.033203" xlink:href="#DejaVuSans-20"/>
       <use x="884.820312" xlink:href="#DejaVuSans-44"/>
       <use x="961.822266" xlink:href="#DejaVuSans-75"/>
       <use x="1025.201172" xlink:href="#DejaVuSans-72"/>
       <use x="1066.314453" xlink:href="#DejaVuSans-66"/>
       <use x="1101.519531" xlink:href="#DejaVuSans-65"/>
       <use x="1163.042969" xlink:href="#DejaVuSans-65"/>
       <use x="1224.566406" xlink:href="#DejaVuSans-20"/>
       <use x="1256.353516" xlink:href="#DejaVuSans-48"/>
       <use x="1331.548828" xlink:href="#DejaVuSans-69"/>
       <use x="1359.332031" xlink:href="#DejaVuSans-67"/>
       <use x="1422.808594" xlink:href="#DejaVuSans-68"/>
      </g>
     </g>
    </g>
    <g id="xtick_2">
     <g id="line2d_2">
      <g>
       <use style="stroke:#000000;stroke-width:0.8;" x="95.900368" xlink:href="#m7c41e61226" y="454.170312"/>
      </g>
     </g>
     <g id="text_2">
      <!-- Fall River - Carlton M. Viveiros Elementary School -->
      <defs>
       <path d="M 18.3125 70.21875 
L 18.3125 54.6875 
L 36.8125 54.6875 
L 36.8125 47.703125 
L 18.3125 47.703125 
L 18.3125 18.015625 
Q 18.3125 11.328125 20.140625 9.421875 
Q 21.96875 7.515625 27.59375 7.515625 
L 36.8125 7.515625 
L 36.8125 0 
L 27.59375 0 
Q 17.1875 0 13.234375 3.875 
Q 9.28125 7.765625 9.28125 18.015625 
L 9.28125 47.703125 
L 2.6875 47.703125 
L 2.6875 54.6875 
L 9.28125 54.6875 
L 9.28125 70.21875 
z
" id="DejaVuSans-74"/>
       <path d="M 30.609375 48.390625 
Q 23.390625 48.390625 19.1875 42.75 
Q 14.984375 37.109375 14.984375 27.296875 
Q 14.984375 17.484375 19.15625 11.84375 
Q 23.34375 6.203125 30.609375 6.203125 
Q 37.796875 6.203125 41.984375 11.859375 
Q 46.1875 17.53125 46.1875 27.296875 
Q 46.1875 37.015625 41.984375 42.703125 
Q 37.796875 48.390625 30.609375 48.390625 
z
M 30.609375 56 
Q 42.328125 56 49.015625 48.375 
Q 55.71875 40.765625 55.71875 27.296875 
Q 55.71875 13.875 49.015625 6.21875 
Q 42.328125 -1.421875 30.609375 -1.421875 
Q 18.84375 -1.421875 12.171875 6.21875 
Q 5.515625 13.875 5.515625 27.296875 
Q 5.515625 40.765625 12.171875 48.375 
Q 18.84375 56 30.609375 56 
z
" id="DejaVuSans-6f"/>
       <path d="M 54.890625 33.015625 
L 54.890625 0 
L 45.90625 0 
L 45.90625 32.71875 
Q 45.90625 40.484375 42.875 44.328125 
Q 39.84375 48.1875 33.796875 48.1875 
Q 26.515625 48.1875 22.3125 43.546875 
Q 18.109375 38.921875 18.109375 30.90625 
L 18.109375 0 
L 9.078125 0 
L 9.078125 54.6875 
L 18.109375 54.6875 
L 18.109375 46.1875 
Q 21.34375 51.125 25.703125 53.5625 
Q 30.078125 56 35.796875 56 
Q 45.21875 56 50.046875 50.171875 
Q 54.890625 44.34375 54.890625 33.015625 
z
" id="DejaVuSans-6e"/>
       <path d="M 10.6875 12.40625 
L 21 12.40625 
L 21 0 
L 10.6875 0 
z
" id="DejaVuSans-2e"/>
       <path d="M 28.609375 0 
L 0.78125 72.90625 
L 11.078125 72.90625 
L 34.1875 11.53125 
L 57.328125 72.90625 
L 67.578125 72.90625 
L 39.796875 0 
z
" id="DejaVuSans-56"/>
       <path d="M 44.28125 53.078125 
L 44.28125 44.578125 
Q 40.484375 46.53125 36.375 47.5 
Q 32.28125 48.484375 27.875 48.484375 
Q 21.1875 48.484375 17.84375 46.4375 
Q 14.5 44.390625 14.5 40.28125 
Q 14.5 37.15625 16.890625 35.375 
Q 19.28125 33.59375 26.515625 31.984375 
L 29.59375 31.296875 
Q 39.15625 29.25 43.1875 25.515625 
Q 47.21875 21.78125 47.21875 15.09375 
Q 47.21875 7.46875 41.1875 3.015625 
Q 35.15625 -1.421875 24.609375 -1.421875 
Q 20.21875 -1.421875 15.453125 -0.5625 
Q 10.6875 0.296875 5.421875 2 
L 5.421875 11.28125 
Q 10.40625 8.6875 15.234375 7.390625 
Q 20.0625 6.109375 24.8125 6.109375 
Q 31.15625 6.109375 34.5625 8.28125 
Q 37.984375 10.453125 37.984375 14.40625 
Q 37.984375 18.0625 35.515625 20.015625 
Q 33.0625 21.96875 24.703125 23.78125 
L 21.578125 24.515625 
Q 13.234375 26.265625 9.515625 29.90625 
Q 5.8125 33.546875 5.8125 39.890625 
Q 5.8125 47.609375 11.28125 51.796875 
Q 16.75 56 26.8125 56 
Q 31.78125 56 36.171875 55.265625 
Q 40.578125 54.546875 44.28125 53.078125 
z
" id="DejaVuSans-73"/>
       <path d="M 9.8125 72.90625 
L 55.90625 72.90625 
L 55.90625 64.59375 
L 19.671875 64.59375 
L 19.671875 43.015625 
L 54.390625 43.015625 
L 54.390625 34.71875 
L 19.671875 34.71875 
L 19.671875 8.296875 
L 56.78125 8.296875 
L 56.78125 0 
L 9.8125 0 
z
" id="DejaVuSans-45"/>
       <path d="M 52 44.1875 
Q 55.375 50.25 60.0625 53.125 
Q 64.75 56 71.09375 56 
Q 79.640625 56 84.28125 50.015625 
Q 88.921875 44.046875 88.921875 33.015625 
L 88.921875 0 
L 79.890625 0 
L 79.890625 32.71875 
Q 79.890625 40.578125 77.09375 44.375 
Q 74.3125 48.1875 68.609375 48.1875 
Q 61.625 48.1875 57.5625 43.546875 
Q 53.515625 38.921875 53.515625 30.90625 
L 53.515625 0 
L 44.484375 0 
L 44.484375 32.71875 
Q 44.484375 40.625 41.703125 44.40625 
Q 38.921875 48.1875 33.109375 48.1875 
Q 26.21875 48.1875 22.15625 43.53125 
Q 18.109375 38.875 18.109375 30.90625 
L 18.109375 0 
L 9.078125 0 
L 9.078125 54.6875 
L 18.109375 54.6875 
L 18.109375 46.1875 
Q 21.1875 51.21875 25.484375 53.609375 
Q 29.78125 56 35.6875 56 
Q 41.65625 56 45.828125 52.96875 
Q 50 49.953125 52 44.1875 
z
" id="DejaVuSans-6d"/>
       <path d="M 32.171875 -5.078125 
Q 28.375 -14.84375 24.75 -17.8125 
Q 21.140625 -20.796875 15.09375 -20.796875 
L 7.90625 -20.796875 
L 7.90625 -13.28125 
L 13.1875 -13.28125 
Q 16.890625 -13.28125 18.9375 -11.515625 
Q 21 -9.765625 23.484375 -3.21875 
L 25.09375 0.875 
L 2.984375 54.6875 
L 12.5 54.6875 
L 29.59375 11.921875 
L 46.6875 54.6875 
L 56.203125 54.6875 
z
" id="DejaVuSans-79"/>
       <path d="M 53.515625 70.515625 
L 53.515625 60.890625 
Q 47.90625 63.578125 42.921875 64.890625 
Q 37.9375 66.21875 33.296875 66.21875 
Q 25.25 66.21875 20.875 63.09375 
Q 16.5 59.96875 16.5 54.203125 
Q 16.5 49.359375 19.40625 46.890625 
Q 22.3125 44.4375 30.421875 42.921875 
L 36.375 41.703125 
Q 47.40625 39.59375 52.65625 34.296875 
Q 57.90625 29 57.90625 20.125 
Q 57.90625 9.515625 50.796875 4.046875 
Q 43.703125 -1.421875 29.984375 -1.421875 
Q 24.8125 -1.421875 18.96875 -0.25 
Q 13.140625 0.921875 6.890625 3.21875 
L 6.890625 13.375 
Q 12.890625 10.015625 18.65625 8.296875 
Q 24.421875 6.59375 29.984375 6.59375 
Q 38.421875 6.59375 43.015625 9.90625 
Q 47.609375 13.234375 47.609375 19.390625 
Q 47.609375 24.75 44.3125 27.78125 
Q 41.015625 30.8125 33.5 32.328125 
L 27.484375 33.5 
Q 16.453125 35.6875 11.515625 40.375 
Q 6.59375 45.0625 6.59375 53.421875 
Q 6.59375 63.09375 13.40625 68.65625 
Q 20.21875 74.21875 32.171875 74.21875 
Q 37.3125 74.21875 42.625 73.28125 
Q 47.953125 72.359375 53.515625 70.515625 
z
" id="DejaVuSans-53"/>
       <path d="M 48.78125 52.59375 
L 48.78125 44.1875 
Q 44.96875 46.296875 41.140625 47.34375 
Q 37.3125 48.390625 33.40625 48.390625 
Q 24.65625 48.390625 19.8125 42.84375 
Q 14.984375 37.3125 14.984375 27.296875 
Q 14.984375 17.28125 19.8125 11.734375 
Q 24.65625 6.203125 33.40625 6.203125 
Q 37.3125 6.203125 41.140625 7.25 
Q 44.96875 8.296875 48.78125 10.40625 
L 48.78125 2.09375 
Q 45.015625 0.34375 40.984375 -0.53125 
Q 36.96875 -1.421875 32.421875 -1.421875 
Q 20.0625 -1.421875 12.78125 6.34375 
Q 5.515625 14.109375 5.515625 27.296875 
Q 5.515625 40.671875 12.859375 48.328125 
Q 20.21875 56 33.015625 56 
Q 37.15625 56 41.109375 55.140625 
Q 45.0625 54.296875 48.78125 52.59375 
z
" id="DejaVuSans-63"/>
      </defs>
      <g transform="translate(98.659743 709.2)rotate(-90)scale(0.1 -0.1)">
       <use xlink:href="#DejaVuSans-46"/>
       <use x="57.378906" xlink:href="#DejaVuSans-61"/>
       <use x="118.658203" xlink:href="#DejaVuSans-6c"/>
       <use x="146.441406" xlink:href="#DejaVuSans-6c"/>
       <use x="174.224609" xlink:href="#DejaVuSans-20"/>
       <use x="206.011719" xlink:href="#DejaVuSans-52"/>
       <use x="275.494141" xlink:href="#DejaVuSans-69"/>
       <use x="303.277344" xlink:href="#DejaVuSans-76"/>
       <use x="362.457031" xlink:href="#DejaVuSans-65"/>
       <use x="423.980469" xlink:href="#DejaVuSans-72"/>
       <use x="465.09375" xlink:href="#DejaVuSans-20"/>
       <use x="496.880859" xlink:href="#DejaVuSans-2d"/>
       <use x="532.964844" xlink:href="#DejaVuSans-20"/>
       <use x="564.751953" xlink:href="#DejaVuSans-43"/>
       <use x="634.576172" xlink:href="#DejaVuSans-61"/>
       <use x="695.855469" xlink:href="#DejaVuSans-72"/>
       <use x="736.96875" xlink:href="#DejaVuSans-6c"/>
       <use x="764.751953" xlink:href="#DejaVuSans-74"/>
       <use x="803.960938" xlink:href="#DejaVuSans-6f"/>
       <use x="865.142578" xlink:href="#DejaVuSans-6e"/>
       <use x="928.521484" xlink:href="#DejaVuSans-20"/>
       <use x="960.308594" xlink:href="#DejaVuSans-4d"/>
       <use x="1046.587891" xlink:href="#DejaVuSans-2e"/>
       <use x="1078.375" xlink:href="#DejaVuSans-20"/>
       <use x="1110.162109" xlink:href="#DejaVuSans-56"/>
       <use x="1178.539062" xlink:href="#DejaVuSans-69"/>
       <use x="1206.322266" xlink:href="#DejaVuSans-76"/>
       <use x="1265.501953" xlink:href="#DejaVuSans-65"/>
       <use x="1327.025391" xlink:href="#DejaVuSans-69"/>
       <use x="1354.808594" xlink:href="#DejaVuSans-72"/>
       <use x="1395.890625" xlink:href="#DejaVuSans-6f"/>
       <use x="1457.072266" xlink:href="#DejaVuSans-73"/>
       <use x="1509.171875" xlink:href="#DejaVuSans-20"/>
       <use x="1540.958984" xlink:href="#DejaVuSans-45"/>
       <use x="1604.142578" xlink:href="#DejaVuSans-6c"/>
       <use x="1631.925781" xlink:href="#DejaVuSans-65"/>
       <use x="1693.449219" xlink:href="#DejaVuSans-6d"/>
       <use x="1790.861328" xlink:href="#DejaVuSans-65"/>
       <use x="1852.384766" xlink:href="#DejaVuSans-6e"/>
       <use x="1915.763672" xlink:href="#DejaVuSans-74"/>
       <use x="1954.972656" xlink:href="#DejaVuSans-61"/>
       <use x="2016.251953" xlink:href="#DejaVuSans-72"/>
       <use x="2057.365234" xlink:href="#DejaVuSans-79"/>
       <use x="2116.544922" xlink:href="#DejaVuSans-20"/>
       <use x="2148.332031" xlink:href="#DejaVuSans-53"/>
       <use x="2211.808594" xlink:href="#DejaVuSans-63"/>
       <use x="2266.789062" xlink:href="#DejaVuSans-68"/>
       <use x="2330.167969" xlink:href="#DejaVuSans-6f"/>
       <use x="2391.349609" xlink:href="#DejaVuSans-6f"/>
       <use x="2452.53125" xlink:href="#DejaVuSans-6c"/>
      </g>
     </g>
    </g>
    <g id="xtick_3">
     <g id="line2d_3">
      <g>
       <use style="stroke:#000000;stroke-width:0.8;" x="135.242279" xlink:href="#m7c41e61226" y="454.170312"/>
      </g>
     </g>
     <g id="text_3">
      <!-- Fall River - Fall River Gateway to College @ BCC -->
      <defs>
       <path d="M 59.515625 10.40625 
L 59.515625 29.984375 
L 43.40625 29.984375 
L 43.40625 38.09375 
L 69.28125 38.09375 
L 69.28125 6.78125 
Q 63.578125 2.734375 56.6875 0.65625 
Q 49.8125 -1.421875 42 -1.421875 
Q 24.90625 -1.421875 15.25 8.5625 
Q 5.609375 18.5625 5.609375 36.375 
Q 5.609375 54.25 15.25 64.234375 
Q 24.90625 74.21875 42 74.21875 
Q 49.125 74.21875 55.546875 72.453125 
Q 61.96875 70.703125 67.390625 67.28125 
L 67.390625 56.78125 
Q 61.921875 61.421875 55.765625 63.765625 
Q 49.609375 66.109375 42.828125 66.109375 
Q 29.4375 66.109375 22.71875 58.640625 
Q 16.015625 51.171875 16.015625 36.375 
Q 16.015625 21.625 22.71875 14.15625 
Q 29.4375 6.6875 42.828125 6.6875 
Q 48.046875 6.6875 52.140625 7.59375 
Q 56.25 8.5 59.515625 10.40625 
z
" id="DejaVuSans-47"/>
       <path d="M 4.203125 54.6875 
L 13.1875 54.6875 
L 24.421875 12.015625 
L 35.59375 54.6875 
L 46.1875 54.6875 
L 57.421875 12.015625 
L 68.609375 54.6875 
L 77.59375 54.6875 
L 63.28125 0 
L 52.6875 0 
L 40.921875 44.828125 
L 29.109375 0 
L 18.5 0 
z
" id="DejaVuSans-77"/>
       <path d="M 37.203125 26.21875 
Q 37.203125 19.234375 40.671875 15.25 
Q 44.140625 11.28125 50.203125 11.28125 
Q 56.203125 11.28125 59.640625 15.28125 
Q 63.09375 19.28125 63.09375 26.21875 
Q 63.09375 33.0625 59.578125 37.078125 
Q 56.0625 41.109375 50.09375 41.109375 
Q 44.1875 41.109375 40.6875 37.109375 
Q 37.203125 33.109375 37.203125 26.21875 
z
M 63.8125 11.625 
Q 60.890625 7.859375 57.109375 6.078125 
Q 53.328125 4.296875 48.296875 4.296875 
Q 39.890625 4.296875 34.640625 10.375 
Q 29.390625 16.453125 29.390625 26.21875 
Q 29.390625 35.984375 34.65625 42.078125 
Q 39.9375 48.1875 48.296875 48.1875 
Q 53.328125 48.1875 57.125 46.359375 
Q 60.9375 44.53125 63.8125 40.828125 
L 63.8125 47.21875 
L 70.796875 47.21875 
L 70.796875 11.28125 
Q 77.9375 12.359375 81.953125 17.796875 
Q 85.984375 23.25 85.984375 31.890625 
Q 85.984375 37.109375 84.4375 41.703125 
Q 82.90625 46.296875 79.78125 50.203125 
Q 74.703125 56.59375 67.40625 59.984375 
Q 60.109375 63.375 51.515625 63.375 
Q 45.515625 63.375 39.984375 61.78125 
Q 34.46875 60.203125 29.78125 57.078125 
Q 22.125 52.09375 17.796875 44.015625 
Q 13.484375 35.9375 13.484375 26.515625 
Q 13.484375 18.75 16.28125 11.953125 
Q 19.09375 5.171875 24.421875 0 
Q 29.546875 -5.078125 36.28125 -7.734375 
Q 43.015625 -10.40625 50.6875 -10.40625 
Q 56.984375 -10.40625 63.0625 -8.28125 
Q 69.140625 -6.15625 74.21875 -2.203125 
L 78.609375 -7.625 
Q 72.515625 -12.359375 65.3125 -14.875 
Q 58.109375 -17.390625 50.6875 -17.390625 
Q 41.65625 -17.390625 33.640625 -14.1875 
Q 25.640625 -10.984375 19.390625 -4.890625 
Q 13.140625 1.21875 9.859375 9.25 
Q 6.59375 17.28125 6.59375 26.515625 
Q 6.59375 35.40625 9.90625 43.453125 
Q 13.234375 51.515625 19.390625 57.625 
Q 25.6875 63.8125 33.9375 67.109375 
Q 42.1875 70.40625 51.421875 70.40625 
Q 61.765625 70.40625 70.625 66.15625 
Q 79.5 61.921875 85.5 54.109375 
Q 89.15625 49.3125 91.078125 43.703125 
Q 93.015625 38.09375 93.015625 32.078125 
Q 93.015625 19.234375 85.25 11.8125 
Q 77.484375 4.390625 63.8125 4.109375 
z
" id="DejaVuSans-40"/>
      </defs>
      <g transform="translate(138.001654 702.395312)rotate(-90)scale(0.1 -0.1)">
       <use xlink:href="#DejaVuSans-46"/>
       <use x="57.378906" xlink:href="#DejaVuSans-61"/>
       <use x="118.658203" xlink:href="#DejaVuSans-6c"/>
       <use x="146.441406" xlink:href="#DejaVuSans-6c"/>
       <use x="174.224609" xlink:href="#DejaVuSans-20"/>
       <use x="206.011719" xlink:href="#DejaVuSans-52"/>
       <use x="275.494141" xlink:href="#DejaVuSans-69"/>
       <use x="303.277344" xlink:href="#DejaVuSans-76"/>
       <use x="362.457031" xlink:href="#DejaVuSans-65"/>
       <use x="423.980469" xlink:href="#DejaVuSans-72"/>
       <use x="465.09375" xlink:href="#DejaVuSans-20"/>
       <use x="496.880859" xlink:href="#DejaVuSans-2d"/>
       <use x="532.964844" xlink:href="#DejaVuSans-20"/>
       <use x="564.751953" xlink:href="#DejaVuSans-46"/>
       <use x="622.130859" xlink:href="#DejaVuSans-61"/>
       <use x="683.410156" xlink:href="#DejaVuSans-6c"/>
       <use x="711.193359" xlink:href="#DejaVuSans-6c"/>
       <use x="738.976562" xlink:href="#DejaVuSans-20"/>
       <use x="770.763672" xlink:href="#DejaVuSans-52"/>
       <use x="840.246094" xlink:href="#DejaVuSans-69"/>
       <use x="868.029297" xlink:href="#DejaVuSans-76"/>
       <use x="927.208984" xlink:href="#DejaVuSans-65"/>
       <use x="988.732422" xlink:href="#DejaVuSans-72"/>
       <use x="1029.845703" xlink:href="#DejaVuSans-20"/>
       <use x="1061.632812" xlink:href="#DejaVuSans-47"/>
       <use x="1139.123047" xlink:href="#DejaVuSans-61"/>
       <use x="1200.402344" xlink:href="#DejaVuSans-74"/>
       <use x="1239.611328" xlink:href="#DejaVuSans-65"/>
       <use x="1301.134766" xlink:href="#DejaVuSans-77"/>
       <use x="1382.921875" xlink:href="#DejaVuSans-61"/>
       <use x="1444.201172" xlink:href="#DejaVuSans-79"/>
       <use x="1503.380859" xlink:href="#DejaVuSans-20"/>
       <use x="1535.167969" xlink:href="#DejaVuSans-74"/>
       <use x="1574.376953" xlink:href="#DejaVuSans-6f"/>
       <use x="1635.558594" xlink:href="#DejaVuSans-20"/>
       <use x="1667.345703" xlink:href="#DejaVuSans-43"/>
       <use x="1737.169922" xlink:href="#DejaVuSans-6f"/>
       <use x="1798.351562" xlink:href="#DejaVuSans-6c"/>
       <use x="1826.134766" xlink:href="#DejaVuSans-6c"/>
       <use x="1853.917969" xlink:href="#DejaVuSans-65"/>
       <use x="1915.441406" xlink:href="#DejaVuSans-67"/>
       <use x="1978.917969" xlink:href="#DejaVuSans-65"/>
       <use x="2040.441406" xlink:href="#DejaVuSans-20"/>
       <use x="2072.228516" xlink:href="#DejaVuSans-40"/>
       <use x="2172.228516" xlink:href="#DejaVuSans-20"/>
       <use x="2204.015625" xlink:href="#DejaVuSans-42"/>
       <use x="2272.603516" xlink:href="#DejaVuSans-43"/>
       <use x="2342.427734" xlink:href="#DejaVuSans-43"/>
      </g>
     </g>
    </g>
    <g id="xtick_4">
     <g id="line2d_4">
      <g>
       <use style="stroke:#000000;stroke-width:0.8;" x="174.584191" xlink:href="#m7c41e61226" y="454.170312"/>
      </g>
     </g>
     <g id="text_4">
      <!-- Fall River - Henry Lord Community School -->
      <defs>
       <path d="M 9.8125 72.90625 
L 19.671875 72.90625 
L 19.671875 8.296875 
L 55.171875 8.296875 
L 55.171875 0 
L 9.8125 0 
z
" id="DejaVuSans-4c"/>
       <path d="M 45.40625 46.390625 
L 45.40625 75.984375 
L 54.390625 75.984375 
L 54.390625 0 
L 45.40625 0 
L 45.40625 8.203125 
Q 42.578125 3.328125 38.25 0.953125 
Q 33.9375 -1.421875 27.875 -1.421875 
Q 17.96875 -1.421875 11.734375 6.484375 
Q 5.515625 14.40625 5.515625 27.296875 
Q 5.515625 40.1875 11.734375 48.09375 
Q 17.96875 56 27.875 56 
Q 33.9375 56 38.25 53.625 
Q 42.578125 51.265625 45.40625 46.390625 
z
M 14.796875 27.296875 
Q 14.796875 17.390625 18.875 11.75 
Q 22.953125 6.109375 30.078125 6.109375 
Q 37.203125 6.109375 41.296875 11.75 
Q 45.40625 17.390625 45.40625 27.296875 
Q 45.40625 37.203125 41.296875 42.84375 
Q 37.203125 48.484375 30.078125 48.484375 
Q 22.953125 48.484375 18.875 42.84375 
Q 14.796875 37.203125 14.796875 27.296875 
z
" id="DejaVuSans-64"/>
      </defs>
      <g transform="translate(177.343566 670.440625)rotate(-90)scale(0.1 -0.1)">
       <use xlink:href="#DejaVuSans-46"/>
       <use x="57.378906" xlink:href="#DejaVuSans-61"/>
       <use x="118.658203" xlink:href="#DejaVuSans-6c"/>
       <use x="146.441406" xlink:href="#DejaVuSans-6c"/>
       <use x="174.224609" xlink:href="#DejaVuSans-20"/>
       <use x="206.011719" xlink:href="#DejaVuSans-52"/>
       <use x="275.494141" xlink:href="#DejaVuSans-69"/>
       <use x="303.277344" xlink:href="#DejaVuSans-76"/>
       <use x="362.457031" xlink:href="#DejaVuSans-65"/>
       <use x="423.980469" xlink:href="#DejaVuSans-72"/>
       <use x="465.09375" xlink:href="#DejaVuSans-20"/>
       <use x="496.880859" xlink:href="#DejaVuSans-2d"/>
       <use x="532.964844" xlink:href="#DejaVuSans-20"/>
       <use x="564.751953" xlink:href="#DejaVuSans-48"/>
       <use x="639.947266" xlink:href="#DejaVuSans-65"/>
       <use x="701.470703" xlink:href="#DejaVuSans-6e"/>
       <use x="764.849609" xlink:href="#DejaVuSans-72"/>
       <use x="805.962891" xlink:href="#DejaVuSans-79"/>
       <use x="865.142578" xlink:href="#DejaVuSans-20"/>
       <use x="896.929688" xlink:href="#DejaVuSans-4c"/>
       <use x="952.626953" xlink:href="#DejaVuSans-6f"/>
       <use x="1013.808594" xlink:href="#DejaVuSans-72"/>
       <use x="1054.90625" xlink:href="#DejaVuSans-64"/>
       <use x="1118.382812" xlink:href="#DejaVuSans-20"/>
       <use x="1150.169922" xlink:href="#DejaVuSans-43"/>
       <use x="1219.994141" xlink:href="#DejaVuSans-6f"/>
       <use x="1281.175781" xlink:href="#DejaVuSans-6d"/>
       <use x="1378.587891" xlink:href="#DejaVuSans-6d"/>
       <use x="1476" xlink:href="#DejaVuSans-75"/>
       <use x="1539.378906" xlink:href="#DejaVuSans-6e"/>
       <use x="1602.757812" xlink:href="#DejaVuSans-69"/>
       <use x="1630.541016" xlink:href="#DejaVuSans-74"/>
       <use x="1669.75" xlink:href="#DejaVuSans-79"/>
       <use x="1728.929688" xlink:href="#DejaVuSans-20"/>
       <use x="1760.716797" xlink:href="#DejaVuSans-53"/>
       <use x="1824.193359" xlink:href="#DejaVuSans-63"/>
       <use x="1879.173828" xlink:href="#DejaVuSans-68"/>
       <use x="1942.552734" xlink:href="#DejaVuSans-6f"/>
       <use x="2003.734375" xlink:href="#DejaVuSans-6f"/>
       <use x="2064.916016" xlink:href="#DejaVuSans-6c"/>
      </g>
     </g>
    </g>
    <g id="xtick_5">
     <g id="line2d_5">
      <g>
       <use style="stroke:#000000;stroke-width:0.8;" x="213.926103" xlink:href="#m7c41e61226" y="454.170312"/>
      </g>
     </g>
     <g id="text_5">
      <!-- Fall River - James Tansey -->
      <defs>
       <path d="M 9.8125 72.90625 
L 19.671875 72.90625 
L 19.671875 5.078125 
Q 19.671875 -8.109375 14.671875 -14.0625 
Q 9.671875 -20.015625 -1.421875 -20.015625 
L -5.171875 -20.015625 
L -5.171875 -11.71875 
L -2.09375 -11.71875 
Q 4.4375 -11.71875 7.125 -8.046875 
Q 9.8125 -4.390625 9.8125 5.078125 
z
" id="DejaVuSans-4a"/>
       <path d="M -0.296875 72.90625 
L 61.375 72.90625 
L 61.375 64.59375 
L 35.5 64.59375 
L 35.5 0 
L 25.59375 0 
L 25.59375 64.59375 
L -0.296875 64.59375 
z
" id="DejaVuSans-54"/>
      </defs>
      <g transform="translate(216.685478 586.832812)rotate(-90)scale(0.1 -0.1)">
       <use xlink:href="#DejaVuSans-46"/>
       <use x="57.378906" xlink:href="#DejaVuSans-61"/>
       <use x="118.658203" xlink:href="#DejaVuSans-6c"/>
       <use x="146.441406" xlink:href="#DejaVuSans-6c"/>
       <use x="174.224609" xlink:href="#DejaVuSans-20"/>
       <use x="206.011719" xlink:href="#DejaVuSans-52"/>
       <use x="275.494141" xlink:href="#DejaVuSans-69"/>
       <use x="303.277344" xlink:href="#DejaVuSans-76"/>
       <use x="362.457031" xlink:href="#DejaVuSans-65"/>
       <use x="423.980469" xlink:href="#DejaVuSans-72"/>
       <use x="465.09375" xlink:href="#DejaVuSans-20"/>
       <use x="496.880859" xlink:href="#DejaVuSans-2d"/>
       <use x="532.964844" xlink:href="#DejaVuSans-20"/>
       <use x="564.751953" xlink:href="#DejaVuSans-4a"/>
       <use x="594.244141" xlink:href="#DejaVuSans-61"/>
       <use x="655.523438" xlink:href="#DejaVuSans-6d"/>
       <use x="752.935547" xlink:href="#DejaVuSans-65"/>
       <use x="814.458984" xlink:href="#DejaVuSans-73"/>
       <use x="866.558594" xlink:href="#DejaVuSans-20"/>
       <use x="898.345703" xlink:href="#DejaVuSans-54"/>
       <use x="959.179688" xlink:href="#DejaVuSans-61"/>
       <use x="1020.458984" xlink:href="#DejaVuSans-6e"/>
       <use x="1083.837891" xlink:href="#DejaVuSans-73"/>
       <use x="1135.9375" xlink:href="#DejaVuSans-65"/>
       <use x="1197.460938" xlink:href="#DejaVuSans-79"/>
      </g>
     </g>
    </g>
    <g id="xtick_6">
     <g id="line2d_6">
      <g>
       <use style="stroke:#000000;stroke-width:0.8;" x="253.268015" xlink:href="#m7c41e61226" y="454.170312"/>
      </g>
     </g>
     <g id="text_6">
      <!-- Fall River - John J Doran -->
      <g transform="translate(256.02739 579.089062)rotate(-90)scale(0.1 -0.1)">
       <use xlink:href="#DejaVuSans-46"/>
       <use x="57.378906" xlink:href="#DejaVuSans-61"/>
       <use x="118.658203" xlink:href="#DejaVuSans-6c"/>
       <use x="146.441406" xlink:href="#DejaVuSans-6c"/>
       <use x="174.224609" xlink:href="#DejaVuSans-20"/>
       <use x="206.011719" xlink:href="#DejaVuSans-52"/>
       <use x="275.494141" xlink:href="#DejaVuSans-69"/>
       <use x="303.277344" xlink:href="#DejaVuSans-76"/>
       <use x="362.457031" xlink:href="#DejaVuSans-65"/>
       <use x="423.980469" xlink:href="#DejaVuSans-72"/>
       <use x="465.09375" xlink:href="#DejaVuSans-20"/>
       <use x="496.880859" xlink:href="#DejaVuSans-2d"/>
       <use x="532.964844" xlink:href="#DejaVuSans-20"/>
       <use x="564.751953" xlink:href="#DejaVuSans-4a"/>
       <use x="594.244141" xlink:href="#DejaVuSans-6f"/>
       <use x="655.425781" xlink:href="#DejaVuSans-68"/>
       <use x="718.804688" xlink:href="#DejaVuSans-6e"/>
       <use x="782.183594" xlink:href="#DejaVuSans-20"/>
       <use x="813.970703" xlink:href="#DejaVuSans-4a"/>
       <use x="843.462891" xlink:href="#DejaVuSans-20"/>
       <use x="875.25" xlink:href="#DejaVuSans-44"/>
       <use x="952.251953" xlink:href="#DejaVuSans-6f"/>
       <use x="1013.433594" xlink:href="#DejaVuSans-72"/>
       <use x="1054.546875" xlink:href="#DejaVuSans-61"/>
       <use x="1115.826172" xlink:href="#DejaVuSans-6e"/>
      </g>
     </g>
    </g>
    <g id="xtick_7">
     <g id="line2d_7">
      <g>
       <use style="stroke:#000000;stroke-width:0.8;" x="292.609926" xlink:href="#m7c41e61226" y="454.170312"/>
      </g>
     </g>
     <g id="text_7">
      <!-- Fall River - Letourneau Elementary School -->
      <g transform="translate(295.369301 671.925)rotate(-90)scale(0.1 -0.1)">
       <use xlink:href="#DejaVuSans-46"/>
       <use x="57.378906" xlink:href="#DejaVuSans-61"/>
       <use x="118.658203" xlink:href="#DejaVuSans-6c"/>
       <use x="146.441406" xlink:href="#DejaVuSans-6c"/>
       <use x="174.224609" xlink:href="#DejaVuSans-20"/>
       <use x="206.011719" xlink:href="#DejaVuSans-52"/>
       <use x="275.494141" xlink:href="#DejaVuSans-69"/>
       <use x="303.277344" xlink:href="#DejaVuSans-76"/>
       <use x="362.457031" xlink:href="#DejaVuSans-65"/>
       <use x="423.980469" xlink:href="#DejaVuSans-72"/>
       <use x="465.09375" xlink:href="#DejaVuSans-20"/>
       <use x="496.880859" xlink:href="#DejaVuSans-2d"/>
       <use x="532.964844" xlink:href="#DejaVuSans-20"/>
       <use x="564.751953" xlink:href="#DejaVuSans-4c"/>
       <use x="620.449219" xlink:href="#DejaVuSans-65"/>
       <use x="681.972656" xlink:href="#DejaVuSans-74"/>
       <use x="721.181641" xlink:href="#DejaVuSans-6f"/>
       <use x="782.363281" xlink:href="#DejaVuSans-75"/>
       <use x="845.742188" xlink:href="#DejaVuSans-72"/>
       <use x="886.839844" xlink:href="#DejaVuSans-6e"/>
       <use x="950.21875" xlink:href="#DejaVuSans-65"/>
       <use x="1011.742188" xlink:href="#DejaVuSans-61"/>
       <use x="1073.021484" xlink:href="#DejaVuSans-75"/>
       <use x="1136.400391" xlink:href="#DejaVuSans-20"/>
       <use x="1168.1875" xlink:href="#DejaVuSans-45"/>
       <use x="1231.371094" xlink:href="#DejaVuSans-6c"/>
       <use x="1259.154297" xlink:href="#DejaVuSans-65"/>
       <use x="1320.677734" xlink:href="#DejaVuSans-6d"/>
       <use x="1418.089844" xlink:href="#DejaVuSans-65"/>
       <use x="1479.613281" xlink:href="#DejaVuSans-6e"/>
       <use x="1542.992188" xlink:href="#DejaVuSans-74"/>
       <use x="1582.201172" xlink:href="#DejaVuSans-61"/>
       <use x="1643.480469" xlink:href="#DejaVuSans-72"/>
       <use x="1684.59375" xlink:href="#DejaVuSans-79"/>
       <use x="1743.773438" xlink:href="#DejaVuSans-20"/>
       <use x="1775.560547" xlink:href="#DejaVuSans-53"/>
       <use x="1839.037109" xlink:href="#DejaVuSans-63"/>
       <use x="1894.017578" xlink:href="#DejaVuSans-68"/>
       <use x="1957.396484" xlink:href="#DejaVuSans-6f"/>
       <use x="2018.578125" xlink:href="#DejaVuSans-6f"/>
       <use x="2079.759766" xlink:href="#DejaVuSans-6c"/>
      </g>
     </g>
    </g>
    <g id="xtick_8">
     <g id="line2d_8">
      <g>
       <use style="stroke:#000000;stroke-width:0.8;" x="331.951838" xlink:href="#m7c41e61226" y="454.170312"/>
      </g>
     </g>
     <g id="text_8">
      <!-- Fall River - Mary Fonseca Elementary School -->
      <g transform="translate(334.711213 683.915625)rotate(-90)scale(0.1 -0.1)">
       <use xlink:href="#DejaVuSans-46"/>
       <use x="57.378906" xlink:href="#DejaVuSans-61"/>
       <use x="118.658203" xlink:href="#DejaVuSans-6c"/>
       <use x="146.441406" xlink:href="#DejaVuSans-6c"/>
       <use x="174.224609" xlink:href="#DejaVuSans-20"/>
       <use x="206.011719" xlink:href="#DejaVuSans-52"/>
       <use x="275.494141" xlink:href="#DejaVuSans-69"/>
       <use x="303.277344" xlink:href="#DejaVuSans-76"/>
       <use x="362.457031" xlink:href="#DejaVuSans-65"/>
       <use x="423.980469" xlink:href="#DejaVuSans-72"/>
       <use x="465.09375" xlink:href="#DejaVuSans-20"/>
       <use x="496.880859" xlink:href="#DejaVuSans-2d"/>
       <use x="532.964844" xlink:href="#DejaVuSans-20"/>
       <use x="564.751953" xlink:href="#DejaVuSans-4d"/>
       <use x="651.03125" xlink:href="#DejaVuSans-61"/>
       <use x="712.310547" xlink:href="#DejaVuSans-72"/>
       <use x="753.423828" xlink:href="#DejaVuSans-79"/>
       <use x="812.603516" xlink:href="#DejaVuSans-20"/>
       <use x="844.390625" xlink:href="#DejaVuSans-46"/>
       <use x="901.863281" xlink:href="#DejaVuSans-6f"/>
       <use x="963.044922" xlink:href="#DejaVuSans-6e"/>
       <use x="1026.423828" xlink:href="#DejaVuSans-73"/>
       <use x="1078.523438" xlink:href="#DejaVuSans-65"/>
       <use x="1140.046875" xlink:href="#DejaVuSans-63"/>
       <use x="1195.027344" xlink:href="#DejaVuSans-61"/>
       <use x="1256.306641" xlink:href="#DejaVuSans-20"/>
       <use x="1288.09375" xlink:href="#DejaVuSans-45"/>
       <use x="1351.277344" xlink:href="#DejaVuSans-6c"/>
       <use x="1379.060547" xlink:href="#DejaVuSans-65"/>
       <use x="1440.583984" xlink:href="#DejaVuSans-6d"/>
       <use x="1537.996094" xlink:href="#DejaVuSans-65"/>
       <use x="1599.519531" xlink:href="#DejaVuSans-6e"/>
       <use x="1662.898438" xlink:href="#DejaVuSans-74"/>
       <use x="1702.107422" xlink:href="#DejaVuSans-61"/>
       <use x="1763.386719" xlink:href="#DejaVuSans-72"/>
       <use x="1804.5" xlink:href="#DejaVuSans-79"/>
       <use x="1863.679688" xlink:href="#DejaVuSans-20"/>
       <use x="1895.466797" xlink:href="#DejaVuSans-53"/>
       <use x="1958.943359" xlink:href="#DejaVuSans-63"/>
       <use x="2013.923828" xlink:href="#DejaVuSans-68"/>
       <use x="2077.302734" xlink:href="#DejaVuSans-6f"/>
       <use x="2138.484375" xlink:href="#DejaVuSans-6f"/>
       <use x="2199.666016" xlink:href="#DejaVuSans-6c"/>
      </g>
     </g>
    </g>
    <g id="xtick_9">
     <g id="line2d_9">
      <g>
       <use style="stroke:#000000;stroke-width:0.8;" x="371.29375" xlink:href="#m7c41e61226" y="454.170312"/>
      </g>
     </g>
     <g id="text_9">
      <!-- Fall River - Matthew J Kuss Middle -->
      <defs>
       <path d="M 9.8125 72.90625 
L 19.671875 72.90625 
L 19.671875 42.09375 
L 52.390625 72.90625 
L 65.09375 72.90625 
L 28.90625 38.921875 
L 67.671875 0 
L 54.6875 0 
L 19.671875 35.109375 
L 19.671875 0 
L 9.8125 0 
z
" id="DejaVuSans-4b"/>
      </defs>
      <g transform="translate(374.053125 629.734375)rotate(-90)scale(0.1 -0.1)">
       <use xlink:href="#DejaVuSans-46"/>
       <use x="57.378906" xlink:href="#DejaVuSans-61"/>
       <use x="118.658203" xlink:href="#DejaVuSans-6c"/>
       <use x="146.441406" xlink:href="#DejaVuSans-6c"/>
       <use x="174.224609" xlink:href="#DejaVuSans-20"/>
       <use x="206.011719" xlink:href="#DejaVuSans-52"/>
       <use x="275.494141" xlink:href="#DejaVuSans-69"/>
       <use x="303.277344" xlink:href="#DejaVuSans-76"/>
       <use x="362.457031" xlink:href="#DejaVuSans-65"/>
       <use x="423.980469" xlink:href="#DejaVuSans-72"/>
       <use x="465.09375" xlink:href="#DejaVuSans-20"/>
       <use x="496.880859" xlink:href="#DejaVuSans-2d"/>
       <use x="532.964844" xlink:href="#DejaVuSans-20"/>
       <use x="564.751953" xlink:href="#DejaVuSans-4d"/>
       <use x="651.03125" xlink:href="#DejaVuSans-61"/>
       <use x="712.310547" xlink:href="#DejaVuSans-74"/>
       <use x="751.519531" xlink:href="#DejaVuSans-74"/>
       <use x="790.728516" xlink:href="#DejaVuSans-68"/>
       <use x="854.107422" xlink:href="#DejaVuSans-65"/>
       <use x="915.630859" xlink:href="#DejaVuSans-77"/>
       <use x="997.417969" xlink:href="#DejaVuSans-20"/>
       <use x="1029.205078" xlink:href="#DejaVuSans-4a"/>
       <use x="1058.697266" xlink:href="#DejaVuSans-20"/>
       <use x="1090.484375" xlink:href="#DejaVuSans-4b"/>
       <use x="1155.982422" xlink:href="#DejaVuSans-75"/>
       <use x="1219.361328" xlink:href="#DejaVuSans-73"/>
       <use x="1271.460938" xlink:href="#DejaVuSans-73"/>
       <use x="1323.560547" xlink:href="#DejaVuSans-20"/>
       <use x="1355.347656" xlink:href="#DejaVuSans-4d"/>
       <use x="1441.626953" xlink:href="#DejaVuSans-69"/>
       <use x="1469.410156" xlink:href="#DejaVuSans-64"/>
       <use x="1532.886719" xlink:href="#DejaVuSans-64"/>
       <use x="1596.363281" xlink:href="#DejaVuSans-6c"/>
       <use x="1624.146484" xlink:href="#DejaVuSans-65"/>
      </g>
     </g>
    </g>
    <g id="xtick_10">
     <g id="line2d_10">
      <g>
       <use style="stroke:#000000;stroke-width:0.8;" x="410.635662" xlink:href="#m7c41e61226" y="454.170312"/>
      </g>
     </g>
     <g id="text_10">
      <!-- Fall River - Morton Middle -->
      <g transform="translate(413.395037 589.090625)rotate(-90)scale(0.1 -0.1)">
       <use xlink:href="#DejaVuSans-46"/>
       <use x="57.378906" xlink:href="#DejaVuSans-61"/>
       <use x="118.658203" xlink:href="#DejaVuSans-6c"/>
       <use x="146.441406" xlink:href="#DejaVuSans-6c"/>
       <use x="174.224609" xlink:href="#DejaVuSans-20"/>
       <use x="206.011719" xlink:href="#DejaVuSans-52"/>
       <use x="275.494141" xlink:href="#DejaVuSans-69"/>
       <use x="303.277344" xlink:href="#DejaVuSans-76"/>
       <use x="362.457031" xlink:href="#DejaVuSans-65"/>
       <use x="423.980469" xlink:href="#DejaVuSans-72"/>
       <use x="465.09375" xlink:href="#DejaVuSans-20"/>
       <use x="496.880859" xlink:href="#DejaVuSans-2d"/>
       <use x="532.964844" xlink:href="#DejaVuSans-20"/>
       <use x="564.751953" xlink:href="#DejaVuSans-4d"/>
       <use x="651.03125" xlink:href="#DejaVuSans-6f"/>
       <use x="712.212891" xlink:href="#DejaVuSans-72"/>
       <use x="753.326172" xlink:href="#DejaVuSans-74"/>
       <use x="792.535156" xlink:href="#DejaVuSans-6f"/>
       <use x="853.716797" xlink:href="#DejaVuSans-6e"/>
       <use x="917.095703" xlink:href="#DejaVuSans-20"/>
       <use x="948.882812" xlink:href="#DejaVuSans-4d"/>
       <use x="1035.162109" xlink:href="#DejaVuSans-69"/>
       <use x="1062.945312" xlink:href="#DejaVuSans-64"/>
       <use x="1126.421875" xlink:href="#DejaVuSans-64"/>
       <use x="1189.898438" xlink:href="#DejaVuSans-6c"/>
       <use x="1217.681641" xlink:href="#DejaVuSans-65"/>
      </g>
     </g>
    </g>
    <g id="xtick_11">
     <g id="line2d_11">
      <g>
       <use style="stroke:#000000;stroke-width:0.8;" x="449.977574" xlink:href="#m7c41e61226" y="454.170312"/>
      </g>
     </g>
     <g id="text_11">
      <!-- Fall River - North End Elementary -->
      <defs>
       <path d="M 9.8125 72.90625 
L 23.09375 72.90625 
L 55.421875 11.921875 
L 55.421875 72.90625 
L 64.984375 72.90625 
L 64.984375 0 
L 51.703125 0 
L 19.390625 60.984375 
L 19.390625 0 
L 9.8125 0 
z
" id="DejaVuSans-4e"/>
      </defs>
      <g transform="translate(452.736949 628.532812)rotate(-90)scale(0.1 -0.1)">
       <use xlink:href="#DejaVuSans-46"/>
       <use x="57.378906" xlink:href="#DejaVuSans-61"/>
       <use x="118.658203" xlink:href="#DejaVuSans-6c"/>
       <use x="146.441406" xlink:href="#DejaVuSans-6c"/>
       <use x="174.224609" xlink:href="#DejaVuSans-20"/>
       <use x="206.011719" xlink:href="#DejaVuSans-52"/>
       <use x="275.494141" xlink:href="#DejaVuSans-69"/>
       <use x="303.277344" xlink:href="#DejaVuSans-76"/>
       <use x="362.457031" xlink:href="#DejaVuSans-65"/>
       <use x="423.980469" xlink:href="#DejaVuSans-72"/>
       <use x="465.09375" xlink:href="#DejaVuSans-20"/>
       <use x="496.880859" xlink:href="#DejaVuSans-2d"/>
       <use x="532.964844" xlink:href="#DejaVuSans-20"/>
       <use x="564.751953" xlink:href="#DejaVuSans-4e"/>
       <use x="639.556641" xlink:href="#DejaVuSans-6f"/>
       <use x="700.738281" xlink:href="#DejaVuSans-72"/>
       <use x="741.851562" xlink:href="#DejaVuSans-74"/>
       <use x="781.060547" xlink:href="#DejaVuSans-68"/>
       <use x="844.439453" xlink:href="#DejaVuSans-20"/>
       <use x="876.226562" xlink:href="#DejaVuSans-45"/>
       <use x="939.410156" xlink:href="#DejaVuSans-6e"/>
       <use x="1002.789062" xlink:href="#DejaVuSans-64"/>
       <use x="1066.265625" xlink:href="#DejaVuSans-20"/>
       <use x="1098.052734" xlink:href="#DejaVuSans-45"/>
       <use x="1161.236328" xlink:href="#DejaVuSans-6c"/>
       <use x="1189.019531" xlink:href="#DejaVuSans-65"/>
       <use x="1250.542969" xlink:href="#DejaVuSans-6d"/>
       <use x="1347.955078" xlink:href="#DejaVuSans-65"/>
       <use x="1409.478516" xlink:href="#DejaVuSans-6e"/>
       <use x="1472.857422" xlink:href="#DejaVuSans-74"/>
       <use x="1512.066406" xlink:href="#DejaVuSans-61"/>
       <use x="1573.345703" xlink:href="#DejaVuSans-72"/>
       <use x="1614.458984" xlink:href="#DejaVuSans-79"/>
      </g>
     </g>
    </g>
    <g id="xtick_12">
     <g id="line2d_12">
      <g>
       <use style="stroke:#000000;stroke-width:0.8;" x="489.319485" xlink:href="#m7c41e61226" y="454.170312"/>
      </g>
     </g>
     <g id="text_12">
      <!-- Fall River - Resiliency Preparatory Academy -->
      <defs>
       <path d="M 19.671875 64.796875 
L 19.671875 37.40625 
L 32.078125 37.40625 
Q 38.96875 37.40625 42.71875 40.96875 
Q 46.484375 44.53125 46.484375 51.125 
Q 46.484375 57.671875 42.71875 61.234375 
Q 38.96875 64.796875 32.078125 64.796875 
z
M 9.8125 72.90625 
L 32.078125 72.90625 
Q 44.34375 72.90625 50.609375 67.359375 
Q 56.890625 61.8125 56.890625 51.125 
Q 56.890625 40.328125 50.609375 34.8125 
Q 44.34375 29.296875 32.078125 29.296875 
L 19.671875 29.296875 
L 19.671875 0 
L 9.8125 0 
z
" id="DejaVuSans-50"/>
       <path d="M 18.109375 8.203125 
L 18.109375 -20.796875 
L 9.078125 -20.796875 
L 9.078125 54.6875 
L 18.109375 54.6875 
L 18.109375 46.390625 
Q 20.953125 51.265625 25.265625 53.625 
Q 29.59375 56 35.59375 56 
Q 45.5625 56 51.78125 48.09375 
Q 58.015625 40.1875 58.015625 27.296875 
Q 58.015625 14.40625 51.78125 6.484375 
Q 45.5625 -1.421875 35.59375 -1.421875 
Q 29.59375 -1.421875 25.265625 0.953125 
Q 20.953125 3.328125 18.109375 8.203125 
z
M 48.6875 27.296875 
Q 48.6875 37.203125 44.609375 42.84375 
Q 40.53125 48.484375 33.40625 48.484375 
Q 26.265625 48.484375 22.1875 42.84375 
Q 18.109375 37.203125 18.109375 27.296875 
Q 18.109375 17.390625 22.1875 11.75 
Q 26.265625 6.109375 33.40625 6.109375 
Q 40.53125 6.109375 44.609375 11.75 
Q 48.6875 17.390625 48.6875 27.296875 
z
" id="DejaVuSans-70"/>
       <path d="M 34.1875 63.1875 
L 20.796875 26.90625 
L 47.609375 26.90625 
z
M 28.609375 72.90625 
L 39.796875 72.90625 
L 67.578125 0 
L 57.328125 0 
L 50.6875 18.703125 
L 17.828125 18.703125 
L 11.1875 0 
L 0.78125 0 
z
" id="DejaVuSans-41"/>
      </defs>
      <g transform="translate(492.07886 680.246875)rotate(-90)scale(0.1 -0.1)">
       <use xlink:href="#DejaVuSans-46"/>
       <use x="57.378906" xlink:href="#DejaVuSans-61"/>
       <use x="118.658203" xlink:href="#DejaVuSans-6c"/>
       <use x="146.441406" xlink:href="#DejaVuSans-6c"/>
       <use x="174.224609" xlink:href="#DejaVuSans-20"/>
       <use x="206.011719" xlink:href="#DejaVuSans-52"/>
       <use x="275.494141" xlink:href="#DejaVuSans-69"/>
       <use x="303.277344" xlink:href="#DejaVuSans-76"/>
       <use x="362.457031" xlink:href="#DejaVuSans-65"/>
       <use x="423.980469" xlink:href="#DejaVuSans-72"/>
       <use x="465.09375" xlink:href="#DejaVuSans-20"/>
       <use x="496.880859" xlink:href="#DejaVuSans-2d"/>
       <use x="532.964844" xlink:href="#DejaVuSans-20"/>
       <use x="564.751953" xlink:href="#DejaVuSans-52"/>
       <use x="634.171875" xlink:href="#DejaVuSans-65"/>
       <use x="695.695312" xlink:href="#DejaVuSans-73"/>
       <use x="747.794922" xlink:href="#DejaVuSans-69"/>
       <use x="775.578125" xlink:href="#DejaVuSans-6c"/>
       <use x="803.361328" xlink:href="#DejaVuSans-69"/>
       <use x="831.144531" xlink:href="#DejaVuSans-65"/>
       <use x="892.667969" xlink:href="#DejaVuSans-6e"/>
       <use x="956.046875" xlink:href="#DejaVuSans-63"/>
       <use x="1011.027344" xlink:href="#DejaVuSans-79"/>
       <use x="1070.207031" xlink:href="#DejaVuSans-20"/>
       <use x="1101.994141" xlink:href="#DejaVuSans-50"/>
       <use x="1162.28125" xlink:href="#DejaVuSans-72"/>
       <use x="1203.363281" xlink:href="#DejaVuSans-65"/>
       <use x="1264.886719" xlink:href="#DejaVuSans-70"/>
       <use x="1328.363281" xlink:href="#DejaVuSans-61"/>
       <use x="1389.642578" xlink:href="#DejaVuSans-72"/>
       <use x="1430.755859" xlink:href="#DejaVuSans-61"/>
       <use x="1492.035156" xlink:href="#DejaVuSans-74"/>
       <use x="1531.244141" xlink:href="#DejaVuSans-6f"/>
       <use x="1592.425781" xlink:href="#DejaVuSans-72"/>
       <use x="1633.539062" xlink:href="#DejaVuSans-79"/>
       <use x="1692.71875" xlink:href="#DejaVuSans-20"/>
       <use x="1724.505859" xlink:href="#DejaVuSans-41"/>
       <use x="1792.898438" xlink:href="#DejaVuSans-63"/>
       <use x="1847.878906" xlink:href="#DejaVuSans-61"/>
       <use x="1909.158203" xlink:href="#DejaVuSans-64"/>
       <use x="1972.634766" xlink:href="#DejaVuSans-65"/>
       <use x="2034.158203" xlink:href="#DejaVuSans-6d"/>
       <use x="2131.570312" xlink:href="#DejaVuSans-79"/>
      </g>
     </g>
    </g>
    <g id="xtick_13">
     <g id="line2d_13">
      <g>
       <use style="stroke:#000000;stroke-width:0.8;" x="528.661397" xlink:href="#m7c41e61226" y="454.170312"/>
      </g>
     </g>
     <g id="text_13">
      <!-- Fall River - Samuel Watson -->
      <defs>
       <path d="M 3.328125 72.90625 
L 13.28125 72.90625 
L 28.609375 11.28125 
L 43.890625 72.90625 
L 54.984375 72.90625 
L 70.3125 11.28125 
L 85.59375 72.90625 
L 95.609375 72.90625 
L 77.296875 0 
L 64.890625 0 
L 49.515625 63.28125 
L 33.984375 0 
L 21.578125 0 
z
" id="DejaVuSans-57"/>
      </defs>
      <g transform="translate(531.420772 595.9)rotate(-90)scale(0.1 -0.1)">
       <use xlink:href="#DejaVuSans-46"/>
       <use x="57.378906" xlink:href="#DejaVuSans-61"/>
       <use x="118.658203" xlink:href="#DejaVuSans-6c"/>
       <use x="146.441406" xlink:href="#DejaVuSans-6c"/>
       <use x="174.224609" xlink:href="#DejaVuSans-20"/>
       <use x="206.011719" xlink:href="#DejaVuSans-52"/>
       <use x="275.494141" xlink:href="#DejaVuSans-69"/>
       <use x="303.277344" xlink:href="#DejaVuSans-76"/>
       <use x="362.457031" xlink:href="#DejaVuSans-65"/>
       <use x="423.980469" xlink:href="#DejaVuSans-72"/>
       <use x="465.09375" xlink:href="#DejaVuSans-20"/>
       <use x="496.880859" xlink:href="#DejaVuSans-2d"/>
       <use x="532.964844" xlink:href="#DejaVuSans-20"/>
       <use x="564.751953" xlink:href="#DejaVuSans-53"/>
       <use x="628.228516" xlink:href="#DejaVuSans-61"/>
       <use x="689.507812" xlink:href="#DejaVuSans-6d"/>
       <use x="786.919922" xlink:href="#DejaVuSans-75"/>
       <use x="850.298828" xlink:href="#DejaVuSans-65"/>
       <use x="911.822266" xlink:href="#DejaVuSans-6c"/>
       <use x="939.605469" xlink:href="#DejaVuSans-20"/>
       <use x="971.392578" xlink:href="#DejaVuSans-57"/>
       <use x="1070.175781" xlink:href="#DejaVuSans-61"/>
       <use x="1131.455078" xlink:href="#DejaVuSans-74"/>
       <use x="1170.664062" xlink:href="#DejaVuSans-73"/>
       <use x="1222.763672" xlink:href="#DejaVuSans-6f"/>
       <use x="1283.945312" xlink:href="#DejaVuSans-6e"/>
      </g>
     </g>
    </g>
    <g id="xtick_14">
     <g id="line2d_14">
      <g>
       <use style="stroke:#000000;stroke-width:0.8;" x="568.003309" xlink:href="#m7c41e61226" y="454.170312"/>
      </g>
     </g>
     <g id="text_14">
      <!-- Fall River - Spencer Borden -->
      <g transform="translate(570.762684 597.7)rotate(-90)scale(0.1 -0.1)">
       <use xlink:href="#DejaVuSans-46"/>
       <use x="57.378906" xlink:href="#DejaVuSans-61"/>
       <use x="118.658203" xlink:href="#DejaVuSans-6c"/>
       <use x="146.441406" xlink:href="#DejaVuSans-6c"/>
       <use x="174.224609" xlink:href="#DejaVuSans-20"/>
       <use x="206.011719" xlink:href="#DejaVuSans-52"/>
       <use x="275.494141" xlink:href="#DejaVuSans-69"/>
       <use x="303.277344" xlink:href="#DejaVuSans-76"/>
       <use x="362.457031" xlink:href="#DejaVuSans-65"/>
       <use x="423.980469" xlink:href="#DejaVuSans-72"/>
       <use x="465.09375" xlink:href="#DejaVuSans-20"/>
       <use x="496.880859" xlink:href="#DejaVuSans-2d"/>
       <use x="532.964844" xlink:href="#DejaVuSans-20"/>
       <use x="564.751953" xlink:href="#DejaVuSans-53"/>
       <use x="628.228516" xlink:href="#DejaVuSans-70"/>
       <use x="691.705078" xlink:href="#DejaVuSans-65"/>
       <use x="753.228516" xlink:href="#DejaVuSans-6e"/>
       <use x="816.607422" xlink:href="#DejaVuSans-63"/>
       <use x="871.587891" xlink:href="#DejaVuSans-65"/>
       <use x="933.111328" xlink:href="#DejaVuSans-72"/>
       <use x="974.224609" xlink:href="#DejaVuSans-20"/>
       <use x="1006.011719" xlink:href="#DejaVuSans-42"/>
       <use x="1074.615234" xlink:href="#DejaVuSans-6f"/>
       <use x="1135.796875" xlink:href="#DejaVuSans-72"/>
       <use x="1176.894531" xlink:href="#DejaVuSans-64"/>
       <use x="1240.371094" xlink:href="#DejaVuSans-65"/>
       <use x="1301.894531" xlink:href="#DejaVuSans-6e"/>
      </g>
     </g>
    </g>
    <g id="xtick_15">
     <g id="line2d_15">
      <g>
       <use style="stroke:#000000;stroke-width:0.8;" x="607.345221" xlink:href="#m7c41e61226" y="454.170312"/>
      </g>
     </g>
     <g id="text_15">
      <!-- Fall River - Stone PK-12 School -->
      <defs>
       <path d="M 12.40625 8.296875 
L 28.515625 8.296875 
L 28.515625 63.921875 
L 10.984375 60.40625 
L 10.984375 69.390625 
L 28.421875 72.90625 
L 38.28125 72.90625 
L 38.28125 8.296875 
L 54.390625 8.296875 
L 54.390625 0 
L 12.40625 0 
z
" id="DejaVuSans-31"/>
       <path d="M 19.1875 8.296875 
L 53.609375 8.296875 
L 53.609375 0 
L 7.328125 0 
L 7.328125 8.296875 
Q 12.9375 14.109375 22.625 23.890625 
Q 32.328125 33.6875 34.8125 36.53125 
Q 39.546875 41.84375 41.421875 45.53125 
Q 43.3125 49.21875 43.3125 52.78125 
Q 43.3125 58.59375 39.234375 62.25 
Q 35.15625 65.921875 28.609375 65.921875 
Q 23.96875 65.921875 18.8125 64.3125 
Q 13.671875 62.703125 7.8125 59.421875 
L 7.8125 69.390625 
Q 13.765625 71.78125 18.9375 73 
Q 24.125 74.21875 28.421875 74.21875 
Q 39.75 74.21875 46.484375 68.546875 
Q 53.21875 62.890625 53.21875 53.421875 
Q 53.21875 48.921875 51.53125 44.890625 
Q 49.859375 40.875 45.40625 35.40625 
Q 44.1875 33.984375 37.640625 27.21875 
Q 31.109375 20.453125 19.1875 8.296875 
z
" id="DejaVuSans-32"/>
      </defs>
      <g transform="translate(610.104596 614.982812)rotate(-90)scale(0.1 -0.1)">
       <use xlink:href="#DejaVuSans-46"/>
       <use x="57.378906" xlink:href="#DejaVuSans-61"/>
       <use x="118.658203" xlink:href="#DejaVuSans-6c"/>
       <use x="146.441406" xlink:href="#DejaVuSans-6c"/>
       <use x="174.224609" xlink:href="#DejaVuSans-20"/>
       <use x="206.011719" xlink:href="#DejaVuSans-52"/>
       <use x="275.494141" xlink:href="#DejaVuSans-69"/>
       <use x="303.277344" xlink:href="#DejaVuSans-76"/>
       <use x="362.457031" xlink:href="#DejaVuSans-65"/>
       <use x="423.980469" xlink:href="#DejaVuSans-72"/>
       <use x="465.09375" xlink:href="#DejaVuSans-20"/>
       <use x="496.880859" xlink:href="#DejaVuSans-2d"/>
       <use x="532.964844" xlink:href="#DejaVuSans-20"/>
       <use x="564.751953" xlink:href="#DejaVuSans-53"/>
       <use x="628.228516" xlink:href="#DejaVuSans-74"/>
       <use x="667.4375" xlink:href="#DejaVuSans-6f"/>
       <use x="728.619141" xlink:href="#DejaVuSans-6e"/>
       <use x="791.998047" xlink:href="#DejaVuSans-65"/>
       <use x="853.521484" xlink:href="#DejaVuSans-20"/>
       <use x="885.308594" xlink:href="#DejaVuSans-50"/>
       <use x="945.611328" xlink:href="#DejaVuSans-4b"/>
       <use x="1011.03125" xlink:href="#DejaVuSans-2d"/>
       <use x="1047.115234" xlink:href="#DejaVuSans-31"/>
       <use x="1110.738281" xlink:href="#DejaVuSans-32"/>
       <use x="1174.361328" xlink:href="#DejaVuSans-20"/>
       <use x="1206.148438" xlink:href="#DejaVuSans-53"/>
       <use x="1269.625" xlink:href="#DejaVuSans-63"/>
       <use x="1324.605469" xlink:href="#DejaVuSans-68"/>
       <use x="1387.984375" xlink:href="#DejaVuSans-6f"/>
       <use x="1449.166016" xlink:href="#DejaVuSans-6f"/>
       <use x="1510.347656" xlink:href="#DejaVuSans-6c"/>
      </g>
     </g>
    </g>
    <g id="xtick_16">
     <g id="line2d_16">
      <g>
       <use style="stroke:#000000;stroke-width:0.8;" x="646.687132" xlink:href="#m7c41e61226" y="454.170312"/>
      </g>
     </g>
     <g id="text_16">
      <!-- Fall River - Talbot Innovation School -->
      <defs>
       <path d="M 48.6875 27.296875 
Q 48.6875 37.203125 44.609375 42.84375 
Q 40.53125 48.484375 33.40625 48.484375 
Q 26.265625 48.484375 22.1875 42.84375 
Q 18.109375 37.203125 18.109375 27.296875 
Q 18.109375 17.390625 22.1875 11.75 
Q 26.265625 6.109375 33.40625 6.109375 
Q 40.53125 6.109375 44.609375 11.75 
Q 48.6875 17.390625 48.6875 27.296875 
z
M 18.109375 46.390625 
Q 20.953125 51.265625 25.265625 53.625 
Q 29.59375 56 35.59375 56 
Q 45.5625 56 51.78125 48.09375 
Q 58.015625 40.1875 58.015625 27.296875 
Q 58.015625 14.40625 51.78125 6.484375 
Q 45.5625 -1.421875 35.59375 -1.421875 
Q 29.59375 -1.421875 25.265625 0.953125 
Q 20.953125 3.328125 18.109375 8.203125 
L 18.109375 0 
L 9.078125 0 
L 9.078125 75.984375 
L 18.109375 75.984375 
z
" id="DejaVuSans-62"/>
       <path d="M 9.8125 72.90625 
L 19.671875 72.90625 
L 19.671875 0 
L 9.8125 0 
z
" id="DejaVuSans-49"/>
      </defs>
      <g transform="translate(649.446507 641.521875)rotate(-90)scale(0.1 -0.1)">
       <use xlink:href="#DejaVuSans-46"/>
       <use x="57.378906" xlink:href="#DejaVuSans-61"/>
       <use x="118.658203" xlink:href="#DejaVuSans-6c"/>
       <use x="146.441406" xlink:href="#DejaVuSans-6c"/>
       <use x="174.224609" xlink:href="#DejaVuSans-20"/>
       <use x="206.011719" xlink:href="#DejaVuSans-52"/>
       <use x="275.494141" xlink:href="#DejaVuSans-69"/>
       <use x="303.277344" xlink:href="#DejaVuSans-76"/>
       <use x="362.457031" xlink:href="#DejaVuSans-65"/>
       <use x="423.980469" xlink:href="#DejaVuSans-72"/>
       <use x="465.09375" xlink:href="#DejaVuSans-20"/>
       <use x="496.880859" xlink:href="#DejaVuSans-2d"/>
       <use x="532.964844" xlink:href="#DejaVuSans-20"/>
       <use x="564.751953" xlink:href="#DejaVuSans-54"/>
       <use x="625.585938" xlink:href="#DejaVuSans-61"/>
       <use x="686.865234" xlink:href="#DejaVuSans-6c"/>
       <use x="714.648438" xlink:href="#DejaVuSans-62"/>
       <use x="778.125" xlink:href="#DejaVuSans-6f"/>
       <use x="839.306641" xlink:href="#DejaVuSans-74"/>
       <use x="878.515625" xlink:href="#DejaVuSans-20"/>
       <use x="910.302734" xlink:href="#DejaVuSans-49"/>
       <use x="939.794922" xlink:href="#DejaVuSans-6e"/>
       <use x="1003.173828" xlink:href="#DejaVuSans-6e"/>
       <use x="1066.552734" xlink:href="#DejaVuSans-6f"/>
       <use x="1127.734375" xlink:href="#DejaVuSans-76"/>
       <use x="1186.914062" xlink:href="#DejaVuSans-61"/>
       <use x="1248.193359" xlink:href="#DejaVuSans-74"/>
       <use x="1287.402344" xlink:href="#DejaVuSans-69"/>
       <use x="1315.185547" xlink:href="#DejaVuSans-6f"/>
       <use x="1376.367188" xlink:href="#DejaVuSans-6e"/>
       <use x="1439.746094" xlink:href="#DejaVuSans-20"/>
       <use x="1471.533203" xlink:href="#DejaVuSans-53"/>
       <use x="1535.009766" xlink:href="#DejaVuSans-63"/>
       <use x="1589.990234" xlink:href="#DejaVuSans-68"/>
       <use x="1653.369141" xlink:href="#DejaVuSans-6f"/>
       <use x="1714.550781" xlink:href="#DejaVuSans-6f"/>
       <use x="1775.732422" xlink:href="#DejaVuSans-6c"/>
      </g>
     </g>
    </g>
    <g id="xtick_17">
     <g id="line2d_17">
      <g>
       <use style="stroke:#000000;stroke-width:0.8;" x="686.029044" xlink:href="#m7c41e61226" y="454.170312"/>
      </g>
     </g>
     <g id="text_17">
      <!-- Fall River - William S Greene -->
      <g transform="translate(688.788419 603.867187)rotate(-90)scale(0.1 -0.1)">
       <use xlink:href="#DejaVuSans-46"/>
       <use x="57.378906" xlink:href="#DejaVuSans-61"/>
       <use x="118.658203" xlink:href="#DejaVuSans-6c"/>
       <use x="146.441406" xlink:href="#DejaVuSans-6c"/>
       <use x="174.224609" xlink:href="#DejaVuSans-20"/>
       <use x="206.011719" xlink:href="#DejaVuSans-52"/>
       <use x="275.494141" xlink:href="#DejaVuSans-69"/>
       <use x="303.277344" xlink:href="#DejaVuSans-76"/>
       <use x="362.457031" xlink:href="#DejaVuSans-65"/>
       <use x="423.980469" xlink:href="#DejaVuSans-72"/>
       <use x="465.09375" xlink:href="#DejaVuSans-20"/>
       <use x="496.880859" xlink:href="#DejaVuSans-2d"/>
       <use x="532.964844" xlink:href="#DejaVuSans-20"/>
       <use x="564.751953" xlink:href="#DejaVuSans-57"/>
       <use x="663.597656" xlink:href="#DejaVuSans-69"/>
       <use x="691.380859" xlink:href="#DejaVuSans-6c"/>
       <use x="719.164062" xlink:href="#DejaVuSans-6c"/>
       <use x="746.947266" xlink:href="#DejaVuSans-69"/>
       <use x="774.730469" xlink:href="#DejaVuSans-61"/>
       <use x="836.009766" xlink:href="#DejaVuSans-6d"/>
       <use x="933.421875" xlink:href="#DejaVuSans-20"/>
       <use x="965.208984" xlink:href="#DejaVuSans-53"/>
       <use x="1028.685547" xlink:href="#DejaVuSans-20"/>
       <use x="1060.472656" xlink:href="#DejaVuSans-47"/>
       <use x="1137.962891" xlink:href="#DejaVuSans-72"/>
       <use x="1179.044922" xlink:href="#DejaVuSans-65"/>
       <use x="1240.568359" xlink:href="#DejaVuSans-65"/>
       <use x="1302.091797" xlink:href="#DejaVuSans-6e"/>
       <use x="1365.470703" xlink:href="#DejaVuSans-65"/>
      </g>
     </g>
    </g>
   </g>
   <g id="matplotlib.axis_2">
    <g id="ytick_1">
     <g id="line2d_18">
      <defs>
       <path d="M 0 0 
L -3.5 0 
" id="mdaf7fd248d" style="stroke:#000000;stroke-width:0.8;"/>
      </defs>
      <g>
       <use style="stroke:#000000;stroke-width:0.8;" x="36.8875" xlink:href="#mdaf7fd248d" y="454.170312"/>
      </g>
     </g>
     <g id="text_18">
      <!-- 0 -->
      <defs>
       <path d="M 31.78125 66.40625 
Q 24.171875 66.40625 20.328125 58.90625 
Q 16.5 51.421875 16.5 36.375 
Q 16.5 21.390625 20.328125 13.890625 
Q 24.171875 6.390625 31.78125 6.390625 
Q 39.453125 6.390625 43.28125 13.890625 
Q 47.125 21.390625 47.125 36.375 
Q 47.125 51.421875 43.28125 58.90625 
Q 39.453125 66.40625 31.78125 66.40625 
z
M 31.78125 74.21875 
Q 44.046875 74.21875 50.515625 64.515625 
Q 56.984375 54.828125 56.984375 36.375 
Q 56.984375 17.96875 50.515625 8.265625 
Q 44.046875 -1.421875 31.78125 -1.421875 
Q 19.53125 -1.421875 13.0625 8.265625 
Q 6.59375 17.96875 6.59375 36.375 
Q 6.59375 54.828125 13.0625 64.515625 
Q 19.53125 74.21875 31.78125 74.21875 
z
" id="DejaVuSans-30"/>
      </defs>
      <g transform="translate(23.525 457.969531)scale(0.1 -0.1)">
       <use xlink:href="#DejaVuSans-30"/>
      </g>
     </g>
    </g>
    <g id="ytick_2">
     <g id="line2d_19">
      <g>
       <use style="stroke:#000000;stroke-width:0.8;" x="36.8875" xlink:href="#mdaf7fd248d" y="370.385491"/>
      </g>
     </g>
     <g id="text_19">
      <!-- 20 -->
      <g transform="translate(17.1625 374.18471)scale(0.1 -0.1)">
       <use xlink:href="#DejaVuSans-32"/>
       <use x="63.623047" xlink:href="#DejaVuSans-30"/>
      </g>
     </g>
    </g>
    <g id="ytick_3">
     <g id="line2d_20">
      <g>
       <use style="stroke:#000000;stroke-width:0.8;" x="36.8875" xlink:href="#mdaf7fd248d" y="286.60067"/>
      </g>
     </g>
     <g id="text_20">
      <!-- 40 -->
      <defs>
       <path d="M 37.796875 64.3125 
L 12.890625 25.390625 
L 37.796875 25.390625 
z
M 35.203125 72.90625 
L 47.609375 72.90625 
L 47.609375 25.390625 
L 58.015625 25.390625 
L 58.015625 17.1875 
L 47.609375 17.1875 
L 47.609375 0 
L 37.796875 0 
L 37.796875 17.1875 
L 4.890625 17.1875 
L 4.890625 26.703125 
z
" id="DejaVuSans-34"/>
      </defs>
      <g transform="translate(17.1625 290.399888)scale(0.1 -0.1)">
       <use xlink:href="#DejaVuSans-34"/>
       <use x="63.623047" xlink:href="#DejaVuSans-30"/>
      </g>
     </g>
    </g>
    <g id="ytick_4">
     <g id="line2d_21">
      <g>
       <use style="stroke:#000000;stroke-width:0.8;" x="36.8875" xlink:href="#mdaf7fd248d" y="202.815848"/>
      </g>
     </g>
     <g id="text_21">
      <!-- 60 -->
      <defs>
       <path d="M 33.015625 40.375 
Q 26.375 40.375 22.484375 35.828125 
Q 18.609375 31.296875 18.609375 23.390625 
Q 18.609375 15.53125 22.484375 10.953125 
Q 26.375 6.390625 33.015625 6.390625 
Q 39.65625 6.390625 43.53125 10.953125 
Q 47.40625 15.53125 47.40625 23.390625 
Q 47.40625 31.296875 43.53125 35.828125 
Q 39.65625 40.375 33.015625 40.375 
z
M 52.59375 71.296875 
L 52.59375 62.3125 
Q 48.875 64.0625 45.09375 64.984375 
Q 41.3125 65.921875 37.59375 65.921875 
Q 27.828125 65.921875 22.671875 59.328125 
Q 17.53125 52.734375 16.796875 39.40625 
Q 19.671875 43.65625 24.015625 45.921875 
Q 28.375 48.1875 33.59375 48.1875 
Q 44.578125 48.1875 50.953125 41.515625 
Q 57.328125 34.859375 57.328125 23.390625 
Q 57.328125 12.15625 50.6875 5.359375 
Q 44.046875 -1.421875 33.015625 -1.421875 
Q 20.359375 -1.421875 13.671875 8.265625 
Q 6.984375 17.96875 6.984375 36.375 
Q 6.984375 53.65625 15.1875 63.9375 
Q 23.390625 74.21875 37.203125 74.21875 
Q 40.921875 74.21875 44.703125 73.484375 
Q 48.484375 72.75 52.59375 71.296875 
z
" id="DejaVuSans-36"/>
      </defs>
      <g transform="translate(17.1625 206.615067)scale(0.1 -0.1)">
       <use xlink:href="#DejaVuSans-36"/>
       <use x="63.623047" xlink:href="#DejaVuSans-30"/>
      </g>
     </g>
    </g>
    <g id="ytick_5">
     <g id="line2d_22">
      <g>
       <use style="stroke:#000000;stroke-width:0.8;" x="36.8875" xlink:href="#mdaf7fd248d" y="119.031027"/>
      </g>
     </g>
     <g id="text_22">
      <!-- 80 -->
      <defs>
       <path d="M 31.78125 34.625 
Q 24.75 34.625 20.71875 30.859375 
Q 16.703125 27.09375 16.703125 20.515625 
Q 16.703125 13.921875 20.71875 10.15625 
Q 24.75 6.390625 31.78125 6.390625 
Q 38.8125 6.390625 42.859375 10.171875 
Q 46.921875 13.96875 46.921875 20.515625 
Q 46.921875 27.09375 42.890625 30.859375 
Q 38.875 34.625 31.78125 34.625 
z
M 21.921875 38.8125 
Q 15.578125 40.375 12.03125 44.71875 
Q 8.5 49.078125 8.5 55.328125 
Q 8.5 64.0625 14.71875 69.140625 
Q 20.953125 74.21875 31.78125 74.21875 
Q 42.671875 74.21875 48.875 69.140625 
Q 55.078125 64.0625 55.078125 55.328125 
Q 55.078125 49.078125 51.53125 44.71875 
Q 48 40.375 41.703125 38.8125 
Q 48.828125 37.15625 52.796875 32.3125 
Q 56.78125 27.484375 56.78125 20.515625 
Q 56.78125 9.90625 50.3125 4.234375 
Q 43.84375 -1.421875 31.78125 -1.421875 
Q 19.734375 -1.421875 13.25 4.234375 
Q 6.78125 9.90625 6.78125 20.515625 
Q 6.78125 27.484375 10.78125 32.3125 
Q 14.796875 37.15625 21.921875 38.8125 
z
M 18.3125 54.390625 
Q 18.3125 48.734375 21.84375 45.5625 
Q 25.390625 42.390625 31.78125 42.390625 
Q 38.140625 42.390625 41.71875 45.5625 
Q 45.3125 48.734375 45.3125 54.390625 
Q 45.3125 60.0625 41.71875 63.234375 
Q 38.140625 66.40625 31.78125 66.40625 
Q 25.390625 66.40625 21.84375 63.234375 
Q 18.3125 60.0625 18.3125 54.390625 
z
" id="DejaVuSans-38"/>
      </defs>
      <g transform="translate(17.1625 122.830246)scale(0.1 -0.1)">
       <use xlink:href="#DejaVuSans-38"/>
       <use x="63.623047" xlink:href="#DejaVuSans-30"/>
      </g>
     </g>
    </g>
    <g id="ytick_6">
     <g id="line2d_23">
      <g>
       <use style="stroke:#000000;stroke-width:0.8;" x="36.8875" xlink:href="#mdaf7fd248d" y="35.246205"/>
      </g>
     </g>
     <g id="text_23">
      <!-- 100 -->
      <g transform="translate(10.8 39.045424)scale(0.1 -0.1)">
       <use xlink:href="#DejaVuSans-31"/>
       <use x="63.623047" xlink:href="#DejaVuSans-30"/>
       <use x="127.246094" xlink:href="#DejaVuSans-30"/>
      </g>
     </g>
    </g>
   </g>
   <g id="patch_71">
    <path d="M 36.8875 454.170312 
L 36.8875 14.3 
" style="fill:none;stroke:#000000;stroke-linecap:square;stroke-linejoin:miter;stroke-width:0.8;"/>
   </g>
   <g id="patch_72">
    <path d="M 705.7 454.170312 
L 705.7 14.3 
" style="fill:none;stroke:#000000;stroke-linecap:square;stroke-linejoin:miter;stroke-width:0.8;"/>
   </g>
   <g id="patch_73">
    <path d="M 36.8875 454.170312 
L 705.7 454.170312 
" style="fill:none;stroke:#000000;stroke-linecap:square;stroke-linejoin:miter;stroke-width:0.8;"/>
   </g>
   <g id="patch_74">
    <path d="M 36.8875 14.3 
L 705.7 14.3 
" style="fill:none;stroke:#000000;stroke-linecap:square;stroke-linejoin:miter;stroke-width:0.8;"/>
   </g>
   <g id="legend_1">
    <g id="patch_75">
     <path d="M 583.903125 81.0125 
L 698.7 81.0125 
Q 700.7 81.0125 700.7 79.0125 
L 700.7 21.3 
Q 700.7 19.3 698.7 19.3 
L 583.903125 19.3 
Q 581.903125 19.3 581.903125 21.3 
L 581.903125 79.0125 
Q 581.903125 81.0125 583.903125 81.0125 
z
" style="fill:#ffffff;opacity:0.8;stroke:#cccccc;stroke-linejoin:miter;"/>
    </g>
    <g id="patch_76">
     <path d="M 585.903125 30.898438 
L 605.903125 30.898438 
L 605.903125 23.898438 
L 585.903125 23.898438 
z
" style="fill:#1f77b4;"/>
    </g>
    <g id="text_24">
     <!-- AfricanAmerican -->
     <g transform="translate(613.903125 30.898438)scale(0.1 -0.1)">
      <use xlink:href="#DejaVuSans-41"/>
      <use x="68.361328" xlink:href="#DejaVuSans-66"/>
      <use x="103.566406" xlink:href="#DejaVuSans-72"/>
      <use x="144.679688" xlink:href="#DejaVuSans-69"/>
      <use x="172.462891" xlink:href="#DejaVuSans-63"/>
      <use x="227.443359" xlink:href="#DejaVuSans-61"/>
      <use x="288.722656" xlink:href="#DejaVuSans-6e"/>
      <use x="352.101562" xlink:href="#DejaVuSans-41"/>
      <use x="420.509766" xlink:href="#DejaVuSans-6d"/>
      <use x="517.921875" xlink:href="#DejaVuSans-65"/>
      <use x="579.445312" xlink:href="#DejaVuSans-72"/>
      <use x="620.558594" xlink:href="#DejaVuSans-69"/>
      <use x="648.341797" xlink:href="#DejaVuSans-63"/>
      <use x="703.322266" xlink:href="#DejaVuSans-61"/>
      <use x="764.601562" xlink:href="#DejaVuSans-6e"/>
     </g>
    </g>
    <g id="patch_77">
     <path d="M 585.903125 45.576563 
L 605.903125 45.576563 
L 605.903125 38.576563 
L 585.903125 38.576563 
z
" style="fill:#ff7f0e;"/>
    </g>
    <g id="text_25">
     <!-- Asian -->
     <g transform="translate(613.903125 45.576563)scale(0.1 -0.1)">
      <use xlink:href="#DejaVuSans-41"/>
      <use x="68.408203" xlink:href="#DejaVuSans-73"/>
      <use x="120.507812" xlink:href="#DejaVuSans-69"/>
      <use x="148.291016" xlink:href="#DejaVuSans-61"/>
      <use x="209.570312" xlink:href="#DejaVuSans-6e"/>
     </g>
    </g>
    <g id="patch_78">
     <path d="M 585.903125 60.254688 
L 605.903125 60.254688 
L 605.903125 53.254688 
L 585.903125 53.254688 
z
" style="fill:#2ca02c;"/>
    </g>
    <g id="text_26">
     <!-- White -->
     <g transform="translate(613.903125 60.254688)scale(0.1 -0.1)">
      <use xlink:href="#DejaVuSans-57"/>
      <use x="98.876953" xlink:href="#DejaVuSans-68"/>
      <use x="162.255859" xlink:href="#DejaVuSans-69"/>
      <use x="190.039062" xlink:href="#DejaVuSans-74"/>
      <use x="229.248047" xlink:href="#DejaVuSans-65"/>
     </g>
    </g>
    <g id="patch_79">
     <path d="M 585.903125 74.932812 
L 605.903125 74.932812 
L 605.903125 67.932812 
L 585.903125 67.932812 
z
" style="fill:#d62728;"/>
    </g>
    <g id="text_27">
     <!-- Hispanic -->
     <g transform="translate(613.903125 74.932812)scale(0.1 -0.1)">
      <use xlink:href="#DejaVuSans-48"/>
      <use x="75.195312" xlink:href="#DejaVuSans-69"/>
      <use x="102.978516" xlink:href="#DejaVuSans-73"/>
      <use x="155.078125" xlink:href="#DejaVuSans-70"/>
      <use x="218.554688" xlink:href="#DejaVuSans-61"/>
      <use x="279.833984" xlink:href="#DejaVuSans-6e"/>
      <use x="343.212891" xlink:href="#DejaVuSans-69"/>
      <use x="370.996094" xlink:href="#DejaVuSans-63"/>
     </g>
    </g>
   </g>
  </g>
 </g>
 <defs>
  <clipPath id="pedd5128e3c">
   <rect height="439.870312" width="668.8125" x="36.8875" y="14.3"/>
  </clipPath>
 </defs>
</svg>
