<?xml version="1.0" encoding="utf-8" standalone="no"?>
<!DOCTYPE svg PUBLIC "-//W3C//DTD SVG 1.1//EN"
  "http://www.w3.org/Graphics/SVG/1.1/DTD/svg11.dtd">
<!-- Created with matplotlib (http://matplotlib.org/) -->
<svg height="720pt" version="1.1" viewBox="0 0 720 720" width="720pt" xmlns="http://www.w3.org/2000/svg" xmlns:xlink="http://www.w3.org/1999/xlink">
 <defs>
  <style type="text/css">
*{stroke-linecap:butt;stroke-linejoin:round;}
  </style>
 </defs>
 <g id="figure_1">
  <g id="patch_1">
   <path d="M 0 720 
L 720 720 
L 720 0 
L 0 0 
z
" style="fill:#ffffff;"/>
  </g>
  <g id="axes_1">
   <g id="patch_2">
    <path d="M 40.065625 500.353125 
L 705.7 500.353125 
L 705.7 14.3 
L 40.065625 14.3 
z
" style="fill:#ffffff;"/>
   </g>
   <g id="patch_3">
    <path clip-path="url(#p8cecd24cd3)" d="M 58.555469 500.353125 
L 77.045312 500.353125 
L 77.045312 310.757934 
L 58.555469 310.757934 
z
" style="fill:#1f77b4;"/>
   </g>
   <g id="patch_4">
    <path clip-path="url(#p8cecd24cd3)" d="M 132.514844 500.353125 
L 151.004688 500.353125 
L 151.004688 424.022594 
L 132.514844 424.022594 
z
" style="fill:#1f77b4;"/>
   </g>
   <g id="patch_5">
    <path clip-path="url(#p8cecd24cd3)" d="M 206.474219 500.353125 
L 224.964063 500.353125 
L 224.964063 409.248943 
L 206.474219 409.248943 
z
" style="fill:#1f77b4;"/>
   </g>
   <g id="patch_6">
    <path clip-path="url(#p8cecd24cd3)" d="M 280.433594 500.353125 
L 298.923437 500.353125 
L 298.923437 37.445387 
L 280.433594 37.445387 
z
" style="fill:#1f77b4;"/>
   </g>
   <g id="patch_7">
    <path clip-path="url(#p8cecd24cd3)" d="M 354.392969 500.353125 
L 372.882812 500.353125 
L 372.882812 421.560319 
L 354.392969 421.560319 
z
" style="fill:#1f77b4;"/>
   </g>
   <g id="patch_8">
    <path clip-path="url(#p8cecd24cd3)" d="M 428.352344 500.353125 
L 446.842188 500.353125 
L 446.842188 320.607035 
L 428.352344 320.607035 
z
" style="fill:#1f77b4;"/>
   </g>
   <g id="patch_9">
    <path clip-path="url(#p8cecd24cd3)" d="M 502.311719 500.353125 
L 520.801563 500.353125 
L 520.801563 288.597458 
L 502.311719 288.597458 
z
" style="fill:#1f77b4;"/>
   </g>
   <g id="patch_10">
    <path clip-path="url(#p8cecd24cd3)" d="M 576.271094 500.353125 
L 594.760938 500.353125 
L 594.760938 372.314814 
L 576.271094 372.314814 
z
" style="fill:#1f77b4;"/>
   </g>
   <g id="patch_11">
    <path clip-path="url(#p8cecd24cd3)" d="M 650.230469 500.353125 
L 668.720313 500.353125 
L 668.720313 303.371109 
L 650.230469 303.371109 
z
" style="fill:#1f77b4;"/>
   </g>
   <g id="patch_12">
    <path clip-path="url(#p8cecd24cd3)" d="M 77.045312 500.353125 
L 95.535156 500.353125 
L 95.535156 460.956722 
L 77.045312 460.956722 
z
" style="fill:#ff7f0e;"/>
   </g>
   <g id="patch_13">
    <path clip-path="url(#p8cecd24cd3)" d="M 151.004687 500.353125 
L 169.494531 500.353125 
L 169.494531 488.041749 
L 151.004687 488.041749 
z
" style="fill:#ff7f0e;"/>
   </g>
   <g id="patch_14">
    <path clip-path="url(#p8cecd24cd3)" d="M 224.964063 500.353125 
L 243.453906 500.353125 
L 243.453906 500.353125 
L 224.964063 500.353125 
z
" style="fill:#ff7f0e;"/>
   </g>
   <g id="patch_15">
    <path clip-path="url(#p8cecd24cd3)" d="M 298.923437 500.353125 
L 317.413281 500.353125 
L 317.413281 335.380686 
L 298.923437 335.380686 
z
" style="fill:#ff7f0e;"/>
   </g>
   <g id="patch_16">
    <path clip-path="url(#p8cecd24cd3)" d="M 372.882812 500.353125 
L 391.372656 500.353125 
L 391.372656 500.353125 
L 372.882812 500.353125 
z
" style="fill:#ff7f0e;"/>
   </g>
   <g id="patch_17">
    <path clip-path="url(#p8cecd24cd3)" d="M 446.842188 500.353125 
L 465.332031 500.353125 
L 465.332031 500.353125 
L 446.842188 500.353125 
z
" style="fill:#ff7f0e;"/>
   </g>
   <g id="patch_18">
    <path clip-path="url(#p8cecd24cd3)" d="M 520.801563 500.353125 
L 539.291406 500.353125 
L 539.291406 478.192648 
L 520.801563 478.192648 
z
" style="fill:#ff7f0e;"/>
   </g>
   <g id="patch_19">
    <path clip-path="url(#p8cecd24cd3)" d="M 594.760938 500.353125 
L 613.250781 500.353125 
L 613.250781 485.579474 
L 594.760938 485.579474 
z
" style="fill:#ff7f0e;"/>
   </g>
   <g id="patch_20">
    <path clip-path="url(#p8cecd24cd3)" d="M 668.720313 500.353125 
L 687.210156 500.353125 
L 687.210156 441.25852 
L 668.720313 441.25852 
z
" style="fill:#ff7f0e;"/>
   </g>
   <g id="matplotlib.axis_1">
    <g id="xtick_1">
     <g id="line2d_1">
      <defs>
       <path d="M 0 0 
L 0 3.5 
" id="mfb77c1bc0a" style="stroke:#000000;stroke-width:0.8;"/>
      </defs>
      <g>
       <use style="stroke:#000000;stroke-width:0.8;" x="77.045312" xlink:href="#mfb77c1bc0a" y="500.353125"/>
      </g>
     </g>
     <g id="text_1">
      <!-- Billerica - Billerica Memorial High School -->
      <defs>
       <path d="M 19.671875 34.8125 
L 19.671875 8.109375 
L 35.5 8.109375 
Q 43.453125 8.109375 47.28125 11.40625 
Q 51.125 14.703125 51.125 21.484375 
Q 51.125 28.328125 47.28125 31.5625 
Q 43.453125 34.8125 35.5 34.8125 
z
M 19.671875 64.796875 
L 19.671875 42.828125 
L 34.28125 42.828125 
Q 41.5 42.828125 45.03125 45.53125 
Q 48.578125 48.25 48.578125 53.8125 
Q 48.578125 59.328125 45.03125 62.0625 
Q 41.5 64.796875 34.28125 64.796875 
z
M 9.8125 72.90625 
L 35.015625 72.90625 
Q 46.296875 72.90625 52.390625 68.21875 
Q 58.5 63.53125 58.5 54.890625 
Q 58.5 48.1875 55.375 44.234375 
Q 52.25 40.28125 46.1875 39.3125 
Q 53.46875 37.75 57.5 32.78125 
Q 61.53125 27.828125 61.53125 20.40625 
Q 61.53125 10.640625 54.890625 5.3125 
Q 48.25 0 35.984375 0 
L 9.8125 0 
z
" id="DejaVuSans-42"/>
       <path d="M 9.421875 54.6875 
L 18.40625 54.6875 
L 18.40625 0 
L 9.421875 0 
z
M 9.421875 75.984375 
L 18.40625 75.984375 
L 18.40625 64.59375 
L 9.421875 64.59375 
z
" id="DejaVuSans-69"/>
       <path d="M 9.421875 75.984375 
L 18.40625 75.984375 
L 18.40625 0 
L 9.421875 0 
z
" id="DejaVuSans-6c"/>
       <path d="M 56.203125 29.59375 
L 56.203125 25.203125 
L 14.890625 25.203125 
Q 15.484375 15.921875 20.484375 11.0625 
Q 25.484375 6.203125 34.421875 6.203125 
Q 39.59375 6.203125 44.453125 7.46875 
Q 49.3125 8.734375 54.109375 11.28125 
L 54.109375 2.78125 
Q 49.265625 0.734375 44.1875 -0.34375 
Q 39.109375 -1.421875 33.890625 -1.421875 
Q 20.796875 -1.421875 13.15625 6.1875 
Q 5.515625 13.8125 5.515625 26.8125 
Q 5.515625 40.234375 12.765625 48.109375 
Q 20.015625 56 32.328125 56 
Q 43.359375 56 49.78125 48.890625 
Q 56.203125 41.796875 56.203125 29.59375 
z
M 47.21875 32.234375 
Q 47.125 39.59375 43.09375 43.984375 
Q 39.0625 48.390625 32.421875 48.390625 
Q 24.90625 48.390625 20.390625 44.140625 
Q 15.875 39.890625 15.1875 32.171875 
z
" id="DejaVuSans-65"/>
       <path d="M 41.109375 46.296875 
Q 39.59375 47.171875 37.8125 47.578125 
Q 36.03125 48 33.890625 48 
Q 26.265625 48 22.1875 43.046875 
Q 18.109375 38.09375 18.109375 28.8125 
L 18.109375 0 
L 9.078125 0 
L 9.078125 54.6875 
L 18.109375 54.6875 
L 18.109375 46.1875 
Q 20.953125 51.171875 25.484375 53.578125 
Q 30.03125 56 36.53125 56 
Q 37.453125 56 38.578125 55.875 
Q 39.703125 55.765625 41.0625 55.515625 
z
" id="DejaVuSans-72"/>
       <path d="M 48.78125 52.59375 
L 48.78125 44.1875 
Q 44.96875 46.296875 41.140625 47.34375 
Q 37.3125 48.390625 33.40625 48.390625 
Q 24.65625 48.390625 19.8125 42.84375 
Q 14.984375 37.3125 14.984375 27.296875 
Q 14.984375 17.28125 19.8125 11.734375 
Q 24.65625 6.203125 33.40625 6.203125 
Q 37.3125 6.203125 41.140625 7.25 
Q 44.96875 8.296875 48.78125 10.40625 
L 48.78125 2.09375 
Q 45.015625 0.34375 40.984375 -0.53125 
Q 36.96875 -1.421875 32.421875 -1.421875 
Q 20.0625 -1.421875 12.78125 6.34375 
Q 5.515625 14.109375 5.515625 27.296875 
Q 5.515625 40.671875 12.859375 48.328125 
Q 20.21875 56 33.015625 56 
Q 37.15625 56 41.109375 55.140625 
Q 45.0625 54.296875 48.78125 52.59375 
z
" id="DejaVuSans-63"/>
       <path d="M 34.28125 27.484375 
Q 23.390625 27.484375 19.1875 25 
Q 14.984375 22.515625 14.984375 16.5 
Q 14.984375 11.71875 18.140625 8.90625 
Q 21.296875 6.109375 26.703125 6.109375 
Q 34.1875 6.109375 38.703125 11.40625 
Q 43.21875 16.703125 43.21875 25.484375 
L 43.21875 27.484375 
z
M 52.203125 31.203125 
L 52.203125 0 
L 43.21875 0 
L 43.21875 8.296875 
Q 40.140625 3.328125 35.546875 0.953125 
Q 30.953125 -1.421875 24.3125 -1.421875 
Q 15.921875 -1.421875 10.953125 3.296875 
Q 6 8.015625 6 15.921875 
Q 6 25.140625 12.171875 29.828125 
Q 18.359375 34.515625 30.609375 34.515625 
L 43.21875 34.515625 
L 43.21875 35.40625 
Q 43.21875 41.609375 39.140625 45 
Q 35.0625 48.390625 27.6875 48.390625 
Q 23 48.390625 18.546875 47.265625 
Q 14.109375 46.140625 10.015625 43.890625 
L 10.015625 52.203125 
Q 14.9375 54.109375 19.578125 55.046875 
Q 24.21875 56 28.609375 56 
Q 40.484375 56 46.34375 49.84375 
Q 52.203125 43.703125 52.203125 31.203125 
z
" id="DejaVuSans-61"/>
       <path id="DejaVuSans-20"/>
       <path d="M 4.890625 31.390625 
L 31.203125 31.390625 
L 31.203125 23.390625 
L 4.890625 23.390625 
z
" id="DejaVuSans-2d"/>
       <path d="M 9.8125 72.90625 
L 24.515625 72.90625 
L 43.109375 23.296875 
L 61.8125 72.90625 
L 76.515625 72.90625 
L 76.515625 0 
L 66.890625 0 
L 66.890625 64.015625 
L 48.09375 14.015625 
L 38.1875 14.015625 
L 19.390625 64.015625 
L 19.390625 0 
L 9.8125 0 
z
" id="DejaVuSans-4d"/>
       <path d="M 52 44.1875 
Q 55.375 50.25 60.0625 53.125 
Q 64.75 56 71.09375 56 
Q 79.640625 56 84.28125 50.015625 
Q 88.921875 44.046875 88.921875 33.015625 
L 88.921875 0 
L 79.890625 0 
L 79.890625 32.71875 
Q 79.890625 40.578125 77.09375 44.375 
Q 74.3125 48.1875 68.609375 48.1875 
Q 61.625 48.1875 57.5625 43.546875 
Q 53.515625 38.921875 53.515625 30.90625 
L 53.515625 0 
L 44.484375 0 
L 44.484375 32.71875 
Q 44.484375 40.625 41.703125 44.40625 
Q 38.921875 48.1875 33.109375 48.1875 
Q 26.21875 48.1875 22.15625 43.53125 
Q 18.109375 38.875 18.109375 30.90625 
L 18.109375 0 
L 9.078125 0 
L 9.078125 54.6875 
L 18.109375 54.6875 
L 18.109375 46.1875 
Q 21.1875 51.21875 25.484375 53.609375 
Q 29.78125 56 35.6875 56 
Q 41.65625 56 45.828125 52.96875 
Q 50 49.953125 52 44.1875 
z
" id="DejaVuSans-6d"/>
       <path d="M 30.609375 48.390625 
Q 23.390625 48.390625 19.1875 42.75 
Q 14.984375 37.109375 14.984375 27.296875 
Q 14.984375 17.484375 19.15625 11.84375 
Q 23.34375 6.203125 30.609375 6.203125 
Q 37.796875 6.203125 41.984375 11.859375 
Q 46.1875 17.53125 46.1875 27.296875 
Q 46.1875 37.015625 41.984375 42.703125 
Q 37.796875 48.390625 30.609375 48.390625 
z
M 30.609375 56 
Q 42.328125 56 49.015625 48.375 
Q 55.71875 40.765625 55.71875 27.296875 
Q 55.71875 13.875 49.015625 6.21875 
Q 42.328125 -1.421875 30.609375 -1.421875 
Q 18.84375 -1.421875 12.171875 6.21875 
Q 5.515625 13.875 5.515625 27.296875 
Q 5.515625 40.765625 12.171875 48.375 
Q 18.84375 56 30.609375 56 
z
" id="DejaVuSans-6f"/>
       <path d="M 9.8125 72.90625 
L 19.671875 72.90625 
L 19.671875 43.015625 
L 55.515625 43.015625 
L 55.515625 72.90625 
L 65.375 72.90625 
L 65.375 0 
L 55.515625 0 
L 55.515625 34.71875 
L 19.671875 34.71875 
L 19.671875 0 
L 9.8125 0 
z
" id="DejaVuSans-48"/>
       <path d="M 45.40625 27.984375 
Q 45.40625 37.75 41.375 43.109375 
Q 37.359375 48.484375 30.078125 48.484375 
Q 22.859375 48.484375 18.828125 43.109375 
Q 14.796875 37.75 14.796875 27.984375 
Q 14.796875 18.265625 18.828125 12.890625 
Q 22.859375 7.515625 30.078125 7.515625 
Q 37.359375 7.515625 41.375 12.890625 
Q 45.40625 18.265625 45.40625 27.984375 
z
M 54.390625 6.78125 
Q 54.390625 -7.171875 48.1875 -13.984375 
Q 42 -20.796875 29.203125 -20.796875 
Q 24.46875 -20.796875 20.265625 -20.09375 
Q 16.0625 -19.390625 12.109375 -17.921875 
L 12.109375 -9.1875 
Q 16.0625 -11.328125 19.921875 -12.34375 
Q 23.78125 -13.375 27.78125 -13.375 
Q 36.625 -13.375 41.015625 -8.765625 
Q 45.40625 -4.15625 45.40625 5.171875 
L 45.40625 9.625 
Q 42.625 4.78125 38.28125 2.390625 
Q 33.9375 0 27.875 0 
Q 17.828125 0 11.671875 7.65625 
Q 5.515625 15.328125 5.515625 27.984375 
Q 5.515625 40.671875 11.671875 48.328125 
Q 17.828125 56 27.875 56 
Q 33.9375 56 38.28125 53.609375 
Q 42.625 51.21875 45.40625 46.390625 
L 45.40625 54.6875 
L 54.390625 54.6875 
z
" id="DejaVuSans-67"/>
       <path d="M 54.890625 33.015625 
L 54.890625 0 
L 45.90625 0 
L 45.90625 32.71875 
Q 45.90625 40.484375 42.875 44.328125 
Q 39.84375 48.1875 33.796875 48.1875 
Q 26.515625 48.1875 22.3125 43.546875 
Q 18.109375 38.921875 18.109375 30.90625 
L 18.109375 0 
L 9.078125 0 
L 9.078125 75.984375 
L 18.109375 75.984375 
L 18.109375 46.1875 
Q 21.34375 51.125 25.703125 53.5625 
Q 30.078125 56 35.796875 56 
Q 45.21875 56 50.046875 50.171875 
Q 54.890625 44.34375 54.890625 33.015625 
z
" id="DejaVuSans-68"/>
       <path d="M 53.515625 70.515625 
L 53.515625 60.890625 
Q 47.90625 63.578125 42.921875 64.890625 
Q 37.9375 66.21875 33.296875 66.21875 
Q 25.25 66.21875 20.875 63.09375 
Q 16.5 59.96875 16.5 54.203125 
Q 16.5 49.359375 19.40625 46.890625 
Q 22.3125 44.4375 30.421875 42.921875 
L 36.375 41.703125 
Q 47.40625 39.59375 52.65625 34.296875 
Q 57.90625 29 57.90625 20.125 
Q 57.90625 9.515625 50.796875 4.046875 
Q 43.703125 -1.421875 29.984375 -1.421875 
Q 24.8125 -1.421875 18.96875 -0.25 
Q 13.140625 0.921875 6.890625 3.21875 
L 6.890625 13.375 
Q 12.890625 10.015625 18.65625 8.296875 
Q 24.421875 6.59375 29.984375 6.59375 
Q 38.421875 6.59375 43.015625 9.90625 
Q 47.609375 13.234375 47.609375 19.390625 
Q 47.609375 24.75 44.3125 27.78125 
Q 41.015625 30.8125 33.5 32.328125 
L 27.484375 33.5 
Q 16.453125 35.6875 11.515625 40.375 
Q 6.59375 45.0625 6.59375 53.421875 
Q 6.59375 63.09375 13.40625 68.65625 
Q 20.21875 74.21875 32.171875 74.21875 
Q 37.3125 74.21875 42.625 73.28125 
Q 47.953125 72.359375 53.515625 70.515625 
z
" id="DejaVuSans-53"/>
      </defs>
      <g transform="translate(79.804687 709.2)rotate(-90)scale(0.1 -0.1)">
       <use xlink:href="#DejaVuSans-42"/>
       <use x="68.603516" xlink:href="#DejaVuSans-69"/>
       <use x="96.386719" xlink:href="#DejaVuSans-6c"/>
       <use x="124.169922" xlink:href="#DejaVuSans-6c"/>
       <use x="151.953125" xlink:href="#DejaVuSans-65"/>
       <use x="213.476562" xlink:href="#DejaVuSans-72"/>
       <use x="254.589844" xlink:href="#DejaVuSans-69"/>
       <use x="282.373047" xlink:href="#DejaVuSans-63"/>
       <use x="337.353516" xlink:href="#DejaVuSans-61"/>
       <use x="398.632812" xlink:href="#DejaVuSans-20"/>
       <use x="430.419922" xlink:href="#DejaVuSans-2d"/>
       <use x="466.503906" xlink:href="#DejaVuSans-20"/>
       <use x="498.291016" xlink:href="#DejaVuSans-42"/>
       <use x="566.894531" xlink:href="#DejaVuSans-69"/>
       <use x="594.677734" xlink:href="#DejaVuSans-6c"/>
       <use x="622.460938" xlink:href="#DejaVuSans-6c"/>
       <use x="650.244141" xlink:href="#DejaVuSans-65"/>
       <use x="711.767578" xlink:href="#DejaVuSans-72"/>
       <use x="752.880859" xlink:href="#DejaVuSans-69"/>
       <use x="780.664062" xlink:href="#DejaVuSans-63"/>
       <use x="835.644531" xlink:href="#DejaVuSans-61"/>
       <use x="896.923828" xlink:href="#DejaVuSans-20"/>
       <use x="928.710938" xlink:href="#DejaVuSans-4d"/>
       <use x="1014.990234" xlink:href="#DejaVuSans-65"/>
       <use x="1076.513672" xlink:href="#DejaVuSans-6d"/>
       <use x="1173.925781" xlink:href="#DejaVuSans-6f"/>
       <use x="1235.107422" xlink:href="#DejaVuSans-72"/>
       <use x="1276.220703" xlink:href="#DejaVuSans-69"/>
       <use x="1304.003906" xlink:href="#DejaVuSans-61"/>
       <use x="1365.283203" xlink:href="#DejaVuSans-6c"/>
       <use x="1393.066406" xlink:href="#DejaVuSans-20"/>
       <use x="1424.853516" xlink:href="#DejaVuSans-48"/>
       <use x="1500.048828" xlink:href="#DejaVuSans-69"/>
       <use x="1527.832031" xlink:href="#DejaVuSans-67"/>
       <use x="1591.308594" xlink:href="#DejaVuSans-68"/>
       <use x="1654.6875" xlink:href="#DejaVuSans-20"/>
       <use x="1686.474609" xlink:href="#DejaVuSans-53"/>
       <use x="1749.951172" xlink:href="#DejaVuSans-63"/>
       <use x="1804.931641" xlink:href="#DejaVuSans-68"/>
       <use x="1868.310547" xlink:href="#DejaVuSans-6f"/>
       <use x="1929.492188" xlink:href="#DejaVuSans-6f"/>
       <use x="1990.673828" xlink:href="#DejaVuSans-6c"/>
      </g>
     </g>
    </g>
    <g id="xtick_2">
     <g id="line2d_2">
      <g>
       <use style="stroke:#000000;stroke-width:0.8;" x="151.004687" xlink:href="#mfb77c1bc0a" y="500.353125"/>
      </g>
     </g>
     <g id="text_2">
      <!-- Billerica - Eugene C Vining -->
      <defs>
       <path d="M 9.8125 72.90625 
L 55.90625 72.90625 
L 55.90625 64.59375 
L 19.671875 64.59375 
L 19.671875 43.015625 
L 54.390625 43.015625 
L 54.390625 34.71875 
L 19.671875 34.71875 
L 19.671875 8.296875 
L 56.78125 8.296875 
L 56.78125 0 
L 9.8125 0 
z
" id="DejaVuSans-45"/>
       <path d="M 8.5 21.578125 
L 8.5 54.6875 
L 17.484375 54.6875 
L 17.484375 21.921875 
Q 17.484375 14.15625 20.5 10.265625 
Q 23.53125 6.390625 29.59375 6.390625 
Q 36.859375 6.390625 41.078125 11.03125 
Q 45.3125 15.671875 45.3125 23.6875 
L 45.3125 54.6875 
L 54.296875 54.6875 
L 54.296875 0 
L 45.3125 0 
L 45.3125 8.40625 
Q 42.046875 3.421875 37.71875 1 
Q 33.40625 -1.421875 27.6875 -1.421875 
Q 18.265625 -1.421875 13.375 4.4375 
Q 8.5 10.296875 8.5 21.578125 
z
M 31.109375 56 
z
" id="DejaVuSans-75"/>
       <path d="M 54.890625 33.015625 
L 54.890625 0 
L 45.90625 0 
L 45.90625 32.71875 
Q 45.90625 40.484375 42.875 44.328125 
Q 39.84375 48.1875 33.796875 48.1875 
Q 26.515625 48.1875 22.3125 43.546875 
Q 18.109375 38.921875 18.109375 30.90625 
L 18.109375 0 
L 9.078125 0 
L 9.078125 54.6875 
L 18.109375 54.6875 
L 18.109375 46.1875 
Q 21.34375 51.125 25.703125 53.5625 
Q 30.078125 56 35.796875 56 
Q 45.21875 56 50.046875 50.171875 
Q 54.890625 44.34375 54.890625 33.015625 
z
" id="DejaVuSans-6e"/>
       <path d="M 64.40625 67.28125 
L 64.40625 56.890625 
Q 59.421875 61.53125 53.78125 63.8125 
Q 48.140625 66.109375 41.796875 66.109375 
Q 29.296875 66.109375 22.65625 58.46875 
Q 16.015625 50.828125 16.015625 36.375 
Q 16.015625 21.96875 22.65625 14.328125 
Q 29.296875 6.6875 41.796875 6.6875 
Q 48.140625 6.6875 53.78125 8.984375 
Q 59.421875 11.28125 64.40625 15.921875 
L 64.40625 5.609375 
Q 59.234375 2.09375 53.4375 0.328125 
Q 47.65625 -1.421875 41.21875 -1.421875 
Q 24.65625 -1.421875 15.125 8.703125 
Q 5.609375 18.84375 5.609375 36.375 
Q 5.609375 53.953125 15.125 64.078125 
Q 24.65625 74.21875 41.21875 74.21875 
Q 47.75 74.21875 53.53125 72.484375 
Q 59.328125 70.75 64.40625 67.28125 
z
" id="DejaVuSans-43"/>
       <path d="M 28.609375 0 
L 0.78125 72.90625 
L 11.078125 72.90625 
L 34.1875 11.53125 
L 57.328125 72.90625 
L 67.578125 72.90625 
L 39.796875 0 
z
" id="DejaVuSans-56"/>
      </defs>
      <g transform="translate(153.764062 639.585938)rotate(-90)scale(0.1 -0.1)">
       <use xlink:href="#DejaVuSans-42"/>
       <use x="68.603516" xlink:href="#DejaVuSans-69"/>
       <use x="96.386719" xlink:href="#DejaVuSans-6c"/>
       <use x="124.169922" xlink:href="#DejaVuSans-6c"/>
       <use x="151.953125" xlink:href="#DejaVuSans-65"/>
       <use x="213.476562" xlink:href="#DejaVuSans-72"/>
       <use x="254.589844" xlink:href="#DejaVuSans-69"/>
       <use x="282.373047" xlink:href="#DejaVuSans-63"/>
       <use x="337.353516" xlink:href="#DejaVuSans-61"/>
       <use x="398.632812" xlink:href="#DejaVuSans-20"/>
       <use x="430.419922" xlink:href="#DejaVuSans-2d"/>
       <use x="466.503906" xlink:href="#DejaVuSans-20"/>
       <use x="498.291016" xlink:href="#DejaVuSans-45"/>
       <use x="561.474609" xlink:href="#DejaVuSans-75"/>
       <use x="624.853516" xlink:href="#DejaVuSans-67"/>
       <use x="688.330078" xlink:href="#DejaVuSans-65"/>
       <use x="749.853516" xlink:href="#DejaVuSans-6e"/>
       <use x="813.232422" xlink:href="#DejaVuSans-65"/>
       <use x="874.755859" xlink:href="#DejaVuSans-20"/>
       <use x="906.542969" xlink:href="#DejaVuSans-43"/>
       <use x="976.367188" xlink:href="#DejaVuSans-20"/>
       <use x="1008.154297" xlink:href="#DejaVuSans-56"/>
       <use x="1076.53125" xlink:href="#DejaVuSans-69"/>
       <use x="1104.314453" xlink:href="#DejaVuSans-6e"/>
       <use x="1167.693359" xlink:href="#DejaVuSans-69"/>
       <use x="1195.476562" xlink:href="#DejaVuSans-6e"/>
       <use x="1258.855469" xlink:href="#DejaVuSans-67"/>
      </g>
     </g>
    </g>
    <g id="xtick_3">
     <g id="line2d_3">
      <g>
       <use style="stroke:#000000;stroke-width:0.8;" x="224.964063" xlink:href="#mfb77c1bc0a" y="500.353125"/>
      </g>
     </g>
     <g id="text_3">
      <!-- Billerica - Frederick J Dutile -->
      <defs>
       <path d="M 9.8125 72.90625 
L 51.703125 72.90625 
L 51.703125 64.59375 
L 19.671875 64.59375 
L 19.671875 43.109375 
L 48.578125 43.109375 
L 48.578125 34.8125 
L 19.671875 34.8125 
L 19.671875 0 
L 9.8125 0 
z
" id="DejaVuSans-46"/>
       <path d="M 45.40625 46.390625 
L 45.40625 75.984375 
L 54.390625 75.984375 
L 54.390625 0 
L 45.40625 0 
L 45.40625 8.203125 
Q 42.578125 3.328125 38.25 0.953125 
Q 33.9375 -1.421875 27.875 -1.421875 
Q 17.96875 -1.421875 11.734375 6.484375 
Q 5.515625 14.40625 5.515625 27.296875 
Q 5.515625 40.1875 11.734375 48.09375 
Q 17.96875 56 27.875 56 
Q 33.9375 56 38.25 53.625 
Q 42.578125 51.265625 45.40625 46.390625 
z
M 14.796875 27.296875 
Q 14.796875 17.390625 18.875 11.75 
Q 22.953125 6.109375 30.078125 6.109375 
Q 37.203125 6.109375 41.296875 11.75 
Q 45.40625 17.390625 45.40625 27.296875 
Q 45.40625 37.203125 41.296875 42.84375 
Q 37.203125 48.484375 30.078125 48.484375 
Q 22.953125 48.484375 18.875 42.84375 
Q 14.796875 37.203125 14.796875 27.296875 
z
" id="DejaVuSans-64"/>
       <path d="M 9.078125 75.984375 
L 18.109375 75.984375 
L 18.109375 31.109375 
L 44.921875 54.6875 
L 56.390625 54.6875 
L 27.390625 29.109375 
L 57.625 0 
L 45.90625 0 
L 18.109375 26.703125 
L 18.109375 0 
L 9.078125 0 
z
" id="DejaVuSans-6b"/>
       <path d="M 9.8125 72.90625 
L 19.671875 72.90625 
L 19.671875 5.078125 
Q 19.671875 -8.109375 14.671875 -14.0625 
Q 9.671875 -20.015625 -1.421875 -20.015625 
L -5.171875 -20.015625 
L -5.171875 -11.71875 
L -2.09375 -11.71875 
Q 4.4375 -11.71875 7.125 -8.046875 
Q 9.8125 -4.390625 9.8125 5.078125 
z
" id="DejaVuSans-4a"/>
       <path d="M 19.671875 64.796875 
L 19.671875 8.109375 
L 31.59375 8.109375 
Q 46.6875 8.109375 53.6875 14.9375 
Q 60.6875 21.78125 60.6875 36.53125 
Q 60.6875 51.171875 53.6875 57.984375 
Q 46.6875 64.796875 31.59375 64.796875 
z
M 9.8125 72.90625 
L 30.078125 72.90625 
Q 51.265625 72.90625 61.171875 64.09375 
Q 71.09375 55.28125 71.09375 36.53125 
Q 71.09375 17.671875 61.125 8.828125 
Q 51.171875 0 30.078125 0 
L 9.8125 0 
z
" id="DejaVuSans-44"/>
       <path d="M 18.3125 70.21875 
L 18.3125 54.6875 
L 36.8125 54.6875 
L 36.8125 47.703125 
L 18.3125 47.703125 
L 18.3125 18.015625 
Q 18.3125 11.328125 20.140625 9.421875 
Q 21.96875 7.515625 27.59375 7.515625 
L 36.8125 7.515625 
L 36.8125 0 
L 27.59375 0 
Q 17.1875 0 13.234375 3.875 
Q 9.28125 7.765625 9.28125 18.015625 
L 9.28125 47.703125 
L 2.6875 47.703125 
L 2.6875 54.6875 
L 9.28125 54.6875 
L 9.28125 70.21875 
z
" id="DejaVuSans-74"/>
      </defs>
      <g transform="translate(227.723438 642.835938)rotate(-90)scale(0.1 -0.1)">
       <use xlink:href="#DejaVuSans-42"/>
       <use x="68.603516" xlink:href="#DejaVuSans-69"/>
       <use x="96.386719" xlink:href="#DejaVuSans-6c"/>
       <use x="124.169922" xlink:href="#DejaVuSans-6c"/>
       <use x="151.953125" xlink:href="#DejaVuSans-65"/>
       <use x="213.476562" xlink:href="#DejaVuSans-72"/>
       <use x="254.589844" xlink:href="#DejaVuSans-69"/>
       <use x="282.373047" xlink:href="#DejaVuSans-63"/>
       <use x="337.353516" xlink:href="#DejaVuSans-61"/>
       <use x="398.632812" xlink:href="#DejaVuSans-20"/>
       <use x="430.419922" xlink:href="#DejaVuSans-2d"/>
       <use x="466.503906" xlink:href="#DejaVuSans-20"/>
       <use x="498.291016" xlink:href="#DejaVuSans-46"/>
       <use x="555.701172" xlink:href="#DejaVuSans-72"/>
       <use x="596.783203" xlink:href="#DejaVuSans-65"/>
       <use x="658.306641" xlink:href="#DejaVuSans-64"/>
       <use x="721.783203" xlink:href="#DejaVuSans-65"/>
       <use x="783.306641" xlink:href="#DejaVuSans-72"/>
       <use x="824.419922" xlink:href="#DejaVuSans-69"/>
       <use x="852.203125" xlink:href="#DejaVuSans-63"/>
       <use x="907.183594" xlink:href="#DejaVuSans-6b"/>
       <use x="965.09375" xlink:href="#DejaVuSans-20"/>
       <use x="996.880859" xlink:href="#DejaVuSans-4a"/>
       <use x="1026.373047" xlink:href="#DejaVuSans-20"/>
       <use x="1058.160156" xlink:href="#DejaVuSans-44"/>
       <use x="1135.162109" xlink:href="#DejaVuSans-75"/>
       <use x="1198.541016" xlink:href="#DejaVuSans-74"/>
       <use x="1237.75" xlink:href="#DejaVuSans-69"/>
       <use x="1265.533203" xlink:href="#DejaVuSans-6c"/>
       <use x="1293.316406" xlink:href="#DejaVuSans-65"/>
      </g>
     </g>
    </g>
    <g id="xtick_4">
     <g id="line2d_4">
      <g>
       <use style="stroke:#000000;stroke-width:0.8;" x="298.923437" xlink:href="#mfb77c1bc0a" y="500.353125"/>
      </g>
     </g>
     <g id="text_4">
      <!-- Billerica - Hajjar Elementary -->
      <defs>
       <path d="M 9.421875 54.6875 
L 18.40625 54.6875 
L 18.40625 -0.984375 
Q 18.40625 -11.421875 14.421875 -16.109375 
Q 10.453125 -20.796875 1.609375 -20.796875 
L -1.8125 -20.796875 
L -1.8125 -13.1875 
L 0.59375 -13.1875 
Q 5.71875 -13.1875 7.5625 -10.8125 
Q 9.421875 -8.453125 9.421875 -0.984375 
z
M 9.421875 75.984375 
L 18.40625 75.984375 
L 18.40625 64.59375 
L 9.421875 64.59375 
z
" id="DejaVuSans-6a"/>
       <path d="M 32.171875 -5.078125 
Q 28.375 -14.84375 24.75 -17.8125 
Q 21.140625 -20.796875 15.09375 -20.796875 
L 7.90625 -20.796875 
L 7.90625 -13.28125 
L 13.1875 -13.28125 
Q 16.890625 -13.28125 18.9375 -11.515625 
Q 21 -9.765625 23.484375 -3.21875 
L 25.09375 0.875 
L 2.984375 54.6875 
L 12.5 54.6875 
L 29.59375 11.921875 
L 46.6875 54.6875 
L 56.203125 54.6875 
z
" id="DejaVuSans-79"/>
      </defs>
      <g transform="translate(301.682812 647.3625)rotate(-90)scale(0.1 -0.1)">
       <use xlink:href="#DejaVuSans-42"/>
       <use x="68.603516" xlink:href="#DejaVuSans-69"/>
       <use x="96.386719" xlink:href="#DejaVuSans-6c"/>
       <use x="124.169922" xlink:href="#DejaVuSans-6c"/>
       <use x="151.953125" xlink:href="#DejaVuSans-65"/>
       <use x="213.476562" xlink:href="#DejaVuSans-72"/>
       <use x="254.589844" xlink:href="#DejaVuSans-69"/>
       <use x="282.373047" xlink:href="#DejaVuSans-63"/>
       <use x="337.353516" xlink:href="#DejaVuSans-61"/>
       <use x="398.632812" xlink:href="#DejaVuSans-20"/>
       <use x="430.419922" xlink:href="#DejaVuSans-2d"/>
       <use x="466.503906" xlink:href="#DejaVuSans-20"/>
       <use x="498.291016" xlink:href="#DejaVuSans-48"/>
       <use x="573.486328" xlink:href="#DejaVuSans-61"/>
       <use x="634.765625" xlink:href="#DejaVuSans-6a"/>
       <use x="662.548828" xlink:href="#DejaVuSans-6a"/>
       <use x="690.332031" xlink:href="#DejaVuSans-61"/>
       <use x="751.611328" xlink:href="#DejaVuSans-72"/>
       <use x="792.724609" xlink:href="#DejaVuSans-20"/>
       <use x="824.511719" xlink:href="#DejaVuSans-45"/>
       <use x="887.695312" xlink:href="#DejaVuSans-6c"/>
       <use x="915.478516" xlink:href="#DejaVuSans-65"/>
       <use x="977.001953" xlink:href="#DejaVuSans-6d"/>
       <use x="1074.414062" xlink:href="#DejaVuSans-65"/>
       <use x="1135.9375" xlink:href="#DejaVuSans-6e"/>
       <use x="1199.316406" xlink:href="#DejaVuSans-74"/>
       <use x="1238.525391" xlink:href="#DejaVuSans-61"/>
       <use x="1299.804688" xlink:href="#DejaVuSans-72"/>
       <use x="1340.917969" xlink:href="#DejaVuSans-79"/>
      </g>
     </g>
    </g>
    <g id="xtick_5">
     <g id="line2d_5">
      <g>
       <use style="stroke:#000000;stroke-width:0.8;" x="372.882812" xlink:href="#mfb77c1bc0a" y="500.353125"/>
      </g>
     </g>
     <g id="text_5">
      <!-- Billerica - John F Kennedy -->
      <defs>
       <path d="M 9.8125 72.90625 
L 19.671875 72.90625 
L 19.671875 42.09375 
L 52.390625 72.90625 
L 65.09375 72.90625 
L 28.90625 38.921875 
L 67.671875 0 
L 54.6875 0 
L 19.671875 35.109375 
L 19.671875 0 
L 9.8125 0 
z
" id="DejaVuSans-4b"/>
      </defs>
      <g transform="translate(375.642187 634.83125)rotate(-90)scale(0.1 -0.1)">
       <use xlink:href="#DejaVuSans-42"/>
       <use x="68.603516" xlink:href="#DejaVuSans-69"/>
       <use x="96.386719" xlink:href="#DejaVuSans-6c"/>
       <use x="124.169922" xlink:href="#DejaVuSans-6c"/>
       <use x="151.953125" xlink:href="#DejaVuSans-65"/>
       <use x="213.476562" xlink:href="#DejaVuSans-72"/>
       <use x="254.589844" xlink:href="#DejaVuSans-69"/>
       <use x="282.373047" xlink:href="#DejaVuSans-63"/>
       <use x="337.353516" xlink:href="#DejaVuSans-61"/>
       <use x="398.632812" xlink:href="#DejaVuSans-20"/>
       <use x="430.419922" xlink:href="#DejaVuSans-2d"/>
       <use x="466.503906" xlink:href="#DejaVuSans-20"/>
       <use x="498.291016" xlink:href="#DejaVuSans-4a"/>
       <use x="527.783203" xlink:href="#DejaVuSans-6f"/>
       <use x="588.964844" xlink:href="#DejaVuSans-68"/>
       <use x="652.34375" xlink:href="#DejaVuSans-6e"/>
       <use x="715.722656" xlink:href="#DejaVuSans-20"/>
       <use x="747.509766" xlink:href="#DejaVuSans-46"/>
       <use x="805.029297" xlink:href="#DejaVuSans-20"/>
       <use x="836.816406" xlink:href="#DejaVuSans-4b"/>
       <use x="902.314453" xlink:href="#DejaVuSans-65"/>
       <use x="963.837891" xlink:href="#DejaVuSans-6e"/>
       <use x="1027.216797" xlink:href="#DejaVuSans-6e"/>
       <use x="1090.595703" xlink:href="#DejaVuSans-65"/>
       <use x="1152.119141" xlink:href="#DejaVuSans-64"/>
       <use x="1215.595703" xlink:href="#DejaVuSans-79"/>
      </g>
     </g>
    </g>
    <g id="xtick_6">
     <g id="line2d_6">
      <g>
       <use style="stroke:#000000;stroke-width:0.8;" x="446.842188" xlink:href="#mfb77c1bc0a" y="500.353125"/>
      </g>
     </g>
     <g id="text_6">
      <!-- Billerica - Locke Middle -->
      <defs>
       <path d="M 9.8125 72.90625 
L 19.671875 72.90625 
L 19.671875 8.296875 
L 55.171875 8.296875 
L 55.171875 0 
L 9.8125 0 
z
" id="DejaVuSans-4c"/>
      </defs>
      <g transform="translate(449.601562 622.520313)rotate(-90)scale(0.1 -0.1)">
       <use xlink:href="#DejaVuSans-42"/>
       <use x="68.603516" xlink:href="#DejaVuSans-69"/>
       <use x="96.386719" xlink:href="#DejaVuSans-6c"/>
       <use x="124.169922" xlink:href="#DejaVuSans-6c"/>
       <use x="151.953125" xlink:href="#DejaVuSans-65"/>
       <use x="213.476562" xlink:href="#DejaVuSans-72"/>
       <use x="254.589844" xlink:href="#DejaVuSans-69"/>
       <use x="282.373047" xlink:href="#DejaVuSans-63"/>
       <use x="337.353516" xlink:href="#DejaVuSans-61"/>
       <use x="398.632812" xlink:href="#DejaVuSans-20"/>
       <use x="430.419922" xlink:href="#DejaVuSans-2d"/>
       <use x="466.503906" xlink:href="#DejaVuSans-20"/>
       <use x="498.291016" xlink:href="#DejaVuSans-4c"/>
       <use x="553.988281" xlink:href="#DejaVuSans-6f"/>
       <use x="615.169922" xlink:href="#DejaVuSans-63"/>
       <use x="670.150391" xlink:href="#DejaVuSans-6b"/>
       <use x="728.013672" xlink:href="#DejaVuSans-65"/>
       <use x="789.537109" xlink:href="#DejaVuSans-20"/>
       <use x="821.324219" xlink:href="#DejaVuSans-4d"/>
       <use x="907.603516" xlink:href="#DejaVuSans-69"/>
       <use x="935.386719" xlink:href="#DejaVuSans-64"/>
       <use x="998.863281" xlink:href="#DejaVuSans-64"/>
       <use x="1062.339844" xlink:href="#DejaVuSans-6c"/>
       <use x="1090.123047" xlink:href="#DejaVuSans-65"/>
      </g>
     </g>
    </g>
    <g id="xtick_7">
     <g id="line2d_7">
      <g>
       <use style="stroke:#000000;stroke-width:0.8;" x="520.801563" xlink:href="#mfb77c1bc0a" y="500.353125"/>
      </g>
     </g>
     <g id="text_7">
      <!-- Billerica - Marshall Middle School -->
      <defs>
       <path d="M 44.28125 53.078125 
L 44.28125 44.578125 
Q 40.484375 46.53125 36.375 47.5 
Q 32.28125 48.484375 27.875 48.484375 
Q 21.1875 48.484375 17.84375 46.4375 
Q 14.5 44.390625 14.5 40.28125 
Q 14.5 37.15625 16.890625 35.375 
Q 19.28125 33.59375 26.515625 31.984375 
L 29.59375 31.296875 
Q 39.15625 29.25 43.1875 25.515625 
Q 47.21875 21.78125 47.21875 15.09375 
Q 47.21875 7.46875 41.1875 3.015625 
Q 35.15625 -1.421875 24.609375 -1.421875 
Q 20.21875 -1.421875 15.453125 -0.5625 
Q 10.6875 0.296875 5.421875 2 
L 5.421875 11.28125 
Q 10.40625 8.6875 15.234375 7.390625 
Q 20.0625 6.109375 24.8125 6.109375 
Q 31.15625 6.109375 34.5625 8.28125 
Q 37.984375 10.453125 37.984375 14.40625 
Q 37.984375 18.0625 35.515625 20.015625 
Q 33.0625 21.96875 24.703125 23.78125 
L 21.578125 24.515625 
Q 13.234375 26.265625 9.515625 29.90625 
Q 5.8125 33.546875 5.8125 39.890625 
Q 5.8125 47.609375 11.28125 51.796875 
Q 16.75 56 26.8125 56 
Q 31.78125 56 36.171875 55.265625 
Q 40.578125 54.546875 44.28125 53.078125 
z
" id="DejaVuSans-73"/>
      </defs>
      <g transform="translate(523.560938 671.870312)rotate(-90)scale(0.1 -0.1)">
       <use xlink:href="#DejaVuSans-42"/>
       <use x="68.603516" xlink:href="#DejaVuSans-69"/>
       <use x="96.386719" xlink:href="#DejaVuSans-6c"/>
       <use x="124.169922" xlink:href="#DejaVuSans-6c"/>
       <use x="151.953125" xlink:href="#DejaVuSans-65"/>
       <use x="213.476562" xlink:href="#DejaVuSans-72"/>
       <use x="254.589844" xlink:href="#DejaVuSans-69"/>
       <use x="282.373047" xlink:href="#DejaVuSans-63"/>
       <use x="337.353516" xlink:href="#DejaVuSans-61"/>
       <use x="398.632812" xlink:href="#DejaVuSans-20"/>
       <use x="430.419922" xlink:href="#DejaVuSans-2d"/>
       <use x="466.503906" xlink:href="#DejaVuSans-20"/>
       <use x="498.291016" xlink:href="#DejaVuSans-4d"/>
       <use x="584.570312" xlink:href="#DejaVuSans-61"/>
       <use x="645.849609" xlink:href="#DejaVuSans-72"/>
       <use x="686.962891" xlink:href="#DejaVuSans-73"/>
       <use x="739.0625" xlink:href="#DejaVuSans-68"/>
       <use x="802.441406" xlink:href="#DejaVuSans-61"/>
       <use x="863.720703" xlink:href="#DejaVuSans-6c"/>
       <use x="891.503906" xlink:href="#DejaVuSans-6c"/>
       <use x="919.287109" xlink:href="#DejaVuSans-20"/>
       <use x="951.074219" xlink:href="#DejaVuSans-4d"/>
       <use x="1037.353516" xlink:href="#DejaVuSans-69"/>
       <use x="1065.136719" xlink:href="#DejaVuSans-64"/>
       <use x="1128.613281" xlink:href="#DejaVuSans-64"/>
       <use x="1192.089844" xlink:href="#DejaVuSans-6c"/>
       <use x="1219.873047" xlink:href="#DejaVuSans-65"/>
       <use x="1281.396484" xlink:href="#DejaVuSans-20"/>
       <use x="1313.183594" xlink:href="#DejaVuSans-53"/>
       <use x="1376.660156" xlink:href="#DejaVuSans-63"/>
       <use x="1431.640625" xlink:href="#DejaVuSans-68"/>
       <use x="1495.019531" xlink:href="#DejaVuSans-6f"/>
       <use x="1556.201172" xlink:href="#DejaVuSans-6f"/>
       <use x="1617.382812" xlink:href="#DejaVuSans-6c"/>
      </g>
     </g>
    </g>
    <g id="xtick_8">
     <g id="line2d_8">
      <g>
       <use style="stroke:#000000;stroke-width:0.8;" x="594.760938" xlink:href="#mfb77c1bc0a" y="500.353125"/>
      </g>
     </g>
     <g id="text_8">
      <!-- Billerica - Parker -->
      <defs>
       <path d="M 19.671875 64.796875 
L 19.671875 37.40625 
L 32.078125 37.40625 
Q 38.96875 37.40625 42.71875 40.96875 
Q 46.484375 44.53125 46.484375 51.125 
Q 46.484375 57.671875 42.71875 61.234375 
Q 38.96875 64.796875 32.078125 64.796875 
z
M 9.8125 72.90625 
L 32.078125 72.90625 
Q 44.34375 72.90625 50.609375 67.359375 
Q 56.890625 61.8125 56.890625 51.125 
Q 56.890625 40.328125 50.609375 34.8125 
Q 44.34375 29.296875 32.078125 29.296875 
L 19.671875 29.296875 
L 19.671875 0 
L 9.8125 0 
z
" id="DejaVuSans-50"/>
      </defs>
      <g transform="translate(597.520313 589.49375)rotate(-90)scale(0.1 -0.1)">
       <use xlink:href="#DejaVuSans-42"/>
       <use x="68.603516" xlink:href="#DejaVuSans-69"/>
       <use x="96.386719" xlink:href="#DejaVuSans-6c"/>
       <use x="124.169922" xlink:href="#DejaVuSans-6c"/>
       <use x="151.953125" xlink:href="#DejaVuSans-65"/>
       <use x="213.476562" xlink:href="#DejaVuSans-72"/>
       <use x="254.589844" xlink:href="#DejaVuSans-69"/>
       <use x="282.373047" xlink:href="#DejaVuSans-63"/>
       <use x="337.353516" xlink:href="#DejaVuSans-61"/>
       <use x="398.632812" xlink:href="#DejaVuSans-20"/>
       <use x="430.419922" xlink:href="#DejaVuSans-2d"/>
       <use x="466.503906" xlink:href="#DejaVuSans-20"/>
       <use x="498.291016" xlink:href="#DejaVuSans-50"/>
       <use x="558.53125" xlink:href="#DejaVuSans-61"/>
       <use x="619.810547" xlink:href="#DejaVuSans-72"/>
       <use x="660.923828" xlink:href="#DejaVuSans-6b"/>
       <use x="718.787109" xlink:href="#DejaVuSans-65"/>
       <use x="780.310547" xlink:href="#DejaVuSans-72"/>
      </g>
     </g>
    </g>
    <g id="xtick_9">
     <g id="line2d_9">
      <g>
       <use style="stroke:#000000;stroke-width:0.8;" x="668.720313" xlink:href="#mfb77c1bc0a" y="500.353125"/>
      </g>
     </g>
     <g id="text_9">
      <!-- Billerica - Thomas Ditson -->
      <defs>
       <path d="M -0.296875 72.90625 
L 61.375 72.90625 
L 61.375 64.59375 
L 35.5 64.59375 
L 35.5 0 
L 25.59375 0 
L 25.59375 64.59375 
L -0.296875 64.59375 
z
" id="DejaVuSans-54"/>
      </defs>
      <g transform="translate(671.479688 632.065625)rotate(-90)scale(0.1 -0.1)">
       <use xlink:href="#DejaVuSans-42"/>
       <use x="68.603516" xlink:href="#DejaVuSans-69"/>
       <use x="96.386719" xlink:href="#DejaVuSans-6c"/>
       <use x="124.169922" xlink:href="#DejaVuSans-6c"/>
       <use x="151.953125" xlink:href="#DejaVuSans-65"/>
       <use x="213.476562" xlink:href="#DejaVuSans-72"/>
       <use x="254.589844" xlink:href="#DejaVuSans-69"/>
       <use x="282.373047" xlink:href="#DejaVuSans-63"/>
       <use x="337.353516" xlink:href="#DejaVuSans-61"/>
       <use x="398.632812" xlink:href="#DejaVuSans-20"/>
       <use x="430.419922" xlink:href="#DejaVuSans-2d"/>
       <use x="466.503906" xlink:href="#DejaVuSans-20"/>
       <use x="498.291016" xlink:href="#DejaVuSans-54"/>
       <use x="559.375" xlink:href="#DejaVuSans-68"/>
       <use x="622.753906" xlink:href="#DejaVuSans-6f"/>
       <use x="683.935547" xlink:href="#DejaVuSans-6d"/>
       <use x="781.347656" xlink:href="#DejaVuSans-61"/>
       <use x="842.626953" xlink:href="#DejaVuSans-73"/>
       <use x="894.726562" xlink:href="#DejaVuSans-20"/>
       <use x="926.513672" xlink:href="#DejaVuSans-44"/>
       <use x="1003.515625" xlink:href="#DejaVuSans-69"/>
       <use x="1031.298828" xlink:href="#DejaVuSans-74"/>
       <use x="1070.507812" xlink:href="#DejaVuSans-73"/>
       <use x="1122.607422" xlink:href="#DejaVuSans-6f"/>
       <use x="1183.789062" xlink:href="#DejaVuSans-6e"/>
      </g>
     </g>
    </g>
   </g>
   <g id="matplotlib.axis_2">
    <g id="ytick_1">
     <g id="line2d_10">
      <defs>
       <path d="M 0 0 
L -3.5 0 
" id="md6a6a63998" style="stroke:#000000;stroke-width:0.8;"/>
      </defs>
      <g>
       <use style="stroke:#000000;stroke-width:0.8;" x="40.065625" xlink:href="#md6a6a63998" y="500.353125"/>
      </g>
     </g>
     <g id="text_10">
      <!-- 0.0 -->
      <defs>
       <path d="M 31.78125 66.40625 
Q 24.171875 66.40625 20.328125 58.90625 
Q 16.5 51.421875 16.5 36.375 
Q 16.5 21.390625 20.328125 13.890625 
Q 24.171875 6.390625 31.78125 6.390625 
Q 39.453125 6.390625 43.28125 13.890625 
Q 47.125 21.390625 47.125 36.375 
Q 47.125 51.421875 43.28125 58.90625 
Q 39.453125 66.40625 31.78125 66.40625 
z
M 31.78125 74.21875 
Q 44.046875 74.21875 50.515625 64.515625 
Q 56.984375 54.828125 56.984375 36.375 
Q 56.984375 17.96875 50.515625 8.265625 
Q 44.046875 -1.421875 31.78125 -1.421875 
Q 19.53125 -1.421875 13.0625 8.265625 
Q 6.59375 17.96875 6.59375 36.375 
Q 6.59375 54.828125 13.0625 64.515625 
Q 19.53125 74.21875 31.78125 74.21875 
z
" id="DejaVuSans-30"/>
       <path d="M 10.6875 12.40625 
L 21 12.40625 
L 21 0 
L 10.6875 0 
z
" id="DejaVuSans-2e"/>
      </defs>
      <g transform="translate(17.1625 504.152344)scale(0.1 -0.1)">
       <use xlink:href="#DejaVuSans-30"/>
       <use x="63.623047" xlink:href="#DejaVuSans-2e"/>
       <use x="95.410156" xlink:href="#DejaVuSans-30"/>
      </g>
     </g>
    </g>
    <g id="ytick_2">
     <g id="line2d_11">
      <g>
       <use style="stroke:#000000;stroke-width:0.8;" x="40.065625" xlink:href="#md6a6a63998" y="438.796245"/>
      </g>
     </g>
     <g id="text_11">
      <!-- 2.5 -->
      <defs>
       <path d="M 19.1875 8.296875 
L 53.609375 8.296875 
L 53.609375 0 
L 7.328125 0 
L 7.328125 8.296875 
Q 12.9375 14.109375 22.625 23.890625 
Q 32.328125 33.6875 34.8125 36.53125 
Q 39.546875 41.84375 41.421875 45.53125 
Q 43.3125 49.21875 43.3125 52.78125 
Q 43.3125 58.59375 39.234375 62.25 
Q 35.15625 65.921875 28.609375 65.921875 
Q 23.96875 65.921875 18.8125 64.3125 
Q 13.671875 62.703125 7.8125 59.421875 
L 7.8125 69.390625 
Q 13.765625 71.78125 18.9375 73 
Q 24.125 74.21875 28.421875 74.21875 
Q 39.75 74.21875 46.484375 68.546875 
Q 53.21875 62.890625 53.21875 53.421875 
Q 53.21875 48.921875 51.53125 44.890625 
Q 49.859375 40.875 45.40625 35.40625 
Q 44.1875 33.984375 37.640625 27.21875 
Q 31.109375 20.453125 19.1875 8.296875 
z
" id="DejaVuSans-32"/>
       <path d="M 10.796875 72.90625 
L 49.515625 72.90625 
L 49.515625 64.59375 
L 19.828125 64.59375 
L 19.828125 46.734375 
Q 21.96875 47.46875 24.109375 47.828125 
Q 26.265625 48.1875 28.421875 48.1875 
Q 40.625 48.1875 47.75 41.5 
Q 54.890625 34.8125 54.890625 23.390625 
Q 54.890625 11.625 47.5625 5.09375 
Q 40.234375 -1.421875 26.90625 -1.421875 
Q 22.3125 -1.421875 17.546875 -0.640625 
Q 12.796875 0.140625 7.71875 1.703125 
L 7.71875 11.625 
Q 12.109375 9.234375 16.796875 8.0625 
Q 21.484375 6.890625 26.703125 6.890625 
Q 35.15625 6.890625 40.078125 11.328125 
Q 45.015625 15.765625 45.015625 23.390625 
Q 45.015625 31 40.078125 35.4375 
Q 35.15625 39.890625 26.703125 39.890625 
Q 22.75 39.890625 18.8125 39.015625 
Q 14.890625 38.140625 10.796875 36.28125 
z
" id="DejaVuSans-35"/>
      </defs>
      <g transform="translate(17.1625 442.595464)scale(0.1 -0.1)">
       <use xlink:href="#DejaVuSans-32"/>
       <use x="63.623047" xlink:href="#DejaVuSans-2e"/>
       <use x="95.410156" xlink:href="#DejaVuSans-35"/>
      </g>
     </g>
    </g>
    <g id="ytick_3">
     <g id="line2d_12">
      <g>
       <use style="stroke:#000000;stroke-width:0.8;" x="40.065625" xlink:href="#md6a6a63998" y="377.239365"/>
      </g>
     </g>
     <g id="text_12">
      <!-- 5.0 -->
      <g transform="translate(17.1625 381.038584)scale(0.1 -0.1)">
       <use xlink:href="#DejaVuSans-35"/>
       <use x="63.623047" xlink:href="#DejaVuSans-2e"/>
       <use x="95.410156" xlink:href="#DejaVuSans-30"/>
      </g>
     </g>
    </g>
    <g id="ytick_4">
     <g id="line2d_13">
      <g>
       <use style="stroke:#000000;stroke-width:0.8;" x="40.065625" xlink:href="#md6a6a63998" y="315.682485"/>
      </g>
     </g>
     <g id="text_13">
      <!-- 7.5 -->
      <defs>
       <path d="M 8.203125 72.90625 
L 55.078125 72.90625 
L 55.078125 68.703125 
L 28.609375 0 
L 18.3125 0 
L 43.21875 64.59375 
L 8.203125 64.59375 
z
" id="DejaVuSans-37"/>
      </defs>
      <g transform="translate(17.1625 319.481704)scale(0.1 -0.1)">
       <use xlink:href="#DejaVuSans-37"/>
       <use x="63.623047" xlink:href="#DejaVuSans-2e"/>
       <use x="95.410156" xlink:href="#DejaVuSans-35"/>
      </g>
     </g>
    </g>
    <g id="ytick_5">
     <g id="line2d_14">
      <g>
       <use style="stroke:#000000;stroke-width:0.8;" x="40.065625" xlink:href="#md6a6a63998" y="254.125605"/>
      </g>
     </g>
     <g id="text_14">
      <!-- 10.0 -->
      <defs>
       <path d="M 12.40625 8.296875 
L 28.515625 8.296875 
L 28.515625 63.921875 
L 10.984375 60.40625 
L 10.984375 69.390625 
L 28.421875 72.90625 
L 38.28125 72.90625 
L 38.28125 8.296875 
L 54.390625 8.296875 
L 54.390625 0 
L 12.40625 0 
z
" id="DejaVuSans-31"/>
      </defs>
      <g transform="translate(10.8 257.924823)scale(0.1 -0.1)">
       <use xlink:href="#DejaVuSans-31"/>
       <use x="63.623047" xlink:href="#DejaVuSans-30"/>
       <use x="127.246094" xlink:href="#DejaVuSans-2e"/>
       <use x="159.033203" xlink:href="#DejaVuSans-30"/>
      </g>
     </g>
    </g>
    <g id="ytick_6">
     <g id="line2d_15">
      <g>
       <use style="stroke:#000000;stroke-width:0.8;" x="40.065625" xlink:href="#md6a6a63998" y="192.568725"/>
      </g>
     </g>
     <g id="text_15">
      <!-- 12.5 -->
      <g transform="translate(10.8 196.367943)scale(0.1 -0.1)">
       <use xlink:href="#DejaVuSans-31"/>
       <use x="63.623047" xlink:href="#DejaVuSans-32"/>
       <use x="127.246094" xlink:href="#DejaVuSans-2e"/>
       <use x="159.033203" xlink:href="#DejaVuSans-35"/>
      </g>
     </g>
    </g>
    <g id="ytick_7">
     <g id="line2d_16">
      <g>
       <use style="stroke:#000000;stroke-width:0.8;" x="40.065625" xlink:href="#md6a6a63998" y="131.011845"/>
      </g>
     </g>
     <g id="text_16">
      <!-- 15.0 -->
      <g transform="translate(10.8 134.811063)scale(0.1 -0.1)">
       <use xlink:href="#DejaVuSans-31"/>
       <use x="63.623047" xlink:href="#DejaVuSans-35"/>
       <use x="127.246094" xlink:href="#DejaVuSans-2e"/>
       <use x="159.033203" xlink:href="#DejaVuSans-30"/>
      </g>
     </g>
    </g>
    <g id="ytick_8">
     <g id="line2d_17">
      <g>
       <use style="stroke:#000000;stroke-width:0.8;" x="40.065625" xlink:href="#md6a6a63998" y="69.454965"/>
      </g>
     </g>
     <g id="text_17">
      <!-- 17.5 -->
      <g transform="translate(10.8 73.254183)scale(0.1 -0.1)">
       <use xlink:href="#DejaVuSans-31"/>
       <use x="63.623047" xlink:href="#DejaVuSans-37"/>
       <use x="127.246094" xlink:href="#DejaVuSans-2e"/>
       <use x="159.033203" xlink:href="#DejaVuSans-35"/>
      </g>
     </g>
    </g>
   </g>
   <g id="patch_21">
    <path d="M 40.065625 500.353125 
L 40.065625 14.3 
" style="fill:none;stroke:#000000;stroke-linecap:square;stroke-linejoin:miter;stroke-width:0.8;"/>
   </g>
   <g id="patch_22">
    <path d="M 705.7 500.353125 
L 705.7 14.3 
" style="fill:none;stroke:#000000;stroke-linecap:square;stroke-linejoin:miter;stroke-width:0.8;"/>
   </g>
   <g id="patch_23">
    <path d="M 40.065625 500.353125 
L 705.7 500.353125 
" style="fill:none;stroke:#000000;stroke-linecap:square;stroke-linejoin:miter;stroke-width:0.8;"/>
   </g>
   <g id="patch_24">
    <path d="M 40.065625 14.3 
L 705.7 14.3 
" style="fill:none;stroke:#000000;stroke-linecap:square;stroke-linejoin:miter;stroke-width:0.8;"/>
   </g>
   <g id="legend_1">
    <g id="patch_25">
     <path d="M 503.764063 51.65625 
L 698.7 51.65625 
Q 700.7 51.65625 700.7 49.65625 
L 700.7 21.3 
Q 700.7 19.3 698.7 19.3 
L 503.764063 19.3 
Q 501.764063 19.3 501.764063 21.3 
L 501.764063 49.65625 
Q 501.764063 51.65625 503.764063 51.65625 
z
" style="fill:#ffffff;opacity:0.8;stroke:#cccccc;stroke-linejoin:miter;"/>
    </g>
    <g id="patch_26">
     <path d="M 505.764063 30.898438 
L 525.764063 30.898438 
L 525.764063 23.898438 
L 505.764063 23.898438 
z
" style="fill:#1f77b4;"/>
    </g>
    <g id="text_18">
     <!-- FirstLanguageNotEnglishPercent -->
     <defs>
      <path d="M 9.8125 72.90625 
L 23.09375 72.90625 
L 55.421875 11.921875 
L 55.421875 72.90625 
L 64.984375 72.90625 
L 64.984375 0 
L 51.703125 0 
L 19.390625 60.984375 
L 19.390625 0 
L 9.8125 0 
z
" id="DejaVuSans-4e"/>
     </defs>
     <g transform="translate(533.764063 30.898438)scale(0.1 -0.1)">
      <use xlink:href="#DejaVuSans-46"/>
      <use x="57.410156" xlink:href="#DejaVuSans-69"/>
      <use x="85.193359" xlink:href="#DejaVuSans-72"/>
      <use x="126.306641" xlink:href="#DejaVuSans-73"/>
      <use x="178.40625" xlink:href="#DejaVuSans-74"/>
      <use x="217.615234" xlink:href="#DejaVuSans-4c"/>
      <use x="273.328125" xlink:href="#DejaVuSans-61"/>
      <use x="334.607422" xlink:href="#DejaVuSans-6e"/>
      <use x="397.986328" xlink:href="#DejaVuSans-67"/>
      <use x="461.462891" xlink:href="#DejaVuSans-75"/>
      <use x="524.841797" xlink:href="#DejaVuSans-61"/>
      <use x="586.121094" xlink:href="#DejaVuSans-67"/>
      <use x="649.597656" xlink:href="#DejaVuSans-65"/>
      <use x="711.121094" xlink:href="#DejaVuSans-4e"/>
      <use x="785.925781" xlink:href="#DejaVuSans-6f"/>
      <use x="847.107422" xlink:href="#DejaVuSans-74"/>
      <use x="886.316406" xlink:href="#DejaVuSans-45"/>
      <use x="949.5" xlink:href="#DejaVuSans-6e"/>
      <use x="1012.878906" xlink:href="#DejaVuSans-67"/>
      <use x="1076.355469" xlink:href="#DejaVuSans-6c"/>
      <use x="1104.138672" xlink:href="#DejaVuSans-69"/>
      <use x="1131.921875" xlink:href="#DejaVuSans-73"/>
      <use x="1184.021484" xlink:href="#DejaVuSans-68"/>
      <use x="1247.400391" xlink:href="#DejaVuSans-50"/>
      <use x="1307.65625" xlink:href="#DejaVuSans-65"/>
      <use x="1369.179688" xlink:href="#DejaVuSans-72"/>
      <use x="1410.261719" xlink:href="#DejaVuSans-63"/>
      <use x="1465.242188" xlink:href="#DejaVuSans-65"/>
      <use x="1526.765625" xlink:href="#DejaVuSans-6e"/>
      <use x="1590.144531" xlink:href="#DejaVuSans-74"/>
     </g>
    </g>
    <g id="patch_27">
     <path d="M 505.764063 45.576563 
L 525.764063 45.576563 
L 525.764063 38.576563 
L 505.764063 38.576563 
z
" style="fill:#ff7f0e;"/>
    </g>
    <g id="text_19">
     <!-- EnglishLanguageLearnerPercent -->
     <g transform="translate(533.764063 45.576563)scale(0.1 -0.1)">
      <use xlink:href="#DejaVuSans-45"/>
      <use x="63.183594" xlink:href="#DejaVuSans-6e"/>
      <use x="126.5625" xlink:href="#DejaVuSans-67"/>
      <use x="190.039062" xlink:href="#DejaVuSans-6c"/>
      <use x="217.822266" xlink:href="#DejaVuSans-69"/>
      <use x="245.605469" xlink:href="#DejaVuSans-73"/>
      <use x="297.705078" xlink:href="#DejaVuSans-68"/>
      <use x="361.083984" xlink:href="#DejaVuSans-4c"/>
      <use x="416.796875" xlink:href="#DejaVuSans-61"/>
      <use x="478.076172" xlink:href="#DejaVuSans-6e"/>
      <use x="541.455078" xlink:href="#DejaVuSans-67"/>
      <use x="604.931641" xlink:href="#DejaVuSans-75"/>
      <use x="668.310547" xlink:href="#DejaVuSans-61"/>
      <use x="729.589844" xlink:href="#DejaVuSans-67"/>
      <use x="793.066406" xlink:href="#DejaVuSans-65"/>
      <use x="854.589844" xlink:href="#DejaVuSans-4c"/>
      <use x="910.287109" xlink:href="#DejaVuSans-65"/>
      <use x="971.810547" xlink:href="#DejaVuSans-61"/>
      <use x="1033.089844" xlink:href="#DejaVuSans-72"/>
      <use x="1074.1875" xlink:href="#DejaVuSans-6e"/>
      <use x="1137.566406" xlink:href="#DejaVuSans-65"/>
      <use x="1199.089844" xlink:href="#DejaVuSans-72"/>
      <use x="1240.203125" xlink:href="#DejaVuSans-50"/>
      <use x="1300.458984" xlink:href="#DejaVuSans-65"/>
      <use x="1361.982422" xlink:href="#DejaVuSans-72"/>
      <use x="1403.064453" xlink:href="#DejaVuSans-63"/>
      <use x="1458.044922" xlink:href="#DejaVuSans-65"/>
      <use x="1519.568359" xlink:href="#DejaVuSans-6e"/>
      <use x="1582.947266" xlink:href="#DejaVuSans-74"/>
     </g>
    </g>
   </g>
  </g>
 </g>
 <defs>
  <clipPath id="p8cecd24cd3">
   <rect height="486.053125" width="665.634375" x="40.065625" y="14.3"/>
  </clipPath>
 </defs>
</svg>
