<?xml version="1.0" encoding="utf-8" standalone="no"?>
<!DOCTYPE svg PUBLIC "-//W3C//DTD SVG 1.1//EN"
  "http://www.w3.org/Graphics/SVG/1.1/DTD/svg11.dtd">
<!-- Created with matplotlib (http://matplotlib.org/) -->
<svg height="720pt" version="1.1" viewBox="0 0 720 720" width="720pt" xmlns="http://www.w3.org/2000/svg" xmlns:xlink="http://www.w3.org/1999/xlink">
 <defs>
  <style type="text/css">
*{stroke-linecap:butt;stroke-linejoin:round;}
  </style>
 </defs>
 <g id="figure_1">
  <g id="patch_1">
   <path d="M 0 720 
L 720 720 
L 720 0 
L 0 0 
z
" style="fill:#ffffff;"/>
  </g>
  <g id="axes_1">
   <g id="patch_2">
    <path d="M 36.8875 510.548437 
L 705.7 510.548437 
L 705.7 14.3 
L 36.8875 14.3 
z
" style="fill:#ffffff;"/>
   </g>
   <g id="patch_3">
    <path clip-path="url(#p6bc7c0dd63)" d="M 53.607812 510.548437 
L 87.048438 510.548437 
L 87.048438 360.808221 
L 53.607812 360.808221 
z
" style="fill:#1f77b4;"/>
   </g>
   <g id="patch_4">
    <path clip-path="url(#p6bc7c0dd63)" d="M 120.489063 510.548437 
L 153.929688 510.548437 
L 153.929688 290.617494 
L 120.489063 290.617494 
z
" style="fill:#1f77b4;"/>
   </g>
   <g id="patch_5">
    <path clip-path="url(#p6bc7c0dd63)" d="M 187.370313 510.548437 
L 220.810938 510.548437 
L 220.810938 304.655639 
L 187.370313 304.655639 
z
" style="fill:#1f77b4;"/>
   </g>
   <g id="patch_6">
    <path clip-path="url(#p6bc7c0dd63)" d="M 254.251563 510.548437 
L 287.692188 510.548437 
L 287.692188 365.487602 
L 254.251563 365.487602 
z
" style="fill:#1f77b4;"/>
   </g>
   <g id="patch_7">
    <path clip-path="url(#p6bc7c0dd63)" d="M 321.132812 510.548437 
L 354.573438 510.548437 
L 354.573438 445.037093 
L 321.132812 445.037093 
z
" style="fill:#1f77b4;"/>
   </g>
   <g id="patch_8">
    <path clip-path="url(#p6bc7c0dd63)" d="M 388.014063 510.548437 
L 421.454688 510.548437 
L 421.454688 374.846366 
L 388.014063 374.846366 
z
" style="fill:#1f77b4;"/>
   </g>
   <g id="patch_9">
    <path clip-path="url(#p6bc7c0dd63)" d="M 454.895313 510.548437 
L 488.335938 510.548437 
L 488.335938 510.548437 
L 454.895313 510.548437 
z
" style="fill:#1f77b4;"/>
   </g>
   <g id="patch_10">
    <path clip-path="url(#p6bc7c0dd63)" d="M 521.776563 510.548437 
L 555.217188 510.548437 
L 555.217188 145.556659 
L 521.776563 145.556659 
z
" style="fill:#1f77b4;"/>
   </g>
   <g id="patch_11">
    <path clip-path="url(#p6bc7c0dd63)" d="M 588.657813 510.548437 
L 622.098438 510.548437 
L 622.098438 290.617494 
L 588.657813 290.617494 
z
" style="fill:#1f77b4;"/>
   </g>
   <g id="patch_12">
    <path clip-path="url(#p6bc7c0dd63)" d="M 655.539063 510.548437 
L 688.979688 510.548437 
L 688.979688 445.037093 
L 655.539063 445.037093 
z
" style="fill:#1f77b4;"/>
   </g>
   <g id="patch_13">
    <path clip-path="url(#p6bc7c0dd63)" d="M 53.607812 360.808221 
L 87.048438 360.808221 
L 87.048438 206.388622 
L 53.607812 206.388622 
z
" style="fill:#ff7f0e;"/>
   </g>
   <g id="patch_14">
    <path clip-path="url(#p6bc7c0dd63)" d="M 120.489063 290.617494 
L 153.929688 290.617494 
L 153.929688 136.197895 
L 120.489063 136.197895 
z
" style="fill:#ff7f0e;"/>
   </g>
   <g id="patch_15">
    <path clip-path="url(#p6bc7c0dd63)" d="M 187.370313 304.655639 
L 220.810938 304.655639 
L 220.810938 108.121605 
L 187.370313 108.121605 
z
" style="fill:#ff7f0e;"/>
   </g>
   <g id="patch_16">
    <path clip-path="url(#p6bc7c0dd63)" d="M 254.251563 365.487602 
L 287.692188 365.487602 
L 287.692188 234.464913 
L 254.251563 234.464913 
z
" style="fill:#ff7f0e;"/>
   </g>
   <g id="patch_17">
    <path clip-path="url(#p6bc7c0dd63)" d="M 321.132812 445.037093 
L 354.573438 445.037093 
L 354.573438 150.236041 
L 321.132812 150.236041 
z
" style="fill:#ff7f0e;"/>
   </g>
   <g id="patch_18">
    <path clip-path="url(#p6bc7c0dd63)" d="M 388.014063 374.846366 
L 421.454688 374.846366 
L 421.454688 168.953568 
L 388.014063 168.953568 
z
" style="fill:#ff7f0e;"/>
   </g>
   <g id="patch_19">
    <path clip-path="url(#p6bc7c0dd63)" d="M 454.895313 510.548437 
L 488.335938 510.548437 
L 488.335938 510.548437 
L 454.895313 510.548437 
z
" style="fill:#ff7f0e;"/>
   </g>
   <g id="patch_20">
    <path clip-path="url(#p6bc7c0dd63)" d="M 521.776563 145.556659 
L 555.217188 145.556659 
L 555.217188 61.327787 
L 521.776563 61.327787 
z
" style="fill:#ff7f0e;"/>
   </g>
   <g id="patch_21">
    <path clip-path="url(#p6bc7c0dd63)" d="M 588.657813 290.617494 
L 622.098438 290.617494 
L 622.098438 140.877277 
L 588.657813 140.877277 
z
" style="fill:#ff7f0e;"/>
   </g>
   <g id="patch_22">
    <path clip-path="url(#p6bc7c0dd63)" d="M 655.539063 445.037093 
L 688.979688 445.037093 
L 688.979688 150.236041 
L 655.539063 150.236041 
z
" style="fill:#ff7f0e;"/>
   </g>
   <g id="patch_23">
    <path clip-path="url(#p6bc7c0dd63)" d="M 53.607812 206.388622 
L 87.048438 206.388622 
L 87.048438 61.327787 
L 53.607812 61.327787 
z
" style="fill:#2ca02c;"/>
   </g>
   <g id="patch_24">
    <path clip-path="url(#p6bc7c0dd63)" d="M 120.489063 136.197895 
L 153.929688 136.197895 
L 153.929688 47.289642 
L 120.489063 47.289642 
z
" style="fill:#2ca02c;"/>
   </g>
   <g id="patch_25">
    <path clip-path="url(#p6bc7c0dd63)" d="M 187.370313 108.121605 
L 220.810938 108.121605 
L 220.810938 56.648405 
L 187.370313 56.648405 
z
" style="fill:#2ca02c;"/>
   </g>
   <g id="patch_26">
    <path clip-path="url(#p6bc7c0dd63)" d="M 254.251563 234.464913 
L 287.692188 234.464913 
L 287.692188 108.121605 
L 254.251563 108.121605 
z
" style="fill:#2ca02c;"/>
   </g>
   <g id="patch_27">
    <path clip-path="url(#p6bc7c0dd63)" d="M 321.132812 150.236041 
L 354.573438 150.236041 
L 354.573438 61.327787 
L 321.132812 61.327787 
z
" style="fill:#2ca02c;"/>
   </g>
   <g id="patch_28">
    <path clip-path="url(#p6bc7c0dd63)" d="M 388.014063 168.953568 
L 421.454688 168.953568 
L 421.454688 75.365932 
L 388.014063 75.365932 
z
" style="fill:#2ca02c;"/>
   </g>
   <g id="patch_29">
    <path clip-path="url(#p6bc7c0dd63)" d="M 454.895313 510.548437 
L 488.335938 510.548437 
L 488.335938 510.548437 
L 454.895313 510.548437 
z
" style="fill:#2ca02c;"/>
   </g>
   <g id="patch_30">
    <path clip-path="url(#p6bc7c0dd63)" d="M 521.776563 61.327787 
L 555.217188 61.327787 
L 555.217188 47.289642 
L 521.776563 47.289642 
z
" style="fill:#2ca02c;"/>
   </g>
   <g id="patch_31">
    <path clip-path="url(#p6bc7c0dd63)" d="M 588.657813 140.877277 
L 622.098438 140.877277 
L 622.098438 51.969023 
L 588.657813 51.969023 
z
" style="fill:#2ca02c;"/>
   </g>
   <g id="patch_32">
    <path clip-path="url(#p6bc7c0dd63)" d="M 655.539063 150.236041 
L 688.979688 150.236041 
L 688.979688 42.61026 
L 655.539063 42.61026 
z
" style="fill:#2ca02c;"/>
   </g>
   <g id="patch_33">
    <path clip-path="url(#p6bc7c0dd63)" d="M 53.607812 61.327787 
L 87.048438 61.327787 
L 87.048438 47.289642 
L 53.607812 47.289642 
z
" style="fill:#d62728;"/>
   </g>
   <g id="patch_34">
    <path clip-path="url(#p6bc7c0dd63)" d="M 120.489063 47.289642 
L 153.929688 47.289642 
L 153.929688 42.61026 
L 120.489063 42.61026 
z
" style="fill:#d62728;"/>
   </g>
   <g id="patch_35">
    <path clip-path="url(#p6bc7c0dd63)" d="M 187.370313 56.648405 
L 220.810938 56.648405 
L 220.810938 42.61026 
L 187.370313 42.61026 
z
" style="fill:#d62728;"/>
   </g>
   <g id="patch_36">
    <path clip-path="url(#p6bc7c0dd63)" d="M 254.251563 108.121605 
L 287.692188 108.121605 
L 287.692188 42.61026 
L 254.251563 42.61026 
z
" style="fill:#d62728;"/>
   </g>
   <g id="patch_37">
    <path clip-path="url(#p6bc7c0dd63)" d="M 321.132812 61.327787 
L 354.573438 61.327787 
L 354.573438 47.289642 
L 321.132812 47.289642 
z
" style="fill:#d62728;"/>
   </g>
   <g id="patch_38">
    <path clip-path="url(#p6bc7c0dd63)" d="M 388.014063 75.365932 
L 421.454688 75.365932 
L 421.454688 42.61026 
L 388.014063 42.61026 
z
" style="fill:#d62728;"/>
   </g>
   <g id="patch_39">
    <path clip-path="url(#p6bc7c0dd63)" d="M 454.895313 510.548437 
L 488.335938 510.548437 
L 488.335938 510.548437 
L 454.895313 510.548437 
z
" style="fill:#d62728;"/>
   </g>
   <g id="patch_40">
    <path clip-path="url(#p6bc7c0dd63)" d="M 521.776563 47.289642 
L 555.217188 47.289642 
L 555.217188 42.61026 
L 521.776563 42.61026 
z
" style="fill:#d62728;"/>
   </g>
   <g id="patch_41">
    <path clip-path="url(#p6bc7c0dd63)" d="M 588.657813 51.969023 
L 622.098438 51.969023 
L 622.098438 37.930878 
L 588.657813 37.930878 
z
" style="fill:#d62728;"/>
   </g>
   <g id="patch_42">
    <path clip-path="url(#p6bc7c0dd63)" d="M 655.539063 510.548437 
L 688.979688 510.548437 
L 688.979688 510.548437 
L 655.539063 510.548437 
z
" style="fill:#d62728;"/>
   </g>
   <g id="matplotlib.axis_1">
    <g id="xtick_1">
     <g id="line2d_1">
      <defs>
       <path d="M 0 0 
L 0 3.5 
" id="mfe7ecf1436" style="stroke:#000000;stroke-width:0.8;"/>
      </defs>
      <g>
       <use style="stroke:#000000;stroke-width:0.8;" x="70.328125" xlink:href="#mfe7ecf1436" y="510.548437"/>
      </g>
     </g>
     <g id="text_1">
      <!-- Lexington - Bowman -->
      <defs>
       <path d="M 9.8125 72.90625 
L 19.671875 72.90625 
L 19.671875 8.296875 
L 55.171875 8.296875 
L 55.171875 0 
L 9.8125 0 
z
" id="DejaVuSans-4c"/>
       <path d="M 56.203125 29.59375 
L 56.203125 25.203125 
L 14.890625 25.203125 
Q 15.484375 15.921875 20.484375 11.0625 
Q 25.484375 6.203125 34.421875 6.203125 
Q 39.59375 6.203125 44.453125 7.46875 
Q 49.3125 8.734375 54.109375 11.28125 
L 54.109375 2.78125 
Q 49.265625 0.734375 44.1875 -0.34375 
Q 39.109375 -1.421875 33.890625 -1.421875 
Q 20.796875 -1.421875 13.15625 6.1875 
Q 5.515625 13.8125 5.515625 26.8125 
Q 5.515625 40.234375 12.765625 48.109375 
Q 20.015625 56 32.328125 56 
Q 43.359375 56 49.78125 48.890625 
Q 56.203125 41.796875 56.203125 29.59375 
z
M 47.21875 32.234375 
Q 47.125 39.59375 43.09375 43.984375 
Q 39.0625 48.390625 32.421875 48.390625 
Q 24.90625 48.390625 20.390625 44.140625 
Q 15.875 39.890625 15.1875 32.171875 
z
" id="DejaVuSans-65"/>
       <path d="M 54.890625 54.6875 
L 35.109375 28.078125 
L 55.90625 0 
L 45.3125 0 
L 29.390625 21.484375 
L 13.484375 0 
L 2.875 0 
L 24.125 28.609375 
L 4.6875 54.6875 
L 15.28125 54.6875 
L 29.78125 35.203125 
L 44.28125 54.6875 
z
" id="DejaVuSans-78"/>
       <path d="M 9.421875 54.6875 
L 18.40625 54.6875 
L 18.40625 0 
L 9.421875 0 
z
M 9.421875 75.984375 
L 18.40625 75.984375 
L 18.40625 64.59375 
L 9.421875 64.59375 
z
" id="DejaVuSans-69"/>
       <path d="M 54.890625 33.015625 
L 54.890625 0 
L 45.90625 0 
L 45.90625 32.71875 
Q 45.90625 40.484375 42.875 44.328125 
Q 39.84375 48.1875 33.796875 48.1875 
Q 26.515625 48.1875 22.3125 43.546875 
Q 18.109375 38.921875 18.109375 30.90625 
L 18.109375 0 
L 9.078125 0 
L 9.078125 54.6875 
L 18.109375 54.6875 
L 18.109375 46.1875 
Q 21.34375 51.125 25.703125 53.5625 
Q 30.078125 56 35.796875 56 
Q 45.21875 56 50.046875 50.171875 
Q 54.890625 44.34375 54.890625 33.015625 
z
" id="DejaVuSans-6e"/>
       <path d="M 45.40625 27.984375 
Q 45.40625 37.75 41.375 43.109375 
Q 37.359375 48.484375 30.078125 48.484375 
Q 22.859375 48.484375 18.828125 43.109375 
Q 14.796875 37.75 14.796875 27.984375 
Q 14.796875 18.265625 18.828125 12.890625 
Q 22.859375 7.515625 30.078125 7.515625 
Q 37.359375 7.515625 41.375 12.890625 
Q 45.40625 18.265625 45.40625 27.984375 
z
M 54.390625 6.78125 
Q 54.390625 -7.171875 48.1875 -13.984375 
Q 42 -20.796875 29.203125 -20.796875 
Q 24.46875 -20.796875 20.265625 -20.09375 
Q 16.0625 -19.390625 12.109375 -17.921875 
L 12.109375 -9.1875 
Q 16.0625 -11.328125 19.921875 -12.34375 
Q 23.78125 -13.375 27.78125 -13.375 
Q 36.625 -13.375 41.015625 -8.765625 
Q 45.40625 -4.15625 45.40625 5.171875 
L 45.40625 9.625 
Q 42.625 4.78125 38.28125 2.390625 
Q 33.9375 0 27.875 0 
Q 17.828125 0 11.671875 7.65625 
Q 5.515625 15.328125 5.515625 27.984375 
Q 5.515625 40.671875 11.671875 48.328125 
Q 17.828125 56 27.875 56 
Q 33.9375 56 38.28125 53.609375 
Q 42.625 51.21875 45.40625 46.390625 
L 45.40625 54.6875 
L 54.390625 54.6875 
z
" id="DejaVuSans-67"/>
       <path d="M 18.3125 70.21875 
L 18.3125 54.6875 
L 36.8125 54.6875 
L 36.8125 47.703125 
L 18.3125 47.703125 
L 18.3125 18.015625 
Q 18.3125 11.328125 20.140625 9.421875 
Q 21.96875 7.515625 27.59375 7.515625 
L 36.8125 7.515625 
L 36.8125 0 
L 27.59375 0 
Q 17.1875 0 13.234375 3.875 
Q 9.28125 7.765625 9.28125 18.015625 
L 9.28125 47.703125 
L 2.6875 47.703125 
L 2.6875 54.6875 
L 9.28125 54.6875 
L 9.28125 70.21875 
z
" id="DejaVuSans-74"/>
       <path d="M 30.609375 48.390625 
Q 23.390625 48.390625 19.1875 42.75 
Q 14.984375 37.109375 14.984375 27.296875 
Q 14.984375 17.484375 19.15625 11.84375 
Q 23.34375 6.203125 30.609375 6.203125 
Q 37.796875 6.203125 41.984375 11.859375 
Q 46.1875 17.53125 46.1875 27.296875 
Q 46.1875 37.015625 41.984375 42.703125 
Q 37.796875 48.390625 30.609375 48.390625 
z
M 30.609375 56 
Q 42.328125 56 49.015625 48.375 
Q 55.71875 40.765625 55.71875 27.296875 
Q 55.71875 13.875 49.015625 6.21875 
Q 42.328125 -1.421875 30.609375 -1.421875 
Q 18.84375 -1.421875 12.171875 6.21875 
Q 5.515625 13.875 5.515625 27.296875 
Q 5.515625 40.765625 12.171875 48.375 
Q 18.84375 56 30.609375 56 
z
" id="DejaVuSans-6f"/>
       <path id="DejaVuSans-20"/>
       <path d="M 4.890625 31.390625 
L 31.203125 31.390625 
L 31.203125 23.390625 
L 4.890625 23.390625 
z
" id="DejaVuSans-2d"/>
       <path d="M 19.671875 34.8125 
L 19.671875 8.109375 
L 35.5 8.109375 
Q 43.453125 8.109375 47.28125 11.40625 
Q 51.125 14.703125 51.125 21.484375 
Q 51.125 28.328125 47.28125 31.5625 
Q 43.453125 34.8125 35.5 34.8125 
z
M 19.671875 64.796875 
L 19.671875 42.828125 
L 34.28125 42.828125 
Q 41.5 42.828125 45.03125 45.53125 
Q 48.578125 48.25 48.578125 53.8125 
Q 48.578125 59.328125 45.03125 62.0625 
Q 41.5 64.796875 34.28125 64.796875 
z
M 9.8125 72.90625 
L 35.015625 72.90625 
Q 46.296875 72.90625 52.390625 68.21875 
Q 58.5 63.53125 58.5 54.890625 
Q 58.5 48.1875 55.375 44.234375 
Q 52.25 40.28125 46.1875 39.3125 
Q 53.46875 37.75 57.5 32.78125 
Q 61.53125 27.828125 61.53125 20.40625 
Q 61.53125 10.640625 54.890625 5.3125 
Q 48.25 0 35.984375 0 
L 9.8125 0 
z
" id="DejaVuSans-42"/>
       <path d="M 4.203125 54.6875 
L 13.1875 54.6875 
L 24.421875 12.015625 
L 35.59375 54.6875 
L 46.1875 54.6875 
L 57.421875 12.015625 
L 68.609375 54.6875 
L 77.59375 54.6875 
L 63.28125 0 
L 52.6875 0 
L 40.921875 44.828125 
L 29.109375 0 
L 18.5 0 
z
" id="DejaVuSans-77"/>
       <path d="M 52 44.1875 
Q 55.375 50.25 60.0625 53.125 
Q 64.75 56 71.09375 56 
Q 79.640625 56 84.28125 50.015625 
Q 88.921875 44.046875 88.921875 33.015625 
L 88.921875 0 
L 79.890625 0 
L 79.890625 32.71875 
Q 79.890625 40.578125 77.09375 44.375 
Q 74.3125 48.1875 68.609375 48.1875 
Q 61.625 48.1875 57.5625 43.546875 
Q 53.515625 38.921875 53.515625 30.90625 
L 53.515625 0 
L 44.484375 0 
L 44.484375 32.71875 
Q 44.484375 40.625 41.703125 44.40625 
Q 38.921875 48.1875 33.109375 48.1875 
Q 26.21875 48.1875 22.15625 43.53125 
Q 18.109375 38.875 18.109375 30.90625 
L 18.109375 0 
L 9.078125 0 
L 9.078125 54.6875 
L 18.109375 54.6875 
L 18.109375 46.1875 
Q 21.1875 51.21875 25.484375 53.609375 
Q 29.78125 56 35.6875 56 
Q 41.65625 56 45.828125 52.96875 
Q 50 49.953125 52 44.1875 
z
" id="DejaVuSans-6d"/>
       <path d="M 34.28125 27.484375 
Q 23.390625 27.484375 19.1875 25 
Q 14.984375 22.515625 14.984375 16.5 
Q 14.984375 11.71875 18.140625 8.90625 
Q 21.296875 6.109375 26.703125 6.109375 
Q 34.1875 6.109375 38.703125 11.40625 
Q 43.21875 16.703125 43.21875 25.484375 
L 43.21875 27.484375 
z
M 52.203125 31.203125 
L 52.203125 0 
L 43.21875 0 
L 43.21875 8.296875 
Q 40.140625 3.328125 35.546875 0.953125 
Q 30.953125 -1.421875 24.3125 -1.421875 
Q 15.921875 -1.421875 10.953125 3.296875 
Q 6 8.015625 6 15.921875 
Q 6 25.140625 12.171875 29.828125 
Q 18.359375 34.515625 30.609375 34.515625 
L 43.21875 34.515625 
L 43.21875 35.40625 
Q 43.21875 41.609375 39.140625 45 
Q 35.0625 48.390625 27.6875 48.390625 
Q 23 48.390625 18.546875 47.265625 
Q 14.109375 46.140625 10.015625 43.890625 
L 10.015625 52.203125 
Q 14.9375 54.109375 19.578125 55.046875 
Q 24.21875 56 28.609375 56 
Q 40.484375 56 46.34375 49.84375 
Q 52.203125 43.703125 52.203125 31.203125 
z
" id="DejaVuSans-61"/>
      </defs>
      <g transform="translate(73.0875 620.357813)rotate(-90)scale(0.1 -0.1)">
       <use xlink:href="#DejaVuSans-4c"/>
       <use x="55.697266" xlink:href="#DejaVuSans-65"/>
       <use x="117.205078" xlink:href="#DejaVuSans-78"/>
       <use x="176.384766" xlink:href="#DejaVuSans-69"/>
       <use x="204.167969" xlink:href="#DejaVuSans-6e"/>
       <use x="267.546875" xlink:href="#DejaVuSans-67"/>
       <use x="331.023438" xlink:href="#DejaVuSans-74"/>
       <use x="370.232422" xlink:href="#DejaVuSans-6f"/>
       <use x="431.414062" xlink:href="#DejaVuSans-6e"/>
       <use x="494.792969" xlink:href="#DejaVuSans-20"/>
       <use x="526.580078" xlink:href="#DejaVuSans-2d"/>
       <use x="562.664062" xlink:href="#DejaVuSans-20"/>
       <use x="594.451172" xlink:href="#DejaVuSans-42"/>
       <use x="663.054688" xlink:href="#DejaVuSans-6f"/>
       <use x="724.236328" xlink:href="#DejaVuSans-77"/>
       <use x="806.023438" xlink:href="#DejaVuSans-6d"/>
       <use x="903.435547" xlink:href="#DejaVuSans-61"/>
       <use x="964.714844" xlink:href="#DejaVuSans-6e"/>
      </g>
     </g>
    </g>
    <g id="xtick_2">
     <g id="line2d_2">
      <g>
       <use style="stroke:#000000;stroke-width:0.8;" x="137.209375" xlink:href="#mfe7ecf1436" y="510.548437"/>
      </g>
     </g>
     <g id="text_2">
      <!-- Lexington - Bridge -->
      <defs>
       <path d="M 41.109375 46.296875 
Q 39.59375 47.171875 37.8125 47.578125 
Q 36.03125 48 33.890625 48 
Q 26.265625 48 22.1875 43.046875 
Q 18.109375 38.09375 18.109375 28.8125 
L 18.109375 0 
L 9.078125 0 
L 9.078125 54.6875 
L 18.109375 54.6875 
L 18.109375 46.1875 
Q 20.953125 51.171875 25.484375 53.578125 
Q 30.03125 56 36.53125 56 
Q 37.453125 56 38.578125 55.875 
Q 39.703125 55.765625 41.0625 55.515625 
z
" id="DejaVuSans-72"/>
       <path d="M 45.40625 46.390625 
L 45.40625 75.984375 
L 54.390625 75.984375 
L 54.390625 0 
L 45.40625 0 
L 45.40625 8.203125 
Q 42.578125 3.328125 38.25 0.953125 
Q 33.9375 -1.421875 27.875 -1.421875 
Q 17.96875 -1.421875 11.734375 6.484375 
Q 5.515625 14.40625 5.515625 27.296875 
Q 5.515625 40.1875 11.734375 48.09375 
Q 17.96875 56 27.875 56 
Q 33.9375 56 38.25 53.625 
Q 42.578125 51.265625 45.40625 46.390625 
z
M 14.796875 27.296875 
Q 14.796875 17.390625 18.875 11.75 
Q 22.953125 6.109375 30.078125 6.109375 
Q 37.203125 6.109375 41.296875 11.75 
Q 45.40625 17.390625 45.40625 27.296875 
Q 45.40625 37.203125 41.296875 42.84375 
Q 37.203125 48.484375 30.078125 48.484375 
Q 22.953125 48.484375 18.875 42.84375 
Q 14.796875 37.203125 14.796875 27.296875 
z
" id="DejaVuSans-64"/>
      </defs>
      <g transform="translate(139.96875 609.59375)rotate(-90)scale(0.1 -0.1)">
       <use xlink:href="#DejaVuSans-4c"/>
       <use x="55.697266" xlink:href="#DejaVuSans-65"/>
       <use x="117.205078" xlink:href="#DejaVuSans-78"/>
       <use x="176.384766" xlink:href="#DejaVuSans-69"/>
       <use x="204.167969" xlink:href="#DejaVuSans-6e"/>
       <use x="267.546875" xlink:href="#DejaVuSans-67"/>
       <use x="331.023438" xlink:href="#DejaVuSans-74"/>
       <use x="370.232422" xlink:href="#DejaVuSans-6f"/>
       <use x="431.414062" xlink:href="#DejaVuSans-6e"/>
       <use x="494.792969" xlink:href="#DejaVuSans-20"/>
       <use x="526.580078" xlink:href="#DejaVuSans-2d"/>
       <use x="562.664062" xlink:href="#DejaVuSans-20"/>
       <use x="594.451172" xlink:href="#DejaVuSans-42"/>
       <use x="663.054688" xlink:href="#DejaVuSans-72"/>
       <use x="704.167969" xlink:href="#DejaVuSans-69"/>
       <use x="731.951172" xlink:href="#DejaVuSans-64"/>
       <use x="795.427734" xlink:href="#DejaVuSans-67"/>
       <use x="858.904297" xlink:href="#DejaVuSans-65"/>
      </g>
     </g>
    </g>
    <g id="xtick_3">
     <g id="line2d_3">
      <g>
       <use style="stroke:#000000;stroke-width:0.8;" x="204.090625" xlink:href="#mfe7ecf1436" y="510.548437"/>
      </g>
     </g>
     <g id="text_3">
      <!-- Lexington - Fiske -->
      <defs>
       <path d="M 9.8125 72.90625 
L 51.703125 72.90625 
L 51.703125 64.59375 
L 19.671875 64.59375 
L 19.671875 43.109375 
L 48.578125 43.109375 
L 48.578125 34.8125 
L 19.671875 34.8125 
L 19.671875 0 
L 9.8125 0 
z
" id="DejaVuSans-46"/>
       <path d="M 44.28125 53.078125 
L 44.28125 44.578125 
Q 40.484375 46.53125 36.375 47.5 
Q 32.28125 48.484375 27.875 48.484375 
Q 21.1875 48.484375 17.84375 46.4375 
Q 14.5 44.390625 14.5 40.28125 
Q 14.5 37.15625 16.890625 35.375 
Q 19.28125 33.59375 26.515625 31.984375 
L 29.59375 31.296875 
Q 39.15625 29.25 43.1875 25.515625 
Q 47.21875 21.78125 47.21875 15.09375 
Q 47.21875 7.46875 41.1875 3.015625 
Q 35.15625 -1.421875 24.609375 -1.421875 
Q 20.21875 -1.421875 15.453125 -0.5625 
Q 10.6875 0.296875 5.421875 2 
L 5.421875 11.28125 
Q 10.40625 8.6875 15.234375 7.390625 
Q 20.0625 6.109375 24.8125 6.109375 
Q 31.15625 6.109375 34.5625 8.28125 
Q 37.984375 10.453125 37.984375 14.40625 
Q 37.984375 18.0625 35.515625 20.015625 
Q 33.0625 21.96875 24.703125 23.78125 
L 21.578125 24.515625 
Q 13.234375 26.265625 9.515625 29.90625 
Q 5.8125 33.546875 5.8125 39.890625 
Q 5.8125 47.609375 11.28125 51.796875 
Q 16.75 56 26.8125 56 
Q 31.78125 56 36.171875 55.265625 
Q 40.578125 54.546875 44.28125 53.078125 
z
" id="DejaVuSans-73"/>
       <path d="M 9.078125 75.984375 
L 18.109375 75.984375 
L 18.109375 31.109375 
L 44.921875 54.6875 
L 56.390625 54.6875 
L 27.390625 29.109375 
L 57.625 0 
L 45.90625 0 
L 18.109375 26.703125 
L 18.109375 0 
L 9.078125 0 
z
" id="DejaVuSans-6b"/>
      </defs>
      <g transform="translate(206.85 602.660938)rotate(-90)scale(0.1 -0.1)">
       <use xlink:href="#DejaVuSans-4c"/>
       <use x="55.697266" xlink:href="#DejaVuSans-65"/>
       <use x="117.205078" xlink:href="#DejaVuSans-78"/>
       <use x="176.384766" xlink:href="#DejaVuSans-69"/>
       <use x="204.167969" xlink:href="#DejaVuSans-6e"/>
       <use x="267.546875" xlink:href="#DejaVuSans-67"/>
       <use x="331.023438" xlink:href="#DejaVuSans-74"/>
       <use x="370.232422" xlink:href="#DejaVuSans-6f"/>
       <use x="431.414062" xlink:href="#DejaVuSans-6e"/>
       <use x="494.792969" xlink:href="#DejaVuSans-20"/>
       <use x="526.580078" xlink:href="#DejaVuSans-2d"/>
       <use x="562.664062" xlink:href="#DejaVuSans-20"/>
       <use x="594.451172" xlink:href="#DejaVuSans-46"/>
       <use x="651.861328" xlink:href="#DejaVuSans-69"/>
       <use x="679.644531" xlink:href="#DejaVuSans-73"/>
       <use x="731.744141" xlink:href="#DejaVuSans-6b"/>
       <use x="789.607422" xlink:href="#DejaVuSans-65"/>
      </g>
     </g>
    </g>
    <g id="xtick_4">
     <g id="line2d_4">
      <g>
       <use style="stroke:#000000;stroke-width:0.8;" x="270.971875" xlink:href="#mfe7ecf1436" y="510.548437"/>
      </g>
     </g>
     <g id="text_4">
      <!-- Lexington - Harrington -->
      <defs>
       <path d="M 9.8125 72.90625 
L 19.671875 72.90625 
L 19.671875 43.015625 
L 55.515625 43.015625 
L 55.515625 72.90625 
L 65.375 72.90625 
L 65.375 0 
L 55.515625 0 
L 55.515625 34.71875 
L 19.671875 34.71875 
L 19.671875 0 
L 9.8125 0 
z
" id="DejaVuSans-48"/>
      </defs>
      <g transform="translate(273.73125 630.703125)rotate(-90)scale(0.1 -0.1)">
       <use xlink:href="#DejaVuSans-4c"/>
       <use x="55.697266" xlink:href="#DejaVuSans-65"/>
       <use x="117.205078" xlink:href="#DejaVuSans-78"/>
       <use x="176.384766" xlink:href="#DejaVuSans-69"/>
       <use x="204.167969" xlink:href="#DejaVuSans-6e"/>
       <use x="267.546875" xlink:href="#DejaVuSans-67"/>
       <use x="331.023438" xlink:href="#DejaVuSans-74"/>
       <use x="370.232422" xlink:href="#DejaVuSans-6f"/>
       <use x="431.414062" xlink:href="#DejaVuSans-6e"/>
       <use x="494.792969" xlink:href="#DejaVuSans-20"/>
       <use x="526.580078" xlink:href="#DejaVuSans-2d"/>
       <use x="562.664062" xlink:href="#DejaVuSans-20"/>
       <use x="594.451172" xlink:href="#DejaVuSans-48"/>
       <use x="669.646484" xlink:href="#DejaVuSans-61"/>
       <use x="730.925781" xlink:href="#DejaVuSans-72"/>
       <use x="772.023438" xlink:href="#DejaVuSans-72"/>
       <use x="813.136719" xlink:href="#DejaVuSans-69"/>
       <use x="840.919922" xlink:href="#DejaVuSans-6e"/>
       <use x="904.298828" xlink:href="#DejaVuSans-67"/>
       <use x="967.775391" xlink:href="#DejaVuSans-74"/>
       <use x="1006.984375" xlink:href="#DejaVuSans-6f"/>
       <use x="1068.166016" xlink:href="#DejaVuSans-6e"/>
      </g>
     </g>
    </g>
    <g id="xtick_5">
     <g id="line2d_5">
      <g>
       <use style="stroke:#000000;stroke-width:0.8;" x="337.853125" xlink:href="#mfe7ecf1436" y="510.548437"/>
      </g>
     </g>
     <g id="text_5">
      <!-- Lexington - Jonas Clarke Middle -->
      <defs>
       <path d="M 9.8125 72.90625 
L 19.671875 72.90625 
L 19.671875 5.078125 
Q 19.671875 -8.109375 14.671875 -14.0625 
Q 9.671875 -20.015625 -1.421875 -20.015625 
L -5.171875 -20.015625 
L -5.171875 -11.71875 
L -2.09375 -11.71875 
Q 4.4375 -11.71875 7.125 -8.046875 
Q 9.8125 -4.390625 9.8125 5.078125 
z
" id="DejaVuSans-4a"/>
       <path d="M 64.40625 67.28125 
L 64.40625 56.890625 
Q 59.421875 61.53125 53.78125 63.8125 
Q 48.140625 66.109375 41.796875 66.109375 
Q 29.296875 66.109375 22.65625 58.46875 
Q 16.015625 50.828125 16.015625 36.375 
Q 16.015625 21.96875 22.65625 14.328125 
Q 29.296875 6.6875 41.796875 6.6875 
Q 48.140625 6.6875 53.78125 8.984375 
Q 59.421875 11.28125 64.40625 15.921875 
L 64.40625 5.609375 
Q 59.234375 2.09375 53.4375 0.328125 
Q 47.65625 -1.421875 41.21875 -1.421875 
Q 24.65625 -1.421875 15.125 8.703125 
Q 5.609375 18.84375 5.609375 36.375 
Q 5.609375 53.953125 15.125 64.078125 
Q 24.65625 74.21875 41.21875 74.21875 
Q 47.75 74.21875 53.53125 72.484375 
Q 59.328125 70.75 64.40625 67.28125 
z
" id="DejaVuSans-43"/>
       <path d="M 9.421875 75.984375 
L 18.40625 75.984375 
L 18.40625 0 
L 9.421875 0 
z
" id="DejaVuSans-6c"/>
       <path d="M 9.8125 72.90625 
L 24.515625 72.90625 
L 43.109375 23.296875 
L 61.8125 72.90625 
L 76.515625 72.90625 
L 76.515625 0 
L 66.890625 0 
L 66.890625 64.015625 
L 48.09375 14.015625 
L 38.1875 14.015625 
L 19.390625 64.015625 
L 19.390625 0 
L 9.8125 0 
z
" id="DejaVuSans-4d"/>
      </defs>
      <g transform="translate(340.6125 675.067188)rotate(-90)scale(0.1 -0.1)">
       <use xlink:href="#DejaVuSans-4c"/>
       <use x="55.697266" xlink:href="#DejaVuSans-65"/>
       <use x="117.205078" xlink:href="#DejaVuSans-78"/>
       <use x="176.384766" xlink:href="#DejaVuSans-69"/>
       <use x="204.167969" xlink:href="#DejaVuSans-6e"/>
       <use x="267.546875" xlink:href="#DejaVuSans-67"/>
       <use x="331.023438" xlink:href="#DejaVuSans-74"/>
       <use x="370.232422" xlink:href="#DejaVuSans-6f"/>
       <use x="431.414062" xlink:href="#DejaVuSans-6e"/>
       <use x="494.792969" xlink:href="#DejaVuSans-20"/>
       <use x="526.580078" xlink:href="#DejaVuSans-2d"/>
       <use x="562.664062" xlink:href="#DejaVuSans-20"/>
       <use x="594.451172" xlink:href="#DejaVuSans-4a"/>
       <use x="623.943359" xlink:href="#DejaVuSans-6f"/>
       <use x="685.125" xlink:href="#DejaVuSans-6e"/>
       <use x="748.503906" xlink:href="#DejaVuSans-61"/>
       <use x="809.783203" xlink:href="#DejaVuSans-73"/>
       <use x="861.882812" xlink:href="#DejaVuSans-20"/>
       <use x="893.669922" xlink:href="#DejaVuSans-43"/>
       <use x="963.494141" xlink:href="#DejaVuSans-6c"/>
       <use x="991.277344" xlink:href="#DejaVuSans-61"/>
       <use x="1052.556641" xlink:href="#DejaVuSans-72"/>
       <use x="1093.669922" xlink:href="#DejaVuSans-6b"/>
       <use x="1151.533203" xlink:href="#DejaVuSans-65"/>
       <use x="1213.056641" xlink:href="#DejaVuSans-20"/>
       <use x="1244.84375" xlink:href="#DejaVuSans-4d"/>
       <use x="1331.123047" xlink:href="#DejaVuSans-69"/>
       <use x="1358.90625" xlink:href="#DejaVuSans-64"/>
       <use x="1422.382812" xlink:href="#DejaVuSans-64"/>
       <use x="1485.859375" xlink:href="#DejaVuSans-6c"/>
       <use x="1513.642578" xlink:href="#DejaVuSans-65"/>
      </g>
     </g>
    </g>
    <g id="xtick_6">
     <g id="line2d_6">
      <g>
       <use style="stroke:#000000;stroke-width:0.8;" x="404.734375" xlink:href="#mfe7ecf1436" y="510.548437"/>
      </g>
     </g>
     <g id="text_6">
      <!-- Lexington - Joseph Estabrook -->
      <defs>
       <path d="M 18.109375 8.203125 
L 18.109375 -20.796875 
L 9.078125 -20.796875 
L 9.078125 54.6875 
L 18.109375 54.6875 
L 18.109375 46.390625 
Q 20.953125 51.265625 25.265625 53.625 
Q 29.59375 56 35.59375 56 
Q 45.5625 56 51.78125 48.09375 
Q 58.015625 40.1875 58.015625 27.296875 
Q 58.015625 14.40625 51.78125 6.484375 
Q 45.5625 -1.421875 35.59375 -1.421875 
Q 29.59375 -1.421875 25.265625 0.953125 
Q 20.953125 3.328125 18.109375 8.203125 
z
M 48.6875 27.296875 
Q 48.6875 37.203125 44.609375 42.84375 
Q 40.53125 48.484375 33.40625 48.484375 
Q 26.265625 48.484375 22.1875 42.84375 
Q 18.109375 37.203125 18.109375 27.296875 
Q 18.109375 17.390625 22.1875 11.75 
Q 26.265625 6.109375 33.40625 6.109375 
Q 40.53125 6.109375 44.609375 11.75 
Q 48.6875 17.390625 48.6875 27.296875 
z
" id="DejaVuSans-70"/>
       <path d="M 54.890625 33.015625 
L 54.890625 0 
L 45.90625 0 
L 45.90625 32.71875 
Q 45.90625 40.484375 42.875 44.328125 
Q 39.84375 48.1875 33.796875 48.1875 
Q 26.515625 48.1875 22.3125 43.546875 
Q 18.109375 38.921875 18.109375 30.90625 
L 18.109375 0 
L 9.078125 0 
L 9.078125 75.984375 
L 18.109375 75.984375 
L 18.109375 46.1875 
Q 21.34375 51.125 25.703125 53.5625 
Q 30.078125 56 35.796875 56 
Q 45.21875 56 50.046875 50.171875 
Q 54.890625 44.34375 54.890625 33.015625 
z
" id="DejaVuSans-68"/>
       <path d="M 9.8125 72.90625 
L 55.90625 72.90625 
L 55.90625 64.59375 
L 19.671875 64.59375 
L 19.671875 43.015625 
L 54.390625 43.015625 
L 54.390625 34.71875 
L 19.671875 34.71875 
L 19.671875 8.296875 
L 56.78125 8.296875 
L 56.78125 0 
L 9.8125 0 
z
" id="DejaVuSans-45"/>
       <path d="M 48.6875 27.296875 
Q 48.6875 37.203125 44.609375 42.84375 
Q 40.53125 48.484375 33.40625 48.484375 
Q 26.265625 48.484375 22.1875 42.84375 
Q 18.109375 37.203125 18.109375 27.296875 
Q 18.109375 17.390625 22.1875 11.75 
Q 26.265625 6.109375 33.40625 6.109375 
Q 40.53125 6.109375 44.609375 11.75 
Q 48.6875 17.390625 48.6875 27.296875 
z
M 18.109375 46.390625 
Q 20.953125 51.265625 25.265625 53.625 
Q 29.59375 56 35.59375 56 
Q 45.5625 56 51.78125 48.09375 
Q 58.015625 40.1875 58.015625 27.296875 
Q 58.015625 14.40625 51.78125 6.484375 
Q 45.5625 -1.421875 35.59375 -1.421875 
Q 29.59375 -1.421875 25.265625 0.953125 
Q 20.953125 3.328125 18.109375 8.203125 
L 18.109375 0 
L 9.078125 0 
L 9.078125 75.984375 
L 18.109375 75.984375 
z
" id="DejaVuSans-62"/>
      </defs>
      <g transform="translate(407.49375 663.35)rotate(-90)scale(0.1 -0.1)">
       <use xlink:href="#DejaVuSans-4c"/>
       <use x="55.697266" xlink:href="#DejaVuSans-65"/>
       <use x="117.205078" xlink:href="#DejaVuSans-78"/>
       <use x="176.384766" xlink:href="#DejaVuSans-69"/>
       <use x="204.167969" xlink:href="#DejaVuSans-6e"/>
       <use x="267.546875" xlink:href="#DejaVuSans-67"/>
       <use x="331.023438" xlink:href="#DejaVuSans-74"/>
       <use x="370.232422" xlink:href="#DejaVuSans-6f"/>
       <use x="431.414062" xlink:href="#DejaVuSans-6e"/>
       <use x="494.792969" xlink:href="#DejaVuSans-20"/>
       <use x="526.580078" xlink:href="#DejaVuSans-2d"/>
       <use x="562.664062" xlink:href="#DejaVuSans-20"/>
       <use x="594.451172" xlink:href="#DejaVuSans-4a"/>
       <use x="623.943359" xlink:href="#DejaVuSans-6f"/>
       <use x="685.125" xlink:href="#DejaVuSans-73"/>
       <use x="737.224609" xlink:href="#DejaVuSans-65"/>
       <use x="798.748047" xlink:href="#DejaVuSans-70"/>
       <use x="862.224609" xlink:href="#DejaVuSans-68"/>
       <use x="925.603516" xlink:href="#DejaVuSans-20"/>
       <use x="957.390625" xlink:href="#DejaVuSans-45"/>
       <use x="1020.574219" xlink:href="#DejaVuSans-73"/>
       <use x="1072.673828" xlink:href="#DejaVuSans-74"/>
       <use x="1111.882812" xlink:href="#DejaVuSans-61"/>
       <use x="1173.162109" xlink:href="#DejaVuSans-62"/>
       <use x="1236.638672" xlink:href="#DejaVuSans-72"/>
       <use x="1277.720703" xlink:href="#DejaVuSans-6f"/>
       <use x="1338.902344" xlink:href="#DejaVuSans-6f"/>
       <use x="1400.083984" xlink:href="#DejaVuSans-6b"/>
      </g>
     </g>
    </g>
    <g id="xtick_7">
     <g id="line2d_7">
      <g>
       <use style="stroke:#000000;stroke-width:0.8;" x="471.615625" xlink:href="#mfe7ecf1436" y="510.548437"/>
      </g>
     </g>
     <g id="text_7">
      <!-- Lexington - Lexington Children's Place -->
      <defs>
       <path d="M 17.921875 72.90625 
L 17.921875 45.796875 
L 9.625 45.796875 
L 9.625 72.90625 
z
" id="DejaVuSans-27"/>
       <path d="M 19.671875 64.796875 
L 19.671875 37.40625 
L 32.078125 37.40625 
Q 38.96875 37.40625 42.71875 40.96875 
Q 46.484375 44.53125 46.484375 51.125 
Q 46.484375 57.671875 42.71875 61.234375 
Q 38.96875 64.796875 32.078125 64.796875 
z
M 9.8125 72.90625 
L 32.078125 72.90625 
Q 44.34375 72.90625 50.609375 67.359375 
Q 56.890625 61.8125 56.890625 51.125 
Q 56.890625 40.328125 50.609375 34.8125 
Q 44.34375 29.296875 32.078125 29.296875 
L 19.671875 29.296875 
L 19.671875 0 
L 9.8125 0 
z
" id="DejaVuSans-50"/>
       <path d="M 48.78125 52.59375 
L 48.78125 44.1875 
Q 44.96875 46.296875 41.140625 47.34375 
Q 37.3125 48.390625 33.40625 48.390625 
Q 24.65625 48.390625 19.8125 42.84375 
Q 14.984375 37.3125 14.984375 27.296875 
Q 14.984375 17.28125 19.8125 11.734375 
Q 24.65625 6.203125 33.40625 6.203125 
Q 37.3125 6.203125 41.140625 7.25 
Q 44.96875 8.296875 48.78125 10.40625 
L 48.78125 2.09375 
Q 45.015625 0.34375 40.984375 -0.53125 
Q 36.96875 -1.421875 32.421875 -1.421875 
Q 20.0625 -1.421875 12.78125 6.34375 
Q 5.515625 14.109375 5.515625 27.296875 
Q 5.515625 40.671875 12.859375 48.328125 
Q 20.21875 56 33.015625 56 
Q 37.15625 56 41.109375 55.140625 
Q 45.0625 54.296875 48.78125 52.59375 
z
" id="DejaVuSans-63"/>
      </defs>
      <g transform="translate(474.375 709.2)rotate(-90)scale(0.1 -0.1)">
       <use xlink:href="#DejaVuSans-4c"/>
       <use x="55.697266" xlink:href="#DejaVuSans-65"/>
       <use x="117.205078" xlink:href="#DejaVuSans-78"/>
       <use x="176.384766" xlink:href="#DejaVuSans-69"/>
       <use x="204.167969" xlink:href="#DejaVuSans-6e"/>
       <use x="267.546875" xlink:href="#DejaVuSans-67"/>
       <use x="331.023438" xlink:href="#DejaVuSans-74"/>
       <use x="370.232422" xlink:href="#DejaVuSans-6f"/>
       <use x="431.414062" xlink:href="#DejaVuSans-6e"/>
       <use x="494.792969" xlink:href="#DejaVuSans-20"/>
       <use x="526.580078" xlink:href="#DejaVuSans-2d"/>
       <use x="562.664062" xlink:href="#DejaVuSans-20"/>
       <use x="594.451172" xlink:href="#DejaVuSans-4c"/>
       <use x="650.148438" xlink:href="#DejaVuSans-65"/>
       <use x="711.65625" xlink:href="#DejaVuSans-78"/>
       <use x="770.835938" xlink:href="#DejaVuSans-69"/>
       <use x="798.619141" xlink:href="#DejaVuSans-6e"/>
       <use x="861.998047" xlink:href="#DejaVuSans-67"/>
       <use x="925.474609" xlink:href="#DejaVuSans-74"/>
       <use x="964.683594" xlink:href="#DejaVuSans-6f"/>
       <use x="1025.865234" xlink:href="#DejaVuSans-6e"/>
       <use x="1089.244141" xlink:href="#DejaVuSans-20"/>
       <use x="1121.03125" xlink:href="#DejaVuSans-43"/>
       <use x="1190.855469" xlink:href="#DejaVuSans-68"/>
       <use x="1254.234375" xlink:href="#DejaVuSans-69"/>
       <use x="1282.017578" xlink:href="#DejaVuSans-6c"/>
       <use x="1309.800781" xlink:href="#DejaVuSans-64"/>
       <use x="1373.277344" xlink:href="#DejaVuSans-72"/>
       <use x="1414.359375" xlink:href="#DejaVuSans-65"/>
       <use x="1475.882812" xlink:href="#DejaVuSans-6e"/>
       <use x="1539.261719" xlink:href="#DejaVuSans-27"/>
       <use x="1566.751953" xlink:href="#DejaVuSans-73"/>
       <use x="1618.851562" xlink:href="#DejaVuSans-20"/>
       <use x="1650.638672" xlink:href="#DejaVuSans-50"/>
       <use x="1710.941406" xlink:href="#DejaVuSans-6c"/>
       <use x="1738.724609" xlink:href="#DejaVuSans-61"/>
       <use x="1800.003906" xlink:href="#DejaVuSans-63"/>
       <use x="1854.984375" xlink:href="#DejaVuSans-65"/>
      </g>
     </g>
    </g>
    <g id="xtick_8">
     <g id="line2d_8">
      <g>
       <use style="stroke:#000000;stroke-width:0.8;" x="538.496875" xlink:href="#mfe7ecf1436" y="510.548437"/>
      </g>
     </g>
     <g id="text_8">
      <!-- Lexington - Lexington High -->
      <g transform="translate(541.25625 652.6375)rotate(-90)scale(0.1 -0.1)">
       <use xlink:href="#DejaVuSans-4c"/>
       <use x="55.697266" xlink:href="#DejaVuSans-65"/>
       <use x="117.205078" xlink:href="#DejaVuSans-78"/>
       <use x="176.384766" xlink:href="#DejaVuSans-69"/>
       <use x="204.167969" xlink:href="#DejaVuSans-6e"/>
       <use x="267.546875" xlink:href="#DejaVuSans-67"/>
       <use x="331.023438" xlink:href="#DejaVuSans-74"/>
       <use x="370.232422" xlink:href="#DejaVuSans-6f"/>
       <use x="431.414062" xlink:href="#DejaVuSans-6e"/>
       <use x="494.792969" xlink:href="#DejaVuSans-20"/>
       <use x="526.580078" xlink:href="#DejaVuSans-2d"/>
       <use x="562.664062" xlink:href="#DejaVuSans-20"/>
       <use x="594.451172" xlink:href="#DejaVuSans-4c"/>
       <use x="650.148438" xlink:href="#DejaVuSans-65"/>
       <use x="711.65625" xlink:href="#DejaVuSans-78"/>
       <use x="770.835938" xlink:href="#DejaVuSans-69"/>
       <use x="798.619141" xlink:href="#DejaVuSans-6e"/>
       <use x="861.998047" xlink:href="#DejaVuSans-67"/>
       <use x="925.474609" xlink:href="#DejaVuSans-74"/>
       <use x="964.683594" xlink:href="#DejaVuSans-6f"/>
       <use x="1025.865234" xlink:href="#DejaVuSans-6e"/>
       <use x="1089.244141" xlink:href="#DejaVuSans-20"/>
       <use x="1121.03125" xlink:href="#DejaVuSans-48"/>
       <use x="1196.226562" xlink:href="#DejaVuSans-69"/>
       <use x="1224.009766" xlink:href="#DejaVuSans-67"/>
       <use x="1287.486328" xlink:href="#DejaVuSans-68"/>
      </g>
     </g>
    </g>
    <g id="xtick_9">
     <g id="line2d_9">
      <g>
       <use style="stroke:#000000;stroke-width:0.8;" x="605.378125" xlink:href="#mfe7ecf1436" y="510.548437"/>
      </g>
     </g>
     <g id="text_9">
      <!-- Lexington - Maria Hastings -->
      <g transform="translate(608.1375 651.396875)rotate(-90)scale(0.1 -0.1)">
       <use xlink:href="#DejaVuSans-4c"/>
       <use x="55.697266" xlink:href="#DejaVuSans-65"/>
       <use x="117.205078" xlink:href="#DejaVuSans-78"/>
       <use x="176.384766" xlink:href="#DejaVuSans-69"/>
       <use x="204.167969" xlink:href="#DejaVuSans-6e"/>
       <use x="267.546875" xlink:href="#DejaVuSans-67"/>
       <use x="331.023438" xlink:href="#DejaVuSans-74"/>
       <use x="370.232422" xlink:href="#DejaVuSans-6f"/>
       <use x="431.414062" xlink:href="#DejaVuSans-6e"/>
       <use x="494.792969" xlink:href="#DejaVuSans-20"/>
       <use x="526.580078" xlink:href="#DejaVuSans-2d"/>
       <use x="562.664062" xlink:href="#DejaVuSans-20"/>
       <use x="594.451172" xlink:href="#DejaVuSans-4d"/>
       <use x="680.730469" xlink:href="#DejaVuSans-61"/>
       <use x="742.009766" xlink:href="#DejaVuSans-72"/>
       <use x="783.123047" xlink:href="#DejaVuSans-69"/>
       <use x="810.90625" xlink:href="#DejaVuSans-61"/>
       <use x="872.185547" xlink:href="#DejaVuSans-20"/>
       <use x="903.972656" xlink:href="#DejaVuSans-48"/>
       <use x="979.167969" xlink:href="#DejaVuSans-61"/>
       <use x="1040.447266" xlink:href="#DejaVuSans-73"/>
       <use x="1092.546875" xlink:href="#DejaVuSans-74"/>
       <use x="1131.755859" xlink:href="#DejaVuSans-69"/>
       <use x="1159.539062" xlink:href="#DejaVuSans-6e"/>
       <use x="1222.917969" xlink:href="#DejaVuSans-67"/>
       <use x="1286.394531" xlink:href="#DejaVuSans-73"/>
      </g>
     </g>
    </g>
    <g id="xtick_10">
     <g id="line2d_10">
      <g>
       <use style="stroke:#000000;stroke-width:0.8;" x="672.259375" xlink:href="#mfe7ecf1436" y="510.548437"/>
      </g>
     </g>
     <g id="text_10">
      <!-- Lexington - Wm Diamond Middle -->
      <defs>
       <path d="M 3.328125 72.90625 
L 13.28125 72.90625 
L 28.609375 11.28125 
L 43.890625 72.90625 
L 54.984375 72.90625 
L 70.3125 11.28125 
L 85.59375 72.90625 
L 95.609375 72.90625 
L 77.296875 0 
L 64.890625 0 
L 49.515625 63.28125 
L 33.984375 0 
L 21.578125 0 
z
" id="DejaVuSans-57"/>
       <path d="M 19.671875 64.796875 
L 19.671875 8.109375 
L 31.59375 8.109375 
Q 46.6875 8.109375 53.6875 14.9375 
Q 60.6875 21.78125 60.6875 36.53125 
Q 60.6875 51.171875 53.6875 57.984375 
Q 46.6875 64.796875 31.59375 64.796875 
z
M 9.8125 72.90625 
L 30.078125 72.90625 
Q 51.265625 72.90625 61.171875 64.09375 
Q 71.09375 55.28125 71.09375 36.53125 
Q 71.09375 17.671875 61.125 8.828125 
Q 51.171875 0 30.078125 0 
L 9.8125 0 
z
" id="DejaVuSans-44"/>
      </defs>
      <g transform="translate(675.01875 681.164062)rotate(-90)scale(0.1 -0.1)">
       <use xlink:href="#DejaVuSans-4c"/>
       <use x="55.697266" xlink:href="#DejaVuSans-65"/>
       <use x="117.205078" xlink:href="#DejaVuSans-78"/>
       <use x="176.384766" xlink:href="#DejaVuSans-69"/>
       <use x="204.167969" xlink:href="#DejaVuSans-6e"/>
       <use x="267.546875" xlink:href="#DejaVuSans-67"/>
       <use x="331.023438" xlink:href="#DejaVuSans-74"/>
       <use x="370.232422" xlink:href="#DejaVuSans-6f"/>
       <use x="431.414062" xlink:href="#DejaVuSans-6e"/>
       <use x="494.792969" xlink:href="#DejaVuSans-20"/>
       <use x="526.580078" xlink:href="#DejaVuSans-2d"/>
       <use x="562.664062" xlink:href="#DejaVuSans-20"/>
       <use x="594.451172" xlink:href="#DejaVuSans-57"/>
       <use x="693.328125" xlink:href="#DejaVuSans-6d"/>
       <use x="790.740234" xlink:href="#DejaVuSans-20"/>
       <use x="822.527344" xlink:href="#DejaVuSans-44"/>
       <use x="899.529297" xlink:href="#DejaVuSans-69"/>
       <use x="927.3125" xlink:href="#DejaVuSans-61"/>
       <use x="988.591797" xlink:href="#DejaVuSans-6d"/>
       <use x="1086.003906" xlink:href="#DejaVuSans-6f"/>
       <use x="1147.185547" xlink:href="#DejaVuSans-6e"/>
       <use x="1210.564453" xlink:href="#DejaVuSans-64"/>
       <use x="1274.041016" xlink:href="#DejaVuSans-20"/>
       <use x="1305.828125" xlink:href="#DejaVuSans-4d"/>
       <use x="1392.107422" xlink:href="#DejaVuSans-69"/>
       <use x="1419.890625" xlink:href="#DejaVuSans-64"/>
       <use x="1483.367188" xlink:href="#DejaVuSans-64"/>
       <use x="1546.84375" xlink:href="#DejaVuSans-6c"/>
       <use x="1574.626953" xlink:href="#DejaVuSans-65"/>
      </g>
     </g>
    </g>
   </g>
   <g id="matplotlib.axis_2">
    <g id="ytick_1">
     <g id="line2d_11">
      <defs>
       <path d="M 0 0 
L -3.5 0 
" id="m71ee1ca320" style="stroke:#000000;stroke-width:0.8;"/>
      </defs>
      <g>
       <use style="stroke:#000000;stroke-width:0.8;" x="36.8875" xlink:href="#m71ee1ca320" y="510.548437"/>
      </g>
     </g>
     <g id="text_11">
      <!-- 0 -->
      <defs>
       <path d="M 31.78125 66.40625 
Q 24.171875 66.40625 20.328125 58.90625 
Q 16.5 51.421875 16.5 36.375 
Q 16.5 21.390625 20.328125 13.890625 
Q 24.171875 6.390625 31.78125 6.390625 
Q 39.453125 6.390625 43.28125 13.890625 
Q 47.125 21.390625 47.125 36.375 
Q 47.125 51.421875 43.28125 58.90625 
Q 39.453125 66.40625 31.78125 66.40625 
z
M 31.78125 74.21875 
Q 44.046875 74.21875 50.515625 64.515625 
Q 56.984375 54.828125 56.984375 36.375 
Q 56.984375 17.96875 50.515625 8.265625 
Q 44.046875 -1.421875 31.78125 -1.421875 
Q 19.53125 -1.421875 13.0625 8.265625 
Q 6.59375 17.96875 6.59375 36.375 
Q 6.59375 54.828125 13.0625 64.515625 
Q 19.53125 74.21875 31.78125 74.21875 
z
" id="DejaVuSans-30"/>
      </defs>
      <g transform="translate(23.525 514.347656)scale(0.1 -0.1)">
       <use xlink:href="#DejaVuSans-30"/>
      </g>
     </g>
    </g>
    <g id="ytick_2">
     <g id="line2d_12">
      <g>
       <use style="stroke:#000000;stroke-width:0.8;" x="36.8875" xlink:href="#m71ee1ca320" y="416.960802"/>
      </g>
     </g>
     <g id="text_12">
      <!-- 20 -->
      <defs>
       <path d="M 19.1875 8.296875 
L 53.609375 8.296875 
L 53.609375 0 
L 7.328125 0 
L 7.328125 8.296875 
Q 12.9375 14.109375 22.625 23.890625 
Q 32.328125 33.6875 34.8125 36.53125 
Q 39.546875 41.84375 41.421875 45.53125 
Q 43.3125 49.21875 43.3125 52.78125 
Q 43.3125 58.59375 39.234375 62.25 
Q 35.15625 65.921875 28.609375 65.921875 
Q 23.96875 65.921875 18.8125 64.3125 
Q 13.671875 62.703125 7.8125 59.421875 
L 7.8125 69.390625 
Q 13.765625 71.78125 18.9375 73 
Q 24.125 74.21875 28.421875 74.21875 
Q 39.75 74.21875 46.484375 68.546875 
Q 53.21875 62.890625 53.21875 53.421875 
Q 53.21875 48.921875 51.53125 44.890625 
Q 49.859375 40.875 45.40625 35.40625 
Q 44.1875 33.984375 37.640625 27.21875 
Q 31.109375 20.453125 19.1875 8.296875 
z
" id="DejaVuSans-32"/>
      </defs>
      <g transform="translate(17.1625 420.760021)scale(0.1 -0.1)">
       <use xlink:href="#DejaVuSans-32"/>
       <use x="63.623047" xlink:href="#DejaVuSans-30"/>
      </g>
     </g>
    </g>
    <g id="ytick_3">
     <g id="line2d_13">
      <g>
       <use style="stroke:#000000;stroke-width:0.8;" x="36.8875" xlink:href="#m71ee1ca320" y="323.373166"/>
      </g>
     </g>
     <g id="text_13">
      <!-- 40 -->
      <defs>
       <path d="M 37.796875 64.3125 
L 12.890625 25.390625 
L 37.796875 25.390625 
z
M 35.203125 72.90625 
L 47.609375 72.90625 
L 47.609375 25.390625 
L 58.015625 25.390625 
L 58.015625 17.1875 
L 47.609375 17.1875 
L 47.609375 0 
L 37.796875 0 
L 37.796875 17.1875 
L 4.890625 17.1875 
L 4.890625 26.703125 
z
" id="DejaVuSans-34"/>
      </defs>
      <g transform="translate(17.1625 327.172385)scale(0.1 -0.1)">
       <use xlink:href="#DejaVuSans-34"/>
       <use x="63.623047" xlink:href="#DejaVuSans-30"/>
      </g>
     </g>
    </g>
    <g id="ytick_4">
     <g id="line2d_14">
      <g>
       <use style="stroke:#000000;stroke-width:0.8;" x="36.8875" xlink:href="#m71ee1ca320" y="229.785531"/>
      </g>
     </g>
     <g id="text_14">
      <!-- 60 -->
      <defs>
       <path d="M 33.015625 40.375 
Q 26.375 40.375 22.484375 35.828125 
Q 18.609375 31.296875 18.609375 23.390625 
Q 18.609375 15.53125 22.484375 10.953125 
Q 26.375 6.390625 33.015625 6.390625 
Q 39.65625 6.390625 43.53125 10.953125 
Q 47.40625 15.53125 47.40625 23.390625 
Q 47.40625 31.296875 43.53125 35.828125 
Q 39.65625 40.375 33.015625 40.375 
z
M 52.59375 71.296875 
L 52.59375 62.3125 
Q 48.875 64.0625 45.09375 64.984375 
Q 41.3125 65.921875 37.59375 65.921875 
Q 27.828125 65.921875 22.671875 59.328125 
Q 17.53125 52.734375 16.796875 39.40625 
Q 19.671875 43.65625 24.015625 45.921875 
Q 28.375 48.1875 33.59375 48.1875 
Q 44.578125 48.1875 50.953125 41.515625 
Q 57.328125 34.859375 57.328125 23.390625 
Q 57.328125 12.15625 50.6875 5.359375 
Q 44.046875 -1.421875 33.015625 -1.421875 
Q 20.359375 -1.421875 13.671875 8.265625 
Q 6.984375 17.96875 6.984375 36.375 
Q 6.984375 53.65625 15.1875 63.9375 
Q 23.390625 74.21875 37.203125 74.21875 
Q 40.921875 74.21875 44.703125 73.484375 
Q 48.484375 72.75 52.59375 71.296875 
z
" id="DejaVuSans-36"/>
      </defs>
      <g transform="translate(17.1625 233.58475)scale(0.1 -0.1)">
       <use xlink:href="#DejaVuSans-36"/>
       <use x="63.623047" xlink:href="#DejaVuSans-30"/>
      </g>
     </g>
    </g>
    <g id="ytick_5">
     <g id="line2d_15">
      <g>
       <use style="stroke:#000000;stroke-width:0.8;" x="36.8875" xlink:href="#m71ee1ca320" y="136.197895"/>
      </g>
     </g>
     <g id="text_15">
      <!-- 80 -->
      <defs>
       <path d="M 31.78125 34.625 
Q 24.75 34.625 20.71875 30.859375 
Q 16.703125 27.09375 16.703125 20.515625 
Q 16.703125 13.921875 20.71875 10.15625 
Q 24.75 6.390625 31.78125 6.390625 
Q 38.8125 6.390625 42.859375 10.171875 
Q 46.921875 13.96875 46.921875 20.515625 
Q 46.921875 27.09375 42.890625 30.859375 
Q 38.875 34.625 31.78125 34.625 
z
M 21.921875 38.8125 
Q 15.578125 40.375 12.03125 44.71875 
Q 8.5 49.078125 8.5 55.328125 
Q 8.5 64.0625 14.71875 69.140625 
Q 20.953125 74.21875 31.78125 74.21875 
Q 42.671875 74.21875 48.875 69.140625 
Q 55.078125 64.0625 55.078125 55.328125 
Q 55.078125 49.078125 51.53125 44.71875 
Q 48 40.375 41.703125 38.8125 
Q 48.828125 37.15625 52.796875 32.3125 
Q 56.78125 27.484375 56.78125 20.515625 
Q 56.78125 9.90625 50.3125 4.234375 
Q 43.84375 -1.421875 31.78125 -1.421875 
Q 19.734375 -1.421875 13.25 4.234375 
Q 6.78125 9.90625 6.78125 20.515625 
Q 6.78125 27.484375 10.78125 32.3125 
Q 14.796875 37.15625 21.921875 38.8125 
z
M 18.3125 54.390625 
Q 18.3125 48.734375 21.84375 45.5625 
Q 25.390625 42.390625 31.78125 42.390625 
Q 38.140625 42.390625 41.71875 45.5625 
Q 45.3125 48.734375 45.3125 54.390625 
Q 45.3125 60.0625 41.71875 63.234375 
Q 38.140625 66.40625 31.78125 66.40625 
Q 25.390625 66.40625 21.84375 63.234375 
Q 18.3125 60.0625 18.3125 54.390625 
z
" id="DejaVuSans-38"/>
      </defs>
      <g transform="translate(17.1625 139.997114)scale(0.1 -0.1)">
       <use xlink:href="#DejaVuSans-38"/>
       <use x="63.623047" xlink:href="#DejaVuSans-30"/>
      </g>
     </g>
    </g>
    <g id="ytick_6">
     <g id="line2d_16">
      <g>
       <use style="stroke:#000000;stroke-width:0.8;" x="36.8875" xlink:href="#m71ee1ca320" y="42.61026"/>
      </g>
     </g>
     <g id="text_16">
      <!-- 100 -->
      <defs>
       <path d="M 12.40625 8.296875 
L 28.515625 8.296875 
L 28.515625 63.921875 
L 10.984375 60.40625 
L 10.984375 69.390625 
L 28.421875 72.90625 
L 38.28125 72.90625 
L 38.28125 8.296875 
L 54.390625 8.296875 
L 54.390625 0 
L 12.40625 0 
z
" id="DejaVuSans-31"/>
      </defs>
      <g transform="translate(10.8 46.409479)scale(0.1 -0.1)">
       <use xlink:href="#DejaVuSans-31"/>
       <use x="63.623047" xlink:href="#DejaVuSans-30"/>
       <use x="127.246094" xlink:href="#DejaVuSans-30"/>
      </g>
     </g>
    </g>
   </g>
   <g id="patch_43">
    <path d="M 36.8875 510.548437 
L 36.8875 14.3 
" style="fill:none;stroke:#000000;stroke-linecap:square;stroke-linejoin:miter;stroke-width:0.8;"/>
   </g>
   <g id="patch_44">
    <path d="M 705.7 510.548437 
L 705.7 14.3 
" style="fill:none;stroke:#000000;stroke-linecap:square;stroke-linejoin:miter;stroke-width:0.8;"/>
   </g>
   <g id="patch_45">
    <path d="M 36.8875 510.548437 
L 705.7 510.548437 
" style="fill:none;stroke:#000000;stroke-linecap:square;stroke-linejoin:miter;stroke-width:0.8;"/>
   </g>
   <g id="patch_46">
    <path d="M 36.8875 14.3 
L 705.7 14.3 
" style="fill:none;stroke:#000000;stroke-linecap:square;stroke-linejoin:miter;stroke-width:0.8;"/>
   </g>
   <g id="legend_1">
    <g id="patch_47">
     <path d="M 43.8875 505.548437 
L 133.090625 505.548437 
Q 135.090625 505.548437 135.090625 503.548437 
L 135.090625 445.835938 
Q 135.090625 443.835938 133.090625 443.835938 
L 43.8875 443.835938 
Q 41.8875 443.835938 41.8875 445.835938 
L 41.8875 503.548437 
Q 41.8875 505.548437 43.8875 505.548437 
z
" style="fill:#ffffff;opacity:0.8;stroke:#cccccc;stroke-linejoin:miter;"/>
    </g>
    <g id="patch_48">
     <path d="M 45.8875 455.434375 
L 65.8875 455.434375 
L 65.8875 448.434375 
L 45.8875 448.434375 
z
" style="fill:#1f77b4;"/>
    </g>
    <g id="text_17">
     <!-- APercent -->
     <defs>
      <path d="M 34.1875 63.1875 
L 20.796875 26.90625 
L 47.609375 26.90625 
z
M 28.609375 72.90625 
L 39.796875 72.90625 
L 67.578125 0 
L 57.328125 0 
L 50.6875 18.703125 
L 17.828125 18.703125 
L 11.1875 0 
L 0.78125 0 
z
" id="DejaVuSans-41"/>
     </defs>
     <g transform="translate(73.8875 455.434375)scale(0.1 -0.1)">
      <use xlink:href="#DejaVuSans-41"/>
      <use x="68.408203" xlink:href="#DejaVuSans-50"/>
      <use x="128.664062" xlink:href="#DejaVuSans-65"/>
      <use x="190.1875" xlink:href="#DejaVuSans-72"/>
      <use x="231.269531" xlink:href="#DejaVuSans-63"/>
      <use x="286.25" xlink:href="#DejaVuSans-65"/>
      <use x="347.773438" xlink:href="#DejaVuSans-6e"/>
      <use x="411.152344" xlink:href="#DejaVuSans-74"/>
     </g>
    </g>
    <g id="patch_49">
     <path d="M 45.8875 470.1125 
L 65.8875 470.1125 
L 65.8875 463.1125 
L 45.8875 463.1125 
z
" style="fill:#ff7f0e;"/>
    </g>
    <g id="text_18">
     <!-- PPercent -->
     <g transform="translate(73.8875 470.1125)scale(0.1 -0.1)">
      <use xlink:href="#DejaVuSans-50"/>
      <use x="60.302734" xlink:href="#DejaVuSans-50"/>
      <use x="120.558594" xlink:href="#DejaVuSans-65"/>
      <use x="182.082031" xlink:href="#DejaVuSans-72"/>
      <use x="223.164062" xlink:href="#DejaVuSans-63"/>
      <use x="278.144531" xlink:href="#DejaVuSans-65"/>
      <use x="339.667969" xlink:href="#DejaVuSans-6e"/>
      <use x="403.046875" xlink:href="#DejaVuSans-74"/>
     </g>
    </g>
    <g id="patch_50">
     <path d="M 45.8875 484.790625 
L 65.8875 484.790625 
L 65.8875 477.790625 
L 45.8875 477.790625 
z
" style="fill:#2ca02c;"/>
    </g>
    <g id="text_19">
     <!-- NIPercent -->
     <defs>
      <path d="M 9.8125 72.90625 
L 23.09375 72.90625 
L 55.421875 11.921875 
L 55.421875 72.90625 
L 64.984375 72.90625 
L 64.984375 0 
L 51.703125 0 
L 19.390625 60.984375 
L 19.390625 0 
L 9.8125 0 
z
" id="DejaVuSans-4e"/>
      <path d="M 9.8125 72.90625 
L 19.671875 72.90625 
L 19.671875 0 
L 9.8125 0 
z
" id="DejaVuSans-49"/>
     </defs>
     <g transform="translate(73.8875 484.790625)scale(0.1 -0.1)">
      <use xlink:href="#DejaVuSans-4e"/>
      <use x="74.804688" xlink:href="#DejaVuSans-49"/>
      <use x="104.296875" xlink:href="#DejaVuSans-50"/>
      <use x="164.552734" xlink:href="#DejaVuSans-65"/>
      <use x="226.076172" xlink:href="#DejaVuSans-72"/>
      <use x="267.158203" xlink:href="#DejaVuSans-63"/>
      <use x="322.138672" xlink:href="#DejaVuSans-65"/>
      <use x="383.662109" xlink:href="#DejaVuSans-6e"/>
      <use x="447.041016" xlink:href="#DejaVuSans-74"/>
     </g>
    </g>
    <g id="patch_51">
     <path d="M 45.8875 499.46875 
L 65.8875 499.46875 
L 65.8875 492.46875 
L 45.8875 492.46875 
z
" style="fill:#d62728;"/>
    </g>
    <g id="text_20">
     <!-- W/FPercent -->
     <defs>
      <path d="M 25.390625 72.90625 
L 33.6875 72.90625 
L 8.296875 -9.28125 
L 0 -9.28125 
z
" id="DejaVuSans-2f"/>
     </defs>
     <g transform="translate(73.8875 499.46875)scale(0.1 -0.1)">
      <use xlink:href="#DejaVuSans-57"/>
      <use x="98.876953" xlink:href="#DejaVuSans-2f"/>
      <use x="132.568359" xlink:href="#DejaVuSans-46"/>
      <use x="190.087891" xlink:href="#DejaVuSans-50"/>
      <use x="250.34375" xlink:href="#DejaVuSans-65"/>
      <use x="311.867188" xlink:href="#DejaVuSans-72"/>
      <use x="352.949219" xlink:href="#DejaVuSans-63"/>
      <use x="407.929688" xlink:href="#DejaVuSans-65"/>
      <use x="469.453125" xlink:href="#DejaVuSans-6e"/>
      <use x="532.832031" xlink:href="#DejaVuSans-74"/>
     </g>
    </g>
   </g>
  </g>
 </g>
 <defs>
  <clipPath id="p6bc7c0dd63">
   <rect height="496.248437" width="668.8125" x="36.8875" y="14.3"/>
  </clipPath>
 </defs>
</svg>
