<?xml version="1.0" encoding="utf-8" standalone="no"?>
<!DOCTYPE svg PUBLIC "-//W3C//DTD SVG 1.1//EN"
  "http://www.w3.org/Graphics/SVG/1.1/DTD/svg11.dtd">
<!-- Created with matplotlib (http://matplotlib.org/) -->
<svg height="720pt" version="1.1" viewBox="0 0 720 720" width="720pt" xmlns="http://www.w3.org/2000/svg" xmlns:xlink="http://www.w3.org/1999/xlink">
 <defs>
  <style type="text/css">
*{stroke-linecap:butt;stroke-linejoin:round;}
  </style>
 </defs>
 <g id="figure_1">
  <g id="patch_1">
   <path d="M 0 720 
L 720 720 
L 720 0 
L 0 0 
z
" style="fill:#ffffff;"/>
  </g>
  <g id="axes_1">
   <g id="patch_2">
    <path d="M 30.525 488.954687 
L 705.7 488.954687 
L 705.7 14.3 
L 30.525 14.3 
z
" style="fill:#ffffff;"/>
   </g>
   <g id="patch_3">
    <path clip-path="url(#p7772a86e67)" d="M 43.509135 488.954687 
L 52.165224 488.954687 
L 52.165224 379.968259 
L 43.509135 379.968259 
z
" style="fill:#1f77b4;"/>
   </g>
   <g id="patch_4">
    <path clip-path="url(#p7772a86e67)" d="M 95.445673 488.954687 
L 104.101763 488.954687 
L 104.101763 378.357622 
L 95.445673 378.357622 
z
" style="fill:#1f77b4;"/>
   </g>
   <g id="patch_5">
    <path clip-path="url(#p7772a86e67)" d="M 147.382212 488.954687 
L 156.038301 488.954687 
L 156.038301 439.024944 
L 147.382212 439.024944 
z
" style="fill:#1f77b4;"/>
   </g>
   <g id="patch_6">
    <path clip-path="url(#p7772a86e67)" d="M 199.31875 488.954687 
L 207.97484 488.954687 
L 207.97484 274.739983 
L 199.31875 274.739983 
z
" style="fill:#1f77b4;"/>
   </g>
   <g id="patch_7">
    <path clip-path="url(#p7772a86e67)" d="M 251.255288 488.954687 
L 259.911378 488.954687 
L 259.911378 402.517175 
L 251.255288 402.517175 
z
" style="fill:#1f77b4;"/>
   </g>
   <g id="patch_8">
    <path clip-path="url(#p7772a86e67)" d="M 303.191827 488.954687 
L 311.847917 488.954687 
L 311.847917 388.021443 
L 303.191827 388.021443 
z
" style="fill:#1f77b4;"/>
   </g>
   <g id="patch_9">
    <path clip-path="url(#p7772a86e67)" d="M 355.128365 488.954687 
L 363.784455 488.954687 
L 363.784455 385.337048 
L 355.128365 385.337048 
z
" style="fill:#1f77b4;"/>
   </g>
   <g id="patch_10">
    <path clip-path="url(#p7772a86e67)" d="M 407.064904 488.954687 
L 415.720994 488.954687 
L 415.720994 397.148386 
L 407.064904 397.148386 
z
" style="fill:#1f77b4;"/>
   </g>
   <g id="patch_11">
    <path clip-path="url(#p7772a86e67)" d="M 459.001442 488.954687 
L 467.657532 488.954687 
L 467.657532 390.168959 
L 459.001442 390.168959 
z
" style="fill:#1f77b4;"/>
   </g>
   <g id="patch_12">
    <path clip-path="url(#p7772a86e67)" d="M 510.937981 488.954687 
L 519.594071 488.954687 
L 519.594071 405.738449 
L 510.937981 405.738449 
z
" style="fill:#1f77b4;"/>
   </g>
   <g id="patch_13">
    <path clip-path="url(#p7772a86e67)" d="M 562.874519 488.954687 
L 571.530609 488.954687 
L 571.530609 388.558322 
L 562.874519 388.558322 
z
" style="fill:#1f77b4;"/>
   </g>
   <g id="patch_14">
    <path clip-path="url(#p7772a86e67)" d="M 614.811058 488.954687 
L 623.467147 488.954687 
L 623.467147 302.657689 
L 614.811058 302.657689 
z
" style="fill:#1f77b4;"/>
   </g>
   <g id="patch_15">
    <path clip-path="url(#p7772a86e67)" d="M 666.747596 488.954687 
L 675.403686 488.954687 
L 675.403686 407.349086 
L 666.747596 407.349086 
z
" style="fill:#1f77b4;"/>
   </g>
   <g id="patch_16">
    <path clip-path="url(#p7772a86e67)" d="M 52.165224 488.954687 
L 60.821314 488.954687 
L 60.821314 224.81024 
L 52.165224 224.81024 
z
" style="fill:#ff7f0e;"/>
   </g>
   <g id="patch_17">
    <path clip-path="url(#p7772a86e67)" d="M 104.101763 488.954687 
L 112.757853 488.954687 
L 112.757853 214.60954 
L 104.101763 214.60954 
z
" style="fill:#ff7f0e;"/>
   </g>
   <g id="patch_18">
    <path clip-path="url(#p7772a86e67)" d="M 156.038301 488.954687 
L 164.694391 488.954687 
L 164.694391 272.055588 
L 156.038301 272.055588 
z
" style="fill:#ff7f0e;"/>
   </g>
   <g id="patch_19">
    <path clip-path="url(#p7772a86e67)" d="M 207.97484 488.954687 
L 216.630929 488.954687 
L 216.630929 147.49967 
L 207.97484 147.49967 
z
" style="fill:#ff7f0e;"/>
   </g>
   <g id="patch_20">
    <path clip-path="url(#p7772a86e67)" d="M 259.911378 488.954687 
L 268.567468 488.954687 
L 268.567468 127.098269 
L 259.911378 127.098269 
z
" style="fill:#ff7f0e;"/>
   </g>
   <g id="patch_21">
    <path clip-path="url(#p7772a86e67)" d="M 311.847917 488.954687 
L 320.504006 488.954687 
L 320.504006 61.599036 
L 311.847917 61.599036 
z
" style="fill:#ff7f0e;"/>
   </g>
   <g id="patch_22">
    <path clip-path="url(#p7772a86e67)" d="M 363.784455 488.954687 
L 372.440545 488.954687 
L 372.440545 120.655722 
L 363.784455 120.655722 
z
" style="fill:#ff7f0e;"/>
   </g>
   <g id="patch_23">
    <path clip-path="url(#p7772a86e67)" d="M 415.720994 488.954687 
L 424.377083 488.954687 
L 424.377083 143.204638 
L 415.720994 143.204638 
z
" style="fill:#ff7f0e;"/>
   </g>
   <g id="patch_24">
    <path clip-path="url(#p7772a86e67)" d="M 467.657532 488.954687 
L 476.313622 488.954687 
L 476.313622 263.465525 
L 467.657532 263.465525 
z
" style="fill:#ff7f0e;"/>
   </g>
   <g id="patch_25">
    <path clip-path="url(#p7772a86e67)" d="M 519.594071 488.954687 
L 528.25016 488.954687 
L 528.25016 202.261323 
L 519.594071 202.261323 
z
" style="fill:#ff7f0e;"/>
   </g>
   <g id="patch_26">
    <path clip-path="url(#p7772a86e67)" d="M 571.530609 488.954687 
L 580.186699 488.954687 
L 580.186699 151.794701 
L 571.530609 151.794701 
z
" style="fill:#ff7f0e;"/>
   </g>
   <g id="patch_27">
    <path clip-path="url(#p7772a86e67)" d="M 623.467147 488.954687 
L 632.123237 488.954687 
L 632.123237 36.902604 
L 623.467147 36.902604 
z
" style="fill:#ff7f0e;"/>
   </g>
   <g id="patch_28">
    <path clip-path="url(#p7772a86e67)" d="M 675.403686 488.954687 
L 684.059776 488.954687 
L 684.059776 235.547819 
L 675.403686 235.547819 
z
" style="fill:#ff7f0e;"/>
   </g>
   <g id="patch_29">
    <path clip-path="url(#p7772a86e67)" d="M 60.821314 488.954687 
L 69.477404 488.954687 
L 69.477404 276.35062 
L 60.821314 276.35062 
z
" style="fill:#2ca02c;"/>
   </g>
   <g id="patch_30">
    <path clip-path="url(#p7772a86e67)" d="M 112.757853 488.954687 
L 121.413942 488.954687 
L 121.413942 281.18253 
L 112.757853 281.18253 
z
" style="fill:#2ca02c;"/>
   </g>
   <g id="patch_31">
    <path clip-path="url(#p7772a86e67)" d="M 164.694391 488.954687 
L 173.350481 488.954687 
L 173.350481 316.079663 
L 164.694391 316.079663 
z
" style="fill:#2ca02c;"/>
   </g>
   <g id="patch_32">
    <path clip-path="url(#p7772a86e67)" d="M 216.630929 488.954687 
L 225.287019 488.954687 
L 225.287019 250.58043 
L 216.630929 250.58043 
z
" style="fill:#2ca02c;"/>
   </g>
   <g id="patch_33">
    <path clip-path="url(#p7772a86e67)" d="M 268.567468 488.954687 
L 277.223558 488.954687 
L 277.223558 172.196102 
L 268.567468 172.196102 
z
" style="fill:#2ca02c;"/>
   </g>
   <g id="patch_34">
    <path clip-path="url(#p7772a86e67)" d="M 320.504006 488.954687 
L 329.160096 488.954687 
L 329.160096 117.434448 
L 320.504006 117.434448 
z
" style="fill:#2ca02c;"/>
   </g>
   <g id="patch_35">
    <path clip-path="url(#p7772a86e67)" d="M 372.440545 488.954687 
L 381.096635 488.954687 
L 381.096635 175.417376 
L 372.440545 175.417376 
z
" style="fill:#2ca02c;"/>
   </g>
   <g id="patch_36">
    <path clip-path="url(#p7772a86e67)" d="M 424.377083 488.954687 
L 433.033173 488.954687 
L 433.033173 183.47056 
L 424.377083 183.47056 
z
" style="fill:#2ca02c;"/>
   </g>
   <g id="patch_37">
    <path clip-path="url(#p7772a86e67)" d="M 476.313622 488.954687 
L 484.969712 488.954687 
L 484.969712 313.395268 
L 476.313622 313.395268 
z
" style="fill:#2ca02c;"/>
   </g>
   <g id="patch_38">
    <path clip-path="url(#p7772a86e67)" d="M 528.25016 488.954687 
L 536.90625 488.954687 
L 536.90625 246.822277 
L 528.25016 246.822277 
z
" style="fill:#2ca02c;"/>
   </g>
   <g id="patch_39">
    <path clip-path="url(#p7772a86e67)" d="M 580.186699 488.954687 
L 588.842788 488.954687 
L 588.842788 213.535782 
L 580.186699 213.535782 
z
" style="fill:#2ca02c;"/>
   </g>
   <g id="patch_40">
    <path clip-path="url(#p7772a86e67)" d="M 632.123237 488.954687 
L 640.779327 488.954687 
L 640.779327 99.180563 
L 632.123237 99.180563 
z
" style="fill:#2ca02c;"/>
   </g>
   <g id="patch_41">
    <path clip-path="url(#p7772a86e67)" d="M 684.059776 488.954687 
L 692.715865 488.954687 
L 692.715865 275.276862 
L 684.059776 275.276862 
z
" style="fill:#2ca02c;"/>
   </g>
   <g id="matplotlib.axis_1">
    <g id="xtick_1">
     <g id="line2d_1">
      <defs>
       <path d="M 0 0 
L 0 3.5 
" id="m0dc89c1bc6" style="stroke:#000000;stroke-width:0.8;"/>
      </defs>
      <g>
       <use style="stroke:#000000;stroke-width:0.8;" x="56.493269" xlink:href="#m0dc89c1bc6" y="488.954687"/>
      </g>
     </g>
     <g id="text_1">
      <!-- Taunton - Benjamin Friedman Middle -->
      <defs>
       <path d="M -0.296875 72.90625 
L 61.375 72.90625 
L 61.375 64.59375 
L 35.5 64.59375 
L 35.5 0 
L 25.59375 0 
L 25.59375 64.59375 
L -0.296875 64.59375 
z
" id="DejaVuSans-54"/>
       <path d="M 34.28125 27.484375 
Q 23.390625 27.484375 19.1875 25 
Q 14.984375 22.515625 14.984375 16.5 
Q 14.984375 11.71875 18.140625 8.90625 
Q 21.296875 6.109375 26.703125 6.109375 
Q 34.1875 6.109375 38.703125 11.40625 
Q 43.21875 16.703125 43.21875 25.484375 
L 43.21875 27.484375 
z
M 52.203125 31.203125 
L 52.203125 0 
L 43.21875 0 
L 43.21875 8.296875 
Q 40.140625 3.328125 35.546875 0.953125 
Q 30.953125 -1.421875 24.3125 -1.421875 
Q 15.921875 -1.421875 10.953125 3.296875 
Q 6 8.015625 6 15.921875 
Q 6 25.140625 12.171875 29.828125 
Q 18.359375 34.515625 30.609375 34.515625 
L 43.21875 34.515625 
L 43.21875 35.40625 
Q 43.21875 41.609375 39.140625 45 
Q 35.0625 48.390625 27.6875 48.390625 
Q 23 48.390625 18.546875 47.265625 
Q 14.109375 46.140625 10.015625 43.890625 
L 10.015625 52.203125 
Q 14.9375 54.109375 19.578125 55.046875 
Q 24.21875 56 28.609375 56 
Q 40.484375 56 46.34375 49.84375 
Q 52.203125 43.703125 52.203125 31.203125 
z
" id="DejaVuSans-61"/>
       <path d="M 8.5 21.578125 
L 8.5 54.6875 
L 17.484375 54.6875 
L 17.484375 21.921875 
Q 17.484375 14.15625 20.5 10.265625 
Q 23.53125 6.390625 29.59375 6.390625 
Q 36.859375 6.390625 41.078125 11.03125 
Q 45.3125 15.671875 45.3125 23.6875 
L 45.3125 54.6875 
L 54.296875 54.6875 
L 54.296875 0 
L 45.3125 0 
L 45.3125 8.40625 
Q 42.046875 3.421875 37.71875 1 
Q 33.40625 -1.421875 27.6875 -1.421875 
Q 18.265625 -1.421875 13.375 4.4375 
Q 8.5 10.296875 8.5 21.578125 
z
M 31.109375 56 
z
" id="DejaVuSans-75"/>
       <path d="M 54.890625 33.015625 
L 54.890625 0 
L 45.90625 0 
L 45.90625 32.71875 
Q 45.90625 40.484375 42.875 44.328125 
Q 39.84375 48.1875 33.796875 48.1875 
Q 26.515625 48.1875 22.3125 43.546875 
Q 18.109375 38.921875 18.109375 30.90625 
L 18.109375 0 
L 9.078125 0 
L 9.078125 54.6875 
L 18.109375 54.6875 
L 18.109375 46.1875 
Q 21.34375 51.125 25.703125 53.5625 
Q 30.078125 56 35.796875 56 
Q 45.21875 56 50.046875 50.171875 
Q 54.890625 44.34375 54.890625 33.015625 
z
" id="DejaVuSans-6e"/>
       <path d="M 18.3125 70.21875 
L 18.3125 54.6875 
L 36.8125 54.6875 
L 36.8125 47.703125 
L 18.3125 47.703125 
L 18.3125 18.015625 
Q 18.3125 11.328125 20.140625 9.421875 
Q 21.96875 7.515625 27.59375 7.515625 
L 36.8125 7.515625 
L 36.8125 0 
L 27.59375 0 
Q 17.1875 0 13.234375 3.875 
Q 9.28125 7.765625 9.28125 18.015625 
L 9.28125 47.703125 
L 2.6875 47.703125 
L 2.6875 54.6875 
L 9.28125 54.6875 
L 9.28125 70.21875 
z
" id="DejaVuSans-74"/>
       <path d="M 30.609375 48.390625 
Q 23.390625 48.390625 19.1875 42.75 
Q 14.984375 37.109375 14.984375 27.296875 
Q 14.984375 17.484375 19.15625 11.84375 
Q 23.34375 6.203125 30.609375 6.203125 
Q 37.796875 6.203125 41.984375 11.859375 
Q 46.1875 17.53125 46.1875 27.296875 
Q 46.1875 37.015625 41.984375 42.703125 
Q 37.796875 48.390625 30.609375 48.390625 
z
M 30.609375 56 
Q 42.328125 56 49.015625 48.375 
Q 55.71875 40.765625 55.71875 27.296875 
Q 55.71875 13.875 49.015625 6.21875 
Q 42.328125 -1.421875 30.609375 -1.421875 
Q 18.84375 -1.421875 12.171875 6.21875 
Q 5.515625 13.875 5.515625 27.296875 
Q 5.515625 40.765625 12.171875 48.375 
Q 18.84375 56 30.609375 56 
z
" id="DejaVuSans-6f"/>
       <path id="DejaVuSans-20"/>
       <path d="M 4.890625 31.390625 
L 31.203125 31.390625 
L 31.203125 23.390625 
L 4.890625 23.390625 
z
" id="DejaVuSans-2d"/>
       <path d="M 19.671875 34.8125 
L 19.671875 8.109375 
L 35.5 8.109375 
Q 43.453125 8.109375 47.28125 11.40625 
Q 51.125 14.703125 51.125 21.484375 
Q 51.125 28.328125 47.28125 31.5625 
Q 43.453125 34.8125 35.5 34.8125 
z
M 19.671875 64.796875 
L 19.671875 42.828125 
L 34.28125 42.828125 
Q 41.5 42.828125 45.03125 45.53125 
Q 48.578125 48.25 48.578125 53.8125 
Q 48.578125 59.328125 45.03125 62.0625 
Q 41.5 64.796875 34.28125 64.796875 
z
M 9.8125 72.90625 
L 35.015625 72.90625 
Q 46.296875 72.90625 52.390625 68.21875 
Q 58.5 63.53125 58.5 54.890625 
Q 58.5 48.1875 55.375 44.234375 
Q 52.25 40.28125 46.1875 39.3125 
Q 53.46875 37.75 57.5 32.78125 
Q 61.53125 27.828125 61.53125 20.40625 
Q 61.53125 10.640625 54.890625 5.3125 
Q 48.25 0 35.984375 0 
L 9.8125 0 
z
" id="DejaVuSans-42"/>
       <path d="M 56.203125 29.59375 
L 56.203125 25.203125 
L 14.890625 25.203125 
Q 15.484375 15.921875 20.484375 11.0625 
Q 25.484375 6.203125 34.421875 6.203125 
Q 39.59375 6.203125 44.453125 7.46875 
Q 49.3125 8.734375 54.109375 11.28125 
L 54.109375 2.78125 
Q 49.265625 0.734375 44.1875 -0.34375 
Q 39.109375 -1.421875 33.890625 -1.421875 
Q 20.796875 -1.421875 13.15625 6.1875 
Q 5.515625 13.8125 5.515625 26.8125 
Q 5.515625 40.234375 12.765625 48.109375 
Q 20.015625 56 32.328125 56 
Q 43.359375 56 49.78125 48.890625 
Q 56.203125 41.796875 56.203125 29.59375 
z
M 47.21875 32.234375 
Q 47.125 39.59375 43.09375 43.984375 
Q 39.0625 48.390625 32.421875 48.390625 
Q 24.90625 48.390625 20.390625 44.140625 
Q 15.875 39.890625 15.1875 32.171875 
z
" id="DejaVuSans-65"/>
       <path d="M 9.421875 54.6875 
L 18.40625 54.6875 
L 18.40625 -0.984375 
Q 18.40625 -11.421875 14.421875 -16.109375 
Q 10.453125 -20.796875 1.609375 -20.796875 
L -1.8125 -20.796875 
L -1.8125 -13.1875 
L 0.59375 -13.1875 
Q 5.71875 -13.1875 7.5625 -10.8125 
Q 9.421875 -8.453125 9.421875 -0.984375 
z
M 9.421875 75.984375 
L 18.40625 75.984375 
L 18.40625 64.59375 
L 9.421875 64.59375 
z
" id="DejaVuSans-6a"/>
       <path d="M 52 44.1875 
Q 55.375 50.25 60.0625 53.125 
Q 64.75 56 71.09375 56 
Q 79.640625 56 84.28125 50.015625 
Q 88.921875 44.046875 88.921875 33.015625 
L 88.921875 0 
L 79.890625 0 
L 79.890625 32.71875 
Q 79.890625 40.578125 77.09375 44.375 
Q 74.3125 48.1875 68.609375 48.1875 
Q 61.625 48.1875 57.5625 43.546875 
Q 53.515625 38.921875 53.515625 30.90625 
L 53.515625 0 
L 44.484375 0 
L 44.484375 32.71875 
Q 44.484375 40.625 41.703125 44.40625 
Q 38.921875 48.1875 33.109375 48.1875 
Q 26.21875 48.1875 22.15625 43.53125 
Q 18.109375 38.875 18.109375 30.90625 
L 18.109375 0 
L 9.078125 0 
L 9.078125 54.6875 
L 18.109375 54.6875 
L 18.109375 46.1875 
Q 21.1875 51.21875 25.484375 53.609375 
Q 29.78125 56 35.6875 56 
Q 41.65625 56 45.828125 52.96875 
Q 50 49.953125 52 44.1875 
z
" id="DejaVuSans-6d"/>
       <path d="M 9.421875 54.6875 
L 18.40625 54.6875 
L 18.40625 0 
L 9.421875 0 
z
M 9.421875 75.984375 
L 18.40625 75.984375 
L 18.40625 64.59375 
L 9.421875 64.59375 
z
" id="DejaVuSans-69"/>
       <path d="M 9.8125 72.90625 
L 51.703125 72.90625 
L 51.703125 64.59375 
L 19.671875 64.59375 
L 19.671875 43.109375 
L 48.578125 43.109375 
L 48.578125 34.8125 
L 19.671875 34.8125 
L 19.671875 0 
L 9.8125 0 
z
" id="DejaVuSans-46"/>
       <path d="M 41.109375 46.296875 
Q 39.59375 47.171875 37.8125 47.578125 
Q 36.03125 48 33.890625 48 
Q 26.265625 48 22.1875 43.046875 
Q 18.109375 38.09375 18.109375 28.8125 
L 18.109375 0 
L 9.078125 0 
L 9.078125 54.6875 
L 18.109375 54.6875 
L 18.109375 46.1875 
Q 20.953125 51.171875 25.484375 53.578125 
Q 30.03125 56 36.53125 56 
Q 37.453125 56 38.578125 55.875 
Q 39.703125 55.765625 41.0625 55.515625 
z
" id="DejaVuSans-72"/>
       <path d="M 45.40625 46.390625 
L 45.40625 75.984375 
L 54.390625 75.984375 
L 54.390625 0 
L 45.40625 0 
L 45.40625 8.203125 
Q 42.578125 3.328125 38.25 0.953125 
Q 33.9375 -1.421875 27.875 -1.421875 
Q 17.96875 -1.421875 11.734375 6.484375 
Q 5.515625 14.40625 5.515625 27.296875 
Q 5.515625 40.1875 11.734375 48.09375 
Q 17.96875 56 27.875 56 
Q 33.9375 56 38.25 53.625 
Q 42.578125 51.265625 45.40625 46.390625 
z
M 14.796875 27.296875 
Q 14.796875 17.390625 18.875 11.75 
Q 22.953125 6.109375 30.078125 6.109375 
Q 37.203125 6.109375 41.296875 11.75 
Q 45.40625 17.390625 45.40625 27.296875 
Q 45.40625 37.203125 41.296875 42.84375 
Q 37.203125 48.484375 30.078125 48.484375 
Q 22.953125 48.484375 18.875 42.84375 
Q 14.796875 37.203125 14.796875 27.296875 
z
" id="DejaVuSans-64"/>
       <path d="M 9.8125 72.90625 
L 24.515625 72.90625 
L 43.109375 23.296875 
L 61.8125 72.90625 
L 76.515625 72.90625 
L 76.515625 0 
L 66.890625 0 
L 66.890625 64.015625 
L 48.09375 14.015625 
L 38.1875 14.015625 
L 19.390625 64.015625 
L 19.390625 0 
L 9.8125 0 
z
" id="DejaVuSans-4d"/>
       <path d="M 9.421875 75.984375 
L 18.40625 75.984375 
L 18.40625 0 
L 9.421875 0 
z
" id="DejaVuSans-6c"/>
      </defs>
      <g transform="translate(59.252644 681.023438)rotate(-90)scale(0.1 -0.1)">
       <use xlink:href="#DejaVuSans-54"/>
       <use x="60.833984" xlink:href="#DejaVuSans-61"/>
       <use x="122.113281" xlink:href="#DejaVuSans-75"/>
       <use x="185.492188" xlink:href="#DejaVuSans-6e"/>
       <use x="248.871094" xlink:href="#DejaVuSans-74"/>
       <use x="288.080078" xlink:href="#DejaVuSans-6f"/>
       <use x="349.261719" xlink:href="#DejaVuSans-6e"/>
       <use x="412.640625" xlink:href="#DejaVuSans-20"/>
       <use x="444.427734" xlink:href="#DejaVuSans-2d"/>
       <use x="480.511719" xlink:href="#DejaVuSans-20"/>
       <use x="512.298828" xlink:href="#DejaVuSans-42"/>
       <use x="580.902344" xlink:href="#DejaVuSans-65"/>
       <use x="642.425781" xlink:href="#DejaVuSans-6e"/>
       <use x="705.804688" xlink:href="#DejaVuSans-6a"/>
       <use x="733.587891" xlink:href="#DejaVuSans-61"/>
       <use x="794.867188" xlink:href="#DejaVuSans-6d"/>
       <use x="892.279297" xlink:href="#DejaVuSans-69"/>
       <use x="920.0625" xlink:href="#DejaVuSans-6e"/>
       <use x="983.441406" xlink:href="#DejaVuSans-20"/>
       <use x="1015.228516" xlink:href="#DejaVuSans-46"/>
       <use x="1072.638672" xlink:href="#DejaVuSans-72"/>
       <use x="1113.751953" xlink:href="#DejaVuSans-69"/>
       <use x="1141.535156" xlink:href="#DejaVuSans-65"/>
       <use x="1203.058594" xlink:href="#DejaVuSans-64"/>
       <use x="1266.535156" xlink:href="#DejaVuSans-6d"/>
       <use x="1363.947266" xlink:href="#DejaVuSans-61"/>
       <use x="1425.226562" xlink:href="#DejaVuSans-6e"/>
       <use x="1488.605469" xlink:href="#DejaVuSans-20"/>
       <use x="1520.392578" xlink:href="#DejaVuSans-4d"/>
       <use x="1606.671875" xlink:href="#DejaVuSans-69"/>
       <use x="1634.455078" xlink:href="#DejaVuSans-64"/>
       <use x="1697.931641" xlink:href="#DejaVuSans-64"/>
       <use x="1761.408203" xlink:href="#DejaVuSans-6c"/>
       <use x="1789.191406" xlink:href="#DejaVuSans-65"/>
      </g>
     </g>
    </g>
    <g id="xtick_2">
     <g id="line2d_2">
      <g>
       <use style="stroke:#000000;stroke-width:0.8;" x="108.429808" xlink:href="#m0dc89c1bc6" y="488.954687"/>
      </g>
     </g>
     <g id="text_2">
      <!-- Taunton - East Taunton Elementary -->
      <defs>
       <path d="M 9.8125 72.90625 
L 55.90625 72.90625 
L 55.90625 64.59375 
L 19.671875 64.59375 
L 19.671875 43.015625 
L 54.390625 43.015625 
L 54.390625 34.71875 
L 19.671875 34.71875 
L 19.671875 8.296875 
L 56.78125 8.296875 
L 56.78125 0 
L 9.8125 0 
z
" id="DejaVuSans-45"/>
       <path d="M 44.28125 53.078125 
L 44.28125 44.578125 
Q 40.484375 46.53125 36.375 47.5 
Q 32.28125 48.484375 27.875 48.484375 
Q 21.1875 48.484375 17.84375 46.4375 
Q 14.5 44.390625 14.5 40.28125 
Q 14.5 37.15625 16.890625 35.375 
Q 19.28125 33.59375 26.515625 31.984375 
L 29.59375 31.296875 
Q 39.15625 29.25 43.1875 25.515625 
Q 47.21875 21.78125 47.21875 15.09375 
Q 47.21875 7.46875 41.1875 3.015625 
Q 35.15625 -1.421875 24.609375 -1.421875 
Q 20.21875 -1.421875 15.453125 -0.5625 
Q 10.6875 0.296875 5.421875 2 
L 5.421875 11.28125 
Q 10.40625 8.6875 15.234375 7.390625 
Q 20.0625 6.109375 24.8125 6.109375 
Q 31.15625 6.109375 34.5625 8.28125 
Q 37.984375 10.453125 37.984375 14.40625 
Q 37.984375 18.0625 35.515625 20.015625 
Q 33.0625 21.96875 24.703125 23.78125 
L 21.578125 24.515625 
Q 13.234375 26.265625 9.515625 29.90625 
Q 5.8125 33.546875 5.8125 39.890625 
Q 5.8125 47.609375 11.28125 51.796875 
Q 16.75 56 26.8125 56 
Q 31.78125 56 36.171875 55.265625 
Q 40.578125 54.546875 44.28125 53.078125 
z
" id="DejaVuSans-73"/>
       <path d="M 32.171875 -5.078125 
Q 28.375 -14.84375 24.75 -17.8125 
Q 21.140625 -20.796875 15.09375 -20.796875 
L 7.90625 -20.796875 
L 7.90625 -13.28125 
L 13.1875 -13.28125 
Q 16.890625 -13.28125 18.9375 -11.515625 
Q 21 -9.765625 23.484375 -3.21875 
L 25.09375 0.875 
L 2.984375 54.6875 
L 12.5 54.6875 
L 29.59375 11.921875 
L 46.6875 54.6875 
L 56.203125 54.6875 
z
" id="DejaVuSans-79"/>
      </defs>
      <g transform="translate(111.189183 673.935937)rotate(-90)scale(0.1 -0.1)">
       <use xlink:href="#DejaVuSans-54"/>
       <use x="60.833984" xlink:href="#DejaVuSans-61"/>
       <use x="122.113281" xlink:href="#DejaVuSans-75"/>
       <use x="185.492188" xlink:href="#DejaVuSans-6e"/>
       <use x="248.871094" xlink:href="#DejaVuSans-74"/>
       <use x="288.080078" xlink:href="#DejaVuSans-6f"/>
       <use x="349.261719" xlink:href="#DejaVuSans-6e"/>
       <use x="412.640625" xlink:href="#DejaVuSans-20"/>
       <use x="444.427734" xlink:href="#DejaVuSans-2d"/>
       <use x="480.511719" xlink:href="#DejaVuSans-20"/>
       <use x="512.298828" xlink:href="#DejaVuSans-45"/>
       <use x="575.482422" xlink:href="#DejaVuSans-61"/>
       <use x="636.761719" xlink:href="#DejaVuSans-73"/>
       <use x="688.861328" xlink:href="#DejaVuSans-74"/>
       <use x="728.070312" xlink:href="#DejaVuSans-20"/>
       <use x="759.857422" xlink:href="#DejaVuSans-54"/>
       <use x="820.691406" xlink:href="#DejaVuSans-61"/>
       <use x="881.970703" xlink:href="#DejaVuSans-75"/>
       <use x="945.349609" xlink:href="#DejaVuSans-6e"/>
       <use x="1008.728516" xlink:href="#DejaVuSans-74"/>
       <use x="1047.9375" xlink:href="#DejaVuSans-6f"/>
       <use x="1109.119141" xlink:href="#DejaVuSans-6e"/>
       <use x="1172.498047" xlink:href="#DejaVuSans-20"/>
       <use x="1204.285156" xlink:href="#DejaVuSans-45"/>
       <use x="1267.46875" xlink:href="#DejaVuSans-6c"/>
       <use x="1295.251953" xlink:href="#DejaVuSans-65"/>
       <use x="1356.775391" xlink:href="#DejaVuSans-6d"/>
       <use x="1454.1875" xlink:href="#DejaVuSans-65"/>
       <use x="1515.710938" xlink:href="#DejaVuSans-6e"/>
       <use x="1579.089844" xlink:href="#DejaVuSans-74"/>
       <use x="1618.298828" xlink:href="#DejaVuSans-61"/>
       <use x="1679.578125" xlink:href="#DejaVuSans-72"/>
       <use x="1720.691406" xlink:href="#DejaVuSans-79"/>
      </g>
     </g>
    </g>
    <g id="xtick_3">
     <g id="line2d_3">
      <g>
       <use style="stroke:#000000;stroke-width:0.8;" x="160.366346" xlink:href="#m0dc89c1bc6" y="488.954687"/>
      </g>
     </g>
     <g id="text_3">
      <!-- Taunton - Edmund Hatch Bennett -->
      <defs>
       <path d="M 9.8125 72.90625 
L 19.671875 72.90625 
L 19.671875 43.015625 
L 55.515625 43.015625 
L 55.515625 72.90625 
L 65.375 72.90625 
L 65.375 0 
L 55.515625 0 
L 55.515625 34.71875 
L 19.671875 34.71875 
L 19.671875 0 
L 9.8125 0 
z
" id="DejaVuSans-48"/>
       <path d="M 48.78125 52.59375 
L 48.78125 44.1875 
Q 44.96875 46.296875 41.140625 47.34375 
Q 37.3125 48.390625 33.40625 48.390625 
Q 24.65625 48.390625 19.8125 42.84375 
Q 14.984375 37.3125 14.984375 27.296875 
Q 14.984375 17.28125 19.8125 11.734375 
Q 24.65625 6.203125 33.40625 6.203125 
Q 37.3125 6.203125 41.140625 7.25 
Q 44.96875 8.296875 48.78125 10.40625 
L 48.78125 2.09375 
Q 45.015625 0.34375 40.984375 -0.53125 
Q 36.96875 -1.421875 32.421875 -1.421875 
Q 20.0625 -1.421875 12.78125 6.34375 
Q 5.515625 14.109375 5.515625 27.296875 
Q 5.515625 40.671875 12.859375 48.328125 
Q 20.21875 56 33.015625 56 
Q 37.15625 56 41.109375 55.140625 
Q 45.0625 54.296875 48.78125 52.59375 
z
" id="DejaVuSans-63"/>
       <path d="M 54.890625 33.015625 
L 54.890625 0 
L 45.90625 0 
L 45.90625 32.71875 
Q 45.90625 40.484375 42.875 44.328125 
Q 39.84375 48.1875 33.796875 48.1875 
Q 26.515625 48.1875 22.3125 43.546875 
Q 18.109375 38.921875 18.109375 30.90625 
L 18.109375 0 
L 9.078125 0 
L 9.078125 75.984375 
L 18.109375 75.984375 
L 18.109375 46.1875 
Q 21.34375 51.125 25.703125 53.5625 
Q 30.078125 56 35.796875 56 
Q 45.21875 56 50.046875 50.171875 
Q 54.890625 44.34375 54.890625 33.015625 
z
" id="DejaVuSans-68"/>
      </defs>
      <g transform="translate(163.125721 664.05625)rotate(-90)scale(0.1 -0.1)">
       <use xlink:href="#DejaVuSans-54"/>
       <use x="60.833984" xlink:href="#DejaVuSans-61"/>
       <use x="122.113281" xlink:href="#DejaVuSans-75"/>
       <use x="185.492188" xlink:href="#DejaVuSans-6e"/>
       <use x="248.871094" xlink:href="#DejaVuSans-74"/>
       <use x="288.080078" xlink:href="#DejaVuSans-6f"/>
       <use x="349.261719" xlink:href="#DejaVuSans-6e"/>
       <use x="412.640625" xlink:href="#DejaVuSans-20"/>
       <use x="444.427734" xlink:href="#DejaVuSans-2d"/>
       <use x="480.511719" xlink:href="#DejaVuSans-20"/>
       <use x="512.298828" xlink:href="#DejaVuSans-45"/>
       <use x="575.482422" xlink:href="#DejaVuSans-64"/>
       <use x="638.958984" xlink:href="#DejaVuSans-6d"/>
       <use x="736.371094" xlink:href="#DejaVuSans-75"/>
       <use x="799.75" xlink:href="#DejaVuSans-6e"/>
       <use x="863.128906" xlink:href="#DejaVuSans-64"/>
       <use x="926.605469" xlink:href="#DejaVuSans-20"/>
       <use x="958.392578" xlink:href="#DejaVuSans-48"/>
       <use x="1033.587891" xlink:href="#DejaVuSans-61"/>
       <use x="1094.867188" xlink:href="#DejaVuSans-74"/>
       <use x="1134.076172" xlink:href="#DejaVuSans-63"/>
       <use x="1189.056641" xlink:href="#DejaVuSans-68"/>
       <use x="1252.435547" xlink:href="#DejaVuSans-20"/>
       <use x="1284.222656" xlink:href="#DejaVuSans-42"/>
       <use x="1352.826172" xlink:href="#DejaVuSans-65"/>
       <use x="1414.349609" xlink:href="#DejaVuSans-6e"/>
       <use x="1477.728516" xlink:href="#DejaVuSans-6e"/>
       <use x="1541.107422" xlink:href="#DejaVuSans-65"/>
       <use x="1602.630859" xlink:href="#DejaVuSans-74"/>
       <use x="1641.839844" xlink:href="#DejaVuSans-74"/>
      </g>
     </g>
    </g>
    <g id="xtick_4">
     <g id="line2d_4">
      <g>
       <use style="stroke:#000000;stroke-width:0.8;" x="212.302885" xlink:href="#m0dc89c1bc6" y="488.954687"/>
      </g>
     </g>
     <g id="text_4">
      <!-- Taunton - Edward F. Leddy Preschool -->
      <defs>
       <path d="M 4.203125 54.6875 
L 13.1875 54.6875 
L 24.421875 12.015625 
L 35.59375 54.6875 
L 46.1875 54.6875 
L 57.421875 12.015625 
L 68.609375 54.6875 
L 77.59375 54.6875 
L 63.28125 0 
L 52.6875 0 
L 40.921875 44.828125 
L 29.109375 0 
L 18.5 0 
z
" id="DejaVuSans-77"/>
       <path d="M 10.6875 12.40625 
L 21 12.40625 
L 21 0 
L 10.6875 0 
z
" id="DejaVuSans-2e"/>
       <path d="M 9.8125 72.90625 
L 19.671875 72.90625 
L 19.671875 8.296875 
L 55.171875 8.296875 
L 55.171875 0 
L 9.8125 0 
z
" id="DejaVuSans-4c"/>
       <path d="M 19.671875 64.796875 
L 19.671875 37.40625 
L 32.078125 37.40625 
Q 38.96875 37.40625 42.71875 40.96875 
Q 46.484375 44.53125 46.484375 51.125 
Q 46.484375 57.671875 42.71875 61.234375 
Q 38.96875 64.796875 32.078125 64.796875 
z
M 9.8125 72.90625 
L 32.078125 72.90625 
Q 44.34375 72.90625 50.609375 67.359375 
Q 56.890625 61.8125 56.890625 51.125 
Q 56.890625 40.328125 50.609375 34.8125 
Q 44.34375 29.296875 32.078125 29.296875 
L 19.671875 29.296875 
L 19.671875 0 
L 9.8125 0 
z
" id="DejaVuSans-50"/>
      </defs>
      <g transform="translate(215.06226 681.740625)rotate(-90)scale(0.1 -0.1)">
       <use xlink:href="#DejaVuSans-54"/>
       <use x="60.833984" xlink:href="#DejaVuSans-61"/>
       <use x="122.113281" xlink:href="#DejaVuSans-75"/>
       <use x="185.492188" xlink:href="#DejaVuSans-6e"/>
       <use x="248.871094" xlink:href="#DejaVuSans-74"/>
       <use x="288.080078" xlink:href="#DejaVuSans-6f"/>
       <use x="349.261719" xlink:href="#DejaVuSans-6e"/>
       <use x="412.640625" xlink:href="#DejaVuSans-20"/>
       <use x="444.427734" xlink:href="#DejaVuSans-2d"/>
       <use x="480.511719" xlink:href="#DejaVuSans-20"/>
       <use x="512.298828" xlink:href="#DejaVuSans-45"/>
       <use x="575.482422" xlink:href="#DejaVuSans-64"/>
       <use x="638.958984" xlink:href="#DejaVuSans-77"/>
       <use x="720.746094" xlink:href="#DejaVuSans-61"/>
       <use x="782.025391" xlink:href="#DejaVuSans-72"/>
       <use x="823.123047" xlink:href="#DejaVuSans-64"/>
       <use x="886.599609" xlink:href="#DejaVuSans-20"/>
       <use x="918.386719" xlink:href="#DejaVuSans-46"/>
       <use x="975.65625" xlink:href="#DejaVuSans-2e"/>
       <use x="1007.443359" xlink:href="#DejaVuSans-20"/>
       <use x="1039.230469" xlink:href="#DejaVuSans-4c"/>
       <use x="1094.927734" xlink:href="#DejaVuSans-65"/>
       <use x="1156.451172" xlink:href="#DejaVuSans-64"/>
       <use x="1219.927734" xlink:href="#DejaVuSans-64"/>
       <use x="1283.404297" xlink:href="#DejaVuSans-79"/>
       <use x="1342.583984" xlink:href="#DejaVuSans-20"/>
       <use x="1374.371094" xlink:href="#DejaVuSans-50"/>
       <use x="1434.658203" xlink:href="#DejaVuSans-72"/>
       <use x="1475.740234" xlink:href="#DejaVuSans-65"/>
       <use x="1537.263672" xlink:href="#DejaVuSans-73"/>
       <use x="1589.363281" xlink:href="#DejaVuSans-63"/>
       <use x="1644.34375" xlink:href="#DejaVuSans-68"/>
       <use x="1707.722656" xlink:href="#DejaVuSans-6f"/>
       <use x="1768.904297" xlink:href="#DejaVuSans-6f"/>
       <use x="1830.085938" xlink:href="#DejaVuSans-6c"/>
      </g>
     </g>
    </g>
    <g id="xtick_5">
     <g id="line2d_5">
      <g>
       <use style="stroke:#000000;stroke-width:0.8;" x="264.239423" xlink:href="#m0dc89c1bc6" y="488.954687"/>
      </g>
     </g>
     <g id="text_5">
      <!-- Taunton - Elizabeth Pole -->
      <defs>
       <path d="M 5.515625 54.6875 
L 48.1875 54.6875 
L 48.1875 46.484375 
L 14.40625 7.171875 
L 48.1875 7.171875 
L 48.1875 0 
L 4.296875 0 
L 4.296875 8.203125 
L 38.09375 47.515625 
L 5.515625 47.515625 
z
" id="DejaVuSans-7a"/>
       <path d="M 48.6875 27.296875 
Q 48.6875 37.203125 44.609375 42.84375 
Q 40.53125 48.484375 33.40625 48.484375 
Q 26.265625 48.484375 22.1875 42.84375 
Q 18.109375 37.203125 18.109375 27.296875 
Q 18.109375 17.390625 22.1875 11.75 
Q 26.265625 6.109375 33.40625 6.109375 
Q 40.53125 6.109375 44.609375 11.75 
Q 48.6875 17.390625 48.6875 27.296875 
z
M 18.109375 46.390625 
Q 20.953125 51.265625 25.265625 53.625 
Q 29.59375 56 35.59375 56 
Q 45.5625 56 51.78125 48.09375 
Q 58.015625 40.1875 58.015625 27.296875 
Q 58.015625 14.40625 51.78125 6.484375 
Q 45.5625 -1.421875 35.59375 -1.421875 
Q 29.59375 -1.421875 25.265625 0.953125 
Q 20.953125 3.328125 18.109375 8.203125 
L 18.109375 0 
L 9.078125 0 
L 9.078125 75.984375 
L 18.109375 75.984375 
z
" id="DejaVuSans-62"/>
      </defs>
      <g transform="translate(266.998798 617.445312)rotate(-90)scale(0.1 -0.1)">
       <use xlink:href="#DejaVuSans-54"/>
       <use x="60.833984" xlink:href="#DejaVuSans-61"/>
       <use x="122.113281" xlink:href="#DejaVuSans-75"/>
       <use x="185.492188" xlink:href="#DejaVuSans-6e"/>
       <use x="248.871094" xlink:href="#DejaVuSans-74"/>
       <use x="288.080078" xlink:href="#DejaVuSans-6f"/>
       <use x="349.261719" xlink:href="#DejaVuSans-6e"/>
       <use x="412.640625" xlink:href="#DejaVuSans-20"/>
       <use x="444.427734" xlink:href="#DejaVuSans-2d"/>
       <use x="480.511719" xlink:href="#DejaVuSans-20"/>
       <use x="512.298828" xlink:href="#DejaVuSans-45"/>
       <use x="575.482422" xlink:href="#DejaVuSans-6c"/>
       <use x="603.265625" xlink:href="#DejaVuSans-69"/>
       <use x="631.048828" xlink:href="#DejaVuSans-7a"/>
       <use x="683.539062" xlink:href="#DejaVuSans-61"/>
       <use x="744.818359" xlink:href="#DejaVuSans-62"/>
       <use x="808.294922" xlink:href="#DejaVuSans-65"/>
       <use x="869.818359" xlink:href="#DejaVuSans-74"/>
       <use x="909.027344" xlink:href="#DejaVuSans-68"/>
       <use x="972.40625" xlink:href="#DejaVuSans-20"/>
       <use x="1004.193359" xlink:href="#DejaVuSans-50"/>
       <use x="1064.449219" xlink:href="#DejaVuSans-6f"/>
       <use x="1125.630859" xlink:href="#DejaVuSans-6c"/>
       <use x="1153.414062" xlink:href="#DejaVuSans-65"/>
      </g>
     </g>
    </g>
    <g id="xtick_6">
     <g id="line2d_6">
      <g>
       <use style="stroke:#000000;stroke-width:0.8;" x="316.175962" xlink:href="#m0dc89c1bc6" y="488.954687"/>
      </g>
     </g>
     <g id="text_6">
      <!-- Taunton - H H Galligan -->
      <defs>
       <path d="M 59.515625 10.40625 
L 59.515625 29.984375 
L 43.40625 29.984375 
L 43.40625 38.09375 
L 69.28125 38.09375 
L 69.28125 6.78125 
Q 63.578125 2.734375 56.6875 0.65625 
Q 49.8125 -1.421875 42 -1.421875 
Q 24.90625 -1.421875 15.25 8.5625 
Q 5.609375 18.5625 5.609375 36.375 
Q 5.609375 54.25 15.25 64.234375 
Q 24.90625 74.21875 42 74.21875 
Q 49.125 74.21875 55.546875 72.453125 
Q 61.96875 70.703125 67.390625 67.28125 
L 67.390625 56.78125 
Q 61.921875 61.421875 55.765625 63.765625 
Q 49.609375 66.109375 42.828125 66.109375 
Q 29.4375 66.109375 22.71875 58.640625 
Q 16.015625 51.171875 16.015625 36.375 
Q 16.015625 21.625 22.71875 14.15625 
Q 29.4375 6.6875 42.828125 6.6875 
Q 48.046875 6.6875 52.140625 7.59375 
Q 56.25 8.5 59.515625 10.40625 
z
" id="DejaVuSans-47"/>
       <path d="M 45.40625 27.984375 
Q 45.40625 37.75 41.375 43.109375 
Q 37.359375 48.484375 30.078125 48.484375 
Q 22.859375 48.484375 18.828125 43.109375 
Q 14.796875 37.75 14.796875 27.984375 
Q 14.796875 18.265625 18.828125 12.890625 
Q 22.859375 7.515625 30.078125 7.515625 
Q 37.359375 7.515625 41.375 12.890625 
Q 45.40625 18.265625 45.40625 27.984375 
z
M 54.390625 6.78125 
Q 54.390625 -7.171875 48.1875 -13.984375 
Q 42 -20.796875 29.203125 -20.796875 
Q 24.46875 -20.796875 20.265625 -20.09375 
Q 16.0625 -19.390625 12.109375 -17.921875 
L 12.109375 -9.1875 
Q 16.0625 -11.328125 19.921875 -12.34375 
Q 23.78125 -13.375 27.78125 -13.375 
Q 36.625 -13.375 41.015625 -8.765625 
Q 45.40625 -4.15625 45.40625 5.171875 
L 45.40625 9.625 
Q 42.625 4.78125 38.28125 2.390625 
Q 33.9375 0 27.875 0 
Q 17.828125 0 11.671875 7.65625 
Q 5.515625 15.328125 5.515625 27.984375 
Q 5.515625 40.671875 11.671875 48.328125 
Q 17.828125 56 27.875 56 
Q 33.9375 56 38.28125 53.609375 
Q 42.625 51.21875 45.40625 46.390625 
L 45.40625 54.6875 
L 54.390625 54.6875 
z
" id="DejaVuSans-67"/>
      </defs>
      <g transform="translate(318.935337 609.603125)rotate(-90)scale(0.1 -0.1)">
       <use xlink:href="#DejaVuSans-54"/>
       <use x="60.833984" xlink:href="#DejaVuSans-61"/>
       <use x="122.113281" xlink:href="#DejaVuSans-75"/>
       <use x="185.492188" xlink:href="#DejaVuSans-6e"/>
       <use x="248.871094" xlink:href="#DejaVuSans-74"/>
       <use x="288.080078" xlink:href="#DejaVuSans-6f"/>
       <use x="349.261719" xlink:href="#DejaVuSans-6e"/>
       <use x="412.640625" xlink:href="#DejaVuSans-20"/>
       <use x="444.427734" xlink:href="#DejaVuSans-2d"/>
       <use x="480.511719" xlink:href="#DejaVuSans-20"/>
       <use x="512.298828" xlink:href="#DejaVuSans-48"/>
       <use x="587.494141" xlink:href="#DejaVuSans-20"/>
       <use x="619.28125" xlink:href="#DejaVuSans-48"/>
       <use x="694.476562" xlink:href="#DejaVuSans-20"/>
       <use x="726.263672" xlink:href="#DejaVuSans-47"/>
       <use x="803.753906" xlink:href="#DejaVuSans-61"/>
       <use x="865.033203" xlink:href="#DejaVuSans-6c"/>
       <use x="892.816406" xlink:href="#DejaVuSans-6c"/>
       <use x="920.599609" xlink:href="#DejaVuSans-69"/>
       <use x="948.382812" xlink:href="#DejaVuSans-67"/>
       <use x="1011.859375" xlink:href="#DejaVuSans-61"/>
       <use x="1073.138672" xlink:href="#DejaVuSans-6e"/>
      </g>
     </g>
    </g>
    <g id="xtick_7">
     <g id="line2d_7">
      <g>
       <use style="stroke:#000000;stroke-width:0.8;" x="368.1125" xlink:href="#m0dc89c1bc6" y="488.954687"/>
      </g>
     </g>
     <g id="text_7">
      <!-- Taunton - Hopewell -->
      <defs>
       <path d="M 18.109375 8.203125 
L 18.109375 -20.796875 
L 9.078125 -20.796875 
L 9.078125 54.6875 
L 18.109375 54.6875 
L 18.109375 46.390625 
Q 20.953125 51.265625 25.265625 53.625 
Q 29.59375 56 35.59375 56 
Q 45.5625 56 51.78125 48.09375 
Q 58.015625 40.1875 58.015625 27.296875 
Q 58.015625 14.40625 51.78125 6.484375 
Q 45.5625 -1.421875 35.59375 -1.421875 
Q 29.59375 -1.421875 25.265625 0.953125 
Q 20.953125 3.328125 18.109375 8.203125 
z
M 48.6875 27.296875 
Q 48.6875 37.203125 44.609375 42.84375 
Q 40.53125 48.484375 33.40625 48.484375 
Q 26.265625 48.484375 22.1875 42.84375 
Q 18.109375 37.203125 18.109375 27.296875 
Q 18.109375 17.390625 22.1875 11.75 
Q 26.265625 6.109375 33.40625 6.109375 
Q 40.53125 6.109375 44.609375 11.75 
Q 48.6875 17.390625 48.6875 27.296875 
z
" id="DejaVuSans-70"/>
      </defs>
      <g transform="translate(370.871875 593.209375)rotate(-90)scale(0.1 -0.1)">
       <use xlink:href="#DejaVuSans-54"/>
       <use x="60.833984" xlink:href="#DejaVuSans-61"/>
       <use x="122.113281" xlink:href="#DejaVuSans-75"/>
       <use x="185.492188" xlink:href="#DejaVuSans-6e"/>
       <use x="248.871094" xlink:href="#DejaVuSans-74"/>
       <use x="288.080078" xlink:href="#DejaVuSans-6f"/>
       <use x="349.261719" xlink:href="#DejaVuSans-6e"/>
       <use x="412.640625" xlink:href="#DejaVuSans-20"/>
       <use x="444.427734" xlink:href="#DejaVuSans-2d"/>
       <use x="480.511719" xlink:href="#DejaVuSans-20"/>
       <use x="512.298828" xlink:href="#DejaVuSans-48"/>
       <use x="587.494141" xlink:href="#DejaVuSans-6f"/>
       <use x="648.675781" xlink:href="#DejaVuSans-70"/>
       <use x="712.152344" xlink:href="#DejaVuSans-65"/>
       <use x="773.675781" xlink:href="#DejaVuSans-77"/>
       <use x="855.462891" xlink:href="#DejaVuSans-65"/>
       <use x="916.986328" xlink:href="#DejaVuSans-6c"/>
       <use x="944.769531" xlink:href="#DejaVuSans-6c"/>
      </g>
     </g>
    </g>
    <g id="xtick_8">
     <g id="line2d_8">
      <g>
       <use style="stroke:#000000;stroke-width:0.8;" x="420.049038" xlink:href="#m0dc89c1bc6" y="488.954687"/>
      </g>
     </g>
     <g id="text_8">
      <!-- Taunton - John F Parker Middle -->
      <defs>
       <path d="M 9.8125 72.90625 
L 19.671875 72.90625 
L 19.671875 5.078125 
Q 19.671875 -8.109375 14.671875 -14.0625 
Q 9.671875 -20.015625 -1.421875 -20.015625 
L -5.171875 -20.015625 
L -5.171875 -11.71875 
L -2.09375 -11.71875 
Q 4.4375 -11.71875 7.125 -8.046875 
Q 9.8125 -4.390625 9.8125 5.078125 
z
" id="DejaVuSans-4a"/>
       <path d="M 9.078125 75.984375 
L 18.109375 75.984375 
L 18.109375 31.109375 
L 44.921875 54.6875 
L 56.390625 54.6875 
L 27.390625 29.109375 
L 57.625 0 
L 45.90625 0 
L 18.109375 26.703125 
L 18.109375 0 
L 9.078125 0 
z
" id="DejaVuSans-6b"/>
      </defs>
      <g transform="translate(422.808413 649.557812)rotate(-90)scale(0.1 -0.1)">
       <use xlink:href="#DejaVuSans-54"/>
       <use x="60.833984" xlink:href="#DejaVuSans-61"/>
       <use x="122.113281" xlink:href="#DejaVuSans-75"/>
       <use x="185.492188" xlink:href="#DejaVuSans-6e"/>
       <use x="248.871094" xlink:href="#DejaVuSans-74"/>
       <use x="288.080078" xlink:href="#DejaVuSans-6f"/>
       <use x="349.261719" xlink:href="#DejaVuSans-6e"/>
       <use x="412.640625" xlink:href="#DejaVuSans-20"/>
       <use x="444.427734" xlink:href="#DejaVuSans-2d"/>
       <use x="480.511719" xlink:href="#DejaVuSans-20"/>
       <use x="512.298828" xlink:href="#DejaVuSans-4a"/>
       <use x="541.791016" xlink:href="#DejaVuSans-6f"/>
       <use x="602.972656" xlink:href="#DejaVuSans-68"/>
       <use x="666.351562" xlink:href="#DejaVuSans-6e"/>
       <use x="729.730469" xlink:href="#DejaVuSans-20"/>
       <use x="761.517578" xlink:href="#DejaVuSans-46"/>
       <use x="819.037109" xlink:href="#DejaVuSans-20"/>
       <use x="850.824219" xlink:href="#DejaVuSans-50"/>
       <use x="911.064453" xlink:href="#DejaVuSans-61"/>
       <use x="972.34375" xlink:href="#DejaVuSans-72"/>
       <use x="1013.457031" xlink:href="#DejaVuSans-6b"/>
       <use x="1071.320312" xlink:href="#DejaVuSans-65"/>
       <use x="1132.84375" xlink:href="#DejaVuSans-72"/>
       <use x="1173.957031" xlink:href="#DejaVuSans-20"/>
       <use x="1205.744141" xlink:href="#DejaVuSans-4d"/>
       <use x="1292.023438" xlink:href="#DejaVuSans-69"/>
       <use x="1319.806641" xlink:href="#DejaVuSans-64"/>
       <use x="1383.283203" xlink:href="#DejaVuSans-64"/>
       <use x="1446.759766" xlink:href="#DejaVuSans-6c"/>
       <use x="1474.542969" xlink:href="#DejaVuSans-65"/>
      </g>
     </g>
    </g>
    <g id="xtick_9">
     <g id="line2d_9">
      <g>
       <use style="stroke:#000000;stroke-width:0.8;" x="471.985577" xlink:href="#m0dc89c1bc6" y="488.954687"/>
      </g>
     </g>
     <g id="text_9">
      <!-- Taunton - Joseph C Chamberlain -->
      <defs>
       <path d="M 64.40625 67.28125 
L 64.40625 56.890625 
Q 59.421875 61.53125 53.78125 63.8125 
Q 48.140625 66.109375 41.796875 66.109375 
Q 29.296875 66.109375 22.65625 58.46875 
Q 16.015625 50.828125 16.015625 36.375 
Q 16.015625 21.96875 22.65625 14.328125 
Q 29.296875 6.6875 41.796875 6.6875 
Q 48.140625 6.6875 53.78125 8.984375 
Q 59.421875 11.28125 64.40625 15.921875 
L 64.40625 5.609375 
Q 59.234375 2.09375 53.4375 0.328125 
Q 47.65625 -1.421875 41.21875 -1.421875 
Q 24.65625 -1.421875 15.125 8.703125 
Q 5.609375 18.84375 5.609375 36.375 
Q 5.609375 53.953125 15.125 64.078125 
Q 24.65625 74.21875 41.21875 74.21875 
Q 47.75 74.21875 53.53125 72.484375 
Q 59.328125 70.75 64.40625 67.28125 
z
" id="DejaVuSans-43"/>
      </defs>
      <g transform="translate(474.744952 657.460938)rotate(-90)scale(0.1 -0.1)">
       <use xlink:href="#DejaVuSans-54"/>
       <use x="60.833984" xlink:href="#DejaVuSans-61"/>
       <use x="122.113281" xlink:href="#DejaVuSans-75"/>
       <use x="185.492188" xlink:href="#DejaVuSans-6e"/>
       <use x="248.871094" xlink:href="#DejaVuSans-74"/>
       <use x="288.080078" xlink:href="#DejaVuSans-6f"/>
       <use x="349.261719" xlink:href="#DejaVuSans-6e"/>
       <use x="412.640625" xlink:href="#DejaVuSans-20"/>
       <use x="444.427734" xlink:href="#DejaVuSans-2d"/>
       <use x="480.511719" xlink:href="#DejaVuSans-20"/>
       <use x="512.298828" xlink:href="#DejaVuSans-4a"/>
       <use x="541.791016" xlink:href="#DejaVuSans-6f"/>
       <use x="602.972656" xlink:href="#DejaVuSans-73"/>
       <use x="655.072266" xlink:href="#DejaVuSans-65"/>
       <use x="716.595703" xlink:href="#DejaVuSans-70"/>
       <use x="780.072266" xlink:href="#DejaVuSans-68"/>
       <use x="843.451172" xlink:href="#DejaVuSans-20"/>
       <use x="875.238281" xlink:href="#DejaVuSans-43"/>
       <use x="945.0625" xlink:href="#DejaVuSans-20"/>
       <use x="976.849609" xlink:href="#DejaVuSans-43"/>
       <use x="1046.673828" xlink:href="#DejaVuSans-68"/>
       <use x="1110.052734" xlink:href="#DejaVuSans-61"/>
       <use x="1171.332031" xlink:href="#DejaVuSans-6d"/>
       <use x="1268.744141" xlink:href="#DejaVuSans-62"/>
       <use x="1332.220703" xlink:href="#DejaVuSans-65"/>
       <use x="1393.744141" xlink:href="#DejaVuSans-72"/>
       <use x="1434.857422" xlink:href="#DejaVuSans-6c"/>
       <use x="1462.640625" xlink:href="#DejaVuSans-61"/>
       <use x="1523.919922" xlink:href="#DejaVuSans-69"/>
       <use x="1551.703125" xlink:href="#DejaVuSans-6e"/>
      </g>
     </g>
    </g>
    <g id="xtick_10">
     <g id="line2d_10">
      <g>
       <use style="stroke:#000000;stroke-width:0.8;" x="523.922115" xlink:href="#m0dc89c1bc6" y="488.954687"/>
      </g>
     </g>
     <g id="text_10">
      <!-- Taunton - Joseph H Martin -->
      <g transform="translate(526.68149 626.078125)rotate(-90)scale(0.1 -0.1)">
       <use xlink:href="#DejaVuSans-54"/>
       <use x="60.833984" xlink:href="#DejaVuSans-61"/>
       <use x="122.113281" xlink:href="#DejaVuSans-75"/>
       <use x="185.492188" xlink:href="#DejaVuSans-6e"/>
       <use x="248.871094" xlink:href="#DejaVuSans-74"/>
       <use x="288.080078" xlink:href="#DejaVuSans-6f"/>
       <use x="349.261719" xlink:href="#DejaVuSans-6e"/>
       <use x="412.640625" xlink:href="#DejaVuSans-20"/>
       <use x="444.427734" xlink:href="#DejaVuSans-2d"/>
       <use x="480.511719" xlink:href="#DejaVuSans-20"/>
       <use x="512.298828" xlink:href="#DejaVuSans-4a"/>
       <use x="541.791016" xlink:href="#DejaVuSans-6f"/>
       <use x="602.972656" xlink:href="#DejaVuSans-73"/>
       <use x="655.072266" xlink:href="#DejaVuSans-65"/>
       <use x="716.595703" xlink:href="#DejaVuSans-70"/>
       <use x="780.072266" xlink:href="#DejaVuSans-68"/>
       <use x="843.451172" xlink:href="#DejaVuSans-20"/>
       <use x="875.238281" xlink:href="#DejaVuSans-48"/>
       <use x="950.433594" xlink:href="#DejaVuSans-20"/>
       <use x="982.220703" xlink:href="#DejaVuSans-4d"/>
       <use x="1068.5" xlink:href="#DejaVuSans-61"/>
       <use x="1129.779297" xlink:href="#DejaVuSans-72"/>
       <use x="1170.892578" xlink:href="#DejaVuSans-74"/>
       <use x="1210.101562" xlink:href="#DejaVuSans-69"/>
       <use x="1237.884766" xlink:href="#DejaVuSans-6e"/>
      </g>
     </g>
    </g>
    <g id="xtick_11">
     <g id="line2d_11">
      <g>
       <use style="stroke:#000000;stroke-width:0.8;" x="575.858654" xlink:href="#m0dc89c1bc6" y="488.954687"/>
      </g>
     </g>
     <g id="text_11">
      <!-- Taunton - Mulcahey Elementary School -->
      <defs>
       <path d="M 53.515625 70.515625 
L 53.515625 60.890625 
Q 47.90625 63.578125 42.921875 64.890625 
Q 37.9375 66.21875 33.296875 66.21875 
Q 25.25 66.21875 20.875 63.09375 
Q 16.5 59.96875 16.5 54.203125 
Q 16.5 49.359375 19.40625 46.890625 
Q 22.3125 44.4375 30.421875 42.921875 
L 36.375 41.703125 
Q 47.40625 39.59375 52.65625 34.296875 
Q 57.90625 29 57.90625 20.125 
Q 57.90625 9.515625 50.796875 4.046875 
Q 43.703125 -1.421875 29.984375 -1.421875 
Q 24.8125 -1.421875 18.96875 -0.25 
Q 13.140625 0.921875 6.890625 3.21875 
L 6.890625 13.375 
Q 12.890625 10.015625 18.65625 8.296875 
Q 24.421875 6.59375 29.984375 6.59375 
Q 38.421875 6.59375 43.015625 9.90625 
Q 47.609375 13.234375 47.609375 19.390625 
Q 47.609375 24.75 44.3125 27.78125 
Q 41.015625 30.8125 33.5 32.328125 
L 27.484375 33.5 
Q 16.453125 35.6875 11.515625 40.375 
Q 6.59375 45.0625 6.59375 53.421875 
Q 6.59375 63.09375 13.40625 68.65625 
Q 20.21875 74.21875 32.171875 74.21875 
Q 37.3125 74.21875 42.625 73.28125 
Q 47.953125 72.359375 53.515625 70.515625 
z
" id="DejaVuSans-53"/>
      </defs>
      <g transform="translate(578.618029 692.076562)rotate(-90)scale(0.1 -0.1)">
       <use xlink:href="#DejaVuSans-54"/>
       <use x="60.833984" xlink:href="#DejaVuSans-61"/>
       <use x="122.113281" xlink:href="#DejaVuSans-75"/>
       <use x="185.492188" xlink:href="#DejaVuSans-6e"/>
       <use x="248.871094" xlink:href="#DejaVuSans-74"/>
       <use x="288.080078" xlink:href="#DejaVuSans-6f"/>
       <use x="349.261719" xlink:href="#DejaVuSans-6e"/>
       <use x="412.640625" xlink:href="#DejaVuSans-20"/>
       <use x="444.427734" xlink:href="#DejaVuSans-2d"/>
       <use x="480.511719" xlink:href="#DejaVuSans-20"/>
       <use x="512.298828" xlink:href="#DejaVuSans-4d"/>
       <use x="598.578125" xlink:href="#DejaVuSans-75"/>
       <use x="661.957031" xlink:href="#DejaVuSans-6c"/>
       <use x="689.740234" xlink:href="#DejaVuSans-63"/>
       <use x="744.720703" xlink:href="#DejaVuSans-61"/>
       <use x="806" xlink:href="#DejaVuSans-68"/>
       <use x="869.378906" xlink:href="#DejaVuSans-65"/>
       <use x="930.902344" xlink:href="#DejaVuSans-79"/>
       <use x="990.082031" xlink:href="#DejaVuSans-20"/>
       <use x="1021.869141" xlink:href="#DejaVuSans-45"/>
       <use x="1085.052734" xlink:href="#DejaVuSans-6c"/>
       <use x="1112.835938" xlink:href="#DejaVuSans-65"/>
       <use x="1174.359375" xlink:href="#DejaVuSans-6d"/>
       <use x="1271.771484" xlink:href="#DejaVuSans-65"/>
       <use x="1333.294922" xlink:href="#DejaVuSans-6e"/>
       <use x="1396.673828" xlink:href="#DejaVuSans-74"/>
       <use x="1435.882812" xlink:href="#DejaVuSans-61"/>
       <use x="1497.162109" xlink:href="#DejaVuSans-72"/>
       <use x="1538.275391" xlink:href="#DejaVuSans-79"/>
       <use x="1597.455078" xlink:href="#DejaVuSans-20"/>
       <use x="1629.242188" xlink:href="#DejaVuSans-53"/>
       <use x="1692.71875" xlink:href="#DejaVuSans-63"/>
       <use x="1747.699219" xlink:href="#DejaVuSans-68"/>
       <use x="1811.078125" xlink:href="#DejaVuSans-6f"/>
       <use x="1872.259766" xlink:href="#DejaVuSans-6f"/>
       <use x="1933.441406" xlink:href="#DejaVuSans-6c"/>
      </g>
     </g>
    </g>
    <g id="xtick_12">
     <g id="line2d_12">
      <g>
       <use style="stroke:#000000;stroke-width:0.8;" x="627.795192" xlink:href="#m0dc89c1bc6" y="488.954687"/>
      </g>
     </g>
     <g id="text_12">
      <!-- Taunton - Taunton Alternative High School -->
      <defs>
       <path d="M 34.1875 63.1875 
L 20.796875 26.90625 
L 47.609375 26.90625 
z
M 28.609375 72.90625 
L 39.796875 72.90625 
L 67.578125 0 
L 57.328125 0 
L 50.6875 18.703125 
L 17.828125 18.703125 
L 11.1875 0 
L 0.78125 0 
z
" id="DejaVuSans-41"/>
       <path d="M 2.984375 54.6875 
L 12.5 54.6875 
L 29.59375 8.796875 
L 46.6875 54.6875 
L 56.203125 54.6875 
L 35.6875 0 
L 23.484375 0 
z
" id="DejaVuSans-76"/>
      </defs>
      <g transform="translate(630.554567 709.2)rotate(-90)scale(0.1 -0.1)">
       <use xlink:href="#DejaVuSans-54"/>
       <use x="60.833984" xlink:href="#DejaVuSans-61"/>
       <use x="122.113281" xlink:href="#DejaVuSans-75"/>
       <use x="185.492188" xlink:href="#DejaVuSans-6e"/>
       <use x="248.871094" xlink:href="#DejaVuSans-74"/>
       <use x="288.080078" xlink:href="#DejaVuSans-6f"/>
       <use x="349.261719" xlink:href="#DejaVuSans-6e"/>
       <use x="412.640625" xlink:href="#DejaVuSans-20"/>
       <use x="444.427734" xlink:href="#DejaVuSans-2d"/>
       <use x="480.511719" xlink:href="#DejaVuSans-20"/>
       <use x="512.298828" xlink:href="#DejaVuSans-54"/>
       <use x="573.132812" xlink:href="#DejaVuSans-61"/>
       <use x="634.412109" xlink:href="#DejaVuSans-75"/>
       <use x="697.791016" xlink:href="#DejaVuSans-6e"/>
       <use x="761.169922" xlink:href="#DejaVuSans-74"/>
       <use x="800.378906" xlink:href="#DejaVuSans-6f"/>
       <use x="861.560547" xlink:href="#DejaVuSans-6e"/>
       <use x="924.939453" xlink:href="#DejaVuSans-20"/>
       <use x="956.726562" xlink:href="#DejaVuSans-41"/>
       <use x="1025.134766" xlink:href="#DejaVuSans-6c"/>
       <use x="1052.917969" xlink:href="#DejaVuSans-74"/>
       <use x="1092.126953" xlink:href="#DejaVuSans-65"/>
       <use x="1153.650391" xlink:href="#DejaVuSans-72"/>
       <use x="1194.748047" xlink:href="#DejaVuSans-6e"/>
       <use x="1258.126953" xlink:href="#DejaVuSans-61"/>
       <use x="1319.40625" xlink:href="#DejaVuSans-74"/>
       <use x="1358.615234" xlink:href="#DejaVuSans-69"/>
       <use x="1386.398438" xlink:href="#DejaVuSans-76"/>
       <use x="1445.578125" xlink:href="#DejaVuSans-65"/>
       <use x="1507.101562" xlink:href="#DejaVuSans-20"/>
       <use x="1538.888672" xlink:href="#DejaVuSans-48"/>
       <use x="1614.083984" xlink:href="#DejaVuSans-69"/>
       <use x="1641.867188" xlink:href="#DejaVuSans-67"/>
       <use x="1705.34375" xlink:href="#DejaVuSans-68"/>
       <use x="1768.722656" xlink:href="#DejaVuSans-20"/>
       <use x="1800.509766" xlink:href="#DejaVuSans-53"/>
       <use x="1863.986328" xlink:href="#DejaVuSans-63"/>
       <use x="1918.966797" xlink:href="#DejaVuSans-68"/>
       <use x="1982.345703" xlink:href="#DejaVuSans-6f"/>
       <use x="2043.527344" xlink:href="#DejaVuSans-6f"/>
       <use x="2104.708984" xlink:href="#DejaVuSans-6c"/>
      </g>
     </g>
    </g>
    <g id="xtick_13">
     <g id="line2d_13">
      <g>
       <use style="stroke:#000000;stroke-width:0.8;" x="679.731731" xlink:href="#m0dc89c1bc6" y="488.954687"/>
      </g>
     </g>
     <g id="text_13">
      <!-- Taunton - Taunton High -->
      <g transform="translate(682.491106 614.60625)rotate(-90)scale(0.1 -0.1)">
       <use xlink:href="#DejaVuSans-54"/>
       <use x="60.833984" xlink:href="#DejaVuSans-61"/>
       <use x="122.113281" xlink:href="#DejaVuSans-75"/>
       <use x="185.492188" xlink:href="#DejaVuSans-6e"/>
       <use x="248.871094" xlink:href="#DejaVuSans-74"/>
       <use x="288.080078" xlink:href="#DejaVuSans-6f"/>
       <use x="349.261719" xlink:href="#DejaVuSans-6e"/>
       <use x="412.640625" xlink:href="#DejaVuSans-20"/>
       <use x="444.427734" xlink:href="#DejaVuSans-2d"/>
       <use x="480.511719" xlink:href="#DejaVuSans-20"/>
       <use x="512.298828" xlink:href="#DejaVuSans-54"/>
       <use x="573.132812" xlink:href="#DejaVuSans-61"/>
       <use x="634.412109" xlink:href="#DejaVuSans-75"/>
       <use x="697.791016" xlink:href="#DejaVuSans-6e"/>
       <use x="761.169922" xlink:href="#DejaVuSans-74"/>
       <use x="800.378906" xlink:href="#DejaVuSans-6f"/>
       <use x="861.560547" xlink:href="#DejaVuSans-6e"/>
       <use x="924.939453" xlink:href="#DejaVuSans-20"/>
       <use x="956.726562" xlink:href="#DejaVuSans-48"/>
       <use x="1031.921875" xlink:href="#DejaVuSans-69"/>
       <use x="1059.705078" xlink:href="#DejaVuSans-67"/>
       <use x="1123.181641" xlink:href="#DejaVuSans-68"/>
      </g>
     </g>
    </g>
   </g>
   <g id="matplotlib.axis_2">
    <g id="ytick_1">
     <g id="line2d_14">
      <defs>
       <path d="M 0 0 
L -3.5 0 
" id="m6251797608" style="stroke:#000000;stroke-width:0.8;"/>
      </defs>
      <g>
       <use style="stroke:#000000;stroke-width:0.8;" x="30.525" xlink:href="#m6251797608" y="488.954687"/>
      </g>
     </g>
     <g id="text_14">
      <!-- 0 -->
      <defs>
       <path d="M 31.78125 66.40625 
Q 24.171875 66.40625 20.328125 58.90625 
Q 16.5 51.421875 16.5 36.375 
Q 16.5 21.390625 20.328125 13.890625 
Q 24.171875 6.390625 31.78125 6.390625 
Q 39.453125 6.390625 43.28125 13.890625 
Q 47.125 21.390625 47.125 36.375 
Q 47.125 51.421875 43.28125 58.90625 
Q 39.453125 66.40625 31.78125 66.40625 
z
M 31.78125 74.21875 
Q 44.046875 74.21875 50.515625 64.515625 
Q 56.984375 54.828125 56.984375 36.375 
Q 56.984375 17.96875 50.515625 8.265625 
Q 44.046875 -1.421875 31.78125 -1.421875 
Q 19.53125 -1.421875 13.0625 8.265625 
Q 6.59375 17.96875 6.59375 36.375 
Q 6.59375 54.828125 13.0625 64.515625 
Q 19.53125 74.21875 31.78125 74.21875 
z
" id="DejaVuSans-30"/>
      </defs>
      <g transform="translate(17.1625 492.753906)scale(0.1 -0.1)">
       <use xlink:href="#DejaVuSans-30"/>
      </g>
     </g>
    </g>
    <g id="ytick_2">
     <g id="line2d_15">
      <g>
       <use style="stroke:#000000;stroke-width:0.8;" x="30.525" xlink:href="#m6251797608" y="435.266792"/>
      </g>
     </g>
     <g id="text_15">
      <!-- 10 -->
      <defs>
       <path d="M 12.40625 8.296875 
L 28.515625 8.296875 
L 28.515625 63.921875 
L 10.984375 60.40625 
L 10.984375 69.390625 
L 28.421875 72.90625 
L 38.28125 72.90625 
L 38.28125 8.296875 
L 54.390625 8.296875 
L 54.390625 0 
L 12.40625 0 
z
" id="DejaVuSans-31"/>
      </defs>
      <g transform="translate(10.8 439.06601)scale(0.1 -0.1)">
       <use xlink:href="#DejaVuSans-31"/>
       <use x="63.623047" xlink:href="#DejaVuSans-30"/>
      </g>
     </g>
    </g>
    <g id="ytick_3">
     <g id="line2d_16">
      <g>
       <use style="stroke:#000000;stroke-width:0.8;" x="30.525" xlink:href="#m6251797608" y="381.578896"/>
      </g>
     </g>
     <g id="text_16">
      <!-- 20 -->
      <defs>
       <path d="M 19.1875 8.296875 
L 53.609375 8.296875 
L 53.609375 0 
L 7.328125 0 
L 7.328125 8.296875 
Q 12.9375 14.109375 22.625 23.890625 
Q 32.328125 33.6875 34.8125 36.53125 
Q 39.546875 41.84375 41.421875 45.53125 
Q 43.3125 49.21875 43.3125 52.78125 
Q 43.3125 58.59375 39.234375 62.25 
Q 35.15625 65.921875 28.609375 65.921875 
Q 23.96875 65.921875 18.8125 64.3125 
Q 13.671875 62.703125 7.8125 59.421875 
L 7.8125 69.390625 
Q 13.765625 71.78125 18.9375 73 
Q 24.125 74.21875 28.421875 74.21875 
Q 39.75 74.21875 46.484375 68.546875 
Q 53.21875 62.890625 53.21875 53.421875 
Q 53.21875 48.921875 51.53125 44.890625 
Q 49.859375 40.875 45.40625 35.40625 
Q 44.1875 33.984375 37.640625 27.21875 
Q 31.109375 20.453125 19.1875 8.296875 
z
" id="DejaVuSans-32"/>
      </defs>
      <g transform="translate(10.8 385.378114)scale(0.1 -0.1)">
       <use xlink:href="#DejaVuSans-32"/>
       <use x="63.623047" xlink:href="#DejaVuSans-30"/>
      </g>
     </g>
    </g>
    <g id="ytick_4">
     <g id="line2d_17">
      <g>
       <use style="stroke:#000000;stroke-width:0.8;" x="30.525" xlink:href="#m6251797608" y="327.891"/>
      </g>
     </g>
     <g id="text_17">
      <!-- 30 -->
      <defs>
       <path d="M 40.578125 39.3125 
Q 47.65625 37.796875 51.625 33 
Q 55.609375 28.21875 55.609375 21.1875 
Q 55.609375 10.40625 48.1875 4.484375 
Q 40.765625 -1.421875 27.09375 -1.421875 
Q 22.515625 -1.421875 17.65625 -0.515625 
Q 12.796875 0.390625 7.625 2.203125 
L 7.625 11.71875 
Q 11.71875 9.328125 16.59375 8.109375 
Q 21.484375 6.890625 26.8125 6.890625 
Q 36.078125 6.890625 40.9375 10.546875 
Q 45.796875 14.203125 45.796875 21.1875 
Q 45.796875 27.640625 41.28125 31.265625 
Q 36.765625 34.90625 28.71875 34.90625 
L 20.21875 34.90625 
L 20.21875 43.015625 
L 29.109375 43.015625 
Q 36.375 43.015625 40.234375 45.921875 
Q 44.09375 48.828125 44.09375 54.296875 
Q 44.09375 59.90625 40.109375 62.90625 
Q 36.140625 65.921875 28.71875 65.921875 
Q 24.65625 65.921875 20.015625 65.03125 
Q 15.375 64.15625 9.8125 62.3125 
L 9.8125 71.09375 
Q 15.4375 72.65625 20.34375 73.4375 
Q 25.25 74.21875 29.59375 74.21875 
Q 40.828125 74.21875 47.359375 69.109375 
Q 53.90625 64.015625 53.90625 55.328125 
Q 53.90625 49.265625 50.4375 45.09375 
Q 46.96875 40.921875 40.578125 39.3125 
z
" id="DejaVuSans-33"/>
      </defs>
      <g transform="translate(10.8 331.690219)scale(0.1 -0.1)">
       <use xlink:href="#DejaVuSans-33"/>
       <use x="63.623047" xlink:href="#DejaVuSans-30"/>
      </g>
     </g>
    </g>
    <g id="ytick_5">
     <g id="line2d_18">
      <g>
       <use style="stroke:#000000;stroke-width:0.8;" x="30.525" xlink:href="#m6251797608" y="274.203104"/>
      </g>
     </g>
     <g id="text_18">
      <!-- 40 -->
      <defs>
       <path d="M 37.796875 64.3125 
L 12.890625 25.390625 
L 37.796875 25.390625 
z
M 35.203125 72.90625 
L 47.609375 72.90625 
L 47.609375 25.390625 
L 58.015625 25.390625 
L 58.015625 17.1875 
L 47.609375 17.1875 
L 47.609375 0 
L 37.796875 0 
L 37.796875 17.1875 
L 4.890625 17.1875 
L 4.890625 26.703125 
z
" id="DejaVuSans-34"/>
      </defs>
      <g transform="translate(10.8 278.002323)scale(0.1 -0.1)">
       <use xlink:href="#DejaVuSans-34"/>
       <use x="63.623047" xlink:href="#DejaVuSans-30"/>
      </g>
     </g>
    </g>
    <g id="ytick_6">
     <g id="line2d_19">
      <g>
       <use style="stroke:#000000;stroke-width:0.8;" x="30.525" xlink:href="#m6251797608" y="220.515208"/>
      </g>
     </g>
     <g id="text_19">
      <!-- 50 -->
      <defs>
       <path d="M 10.796875 72.90625 
L 49.515625 72.90625 
L 49.515625 64.59375 
L 19.828125 64.59375 
L 19.828125 46.734375 
Q 21.96875 47.46875 24.109375 47.828125 
Q 26.265625 48.1875 28.421875 48.1875 
Q 40.625 48.1875 47.75 41.5 
Q 54.890625 34.8125 54.890625 23.390625 
Q 54.890625 11.625 47.5625 5.09375 
Q 40.234375 -1.421875 26.90625 -1.421875 
Q 22.3125 -1.421875 17.546875 -0.640625 
Q 12.796875 0.140625 7.71875 1.703125 
L 7.71875 11.625 
Q 12.109375 9.234375 16.796875 8.0625 
Q 21.484375 6.890625 26.703125 6.890625 
Q 35.15625 6.890625 40.078125 11.328125 
Q 45.015625 15.765625 45.015625 23.390625 
Q 45.015625 31 40.078125 35.4375 
Q 35.15625 39.890625 26.703125 39.890625 
Q 22.75 39.890625 18.8125 39.015625 
Q 14.890625 38.140625 10.796875 36.28125 
z
" id="DejaVuSans-35"/>
      </defs>
      <g transform="translate(10.8 224.314427)scale(0.1 -0.1)">
       <use xlink:href="#DejaVuSans-35"/>
       <use x="63.623047" xlink:href="#DejaVuSans-30"/>
      </g>
     </g>
    </g>
    <g id="ytick_7">
     <g id="line2d_20">
      <g>
       <use style="stroke:#000000;stroke-width:0.8;" x="30.525" xlink:href="#m6251797608" y="166.827312"/>
      </g>
     </g>
     <g id="text_20">
      <!-- 60 -->
      <defs>
       <path d="M 33.015625 40.375 
Q 26.375 40.375 22.484375 35.828125 
Q 18.609375 31.296875 18.609375 23.390625 
Q 18.609375 15.53125 22.484375 10.953125 
Q 26.375 6.390625 33.015625 6.390625 
Q 39.65625 6.390625 43.53125 10.953125 
Q 47.40625 15.53125 47.40625 23.390625 
Q 47.40625 31.296875 43.53125 35.828125 
Q 39.65625 40.375 33.015625 40.375 
z
M 52.59375 71.296875 
L 52.59375 62.3125 
Q 48.875 64.0625 45.09375 64.984375 
Q 41.3125 65.921875 37.59375 65.921875 
Q 27.828125 65.921875 22.671875 59.328125 
Q 17.53125 52.734375 16.796875 39.40625 
Q 19.671875 43.65625 24.015625 45.921875 
Q 28.375 48.1875 33.59375 48.1875 
Q 44.578125 48.1875 50.953125 41.515625 
Q 57.328125 34.859375 57.328125 23.390625 
Q 57.328125 12.15625 50.6875 5.359375 
Q 44.046875 -1.421875 33.015625 -1.421875 
Q 20.359375 -1.421875 13.671875 8.265625 
Q 6.984375 17.96875 6.984375 36.375 
Q 6.984375 53.65625 15.1875 63.9375 
Q 23.390625 74.21875 37.203125 74.21875 
Q 40.921875 74.21875 44.703125 73.484375 
Q 48.484375 72.75 52.59375 71.296875 
z
" id="DejaVuSans-36"/>
      </defs>
      <g transform="translate(10.8 170.626531)scale(0.1 -0.1)">
       <use xlink:href="#DejaVuSans-36"/>
       <use x="63.623047" xlink:href="#DejaVuSans-30"/>
      </g>
     </g>
    </g>
    <g id="ytick_8">
     <g id="line2d_21">
      <g>
       <use style="stroke:#000000;stroke-width:0.8;" x="30.525" xlink:href="#m6251797608" y="113.139416"/>
      </g>
     </g>
     <g id="text_21">
      <!-- 70 -->
      <defs>
       <path d="M 8.203125 72.90625 
L 55.078125 72.90625 
L 55.078125 68.703125 
L 28.609375 0 
L 18.3125 0 
L 43.21875 64.59375 
L 8.203125 64.59375 
z
" id="DejaVuSans-37"/>
      </defs>
      <g transform="translate(10.8 116.938635)scale(0.1 -0.1)">
       <use xlink:href="#DejaVuSans-37"/>
       <use x="63.623047" xlink:href="#DejaVuSans-30"/>
      </g>
     </g>
    </g>
    <g id="ytick_9">
     <g id="line2d_22">
      <g>
       <use style="stroke:#000000;stroke-width:0.8;" x="30.525" xlink:href="#m6251797608" y="59.45152"/>
      </g>
     </g>
     <g id="text_22">
      <!-- 80 -->
      <defs>
       <path d="M 31.78125 34.625 
Q 24.75 34.625 20.71875 30.859375 
Q 16.703125 27.09375 16.703125 20.515625 
Q 16.703125 13.921875 20.71875 10.15625 
Q 24.75 6.390625 31.78125 6.390625 
Q 38.8125 6.390625 42.859375 10.171875 
Q 46.921875 13.96875 46.921875 20.515625 
Q 46.921875 27.09375 42.890625 30.859375 
Q 38.875 34.625 31.78125 34.625 
z
M 21.921875 38.8125 
Q 15.578125 40.375 12.03125 44.71875 
Q 8.5 49.078125 8.5 55.328125 
Q 8.5 64.0625 14.71875 69.140625 
Q 20.953125 74.21875 31.78125 74.21875 
Q 42.671875 74.21875 48.875 69.140625 
Q 55.078125 64.0625 55.078125 55.328125 
Q 55.078125 49.078125 51.53125 44.71875 
Q 48 40.375 41.703125 38.8125 
Q 48.828125 37.15625 52.796875 32.3125 
Q 56.78125 27.484375 56.78125 20.515625 
Q 56.78125 9.90625 50.3125 4.234375 
Q 43.84375 -1.421875 31.78125 -1.421875 
Q 19.734375 -1.421875 13.25 4.234375 
Q 6.78125 9.90625 6.78125 20.515625 
Q 6.78125 27.484375 10.78125 32.3125 
Q 14.796875 37.15625 21.921875 38.8125 
z
M 18.3125 54.390625 
Q 18.3125 48.734375 21.84375 45.5625 
Q 25.390625 42.390625 31.78125 42.390625 
Q 38.140625 42.390625 41.71875 45.5625 
Q 45.3125 48.734375 45.3125 54.390625 
Q 45.3125 60.0625 41.71875 63.234375 
Q 38.140625 66.40625 31.78125 66.40625 
Q 25.390625 66.40625 21.84375 63.234375 
Q 18.3125 60.0625 18.3125 54.390625 
z
" id="DejaVuSans-38"/>
      </defs>
      <g transform="translate(10.8 63.250739)scale(0.1 -0.1)">
       <use xlink:href="#DejaVuSans-38"/>
       <use x="63.623047" xlink:href="#DejaVuSans-30"/>
      </g>
     </g>
    </g>
   </g>
   <g id="patch_42">
    <path d="M 30.525 488.954687 
L 30.525 14.3 
" style="fill:none;stroke:#000000;stroke-linecap:square;stroke-linejoin:miter;stroke-width:0.8;"/>
   </g>
   <g id="patch_43">
    <path d="M 705.7 488.954687 
L 705.7 14.3 
" style="fill:none;stroke:#000000;stroke-linecap:square;stroke-linejoin:miter;stroke-width:0.8;"/>
   </g>
   <g id="patch_44">
    <path d="M 30.525 488.954687 
L 705.7 488.954687 
" style="fill:none;stroke:#000000;stroke-linecap:square;stroke-linejoin:miter;stroke-width:0.8;"/>
   </g>
   <g id="patch_45">
    <path d="M 30.525 14.3 
L 705.7 14.3 
" style="fill:none;stroke:#000000;stroke-linecap:square;stroke-linejoin:miter;stroke-width:0.8;"/>
   </g>
   <g id="legend_1">
    <g id="patch_46">
     <path d="M 37.525 66.334375 
L 249.179688 66.334375 
Q 251.179688 66.334375 251.179688 64.334375 
L 251.179688 21.3 
Q 251.179688 19.3 249.179688 19.3 
L 37.525 19.3 
Q 35.525 19.3 35.525 21.3 
L 35.525 64.334375 
Q 35.525 66.334375 37.525 66.334375 
z
" style="fill:#ffffff;opacity:0.8;stroke:#cccccc;stroke-linejoin:miter;"/>
    </g>
    <g id="patch_47">
     <path d="M 39.525 30.898438 
L 59.525 30.898438 
L 59.525 23.898438 
L 39.525 23.898438 
z
" style="fill:#1f77b4;"/>
    </g>
    <g id="text_23">
     <!-- StudentsWithDisabilitiesPercent -->
     <defs>
      <path d="M 3.328125 72.90625 
L 13.28125 72.90625 
L 28.609375 11.28125 
L 43.890625 72.90625 
L 54.984375 72.90625 
L 70.3125 11.28125 
L 85.59375 72.90625 
L 95.609375 72.90625 
L 77.296875 0 
L 64.890625 0 
L 49.515625 63.28125 
L 33.984375 0 
L 21.578125 0 
z
" id="DejaVuSans-57"/>
      <path d="M 19.671875 64.796875 
L 19.671875 8.109375 
L 31.59375 8.109375 
Q 46.6875 8.109375 53.6875 14.9375 
Q 60.6875 21.78125 60.6875 36.53125 
Q 60.6875 51.171875 53.6875 57.984375 
Q 46.6875 64.796875 31.59375 64.796875 
z
M 9.8125 72.90625 
L 30.078125 72.90625 
Q 51.265625 72.90625 61.171875 64.09375 
Q 71.09375 55.28125 71.09375 36.53125 
Q 71.09375 17.671875 61.125 8.828125 
Q 51.171875 0 30.078125 0 
L 9.8125 0 
z
" id="DejaVuSans-44"/>
     </defs>
     <g transform="translate(67.525 30.898438)scale(0.1 -0.1)">
      <use xlink:href="#DejaVuSans-53"/>
      <use x="63.476562" xlink:href="#DejaVuSans-74"/>
      <use x="102.685547" xlink:href="#DejaVuSans-75"/>
      <use x="166.064453" xlink:href="#DejaVuSans-64"/>
      <use x="229.541016" xlink:href="#DejaVuSans-65"/>
      <use x="291.064453" xlink:href="#DejaVuSans-6e"/>
      <use x="354.443359" xlink:href="#DejaVuSans-74"/>
      <use x="393.652344" xlink:href="#DejaVuSans-73"/>
      <use x="445.751953" xlink:href="#DejaVuSans-57"/>
      <use x="544.597656" xlink:href="#DejaVuSans-69"/>
      <use x="572.380859" xlink:href="#DejaVuSans-74"/>
      <use x="611.589844" xlink:href="#DejaVuSans-68"/>
      <use x="674.96875" xlink:href="#DejaVuSans-44"/>
      <use x="751.970703" xlink:href="#DejaVuSans-69"/>
      <use x="779.753906" xlink:href="#DejaVuSans-73"/>
      <use x="831.853516" xlink:href="#DejaVuSans-61"/>
      <use x="893.132812" xlink:href="#DejaVuSans-62"/>
      <use x="956.609375" xlink:href="#DejaVuSans-69"/>
      <use x="984.392578" xlink:href="#DejaVuSans-6c"/>
      <use x="1012.175781" xlink:href="#DejaVuSans-69"/>
      <use x="1039.958984" xlink:href="#DejaVuSans-74"/>
      <use x="1079.167969" xlink:href="#DejaVuSans-69"/>
      <use x="1106.951172" xlink:href="#DejaVuSans-65"/>
      <use x="1168.474609" xlink:href="#DejaVuSans-73"/>
      <use x="1220.574219" xlink:href="#DejaVuSans-50"/>
      <use x="1280.830078" xlink:href="#DejaVuSans-65"/>
      <use x="1342.353516" xlink:href="#DejaVuSans-72"/>
      <use x="1383.435547" xlink:href="#DejaVuSans-63"/>
      <use x="1438.416016" xlink:href="#DejaVuSans-65"/>
      <use x="1499.939453" xlink:href="#DejaVuSans-6e"/>
      <use x="1563.318359" xlink:href="#DejaVuSans-74"/>
     </g>
    </g>
    <g id="patch_48">
     <path d="M 39.525 45.576563 
L 59.525 45.576563 
L 59.525 38.576563 
L 39.525 38.576563 
z
" style="fill:#ff7f0e;"/>
    </g>
    <g id="text_24">
     <!-- HighNeedsPercent -->
     <defs>
      <path d="M 9.8125 72.90625 
L 23.09375 72.90625 
L 55.421875 11.921875 
L 55.421875 72.90625 
L 64.984375 72.90625 
L 64.984375 0 
L 51.703125 0 
L 19.390625 60.984375 
L 19.390625 0 
L 9.8125 0 
z
" id="DejaVuSans-4e"/>
     </defs>
     <g transform="translate(67.525 45.576563)scale(0.1 -0.1)">
      <use xlink:href="#DejaVuSans-48"/>
      <use x="75.195312" xlink:href="#DejaVuSans-69"/>
      <use x="102.978516" xlink:href="#DejaVuSans-67"/>
      <use x="166.455078" xlink:href="#DejaVuSans-68"/>
      <use x="229.833984" xlink:href="#DejaVuSans-4e"/>
      <use x="304.638672" xlink:href="#DejaVuSans-65"/>
      <use x="366.162109" xlink:href="#DejaVuSans-65"/>
      <use x="427.685547" xlink:href="#DejaVuSans-64"/>
      <use x="491.162109" xlink:href="#DejaVuSans-73"/>
      <use x="543.261719" xlink:href="#DejaVuSans-50"/>
      <use x="603.517578" xlink:href="#DejaVuSans-65"/>
      <use x="665.041016" xlink:href="#DejaVuSans-72"/>
      <use x="706.123047" xlink:href="#DejaVuSans-63"/>
      <use x="761.103516" xlink:href="#DejaVuSans-65"/>
      <use x="822.626953" xlink:href="#DejaVuSans-6e"/>
      <use x="886.005859" xlink:href="#DejaVuSans-74"/>
     </g>
    </g>
    <g id="patch_49">
     <path d="M 39.525 60.254688 
L 59.525 60.254688 
L 59.525 53.254688 
L 39.525 53.254688 
z
" style="fill:#2ca02c;"/>
    </g>
    <g id="text_25">
     <!-- EconomicallyDisadvantagedPercent -->
     <g transform="translate(67.525 60.254688)scale(0.1 -0.1)">
      <use xlink:href="#DejaVuSans-45"/>
      <use x="63.183594" xlink:href="#DejaVuSans-63"/>
      <use x="118.164062" xlink:href="#DejaVuSans-6f"/>
      <use x="179.345703" xlink:href="#DejaVuSans-6e"/>
      <use x="242.724609" xlink:href="#DejaVuSans-6f"/>
      <use x="303.90625" xlink:href="#DejaVuSans-6d"/>
      <use x="401.318359" xlink:href="#DejaVuSans-69"/>
      <use x="429.101562" xlink:href="#DejaVuSans-63"/>
      <use x="484.082031" xlink:href="#DejaVuSans-61"/>
      <use x="545.361328" xlink:href="#DejaVuSans-6c"/>
      <use x="573.144531" xlink:href="#DejaVuSans-6c"/>
      <use x="600.927734" xlink:href="#DejaVuSans-79"/>
      <use x="660.107422" xlink:href="#DejaVuSans-44"/>
      <use x="737.109375" xlink:href="#DejaVuSans-69"/>
      <use x="764.892578" xlink:href="#DejaVuSans-73"/>
      <use x="816.992188" xlink:href="#DejaVuSans-61"/>
      <use x="878.271484" xlink:href="#DejaVuSans-64"/>
      <use x="941.748047" xlink:href="#DejaVuSans-76"/>
      <use x="1000.927734" xlink:href="#DejaVuSans-61"/>
      <use x="1062.207031" xlink:href="#DejaVuSans-6e"/>
      <use x="1125.585938" xlink:href="#DejaVuSans-74"/>
      <use x="1164.794922" xlink:href="#DejaVuSans-61"/>
      <use x="1226.074219" xlink:href="#DejaVuSans-67"/>
      <use x="1289.550781" xlink:href="#DejaVuSans-65"/>
      <use x="1351.074219" xlink:href="#DejaVuSans-64"/>
      <use x="1414.550781" xlink:href="#DejaVuSans-50"/>
      <use x="1474.806641" xlink:href="#DejaVuSans-65"/>
      <use x="1536.330078" xlink:href="#DejaVuSans-72"/>
      <use x="1577.412109" xlink:href="#DejaVuSans-63"/>
      <use x="1632.392578" xlink:href="#DejaVuSans-65"/>
      <use x="1693.916016" xlink:href="#DejaVuSans-6e"/>
      <use x="1757.294922" xlink:href="#DejaVuSans-74"/>
     </g>
    </g>
   </g>
  </g>
 </g>
 <defs>
  <clipPath id="p7772a86e67">
   <rect height="474.654687" width="675.175" x="30.525" y="14.3"/>
  </clipPath>
 </defs>
</svg>
