<?xml version="1.0" encoding="utf-8" standalone="no"?>
<!DOCTYPE svg PUBLIC "-//W3C//DTD SVG 1.1//EN"
  "http://www.w3.org/Graphics/SVG/1.1/DTD/svg11.dtd">
<!-- Created with matplotlib (http://matplotlib.org/) -->
<svg height="720pt" version="1.1" viewBox="0 0 720 720" width="720pt" xmlns="http://www.w3.org/2000/svg" xmlns:xlink="http://www.w3.org/1999/xlink">
 <defs>
  <style type="text/css">
*{stroke-linecap:butt;stroke-linejoin:round;}
  </style>
 </defs>
 <g id="figure_1">
  <g id="patch_1">
   <path d="M 0 720 
L 720 720 
L 720 0 
L 0 0 
z
" style="fill:#ffffff;"/>
  </g>
  <g id="axes_1">
   <g id="patch_2">
    <path d="M 36.8875 487.103125 
L 705.7 487.103125 
L 705.7 14.821067 
L 36.8875 14.821067 
z
" style="fill:#ffffff;"/>
   </g>
   <g id="patch_3">
    <path clip-path="url(#p3c914aff6b)" d="M 57.787891 487.103125 
L 99.588672 487.103125 
L 99.588672 458.282391 
L 57.787891 458.282391 
z
" style="fill:#1f77b4;"/>
   </g>
   <g id="patch_4">
    <path clip-path="url(#p3c914aff6b)" d="M 141.389453 487.103125 
L 183.190234 487.103125 
L 183.190234 471.51158 
L 141.389453 471.51158 
z
" style="fill:#1f77b4;"/>
   </g>
   <g id="patch_5">
    <path clip-path="url(#p3c914aff6b)" d="M 224.991016 487.103125 
L 266.791797 487.103125 
L 266.791797 447.415557 
L 224.991016 447.415557 
z
" style="fill:#1f77b4;"/>
   </g>
   <g id="patch_6">
    <path clip-path="url(#p3c914aff6b)" d="M 308.592578 487.103125 
L 350.393359 487.103125 
L 350.393359 459.227333 
L 308.592578 459.227333 
z
" style="fill:#1f77b4;"/>
   </g>
   <g id="patch_7">
    <path clip-path="url(#p3c914aff6b)" d="M 392.194141 487.103125 
L 433.994922 487.103125 
L 433.994922 465.369457 
L 392.194141 465.369457 
z
" style="fill:#1f77b4;"/>
   </g>
   <g id="patch_8">
    <path clip-path="url(#p3c914aff6b)" d="M 475.795703 487.103125 
L 517.596484 487.103125 
L 517.596484 465.841928 
L 475.795703 465.841928 
z
" style="fill:#1f77b4;"/>
   </g>
   <g id="patch_9">
    <path clip-path="url(#p3c914aff6b)" d="M 559.397266 487.103125 
L 601.198047 487.103125 
L 601.198047 460.644746 
L 559.397266 460.644746 
z
" style="fill:#1f77b4;"/>
   </g>
   <g id="patch_10">
    <path clip-path="url(#p3c914aff6b)" d="M 642.998828 487.103125 
L 684.799609 487.103125 
L 684.799609 454.502623 
L 642.998828 454.502623 
z
" style="fill:#1f77b4;"/>
   </g>
   <g id="patch_11">
    <path clip-path="url(#p3c914aff6b)" d="M 57.787891 458.282391 
L 99.588672 458.282391 
L 99.588672 438.438607 
L 57.787891 438.438607 
z
" style="fill:#ff7f0e;"/>
   </g>
   <g id="patch_12">
    <path clip-path="url(#p3c914aff6b)" d="M 141.389453 471.51158 
L 183.190234 471.51158 
L 183.190234 457.80992 
L 141.389453 457.80992 
z
" style="fill:#ff7f0e;"/>
   </g>
   <g id="patch_13">
    <path clip-path="url(#p3c914aff6b)" d="M 224.991016 447.415557 
L 266.791797 447.415557 
L 266.791797 421.902121 
L 224.991016 421.902121 
z
" style="fill:#ff7f0e;"/>
   </g>
   <g id="patch_14">
    <path clip-path="url(#p3c914aff6b)" d="M 308.592578 459.227333 
L 350.393359 459.227333 
L 350.393359 453.557681 
L 308.592578 453.557681 
z
" style="fill:#ff7f0e;"/>
   </g>
   <g id="patch_15">
    <path clip-path="url(#p3c914aff6b)" d="M 392.194141 465.369457 
L 433.994922 465.369457 
L 433.994922 429.461657 
L 392.194141 429.461657 
z
" style="fill:#ff7f0e;"/>
   </g>
   <g id="patch_16">
    <path clip-path="url(#p3c914aff6b)" d="M 475.795703 465.841928 
L 517.596484 465.841928 
L 517.596484 434.658839 
L 475.795703 434.658839 
z
" style="fill:#ff7f0e;"/>
   </g>
   <g id="patch_17">
    <path clip-path="url(#p3c914aff6b)" d="M 559.397266 460.644746 
L 601.198047 460.644746 
L 601.198047 446.943086 
L 559.397266 446.943086 
z
" style="fill:#ff7f0e;"/>
   </g>
   <g id="patch_18">
    <path clip-path="url(#p3c914aff6b)" d="M 642.998828 454.502623 
L 684.799609 454.502623 
L 684.799609 429.461657 
L 642.998828 429.461657 
z
" style="fill:#ff7f0e;"/>
   </g>
   <g id="patch_19">
    <path clip-path="url(#p3c914aff6b)" d="M 57.787891 438.438607 
L 99.588672 438.438607 
L 99.588672 307.091657 
L 57.787891 307.091657 
z
" style="fill:#2ca02c;"/>
   </g>
   <g id="patch_20">
    <path clip-path="url(#p3c914aff6b)" d="M 141.389453 457.80992 
L 183.190234 457.80992 
L 183.190234 297.169765 
L 141.389453 297.169765 
z
" style="fill:#2ca02c;"/>
   </g>
   <g id="patch_21">
    <path clip-path="url(#p3c914aff6b)" d="M 224.991016 421.902121 
L 266.791797 421.902121 
L 266.791797 273.073741 
L 224.991016 273.073741 
z
" style="fill:#2ca02c;"/>
   </g>
   <g id="patch_22">
    <path clip-path="url(#p3c914aff6b)" d="M 308.592578 453.557681 
L 350.393359 453.557681 
L 350.393359 227.24405 
L 308.592578 227.24405 
z
" style="fill:#2ca02c;"/>
   </g>
   <g id="patch_23">
    <path clip-path="url(#p3c914aff6b)" d="M 392.194141 429.461657 
L 433.994922 429.461657 
L 433.994922 281.105749 
L 392.194141 281.105749 
z
" style="fill:#2ca02c;"/>
   </g>
   <g id="patch_24">
    <path clip-path="url(#p3c914aff6b)" d="M 475.795703 434.658839 
L 517.596484 434.658839 
L 517.596484 295.752351 
L 475.795703 295.752351 
z
" style="fill:#2ca02c;"/>
   </g>
   <g id="patch_25">
    <path clip-path="url(#p3c914aff6b)" d="M 559.397266 446.943086 
L 601.198047 446.943086 
L 601.198047 287.247873 
L 559.397266 287.247873 
z
" style="fill:#2ca02c;"/>
   </g>
   <g id="patch_26">
    <path clip-path="url(#p3c914aff6b)" d="M 642.998828 429.461657 
L 684.799609 429.461657 
L 684.799609 300.477062 
L 642.998828 300.477062 
z
" style="fill:#2ca02c;"/>
   </g>
   <g id="patch_27">
    <path clip-path="url(#p3c914aff6b)" d="M 57.787891 307.091657 
L 99.588672 307.091657 
L 99.588672 49.122465 
L 57.787891 49.122465 
z
" style="fill:#d62728;"/>
   </g>
   <g id="patch_28">
    <path clip-path="url(#p3c914aff6b)" d="M 141.389453 297.169765 
L 183.190234 297.169765 
L 183.190234 55.73706 
L 141.389453 55.73706 
z
" style="fill:#d62728;"/>
   </g>
   <g id="patch_29">
    <path clip-path="url(#p3c914aff6b)" d="M 224.991016 273.073741 
L 266.791797 273.073741 
L 266.791797 49.122465 
L 224.991016 49.122465 
z
" style="fill:#d62728;"/>
   </g>
   <g id="patch_30">
    <path clip-path="url(#p3c914aff6b)" d="M 308.592578 227.24405 
L 350.393359 227.24405 
L 350.393359 37.310689 
L 308.592578 37.310689 
z
" style="fill:#d62728;"/>
   </g>
   <g id="patch_31">
    <path clip-path="url(#p3c914aff6b)" d="M 392.194141 281.105749 
L 433.994922 281.105749 
L 433.994922 45.342697 
L 392.194141 45.342697 
z
" style="fill:#d62728;"/>
   </g>
   <g id="patch_32">
    <path clip-path="url(#p3c914aff6b)" d="M 475.795703 295.752351 
L 517.596484 295.752351 
L 517.596484 45.342697 
L 475.795703 45.342697 
z
" style="fill:#d62728;"/>
   </g>
   <g id="patch_33">
    <path clip-path="url(#p3c914aff6b)" d="M 559.397266 287.247873 
L 601.198047 287.247873 
L 601.198047 52.902234 
L 559.397266 52.902234 
z
" style="fill:#d62728;"/>
   </g>
   <g id="patch_34">
    <path clip-path="url(#p3c914aff6b)" d="M 642.998828 300.477062 
L 684.799609 300.477062 
L 684.799609 47.232581 
L 642.998828 47.232581 
z
" style="fill:#d62728;"/>
   </g>
   <g id="matplotlib.axis_1">
    <g id="xtick_1">
     <g id="line2d_1">
      <defs>
       <path d="M 0 0 
L 0 3.5 
" id="m881c4c6a97" style="stroke:#000000;stroke-width:0.8;"/>
      </defs>
      <g>
       <use style="stroke:#000000;stroke-width:0.8;" x="78.688281" xlink:href="#m881c4c6a97" y="487.103125"/>
      </g>
     </g>
     <g id="text_1">
      <!-- Fitchburg - Arthur M Longsjo Middle School -->
      <defs>
       <path d="M 9.8125 72.90625 
L 51.703125 72.90625 
L 51.703125 64.59375 
L 19.671875 64.59375 
L 19.671875 43.109375 
L 48.578125 43.109375 
L 48.578125 34.8125 
L 19.671875 34.8125 
L 19.671875 0 
L 9.8125 0 
z
" id="DejaVuSans-46"/>
       <path d="M 9.421875 54.6875 
L 18.40625 54.6875 
L 18.40625 0 
L 9.421875 0 
z
M 9.421875 75.984375 
L 18.40625 75.984375 
L 18.40625 64.59375 
L 9.421875 64.59375 
z
" id="DejaVuSans-69"/>
       <path d="M 18.3125 70.21875 
L 18.3125 54.6875 
L 36.8125 54.6875 
L 36.8125 47.703125 
L 18.3125 47.703125 
L 18.3125 18.015625 
Q 18.3125 11.328125 20.140625 9.421875 
Q 21.96875 7.515625 27.59375 7.515625 
L 36.8125 7.515625 
L 36.8125 0 
L 27.59375 0 
Q 17.1875 0 13.234375 3.875 
Q 9.28125 7.765625 9.28125 18.015625 
L 9.28125 47.703125 
L 2.6875 47.703125 
L 2.6875 54.6875 
L 9.28125 54.6875 
L 9.28125 70.21875 
z
" id="DejaVuSans-74"/>
       <path d="M 48.78125 52.59375 
L 48.78125 44.1875 
Q 44.96875 46.296875 41.140625 47.34375 
Q 37.3125 48.390625 33.40625 48.390625 
Q 24.65625 48.390625 19.8125 42.84375 
Q 14.984375 37.3125 14.984375 27.296875 
Q 14.984375 17.28125 19.8125 11.734375 
Q 24.65625 6.203125 33.40625 6.203125 
Q 37.3125 6.203125 41.140625 7.25 
Q 44.96875 8.296875 48.78125 10.40625 
L 48.78125 2.09375 
Q 45.015625 0.34375 40.984375 -0.53125 
Q 36.96875 -1.421875 32.421875 -1.421875 
Q 20.0625 -1.421875 12.78125 6.34375 
Q 5.515625 14.109375 5.515625 27.296875 
Q 5.515625 40.671875 12.859375 48.328125 
Q 20.21875 56 33.015625 56 
Q 37.15625 56 41.109375 55.140625 
Q 45.0625 54.296875 48.78125 52.59375 
z
" id="DejaVuSans-63"/>
       <path d="M 54.890625 33.015625 
L 54.890625 0 
L 45.90625 0 
L 45.90625 32.71875 
Q 45.90625 40.484375 42.875 44.328125 
Q 39.84375 48.1875 33.796875 48.1875 
Q 26.515625 48.1875 22.3125 43.546875 
Q 18.109375 38.921875 18.109375 30.90625 
L 18.109375 0 
L 9.078125 0 
L 9.078125 75.984375 
L 18.109375 75.984375 
L 18.109375 46.1875 
Q 21.34375 51.125 25.703125 53.5625 
Q 30.078125 56 35.796875 56 
Q 45.21875 56 50.046875 50.171875 
Q 54.890625 44.34375 54.890625 33.015625 
z
" id="DejaVuSans-68"/>
       <path d="M 48.6875 27.296875 
Q 48.6875 37.203125 44.609375 42.84375 
Q 40.53125 48.484375 33.40625 48.484375 
Q 26.265625 48.484375 22.1875 42.84375 
Q 18.109375 37.203125 18.109375 27.296875 
Q 18.109375 17.390625 22.1875 11.75 
Q 26.265625 6.109375 33.40625 6.109375 
Q 40.53125 6.109375 44.609375 11.75 
Q 48.6875 17.390625 48.6875 27.296875 
z
M 18.109375 46.390625 
Q 20.953125 51.265625 25.265625 53.625 
Q 29.59375 56 35.59375 56 
Q 45.5625 56 51.78125 48.09375 
Q 58.015625 40.1875 58.015625 27.296875 
Q 58.015625 14.40625 51.78125 6.484375 
Q 45.5625 -1.421875 35.59375 -1.421875 
Q 29.59375 -1.421875 25.265625 0.953125 
Q 20.953125 3.328125 18.109375 8.203125 
L 18.109375 0 
L 9.078125 0 
L 9.078125 75.984375 
L 18.109375 75.984375 
z
" id="DejaVuSans-62"/>
       <path d="M 8.5 21.578125 
L 8.5 54.6875 
L 17.484375 54.6875 
L 17.484375 21.921875 
Q 17.484375 14.15625 20.5 10.265625 
Q 23.53125 6.390625 29.59375 6.390625 
Q 36.859375 6.390625 41.078125 11.03125 
Q 45.3125 15.671875 45.3125 23.6875 
L 45.3125 54.6875 
L 54.296875 54.6875 
L 54.296875 0 
L 45.3125 0 
L 45.3125 8.40625 
Q 42.046875 3.421875 37.71875 1 
Q 33.40625 -1.421875 27.6875 -1.421875 
Q 18.265625 -1.421875 13.375 4.4375 
Q 8.5 10.296875 8.5 21.578125 
z
M 31.109375 56 
z
" id="DejaVuSans-75"/>
       <path d="M 41.109375 46.296875 
Q 39.59375 47.171875 37.8125 47.578125 
Q 36.03125 48 33.890625 48 
Q 26.265625 48 22.1875 43.046875 
Q 18.109375 38.09375 18.109375 28.8125 
L 18.109375 0 
L 9.078125 0 
L 9.078125 54.6875 
L 18.109375 54.6875 
L 18.109375 46.1875 
Q 20.953125 51.171875 25.484375 53.578125 
Q 30.03125 56 36.53125 56 
Q 37.453125 56 38.578125 55.875 
Q 39.703125 55.765625 41.0625 55.515625 
z
" id="DejaVuSans-72"/>
       <path d="M 45.40625 27.984375 
Q 45.40625 37.75 41.375 43.109375 
Q 37.359375 48.484375 30.078125 48.484375 
Q 22.859375 48.484375 18.828125 43.109375 
Q 14.796875 37.75 14.796875 27.984375 
Q 14.796875 18.265625 18.828125 12.890625 
Q 22.859375 7.515625 30.078125 7.515625 
Q 37.359375 7.515625 41.375 12.890625 
Q 45.40625 18.265625 45.40625 27.984375 
z
M 54.390625 6.78125 
Q 54.390625 -7.171875 48.1875 -13.984375 
Q 42 -20.796875 29.203125 -20.796875 
Q 24.46875 -20.796875 20.265625 -20.09375 
Q 16.0625 -19.390625 12.109375 -17.921875 
L 12.109375 -9.1875 
Q 16.0625 -11.328125 19.921875 -12.34375 
Q 23.78125 -13.375 27.78125 -13.375 
Q 36.625 -13.375 41.015625 -8.765625 
Q 45.40625 -4.15625 45.40625 5.171875 
L 45.40625 9.625 
Q 42.625 4.78125 38.28125 2.390625 
Q 33.9375 0 27.875 0 
Q 17.828125 0 11.671875 7.65625 
Q 5.515625 15.328125 5.515625 27.984375 
Q 5.515625 40.671875 11.671875 48.328125 
Q 17.828125 56 27.875 56 
Q 33.9375 56 38.28125 53.609375 
Q 42.625 51.21875 45.40625 46.390625 
L 45.40625 54.6875 
L 54.390625 54.6875 
z
" id="DejaVuSans-67"/>
       <path id="DejaVuSans-20"/>
       <path d="M 4.890625 31.390625 
L 31.203125 31.390625 
L 31.203125 23.390625 
L 4.890625 23.390625 
z
" id="DejaVuSans-2d"/>
       <path d="M 34.1875 63.1875 
L 20.796875 26.90625 
L 47.609375 26.90625 
z
M 28.609375 72.90625 
L 39.796875 72.90625 
L 67.578125 0 
L 57.328125 0 
L 50.6875 18.703125 
L 17.828125 18.703125 
L 11.1875 0 
L 0.78125 0 
z
" id="DejaVuSans-41"/>
       <path d="M 9.8125 72.90625 
L 24.515625 72.90625 
L 43.109375 23.296875 
L 61.8125 72.90625 
L 76.515625 72.90625 
L 76.515625 0 
L 66.890625 0 
L 66.890625 64.015625 
L 48.09375 14.015625 
L 38.1875 14.015625 
L 19.390625 64.015625 
L 19.390625 0 
L 9.8125 0 
z
" id="DejaVuSans-4d"/>
       <path d="M 9.8125 72.90625 
L 19.671875 72.90625 
L 19.671875 8.296875 
L 55.171875 8.296875 
L 55.171875 0 
L 9.8125 0 
z
" id="DejaVuSans-4c"/>
       <path d="M 30.609375 48.390625 
Q 23.390625 48.390625 19.1875 42.75 
Q 14.984375 37.109375 14.984375 27.296875 
Q 14.984375 17.484375 19.15625 11.84375 
Q 23.34375 6.203125 30.609375 6.203125 
Q 37.796875 6.203125 41.984375 11.859375 
Q 46.1875 17.53125 46.1875 27.296875 
Q 46.1875 37.015625 41.984375 42.703125 
Q 37.796875 48.390625 30.609375 48.390625 
z
M 30.609375 56 
Q 42.328125 56 49.015625 48.375 
Q 55.71875 40.765625 55.71875 27.296875 
Q 55.71875 13.875 49.015625 6.21875 
Q 42.328125 -1.421875 30.609375 -1.421875 
Q 18.84375 -1.421875 12.171875 6.21875 
Q 5.515625 13.875 5.515625 27.296875 
Q 5.515625 40.765625 12.171875 48.375 
Q 18.84375 56 30.609375 56 
z
" id="DejaVuSans-6f"/>
       <path d="M 54.890625 33.015625 
L 54.890625 0 
L 45.90625 0 
L 45.90625 32.71875 
Q 45.90625 40.484375 42.875 44.328125 
Q 39.84375 48.1875 33.796875 48.1875 
Q 26.515625 48.1875 22.3125 43.546875 
Q 18.109375 38.921875 18.109375 30.90625 
L 18.109375 0 
L 9.078125 0 
L 9.078125 54.6875 
L 18.109375 54.6875 
L 18.109375 46.1875 
Q 21.34375 51.125 25.703125 53.5625 
Q 30.078125 56 35.796875 56 
Q 45.21875 56 50.046875 50.171875 
Q 54.890625 44.34375 54.890625 33.015625 
z
" id="DejaVuSans-6e"/>
       <path d="M 44.28125 53.078125 
L 44.28125 44.578125 
Q 40.484375 46.53125 36.375 47.5 
Q 32.28125 48.484375 27.875 48.484375 
Q 21.1875 48.484375 17.84375 46.4375 
Q 14.5 44.390625 14.5 40.28125 
Q 14.5 37.15625 16.890625 35.375 
Q 19.28125 33.59375 26.515625 31.984375 
L 29.59375 31.296875 
Q 39.15625 29.25 43.1875 25.515625 
Q 47.21875 21.78125 47.21875 15.09375 
Q 47.21875 7.46875 41.1875 3.015625 
Q 35.15625 -1.421875 24.609375 -1.421875 
Q 20.21875 -1.421875 15.453125 -0.5625 
Q 10.6875 0.296875 5.421875 2 
L 5.421875 11.28125 
Q 10.40625 8.6875 15.234375 7.390625 
Q 20.0625 6.109375 24.8125 6.109375 
Q 31.15625 6.109375 34.5625 8.28125 
Q 37.984375 10.453125 37.984375 14.40625 
Q 37.984375 18.0625 35.515625 20.015625 
Q 33.0625 21.96875 24.703125 23.78125 
L 21.578125 24.515625 
Q 13.234375 26.265625 9.515625 29.90625 
Q 5.8125 33.546875 5.8125 39.890625 
Q 5.8125 47.609375 11.28125 51.796875 
Q 16.75 56 26.8125 56 
Q 31.78125 56 36.171875 55.265625 
Q 40.578125 54.546875 44.28125 53.078125 
z
" id="DejaVuSans-73"/>
       <path d="M 9.421875 54.6875 
L 18.40625 54.6875 
L 18.40625 -0.984375 
Q 18.40625 -11.421875 14.421875 -16.109375 
Q 10.453125 -20.796875 1.609375 -20.796875 
L -1.8125 -20.796875 
L -1.8125 -13.1875 
L 0.59375 -13.1875 
Q 5.71875 -13.1875 7.5625 -10.8125 
Q 9.421875 -8.453125 9.421875 -0.984375 
z
M 9.421875 75.984375 
L 18.40625 75.984375 
L 18.40625 64.59375 
L 9.421875 64.59375 
z
" id="DejaVuSans-6a"/>
       <path d="M 45.40625 46.390625 
L 45.40625 75.984375 
L 54.390625 75.984375 
L 54.390625 0 
L 45.40625 0 
L 45.40625 8.203125 
Q 42.578125 3.328125 38.25 0.953125 
Q 33.9375 -1.421875 27.875 -1.421875 
Q 17.96875 -1.421875 11.734375 6.484375 
Q 5.515625 14.40625 5.515625 27.296875 
Q 5.515625 40.1875 11.734375 48.09375 
Q 17.96875 56 27.875 56 
Q 33.9375 56 38.25 53.625 
Q 42.578125 51.265625 45.40625 46.390625 
z
M 14.796875 27.296875 
Q 14.796875 17.390625 18.875 11.75 
Q 22.953125 6.109375 30.078125 6.109375 
Q 37.203125 6.109375 41.296875 11.75 
Q 45.40625 17.390625 45.40625 27.296875 
Q 45.40625 37.203125 41.296875 42.84375 
Q 37.203125 48.484375 30.078125 48.484375 
Q 22.953125 48.484375 18.875 42.84375 
Q 14.796875 37.203125 14.796875 27.296875 
z
" id="DejaVuSans-64"/>
       <path d="M 9.421875 75.984375 
L 18.40625 75.984375 
L 18.40625 0 
L 9.421875 0 
z
" id="DejaVuSans-6c"/>
       <path d="M 56.203125 29.59375 
L 56.203125 25.203125 
L 14.890625 25.203125 
Q 15.484375 15.921875 20.484375 11.0625 
Q 25.484375 6.203125 34.421875 6.203125 
Q 39.59375 6.203125 44.453125 7.46875 
Q 49.3125 8.734375 54.109375 11.28125 
L 54.109375 2.78125 
Q 49.265625 0.734375 44.1875 -0.34375 
Q 39.109375 -1.421875 33.890625 -1.421875 
Q 20.796875 -1.421875 13.15625 6.1875 
Q 5.515625 13.8125 5.515625 26.8125 
Q 5.515625 40.234375 12.765625 48.109375 
Q 20.015625 56 32.328125 56 
Q 43.359375 56 49.78125 48.890625 
Q 56.203125 41.796875 56.203125 29.59375 
z
M 47.21875 32.234375 
Q 47.125 39.59375 43.09375 43.984375 
Q 39.0625 48.390625 32.421875 48.390625 
Q 24.90625 48.390625 20.390625 44.140625 
Q 15.875 39.890625 15.1875 32.171875 
z
" id="DejaVuSans-65"/>
       <path d="M 53.515625 70.515625 
L 53.515625 60.890625 
Q 47.90625 63.578125 42.921875 64.890625 
Q 37.9375 66.21875 33.296875 66.21875 
Q 25.25 66.21875 20.875 63.09375 
Q 16.5 59.96875 16.5 54.203125 
Q 16.5 49.359375 19.40625 46.890625 
Q 22.3125 44.4375 30.421875 42.921875 
L 36.375 41.703125 
Q 47.40625 39.59375 52.65625 34.296875 
Q 57.90625 29 57.90625 20.125 
Q 57.90625 9.515625 50.796875 4.046875 
Q 43.703125 -1.421875 29.984375 -1.421875 
Q 24.8125 -1.421875 18.96875 -0.25 
Q 13.140625 0.921875 6.890625 3.21875 
L 6.890625 13.375 
Q 12.890625 10.015625 18.65625 8.296875 
Q 24.421875 6.59375 29.984375 6.59375 
Q 38.421875 6.59375 43.015625 9.90625 
Q 47.609375 13.234375 47.609375 19.390625 
Q 47.609375 24.75 44.3125 27.78125 
Q 41.015625 30.8125 33.5 32.328125 
L 27.484375 33.5 
Q 16.453125 35.6875 11.515625 40.375 
Q 6.59375 45.0625 6.59375 53.421875 
Q 6.59375 63.09375 13.40625 68.65625 
Q 20.21875 74.21875 32.171875 74.21875 
Q 37.3125 74.21875 42.625 73.28125 
Q 47.953125 72.359375 53.515625 70.515625 
z
" id="DejaVuSans-53"/>
      </defs>
      <g transform="translate(81.447656 709.2)rotate(-90)scale(0.1 -0.1)">
       <use xlink:href="#DejaVuSans-46"/>
       <use x="57.410156" xlink:href="#DejaVuSans-69"/>
       <use x="85.193359" xlink:href="#DejaVuSans-74"/>
       <use x="124.402344" xlink:href="#DejaVuSans-63"/>
       <use x="179.382812" xlink:href="#DejaVuSans-68"/>
       <use x="242.761719" xlink:href="#DejaVuSans-62"/>
       <use x="306.238281" xlink:href="#DejaVuSans-75"/>
       <use x="369.617188" xlink:href="#DejaVuSans-72"/>
       <use x="410.714844" xlink:href="#DejaVuSans-67"/>
       <use x="474.191406" xlink:href="#DejaVuSans-20"/>
       <use x="505.978516" xlink:href="#DejaVuSans-2d"/>
       <use x="542.0625" xlink:href="#DejaVuSans-20"/>
       <use x="573.849609" xlink:href="#DejaVuSans-41"/>
       <use x="642.257812" xlink:href="#DejaVuSans-72"/>
       <use x="683.371094" xlink:href="#DejaVuSans-74"/>
       <use x="722.580078" xlink:href="#DejaVuSans-68"/>
       <use x="785.958984" xlink:href="#DejaVuSans-75"/>
       <use x="849.337891" xlink:href="#DejaVuSans-72"/>
       <use x="890.451172" xlink:href="#DejaVuSans-20"/>
       <use x="922.238281" xlink:href="#DejaVuSans-4d"/>
       <use x="1008.517578" xlink:href="#DejaVuSans-20"/>
       <use x="1040.304688" xlink:href="#DejaVuSans-4c"/>
       <use x="1096.001953" xlink:href="#DejaVuSans-6f"/>
       <use x="1157.183594" xlink:href="#DejaVuSans-6e"/>
       <use x="1220.5625" xlink:href="#DejaVuSans-67"/>
       <use x="1284.039062" xlink:href="#DejaVuSans-73"/>
       <use x="1336.138672" xlink:href="#DejaVuSans-6a"/>
       <use x="1363.921875" xlink:href="#DejaVuSans-6f"/>
       <use x="1425.103516" xlink:href="#DejaVuSans-20"/>
       <use x="1456.890625" xlink:href="#DejaVuSans-4d"/>
       <use x="1543.169922" xlink:href="#DejaVuSans-69"/>
       <use x="1570.953125" xlink:href="#DejaVuSans-64"/>
       <use x="1634.429688" xlink:href="#DejaVuSans-64"/>
       <use x="1697.90625" xlink:href="#DejaVuSans-6c"/>
       <use x="1725.689453" xlink:href="#DejaVuSans-65"/>
       <use x="1787.212891" xlink:href="#DejaVuSans-20"/>
       <use x="1819" xlink:href="#DejaVuSans-53"/>
       <use x="1882.476562" xlink:href="#DejaVuSans-63"/>
       <use x="1937.457031" xlink:href="#DejaVuSans-68"/>
       <use x="2000.835938" xlink:href="#DejaVuSans-6f"/>
       <use x="2062.017578" xlink:href="#DejaVuSans-6f"/>
       <use x="2123.199219" xlink:href="#DejaVuSans-6c"/>
      </g>
     </g>
    </g>
    <g id="xtick_2">
     <g id="line2d_2">
      <g>
       <use style="stroke:#000000;stroke-width:0.8;" x="162.289844" xlink:href="#m881c4c6a97" y="487.103125"/>
      </g>
     </g>
     <g id="text_2">
      <!-- Fitchburg - Crocker Elementary -->
      <defs>
       <path d="M 64.40625 67.28125 
L 64.40625 56.890625 
Q 59.421875 61.53125 53.78125 63.8125 
Q 48.140625 66.109375 41.796875 66.109375 
Q 29.296875 66.109375 22.65625 58.46875 
Q 16.015625 50.828125 16.015625 36.375 
Q 16.015625 21.96875 22.65625 14.328125 
Q 29.296875 6.6875 41.796875 6.6875 
Q 48.140625 6.6875 53.78125 8.984375 
Q 59.421875 11.28125 64.40625 15.921875 
L 64.40625 5.609375 
Q 59.234375 2.09375 53.4375 0.328125 
Q 47.65625 -1.421875 41.21875 -1.421875 
Q 24.65625 -1.421875 15.125 8.703125 
Q 5.609375 18.84375 5.609375 36.375 
Q 5.609375 53.953125 15.125 64.078125 
Q 24.65625 74.21875 41.21875 74.21875 
Q 47.75 74.21875 53.53125 72.484375 
Q 59.328125 70.75 64.40625 67.28125 
z
" id="DejaVuSans-43"/>
       <path d="M 9.078125 75.984375 
L 18.109375 75.984375 
L 18.109375 31.109375 
L 44.921875 54.6875 
L 56.390625 54.6875 
L 27.390625 29.109375 
L 57.625 0 
L 45.90625 0 
L 18.109375 26.703125 
L 18.109375 0 
L 9.078125 0 
z
" id="DejaVuSans-6b"/>
       <path d="M 9.8125 72.90625 
L 55.90625 72.90625 
L 55.90625 64.59375 
L 19.671875 64.59375 
L 19.671875 43.015625 
L 54.390625 43.015625 
L 54.390625 34.71875 
L 19.671875 34.71875 
L 19.671875 8.296875 
L 56.78125 8.296875 
L 56.78125 0 
L 9.8125 0 
z
" id="DejaVuSans-45"/>
       <path d="M 52 44.1875 
Q 55.375 50.25 60.0625 53.125 
Q 64.75 56 71.09375 56 
Q 79.640625 56 84.28125 50.015625 
Q 88.921875 44.046875 88.921875 33.015625 
L 88.921875 0 
L 79.890625 0 
L 79.890625 32.71875 
Q 79.890625 40.578125 77.09375 44.375 
Q 74.3125 48.1875 68.609375 48.1875 
Q 61.625 48.1875 57.5625 43.546875 
Q 53.515625 38.921875 53.515625 30.90625 
L 53.515625 0 
L 44.484375 0 
L 44.484375 32.71875 
Q 44.484375 40.625 41.703125 44.40625 
Q 38.921875 48.1875 33.109375 48.1875 
Q 26.21875 48.1875 22.15625 43.53125 
Q 18.109375 38.875 18.109375 30.90625 
L 18.109375 0 
L 9.078125 0 
L 9.078125 54.6875 
L 18.109375 54.6875 
L 18.109375 46.1875 
Q 21.1875 51.21875 25.484375 53.609375 
Q 29.78125 56 35.6875 56 
Q 41.65625 56 45.828125 52.96875 
Q 50 49.953125 52 44.1875 
z
" id="DejaVuSans-6d"/>
       <path d="M 34.28125 27.484375 
Q 23.390625 27.484375 19.1875 25 
Q 14.984375 22.515625 14.984375 16.5 
Q 14.984375 11.71875 18.140625 8.90625 
Q 21.296875 6.109375 26.703125 6.109375 
Q 34.1875 6.109375 38.703125 11.40625 
Q 43.21875 16.703125 43.21875 25.484375 
L 43.21875 27.484375 
z
M 52.203125 31.203125 
L 52.203125 0 
L 43.21875 0 
L 43.21875 8.296875 
Q 40.140625 3.328125 35.546875 0.953125 
Q 30.953125 -1.421875 24.3125 -1.421875 
Q 15.921875 -1.421875 10.953125 3.296875 
Q 6 8.015625 6 15.921875 
Q 6 25.140625 12.171875 29.828125 
Q 18.359375 34.515625 30.609375 34.515625 
L 43.21875 34.515625 
L 43.21875 35.40625 
Q 43.21875 41.609375 39.140625 45 
Q 35.0625 48.390625 27.6875 48.390625 
Q 23 48.390625 18.546875 47.265625 
Q 14.109375 46.140625 10.015625 43.890625 
L 10.015625 52.203125 
Q 14.9375 54.109375 19.578125 55.046875 
Q 24.21875 56 28.609375 56 
Q 40.484375 56 46.34375 49.84375 
Q 52.203125 43.703125 52.203125 31.203125 
z
" id="DejaVuSans-61"/>
       <path d="M 32.171875 -5.078125 
Q 28.375 -14.84375 24.75 -17.8125 
Q 21.140625 -20.796875 15.09375 -20.796875 
L 7.90625 -20.796875 
L 7.90625 -13.28125 
L 13.1875 -13.28125 
Q 16.890625 -13.28125 18.9375 -11.515625 
Q 21 -9.765625 23.484375 -3.21875 
L 25.09375 0.875 
L 2.984375 54.6875 
L 12.5 54.6875 
L 29.59375 11.921875 
L 46.6875 54.6875 
L 56.203125 54.6875 
z
" id="DejaVuSans-79"/>
      </defs>
      <g transform="translate(165.049219 650.98125)rotate(-90)scale(0.1 -0.1)">
       <use xlink:href="#DejaVuSans-46"/>
       <use x="57.410156" xlink:href="#DejaVuSans-69"/>
       <use x="85.193359" xlink:href="#DejaVuSans-74"/>
       <use x="124.402344" xlink:href="#DejaVuSans-63"/>
       <use x="179.382812" xlink:href="#DejaVuSans-68"/>
       <use x="242.761719" xlink:href="#DejaVuSans-62"/>
       <use x="306.238281" xlink:href="#DejaVuSans-75"/>
       <use x="369.617188" xlink:href="#DejaVuSans-72"/>
       <use x="410.714844" xlink:href="#DejaVuSans-67"/>
       <use x="474.191406" xlink:href="#DejaVuSans-20"/>
       <use x="505.978516" xlink:href="#DejaVuSans-2d"/>
       <use x="542.0625" xlink:href="#DejaVuSans-20"/>
       <use x="573.849609" xlink:href="#DejaVuSans-43"/>
       <use x="643.673828" xlink:href="#DejaVuSans-72"/>
       <use x="684.755859" xlink:href="#DejaVuSans-6f"/>
       <use x="745.9375" xlink:href="#DejaVuSans-63"/>
       <use x="800.917969" xlink:href="#DejaVuSans-6b"/>
       <use x="858.78125" xlink:href="#DejaVuSans-65"/>
       <use x="920.304688" xlink:href="#DejaVuSans-72"/>
       <use x="961.417969" xlink:href="#DejaVuSans-20"/>
       <use x="993.205078" xlink:href="#DejaVuSans-45"/>
       <use x="1056.388672" xlink:href="#DejaVuSans-6c"/>
       <use x="1084.171875" xlink:href="#DejaVuSans-65"/>
       <use x="1145.695312" xlink:href="#DejaVuSans-6d"/>
       <use x="1243.107422" xlink:href="#DejaVuSans-65"/>
       <use x="1304.630859" xlink:href="#DejaVuSans-6e"/>
       <use x="1368.009766" xlink:href="#DejaVuSans-74"/>
       <use x="1407.21875" xlink:href="#DejaVuSans-61"/>
       <use x="1468.498047" xlink:href="#DejaVuSans-72"/>
       <use x="1509.611328" xlink:href="#DejaVuSans-79"/>
      </g>
     </g>
    </g>
    <g id="xtick_3">
     <g id="line2d_3">
      <g>
       <use style="stroke:#000000;stroke-width:0.8;" x="245.891406" xlink:href="#m881c4c6a97" y="487.103125"/>
      </g>
     </g>
     <g id="text_3">
      <!-- Fitchburg - Fitchburg High -->
      <defs>
       <path d="M 9.8125 72.90625 
L 19.671875 72.90625 
L 19.671875 43.015625 
L 55.515625 43.015625 
L 55.515625 72.90625 
L 65.375 72.90625 
L 65.375 0 
L 55.515625 0 
L 55.515625 34.71875 
L 19.671875 34.71875 
L 19.671875 0 
L 9.8125 0 
z
" id="DejaVuSans-48"/>
      </defs>
      <g transform="translate(248.650781 625.067187)rotate(-90)scale(0.1 -0.1)">
       <use xlink:href="#DejaVuSans-46"/>
       <use x="57.410156" xlink:href="#DejaVuSans-69"/>
       <use x="85.193359" xlink:href="#DejaVuSans-74"/>
       <use x="124.402344" xlink:href="#DejaVuSans-63"/>
       <use x="179.382812" xlink:href="#DejaVuSans-68"/>
       <use x="242.761719" xlink:href="#DejaVuSans-62"/>
       <use x="306.238281" xlink:href="#DejaVuSans-75"/>
       <use x="369.617188" xlink:href="#DejaVuSans-72"/>
       <use x="410.714844" xlink:href="#DejaVuSans-67"/>
       <use x="474.191406" xlink:href="#DejaVuSans-20"/>
       <use x="505.978516" xlink:href="#DejaVuSans-2d"/>
       <use x="542.0625" xlink:href="#DejaVuSans-20"/>
       <use x="573.849609" xlink:href="#DejaVuSans-46"/>
       <use x="631.259766" xlink:href="#DejaVuSans-69"/>
       <use x="659.042969" xlink:href="#DejaVuSans-74"/>
       <use x="698.251953" xlink:href="#DejaVuSans-63"/>
       <use x="753.232422" xlink:href="#DejaVuSans-68"/>
       <use x="816.611328" xlink:href="#DejaVuSans-62"/>
       <use x="880.087891" xlink:href="#DejaVuSans-75"/>
       <use x="943.466797" xlink:href="#DejaVuSans-72"/>
       <use x="984.564453" xlink:href="#DejaVuSans-67"/>
       <use x="1048.041016" xlink:href="#DejaVuSans-20"/>
       <use x="1079.828125" xlink:href="#DejaVuSans-48"/>
       <use x="1155.023438" xlink:href="#DejaVuSans-69"/>
       <use x="1182.806641" xlink:href="#DejaVuSans-67"/>
       <use x="1246.283203" xlink:href="#DejaVuSans-68"/>
      </g>
     </g>
    </g>
    <g id="xtick_4">
     <g id="line2d_4">
      <g>
       <use style="stroke:#000000;stroke-width:0.8;" x="329.492969" xlink:href="#m881c4c6a97" y="487.103125"/>
      </g>
     </g>
     <g id="text_4">
      <!-- Fitchburg - Goodrich Academy -->
      <defs>
       <path d="M 59.515625 10.40625 
L 59.515625 29.984375 
L 43.40625 29.984375 
L 43.40625 38.09375 
L 69.28125 38.09375 
L 69.28125 6.78125 
Q 63.578125 2.734375 56.6875 0.65625 
Q 49.8125 -1.421875 42 -1.421875 
Q 24.90625 -1.421875 15.25 8.5625 
Q 5.609375 18.5625 5.609375 36.375 
Q 5.609375 54.25 15.25 64.234375 
Q 24.90625 74.21875 42 74.21875 
Q 49.125 74.21875 55.546875 72.453125 
Q 61.96875 70.703125 67.390625 67.28125 
L 67.390625 56.78125 
Q 61.921875 61.421875 55.765625 63.765625 
Q 49.609375 66.109375 42.828125 66.109375 
Q 29.4375 66.109375 22.71875 58.640625 
Q 16.015625 51.171875 16.015625 36.375 
Q 16.015625 21.625 22.71875 14.15625 
Q 29.4375 6.6875 42.828125 6.6875 
Q 48.046875 6.6875 52.140625 7.59375 
Q 56.25 8.5 59.515625 10.40625 
z
" id="DejaVuSans-47"/>
      </defs>
      <g transform="translate(332.252344 646.35)rotate(-90)scale(0.1 -0.1)">
       <use xlink:href="#DejaVuSans-46"/>
       <use x="57.410156" xlink:href="#DejaVuSans-69"/>
       <use x="85.193359" xlink:href="#DejaVuSans-74"/>
       <use x="124.402344" xlink:href="#DejaVuSans-63"/>
       <use x="179.382812" xlink:href="#DejaVuSans-68"/>
       <use x="242.761719" xlink:href="#DejaVuSans-62"/>
       <use x="306.238281" xlink:href="#DejaVuSans-75"/>
       <use x="369.617188" xlink:href="#DejaVuSans-72"/>
       <use x="410.714844" xlink:href="#DejaVuSans-67"/>
       <use x="474.191406" xlink:href="#DejaVuSans-20"/>
       <use x="505.978516" xlink:href="#DejaVuSans-2d"/>
       <use x="542.0625" xlink:href="#DejaVuSans-20"/>
       <use x="573.849609" xlink:href="#DejaVuSans-47"/>
       <use x="651.339844" xlink:href="#DejaVuSans-6f"/>
       <use x="712.521484" xlink:href="#DejaVuSans-6f"/>
       <use x="773.703125" xlink:href="#DejaVuSans-64"/>
       <use x="837.179688" xlink:href="#DejaVuSans-72"/>
       <use x="878.292969" xlink:href="#DejaVuSans-69"/>
       <use x="906.076172" xlink:href="#DejaVuSans-63"/>
       <use x="961.056641" xlink:href="#DejaVuSans-68"/>
       <use x="1024.435547" xlink:href="#DejaVuSans-20"/>
       <use x="1056.222656" xlink:href="#DejaVuSans-41"/>
       <use x="1124.615234" xlink:href="#DejaVuSans-63"/>
       <use x="1179.595703" xlink:href="#DejaVuSans-61"/>
       <use x="1240.875" xlink:href="#DejaVuSans-64"/>
       <use x="1304.351562" xlink:href="#DejaVuSans-65"/>
       <use x="1365.875" xlink:href="#DejaVuSans-6d"/>
       <use x="1463.287109" xlink:href="#DejaVuSans-79"/>
      </g>
     </g>
    </g>
    <g id="xtick_5">
     <g id="line2d_5">
      <g>
       <use style="stroke:#000000;stroke-width:0.8;" x="413.094531" xlink:href="#m881c4c6a97" y="487.103125"/>
      </g>
     </g>
     <g id="text_5">
      <!-- Fitchburg - McKay Arts Academy -->
      <defs>
       <path d="M 9.8125 72.90625 
L 19.671875 72.90625 
L 19.671875 42.09375 
L 52.390625 72.90625 
L 65.09375 72.90625 
L 28.90625 38.921875 
L 67.671875 0 
L 54.6875 0 
L 19.671875 35.109375 
L 19.671875 0 
L 9.8125 0 
z
" id="DejaVuSans-4b"/>
      </defs>
      <g transform="translate(415.853906 657.279687)rotate(-90)scale(0.1 -0.1)">
       <use xlink:href="#DejaVuSans-46"/>
       <use x="57.410156" xlink:href="#DejaVuSans-69"/>
       <use x="85.193359" xlink:href="#DejaVuSans-74"/>
       <use x="124.402344" xlink:href="#DejaVuSans-63"/>
       <use x="179.382812" xlink:href="#DejaVuSans-68"/>
       <use x="242.761719" xlink:href="#DejaVuSans-62"/>
       <use x="306.238281" xlink:href="#DejaVuSans-75"/>
       <use x="369.617188" xlink:href="#DejaVuSans-72"/>
       <use x="410.714844" xlink:href="#DejaVuSans-67"/>
       <use x="474.191406" xlink:href="#DejaVuSans-20"/>
       <use x="505.978516" xlink:href="#DejaVuSans-2d"/>
       <use x="542.0625" xlink:href="#DejaVuSans-20"/>
       <use x="573.849609" xlink:href="#DejaVuSans-4d"/>
       <use x="660.128906" xlink:href="#DejaVuSans-63"/>
       <use x="715.109375" xlink:href="#DejaVuSans-4b"/>
       <use x="780.669922" xlink:href="#DejaVuSans-61"/>
       <use x="841.949219" xlink:href="#DejaVuSans-79"/>
       <use x="901.128906" xlink:href="#DejaVuSans-20"/>
       <use x="932.916016" xlink:href="#DejaVuSans-41"/>
       <use x="1001.324219" xlink:href="#DejaVuSans-72"/>
       <use x="1042.4375" xlink:href="#DejaVuSans-74"/>
       <use x="1081.646484" xlink:href="#DejaVuSans-73"/>
       <use x="1133.746094" xlink:href="#DejaVuSans-20"/>
       <use x="1165.533203" xlink:href="#DejaVuSans-41"/>
       <use x="1233.925781" xlink:href="#DejaVuSans-63"/>
       <use x="1288.90625" xlink:href="#DejaVuSans-61"/>
       <use x="1350.185547" xlink:href="#DejaVuSans-64"/>
       <use x="1413.662109" xlink:href="#DejaVuSans-65"/>
       <use x="1475.185547" xlink:href="#DejaVuSans-6d"/>
       <use x="1572.597656" xlink:href="#DejaVuSans-79"/>
      </g>
     </g>
    </g>
    <g id="xtick_6">
     <g id="line2d_6">
      <g>
       <use style="stroke:#000000;stroke-width:0.8;" x="496.696094" xlink:href="#m881c4c6a97" y="487.103125"/>
      </g>
     </g>
     <g id="text_6">
      <!-- Fitchburg - Memorial Middle School -->
      <g transform="translate(499.455469 670.5125)rotate(-90)scale(0.1 -0.1)">
       <use xlink:href="#DejaVuSans-46"/>
       <use x="57.410156" xlink:href="#DejaVuSans-69"/>
       <use x="85.193359" xlink:href="#DejaVuSans-74"/>
       <use x="124.402344" xlink:href="#DejaVuSans-63"/>
       <use x="179.382812" xlink:href="#DejaVuSans-68"/>
       <use x="242.761719" xlink:href="#DejaVuSans-62"/>
       <use x="306.238281" xlink:href="#DejaVuSans-75"/>
       <use x="369.617188" xlink:href="#DejaVuSans-72"/>
       <use x="410.714844" xlink:href="#DejaVuSans-67"/>
       <use x="474.191406" xlink:href="#DejaVuSans-20"/>
       <use x="505.978516" xlink:href="#DejaVuSans-2d"/>
       <use x="542.0625" xlink:href="#DejaVuSans-20"/>
       <use x="573.849609" xlink:href="#DejaVuSans-4d"/>
       <use x="660.128906" xlink:href="#DejaVuSans-65"/>
       <use x="721.652344" xlink:href="#DejaVuSans-6d"/>
       <use x="819.064453" xlink:href="#DejaVuSans-6f"/>
       <use x="880.246094" xlink:href="#DejaVuSans-72"/>
       <use x="921.359375" xlink:href="#DejaVuSans-69"/>
       <use x="949.142578" xlink:href="#DejaVuSans-61"/>
       <use x="1010.421875" xlink:href="#DejaVuSans-6c"/>
       <use x="1038.205078" xlink:href="#DejaVuSans-20"/>
       <use x="1069.992188" xlink:href="#DejaVuSans-4d"/>
       <use x="1156.271484" xlink:href="#DejaVuSans-69"/>
       <use x="1184.054688" xlink:href="#DejaVuSans-64"/>
       <use x="1247.53125" xlink:href="#DejaVuSans-64"/>
       <use x="1311.007812" xlink:href="#DejaVuSans-6c"/>
       <use x="1338.791016" xlink:href="#DejaVuSans-65"/>
       <use x="1400.314453" xlink:href="#DejaVuSans-20"/>
       <use x="1432.101562" xlink:href="#DejaVuSans-53"/>
       <use x="1495.578125" xlink:href="#DejaVuSans-63"/>
       <use x="1550.558594" xlink:href="#DejaVuSans-68"/>
       <use x="1613.9375" xlink:href="#DejaVuSans-6f"/>
       <use x="1675.119141" xlink:href="#DejaVuSans-6f"/>
       <use x="1736.300781" xlink:href="#DejaVuSans-6c"/>
      </g>
     </g>
    </g>
    <g id="xtick_7">
     <g id="line2d_7">
      <g>
       <use style="stroke:#000000;stroke-width:0.8;" x="580.297656" xlink:href="#m881c4c6a97" y="487.103125"/>
      </g>
     </g>
     <g id="text_7">
      <!-- Fitchburg - Reingold Elementary -->
      <defs>
       <path d="M 44.390625 34.1875 
Q 47.5625 33.109375 50.5625 29.59375 
Q 53.5625 26.078125 56.59375 19.921875 
L 66.609375 0 
L 56 0 
L 46.6875 18.703125 
Q 43.0625 26.03125 39.671875 28.421875 
Q 36.28125 30.8125 30.421875 30.8125 
L 19.671875 30.8125 
L 19.671875 0 
L 9.8125 0 
L 9.8125 72.90625 
L 32.078125 72.90625 
Q 44.578125 72.90625 50.734375 67.671875 
Q 56.890625 62.453125 56.890625 51.90625 
Q 56.890625 45.015625 53.6875 40.46875 
Q 50.484375 35.9375 44.390625 34.1875 
z
M 19.671875 64.796875 
L 19.671875 38.921875 
L 32.078125 38.921875 
Q 39.203125 38.921875 42.84375 42.21875 
Q 46.484375 45.515625 46.484375 51.90625 
Q 46.484375 58.296875 42.84375 61.546875 
Q 39.203125 64.796875 32.078125 64.796875 
z
" id="DejaVuSans-52"/>
      </defs>
      <g transform="translate(583.057031 656.028125)rotate(-90)scale(0.1 -0.1)">
       <use xlink:href="#DejaVuSans-46"/>
       <use x="57.410156" xlink:href="#DejaVuSans-69"/>
       <use x="85.193359" xlink:href="#DejaVuSans-74"/>
       <use x="124.402344" xlink:href="#DejaVuSans-63"/>
       <use x="179.382812" xlink:href="#DejaVuSans-68"/>
       <use x="242.761719" xlink:href="#DejaVuSans-62"/>
       <use x="306.238281" xlink:href="#DejaVuSans-75"/>
       <use x="369.617188" xlink:href="#DejaVuSans-72"/>
       <use x="410.714844" xlink:href="#DejaVuSans-67"/>
       <use x="474.191406" xlink:href="#DejaVuSans-20"/>
       <use x="505.978516" xlink:href="#DejaVuSans-2d"/>
       <use x="542.0625" xlink:href="#DejaVuSans-20"/>
       <use x="573.849609" xlink:href="#DejaVuSans-52"/>
       <use x="643.269531" xlink:href="#DejaVuSans-65"/>
       <use x="704.792969" xlink:href="#DejaVuSans-69"/>
       <use x="732.576172" xlink:href="#DejaVuSans-6e"/>
       <use x="795.955078" xlink:href="#DejaVuSans-67"/>
       <use x="859.431641" xlink:href="#DejaVuSans-6f"/>
       <use x="920.613281" xlink:href="#DejaVuSans-6c"/>
       <use x="948.396484" xlink:href="#DejaVuSans-64"/>
       <use x="1011.873047" xlink:href="#DejaVuSans-20"/>
       <use x="1043.660156" xlink:href="#DejaVuSans-45"/>
       <use x="1106.84375" xlink:href="#DejaVuSans-6c"/>
       <use x="1134.626953" xlink:href="#DejaVuSans-65"/>
       <use x="1196.150391" xlink:href="#DejaVuSans-6d"/>
       <use x="1293.5625" xlink:href="#DejaVuSans-65"/>
       <use x="1355.085938" xlink:href="#DejaVuSans-6e"/>
       <use x="1418.464844" xlink:href="#DejaVuSans-74"/>
       <use x="1457.673828" xlink:href="#DejaVuSans-61"/>
       <use x="1518.953125" xlink:href="#DejaVuSans-72"/>
       <use x="1560.066406" xlink:href="#DejaVuSans-79"/>
      </g>
     </g>
    </g>
    <g id="xtick_8">
     <g id="line2d_8">
      <g>
       <use style="stroke:#000000;stroke-width:0.8;" x="663.899219" xlink:href="#m881c4c6a97" y="487.103125"/>
      </g>
     </g>
     <g id="text_8">
      <!-- Fitchburg - South Street Elementary -->
      <g transform="translate(666.658594 675.067187)rotate(-90)scale(0.1 -0.1)">
       <use xlink:href="#DejaVuSans-46"/>
       <use x="57.410156" xlink:href="#DejaVuSans-69"/>
       <use x="85.193359" xlink:href="#DejaVuSans-74"/>
       <use x="124.402344" xlink:href="#DejaVuSans-63"/>
       <use x="179.382812" xlink:href="#DejaVuSans-68"/>
       <use x="242.761719" xlink:href="#DejaVuSans-62"/>
       <use x="306.238281" xlink:href="#DejaVuSans-75"/>
       <use x="369.617188" xlink:href="#DejaVuSans-72"/>
       <use x="410.714844" xlink:href="#DejaVuSans-67"/>
       <use x="474.191406" xlink:href="#DejaVuSans-20"/>
       <use x="505.978516" xlink:href="#DejaVuSans-2d"/>
       <use x="542.0625" xlink:href="#DejaVuSans-20"/>
       <use x="573.849609" xlink:href="#DejaVuSans-53"/>
       <use x="637.326172" xlink:href="#DejaVuSans-6f"/>
       <use x="698.507812" xlink:href="#DejaVuSans-75"/>
       <use x="761.886719" xlink:href="#DejaVuSans-74"/>
       <use x="801.095703" xlink:href="#DejaVuSans-68"/>
       <use x="864.474609" xlink:href="#DejaVuSans-20"/>
       <use x="896.261719" xlink:href="#DejaVuSans-53"/>
       <use x="959.738281" xlink:href="#DejaVuSans-74"/>
       <use x="998.947266" xlink:href="#DejaVuSans-72"/>
       <use x="1040.029297" xlink:href="#DejaVuSans-65"/>
       <use x="1101.552734" xlink:href="#DejaVuSans-65"/>
       <use x="1163.076172" xlink:href="#DejaVuSans-74"/>
       <use x="1202.285156" xlink:href="#DejaVuSans-20"/>
       <use x="1234.072266" xlink:href="#DejaVuSans-45"/>
       <use x="1297.255859" xlink:href="#DejaVuSans-6c"/>
       <use x="1325.039062" xlink:href="#DejaVuSans-65"/>
       <use x="1386.5625" xlink:href="#DejaVuSans-6d"/>
       <use x="1483.974609" xlink:href="#DejaVuSans-65"/>
       <use x="1545.498047" xlink:href="#DejaVuSans-6e"/>
       <use x="1608.876953" xlink:href="#DejaVuSans-74"/>
       <use x="1648.085938" xlink:href="#DejaVuSans-61"/>
       <use x="1709.365234" xlink:href="#DejaVuSans-72"/>
       <use x="1750.478516" xlink:href="#DejaVuSans-79"/>
      </g>
     </g>
    </g>
   </g>
   <g id="matplotlib.axis_2">
    <g id="ytick_1">
     <g id="line2d_9">
      <defs>
       <path d="M 0 0 
L -3.5 0 
" id="m67a1695cfb" style="stroke:#000000;stroke-width:0.8;"/>
      </defs>
      <g>
       <use style="stroke:#000000;stroke-width:0.8;" x="36.8875" xlink:href="#m67a1695cfb" y="487.103125"/>
      </g>
     </g>
     <g id="text_9">
      <!-- 0 -->
      <defs>
       <path d="M 31.78125 66.40625 
Q 24.171875 66.40625 20.328125 58.90625 
Q 16.5 51.421875 16.5 36.375 
Q 16.5 21.390625 20.328125 13.890625 
Q 24.171875 6.390625 31.78125 6.390625 
Q 39.453125 6.390625 43.28125 13.890625 
Q 47.125 21.390625 47.125 36.375 
Q 47.125 51.421875 43.28125 58.90625 
Q 39.453125 66.40625 31.78125 66.40625 
z
M 31.78125 74.21875 
Q 44.046875 74.21875 50.515625 64.515625 
Q 56.984375 54.828125 56.984375 36.375 
Q 56.984375 17.96875 50.515625 8.265625 
Q 44.046875 -1.421875 31.78125 -1.421875 
Q 19.53125 -1.421875 13.0625 8.265625 
Q 6.59375 17.96875 6.59375 36.375 
Q 6.59375 54.828125 13.0625 64.515625 
Q 19.53125 74.21875 31.78125 74.21875 
z
" id="DejaVuSans-30"/>
      </defs>
      <g transform="translate(23.525 490.902344)scale(0.1 -0.1)">
       <use xlink:href="#DejaVuSans-30"/>
      </g>
     </g>
    </g>
    <g id="ytick_2">
     <g id="line2d_10">
      <g>
       <use style="stroke:#000000;stroke-width:0.8;" x="36.8875" xlink:href="#m67a1695cfb" y="392.608916"/>
      </g>
     </g>
     <g id="text_10">
      <!-- 20 -->
      <defs>
       <path d="M 19.1875 8.296875 
L 53.609375 8.296875 
L 53.609375 0 
L 7.328125 0 
L 7.328125 8.296875 
Q 12.9375 14.109375 22.625 23.890625 
Q 32.328125 33.6875 34.8125 36.53125 
Q 39.546875 41.84375 41.421875 45.53125 
Q 43.3125 49.21875 43.3125 52.78125 
Q 43.3125 58.59375 39.234375 62.25 
Q 35.15625 65.921875 28.609375 65.921875 
Q 23.96875 65.921875 18.8125 64.3125 
Q 13.671875 62.703125 7.8125 59.421875 
L 7.8125 69.390625 
Q 13.765625 71.78125 18.9375 73 
Q 24.125 74.21875 28.421875 74.21875 
Q 39.75 74.21875 46.484375 68.546875 
Q 53.21875 62.890625 53.21875 53.421875 
Q 53.21875 48.921875 51.53125 44.890625 
Q 49.859375 40.875 45.40625 35.40625 
Q 44.1875 33.984375 37.640625 27.21875 
Q 31.109375 20.453125 19.1875 8.296875 
z
" id="DejaVuSans-32"/>
      </defs>
      <g transform="translate(17.1625 396.408135)scale(0.1 -0.1)">
       <use xlink:href="#DejaVuSans-32"/>
       <use x="63.623047" xlink:href="#DejaVuSans-30"/>
      </g>
     </g>
    </g>
    <g id="ytick_3">
     <g id="line2d_11">
      <g>
       <use style="stroke:#000000;stroke-width:0.8;" x="36.8875" xlink:href="#m67a1695cfb" y="298.114707"/>
      </g>
     </g>
     <g id="text_11">
      <!-- 40 -->
      <defs>
       <path d="M 37.796875 64.3125 
L 12.890625 25.390625 
L 37.796875 25.390625 
z
M 35.203125 72.90625 
L 47.609375 72.90625 
L 47.609375 25.390625 
L 58.015625 25.390625 
L 58.015625 17.1875 
L 47.609375 17.1875 
L 47.609375 0 
L 37.796875 0 
L 37.796875 17.1875 
L 4.890625 17.1875 
L 4.890625 26.703125 
z
" id="DejaVuSans-34"/>
      </defs>
      <g transform="translate(17.1625 301.913925)scale(0.1 -0.1)">
       <use xlink:href="#DejaVuSans-34"/>
       <use x="63.623047" xlink:href="#DejaVuSans-30"/>
      </g>
     </g>
    </g>
    <g id="ytick_4">
     <g id="line2d_12">
      <g>
       <use style="stroke:#000000;stroke-width:0.8;" x="36.8875" xlink:href="#m67a1695cfb" y="203.620497"/>
      </g>
     </g>
     <g id="text_12">
      <!-- 60 -->
      <defs>
       <path d="M 33.015625 40.375 
Q 26.375 40.375 22.484375 35.828125 
Q 18.609375 31.296875 18.609375 23.390625 
Q 18.609375 15.53125 22.484375 10.953125 
Q 26.375 6.390625 33.015625 6.390625 
Q 39.65625 6.390625 43.53125 10.953125 
Q 47.40625 15.53125 47.40625 23.390625 
Q 47.40625 31.296875 43.53125 35.828125 
Q 39.65625 40.375 33.015625 40.375 
z
M 52.59375 71.296875 
L 52.59375 62.3125 
Q 48.875 64.0625 45.09375 64.984375 
Q 41.3125 65.921875 37.59375 65.921875 
Q 27.828125 65.921875 22.671875 59.328125 
Q 17.53125 52.734375 16.796875 39.40625 
Q 19.671875 43.65625 24.015625 45.921875 
Q 28.375 48.1875 33.59375 48.1875 
Q 44.578125 48.1875 50.953125 41.515625 
Q 57.328125 34.859375 57.328125 23.390625 
Q 57.328125 12.15625 50.6875 5.359375 
Q 44.046875 -1.421875 33.015625 -1.421875 
Q 20.359375 -1.421875 13.671875 8.265625 
Q 6.984375 17.96875 6.984375 36.375 
Q 6.984375 53.65625 15.1875 63.9375 
Q 23.390625 74.21875 37.203125 74.21875 
Q 40.921875 74.21875 44.703125 73.484375 
Q 48.484375 72.75 52.59375 71.296875 
z
" id="DejaVuSans-36"/>
      </defs>
      <g transform="translate(17.1625 207.419716)scale(0.1 -0.1)">
       <use xlink:href="#DejaVuSans-36"/>
       <use x="63.623047" xlink:href="#DejaVuSans-30"/>
      </g>
     </g>
    </g>
    <g id="ytick_5">
     <g id="line2d_13">
      <g>
       <use style="stroke:#000000;stroke-width:0.8;" x="36.8875" xlink:href="#m67a1695cfb" y="109.126288"/>
      </g>
     </g>
     <g id="text_13">
      <!-- 80 -->
      <defs>
       <path d="M 31.78125 34.625 
Q 24.75 34.625 20.71875 30.859375 
Q 16.703125 27.09375 16.703125 20.515625 
Q 16.703125 13.921875 20.71875 10.15625 
Q 24.75 6.390625 31.78125 6.390625 
Q 38.8125 6.390625 42.859375 10.171875 
Q 46.921875 13.96875 46.921875 20.515625 
Q 46.921875 27.09375 42.890625 30.859375 
Q 38.875 34.625 31.78125 34.625 
z
M 21.921875 38.8125 
Q 15.578125 40.375 12.03125 44.71875 
Q 8.5 49.078125 8.5 55.328125 
Q 8.5 64.0625 14.71875 69.140625 
Q 20.953125 74.21875 31.78125 74.21875 
Q 42.671875 74.21875 48.875 69.140625 
Q 55.078125 64.0625 55.078125 55.328125 
Q 55.078125 49.078125 51.53125 44.71875 
Q 48 40.375 41.703125 38.8125 
Q 48.828125 37.15625 52.796875 32.3125 
Q 56.78125 27.484375 56.78125 20.515625 
Q 56.78125 9.90625 50.3125 4.234375 
Q 43.84375 -1.421875 31.78125 -1.421875 
Q 19.734375 -1.421875 13.25 4.234375 
Q 6.78125 9.90625 6.78125 20.515625 
Q 6.78125 27.484375 10.78125 32.3125 
Q 14.796875 37.15625 21.921875 38.8125 
z
M 18.3125 54.390625 
Q 18.3125 48.734375 21.84375 45.5625 
Q 25.390625 42.390625 31.78125 42.390625 
Q 38.140625 42.390625 41.71875 45.5625 
Q 45.3125 48.734375 45.3125 54.390625 
Q 45.3125 60.0625 41.71875 63.234375 
Q 38.140625 66.40625 31.78125 66.40625 
Q 25.390625 66.40625 21.84375 63.234375 
Q 18.3125 60.0625 18.3125 54.390625 
z
" id="DejaVuSans-38"/>
      </defs>
      <g transform="translate(17.1625 112.925507)scale(0.1 -0.1)">
       <use xlink:href="#DejaVuSans-38"/>
       <use x="63.623047" xlink:href="#DejaVuSans-30"/>
      </g>
     </g>
    </g>
    <g id="ytick_6">
     <g id="line2d_14">
      <g>
       <use style="stroke:#000000;stroke-width:0.8;" x="36.8875" xlink:href="#m67a1695cfb" y="14.632079"/>
      </g>
     </g>
     <g id="text_14">
      <!-- 100 -->
      <defs>
       <path d="M 12.40625 8.296875 
L 28.515625 8.296875 
L 28.515625 63.921875 
L 10.984375 60.40625 
L 10.984375 69.390625 
L 28.421875 72.90625 
L 38.28125 72.90625 
L 38.28125 8.296875 
L 54.390625 8.296875 
L 54.390625 0 
L 12.40625 0 
z
" id="DejaVuSans-31"/>
      </defs>
      <g transform="translate(10.8 18.431298)scale(0.1 -0.1)">
       <use xlink:href="#DejaVuSans-31"/>
       <use x="63.623047" xlink:href="#DejaVuSans-30"/>
       <use x="127.246094" xlink:href="#DejaVuSans-30"/>
      </g>
     </g>
    </g>
   </g>
   <g id="patch_35">
    <path d="M 36.8875 487.103125 
L 36.8875 14.821067 
" style="fill:none;stroke:#000000;stroke-linecap:square;stroke-linejoin:miter;stroke-width:0.8;"/>
   </g>
   <g id="patch_36">
    <path d="M 705.7 487.103125 
L 705.7 14.821067 
" style="fill:none;stroke:#000000;stroke-linecap:square;stroke-linejoin:miter;stroke-width:0.8;"/>
   </g>
   <g id="patch_37">
    <path d="M 36.8875 487.103125 
L 705.7 487.103125 
" style="fill:none;stroke:#000000;stroke-linecap:square;stroke-linejoin:miter;stroke-width:0.8;"/>
   </g>
   <g id="patch_38">
    <path d="M 36.8875 14.821067 
L 705.7 14.821067 
" style="fill:none;stroke:#000000;stroke-linecap:square;stroke-linejoin:miter;stroke-width:0.8;"/>
   </g>
   <g id="legend_1">
    <g id="patch_39">
     <path d="M 583.903125 81.533567 
L 698.7 81.533567 
Q 700.7 81.533567 700.7 79.533567 
L 700.7 21.821067 
Q 700.7 19.821067 698.7 19.821067 
L 583.903125 19.821067 
Q 581.903125 19.821067 581.903125 21.821067 
L 581.903125 79.533567 
Q 581.903125 81.533567 583.903125 81.533567 
z
" style="fill:#ffffff;opacity:0.8;stroke:#cccccc;stroke-linejoin:miter;"/>
    </g>
    <g id="patch_40">
     <path d="M 585.903125 31.419505 
L 605.903125 31.419505 
L 605.903125 24.419505 
L 585.903125 24.419505 
z
" style="fill:#1f77b4;"/>
    </g>
    <g id="text_15">
     <!-- AfricanAmerican -->
     <defs>
      <path d="M 37.109375 75.984375 
L 37.109375 68.5 
L 28.515625 68.5 
Q 23.6875 68.5 21.796875 66.546875 
Q 19.921875 64.59375 19.921875 59.515625 
L 19.921875 54.6875 
L 34.71875 54.6875 
L 34.71875 47.703125 
L 19.921875 47.703125 
L 19.921875 0 
L 10.890625 0 
L 10.890625 47.703125 
L 2.296875 47.703125 
L 2.296875 54.6875 
L 10.890625 54.6875 
L 10.890625 58.5 
Q 10.890625 67.625 15.140625 71.796875 
Q 19.390625 75.984375 28.609375 75.984375 
z
" id="DejaVuSans-66"/>
     </defs>
     <g transform="translate(613.903125 31.419505)scale(0.1 -0.1)">
      <use xlink:href="#DejaVuSans-41"/>
      <use x="68.361328" xlink:href="#DejaVuSans-66"/>
      <use x="103.566406" xlink:href="#DejaVuSans-72"/>
      <use x="144.679688" xlink:href="#DejaVuSans-69"/>
      <use x="172.462891" xlink:href="#DejaVuSans-63"/>
      <use x="227.443359" xlink:href="#DejaVuSans-61"/>
      <use x="288.722656" xlink:href="#DejaVuSans-6e"/>
      <use x="352.101562" xlink:href="#DejaVuSans-41"/>
      <use x="420.509766" xlink:href="#DejaVuSans-6d"/>
      <use x="517.921875" xlink:href="#DejaVuSans-65"/>
      <use x="579.445312" xlink:href="#DejaVuSans-72"/>
      <use x="620.558594" xlink:href="#DejaVuSans-69"/>
      <use x="648.341797" xlink:href="#DejaVuSans-63"/>
      <use x="703.322266" xlink:href="#DejaVuSans-61"/>
      <use x="764.601562" xlink:href="#DejaVuSans-6e"/>
     </g>
    </g>
    <g id="patch_41">
     <path d="M 585.903125 46.09763 
L 605.903125 46.09763 
L 605.903125 39.09763 
L 585.903125 39.09763 
z
" style="fill:#ff7f0e;"/>
    </g>
    <g id="text_16">
     <!-- Asian -->
     <g transform="translate(613.903125 46.09763)scale(0.1 -0.1)">
      <use xlink:href="#DejaVuSans-41"/>
      <use x="68.408203" xlink:href="#DejaVuSans-73"/>
      <use x="120.507812" xlink:href="#DejaVuSans-69"/>
      <use x="148.291016" xlink:href="#DejaVuSans-61"/>
      <use x="209.570312" xlink:href="#DejaVuSans-6e"/>
     </g>
    </g>
    <g id="patch_42">
     <path d="M 585.903125 60.775755 
L 605.903125 60.775755 
L 605.903125 53.775755 
L 585.903125 53.775755 
z
" style="fill:#2ca02c;"/>
    </g>
    <g id="text_17">
     <!-- White -->
     <defs>
      <path d="M 3.328125 72.90625 
L 13.28125 72.90625 
L 28.609375 11.28125 
L 43.890625 72.90625 
L 54.984375 72.90625 
L 70.3125 11.28125 
L 85.59375 72.90625 
L 95.609375 72.90625 
L 77.296875 0 
L 64.890625 0 
L 49.515625 63.28125 
L 33.984375 0 
L 21.578125 0 
z
" id="DejaVuSans-57"/>
     </defs>
     <g transform="translate(613.903125 60.775755)scale(0.1 -0.1)">
      <use xlink:href="#DejaVuSans-57"/>
      <use x="98.876953" xlink:href="#DejaVuSans-68"/>
      <use x="162.255859" xlink:href="#DejaVuSans-69"/>
      <use x="190.039062" xlink:href="#DejaVuSans-74"/>
      <use x="229.248047" xlink:href="#DejaVuSans-65"/>
     </g>
    </g>
    <g id="patch_43">
     <path d="M 585.903125 75.45388 
L 605.903125 75.45388 
L 605.903125 68.45388 
L 585.903125 68.45388 
z
" style="fill:#d62728;"/>
    </g>
    <g id="text_18">
     <!-- Hispanic -->
     <defs>
      <path d="M 18.109375 8.203125 
L 18.109375 -20.796875 
L 9.078125 -20.796875 
L 9.078125 54.6875 
L 18.109375 54.6875 
L 18.109375 46.390625 
Q 20.953125 51.265625 25.265625 53.625 
Q 29.59375 56 35.59375 56 
Q 45.5625 56 51.78125 48.09375 
Q 58.015625 40.1875 58.015625 27.296875 
Q 58.015625 14.40625 51.78125 6.484375 
Q 45.5625 -1.421875 35.59375 -1.421875 
Q 29.59375 -1.421875 25.265625 0.953125 
Q 20.953125 3.328125 18.109375 8.203125 
z
M 48.6875 27.296875 
Q 48.6875 37.203125 44.609375 42.84375 
Q 40.53125 48.484375 33.40625 48.484375 
Q 26.265625 48.484375 22.1875 42.84375 
Q 18.109375 37.203125 18.109375 27.296875 
Q 18.109375 17.390625 22.1875 11.75 
Q 26.265625 6.109375 33.40625 6.109375 
Q 40.53125 6.109375 44.609375 11.75 
Q 48.6875 17.390625 48.6875 27.296875 
z
" id="DejaVuSans-70"/>
     </defs>
     <g transform="translate(613.903125 75.45388)scale(0.1 -0.1)">
      <use xlink:href="#DejaVuSans-48"/>
      <use x="75.195312" xlink:href="#DejaVuSans-69"/>
      <use x="102.978516" xlink:href="#DejaVuSans-73"/>
      <use x="155.078125" xlink:href="#DejaVuSans-70"/>
      <use x="218.554688" xlink:href="#DejaVuSans-61"/>
      <use x="279.833984" xlink:href="#DejaVuSans-6e"/>
      <use x="343.212891" xlink:href="#DejaVuSans-69"/>
      <use x="370.996094" xlink:href="#DejaVuSans-63"/>
     </g>
    </g>
   </g>
  </g>
 </g>
 <defs>
  <clipPath id="p3c914aff6b">
   <rect height="472.282058" width="668.8125" x="36.8875" y="14.821067"/>
  </clipPath>
 </defs>
</svg>
