<?xml version="1.0" encoding="utf-8" standalone="no"?>
<!DOCTYPE svg PUBLIC "-//W3C//DTD SVG 1.1//EN"
  "http://www.w3.org/Graphics/SVG/1.1/DTD/svg11.dtd">
<!-- Created with matplotlib (http://matplotlib.org/) -->
<svg height="720pt" version="1.1" viewBox="0 0 720 720" width="720pt" xmlns="http://www.w3.org/2000/svg" xmlns:xlink="http://www.w3.org/1999/xlink">
 <defs>
  <style type="text/css">
*{stroke-linecap:butt;stroke-linejoin:round;}
  </style>
 </defs>
 <g id="figure_1">
  <g id="patch_1">
   <path d="M 0 720 
L 720 720 
L 720 0 
L 0 0 
z
" style="fill:#ffffff;"/>
  </g>
  <g id="axes_1">
   <g id="patch_2">
    <path d="M 30.525 455.4375 
L 705.7 455.4375 
L 705.7 14.3 
L 30.525 14.3 
z
" style="fill:#ffffff;"/>
   </g>
   <g id="patch_3">
    <path clip-path="url(#pb492e25938)" d="M 41.777917 455.4375 
L 53.030833 455.4375 
L 53.030833 130.11486 
L 41.777917 130.11486 
z
" style="fill:#1f77b4;"/>
   </g>
   <g id="patch_4">
    <path clip-path="url(#pb492e25938)" d="M 86.789583 455.4375 
L 98.0425 455.4375 
L 98.0425 167.29459 
L 86.789583 167.29459 
z
" style="fill:#1f77b4;"/>
   </g>
   <g id="patch_5">
    <path clip-path="url(#pb492e25938)" d="M 131.80125 455.4375 
L 143.054167 455.4375 
L 143.054167 184.025469 
L 131.80125 184.025469 
z
" style="fill:#1f77b4;"/>
   </g>
   <g id="patch_6">
    <path clip-path="url(#pb492e25938)" d="M 176.812917 455.4375 
L 188.065833 455.4375 
L 188.065833 50.17844 
L 176.812917 50.17844 
z
" style="fill:#1f77b4;"/>
   </g>
   <g id="patch_7">
    <path clip-path="url(#pb492e25938)" d="M 221.824583 455.4375 
L 233.0775 455.4375 
L 233.0775 421.975743 
L 221.824583 421.975743 
z
" style="fill:#1f77b4;"/>
   </g>
   <g id="patch_8">
    <path clip-path="url(#pb492e25938)" d="M 266.83625 455.4375 
L 278.089167 455.4375 
L 278.089167 137.550806 
L 266.83625 137.550806 
z
" style="fill:#1f77b4;"/>
   </g>
   <g id="patch_9">
    <path clip-path="url(#pb492e25938)" d="M 311.847917 455.4375 
L 323.100833 455.4375 
L 323.100833 243.513037 
L 311.847917 243.513037 
z
" style="fill:#1f77b4;"/>
   </g>
   <g id="patch_10">
    <path clip-path="url(#pb492e25938)" d="M 356.859583 455.4375 
L 368.1125 455.4375 
L 368.1125 172.87155 
L 356.859583 172.87155 
z
" style="fill:#1f77b4;"/>
   </g>
   <g id="patch_11">
    <path clip-path="url(#pb492e25938)" d="M 401.87125 455.4375 
L 413.124167 455.4375 
L 413.124167 226.782159 
L 401.87125 226.782159 
z
" style="fill:#1f77b4;"/>
   </g>
   <g id="patch_12">
    <path clip-path="url(#pb492e25938)" d="M 446.882917 455.4375 
L 458.135833 455.4375 
L 458.135833 200.756347 
L 446.882917 200.756347 
z
" style="fill:#1f77b4;"/>
   </g>
   <g id="patch_13">
    <path clip-path="url(#pb492e25938)" d="M 491.894583 455.4375 
L 503.1475 455.4375 
L 503.1475 35.306548 
L 491.894583 35.306548 
z
" style="fill:#1f77b4;"/>
   </g>
   <g id="patch_14">
    <path clip-path="url(#pb492e25938)" d="M 536.90625 455.4375 
L 548.159167 455.4375 
L 548.159167 414.539797 
L 536.90625 414.539797 
z
" style="fill:#1f77b4;"/>
   </g>
   <g id="patch_15">
    <path clip-path="url(#pb492e25938)" d="M 581.917917 455.4375 
L 593.170833 455.4375 
L 593.170833 260.243916 
L 581.917917 260.243916 
z
" style="fill:#1f77b4;"/>
   </g>
   <g id="patch_16">
    <path clip-path="url(#pb492e25938)" d="M 626.929583 455.4375 
L 638.1825 455.4375 
L 638.1825 401.526891 
L 626.929583 401.526891 
z
" style="fill:#1f77b4;"/>
   </g>
   <g id="patch_17">
    <path clip-path="url(#pb492e25938)" d="M 671.94125 455.4375 
L 683.194167 455.4375 
L 683.194167 308.577565 
L 671.94125 308.577565 
z
" style="fill:#1f77b4;"/>
   </g>
   <g id="patch_18">
    <path clip-path="url(#pb492e25938)" d="M 53.030833 455.4375 
L 64.28375 455.4375 
L 64.28375 226.782159 
L 53.030833 226.782159 
z
" style="fill:#ff7f0e;"/>
   </g>
   <g id="patch_19">
    <path clip-path="url(#pb492e25938)" d="M 98.0425 455.4375 
L 109.295417 455.4375 
L 109.295417 195.179388 
L 98.0425 195.179388 
z
" style="fill:#ff7f0e;"/>
   </g>
   <g id="patch_20">
    <path clip-path="url(#pb492e25938)" d="M 143.054167 455.4375 
L 154.307083 455.4375 
L 154.307083 379.219053 
L 143.054167 379.219053 
z
" style="fill:#ff7f0e;"/>
   </g>
   <g id="patch_21">
    <path clip-path="url(#pb492e25938)" d="M 188.065833 455.4375 
L 199.31875 455.4375 
L 199.31875 213.769253 
L 188.065833 213.769253 
z
" style="fill:#ff7f0e;"/>
   </g>
   <g id="patch_22">
    <path clip-path="url(#pb492e25938)" d="M 233.0775 455.4375 
L 244.330417 455.4375 
L 244.330417 438.706621 
L 233.0775 438.706621 
z
" style="fill:#ff7f0e;"/>
   </g>
   <g id="patch_23">
    <path clip-path="url(#pb492e25938)" d="M 278.089167 455.4375 
L 289.342083 455.4375 
L 289.342083 386.654999 
L 278.089167 386.654999 
z
" style="fill:#ff7f0e;"/>
   </g>
   <g id="patch_24">
    <path clip-path="url(#pb492e25938)" d="M 323.100833 455.4375 
L 334.35375 455.4375 
L 334.35375 388.513985 
L 323.100833 388.513985 
z
" style="fill:#ff7f0e;"/>
   </g>
   <g id="patch_25">
    <path clip-path="url(#pb492e25938)" d="M 368.1125 455.4375 
L 379.365417 455.4375 
L 379.365417 355.052228 
L 368.1125 355.052228 
z
" style="fill:#ff7f0e;"/>
   </g>
   <g id="patch_26">
    <path clip-path="url(#pb492e25938)" d="M 413.124167 455.4375 
L 424.377083 455.4375 
L 424.377083 356.911215 
L 413.124167 356.911215 
z
" style="fill:#ff7f0e;"/>
   </g>
   <g id="patch_27">
    <path clip-path="url(#pb492e25938)" d="M 458.135833 455.4375 
L 469.38875 455.4375 
L 469.38875 278.833781 
L 458.135833 278.833781 
z
" style="fill:#ff7f0e;"/>
   </g>
   <g id="patch_28">
    <path clip-path="url(#pb492e25938)" d="M 503.1475 455.4375 
L 514.400417 455.4375 
L 514.400417 265.820875 
L 503.1475 265.820875 
z
" style="fill:#ff7f0e;"/>
   </g>
   <g id="patch_29">
    <path clip-path="url(#pb492e25938)" d="M 548.159167 455.4375 
L 559.412083 455.4375 
L 559.412083 444.283581 
L 548.159167 444.283581 
z
" style="fill:#ff7f0e;"/>
   </g>
   <g id="patch_30">
    <path clip-path="url(#pb492e25938)" d="M 593.170833 455.4375 
L 604.42375 455.4375 
L 604.42375 299.282633 
L 593.170833 299.282633 
z
" style="fill:#ff7f0e;"/>
   </g>
   <g id="patch_31">
    <path clip-path="url(#pb492e25938)" d="M 638.1825 455.4375 
L 649.435417 455.4375 
L 649.435417 448.001554 
L 638.1825 448.001554 
z
" style="fill:#ff7f0e;"/>
   </g>
   <g id="patch_32">
    <path clip-path="url(#pb492e25938)" d="M 683.194167 455.4375 
L 694.447083 455.4375 
L 694.447083 423.834729 
L 683.194167 423.834729 
z
" style="fill:#ff7f0e;"/>
   </g>
   <g id="matplotlib.axis_1">
    <g id="xtick_1">
     <g id="line2d_1">
      <defs>
       <path d="M 0 0 
L 0 3.5 
" id="mf4ee3f1b42" style="stroke:#000000;stroke-width:0.8;"/>
      </defs>
      <g>
       <use style="stroke:#000000;stroke-width:0.8;" x="53.030833" xlink:href="#mf4ee3f1b42" y="455.4375"/>
      </g>
     </g>
     <g id="text_1">
      <!-- Chicopee - Barry -->
      <defs>
       <path d="M 64.40625 67.28125 
L 64.40625 56.890625 
Q 59.421875 61.53125 53.78125 63.8125 
Q 48.140625 66.109375 41.796875 66.109375 
Q 29.296875 66.109375 22.65625 58.46875 
Q 16.015625 50.828125 16.015625 36.375 
Q 16.015625 21.96875 22.65625 14.328125 
Q 29.296875 6.6875 41.796875 6.6875 
Q 48.140625 6.6875 53.78125 8.984375 
Q 59.421875 11.28125 64.40625 15.921875 
L 64.40625 5.609375 
Q 59.234375 2.09375 53.4375 0.328125 
Q 47.65625 -1.421875 41.21875 -1.421875 
Q 24.65625 -1.421875 15.125 8.703125 
Q 5.609375 18.84375 5.609375 36.375 
Q 5.609375 53.953125 15.125 64.078125 
Q 24.65625 74.21875 41.21875 74.21875 
Q 47.75 74.21875 53.53125 72.484375 
Q 59.328125 70.75 64.40625 67.28125 
z
" id="DejaVuSans-43"/>
       <path d="M 54.890625 33.015625 
L 54.890625 0 
L 45.90625 0 
L 45.90625 32.71875 
Q 45.90625 40.484375 42.875 44.328125 
Q 39.84375 48.1875 33.796875 48.1875 
Q 26.515625 48.1875 22.3125 43.546875 
Q 18.109375 38.921875 18.109375 30.90625 
L 18.109375 0 
L 9.078125 0 
L 9.078125 75.984375 
L 18.109375 75.984375 
L 18.109375 46.1875 
Q 21.34375 51.125 25.703125 53.5625 
Q 30.078125 56 35.796875 56 
Q 45.21875 56 50.046875 50.171875 
Q 54.890625 44.34375 54.890625 33.015625 
z
" id="DejaVuSans-68"/>
       <path d="M 9.421875 54.6875 
L 18.40625 54.6875 
L 18.40625 0 
L 9.421875 0 
z
M 9.421875 75.984375 
L 18.40625 75.984375 
L 18.40625 64.59375 
L 9.421875 64.59375 
z
" id="DejaVuSans-69"/>
       <path d="M 48.78125 52.59375 
L 48.78125 44.1875 
Q 44.96875 46.296875 41.140625 47.34375 
Q 37.3125 48.390625 33.40625 48.390625 
Q 24.65625 48.390625 19.8125 42.84375 
Q 14.984375 37.3125 14.984375 27.296875 
Q 14.984375 17.28125 19.8125 11.734375 
Q 24.65625 6.203125 33.40625 6.203125 
Q 37.3125 6.203125 41.140625 7.25 
Q 44.96875 8.296875 48.78125 10.40625 
L 48.78125 2.09375 
Q 45.015625 0.34375 40.984375 -0.53125 
Q 36.96875 -1.421875 32.421875 -1.421875 
Q 20.0625 -1.421875 12.78125 6.34375 
Q 5.515625 14.109375 5.515625 27.296875 
Q 5.515625 40.671875 12.859375 48.328125 
Q 20.21875 56 33.015625 56 
Q 37.15625 56 41.109375 55.140625 
Q 45.0625 54.296875 48.78125 52.59375 
z
" id="DejaVuSans-63"/>
       <path d="M 30.609375 48.390625 
Q 23.390625 48.390625 19.1875 42.75 
Q 14.984375 37.109375 14.984375 27.296875 
Q 14.984375 17.484375 19.15625 11.84375 
Q 23.34375 6.203125 30.609375 6.203125 
Q 37.796875 6.203125 41.984375 11.859375 
Q 46.1875 17.53125 46.1875 27.296875 
Q 46.1875 37.015625 41.984375 42.703125 
Q 37.796875 48.390625 30.609375 48.390625 
z
M 30.609375 56 
Q 42.328125 56 49.015625 48.375 
Q 55.71875 40.765625 55.71875 27.296875 
Q 55.71875 13.875 49.015625 6.21875 
Q 42.328125 -1.421875 30.609375 -1.421875 
Q 18.84375 -1.421875 12.171875 6.21875 
Q 5.515625 13.875 5.515625 27.296875 
Q 5.515625 40.765625 12.171875 48.375 
Q 18.84375 56 30.609375 56 
z
" id="DejaVuSans-6f"/>
       <path d="M 18.109375 8.203125 
L 18.109375 -20.796875 
L 9.078125 -20.796875 
L 9.078125 54.6875 
L 18.109375 54.6875 
L 18.109375 46.390625 
Q 20.953125 51.265625 25.265625 53.625 
Q 29.59375 56 35.59375 56 
Q 45.5625 56 51.78125 48.09375 
Q 58.015625 40.1875 58.015625 27.296875 
Q 58.015625 14.40625 51.78125 6.484375 
Q 45.5625 -1.421875 35.59375 -1.421875 
Q 29.59375 -1.421875 25.265625 0.953125 
Q 20.953125 3.328125 18.109375 8.203125 
z
M 48.6875 27.296875 
Q 48.6875 37.203125 44.609375 42.84375 
Q 40.53125 48.484375 33.40625 48.484375 
Q 26.265625 48.484375 22.1875 42.84375 
Q 18.109375 37.203125 18.109375 27.296875 
Q 18.109375 17.390625 22.1875 11.75 
Q 26.265625 6.109375 33.40625 6.109375 
Q 40.53125 6.109375 44.609375 11.75 
Q 48.6875 17.390625 48.6875 27.296875 
z
" id="DejaVuSans-70"/>
       <path d="M 56.203125 29.59375 
L 56.203125 25.203125 
L 14.890625 25.203125 
Q 15.484375 15.921875 20.484375 11.0625 
Q 25.484375 6.203125 34.421875 6.203125 
Q 39.59375 6.203125 44.453125 7.46875 
Q 49.3125 8.734375 54.109375 11.28125 
L 54.109375 2.78125 
Q 49.265625 0.734375 44.1875 -0.34375 
Q 39.109375 -1.421875 33.890625 -1.421875 
Q 20.796875 -1.421875 13.15625 6.1875 
Q 5.515625 13.8125 5.515625 26.8125 
Q 5.515625 40.234375 12.765625 48.109375 
Q 20.015625 56 32.328125 56 
Q 43.359375 56 49.78125 48.890625 
Q 56.203125 41.796875 56.203125 29.59375 
z
M 47.21875 32.234375 
Q 47.125 39.59375 43.09375 43.984375 
Q 39.0625 48.390625 32.421875 48.390625 
Q 24.90625 48.390625 20.390625 44.140625 
Q 15.875 39.890625 15.1875 32.171875 
z
" id="DejaVuSans-65"/>
       <path id="DejaVuSans-20"/>
       <path d="M 4.890625 31.390625 
L 31.203125 31.390625 
L 31.203125 23.390625 
L 4.890625 23.390625 
z
" id="DejaVuSans-2d"/>
       <path d="M 19.671875 34.8125 
L 19.671875 8.109375 
L 35.5 8.109375 
Q 43.453125 8.109375 47.28125 11.40625 
Q 51.125 14.703125 51.125 21.484375 
Q 51.125 28.328125 47.28125 31.5625 
Q 43.453125 34.8125 35.5 34.8125 
z
M 19.671875 64.796875 
L 19.671875 42.828125 
L 34.28125 42.828125 
Q 41.5 42.828125 45.03125 45.53125 
Q 48.578125 48.25 48.578125 53.8125 
Q 48.578125 59.328125 45.03125 62.0625 
Q 41.5 64.796875 34.28125 64.796875 
z
M 9.8125 72.90625 
L 35.015625 72.90625 
Q 46.296875 72.90625 52.390625 68.21875 
Q 58.5 63.53125 58.5 54.890625 
Q 58.5 48.1875 55.375 44.234375 
Q 52.25 40.28125 46.1875 39.3125 
Q 53.46875 37.75 57.5 32.78125 
Q 61.53125 27.828125 61.53125 20.40625 
Q 61.53125 10.640625 54.890625 5.3125 
Q 48.25 0 35.984375 0 
L 9.8125 0 
z
" id="DejaVuSans-42"/>
       <path d="M 34.28125 27.484375 
Q 23.390625 27.484375 19.1875 25 
Q 14.984375 22.515625 14.984375 16.5 
Q 14.984375 11.71875 18.140625 8.90625 
Q 21.296875 6.109375 26.703125 6.109375 
Q 34.1875 6.109375 38.703125 11.40625 
Q 43.21875 16.703125 43.21875 25.484375 
L 43.21875 27.484375 
z
M 52.203125 31.203125 
L 52.203125 0 
L 43.21875 0 
L 43.21875 8.296875 
Q 40.140625 3.328125 35.546875 0.953125 
Q 30.953125 -1.421875 24.3125 -1.421875 
Q 15.921875 -1.421875 10.953125 3.296875 
Q 6 8.015625 6 15.921875 
Q 6 25.140625 12.171875 29.828125 
Q 18.359375 34.515625 30.609375 34.515625 
L 43.21875 34.515625 
L 43.21875 35.40625 
Q 43.21875 41.609375 39.140625 45 
Q 35.0625 48.390625 27.6875 48.390625 
Q 23 48.390625 18.546875 47.265625 
Q 14.109375 46.140625 10.015625 43.890625 
L 10.015625 52.203125 
Q 14.9375 54.109375 19.578125 55.046875 
Q 24.21875 56 28.609375 56 
Q 40.484375 56 46.34375 49.84375 
Q 52.203125 43.703125 52.203125 31.203125 
z
" id="DejaVuSans-61"/>
       <path d="M 41.109375 46.296875 
Q 39.59375 47.171875 37.8125 47.578125 
Q 36.03125 48 33.890625 48 
Q 26.265625 48 22.1875 43.046875 
Q 18.109375 38.09375 18.109375 28.8125 
L 18.109375 0 
L 9.078125 0 
L 9.078125 54.6875 
L 18.109375 54.6875 
L 18.109375 46.1875 
Q 20.953125 51.171875 25.484375 53.578125 
Q 30.03125 56 36.53125 56 
Q 37.453125 56 38.578125 55.875 
Q 39.703125 55.765625 41.0625 55.515625 
z
" id="DejaVuSans-72"/>
       <path d="M 32.171875 -5.078125 
Q 28.375 -14.84375 24.75 -17.8125 
Q 21.140625 -20.796875 15.09375 -20.796875 
L 7.90625 -20.796875 
L 7.90625 -13.28125 
L 13.1875 -13.28125 
Q 16.890625 -13.28125 18.9375 -11.515625 
Q 21 -9.765625 23.484375 -3.21875 
L 25.09375 0.875 
L 2.984375 54.6875 
L 12.5 54.6875 
L 29.59375 11.921875 
L 46.6875 54.6875 
L 56.203125 54.6875 
z
" id="DejaVuSans-79"/>
      </defs>
      <g transform="translate(55.790208 545.9)rotate(-90)scale(0.1 -0.1)">
       <use xlink:href="#DejaVuSans-43"/>
       <use x="69.824219" xlink:href="#DejaVuSans-68"/>
       <use x="133.203125" xlink:href="#DejaVuSans-69"/>
       <use x="160.986328" xlink:href="#DejaVuSans-63"/>
       <use x="215.966797" xlink:href="#DejaVuSans-6f"/>
       <use x="277.148438" xlink:href="#DejaVuSans-70"/>
       <use x="340.625" xlink:href="#DejaVuSans-65"/>
       <use x="402.148438" xlink:href="#DejaVuSans-65"/>
       <use x="463.671875" xlink:href="#DejaVuSans-20"/>
       <use x="495.458984" xlink:href="#DejaVuSans-2d"/>
       <use x="531.542969" xlink:href="#DejaVuSans-20"/>
       <use x="563.330078" xlink:href="#DejaVuSans-42"/>
       <use x="631.933594" xlink:href="#DejaVuSans-61"/>
       <use x="693.212891" xlink:href="#DejaVuSans-72"/>
       <use x="734.310547" xlink:href="#DejaVuSans-72"/>
       <use x="775.423828" xlink:href="#DejaVuSans-79"/>
      </g>
     </g>
    </g>
    <g id="xtick_2">
     <g id="line2d_2">
      <g>
       <use style="stroke:#000000;stroke-width:0.8;" x="98.0425" xlink:href="#mf4ee3f1b42" y="455.4375"/>
      </g>
     </g>
     <g id="text_2">
      <!-- Chicopee - Belcher -->
      <defs>
       <path d="M 9.421875 75.984375 
L 18.40625 75.984375 
L 18.40625 0 
L 9.421875 0 
z
" id="DejaVuSans-6c"/>
      </defs>
      <g transform="translate(100.801875 556.664062)rotate(-90)scale(0.1 -0.1)">
       <use xlink:href="#DejaVuSans-43"/>
       <use x="69.824219" xlink:href="#DejaVuSans-68"/>
       <use x="133.203125" xlink:href="#DejaVuSans-69"/>
       <use x="160.986328" xlink:href="#DejaVuSans-63"/>
       <use x="215.966797" xlink:href="#DejaVuSans-6f"/>
       <use x="277.148438" xlink:href="#DejaVuSans-70"/>
       <use x="340.625" xlink:href="#DejaVuSans-65"/>
       <use x="402.148438" xlink:href="#DejaVuSans-65"/>
       <use x="463.671875" xlink:href="#DejaVuSans-20"/>
       <use x="495.458984" xlink:href="#DejaVuSans-2d"/>
       <use x="531.542969" xlink:href="#DejaVuSans-20"/>
       <use x="563.330078" xlink:href="#DejaVuSans-42"/>
       <use x="631.933594" xlink:href="#DejaVuSans-65"/>
       <use x="693.457031" xlink:href="#DejaVuSans-6c"/>
       <use x="721.240234" xlink:href="#DejaVuSans-63"/>
       <use x="776.220703" xlink:href="#DejaVuSans-68"/>
       <use x="839.599609" xlink:href="#DejaVuSans-65"/>
       <use x="901.123047" xlink:href="#DejaVuSans-72"/>
      </g>
     </g>
    </g>
    <g id="xtick_3">
     <g id="line2d_3">
      <g>
       <use style="stroke:#000000;stroke-width:0.8;" x="143.054167" xlink:href="#mf4ee3f1b42" y="455.4375"/>
      </g>
     </g>
     <g id="text_3">
      <!-- Chicopee - Bellamy Middle -->
      <defs>
       <path d="M 52 44.1875 
Q 55.375 50.25 60.0625 53.125 
Q 64.75 56 71.09375 56 
Q 79.640625 56 84.28125 50.015625 
Q 88.921875 44.046875 88.921875 33.015625 
L 88.921875 0 
L 79.890625 0 
L 79.890625 32.71875 
Q 79.890625 40.578125 77.09375 44.375 
Q 74.3125 48.1875 68.609375 48.1875 
Q 61.625 48.1875 57.5625 43.546875 
Q 53.515625 38.921875 53.515625 30.90625 
L 53.515625 0 
L 44.484375 0 
L 44.484375 32.71875 
Q 44.484375 40.625 41.703125 44.40625 
Q 38.921875 48.1875 33.109375 48.1875 
Q 26.21875 48.1875 22.15625 43.53125 
Q 18.109375 38.875 18.109375 30.90625 
L 18.109375 0 
L 9.078125 0 
L 9.078125 54.6875 
L 18.109375 54.6875 
L 18.109375 46.1875 
Q 21.1875 51.21875 25.484375 53.609375 
Q 29.78125 56 35.6875 56 
Q 41.65625 56 45.828125 52.96875 
Q 50 49.953125 52 44.1875 
z
" id="DejaVuSans-6d"/>
       <path d="M 9.8125 72.90625 
L 24.515625 72.90625 
L 43.109375 23.296875 
L 61.8125 72.90625 
L 76.515625 72.90625 
L 76.515625 0 
L 66.890625 0 
L 66.890625 64.015625 
L 48.09375 14.015625 
L 38.1875 14.015625 
L 19.390625 64.015625 
L 19.390625 0 
L 9.8125 0 
z
" id="DejaVuSans-4d"/>
       <path d="M 45.40625 46.390625 
L 45.40625 75.984375 
L 54.390625 75.984375 
L 54.390625 0 
L 45.40625 0 
L 45.40625 8.203125 
Q 42.578125 3.328125 38.25 0.953125 
Q 33.9375 -1.421875 27.875 -1.421875 
Q 17.96875 -1.421875 11.734375 6.484375 
Q 5.515625 14.40625 5.515625 27.296875 
Q 5.515625 40.1875 11.734375 48.09375 
Q 17.96875 56 27.875 56 
Q 33.9375 56 38.25 53.625 
Q 42.578125 51.265625 45.40625 46.390625 
z
M 14.796875 27.296875 
Q 14.796875 17.390625 18.875 11.75 
Q 22.953125 6.109375 30.078125 6.109375 
Q 37.203125 6.109375 41.296875 11.75 
Q 45.40625 17.390625 45.40625 27.296875 
Q 45.40625 37.203125 41.296875 42.84375 
Q 37.203125 48.484375 30.078125 48.484375 
Q 22.953125 48.484375 18.875 42.84375 
Q 14.796875 37.203125 14.796875 27.296875 
z
" id="DejaVuSans-64"/>
      </defs>
      <g transform="translate(145.813542 595.342187)rotate(-90)scale(0.1 -0.1)">
       <use xlink:href="#DejaVuSans-43"/>
       <use x="69.824219" xlink:href="#DejaVuSans-68"/>
       <use x="133.203125" xlink:href="#DejaVuSans-69"/>
       <use x="160.986328" xlink:href="#DejaVuSans-63"/>
       <use x="215.966797" xlink:href="#DejaVuSans-6f"/>
       <use x="277.148438" xlink:href="#DejaVuSans-70"/>
       <use x="340.625" xlink:href="#DejaVuSans-65"/>
       <use x="402.148438" xlink:href="#DejaVuSans-65"/>
       <use x="463.671875" xlink:href="#DejaVuSans-20"/>
       <use x="495.458984" xlink:href="#DejaVuSans-2d"/>
       <use x="531.542969" xlink:href="#DejaVuSans-20"/>
       <use x="563.330078" xlink:href="#DejaVuSans-42"/>
       <use x="631.933594" xlink:href="#DejaVuSans-65"/>
       <use x="693.457031" xlink:href="#DejaVuSans-6c"/>
       <use x="721.240234" xlink:href="#DejaVuSans-6c"/>
       <use x="749.023438" xlink:href="#DejaVuSans-61"/>
       <use x="810.302734" xlink:href="#DejaVuSans-6d"/>
       <use x="907.714844" xlink:href="#DejaVuSans-79"/>
       <use x="966.894531" xlink:href="#DejaVuSans-20"/>
       <use x="998.681641" xlink:href="#DejaVuSans-4d"/>
       <use x="1084.960938" xlink:href="#DejaVuSans-69"/>
       <use x="1112.744141" xlink:href="#DejaVuSans-64"/>
       <use x="1176.220703" xlink:href="#DejaVuSans-64"/>
       <use x="1239.697266" xlink:href="#DejaVuSans-6c"/>
       <use x="1267.480469" xlink:href="#DejaVuSans-65"/>
      </g>
     </g>
    </g>
    <g id="xtick_4">
     <g id="line2d_4">
      <g>
       <use style="stroke:#000000;stroke-width:0.8;" x="188.065833" xlink:href="#mf4ee3f1b42" y="455.4375"/>
      </g>
     </g>
     <g id="text_4">
      <!-- Chicopee - Bowe -->
      <defs>
       <path d="M 4.203125 54.6875 
L 13.1875 54.6875 
L 24.421875 12.015625 
L 35.59375 54.6875 
L 46.1875 54.6875 
L 57.421875 12.015625 
L 68.609375 54.6875 
L 77.59375 54.6875 
L 63.28125 0 
L 52.6875 0 
L 40.921875 44.828125 
L 29.109375 0 
L 18.5 0 
z
" id="DejaVuSans-77"/>
      </defs>
      <g transform="translate(190.825208 546.082812)rotate(-90)scale(0.1 -0.1)">
       <use xlink:href="#DejaVuSans-43"/>
       <use x="69.824219" xlink:href="#DejaVuSans-68"/>
       <use x="133.203125" xlink:href="#DejaVuSans-69"/>
       <use x="160.986328" xlink:href="#DejaVuSans-63"/>
       <use x="215.966797" xlink:href="#DejaVuSans-6f"/>
       <use x="277.148438" xlink:href="#DejaVuSans-70"/>
       <use x="340.625" xlink:href="#DejaVuSans-65"/>
       <use x="402.148438" xlink:href="#DejaVuSans-65"/>
       <use x="463.671875" xlink:href="#DejaVuSans-20"/>
       <use x="495.458984" xlink:href="#DejaVuSans-2d"/>
       <use x="531.542969" xlink:href="#DejaVuSans-20"/>
       <use x="563.330078" xlink:href="#DejaVuSans-42"/>
       <use x="631.933594" xlink:href="#DejaVuSans-6f"/>
       <use x="693.115234" xlink:href="#DejaVuSans-77"/>
       <use x="774.902344" xlink:href="#DejaVuSans-65"/>
      </g>
     </g>
    </g>
    <g id="xtick_5">
     <g id="line2d_5">
      <g>
       <use style="stroke:#000000;stroke-width:0.8;" x="233.0775" xlink:href="#mf4ee3f1b42" y="455.4375"/>
      </g>
     </g>
     <g id="text_5">
      <!-- Chicopee - Bowie -->
      <g transform="translate(235.836875 548.860937)rotate(-90)scale(0.1 -0.1)">
       <use xlink:href="#DejaVuSans-43"/>
       <use x="69.824219" xlink:href="#DejaVuSans-68"/>
       <use x="133.203125" xlink:href="#DejaVuSans-69"/>
       <use x="160.986328" xlink:href="#DejaVuSans-63"/>
       <use x="215.966797" xlink:href="#DejaVuSans-6f"/>
       <use x="277.148438" xlink:href="#DejaVuSans-70"/>
       <use x="340.625" xlink:href="#DejaVuSans-65"/>
       <use x="402.148438" xlink:href="#DejaVuSans-65"/>
       <use x="463.671875" xlink:href="#DejaVuSans-20"/>
       <use x="495.458984" xlink:href="#DejaVuSans-2d"/>
       <use x="531.542969" xlink:href="#DejaVuSans-20"/>
       <use x="563.330078" xlink:href="#DejaVuSans-42"/>
       <use x="631.933594" xlink:href="#DejaVuSans-6f"/>
       <use x="693.115234" xlink:href="#DejaVuSans-77"/>
       <use x="774.902344" xlink:href="#DejaVuSans-69"/>
       <use x="802.685547" xlink:href="#DejaVuSans-65"/>
      </g>
     </g>
    </g>
    <g id="xtick_6">
     <g id="line2d_6">
      <g>
       <use style="stroke:#000000;stroke-width:0.8;" x="278.089167" xlink:href="#mf4ee3f1b42" y="455.4375"/>
      </g>
     </g>
     <g id="text_6">
      <!-- Chicopee - Chicopee Academy -->
      <defs>
       <path d="M 34.1875 63.1875 
L 20.796875 26.90625 
L 47.609375 26.90625 
z
M 28.609375 72.90625 
L 39.796875 72.90625 
L 67.578125 0 
L 57.328125 0 
L 50.6875 18.703125 
L 17.828125 18.703125 
L 11.1875 0 
L 0.78125 0 
z
" id="DejaVuSans-41"/>
      </defs>
      <g transform="translate(280.848542 614.946875)rotate(-90)scale(0.1 -0.1)">
       <use xlink:href="#DejaVuSans-43"/>
       <use x="69.824219" xlink:href="#DejaVuSans-68"/>
       <use x="133.203125" xlink:href="#DejaVuSans-69"/>
       <use x="160.986328" xlink:href="#DejaVuSans-63"/>
       <use x="215.966797" xlink:href="#DejaVuSans-6f"/>
       <use x="277.148438" xlink:href="#DejaVuSans-70"/>
       <use x="340.625" xlink:href="#DejaVuSans-65"/>
       <use x="402.148438" xlink:href="#DejaVuSans-65"/>
       <use x="463.671875" xlink:href="#DejaVuSans-20"/>
       <use x="495.458984" xlink:href="#DejaVuSans-2d"/>
       <use x="531.542969" xlink:href="#DejaVuSans-20"/>
       <use x="563.330078" xlink:href="#DejaVuSans-43"/>
       <use x="633.154297" xlink:href="#DejaVuSans-68"/>
       <use x="696.533203" xlink:href="#DejaVuSans-69"/>
       <use x="724.316406" xlink:href="#DejaVuSans-63"/>
       <use x="779.296875" xlink:href="#DejaVuSans-6f"/>
       <use x="840.478516" xlink:href="#DejaVuSans-70"/>
       <use x="903.955078" xlink:href="#DejaVuSans-65"/>
       <use x="965.478516" xlink:href="#DejaVuSans-65"/>
       <use x="1027.001953" xlink:href="#DejaVuSans-20"/>
       <use x="1058.789062" xlink:href="#DejaVuSans-41"/>
       <use x="1127.181641" xlink:href="#DejaVuSans-63"/>
       <use x="1182.162109" xlink:href="#DejaVuSans-61"/>
       <use x="1243.441406" xlink:href="#DejaVuSans-64"/>
       <use x="1306.917969" xlink:href="#DejaVuSans-65"/>
       <use x="1368.441406" xlink:href="#DejaVuSans-6d"/>
       <use x="1465.853516" xlink:href="#DejaVuSans-79"/>
      </g>
     </g>
    </g>
    <g id="xtick_7">
     <g id="line2d_7">
      <g>
       <use style="stroke:#000000;stroke-width:0.8;" x="323.100833" xlink:href="#mf4ee3f1b42" y="455.4375"/>
      </g>
     </g>
     <g id="text_7">
      <!-- Chicopee - Chicopee Comprehensive High School -->
      <defs>
       <path d="M 54.890625 33.015625 
L 54.890625 0 
L 45.90625 0 
L 45.90625 32.71875 
Q 45.90625 40.484375 42.875 44.328125 
Q 39.84375 48.1875 33.796875 48.1875 
Q 26.515625 48.1875 22.3125 43.546875 
Q 18.109375 38.921875 18.109375 30.90625 
L 18.109375 0 
L 9.078125 0 
L 9.078125 54.6875 
L 18.109375 54.6875 
L 18.109375 46.1875 
Q 21.34375 51.125 25.703125 53.5625 
Q 30.078125 56 35.796875 56 
Q 45.21875 56 50.046875 50.171875 
Q 54.890625 44.34375 54.890625 33.015625 
z
" id="DejaVuSans-6e"/>
       <path d="M 44.28125 53.078125 
L 44.28125 44.578125 
Q 40.484375 46.53125 36.375 47.5 
Q 32.28125 48.484375 27.875 48.484375 
Q 21.1875 48.484375 17.84375 46.4375 
Q 14.5 44.390625 14.5 40.28125 
Q 14.5 37.15625 16.890625 35.375 
Q 19.28125 33.59375 26.515625 31.984375 
L 29.59375 31.296875 
Q 39.15625 29.25 43.1875 25.515625 
Q 47.21875 21.78125 47.21875 15.09375 
Q 47.21875 7.46875 41.1875 3.015625 
Q 35.15625 -1.421875 24.609375 -1.421875 
Q 20.21875 -1.421875 15.453125 -0.5625 
Q 10.6875 0.296875 5.421875 2 
L 5.421875 11.28125 
Q 10.40625 8.6875 15.234375 7.390625 
Q 20.0625 6.109375 24.8125 6.109375 
Q 31.15625 6.109375 34.5625 8.28125 
Q 37.984375 10.453125 37.984375 14.40625 
Q 37.984375 18.0625 35.515625 20.015625 
Q 33.0625 21.96875 24.703125 23.78125 
L 21.578125 24.515625 
Q 13.234375 26.265625 9.515625 29.90625 
Q 5.8125 33.546875 5.8125 39.890625 
Q 5.8125 47.609375 11.28125 51.796875 
Q 16.75 56 26.8125 56 
Q 31.78125 56 36.171875 55.265625 
Q 40.578125 54.546875 44.28125 53.078125 
z
" id="DejaVuSans-73"/>
       <path d="M 2.984375 54.6875 
L 12.5 54.6875 
L 29.59375 8.796875 
L 46.6875 54.6875 
L 56.203125 54.6875 
L 35.6875 0 
L 23.484375 0 
z
" id="DejaVuSans-76"/>
       <path d="M 9.8125 72.90625 
L 19.671875 72.90625 
L 19.671875 43.015625 
L 55.515625 43.015625 
L 55.515625 72.90625 
L 65.375 72.90625 
L 65.375 0 
L 55.515625 0 
L 55.515625 34.71875 
L 19.671875 34.71875 
L 19.671875 0 
L 9.8125 0 
z
" id="DejaVuSans-48"/>
       <path d="M 45.40625 27.984375 
Q 45.40625 37.75 41.375 43.109375 
Q 37.359375 48.484375 30.078125 48.484375 
Q 22.859375 48.484375 18.828125 43.109375 
Q 14.796875 37.75 14.796875 27.984375 
Q 14.796875 18.265625 18.828125 12.890625 
Q 22.859375 7.515625 30.078125 7.515625 
Q 37.359375 7.515625 41.375 12.890625 
Q 45.40625 18.265625 45.40625 27.984375 
z
M 54.390625 6.78125 
Q 54.390625 -7.171875 48.1875 -13.984375 
Q 42 -20.796875 29.203125 -20.796875 
Q 24.46875 -20.796875 20.265625 -20.09375 
Q 16.0625 -19.390625 12.109375 -17.921875 
L 12.109375 -9.1875 
Q 16.0625 -11.328125 19.921875 -12.34375 
Q 23.78125 -13.375 27.78125 -13.375 
Q 36.625 -13.375 41.015625 -8.765625 
Q 45.40625 -4.15625 45.40625 5.171875 
L 45.40625 9.625 
Q 42.625 4.78125 38.28125 2.390625 
Q 33.9375 0 27.875 0 
Q 17.828125 0 11.671875 7.65625 
Q 5.515625 15.328125 5.515625 27.984375 
Q 5.515625 40.671875 11.671875 48.328125 
Q 17.828125 56 27.875 56 
Q 33.9375 56 38.28125 53.609375 
Q 42.625 51.21875 45.40625 46.390625 
L 45.40625 54.6875 
L 54.390625 54.6875 
z
" id="DejaVuSans-67"/>
       <path d="M 53.515625 70.515625 
L 53.515625 60.890625 
Q 47.90625 63.578125 42.921875 64.890625 
Q 37.9375 66.21875 33.296875 66.21875 
Q 25.25 66.21875 20.875 63.09375 
Q 16.5 59.96875 16.5 54.203125 
Q 16.5 49.359375 19.40625 46.890625 
Q 22.3125 44.4375 30.421875 42.921875 
L 36.375 41.703125 
Q 47.40625 39.59375 52.65625 34.296875 
Q 57.90625 29 57.90625 20.125 
Q 57.90625 9.515625 50.796875 4.046875 
Q 43.703125 -1.421875 29.984375 -1.421875 
Q 24.8125 -1.421875 18.96875 -0.25 
Q 13.140625 0.921875 6.890625 3.21875 
L 6.890625 13.375 
Q 12.890625 10.015625 18.65625 8.296875 
Q 24.421875 6.59375 29.984375 6.59375 
Q 38.421875 6.59375 43.015625 9.90625 
Q 47.609375 13.234375 47.609375 19.390625 
Q 47.609375 24.75 44.3125 27.78125 
Q 41.015625 30.8125 33.5 32.328125 
L 27.484375 33.5 
Q 16.453125 35.6875 11.515625 40.375 
Q 6.59375 45.0625 6.59375 53.421875 
Q 6.59375 63.09375 13.40625 68.65625 
Q 20.21875 74.21875 32.171875 74.21875 
Q 37.3125 74.21875 42.625 73.28125 
Q 47.953125 72.359375 53.515625 70.515625 
z
" id="DejaVuSans-53"/>
      </defs>
      <g transform="translate(325.860208 709.2)rotate(-90)scale(0.1 -0.1)">
       <use xlink:href="#DejaVuSans-43"/>
       <use x="69.824219" xlink:href="#DejaVuSans-68"/>
       <use x="133.203125" xlink:href="#DejaVuSans-69"/>
       <use x="160.986328" xlink:href="#DejaVuSans-63"/>
       <use x="215.966797" xlink:href="#DejaVuSans-6f"/>
       <use x="277.148438" xlink:href="#DejaVuSans-70"/>
       <use x="340.625" xlink:href="#DejaVuSans-65"/>
       <use x="402.148438" xlink:href="#DejaVuSans-65"/>
       <use x="463.671875" xlink:href="#DejaVuSans-20"/>
       <use x="495.458984" xlink:href="#DejaVuSans-2d"/>
       <use x="531.542969" xlink:href="#DejaVuSans-20"/>
       <use x="563.330078" xlink:href="#DejaVuSans-43"/>
       <use x="633.154297" xlink:href="#DejaVuSans-68"/>
       <use x="696.533203" xlink:href="#DejaVuSans-69"/>
       <use x="724.316406" xlink:href="#DejaVuSans-63"/>
       <use x="779.296875" xlink:href="#DejaVuSans-6f"/>
       <use x="840.478516" xlink:href="#DejaVuSans-70"/>
       <use x="903.955078" xlink:href="#DejaVuSans-65"/>
       <use x="965.478516" xlink:href="#DejaVuSans-65"/>
       <use x="1027.001953" xlink:href="#DejaVuSans-20"/>
       <use x="1058.789062" xlink:href="#DejaVuSans-43"/>
       <use x="1128.613281" xlink:href="#DejaVuSans-6f"/>
       <use x="1189.794922" xlink:href="#DejaVuSans-6d"/>
       <use x="1287.207031" xlink:href="#DejaVuSans-70"/>
       <use x="1350.683594" xlink:href="#DejaVuSans-72"/>
       <use x="1391.765625" xlink:href="#DejaVuSans-65"/>
       <use x="1453.289062" xlink:href="#DejaVuSans-68"/>
       <use x="1516.667969" xlink:href="#DejaVuSans-65"/>
       <use x="1578.191406" xlink:href="#DejaVuSans-6e"/>
       <use x="1641.570312" xlink:href="#DejaVuSans-73"/>
       <use x="1693.669922" xlink:href="#DejaVuSans-69"/>
       <use x="1721.453125" xlink:href="#DejaVuSans-76"/>
       <use x="1780.632812" xlink:href="#DejaVuSans-65"/>
       <use x="1842.15625" xlink:href="#DejaVuSans-20"/>
       <use x="1873.943359" xlink:href="#DejaVuSans-48"/>
       <use x="1949.138672" xlink:href="#DejaVuSans-69"/>
       <use x="1976.921875" xlink:href="#DejaVuSans-67"/>
       <use x="2040.398438" xlink:href="#DejaVuSans-68"/>
       <use x="2103.777344" xlink:href="#DejaVuSans-20"/>
       <use x="2135.564453" xlink:href="#DejaVuSans-53"/>
       <use x="2199.041016" xlink:href="#DejaVuSans-63"/>
       <use x="2254.021484" xlink:href="#DejaVuSans-68"/>
       <use x="2317.400391" xlink:href="#DejaVuSans-6f"/>
       <use x="2378.582031" xlink:href="#DejaVuSans-6f"/>
       <use x="2439.763672" xlink:href="#DejaVuSans-6c"/>
      </g>
     </g>
    </g>
    <g id="xtick_8">
     <g id="line2d_8">
      <g>
       <use style="stroke:#000000;stroke-width:0.8;" x="368.1125" xlink:href="#mf4ee3f1b42" y="455.4375"/>
      </g>
     </g>
     <g id="text_8">
      <!-- Chicopee - Chicopee High -->
      <g transform="translate(370.871875 591.304688)rotate(-90)scale(0.1 -0.1)">
       <use xlink:href="#DejaVuSans-43"/>
       <use x="69.824219" xlink:href="#DejaVuSans-68"/>
       <use x="133.203125" xlink:href="#DejaVuSans-69"/>
       <use x="160.986328" xlink:href="#DejaVuSans-63"/>
       <use x="215.966797" xlink:href="#DejaVuSans-6f"/>
       <use x="277.148438" xlink:href="#DejaVuSans-70"/>
       <use x="340.625" xlink:href="#DejaVuSans-65"/>
       <use x="402.148438" xlink:href="#DejaVuSans-65"/>
       <use x="463.671875" xlink:href="#DejaVuSans-20"/>
       <use x="495.458984" xlink:href="#DejaVuSans-2d"/>
       <use x="531.542969" xlink:href="#DejaVuSans-20"/>
       <use x="563.330078" xlink:href="#DejaVuSans-43"/>
       <use x="633.154297" xlink:href="#DejaVuSans-68"/>
       <use x="696.533203" xlink:href="#DejaVuSans-69"/>
       <use x="724.316406" xlink:href="#DejaVuSans-63"/>
       <use x="779.296875" xlink:href="#DejaVuSans-6f"/>
       <use x="840.478516" xlink:href="#DejaVuSans-70"/>
       <use x="903.955078" xlink:href="#DejaVuSans-65"/>
       <use x="965.478516" xlink:href="#DejaVuSans-65"/>
       <use x="1027.001953" xlink:href="#DejaVuSans-20"/>
       <use x="1058.789062" xlink:href="#DejaVuSans-48"/>
       <use x="1133.984375" xlink:href="#DejaVuSans-69"/>
       <use x="1161.767578" xlink:href="#DejaVuSans-67"/>
       <use x="1225.244141" xlink:href="#DejaVuSans-68"/>
      </g>
     </g>
    </g>
    <g id="xtick_9">
     <g id="line2d_9">
      <g>
       <use style="stroke:#000000;stroke-width:0.8;" x="413.124167" xlink:href="#mf4ee3f1b42" y="455.4375"/>
      </g>
     </g>
     <g id="text_9">
      <!-- Chicopee - Dupont Middle -->
      <defs>
       <path d="M 19.671875 64.796875 
L 19.671875 8.109375 
L 31.59375 8.109375 
Q 46.6875 8.109375 53.6875 14.9375 
Q 60.6875 21.78125 60.6875 36.53125 
Q 60.6875 51.171875 53.6875 57.984375 
Q 46.6875 64.796875 31.59375 64.796875 
z
M 9.8125 72.90625 
L 30.078125 72.90625 
Q 51.265625 72.90625 61.171875 64.09375 
Q 71.09375 55.28125 71.09375 36.53125 
Q 71.09375 17.671875 61.125 8.828125 
Q 51.171875 0 30.078125 0 
L 9.8125 0 
z
" id="DejaVuSans-44"/>
       <path d="M 8.5 21.578125 
L 8.5 54.6875 
L 17.484375 54.6875 
L 17.484375 21.921875 
Q 17.484375 14.15625 20.5 10.265625 
Q 23.53125 6.390625 29.59375 6.390625 
Q 36.859375 6.390625 41.078125 11.03125 
Q 45.3125 15.671875 45.3125 23.6875 
L 45.3125 54.6875 
L 54.296875 54.6875 
L 54.296875 0 
L 45.3125 0 
L 45.3125 8.40625 
Q 42.046875 3.421875 37.71875 1 
Q 33.40625 -1.421875 27.6875 -1.421875 
Q 18.265625 -1.421875 13.375 4.4375 
Q 8.5 10.296875 8.5 21.578125 
z
M 31.109375 56 
z
" id="DejaVuSans-75"/>
       <path d="M 18.3125 70.21875 
L 18.3125 54.6875 
L 36.8125 54.6875 
L 36.8125 47.703125 
L 18.3125 47.703125 
L 18.3125 18.015625 
Q 18.3125 11.328125 20.140625 9.421875 
Q 21.96875 7.515625 27.59375 7.515625 
L 36.8125 7.515625 
L 36.8125 0 
L 27.59375 0 
Q 17.1875 0 13.234375 3.875 
Q 9.28125 7.765625 9.28125 18.015625 
L 9.28125 47.703125 
L 2.6875 47.703125 
L 2.6875 54.6875 
L 9.28125 54.6875 
L 9.28125 70.21875 
z
" id="DejaVuSans-74"/>
      </defs>
      <g transform="translate(415.883542 591.746875)rotate(-90)scale(0.1 -0.1)">
       <use xlink:href="#DejaVuSans-43"/>
       <use x="69.824219" xlink:href="#DejaVuSans-68"/>
       <use x="133.203125" xlink:href="#DejaVuSans-69"/>
       <use x="160.986328" xlink:href="#DejaVuSans-63"/>
       <use x="215.966797" xlink:href="#DejaVuSans-6f"/>
       <use x="277.148438" xlink:href="#DejaVuSans-70"/>
       <use x="340.625" xlink:href="#DejaVuSans-65"/>
       <use x="402.148438" xlink:href="#DejaVuSans-65"/>
       <use x="463.671875" xlink:href="#DejaVuSans-20"/>
       <use x="495.458984" xlink:href="#DejaVuSans-2d"/>
       <use x="531.542969" xlink:href="#DejaVuSans-20"/>
       <use x="563.330078" xlink:href="#DejaVuSans-44"/>
       <use x="640.332031" xlink:href="#DejaVuSans-75"/>
       <use x="703.710938" xlink:href="#DejaVuSans-70"/>
       <use x="767.1875" xlink:href="#DejaVuSans-6f"/>
       <use x="828.369141" xlink:href="#DejaVuSans-6e"/>
       <use x="891.748047" xlink:href="#DejaVuSans-74"/>
       <use x="930.957031" xlink:href="#DejaVuSans-20"/>
       <use x="962.744141" xlink:href="#DejaVuSans-4d"/>
       <use x="1049.023438" xlink:href="#DejaVuSans-69"/>
       <use x="1076.806641" xlink:href="#DejaVuSans-64"/>
       <use x="1140.283203" xlink:href="#DejaVuSans-64"/>
       <use x="1203.759766" xlink:href="#DejaVuSans-6c"/>
       <use x="1231.542969" xlink:href="#DejaVuSans-65"/>
      </g>
     </g>
    </g>
    <g id="xtick_10">
     <g id="line2d_10">
      <g>
       <use style="stroke:#000000;stroke-width:0.8;" x="458.135833" xlink:href="#mf4ee3f1b42" y="455.4375"/>
      </g>
     </g>
     <g id="text_10">
      <!-- Chicopee - Fairview Elementary -->
      <defs>
       <path d="M 9.8125 72.90625 
L 51.703125 72.90625 
L 51.703125 64.59375 
L 19.671875 64.59375 
L 19.671875 43.109375 
L 48.578125 43.109375 
L 48.578125 34.8125 
L 19.671875 34.8125 
L 19.671875 0 
L 9.8125 0 
z
" id="DejaVuSans-46"/>
       <path d="M 9.8125 72.90625 
L 55.90625 72.90625 
L 55.90625 64.59375 
L 19.671875 64.59375 
L 19.671875 43.015625 
L 54.390625 43.015625 
L 54.390625 34.71875 
L 19.671875 34.71875 
L 19.671875 8.296875 
L 56.78125 8.296875 
L 56.78125 0 
L 9.8125 0 
z
" id="DejaVuSans-45"/>
      </defs>
      <g transform="translate(460.895208 621.292187)rotate(-90)scale(0.1 -0.1)">
       <use xlink:href="#DejaVuSans-43"/>
       <use x="69.824219" xlink:href="#DejaVuSans-68"/>
       <use x="133.203125" xlink:href="#DejaVuSans-69"/>
       <use x="160.986328" xlink:href="#DejaVuSans-63"/>
       <use x="215.966797" xlink:href="#DejaVuSans-6f"/>
       <use x="277.148438" xlink:href="#DejaVuSans-70"/>
       <use x="340.625" xlink:href="#DejaVuSans-65"/>
       <use x="402.148438" xlink:href="#DejaVuSans-65"/>
       <use x="463.671875" xlink:href="#DejaVuSans-20"/>
       <use x="495.458984" xlink:href="#DejaVuSans-2d"/>
       <use x="531.542969" xlink:href="#DejaVuSans-20"/>
       <use x="563.330078" xlink:href="#DejaVuSans-46"/>
       <use x="620.708984" xlink:href="#DejaVuSans-61"/>
       <use x="681.988281" xlink:href="#DejaVuSans-69"/>
       <use x="709.771484" xlink:href="#DejaVuSans-72"/>
       <use x="750.884766" xlink:href="#DejaVuSans-76"/>
       <use x="810.064453" xlink:href="#DejaVuSans-69"/>
       <use x="837.847656" xlink:href="#DejaVuSans-65"/>
       <use x="899.371094" xlink:href="#DejaVuSans-77"/>
       <use x="981.158203" xlink:href="#DejaVuSans-20"/>
       <use x="1012.945312" xlink:href="#DejaVuSans-45"/>
       <use x="1076.128906" xlink:href="#DejaVuSans-6c"/>
       <use x="1103.912109" xlink:href="#DejaVuSans-65"/>
       <use x="1165.435547" xlink:href="#DejaVuSans-6d"/>
       <use x="1262.847656" xlink:href="#DejaVuSans-65"/>
       <use x="1324.371094" xlink:href="#DejaVuSans-6e"/>
       <use x="1387.75" xlink:href="#DejaVuSans-74"/>
       <use x="1426.958984" xlink:href="#DejaVuSans-61"/>
       <use x="1488.238281" xlink:href="#DejaVuSans-72"/>
       <use x="1529.351562" xlink:href="#DejaVuSans-79"/>
      </g>
     </g>
    </g>
    <g id="xtick_11">
     <g id="line2d_11">
      <g>
       <use style="stroke:#000000;stroke-width:0.8;" x="503.1475" xlink:href="#mf4ee3f1b42" y="455.4375"/>
      </g>
     </g>
     <g id="text_11">
      <!-- Chicopee - Gen John J Stefanik -->
      <defs>
       <path d="M 59.515625 10.40625 
L 59.515625 29.984375 
L 43.40625 29.984375 
L 43.40625 38.09375 
L 69.28125 38.09375 
L 69.28125 6.78125 
Q 63.578125 2.734375 56.6875 0.65625 
Q 49.8125 -1.421875 42 -1.421875 
Q 24.90625 -1.421875 15.25 8.5625 
Q 5.609375 18.5625 5.609375 36.375 
Q 5.609375 54.25 15.25 64.234375 
Q 24.90625 74.21875 42 74.21875 
Q 49.125 74.21875 55.546875 72.453125 
Q 61.96875 70.703125 67.390625 67.28125 
L 67.390625 56.78125 
Q 61.921875 61.421875 55.765625 63.765625 
Q 49.609375 66.109375 42.828125 66.109375 
Q 29.4375 66.109375 22.71875 58.640625 
Q 16.015625 51.171875 16.015625 36.375 
Q 16.015625 21.625 22.71875 14.15625 
Q 29.4375 6.6875 42.828125 6.6875 
Q 48.046875 6.6875 52.140625 7.59375 
Q 56.25 8.5 59.515625 10.40625 
z
" id="DejaVuSans-47"/>
       <path d="M 9.8125 72.90625 
L 19.671875 72.90625 
L 19.671875 5.078125 
Q 19.671875 -8.109375 14.671875 -14.0625 
Q 9.671875 -20.015625 -1.421875 -20.015625 
L -5.171875 -20.015625 
L -5.171875 -11.71875 
L -2.09375 -11.71875 
Q 4.4375 -11.71875 7.125 -8.046875 
Q 9.8125 -4.390625 9.8125 5.078125 
z
" id="DejaVuSans-4a"/>
       <path d="M 37.109375 75.984375 
L 37.109375 68.5 
L 28.515625 68.5 
Q 23.6875 68.5 21.796875 66.546875 
Q 19.921875 64.59375 19.921875 59.515625 
L 19.921875 54.6875 
L 34.71875 54.6875 
L 34.71875 47.703125 
L 19.921875 47.703125 
L 19.921875 0 
L 10.890625 0 
L 10.890625 47.703125 
L 2.296875 47.703125 
L 2.296875 54.6875 
L 10.890625 54.6875 
L 10.890625 58.5 
Q 10.890625 67.625 15.140625 71.796875 
Q 19.390625 75.984375 28.609375 75.984375 
z
" id="DejaVuSans-66"/>
       <path d="M 9.078125 75.984375 
L 18.109375 75.984375 
L 18.109375 31.109375 
L 44.921875 54.6875 
L 56.390625 54.6875 
L 27.390625 29.109375 
L 57.625 0 
L 45.90625 0 
L 18.109375 26.703125 
L 18.109375 0 
L 9.078125 0 
z
" id="DejaVuSans-6b"/>
      </defs>
      <g transform="translate(505.906875 614.215625)rotate(-90)scale(0.1 -0.1)">
       <use xlink:href="#DejaVuSans-43"/>
       <use x="69.824219" xlink:href="#DejaVuSans-68"/>
       <use x="133.203125" xlink:href="#DejaVuSans-69"/>
       <use x="160.986328" xlink:href="#DejaVuSans-63"/>
       <use x="215.966797" xlink:href="#DejaVuSans-6f"/>
       <use x="277.148438" xlink:href="#DejaVuSans-70"/>
       <use x="340.625" xlink:href="#DejaVuSans-65"/>
       <use x="402.148438" xlink:href="#DejaVuSans-65"/>
       <use x="463.671875" xlink:href="#DejaVuSans-20"/>
       <use x="495.458984" xlink:href="#DejaVuSans-2d"/>
       <use x="531.542969" xlink:href="#DejaVuSans-20"/>
       <use x="563.330078" xlink:href="#DejaVuSans-47"/>
       <use x="640.820312" xlink:href="#DejaVuSans-65"/>
       <use x="702.34375" xlink:href="#DejaVuSans-6e"/>
       <use x="765.722656" xlink:href="#DejaVuSans-20"/>
       <use x="797.509766" xlink:href="#DejaVuSans-4a"/>
       <use x="827.001953" xlink:href="#DejaVuSans-6f"/>
       <use x="888.183594" xlink:href="#DejaVuSans-68"/>
       <use x="951.5625" xlink:href="#DejaVuSans-6e"/>
       <use x="1014.941406" xlink:href="#DejaVuSans-20"/>
       <use x="1046.728516" xlink:href="#DejaVuSans-4a"/>
       <use x="1076.220703" xlink:href="#DejaVuSans-20"/>
       <use x="1108.007812" xlink:href="#DejaVuSans-53"/>
       <use x="1171.484375" xlink:href="#DejaVuSans-74"/>
       <use x="1210.693359" xlink:href="#DejaVuSans-65"/>
       <use x="1272.216797" xlink:href="#DejaVuSans-66"/>
       <use x="1307.421875" xlink:href="#DejaVuSans-61"/>
       <use x="1368.701172" xlink:href="#DejaVuSans-6e"/>
       <use x="1432.080078" xlink:href="#DejaVuSans-69"/>
       <use x="1459.863281" xlink:href="#DejaVuSans-6b"/>
      </g>
     </g>
    </g>
    <g id="xtick_12">
     <g id="line2d_12">
      <g>
       <use style="stroke:#000000;stroke-width:0.8;" x="548.159167" xlink:href="#mf4ee3f1b42" y="455.4375"/>
      </g>
     </g>
     <g id="text_12">
      <!-- Chicopee - Lambert-Lavoie -->
      <defs>
       <path d="M 9.8125 72.90625 
L 19.671875 72.90625 
L 19.671875 8.296875 
L 55.171875 8.296875 
L 55.171875 0 
L 9.8125 0 
z
" id="DejaVuSans-4c"/>
       <path d="M 48.6875 27.296875 
Q 48.6875 37.203125 44.609375 42.84375 
Q 40.53125 48.484375 33.40625 48.484375 
Q 26.265625 48.484375 22.1875 42.84375 
Q 18.109375 37.203125 18.109375 27.296875 
Q 18.109375 17.390625 22.1875 11.75 
Q 26.265625 6.109375 33.40625 6.109375 
Q 40.53125 6.109375 44.609375 11.75 
Q 48.6875 17.390625 48.6875 27.296875 
z
M 18.109375 46.390625 
Q 20.953125 51.265625 25.265625 53.625 
Q 29.59375 56 35.59375 56 
Q 45.5625 56 51.78125 48.09375 
Q 58.015625 40.1875 58.015625 27.296875 
Q 58.015625 14.40625 51.78125 6.484375 
Q 45.5625 -1.421875 35.59375 -1.421875 
Q 29.59375 -1.421875 25.265625 0.953125 
Q 20.953125 3.328125 18.109375 8.203125 
L 18.109375 0 
L 9.078125 0 
L 9.078125 75.984375 
L 18.109375 75.984375 
z
" id="DejaVuSans-62"/>
      </defs>
      <g transform="translate(550.918542 597.021875)rotate(-90)scale(0.1 -0.1)">
       <use xlink:href="#DejaVuSans-43"/>
       <use x="69.824219" xlink:href="#DejaVuSans-68"/>
       <use x="133.203125" xlink:href="#DejaVuSans-69"/>
       <use x="160.986328" xlink:href="#DejaVuSans-63"/>
       <use x="215.966797" xlink:href="#DejaVuSans-6f"/>
       <use x="277.148438" xlink:href="#DejaVuSans-70"/>
       <use x="340.625" xlink:href="#DejaVuSans-65"/>
       <use x="402.148438" xlink:href="#DejaVuSans-65"/>
       <use x="463.671875" xlink:href="#DejaVuSans-20"/>
       <use x="495.458984" xlink:href="#DejaVuSans-2d"/>
       <use x="531.542969" xlink:href="#DejaVuSans-20"/>
       <use x="563.330078" xlink:href="#DejaVuSans-4c"/>
       <use x="619.042969" xlink:href="#DejaVuSans-61"/>
       <use x="680.322266" xlink:href="#DejaVuSans-6d"/>
       <use x="777.734375" xlink:href="#DejaVuSans-62"/>
       <use x="841.210938" xlink:href="#DejaVuSans-65"/>
       <use x="902.734375" xlink:href="#DejaVuSans-72"/>
       <use x="943.847656" xlink:href="#DejaVuSans-74"/>
       <use x="983.056641" xlink:href="#DejaVuSans-2d"/>
       <use x="1019.140625" xlink:href="#DejaVuSans-4c"/>
       <use x="1074.853516" xlink:href="#DejaVuSans-61"/>
       <use x="1136.132812" xlink:href="#DejaVuSans-76"/>
       <use x="1195.3125" xlink:href="#DejaVuSans-6f"/>
       <use x="1256.494141" xlink:href="#DejaVuSans-69"/>
       <use x="1284.277344" xlink:href="#DejaVuSans-65"/>
      </g>
     </g>
    </g>
    <g id="xtick_13">
     <g id="line2d_13">
      <g>
       <use style="stroke:#000000;stroke-width:0.8;" x="593.170833" xlink:href="#mf4ee3f1b42" y="455.4375"/>
      </g>
     </g>
     <g id="text_13">
      <!-- Chicopee - Litwin -->
      <g transform="translate(595.930208 548.335938)rotate(-90)scale(0.1 -0.1)">
       <use xlink:href="#DejaVuSans-43"/>
       <use x="69.824219" xlink:href="#DejaVuSans-68"/>
       <use x="133.203125" xlink:href="#DejaVuSans-69"/>
       <use x="160.986328" xlink:href="#DejaVuSans-63"/>
       <use x="215.966797" xlink:href="#DejaVuSans-6f"/>
       <use x="277.148438" xlink:href="#DejaVuSans-70"/>
       <use x="340.625" xlink:href="#DejaVuSans-65"/>
       <use x="402.148438" xlink:href="#DejaVuSans-65"/>
       <use x="463.671875" xlink:href="#DejaVuSans-20"/>
       <use x="495.458984" xlink:href="#DejaVuSans-2d"/>
       <use x="531.542969" xlink:href="#DejaVuSans-20"/>
       <use x="563.330078" xlink:href="#DejaVuSans-4c"/>
       <use x="619.042969" xlink:href="#DejaVuSans-69"/>
       <use x="646.826172" xlink:href="#DejaVuSans-74"/>
       <use x="686.035156" xlink:href="#DejaVuSans-77"/>
       <use x="767.822266" xlink:href="#DejaVuSans-69"/>
       <use x="795.605469" xlink:href="#DejaVuSans-6e"/>
      </g>
     </g>
    </g>
    <g id="xtick_14">
     <g id="line2d_14">
      <g>
       <use style="stroke:#000000;stroke-width:0.8;" x="638.1825" xlink:href="#mf4ee3f1b42" y="455.4375"/>
      </g>
     </g>
     <g id="text_14">
      <!-- Chicopee - Streiber Memorial School -->
      <g transform="translate(640.941875 644.684375)rotate(-90)scale(0.1 -0.1)">
       <use xlink:href="#DejaVuSans-43"/>
       <use x="69.824219" xlink:href="#DejaVuSans-68"/>
       <use x="133.203125" xlink:href="#DejaVuSans-69"/>
       <use x="160.986328" xlink:href="#DejaVuSans-63"/>
       <use x="215.966797" xlink:href="#DejaVuSans-6f"/>
       <use x="277.148438" xlink:href="#DejaVuSans-70"/>
       <use x="340.625" xlink:href="#DejaVuSans-65"/>
       <use x="402.148438" xlink:href="#DejaVuSans-65"/>
       <use x="463.671875" xlink:href="#DejaVuSans-20"/>
       <use x="495.458984" xlink:href="#DejaVuSans-2d"/>
       <use x="531.542969" xlink:href="#DejaVuSans-20"/>
       <use x="563.330078" xlink:href="#DejaVuSans-53"/>
       <use x="626.806641" xlink:href="#DejaVuSans-74"/>
       <use x="666.015625" xlink:href="#DejaVuSans-72"/>
       <use x="707.097656" xlink:href="#DejaVuSans-65"/>
       <use x="768.621094" xlink:href="#DejaVuSans-69"/>
       <use x="796.404297" xlink:href="#DejaVuSans-62"/>
       <use x="859.880859" xlink:href="#DejaVuSans-65"/>
       <use x="921.404297" xlink:href="#DejaVuSans-72"/>
       <use x="962.517578" xlink:href="#DejaVuSans-20"/>
       <use x="994.304688" xlink:href="#DejaVuSans-4d"/>
       <use x="1080.583984" xlink:href="#DejaVuSans-65"/>
       <use x="1142.107422" xlink:href="#DejaVuSans-6d"/>
       <use x="1239.519531" xlink:href="#DejaVuSans-6f"/>
       <use x="1300.701172" xlink:href="#DejaVuSans-72"/>
       <use x="1341.814453" xlink:href="#DejaVuSans-69"/>
       <use x="1369.597656" xlink:href="#DejaVuSans-61"/>
       <use x="1430.876953" xlink:href="#DejaVuSans-6c"/>
       <use x="1458.660156" xlink:href="#DejaVuSans-20"/>
       <use x="1490.447266" xlink:href="#DejaVuSans-53"/>
       <use x="1553.923828" xlink:href="#DejaVuSans-63"/>
       <use x="1608.904297" xlink:href="#DejaVuSans-68"/>
       <use x="1672.283203" xlink:href="#DejaVuSans-6f"/>
       <use x="1733.464844" xlink:href="#DejaVuSans-6f"/>
       <use x="1794.646484" xlink:href="#DejaVuSans-6c"/>
      </g>
     </g>
    </g>
    <g id="xtick_15">
     <g id="line2d_15">
      <g>
       <use style="stroke:#000000;stroke-width:0.8;" x="683.194167" xlink:href="#mf4ee3f1b42" y="455.4375"/>
      </g>
     </g>
     <g id="text_15">
      <!-- Chicopee - Szetela Early Childhood Center -->
      <defs>
       <path d="M 5.515625 54.6875 
L 48.1875 54.6875 
L 48.1875 46.484375 
L 14.40625 7.171875 
L 48.1875 7.171875 
L 48.1875 0 
L 4.296875 0 
L 4.296875 8.203125 
L 38.09375 47.515625 
L 5.515625 47.515625 
z
" id="DejaVuSans-7a"/>
      </defs>
      <g transform="translate(685.953542 674.096875)rotate(-90)scale(0.1 -0.1)">
       <use xlink:href="#DejaVuSans-43"/>
       <use x="69.824219" xlink:href="#DejaVuSans-68"/>
       <use x="133.203125" xlink:href="#DejaVuSans-69"/>
       <use x="160.986328" xlink:href="#DejaVuSans-63"/>
       <use x="215.966797" xlink:href="#DejaVuSans-6f"/>
       <use x="277.148438" xlink:href="#DejaVuSans-70"/>
       <use x="340.625" xlink:href="#DejaVuSans-65"/>
       <use x="402.148438" xlink:href="#DejaVuSans-65"/>
       <use x="463.671875" xlink:href="#DejaVuSans-20"/>
       <use x="495.458984" xlink:href="#DejaVuSans-2d"/>
       <use x="531.542969" xlink:href="#DejaVuSans-20"/>
       <use x="563.330078" xlink:href="#DejaVuSans-53"/>
       <use x="626.806641" xlink:href="#DejaVuSans-7a"/>
       <use x="679.296875" xlink:href="#DejaVuSans-65"/>
       <use x="740.820312" xlink:href="#DejaVuSans-74"/>
       <use x="780.029297" xlink:href="#DejaVuSans-65"/>
       <use x="841.552734" xlink:href="#DejaVuSans-6c"/>
       <use x="869.335938" xlink:href="#DejaVuSans-61"/>
       <use x="930.615234" xlink:href="#DejaVuSans-20"/>
       <use x="962.402344" xlink:href="#DejaVuSans-45"/>
       <use x="1025.585938" xlink:href="#DejaVuSans-61"/>
       <use x="1086.865234" xlink:href="#DejaVuSans-72"/>
       <use x="1127.978516" xlink:href="#DejaVuSans-6c"/>
       <use x="1155.761719" xlink:href="#DejaVuSans-79"/>
       <use x="1214.941406" xlink:href="#DejaVuSans-20"/>
       <use x="1246.728516" xlink:href="#DejaVuSans-43"/>
       <use x="1316.552734" xlink:href="#DejaVuSans-68"/>
       <use x="1379.931641" xlink:href="#DejaVuSans-69"/>
       <use x="1407.714844" xlink:href="#DejaVuSans-6c"/>
       <use x="1435.498047" xlink:href="#DejaVuSans-64"/>
       <use x="1498.974609" xlink:href="#DejaVuSans-68"/>
       <use x="1562.353516" xlink:href="#DejaVuSans-6f"/>
       <use x="1623.535156" xlink:href="#DejaVuSans-6f"/>
       <use x="1684.716797" xlink:href="#DejaVuSans-64"/>
       <use x="1748.193359" xlink:href="#DejaVuSans-20"/>
       <use x="1779.980469" xlink:href="#DejaVuSans-43"/>
       <use x="1849.804688" xlink:href="#DejaVuSans-65"/>
       <use x="1911.328125" xlink:href="#DejaVuSans-6e"/>
       <use x="1974.707031" xlink:href="#DejaVuSans-74"/>
       <use x="2013.916016" xlink:href="#DejaVuSans-65"/>
       <use x="2075.439453" xlink:href="#DejaVuSans-72"/>
      </g>
     </g>
    </g>
   </g>
   <g id="matplotlib.axis_2">
    <g id="ytick_1">
     <g id="line2d_16">
      <defs>
       <path d="M 0 0 
L -3.5 0 
" id="mff01314392" style="stroke:#000000;stroke-width:0.8;"/>
      </defs>
      <g>
       <use style="stroke:#000000;stroke-width:0.8;" x="30.525" xlink:href="#mff01314392" y="455.4375"/>
      </g>
     </g>
     <g id="text_16">
      <!-- 0 -->
      <defs>
       <path d="M 31.78125 66.40625 
Q 24.171875 66.40625 20.328125 58.90625 
Q 16.5 51.421875 16.5 36.375 
Q 16.5 21.390625 20.328125 13.890625 
Q 24.171875 6.390625 31.78125 6.390625 
Q 39.453125 6.390625 43.28125 13.890625 
Q 47.125 21.390625 47.125 36.375 
Q 47.125 51.421875 43.28125 58.90625 
Q 39.453125 66.40625 31.78125 66.40625 
z
M 31.78125 74.21875 
Q 44.046875 74.21875 50.515625 64.515625 
Q 56.984375 54.828125 56.984375 36.375 
Q 56.984375 17.96875 50.515625 8.265625 
Q 44.046875 -1.421875 31.78125 -1.421875 
Q 19.53125 -1.421875 13.0625 8.265625 
Q 6.59375 17.96875 6.59375 36.375 
Q 6.59375 54.828125 13.0625 64.515625 
Q 19.53125 74.21875 31.78125 74.21875 
z
" id="DejaVuSans-30"/>
      </defs>
      <g transform="translate(17.1625 459.236719)scale(0.1 -0.1)">
       <use xlink:href="#DejaVuSans-30"/>
      </g>
     </g>
    </g>
    <g id="ytick_2">
     <g id="line2d_17">
      <g>
       <use style="stroke:#000000;stroke-width:0.8;" x="30.525" xlink:href="#mff01314392" y="362.488174"/>
      </g>
     </g>
     <g id="text_17">
      <!-- 5 -->
      <defs>
       <path d="M 10.796875 72.90625 
L 49.515625 72.90625 
L 49.515625 64.59375 
L 19.828125 64.59375 
L 19.828125 46.734375 
Q 21.96875 47.46875 24.109375 47.828125 
Q 26.265625 48.1875 28.421875 48.1875 
Q 40.625 48.1875 47.75 41.5 
Q 54.890625 34.8125 54.890625 23.390625 
Q 54.890625 11.625 47.5625 5.09375 
Q 40.234375 -1.421875 26.90625 -1.421875 
Q 22.3125 -1.421875 17.546875 -0.640625 
Q 12.796875 0.140625 7.71875 1.703125 
L 7.71875 11.625 
Q 12.109375 9.234375 16.796875 8.0625 
Q 21.484375 6.890625 26.703125 6.890625 
Q 35.15625 6.890625 40.078125 11.328125 
Q 45.015625 15.765625 45.015625 23.390625 
Q 45.015625 31 40.078125 35.4375 
Q 35.15625 39.890625 26.703125 39.890625 
Q 22.75 39.890625 18.8125 39.015625 
Q 14.890625 38.140625 10.796875 36.28125 
z
" id="DejaVuSans-35"/>
      </defs>
      <g transform="translate(17.1625 366.287393)scale(0.1 -0.1)">
       <use xlink:href="#DejaVuSans-35"/>
      </g>
     </g>
    </g>
    <g id="ytick_3">
     <g id="line2d_18">
      <g>
       <use style="stroke:#000000;stroke-width:0.8;" x="30.525" xlink:href="#mff01314392" y="269.538849"/>
      </g>
     </g>
     <g id="text_18">
      <!-- 10 -->
      <defs>
       <path d="M 12.40625 8.296875 
L 28.515625 8.296875 
L 28.515625 63.921875 
L 10.984375 60.40625 
L 10.984375 69.390625 
L 28.421875 72.90625 
L 38.28125 72.90625 
L 38.28125 8.296875 
L 54.390625 8.296875 
L 54.390625 0 
L 12.40625 0 
z
" id="DejaVuSans-31"/>
      </defs>
      <g transform="translate(10.8 273.338067)scale(0.1 -0.1)">
       <use xlink:href="#DejaVuSans-31"/>
       <use x="63.623047" xlink:href="#DejaVuSans-30"/>
      </g>
     </g>
    </g>
    <g id="ytick_4">
     <g id="line2d_19">
      <g>
       <use style="stroke:#000000;stroke-width:0.8;" x="30.525" xlink:href="#mff01314392" y="176.589523"/>
      </g>
     </g>
     <g id="text_19">
      <!-- 15 -->
      <g transform="translate(10.8 180.388742)scale(0.1 -0.1)">
       <use xlink:href="#DejaVuSans-31"/>
       <use x="63.623047" xlink:href="#DejaVuSans-35"/>
      </g>
     </g>
    </g>
    <g id="ytick_5">
     <g id="line2d_20">
      <g>
       <use style="stroke:#000000;stroke-width:0.8;" x="30.525" xlink:href="#mff01314392" y="83.640197"/>
      </g>
     </g>
     <g id="text_20">
      <!-- 20 -->
      <defs>
       <path d="M 19.1875 8.296875 
L 53.609375 8.296875 
L 53.609375 0 
L 7.328125 0 
L 7.328125 8.296875 
Q 12.9375 14.109375 22.625 23.890625 
Q 32.328125 33.6875 34.8125 36.53125 
Q 39.546875 41.84375 41.421875 45.53125 
Q 43.3125 49.21875 43.3125 52.78125 
Q 43.3125 58.59375 39.234375 62.25 
Q 35.15625 65.921875 28.609375 65.921875 
Q 23.96875 65.921875 18.8125 64.3125 
Q 13.671875 62.703125 7.8125 59.421875 
L 7.8125 69.390625 
Q 13.765625 71.78125 18.9375 73 
Q 24.125 74.21875 28.421875 74.21875 
Q 39.75 74.21875 46.484375 68.546875 
Q 53.21875 62.890625 53.21875 53.421875 
Q 53.21875 48.921875 51.53125 44.890625 
Q 49.859375 40.875 45.40625 35.40625 
Q 44.1875 33.984375 37.640625 27.21875 
Q 31.109375 20.453125 19.1875 8.296875 
z
" id="DejaVuSans-32"/>
      </defs>
      <g transform="translate(10.8 87.439416)scale(0.1 -0.1)">
       <use xlink:href="#DejaVuSans-32"/>
       <use x="63.623047" xlink:href="#DejaVuSans-30"/>
      </g>
     </g>
    </g>
   </g>
   <g id="patch_33">
    <path d="M 30.525 455.4375 
L 30.525 14.3 
" style="fill:none;stroke:#000000;stroke-linecap:square;stroke-linejoin:miter;stroke-width:0.8;"/>
   </g>
   <g id="patch_34">
    <path d="M 705.7 455.4375 
L 705.7 14.3 
" style="fill:none;stroke:#000000;stroke-linecap:square;stroke-linejoin:miter;stroke-width:0.8;"/>
   </g>
   <g id="patch_35">
    <path d="M 30.525 455.4375 
L 705.7 455.4375 
" style="fill:none;stroke:#000000;stroke-linecap:square;stroke-linejoin:miter;stroke-width:0.8;"/>
   </g>
   <g id="patch_36">
    <path d="M 30.525 14.3 
L 705.7 14.3 
" style="fill:none;stroke:#000000;stroke-linecap:square;stroke-linejoin:miter;stroke-width:0.8;"/>
   </g>
   <g id="legend_1">
    <g id="patch_37">
     <path d="M 270.644531 51.65625 
L 465.580469 51.65625 
Q 467.580469 51.65625 467.580469 49.65625 
L 467.580469 21.3 
Q 467.580469 19.3 465.580469 19.3 
L 270.644531 19.3 
Q 268.644531 19.3 268.644531 21.3 
L 268.644531 49.65625 
Q 268.644531 51.65625 270.644531 51.65625 
z
" style="fill:#ffffff;opacity:0.8;stroke:#cccccc;stroke-linejoin:miter;"/>
    </g>
    <g id="patch_38">
     <path d="M 272.644531 30.898438 
L 292.644531 30.898438 
L 292.644531 23.898438 
L 272.644531 23.898438 
z
" style="fill:#1f77b4;"/>
    </g>
    <g id="text_21">
     <!-- FirstLanguageNotEnglishPercent -->
     <defs>
      <path d="M 9.8125 72.90625 
L 23.09375 72.90625 
L 55.421875 11.921875 
L 55.421875 72.90625 
L 64.984375 72.90625 
L 64.984375 0 
L 51.703125 0 
L 19.390625 60.984375 
L 19.390625 0 
L 9.8125 0 
z
" id="DejaVuSans-4e"/>
      <path d="M 19.671875 64.796875 
L 19.671875 37.40625 
L 32.078125 37.40625 
Q 38.96875 37.40625 42.71875 40.96875 
Q 46.484375 44.53125 46.484375 51.125 
Q 46.484375 57.671875 42.71875 61.234375 
Q 38.96875 64.796875 32.078125 64.796875 
z
M 9.8125 72.90625 
L 32.078125 72.90625 
Q 44.34375 72.90625 50.609375 67.359375 
Q 56.890625 61.8125 56.890625 51.125 
Q 56.890625 40.328125 50.609375 34.8125 
Q 44.34375 29.296875 32.078125 29.296875 
L 19.671875 29.296875 
L 19.671875 0 
L 9.8125 0 
z
" id="DejaVuSans-50"/>
     </defs>
     <g transform="translate(300.644531 30.898438)scale(0.1 -0.1)">
      <use xlink:href="#DejaVuSans-46"/>
      <use x="57.410156" xlink:href="#DejaVuSans-69"/>
      <use x="85.193359" xlink:href="#DejaVuSans-72"/>
      <use x="126.306641" xlink:href="#DejaVuSans-73"/>
      <use x="178.40625" xlink:href="#DejaVuSans-74"/>
      <use x="217.615234" xlink:href="#DejaVuSans-4c"/>
      <use x="273.328125" xlink:href="#DejaVuSans-61"/>
      <use x="334.607422" xlink:href="#DejaVuSans-6e"/>
      <use x="397.986328" xlink:href="#DejaVuSans-67"/>
      <use x="461.462891" xlink:href="#DejaVuSans-75"/>
      <use x="524.841797" xlink:href="#DejaVuSans-61"/>
      <use x="586.121094" xlink:href="#DejaVuSans-67"/>
      <use x="649.597656" xlink:href="#DejaVuSans-65"/>
      <use x="711.121094" xlink:href="#DejaVuSans-4e"/>
      <use x="785.925781" xlink:href="#DejaVuSans-6f"/>
      <use x="847.107422" xlink:href="#DejaVuSans-74"/>
      <use x="886.316406" xlink:href="#DejaVuSans-45"/>
      <use x="949.5" xlink:href="#DejaVuSans-6e"/>
      <use x="1012.878906" xlink:href="#DejaVuSans-67"/>
      <use x="1076.355469" xlink:href="#DejaVuSans-6c"/>
      <use x="1104.138672" xlink:href="#DejaVuSans-69"/>
      <use x="1131.921875" xlink:href="#DejaVuSans-73"/>
      <use x="1184.021484" xlink:href="#DejaVuSans-68"/>
      <use x="1247.400391" xlink:href="#DejaVuSans-50"/>
      <use x="1307.65625" xlink:href="#DejaVuSans-65"/>
      <use x="1369.179688" xlink:href="#DejaVuSans-72"/>
      <use x="1410.261719" xlink:href="#DejaVuSans-63"/>
      <use x="1465.242188" xlink:href="#DejaVuSans-65"/>
      <use x="1526.765625" xlink:href="#DejaVuSans-6e"/>
      <use x="1590.144531" xlink:href="#DejaVuSans-74"/>
     </g>
    </g>
    <g id="patch_39">
     <path d="M 272.644531 45.576563 
L 292.644531 45.576563 
L 292.644531 38.576563 
L 272.644531 38.576563 
z
" style="fill:#ff7f0e;"/>
    </g>
    <g id="text_22">
     <!-- EnglishLanguageLearnerPercent -->
     <g transform="translate(300.644531 45.576563)scale(0.1 -0.1)">
      <use xlink:href="#DejaVuSans-45"/>
      <use x="63.183594" xlink:href="#DejaVuSans-6e"/>
      <use x="126.5625" xlink:href="#DejaVuSans-67"/>
      <use x="190.039062" xlink:href="#DejaVuSans-6c"/>
      <use x="217.822266" xlink:href="#DejaVuSans-69"/>
      <use x="245.605469" xlink:href="#DejaVuSans-73"/>
      <use x="297.705078" xlink:href="#DejaVuSans-68"/>
      <use x="361.083984" xlink:href="#DejaVuSans-4c"/>
      <use x="416.796875" xlink:href="#DejaVuSans-61"/>
      <use x="478.076172" xlink:href="#DejaVuSans-6e"/>
      <use x="541.455078" xlink:href="#DejaVuSans-67"/>
      <use x="604.931641" xlink:href="#DejaVuSans-75"/>
      <use x="668.310547" xlink:href="#DejaVuSans-61"/>
      <use x="729.589844" xlink:href="#DejaVuSans-67"/>
      <use x="793.066406" xlink:href="#DejaVuSans-65"/>
      <use x="854.589844" xlink:href="#DejaVuSans-4c"/>
      <use x="910.287109" xlink:href="#DejaVuSans-65"/>
      <use x="971.810547" xlink:href="#DejaVuSans-61"/>
      <use x="1033.089844" xlink:href="#DejaVuSans-72"/>
      <use x="1074.1875" xlink:href="#DejaVuSans-6e"/>
      <use x="1137.566406" xlink:href="#DejaVuSans-65"/>
      <use x="1199.089844" xlink:href="#DejaVuSans-72"/>
      <use x="1240.203125" xlink:href="#DejaVuSans-50"/>
      <use x="1300.458984" xlink:href="#DejaVuSans-65"/>
      <use x="1361.982422" xlink:href="#DejaVuSans-72"/>
      <use x="1403.064453" xlink:href="#DejaVuSans-63"/>
      <use x="1458.044922" xlink:href="#DejaVuSans-65"/>
      <use x="1519.568359" xlink:href="#DejaVuSans-6e"/>
      <use x="1582.947266" xlink:href="#DejaVuSans-74"/>
     </g>
    </g>
   </g>
  </g>
 </g>
 <defs>
  <clipPath id="pb492e25938">
   <rect height="441.1375" width="675.175" x="30.525" y="14.3"/>
  </clipPath>
 </defs>
</svg>
