<?xml version="1.0" encoding="utf-8" standalone="no"?>
<!DOCTYPE svg PUBLIC "-//W3C//DTD SVG 1.1//EN"
  "http://www.w3.org/Graphics/SVG/1.1/DTD/svg11.dtd">
<!-- Created with matplotlib (http://matplotlib.org/) -->
<svg height="720pt" version="1.1" viewBox="0 0 720 720" width="720pt" xmlns="http://www.w3.org/2000/svg" xmlns:xlink="http://www.w3.org/1999/xlink">
 <defs>
  <style type="text/css">
*{stroke-linecap:butt;stroke-linejoin:round;}
  </style>
 </defs>
 <g id="figure_1">
  <g id="patch_1">
   <path d="M 0 720 
L 720 720 
L 720 0 
L 0 0 
z
" style="fill:#ffffff;"/>
  </g>
  <g id="axes_1">
   <g id="patch_2">
    <path d="M 36.8875 497.2625 
L 705.7 497.2625 
L 705.7 14.3 
L 36.8875 14.3 
z
" style="fill:#ffffff;"/>
   </g>
   <g id="patch_3">
    <path clip-path="url(#pf7fe418ca5)" d="M 44.487642 497.2625 
L 59.687926 497.2625 
L 59.687926 356.085343 
L 44.487642 356.085343 
z
" style="fill:#1f77b4;"/>
   </g>
   <g id="patch_4">
    <path clip-path="url(#pf7fe418ca5)" d="M 74.88821 497.2625 
L 90.088494 497.2625 
L 90.088494 479.046093 
L 74.88821 479.046093 
z
" style="fill:#1f77b4;"/>
   </g>
   <g id="patch_5">
    <path clip-path="url(#pf7fe418ca5)" d="M 105.288778 497.2625 
L 120.489063 497.2625 
L 120.489063 406.180463 
L 105.288778 406.180463 
z
" style="fill:#1f77b4;"/>
   </g>
   <g id="patch_6">
    <path clip-path="url(#pf7fe418ca5)" d="M 135.689347 497.2625 
L 150.889631 497.2625 
L 150.889631 351.531241 
L 135.689347 351.531241 
z
" style="fill:#1f77b4;"/>
   </g>
   <g id="patch_7">
    <path clip-path="url(#pf7fe418ca5)" d="M 166.089915 497.2625 
L 181.290199 497.2625 
L 181.290199 356.085343 
L 166.089915 356.085343 
z
" style="fill:#1f77b4;"/>
   </g>
   <g id="patch_8">
    <path clip-path="url(#pf7fe418ca5)" d="M 196.490483 497.2625 
L 211.690767 497.2625 
L 211.690767 465.383787 
L 196.490483 465.383787 
z
" style="fill:#1f77b4;"/>
   </g>
   <g id="patch_9">
    <path clip-path="url(#pf7fe418ca5)" d="M 226.891051 497.2625 
L 242.091335 497.2625 
L 242.091335 346.977139 
L 226.891051 346.977139 
z
" style="fill:#1f77b4;"/>
   </g>
   <g id="patch_10">
    <path clip-path="url(#pf7fe418ca5)" d="M 257.291619 497.2625 
L 272.491903 497.2625 
L 272.491903 483.600194 
L 257.291619 483.600194 
z
" style="fill:#1f77b4;"/>
   </g>
   <g id="patch_11">
    <path clip-path="url(#pf7fe418ca5)" d="M 287.692188 497.2625 
L 302.892472 497.2625 
L 302.892472 397.07226 
L 287.692188 397.07226 
z
" style="fill:#1f77b4;"/>
   </g>
   <g id="patch_12">
    <path clip-path="url(#pf7fe418ca5)" d="M 318.092756 497.2625 
L 333.29304 497.2625 
L 333.29304 406.180463 
L 318.092756 406.180463 
z
" style="fill:#1f77b4;"/>
   </g>
   <g id="patch_13">
    <path clip-path="url(#pf7fe418ca5)" d="M 348.493324 497.2625 
L 363.693608 497.2625 
L 363.693608 433.505074 
L 348.493324 433.505074 
z
" style="fill:#1f77b4;"/>
   </g>
   <g id="patch_14">
    <path clip-path="url(#pf7fe418ca5)" d="M 378.893892 497.2625 
L 394.094176 497.2625 
L 394.094176 424.396871 
L 378.893892 424.396871 
z
" style="fill:#1f77b4;"/>
   </g>
   <g id="patch_15">
    <path clip-path="url(#pf7fe418ca5)" d="M 409.29446 497.2625 
L 424.494744 497.2625 
L 424.494744 233.124593 
L 409.29446 233.124593 
z
" style="fill:#1f77b4;"/>
   </g>
   <g id="patch_16">
    <path clip-path="url(#pf7fe418ca5)" d="M 439.695028 497.2625 
L 454.895312 497.2625 
L 454.895312 356.085343 
L 439.695028 356.085343 
z
" style="fill:#1f77b4;"/>
   </g>
   <g id="patch_17">
    <path clip-path="url(#pf7fe418ca5)" d="M 470.095597 497.2625 
L 485.295881 497.2625 
L 485.295881 497.2625 
L 470.095597 497.2625 
z
" style="fill:#1f77b4;"/>
   </g>
   <g id="patch_18">
    <path clip-path="url(#pf7fe418ca5)" d="M 500.496165 497.2625 
L 515.696449 497.2625 
L 515.696449 237.678695 
L 500.496165 237.678695 
z
" style="fill:#1f77b4;"/>
   </g>
   <g id="patch_19">
    <path clip-path="url(#pf7fe418ca5)" d="M 530.896733 497.2625 
L 546.097017 497.2625 
L 546.097017 305.990223 
L 530.896733 305.990223 
z
" style="fill:#1f77b4;"/>
   </g>
   <g id="patch_20">
    <path clip-path="url(#pf7fe418ca5)" d="M 561.297301 497.2625 
L 576.497585 497.2625 
L 576.497585 465.383787 
L 561.297301 465.383787 
z
" style="fill:#1f77b4;"/>
   </g>
   <g id="patch_21">
    <path clip-path="url(#pf7fe418ca5)" d="M 591.697869 497.2625 
L 606.898153 497.2625 
L 606.898153 333.314834 
L 591.697869 333.314834 
z
" style="fill:#1f77b4;"/>
   </g>
   <g id="patch_22">
    <path clip-path="url(#pf7fe418ca5)" d="M 622.098438 497.2625 
L 637.298722 497.2625 
L 637.298722 451.721482 
L 622.098438 451.721482 
z
" style="fill:#1f77b4;"/>
   </g>
   <g id="patch_23">
    <path clip-path="url(#pf7fe418ca5)" d="M 652.499006 497.2625 
L 667.69929 497.2625 
L 667.69929 387.964056 
L 652.499006 387.964056 
z
" style="fill:#1f77b4;"/>
   </g>
   <g id="patch_24">
    <path clip-path="url(#pf7fe418ca5)" d="M 682.899574 497.2625 
L 698.099858 497.2625 
L 698.099858 415.288667 
L 682.899574 415.288667 
z
" style="fill:#1f77b4;"/>
   </g>
   <g id="patch_25">
    <path clip-path="url(#pf7fe418ca5)" d="M 44.487642 356.085343 
L 59.687926 356.085343 
L 59.687926 205.799982 
L 44.487642 205.799982 
z
" style="fill:#ff7f0e;"/>
   </g>
   <g id="patch_26">
    <path clip-path="url(#pf7fe418ca5)" d="M 74.88821 479.046093 
L 90.088494 479.046093 
L 90.088494 233.124593 
L 74.88821 233.124593 
z
" style="fill:#ff7f0e;"/>
   </g>
   <g id="patch_27">
    <path clip-path="url(#pf7fe418ca5)" d="M 105.288778 406.180463 
L 120.489063 406.180463 
L 120.489063 292.327917 
L 105.288778 292.327917 
z
" style="fill:#ff7f0e;"/>
   </g>
   <g id="patch_28">
    <path clip-path="url(#pf7fe418ca5)" d="M 135.689347 351.531241 
L 150.889631 351.531241 
L 150.889631 192.137677 
L 135.689347 192.137677 
z
" style="fill:#ff7f0e;"/>
   </g>
   <g id="patch_29">
    <path clip-path="url(#pf7fe418ca5)" d="M 166.089915 356.085343 
L 181.290199 356.085343 
L 181.290199 128.380251 
L 166.089915 128.380251 
z
" style="fill:#ff7f0e;"/>
   </g>
   <g id="patch_30">
    <path clip-path="url(#pf7fe418ca5)" d="M 196.490483 465.383787 
L 211.690767 465.383787 
L 211.690767 210.354084 
L 196.490483 210.354084 
z
" style="fill:#ff7f0e;"/>
   </g>
   <g id="patch_31">
    <path clip-path="url(#pf7fe418ca5)" d="M 226.891051 346.977139 
L 242.091335 346.977139 
L 242.091335 205.799982 
L 226.891051 205.799982 
z
" style="fill:#ff7f0e;"/>
   </g>
   <g id="patch_32">
    <path clip-path="url(#pf7fe418ca5)" d="M 257.291619 483.600194 
L 272.491903 483.600194 
L 272.491903 228.570492 
L 257.291619 228.570492 
z
" style="fill:#ff7f0e;"/>
   </g>
   <g id="patch_33">
    <path clip-path="url(#pf7fe418ca5)" d="M 287.692188 397.07226 
L 302.892472 397.07226 
L 302.892472 246.786899 
L 287.692188 246.786899 
z
" style="fill:#ff7f0e;"/>
   </g>
   <g id="patch_34">
    <path clip-path="url(#pf7fe418ca5)" d="M 318.092756 406.180463 
L 333.29304 406.180463 
L 333.29304 246.786899 
L 318.092756 246.786899 
z
" style="fill:#ff7f0e;"/>
   </g>
   <g id="patch_35">
    <path clip-path="url(#pf7fe418ca5)" d="M 348.493324 433.505074 
L 363.693608 433.505074 
L 363.693608 260.449204 
L 348.493324 260.449204 
z
" style="fill:#ff7f0e;"/>
   </g>
   <g id="patch_36">
    <path clip-path="url(#pf7fe418ca5)" d="M 378.893892 424.396871 
L 394.094176 424.396871 
L 394.094176 301.436121 
L 378.893892 301.436121 
z
" style="fill:#ff7f0e;"/>
   </g>
   <g id="patch_37">
    <path clip-path="url(#pf7fe418ca5)" d="M 409.29446 233.124593 
L 424.494744 233.124593 
L 424.494744 105.609742 
L 409.29446 105.609742 
z
" style="fill:#ff7f0e;"/>
   </g>
   <g id="patch_38">
    <path clip-path="url(#pf7fe418ca5)" d="M 439.695028 356.085343 
L 454.895312 356.085343 
L 454.895312 192.137677 
L 439.695028 192.137677 
z
" style="fill:#ff7f0e;"/>
   </g>
   <g id="patch_39">
    <path clip-path="url(#pf7fe418ca5)" d="M 470.095597 497.2625 
L 485.295881 497.2625 
L 485.295881 497.2625 
L 470.095597 497.2625 
z
" style="fill:#ff7f0e;"/>
   </g>
   <g id="patch_40">
    <path clip-path="url(#pf7fe418ca5)" d="M 500.496165 237.678695 
L 515.696449 237.678695 
L 515.696449 82.839233 
L 500.496165 82.839233 
z
" style="fill:#ff7f0e;"/>
   </g>
   <g id="patch_41">
    <path clip-path="url(#pf7fe418ca5)" d="M 530.896733 305.990223 
L 546.097017 305.990223 
L 546.097017 82.839233 
L 530.896733 82.839233 
z
" style="fill:#ff7f0e;"/>
   </g>
   <g id="patch_42">
    <path clip-path="url(#pf7fe418ca5)" d="M 561.297301 465.383787 
L 576.497585 465.383787 
L 576.497585 224.01639 
L 561.297301 224.01639 
z
" style="fill:#ff7f0e;"/>
   </g>
   <g id="patch_43">
    <path clip-path="url(#pf7fe418ca5)" d="M 591.697869 333.314834 
L 606.898153 333.314834 
L 606.898153 123.826149 
L 591.697869 123.826149 
z
" style="fill:#ff7f0e;"/>
   </g>
   <g id="patch_44">
    <path clip-path="url(#pf7fe418ca5)" d="M 622.098438 451.721482 
L 637.298722 451.721482 
L 637.298722 296.882019 
L 622.098438 296.882019 
z
" style="fill:#ff7f0e;"/>
   </g>
   <g id="patch_45">
    <path clip-path="url(#pf7fe418ca5)" d="M 652.499006 387.964056 
L 667.69929 387.964056 
L 667.69929 219.462288 
L 652.499006 219.462288 
z
" style="fill:#ff7f0e;"/>
   </g>
   <g id="patch_46">
    <path clip-path="url(#pf7fe418ca5)" d="M 682.899574 415.288667 
L 698.099858 415.288667 
L 698.099858 192.137677 
L 682.899574 192.137677 
z
" style="fill:#ff7f0e;"/>
   </g>
   <g id="patch_47">
    <path clip-path="url(#pf7fe418ca5)" d="M 44.487642 205.799982 
L 59.687926 205.799982 
L 59.687926 55.514622 
L 44.487642 55.514622 
z
" style="fill:#2ca02c;"/>
   </g>
   <g id="patch_48">
    <path clip-path="url(#pf7fe418ca5)" d="M 74.88821 233.124593 
L 90.088494 233.124593 
L 90.088494 78.285131 
L 74.88821 78.285131 
z
" style="fill:#2ca02c;"/>
   </g>
   <g id="patch_49">
    <path clip-path="url(#pf7fe418ca5)" d="M 105.288778 292.327917 
L 120.489063 292.327917 
L 120.489063 69.176927 
L 105.288778 69.176927 
z
" style="fill:#2ca02c;"/>
   </g>
   <g id="patch_50">
    <path clip-path="url(#pf7fe418ca5)" d="M 135.689347 192.137677 
L 150.889631 192.137677 
L 150.889631 78.285131 
L 135.689347 78.285131 
z
" style="fill:#2ca02c;"/>
   </g>
   <g id="patch_51">
    <path clip-path="url(#pf7fe418ca5)" d="M 166.089915 128.380251 
L 181.290199 128.380251 
L 181.290199 60.068723 
L 166.089915 60.068723 
z
" style="fill:#2ca02c;"/>
   </g>
   <g id="patch_52">
    <path clip-path="url(#pf7fe418ca5)" d="M 196.490483 210.354084 
L 211.690767 210.354084 
L 211.690767 87.393335 
L 196.490483 87.393335 
z
" style="fill:#2ca02c;"/>
   </g>
   <g id="patch_53">
    <path clip-path="url(#pf7fe418ca5)" d="M 226.891051 205.799982 
L 242.091335 205.799982 
L 242.091335 78.285131 
L 226.891051 78.285131 
z
" style="fill:#2ca02c;"/>
   </g>
   <g id="patch_54">
    <path clip-path="url(#pf7fe418ca5)" d="M 257.291619 228.570492 
L 272.491903 228.570492 
L 272.491903 82.839233 
L 257.291619 82.839233 
z
" style="fill:#2ca02c;"/>
   </g>
   <g id="patch_55">
    <path clip-path="url(#pf7fe418ca5)" d="M 287.692188 246.786899 
L 302.892472 246.786899 
L 302.892472 73.731029 
L 287.692188 73.731029 
z
" style="fill:#2ca02c;"/>
   </g>
   <g id="patch_56">
    <path clip-path="url(#pf7fe418ca5)" d="M 318.092756 246.786899 
L 333.29304 246.786899 
L 333.29304 60.068723 
L 318.092756 60.068723 
z
" style="fill:#2ca02c;"/>
   </g>
   <g id="patch_57">
    <path clip-path="url(#pf7fe418ca5)" d="M 348.493324 260.449204 
L 363.693608 260.449204 
L 363.693608 60.068723 
L 348.493324 60.068723 
z
" style="fill:#2ca02c;"/>
   </g>
   <g id="patch_58">
    <path clip-path="url(#pf7fe418ca5)" d="M 378.893892 301.436121 
L 394.094176 301.436121 
L 394.094176 87.393335 
L 378.893892 87.393335 
z
" style="fill:#2ca02c;"/>
   </g>
   <g id="patch_59">
    <path clip-path="url(#pf7fe418ca5)" d="M 409.29446 105.609742 
L 424.494744 105.609742 
L 424.494744 46.406418 
L 409.29446 46.406418 
z
" style="fill:#2ca02c;"/>
   </g>
   <g id="patch_60">
    <path clip-path="url(#pf7fe418ca5)" d="M 439.695028 192.137677 
L 454.895312 192.137677 
L 454.895312 50.96052 
L 439.695028 50.96052 
z
" style="fill:#2ca02c;"/>
   </g>
   <g id="patch_61">
    <path clip-path="url(#pf7fe418ca5)" d="M 470.095597 497.2625 
L 485.295881 497.2625 
L 485.295881 497.2625 
L 470.095597 497.2625 
z
" style="fill:#2ca02c;"/>
   </g>
   <g id="patch_62">
    <path clip-path="url(#pf7fe418ca5)" d="M 500.496165 82.839233 
L 515.696449 82.839233 
L 515.696449 50.96052 
L 500.496165 50.96052 
z
" style="fill:#2ca02c;"/>
   </g>
   <g id="patch_63">
    <path clip-path="url(#pf7fe418ca5)" d="M 530.896733 82.839233 
L 546.097017 82.839233 
L 546.097017 46.406418 
L 530.896733 46.406418 
z
" style="fill:#2ca02c;"/>
   </g>
   <g id="patch_64">
    <path clip-path="url(#pf7fe418ca5)" d="M 561.297301 224.01639 
L 576.497585 224.01639 
L 576.497585 87.393335 
L 561.297301 87.393335 
z
" style="fill:#2ca02c;"/>
   </g>
   <g id="patch_65">
    <path clip-path="url(#pf7fe418ca5)" d="M 591.697869 123.826149 
L 606.898153 123.826149 
L 606.898153 55.514622 
L 591.697869 55.514622 
z
" style="fill:#2ca02c;"/>
   </g>
   <g id="patch_66">
    <path clip-path="url(#pf7fe418ca5)" d="M 622.098438 296.882019 
L 637.298722 296.882019 
L 637.298722 87.393335 
L 622.098438 87.393335 
z
" style="fill:#2ca02c;"/>
   </g>
   <g id="patch_67">
    <path clip-path="url(#pf7fe418ca5)" d="M 652.499006 219.462288 
L 667.69929 219.462288 
L 667.69929 64.622825 
L 652.499006 64.622825 
z
" style="fill:#2ca02c;"/>
   </g>
   <g id="patch_68">
    <path clip-path="url(#pf7fe418ca5)" d="M 682.899574 192.137677 
L 698.099858 192.137677 
L 698.099858 82.839233 
L 682.899574 82.839233 
z
" style="fill:#2ca02c;"/>
   </g>
   <g id="patch_69">
    <path clip-path="url(#pf7fe418ca5)" d="M 44.487642 55.514622 
L 59.687926 55.514622 
L 59.687926 46.406418 
L 44.487642 46.406418 
z
" style="fill:#d62728;"/>
   </g>
   <g id="patch_70">
    <path clip-path="url(#pf7fe418ca5)" d="M 74.88821 78.285131 
L 90.088494 78.285131 
L 90.088494 41.852316 
L 74.88821 41.852316 
z
" style="fill:#d62728;"/>
   </g>
   <g id="patch_71">
    <path clip-path="url(#pf7fe418ca5)" d="M 105.288778 69.176927 
L 120.489063 69.176927 
L 120.489063 41.852316 
L 105.288778 41.852316 
z
" style="fill:#d62728;"/>
   </g>
   <g id="patch_72">
    <path clip-path="url(#pf7fe418ca5)" d="M 135.689347 78.285131 
L 150.889631 78.285131 
L 150.889631 37.298214 
L 135.689347 37.298214 
z
" style="fill:#d62728;"/>
   </g>
   <g id="patch_73">
    <path clip-path="url(#pf7fe418ca5)" d="M 166.089915 60.068723 
L 181.290199 60.068723 
L 181.290199 41.852316 
L 166.089915 41.852316 
z
" style="fill:#d62728;"/>
   </g>
   <g id="patch_74">
    <path clip-path="url(#pf7fe418ca5)" d="M 196.490483 87.393335 
L 211.690767 87.393335 
L 211.690767 41.852316 
L 196.490483 41.852316 
z
" style="fill:#d62728;"/>
   </g>
   <g id="patch_75">
    <path clip-path="url(#pf7fe418ca5)" d="M 226.891051 78.285131 
L 242.091335 78.285131 
L 242.091335 41.852316 
L 226.891051 41.852316 
z
" style="fill:#d62728;"/>
   </g>
   <g id="patch_76">
    <path clip-path="url(#pf7fe418ca5)" d="M 257.291619 82.839233 
L 272.491903 82.839233 
L 272.491903 41.852316 
L 257.291619 41.852316 
z
" style="fill:#d62728;"/>
   </g>
   <g id="patch_77">
    <path clip-path="url(#pf7fe418ca5)" d="M 287.692188 73.731029 
L 302.892472 73.731029 
L 302.892472 41.852316 
L 287.692188 41.852316 
z
" style="fill:#d62728;"/>
   </g>
   <g id="patch_78">
    <path clip-path="url(#pf7fe418ca5)" d="M 318.092756 60.068723 
L 333.29304 60.068723 
L 333.29304 41.852316 
L 318.092756 41.852316 
z
" style="fill:#d62728;"/>
   </g>
   <g id="patch_79">
    <path clip-path="url(#pf7fe418ca5)" d="M 348.493324 60.068723 
L 363.693608 60.068723 
L 363.693608 41.852316 
L 348.493324 41.852316 
z
" style="fill:#d62728;"/>
   </g>
   <g id="patch_80">
    <path clip-path="url(#pf7fe418ca5)" d="M 378.893892 87.393335 
L 394.094176 87.393335 
L 394.094176 46.406418 
L 378.893892 46.406418 
z
" style="fill:#d62728;"/>
   </g>
   <g id="patch_81">
    <path clip-path="url(#pf7fe418ca5)" d="M 409.29446 497.2625 
L 424.494744 497.2625 
L 424.494744 497.2625 
L 409.29446 497.2625 
z
" style="fill:#d62728;"/>
   </g>
   <g id="patch_82">
    <path clip-path="url(#pf7fe418ca5)" d="M 439.695028 50.96052 
L 454.895312 50.96052 
L 454.895312 46.406418 
L 439.695028 46.406418 
z
" style="fill:#d62728;"/>
   </g>
   <g id="patch_83">
    <path clip-path="url(#pf7fe418ca5)" d="M 470.095597 497.2625 
L 485.295881 497.2625 
L 485.295881 497.2625 
L 470.095597 497.2625 
z
" style="fill:#d62728;"/>
   </g>
   <g id="patch_84">
    <path clip-path="url(#pf7fe418ca5)" d="M 500.496165 50.96052 
L 515.696449 50.96052 
L 515.696449 41.852316 
L 500.496165 41.852316 
z
" style="fill:#d62728;"/>
   </g>
   <g id="patch_85">
    <path clip-path="url(#pf7fe418ca5)" d="M 530.896733 46.406418 
L 546.097017 46.406418 
L 546.097017 41.852316 
L 530.896733 41.852316 
z
" style="fill:#d62728;"/>
   </g>
   <g id="patch_86">
    <path clip-path="url(#pf7fe418ca5)" d="M 561.297301 87.393335 
L 576.497585 87.393335 
L 576.497585 41.852316 
L 561.297301 41.852316 
z
" style="fill:#d62728;"/>
   </g>
   <g id="patch_87">
    <path clip-path="url(#pf7fe418ca5)" d="M 591.697869 55.514622 
L 606.898153 55.514622 
L 606.898153 41.852316 
L 591.697869 41.852316 
z
" style="fill:#d62728;"/>
   </g>
   <g id="patch_88">
    <path clip-path="url(#pf7fe418ca5)" d="M 622.098438 87.393335 
L 637.298722 87.393335 
L 637.298722 41.852316 
L 622.098438 41.852316 
z
" style="fill:#d62728;"/>
   </g>
   <g id="patch_89">
    <path clip-path="url(#pf7fe418ca5)" d="M 652.499006 64.622825 
L 667.69929 64.622825 
L 667.69929 41.852316 
L 652.499006 41.852316 
z
" style="fill:#d62728;"/>
   </g>
   <g id="patch_90">
    <path clip-path="url(#pf7fe418ca5)" d="M 682.899574 82.839233 
L 698.099858 82.839233 
L 698.099858 41.852316 
L 682.899574 41.852316 
z
" style="fill:#d62728;"/>
   </g>
   <g id="matplotlib.axis_1">
    <g id="xtick_1">
     <g id="line2d_1">
      <defs>
       <path d="M 0 0 
L 0 3.5 
" id="mc7339e257b" style="stroke:#000000;stroke-width:0.8;"/>
      </defs>
      <g>
       <use style="stroke:#000000;stroke-width:0.8;" x="52.087784" xlink:href="#mc7339e257b" y="497.2625"/>
      </g>
     </g>
     <g id="text_1">
      <!-- Newton - A E Angier -->
      <defs>
       <path d="M 9.8125 72.90625 
L 23.09375 72.90625 
L 55.421875 11.921875 
L 55.421875 72.90625 
L 64.984375 72.90625 
L 64.984375 0 
L 51.703125 0 
L 19.390625 60.984375 
L 19.390625 0 
L 9.8125 0 
z
" id="DejaVuSans-4e"/>
       <path d="M 56.203125 29.59375 
L 56.203125 25.203125 
L 14.890625 25.203125 
Q 15.484375 15.921875 20.484375 11.0625 
Q 25.484375 6.203125 34.421875 6.203125 
Q 39.59375 6.203125 44.453125 7.46875 
Q 49.3125 8.734375 54.109375 11.28125 
L 54.109375 2.78125 
Q 49.265625 0.734375 44.1875 -0.34375 
Q 39.109375 -1.421875 33.890625 -1.421875 
Q 20.796875 -1.421875 13.15625 6.1875 
Q 5.515625 13.8125 5.515625 26.8125 
Q 5.515625 40.234375 12.765625 48.109375 
Q 20.015625 56 32.328125 56 
Q 43.359375 56 49.78125 48.890625 
Q 56.203125 41.796875 56.203125 29.59375 
z
M 47.21875 32.234375 
Q 47.125 39.59375 43.09375 43.984375 
Q 39.0625 48.390625 32.421875 48.390625 
Q 24.90625 48.390625 20.390625 44.140625 
Q 15.875 39.890625 15.1875 32.171875 
z
" id="DejaVuSans-65"/>
       <path d="M 4.203125 54.6875 
L 13.1875 54.6875 
L 24.421875 12.015625 
L 35.59375 54.6875 
L 46.1875 54.6875 
L 57.421875 12.015625 
L 68.609375 54.6875 
L 77.59375 54.6875 
L 63.28125 0 
L 52.6875 0 
L 40.921875 44.828125 
L 29.109375 0 
L 18.5 0 
z
" id="DejaVuSans-77"/>
       <path d="M 18.3125 70.21875 
L 18.3125 54.6875 
L 36.8125 54.6875 
L 36.8125 47.703125 
L 18.3125 47.703125 
L 18.3125 18.015625 
Q 18.3125 11.328125 20.140625 9.421875 
Q 21.96875 7.515625 27.59375 7.515625 
L 36.8125 7.515625 
L 36.8125 0 
L 27.59375 0 
Q 17.1875 0 13.234375 3.875 
Q 9.28125 7.765625 9.28125 18.015625 
L 9.28125 47.703125 
L 2.6875 47.703125 
L 2.6875 54.6875 
L 9.28125 54.6875 
L 9.28125 70.21875 
z
" id="DejaVuSans-74"/>
       <path d="M 30.609375 48.390625 
Q 23.390625 48.390625 19.1875 42.75 
Q 14.984375 37.109375 14.984375 27.296875 
Q 14.984375 17.484375 19.15625 11.84375 
Q 23.34375 6.203125 30.609375 6.203125 
Q 37.796875 6.203125 41.984375 11.859375 
Q 46.1875 17.53125 46.1875 27.296875 
Q 46.1875 37.015625 41.984375 42.703125 
Q 37.796875 48.390625 30.609375 48.390625 
z
M 30.609375 56 
Q 42.328125 56 49.015625 48.375 
Q 55.71875 40.765625 55.71875 27.296875 
Q 55.71875 13.875 49.015625 6.21875 
Q 42.328125 -1.421875 30.609375 -1.421875 
Q 18.84375 -1.421875 12.171875 6.21875 
Q 5.515625 13.875 5.515625 27.296875 
Q 5.515625 40.765625 12.171875 48.375 
Q 18.84375 56 30.609375 56 
z
" id="DejaVuSans-6f"/>
       <path d="M 54.890625 33.015625 
L 54.890625 0 
L 45.90625 0 
L 45.90625 32.71875 
Q 45.90625 40.484375 42.875 44.328125 
Q 39.84375 48.1875 33.796875 48.1875 
Q 26.515625 48.1875 22.3125 43.546875 
Q 18.109375 38.921875 18.109375 30.90625 
L 18.109375 0 
L 9.078125 0 
L 9.078125 54.6875 
L 18.109375 54.6875 
L 18.109375 46.1875 
Q 21.34375 51.125 25.703125 53.5625 
Q 30.078125 56 35.796875 56 
Q 45.21875 56 50.046875 50.171875 
Q 54.890625 44.34375 54.890625 33.015625 
z
" id="DejaVuSans-6e"/>
       <path id="DejaVuSans-20"/>
       <path d="M 4.890625 31.390625 
L 31.203125 31.390625 
L 31.203125 23.390625 
L 4.890625 23.390625 
z
" id="DejaVuSans-2d"/>
       <path d="M 34.1875 63.1875 
L 20.796875 26.90625 
L 47.609375 26.90625 
z
M 28.609375 72.90625 
L 39.796875 72.90625 
L 67.578125 0 
L 57.328125 0 
L 50.6875 18.703125 
L 17.828125 18.703125 
L 11.1875 0 
L 0.78125 0 
z
" id="DejaVuSans-41"/>
       <path d="M 9.8125 72.90625 
L 55.90625 72.90625 
L 55.90625 64.59375 
L 19.671875 64.59375 
L 19.671875 43.015625 
L 54.390625 43.015625 
L 54.390625 34.71875 
L 19.671875 34.71875 
L 19.671875 8.296875 
L 56.78125 8.296875 
L 56.78125 0 
L 9.8125 0 
z
" id="DejaVuSans-45"/>
       <path d="M 45.40625 27.984375 
Q 45.40625 37.75 41.375 43.109375 
Q 37.359375 48.484375 30.078125 48.484375 
Q 22.859375 48.484375 18.828125 43.109375 
Q 14.796875 37.75 14.796875 27.984375 
Q 14.796875 18.265625 18.828125 12.890625 
Q 22.859375 7.515625 30.078125 7.515625 
Q 37.359375 7.515625 41.375 12.890625 
Q 45.40625 18.265625 45.40625 27.984375 
z
M 54.390625 6.78125 
Q 54.390625 -7.171875 48.1875 -13.984375 
Q 42 -20.796875 29.203125 -20.796875 
Q 24.46875 -20.796875 20.265625 -20.09375 
Q 16.0625 -19.390625 12.109375 -17.921875 
L 12.109375 -9.1875 
Q 16.0625 -11.328125 19.921875 -12.34375 
Q 23.78125 -13.375 27.78125 -13.375 
Q 36.625 -13.375 41.015625 -8.765625 
Q 45.40625 -4.15625 45.40625 5.171875 
L 45.40625 9.625 
Q 42.625 4.78125 38.28125 2.390625 
Q 33.9375 0 27.875 0 
Q 17.828125 0 11.671875 7.65625 
Q 5.515625 15.328125 5.515625 27.984375 
Q 5.515625 40.671875 11.671875 48.328125 
Q 17.828125 56 27.875 56 
Q 33.9375 56 38.28125 53.609375 
Q 42.625 51.21875 45.40625 46.390625 
L 45.40625 54.6875 
L 54.390625 54.6875 
z
" id="DejaVuSans-67"/>
       <path d="M 9.421875 54.6875 
L 18.40625 54.6875 
L 18.40625 0 
L 9.421875 0 
z
M 9.421875 75.984375 
L 18.40625 75.984375 
L 18.40625 64.59375 
L 9.421875 64.59375 
z
" id="DejaVuSans-69"/>
       <path d="M 41.109375 46.296875 
Q 39.59375 47.171875 37.8125 47.578125 
Q 36.03125 48 33.890625 48 
Q 26.265625 48 22.1875 43.046875 
Q 18.109375 38.09375 18.109375 28.8125 
L 18.109375 0 
L 9.078125 0 
L 9.078125 54.6875 
L 18.109375 54.6875 
L 18.109375 46.1875 
Q 20.953125 51.171875 25.484375 53.578125 
Q 30.03125 56 36.53125 56 
Q 37.453125 56 38.578125 55.875 
Q 39.703125 55.765625 41.0625 55.515625 
z
" id="DejaVuSans-72"/>
      </defs>
      <g transform="translate(54.847159 604.5)rotate(-90)scale(0.1 -0.1)">
       <use xlink:href="#DejaVuSans-4e"/>
       <use x="74.804688" xlink:href="#DejaVuSans-65"/>
       <use x="136.328125" xlink:href="#DejaVuSans-77"/>
       <use x="218.115234" xlink:href="#DejaVuSans-74"/>
       <use x="257.324219" xlink:href="#DejaVuSans-6f"/>
       <use x="318.505859" xlink:href="#DejaVuSans-6e"/>
       <use x="381.884766" xlink:href="#DejaVuSans-20"/>
       <use x="413.671875" xlink:href="#DejaVuSans-2d"/>
       <use x="449.755859" xlink:href="#DejaVuSans-20"/>
       <use x="481.542969" xlink:href="#DejaVuSans-41"/>
       <use x="549.951172" xlink:href="#DejaVuSans-20"/>
       <use x="581.738281" xlink:href="#DejaVuSans-45"/>
       <use x="644.921875" xlink:href="#DejaVuSans-20"/>
       <use x="676.708984" xlink:href="#DejaVuSans-41"/>
       <use x="745.117188" xlink:href="#DejaVuSans-6e"/>
       <use x="808.496094" xlink:href="#DejaVuSans-67"/>
       <use x="871.972656" xlink:href="#DejaVuSans-69"/>
       <use x="899.755859" xlink:href="#DejaVuSans-65"/>
       <use x="961.279297" xlink:href="#DejaVuSans-72"/>
      </g>
     </g>
    </g>
    <g id="xtick_2">
     <g id="line2d_2">
      <g>
       <use style="stroke:#000000;stroke-width:0.8;" x="82.488352" xlink:href="#mc7339e257b" y="497.2625"/>
      </g>
     </g>
     <g id="text_2">
      <!-- Newton - Bigelow Middle -->
      <defs>
       <path d="M 19.671875 34.8125 
L 19.671875 8.109375 
L 35.5 8.109375 
Q 43.453125 8.109375 47.28125 11.40625 
Q 51.125 14.703125 51.125 21.484375 
Q 51.125 28.328125 47.28125 31.5625 
Q 43.453125 34.8125 35.5 34.8125 
z
M 19.671875 64.796875 
L 19.671875 42.828125 
L 34.28125 42.828125 
Q 41.5 42.828125 45.03125 45.53125 
Q 48.578125 48.25 48.578125 53.8125 
Q 48.578125 59.328125 45.03125 62.0625 
Q 41.5 64.796875 34.28125 64.796875 
z
M 9.8125 72.90625 
L 35.015625 72.90625 
Q 46.296875 72.90625 52.390625 68.21875 
Q 58.5 63.53125 58.5 54.890625 
Q 58.5 48.1875 55.375 44.234375 
Q 52.25 40.28125 46.1875 39.3125 
Q 53.46875 37.75 57.5 32.78125 
Q 61.53125 27.828125 61.53125 20.40625 
Q 61.53125 10.640625 54.890625 5.3125 
Q 48.25 0 35.984375 0 
L 9.8125 0 
z
" id="DejaVuSans-42"/>
       <path d="M 9.421875 75.984375 
L 18.40625 75.984375 
L 18.40625 0 
L 9.421875 0 
z
" id="DejaVuSans-6c"/>
       <path d="M 9.8125 72.90625 
L 24.515625 72.90625 
L 43.109375 23.296875 
L 61.8125 72.90625 
L 76.515625 72.90625 
L 76.515625 0 
L 66.890625 0 
L 66.890625 64.015625 
L 48.09375 14.015625 
L 38.1875 14.015625 
L 19.390625 64.015625 
L 19.390625 0 
L 9.8125 0 
z
" id="DejaVuSans-4d"/>
       <path d="M 45.40625 46.390625 
L 45.40625 75.984375 
L 54.390625 75.984375 
L 54.390625 0 
L 45.40625 0 
L 45.40625 8.203125 
Q 42.578125 3.328125 38.25 0.953125 
Q 33.9375 -1.421875 27.875 -1.421875 
Q 17.96875 -1.421875 11.734375 6.484375 
Q 5.515625 14.40625 5.515625 27.296875 
Q 5.515625 40.1875 11.734375 48.09375 
Q 17.96875 56 27.875 56 
Q 33.9375 56 38.25 53.625 
Q 42.578125 51.265625 45.40625 46.390625 
z
M 14.796875 27.296875 
Q 14.796875 17.390625 18.875 11.75 
Q 22.953125 6.109375 30.078125 6.109375 
Q 37.203125 6.109375 41.296875 11.75 
Q 45.40625 17.390625 45.40625 27.296875 
Q 45.40625 37.203125 41.296875 42.84375 
Q 37.203125 48.484375 30.078125 48.484375 
Q 22.953125 48.484375 18.875 42.84375 
Q 14.796875 37.203125 14.796875 27.296875 
z
" id="DejaVuSans-64"/>
      </defs>
      <g transform="translate(85.247727 627.84375)rotate(-90)scale(0.1 -0.1)">
       <use xlink:href="#DejaVuSans-4e"/>
       <use x="74.804688" xlink:href="#DejaVuSans-65"/>
       <use x="136.328125" xlink:href="#DejaVuSans-77"/>
       <use x="218.115234" xlink:href="#DejaVuSans-74"/>
       <use x="257.324219" xlink:href="#DejaVuSans-6f"/>
       <use x="318.505859" xlink:href="#DejaVuSans-6e"/>
       <use x="381.884766" xlink:href="#DejaVuSans-20"/>
       <use x="413.671875" xlink:href="#DejaVuSans-2d"/>
       <use x="449.755859" xlink:href="#DejaVuSans-20"/>
       <use x="481.542969" xlink:href="#DejaVuSans-42"/>
       <use x="550.146484" xlink:href="#DejaVuSans-69"/>
       <use x="577.929688" xlink:href="#DejaVuSans-67"/>
       <use x="641.40625" xlink:href="#DejaVuSans-65"/>
       <use x="702.929688" xlink:href="#DejaVuSans-6c"/>
       <use x="730.712891" xlink:href="#DejaVuSans-6f"/>
       <use x="791.894531" xlink:href="#DejaVuSans-77"/>
       <use x="873.681641" xlink:href="#DejaVuSans-20"/>
       <use x="905.46875" xlink:href="#DejaVuSans-4d"/>
       <use x="991.748047" xlink:href="#DejaVuSans-69"/>
       <use x="1019.53125" xlink:href="#DejaVuSans-64"/>
       <use x="1083.007812" xlink:href="#DejaVuSans-64"/>
       <use x="1146.484375" xlink:href="#DejaVuSans-6c"/>
       <use x="1174.267578" xlink:href="#DejaVuSans-65"/>
      </g>
     </g>
    </g>
    <g id="xtick_3">
     <g id="line2d_3">
      <g>
       <use style="stroke:#000000;stroke-width:0.8;" x="112.88892" xlink:href="#mc7339e257b" y="497.2625"/>
      </g>
     </g>
     <g id="text_3">
      <!-- Newton - Bowen -->
      <g transform="translate(115.648295 586.064062)rotate(-90)scale(0.1 -0.1)">
       <use xlink:href="#DejaVuSans-4e"/>
       <use x="74.804688" xlink:href="#DejaVuSans-65"/>
       <use x="136.328125" xlink:href="#DejaVuSans-77"/>
       <use x="218.115234" xlink:href="#DejaVuSans-74"/>
       <use x="257.324219" xlink:href="#DejaVuSans-6f"/>
       <use x="318.505859" xlink:href="#DejaVuSans-6e"/>
       <use x="381.884766" xlink:href="#DejaVuSans-20"/>
       <use x="413.671875" xlink:href="#DejaVuSans-2d"/>
       <use x="449.755859" xlink:href="#DejaVuSans-20"/>
       <use x="481.542969" xlink:href="#DejaVuSans-42"/>
       <use x="550.146484" xlink:href="#DejaVuSans-6f"/>
       <use x="611.328125" xlink:href="#DejaVuSans-77"/>
       <use x="693.115234" xlink:href="#DejaVuSans-65"/>
       <use x="754.638672" xlink:href="#DejaVuSans-6e"/>
      </g>
     </g>
    </g>
    <g id="xtick_4">
     <g id="line2d_4">
      <g>
       <use style="stroke:#000000;stroke-width:0.8;" x="143.289489" xlink:href="#mc7339e257b" y="497.2625"/>
      </g>
     </g>
     <g id="text_4">
      <!-- Newton - C C Burr -->
      <defs>
       <path d="M 64.40625 67.28125 
L 64.40625 56.890625 
Q 59.421875 61.53125 53.78125 63.8125 
Q 48.140625 66.109375 41.796875 66.109375 
Q 29.296875 66.109375 22.65625 58.46875 
Q 16.015625 50.828125 16.015625 36.375 
Q 16.015625 21.96875 22.65625 14.328125 
Q 29.296875 6.6875 41.796875 6.6875 
Q 48.140625 6.6875 53.78125 8.984375 
Q 59.421875 11.28125 64.40625 15.921875 
L 64.40625 5.609375 
Q 59.234375 2.09375 53.4375 0.328125 
Q 47.65625 -1.421875 41.21875 -1.421875 
Q 24.65625 -1.421875 15.125 8.703125 
Q 5.609375 18.84375 5.609375 36.375 
Q 5.609375 53.953125 15.125 64.078125 
Q 24.65625 74.21875 41.21875 74.21875 
Q 47.75 74.21875 53.53125 72.484375 
Q 59.328125 70.75 64.40625 67.28125 
z
" id="DejaVuSans-43"/>
       <path d="M 8.5 21.578125 
L 8.5 54.6875 
L 17.484375 54.6875 
L 17.484375 21.921875 
Q 17.484375 14.15625 20.5 10.265625 
Q 23.53125 6.390625 29.59375 6.390625 
Q 36.859375 6.390625 41.078125 11.03125 
Q 45.3125 15.671875 45.3125 23.6875 
L 45.3125 54.6875 
L 54.296875 54.6875 
L 54.296875 0 
L 45.3125 0 
L 45.3125 8.40625 
Q 42.046875 3.421875 37.71875 1 
Q 33.40625 -1.421875 27.6875 -1.421875 
Q 18.265625 -1.421875 13.375 4.4375 
Q 8.5 10.296875 8.5 21.578125 
z
M 31.109375 56 
z
" id="DejaVuSans-75"/>
      </defs>
      <g transform="translate(146.048864 594.15625)rotate(-90)scale(0.1 -0.1)">
       <use xlink:href="#DejaVuSans-4e"/>
       <use x="74.804688" xlink:href="#DejaVuSans-65"/>
       <use x="136.328125" xlink:href="#DejaVuSans-77"/>
       <use x="218.115234" xlink:href="#DejaVuSans-74"/>
       <use x="257.324219" xlink:href="#DejaVuSans-6f"/>
       <use x="318.505859" xlink:href="#DejaVuSans-6e"/>
       <use x="381.884766" xlink:href="#DejaVuSans-20"/>
       <use x="413.671875" xlink:href="#DejaVuSans-2d"/>
       <use x="449.755859" xlink:href="#DejaVuSans-20"/>
       <use x="481.542969" xlink:href="#DejaVuSans-43"/>
       <use x="551.367188" xlink:href="#DejaVuSans-20"/>
       <use x="583.154297" xlink:href="#DejaVuSans-43"/>
       <use x="652.978516" xlink:href="#DejaVuSans-20"/>
       <use x="684.765625" xlink:href="#DejaVuSans-42"/>
       <use x="753.369141" xlink:href="#DejaVuSans-75"/>
       <use x="816.748047" xlink:href="#DejaVuSans-72"/>
       <use x="857.845703" xlink:href="#DejaVuSans-72"/>
      </g>
     </g>
    </g>
    <g id="xtick_5">
     <g id="line2d_5">
      <g>
       <use style="stroke:#000000;stroke-width:0.8;" x="173.690057" xlink:href="#mc7339e257b" y="497.2625"/>
      </g>
     </g>
     <g id="text_5">
      <!-- Newton - Cabot -->
      <defs>
       <path d="M 34.28125 27.484375 
Q 23.390625 27.484375 19.1875 25 
Q 14.984375 22.515625 14.984375 16.5 
Q 14.984375 11.71875 18.140625 8.90625 
Q 21.296875 6.109375 26.703125 6.109375 
Q 34.1875 6.109375 38.703125 11.40625 
Q 43.21875 16.703125 43.21875 25.484375 
L 43.21875 27.484375 
z
M 52.203125 31.203125 
L 52.203125 0 
L 43.21875 0 
L 43.21875 8.296875 
Q 40.140625 3.328125 35.546875 0.953125 
Q 30.953125 -1.421875 24.3125 -1.421875 
Q 15.921875 -1.421875 10.953125 3.296875 
Q 6 8.015625 6 15.921875 
Q 6 25.140625 12.171875 29.828125 
Q 18.359375 34.515625 30.609375 34.515625 
L 43.21875 34.515625 
L 43.21875 35.40625 
Q 43.21875 41.609375 39.140625 45 
Q 35.0625 48.390625 27.6875 48.390625 
Q 23 48.390625 18.546875 47.265625 
Q 14.109375 46.140625 10.015625 43.890625 
L 10.015625 52.203125 
Q 14.9375 54.109375 19.578125 55.046875 
Q 24.21875 56 28.609375 56 
Q 40.484375 56 46.34375 49.84375 
Q 52.203125 43.703125 52.203125 31.203125 
z
" id="DejaVuSans-61"/>
       <path d="M 48.6875 27.296875 
Q 48.6875 37.203125 44.609375 42.84375 
Q 40.53125 48.484375 33.40625 48.484375 
Q 26.265625 48.484375 22.1875 42.84375 
Q 18.109375 37.203125 18.109375 27.296875 
Q 18.109375 17.390625 22.1875 11.75 
Q 26.265625 6.109375 33.40625 6.109375 
Q 40.53125 6.109375 44.609375 11.75 
Q 48.6875 17.390625 48.6875 27.296875 
z
M 18.109375 46.390625 
Q 20.953125 51.265625 25.265625 53.625 
Q 29.59375 56 35.59375 56 
Q 45.5625 56 51.78125 48.09375 
Q 58.015625 40.1875 58.015625 27.296875 
Q 58.015625 14.40625 51.78125 6.484375 
Q 45.5625 -1.421875 35.59375 -1.421875 
Q 29.59375 -1.421875 25.265625 0.953125 
Q 20.953125 3.328125 18.109375 8.203125 
L 18.109375 0 
L 9.078125 0 
L 9.078125 75.984375 
L 18.109375 75.984375 
z
" id="DejaVuSans-62"/>
      </defs>
      <g transform="translate(176.449432 581.914062)rotate(-90)scale(0.1 -0.1)">
       <use xlink:href="#DejaVuSans-4e"/>
       <use x="74.804688" xlink:href="#DejaVuSans-65"/>
       <use x="136.328125" xlink:href="#DejaVuSans-77"/>
       <use x="218.115234" xlink:href="#DejaVuSans-74"/>
       <use x="257.324219" xlink:href="#DejaVuSans-6f"/>
       <use x="318.505859" xlink:href="#DejaVuSans-6e"/>
       <use x="381.884766" xlink:href="#DejaVuSans-20"/>
       <use x="413.671875" xlink:href="#DejaVuSans-2d"/>
       <use x="449.755859" xlink:href="#DejaVuSans-20"/>
       <use x="481.542969" xlink:href="#DejaVuSans-43"/>
       <use x="551.367188" xlink:href="#DejaVuSans-61"/>
       <use x="612.646484" xlink:href="#DejaVuSans-62"/>
       <use x="676.123047" xlink:href="#DejaVuSans-6f"/>
       <use x="737.304688" xlink:href="#DejaVuSans-74"/>
      </g>
     </g>
    </g>
    <g id="xtick_6">
     <g id="line2d_6">
      <g>
       <use style="stroke:#000000;stroke-width:0.8;" x="204.090625" xlink:href="#mc7339e257b" y="497.2625"/>
      </g>
     </g>
     <g id="text_6">
      <!-- Newton - Charles E Brown Middle -->
      <defs>
       <path d="M 54.890625 33.015625 
L 54.890625 0 
L 45.90625 0 
L 45.90625 32.71875 
Q 45.90625 40.484375 42.875 44.328125 
Q 39.84375 48.1875 33.796875 48.1875 
Q 26.515625 48.1875 22.3125 43.546875 
Q 18.109375 38.921875 18.109375 30.90625 
L 18.109375 0 
L 9.078125 0 
L 9.078125 75.984375 
L 18.109375 75.984375 
L 18.109375 46.1875 
Q 21.34375 51.125 25.703125 53.5625 
Q 30.078125 56 35.796875 56 
Q 45.21875 56 50.046875 50.171875 
Q 54.890625 44.34375 54.890625 33.015625 
z
" id="DejaVuSans-68"/>
       <path d="M 44.28125 53.078125 
L 44.28125 44.578125 
Q 40.484375 46.53125 36.375 47.5 
Q 32.28125 48.484375 27.875 48.484375 
Q 21.1875 48.484375 17.84375 46.4375 
Q 14.5 44.390625 14.5 40.28125 
Q 14.5 37.15625 16.890625 35.375 
Q 19.28125 33.59375 26.515625 31.984375 
L 29.59375 31.296875 
Q 39.15625 29.25 43.1875 25.515625 
Q 47.21875 21.78125 47.21875 15.09375 
Q 47.21875 7.46875 41.1875 3.015625 
Q 35.15625 -1.421875 24.609375 -1.421875 
Q 20.21875 -1.421875 15.453125 -0.5625 
Q 10.6875 0.296875 5.421875 2 
L 5.421875 11.28125 
Q 10.40625 8.6875 15.234375 7.390625 
Q 20.0625 6.109375 24.8125 6.109375 
Q 31.15625 6.109375 34.5625 8.28125 
Q 37.984375 10.453125 37.984375 14.40625 
Q 37.984375 18.0625 35.515625 20.015625 
Q 33.0625 21.96875 24.703125 23.78125 
L 21.578125 24.515625 
Q 13.234375 26.265625 9.515625 29.90625 
Q 5.8125 33.546875 5.8125 39.890625 
Q 5.8125 47.609375 11.28125 51.796875 
Q 16.75 56 26.8125 56 
Q 31.78125 56 36.171875 55.265625 
Q 40.578125 54.546875 44.28125 53.078125 
z
" id="DejaVuSans-73"/>
      </defs>
      <g transform="translate(206.85 670.60625)rotate(-90)scale(0.1 -0.1)">
       <use xlink:href="#DejaVuSans-4e"/>
       <use x="74.804688" xlink:href="#DejaVuSans-65"/>
       <use x="136.328125" xlink:href="#DejaVuSans-77"/>
       <use x="218.115234" xlink:href="#DejaVuSans-74"/>
       <use x="257.324219" xlink:href="#DejaVuSans-6f"/>
       <use x="318.505859" xlink:href="#DejaVuSans-6e"/>
       <use x="381.884766" xlink:href="#DejaVuSans-20"/>
       <use x="413.671875" xlink:href="#DejaVuSans-2d"/>
       <use x="449.755859" xlink:href="#DejaVuSans-20"/>
       <use x="481.542969" xlink:href="#DejaVuSans-43"/>
       <use x="551.367188" xlink:href="#DejaVuSans-68"/>
       <use x="614.746094" xlink:href="#DejaVuSans-61"/>
       <use x="676.025391" xlink:href="#DejaVuSans-72"/>
       <use x="717.138672" xlink:href="#DejaVuSans-6c"/>
       <use x="744.921875" xlink:href="#DejaVuSans-65"/>
       <use x="806.445312" xlink:href="#DejaVuSans-73"/>
       <use x="858.544922" xlink:href="#DejaVuSans-20"/>
       <use x="890.332031" xlink:href="#DejaVuSans-45"/>
       <use x="953.515625" xlink:href="#DejaVuSans-20"/>
       <use x="985.302734" xlink:href="#DejaVuSans-42"/>
       <use x="1053.90625" xlink:href="#DejaVuSans-72"/>
       <use x="1094.988281" xlink:href="#DejaVuSans-6f"/>
       <use x="1156.169922" xlink:href="#DejaVuSans-77"/>
       <use x="1237.957031" xlink:href="#DejaVuSans-6e"/>
       <use x="1301.335938" xlink:href="#DejaVuSans-20"/>
       <use x="1333.123047" xlink:href="#DejaVuSans-4d"/>
       <use x="1419.402344" xlink:href="#DejaVuSans-69"/>
       <use x="1447.185547" xlink:href="#DejaVuSans-64"/>
       <use x="1510.662109" xlink:href="#DejaVuSans-64"/>
       <use x="1574.138672" xlink:href="#DejaVuSans-6c"/>
       <use x="1601.921875" xlink:href="#DejaVuSans-65"/>
      </g>
     </g>
    </g>
    <g id="xtick_7">
     <g id="line2d_7">
      <g>
       <use style="stroke:#000000;stroke-width:0.8;" x="234.491193" xlink:href="#mc7339e257b" y="497.2625"/>
      </g>
     </g>
     <g id="text_7">
      <!-- Newton - Countryside -->
      <defs>
       <path d="M 32.171875 -5.078125 
Q 28.375 -14.84375 24.75 -17.8125 
Q 21.140625 -20.796875 15.09375 -20.796875 
L 7.90625 -20.796875 
L 7.90625 -13.28125 
L 13.1875 -13.28125 
Q 16.890625 -13.28125 18.9375 -11.515625 
Q 21 -9.765625 23.484375 -3.21875 
L 25.09375 0.875 
L 2.984375 54.6875 
L 12.5 54.6875 
L 29.59375 11.921875 
L 46.6875 54.6875 
L 56.203125 54.6875 
z
" id="DejaVuSans-79"/>
      </defs>
      <g transform="translate(237.250568 612.63125)rotate(-90)scale(0.1 -0.1)">
       <use xlink:href="#DejaVuSans-4e"/>
       <use x="74.804688" xlink:href="#DejaVuSans-65"/>
       <use x="136.328125" xlink:href="#DejaVuSans-77"/>
       <use x="218.115234" xlink:href="#DejaVuSans-74"/>
       <use x="257.324219" xlink:href="#DejaVuSans-6f"/>
       <use x="318.505859" xlink:href="#DejaVuSans-6e"/>
       <use x="381.884766" xlink:href="#DejaVuSans-20"/>
       <use x="413.671875" xlink:href="#DejaVuSans-2d"/>
       <use x="449.755859" xlink:href="#DejaVuSans-20"/>
       <use x="481.542969" xlink:href="#DejaVuSans-43"/>
       <use x="551.367188" xlink:href="#DejaVuSans-6f"/>
       <use x="612.548828" xlink:href="#DejaVuSans-75"/>
       <use x="675.927734" xlink:href="#DejaVuSans-6e"/>
       <use x="739.306641" xlink:href="#DejaVuSans-74"/>
       <use x="778.515625" xlink:href="#DejaVuSans-72"/>
       <use x="819.628906" xlink:href="#DejaVuSans-79"/>
       <use x="878.808594" xlink:href="#DejaVuSans-73"/>
       <use x="930.908203" xlink:href="#DejaVuSans-69"/>
       <use x="958.691406" xlink:href="#DejaVuSans-64"/>
       <use x="1022.167969" xlink:href="#DejaVuSans-65"/>
      </g>
     </g>
    </g>
    <g id="xtick_8">
     <g id="line2d_8">
      <g>
       <use style="stroke:#000000;stroke-width:0.8;" x="264.891761" xlink:href="#mc7339e257b" y="497.2625"/>
      </g>
     </g>
     <g id="text_8">
      <!-- Newton - F A Day Middle -->
      <defs>
       <path d="M 9.8125 72.90625 
L 51.703125 72.90625 
L 51.703125 64.59375 
L 19.671875 64.59375 
L 19.671875 43.109375 
L 48.578125 43.109375 
L 48.578125 34.8125 
L 19.671875 34.8125 
L 19.671875 0 
L 9.8125 0 
z
" id="DejaVuSans-46"/>
       <path d="M 19.671875 64.796875 
L 19.671875 8.109375 
L 31.59375 8.109375 
Q 46.6875 8.109375 53.6875 14.9375 
Q 60.6875 21.78125 60.6875 36.53125 
Q 60.6875 51.171875 53.6875 57.984375 
Q 46.6875 64.796875 31.59375 64.796875 
z
M 9.8125 72.90625 
L 30.078125 72.90625 
Q 51.265625 72.90625 61.171875 64.09375 
Q 71.09375 55.28125 71.09375 36.53125 
Q 71.09375 17.671875 61.125 8.828125 
Q 51.171875 0 30.078125 0 
L 9.8125 0 
z
" id="DejaVuSans-44"/>
      </defs>
      <g transform="translate(267.651136 627.323437)rotate(-90)scale(0.1 -0.1)">
       <use xlink:href="#DejaVuSans-4e"/>
       <use x="74.804688" xlink:href="#DejaVuSans-65"/>
       <use x="136.328125" xlink:href="#DejaVuSans-77"/>
       <use x="218.115234" xlink:href="#DejaVuSans-74"/>
       <use x="257.324219" xlink:href="#DejaVuSans-6f"/>
       <use x="318.505859" xlink:href="#DejaVuSans-6e"/>
       <use x="381.884766" xlink:href="#DejaVuSans-20"/>
       <use x="413.671875" xlink:href="#DejaVuSans-2d"/>
       <use x="449.755859" xlink:href="#DejaVuSans-20"/>
       <use x="481.542969" xlink:href="#DejaVuSans-46"/>
       <use x="539.0625" xlink:href="#DejaVuSans-20"/>
       <use x="570.849609" xlink:href="#DejaVuSans-41"/>
       <use x="639.257812" xlink:href="#DejaVuSans-20"/>
       <use x="671.044922" xlink:href="#DejaVuSans-44"/>
       <use x="748.046875" xlink:href="#DejaVuSans-61"/>
       <use x="809.326172" xlink:href="#DejaVuSans-79"/>
       <use x="868.505859" xlink:href="#DejaVuSans-20"/>
       <use x="900.292969" xlink:href="#DejaVuSans-4d"/>
       <use x="986.572266" xlink:href="#DejaVuSans-69"/>
       <use x="1014.355469" xlink:href="#DejaVuSans-64"/>
       <use x="1077.832031" xlink:href="#DejaVuSans-64"/>
       <use x="1141.308594" xlink:href="#DejaVuSans-6c"/>
       <use x="1169.091797" xlink:href="#DejaVuSans-65"/>
      </g>
     </g>
    </g>
    <g id="xtick_9">
     <g id="line2d_9">
      <g>
       <use style="stroke:#000000;stroke-width:0.8;" x="295.29233" xlink:href="#mc7339e257b" y="497.2625"/>
      </g>
     </g>
     <g id="text_9">
      <!-- Newton - Franklin -->
      <defs>
       <path d="M 9.078125 75.984375 
L 18.109375 75.984375 
L 18.109375 31.109375 
L 44.921875 54.6875 
L 56.390625 54.6875 
L 27.390625 29.109375 
L 57.625 0 
L 45.90625 0 
L 18.109375 26.703125 
L 18.109375 0 
L 9.078125 0 
z
" id="DejaVuSans-6b"/>
      </defs>
      <g transform="translate(298.051705 592.417187)rotate(-90)scale(0.1 -0.1)">
       <use xlink:href="#DejaVuSans-4e"/>
       <use x="74.804688" xlink:href="#DejaVuSans-65"/>
       <use x="136.328125" xlink:href="#DejaVuSans-77"/>
       <use x="218.115234" xlink:href="#DejaVuSans-74"/>
       <use x="257.324219" xlink:href="#DejaVuSans-6f"/>
       <use x="318.505859" xlink:href="#DejaVuSans-6e"/>
       <use x="381.884766" xlink:href="#DejaVuSans-20"/>
       <use x="413.671875" xlink:href="#DejaVuSans-2d"/>
       <use x="449.755859" xlink:href="#DejaVuSans-20"/>
       <use x="481.542969" xlink:href="#DejaVuSans-46"/>
       <use x="538.953125" xlink:href="#DejaVuSans-72"/>
       <use x="580.066406" xlink:href="#DejaVuSans-61"/>
       <use x="641.345703" xlink:href="#DejaVuSans-6e"/>
       <use x="704.724609" xlink:href="#DejaVuSans-6b"/>
       <use x="762.634766" xlink:href="#DejaVuSans-6c"/>
       <use x="790.417969" xlink:href="#DejaVuSans-69"/>
       <use x="818.201172" xlink:href="#DejaVuSans-6e"/>
      </g>
     </g>
    </g>
    <g id="xtick_10">
     <g id="line2d_10">
      <g>
       <use style="stroke:#000000;stroke-width:0.8;" x="325.692898" xlink:href="#mc7339e257b" y="497.2625"/>
      </g>
     </g>
     <g id="text_10">
      <!-- Newton - Horace Mann -->
      <defs>
       <path d="M 9.8125 72.90625 
L 19.671875 72.90625 
L 19.671875 43.015625 
L 55.515625 43.015625 
L 55.515625 72.90625 
L 65.375 72.90625 
L 65.375 0 
L 55.515625 0 
L 55.515625 34.71875 
L 19.671875 34.71875 
L 19.671875 0 
L 9.8125 0 
z
" id="DejaVuSans-48"/>
       <path d="M 48.78125 52.59375 
L 48.78125 44.1875 
Q 44.96875 46.296875 41.140625 47.34375 
Q 37.3125 48.390625 33.40625 48.390625 
Q 24.65625 48.390625 19.8125 42.84375 
Q 14.984375 37.3125 14.984375 27.296875 
Q 14.984375 17.28125 19.8125 11.734375 
Q 24.65625 6.203125 33.40625 6.203125 
Q 37.3125 6.203125 41.140625 7.25 
Q 44.96875 8.296875 48.78125 10.40625 
L 48.78125 2.09375 
Q 45.015625 0.34375 40.984375 -0.53125 
Q 36.96875 -1.421875 32.421875 -1.421875 
Q 20.0625 -1.421875 12.78125 6.34375 
Q 5.515625 14.109375 5.515625 27.296875 
Q 5.515625 40.671875 12.859375 48.328125 
Q 20.21875 56 33.015625 56 
Q 37.15625 56 41.109375 55.140625 
Q 45.0625 54.296875 48.78125 52.59375 
z
" id="DejaVuSans-63"/>
      </defs>
      <g transform="translate(328.452273 618.554688)rotate(-90)scale(0.1 -0.1)">
       <use xlink:href="#DejaVuSans-4e"/>
       <use x="74.804688" xlink:href="#DejaVuSans-65"/>
       <use x="136.328125" xlink:href="#DejaVuSans-77"/>
       <use x="218.115234" xlink:href="#DejaVuSans-74"/>
       <use x="257.324219" xlink:href="#DejaVuSans-6f"/>
       <use x="318.505859" xlink:href="#DejaVuSans-6e"/>
       <use x="381.884766" xlink:href="#DejaVuSans-20"/>
       <use x="413.671875" xlink:href="#DejaVuSans-2d"/>
       <use x="449.755859" xlink:href="#DejaVuSans-20"/>
       <use x="481.542969" xlink:href="#DejaVuSans-48"/>
       <use x="556.738281" xlink:href="#DejaVuSans-6f"/>
       <use x="617.919922" xlink:href="#DejaVuSans-72"/>
       <use x="659.033203" xlink:href="#DejaVuSans-61"/>
       <use x="720.3125" xlink:href="#DejaVuSans-63"/>
       <use x="775.292969" xlink:href="#DejaVuSans-65"/>
       <use x="836.816406" xlink:href="#DejaVuSans-20"/>
       <use x="868.603516" xlink:href="#DejaVuSans-4d"/>
       <use x="954.882812" xlink:href="#DejaVuSans-61"/>
       <use x="1016.162109" xlink:href="#DejaVuSans-6e"/>
       <use x="1079.541016" xlink:href="#DejaVuSans-6e"/>
      </g>
     </g>
    </g>
    <g id="xtick_11">
     <g id="line2d_11">
      <g>
       <use style="stroke:#000000;stroke-width:0.8;" x="356.093466" xlink:href="#mc7339e257b" y="497.2625"/>
      </g>
     </g>
     <g id="text_11">
      <!-- Newton - John Ward -->
      <defs>
       <path d="M 9.8125 72.90625 
L 19.671875 72.90625 
L 19.671875 5.078125 
Q 19.671875 -8.109375 14.671875 -14.0625 
Q 9.671875 -20.015625 -1.421875 -20.015625 
L -5.171875 -20.015625 
L -5.171875 -11.71875 
L -2.09375 -11.71875 
Q 4.4375 -11.71875 7.125 -8.046875 
Q 9.8125 -4.390625 9.8125 5.078125 
z
" id="DejaVuSans-4a"/>
       <path d="M 3.328125 72.90625 
L 13.28125 72.90625 
L 28.609375 11.28125 
L 43.890625 72.90625 
L 54.984375 72.90625 
L 70.3125 11.28125 
L 85.59375 72.90625 
L 95.609375 72.90625 
L 77.296875 0 
L 64.890625 0 
L 49.515625 63.28125 
L 33.984375 0 
L 21.578125 0 
z
" id="DejaVuSans-57"/>
      </defs>
      <g transform="translate(358.852841 603.801563)rotate(-90)scale(0.1 -0.1)">
       <use xlink:href="#DejaVuSans-4e"/>
       <use x="74.804688" xlink:href="#DejaVuSans-65"/>
       <use x="136.328125" xlink:href="#DejaVuSans-77"/>
       <use x="218.115234" xlink:href="#DejaVuSans-74"/>
       <use x="257.324219" xlink:href="#DejaVuSans-6f"/>
       <use x="318.505859" xlink:href="#DejaVuSans-6e"/>
       <use x="381.884766" xlink:href="#DejaVuSans-20"/>
       <use x="413.671875" xlink:href="#DejaVuSans-2d"/>
       <use x="449.755859" xlink:href="#DejaVuSans-20"/>
       <use x="481.542969" xlink:href="#DejaVuSans-4a"/>
       <use x="511.035156" xlink:href="#DejaVuSans-6f"/>
       <use x="572.216797" xlink:href="#DejaVuSans-68"/>
       <use x="635.595703" xlink:href="#DejaVuSans-6e"/>
       <use x="698.974609" xlink:href="#DejaVuSans-20"/>
       <use x="730.761719" xlink:href="#DejaVuSans-57"/>
       <use x="829.544922" xlink:href="#DejaVuSans-61"/>
       <use x="890.824219" xlink:href="#DejaVuSans-72"/>
       <use x="931.921875" xlink:href="#DejaVuSans-64"/>
      </g>
     </g>
    </g>
    <g id="xtick_12">
     <g id="line2d_12">
      <g>
       <use style="stroke:#000000;stroke-width:0.8;" x="386.494034" xlink:href="#mc7339e257b" y="497.2625"/>
      </g>
     </g>
     <g id="text_12">
      <!-- Newton - Lincoln-Eliot -->
      <defs>
       <path d="M 9.8125 72.90625 
L 19.671875 72.90625 
L 19.671875 8.296875 
L 55.171875 8.296875 
L 55.171875 0 
L 9.8125 0 
z
" id="DejaVuSans-4c"/>
      </defs>
      <g transform="translate(389.253409 613.357813)rotate(-90)scale(0.1 -0.1)">
       <use xlink:href="#DejaVuSans-4e"/>
       <use x="74.804688" xlink:href="#DejaVuSans-65"/>
       <use x="136.328125" xlink:href="#DejaVuSans-77"/>
       <use x="218.115234" xlink:href="#DejaVuSans-74"/>
       <use x="257.324219" xlink:href="#DejaVuSans-6f"/>
       <use x="318.505859" xlink:href="#DejaVuSans-6e"/>
       <use x="381.884766" xlink:href="#DejaVuSans-20"/>
       <use x="413.671875" xlink:href="#DejaVuSans-2d"/>
       <use x="449.755859" xlink:href="#DejaVuSans-20"/>
       <use x="481.542969" xlink:href="#DejaVuSans-4c"/>
       <use x="537.255859" xlink:href="#DejaVuSans-69"/>
       <use x="565.039062" xlink:href="#DejaVuSans-6e"/>
       <use x="628.417969" xlink:href="#DejaVuSans-63"/>
       <use x="683.398438" xlink:href="#DejaVuSans-6f"/>
       <use x="744.580078" xlink:href="#DejaVuSans-6c"/>
       <use x="772.363281" xlink:href="#DejaVuSans-6e"/>
       <use x="835.742188" xlink:href="#DejaVuSans-2d"/>
       <use x="871.826172" xlink:href="#DejaVuSans-45"/>
       <use x="935.009766" xlink:href="#DejaVuSans-6c"/>
       <use x="962.792969" xlink:href="#DejaVuSans-69"/>
       <use x="990.576172" xlink:href="#DejaVuSans-6f"/>
       <use x="1051.757812" xlink:href="#DejaVuSans-74"/>
      </g>
     </g>
    </g>
    <g id="xtick_13">
     <g id="line2d_13">
      <g>
       <use style="stroke:#000000;stroke-width:0.8;" x="416.894602" xlink:href="#mc7339e257b" y="497.2625"/>
      </g>
     </g>
     <g id="text_13">
      <!-- Newton - Mason-Rice -->
      <defs>
       <path d="M 44.390625 34.1875 
Q 47.5625 33.109375 50.5625 29.59375 
Q 53.5625 26.078125 56.59375 19.921875 
L 66.609375 0 
L 56 0 
L 46.6875 18.703125 
Q 43.0625 26.03125 39.671875 28.421875 
Q 36.28125 30.8125 30.421875 30.8125 
L 19.671875 30.8125 
L 19.671875 0 
L 9.8125 0 
L 9.8125 72.90625 
L 32.078125 72.90625 
Q 44.578125 72.90625 50.734375 67.671875 
Q 56.890625 62.453125 56.890625 51.90625 
Q 56.890625 45.015625 53.6875 40.46875 
Q 50.484375 35.9375 44.390625 34.1875 
z
M 19.671875 64.796875 
L 19.671875 38.921875 
L 32.078125 38.921875 
Q 39.203125 38.921875 42.84375 42.21875 
Q 46.484375 45.515625 46.484375 51.90625 
Q 46.484375 58.296875 42.84375 61.546875 
Q 39.203125 64.796875 32.078125 64.796875 
z
" id="DejaVuSans-52"/>
      </defs>
      <g transform="translate(419.653977 609.823437)rotate(-90)scale(0.1 -0.1)">
       <use xlink:href="#DejaVuSans-4e"/>
       <use x="74.804688" xlink:href="#DejaVuSans-65"/>
       <use x="136.328125" xlink:href="#DejaVuSans-77"/>
       <use x="218.115234" xlink:href="#DejaVuSans-74"/>
       <use x="257.324219" xlink:href="#DejaVuSans-6f"/>
       <use x="318.505859" xlink:href="#DejaVuSans-6e"/>
       <use x="381.884766" xlink:href="#DejaVuSans-20"/>
       <use x="413.671875" xlink:href="#DejaVuSans-2d"/>
       <use x="449.755859" xlink:href="#DejaVuSans-20"/>
       <use x="481.542969" xlink:href="#DejaVuSans-4d"/>
       <use x="567.822266" xlink:href="#DejaVuSans-61"/>
       <use x="629.101562" xlink:href="#DejaVuSans-73"/>
       <use x="681.201172" xlink:href="#DejaVuSans-6f"/>
       <use x="742.382812" xlink:href="#DejaVuSans-6e"/>
       <use x="805.761719" xlink:href="#DejaVuSans-2d"/>
       <use x="841.845703" xlink:href="#DejaVuSans-52"/>
       <use x="911.328125" xlink:href="#DejaVuSans-69"/>
       <use x="939.111328" xlink:href="#DejaVuSans-63"/>
       <use x="994.091797" xlink:href="#DejaVuSans-65"/>
      </g>
     </g>
    </g>
    <g id="xtick_14">
     <g id="line2d_14">
      <g>
       <use style="stroke:#000000;stroke-width:0.8;" x="447.29517" xlink:href="#mc7339e257b" y="497.2625"/>
      </g>
     </g>
     <g id="text_14">
      <!-- Newton - Memorial Spaulding -->
      <defs>
       <path d="M 52 44.1875 
Q 55.375 50.25 60.0625 53.125 
Q 64.75 56 71.09375 56 
Q 79.640625 56 84.28125 50.015625 
Q 88.921875 44.046875 88.921875 33.015625 
L 88.921875 0 
L 79.890625 0 
L 79.890625 32.71875 
Q 79.890625 40.578125 77.09375 44.375 
Q 74.3125 48.1875 68.609375 48.1875 
Q 61.625 48.1875 57.5625 43.546875 
Q 53.515625 38.921875 53.515625 30.90625 
L 53.515625 0 
L 44.484375 0 
L 44.484375 32.71875 
Q 44.484375 40.625 41.703125 44.40625 
Q 38.921875 48.1875 33.109375 48.1875 
Q 26.21875 48.1875 22.15625 43.53125 
Q 18.109375 38.875 18.109375 30.90625 
L 18.109375 0 
L 9.078125 0 
L 9.078125 54.6875 
L 18.109375 54.6875 
L 18.109375 46.1875 
Q 21.1875 51.21875 25.484375 53.609375 
Q 29.78125 56 35.6875 56 
Q 41.65625 56 45.828125 52.96875 
Q 50 49.953125 52 44.1875 
z
" id="DejaVuSans-6d"/>
       <path d="M 53.515625 70.515625 
L 53.515625 60.890625 
Q 47.90625 63.578125 42.921875 64.890625 
Q 37.9375 66.21875 33.296875 66.21875 
Q 25.25 66.21875 20.875 63.09375 
Q 16.5 59.96875 16.5 54.203125 
Q 16.5 49.359375 19.40625 46.890625 
Q 22.3125 44.4375 30.421875 42.921875 
L 36.375 41.703125 
Q 47.40625 39.59375 52.65625 34.296875 
Q 57.90625 29 57.90625 20.125 
Q 57.90625 9.515625 50.796875 4.046875 
Q 43.703125 -1.421875 29.984375 -1.421875 
Q 24.8125 -1.421875 18.96875 -0.25 
Q 13.140625 0.921875 6.890625 3.21875 
L 6.890625 13.375 
Q 12.890625 10.015625 18.65625 8.296875 
Q 24.421875 6.59375 29.984375 6.59375 
Q 38.421875 6.59375 43.015625 9.90625 
Q 47.609375 13.234375 47.609375 19.390625 
Q 47.609375 24.75 44.3125 27.78125 
Q 41.015625 30.8125 33.5 32.328125 
L 27.484375 33.5 
Q 16.453125 35.6875 11.515625 40.375 
Q 6.59375 45.0625 6.59375 53.421875 
Q 6.59375 63.09375 13.40625 68.65625 
Q 20.21875 74.21875 32.171875 74.21875 
Q 37.3125 74.21875 42.625 73.28125 
Q 47.953125 72.359375 53.515625 70.515625 
z
" id="DejaVuSans-53"/>
       <path d="M 18.109375 8.203125 
L 18.109375 -20.796875 
L 9.078125 -20.796875 
L 9.078125 54.6875 
L 18.109375 54.6875 
L 18.109375 46.390625 
Q 20.953125 51.265625 25.265625 53.625 
Q 29.59375 56 35.59375 56 
Q 45.5625 56 51.78125 48.09375 
Q 58.015625 40.1875 58.015625 27.296875 
Q 58.015625 14.40625 51.78125 6.484375 
Q 45.5625 -1.421875 35.59375 -1.421875 
Q 29.59375 -1.421875 25.265625 0.953125 
Q 20.953125 3.328125 18.109375 8.203125 
z
M 48.6875 27.296875 
Q 48.6875 37.203125 44.609375 42.84375 
Q 40.53125 48.484375 33.40625 48.484375 
Q 26.265625 48.484375 22.1875 42.84375 
Q 18.109375 37.203125 18.109375 27.296875 
Q 18.109375 17.390625 22.1875 11.75 
Q 26.265625 6.109375 33.40625 6.109375 
Q 40.53125 6.109375 44.609375 11.75 
Q 48.6875 17.390625 48.6875 27.296875 
z
" id="DejaVuSans-70"/>
      </defs>
      <g transform="translate(450.054545 651.782812)rotate(-90)scale(0.1 -0.1)">
       <use xlink:href="#DejaVuSans-4e"/>
       <use x="74.804688" xlink:href="#DejaVuSans-65"/>
       <use x="136.328125" xlink:href="#DejaVuSans-77"/>
       <use x="218.115234" xlink:href="#DejaVuSans-74"/>
       <use x="257.324219" xlink:href="#DejaVuSans-6f"/>
       <use x="318.505859" xlink:href="#DejaVuSans-6e"/>
       <use x="381.884766" xlink:href="#DejaVuSans-20"/>
       <use x="413.671875" xlink:href="#DejaVuSans-2d"/>
       <use x="449.755859" xlink:href="#DejaVuSans-20"/>
       <use x="481.542969" xlink:href="#DejaVuSans-4d"/>
       <use x="567.822266" xlink:href="#DejaVuSans-65"/>
       <use x="629.345703" xlink:href="#DejaVuSans-6d"/>
       <use x="726.757812" xlink:href="#DejaVuSans-6f"/>
       <use x="787.939453" xlink:href="#DejaVuSans-72"/>
       <use x="829.052734" xlink:href="#DejaVuSans-69"/>
       <use x="856.835938" xlink:href="#DejaVuSans-61"/>
       <use x="918.115234" xlink:href="#DejaVuSans-6c"/>
       <use x="945.898438" xlink:href="#DejaVuSans-20"/>
       <use x="977.685547" xlink:href="#DejaVuSans-53"/>
       <use x="1041.162109" xlink:href="#DejaVuSans-70"/>
       <use x="1104.638672" xlink:href="#DejaVuSans-61"/>
       <use x="1165.917969" xlink:href="#DejaVuSans-75"/>
       <use x="1229.296875" xlink:href="#DejaVuSans-6c"/>
       <use x="1257.080078" xlink:href="#DejaVuSans-64"/>
       <use x="1320.556641" xlink:href="#DejaVuSans-69"/>
       <use x="1348.339844" xlink:href="#DejaVuSans-6e"/>
       <use x="1411.71875" xlink:href="#DejaVuSans-67"/>
      </g>
     </g>
    </g>
    <g id="xtick_15">
     <g id="line2d_15">
      <g>
       <use style="stroke:#000000;stroke-width:0.8;" x="477.695739" xlink:href="#mc7339e257b" y="497.2625"/>
      </g>
     </g>
     <g id="text_15">
      <!-- Newton - Newton Early Childhood Center -->
      <g transform="translate(480.455114 709.2)rotate(-90)scale(0.1 -0.1)">
       <use xlink:href="#DejaVuSans-4e"/>
       <use x="74.804688" xlink:href="#DejaVuSans-65"/>
       <use x="136.328125" xlink:href="#DejaVuSans-77"/>
       <use x="218.115234" xlink:href="#DejaVuSans-74"/>
       <use x="257.324219" xlink:href="#DejaVuSans-6f"/>
       <use x="318.505859" xlink:href="#DejaVuSans-6e"/>
       <use x="381.884766" xlink:href="#DejaVuSans-20"/>
       <use x="413.671875" xlink:href="#DejaVuSans-2d"/>
       <use x="449.755859" xlink:href="#DejaVuSans-20"/>
       <use x="481.542969" xlink:href="#DejaVuSans-4e"/>
       <use x="556.347656" xlink:href="#DejaVuSans-65"/>
       <use x="617.871094" xlink:href="#DejaVuSans-77"/>
       <use x="699.658203" xlink:href="#DejaVuSans-74"/>
       <use x="738.867188" xlink:href="#DejaVuSans-6f"/>
       <use x="800.048828" xlink:href="#DejaVuSans-6e"/>
       <use x="863.427734" xlink:href="#DejaVuSans-20"/>
       <use x="895.214844" xlink:href="#DejaVuSans-45"/>
       <use x="958.398438" xlink:href="#DejaVuSans-61"/>
       <use x="1019.677734" xlink:href="#DejaVuSans-72"/>
       <use x="1060.791016" xlink:href="#DejaVuSans-6c"/>
       <use x="1088.574219" xlink:href="#DejaVuSans-79"/>
       <use x="1147.753906" xlink:href="#DejaVuSans-20"/>
       <use x="1179.541016" xlink:href="#DejaVuSans-43"/>
       <use x="1249.365234" xlink:href="#DejaVuSans-68"/>
       <use x="1312.744141" xlink:href="#DejaVuSans-69"/>
       <use x="1340.527344" xlink:href="#DejaVuSans-6c"/>
       <use x="1368.310547" xlink:href="#DejaVuSans-64"/>
       <use x="1431.787109" xlink:href="#DejaVuSans-68"/>
       <use x="1495.166016" xlink:href="#DejaVuSans-6f"/>
       <use x="1556.347656" xlink:href="#DejaVuSans-6f"/>
       <use x="1617.529297" xlink:href="#DejaVuSans-64"/>
       <use x="1681.005859" xlink:href="#DejaVuSans-20"/>
       <use x="1712.792969" xlink:href="#DejaVuSans-43"/>
       <use x="1782.617188" xlink:href="#DejaVuSans-65"/>
       <use x="1844.140625" xlink:href="#DejaVuSans-6e"/>
       <use x="1907.519531" xlink:href="#DejaVuSans-74"/>
       <use x="1946.728516" xlink:href="#DejaVuSans-65"/>
       <use x="2008.251953" xlink:href="#DejaVuSans-72"/>
      </g>
     </g>
    </g>
    <g id="xtick_16">
     <g id="line2d_16">
      <g>
       <use style="stroke:#000000;stroke-width:0.8;" x="508.096307" xlink:href="#mc7339e257b" y="497.2625"/>
      </g>
     </g>
     <g id="text_16">
      <!-- Newton - Newton North High -->
      <g transform="translate(510.855682 647.914062)rotate(-90)scale(0.1 -0.1)">
       <use xlink:href="#DejaVuSans-4e"/>
       <use x="74.804688" xlink:href="#DejaVuSans-65"/>
       <use x="136.328125" xlink:href="#DejaVuSans-77"/>
       <use x="218.115234" xlink:href="#DejaVuSans-74"/>
       <use x="257.324219" xlink:href="#DejaVuSans-6f"/>
       <use x="318.505859" xlink:href="#DejaVuSans-6e"/>
       <use x="381.884766" xlink:href="#DejaVuSans-20"/>
       <use x="413.671875" xlink:href="#DejaVuSans-2d"/>
       <use x="449.755859" xlink:href="#DejaVuSans-20"/>
       <use x="481.542969" xlink:href="#DejaVuSans-4e"/>
       <use x="556.347656" xlink:href="#DejaVuSans-65"/>
       <use x="617.871094" xlink:href="#DejaVuSans-77"/>
       <use x="699.658203" xlink:href="#DejaVuSans-74"/>
       <use x="738.867188" xlink:href="#DejaVuSans-6f"/>
       <use x="800.048828" xlink:href="#DejaVuSans-6e"/>
       <use x="863.427734" xlink:href="#DejaVuSans-20"/>
       <use x="895.214844" xlink:href="#DejaVuSans-4e"/>
       <use x="970.019531" xlink:href="#DejaVuSans-6f"/>
       <use x="1031.201172" xlink:href="#DejaVuSans-72"/>
       <use x="1072.314453" xlink:href="#DejaVuSans-74"/>
       <use x="1111.523438" xlink:href="#DejaVuSans-68"/>
       <use x="1174.902344" xlink:href="#DejaVuSans-20"/>
       <use x="1206.689453" xlink:href="#DejaVuSans-48"/>
       <use x="1281.884766" xlink:href="#DejaVuSans-69"/>
       <use x="1309.667969" xlink:href="#DejaVuSans-67"/>
       <use x="1373.144531" xlink:href="#DejaVuSans-68"/>
      </g>
     </g>
    </g>
    <g id="xtick_17">
     <g id="line2d_17">
      <g>
       <use style="stroke:#000000;stroke-width:0.8;" x="538.496875" xlink:href="#mc7339e257b" y="497.2625"/>
      </g>
     </g>
     <g id="text_17">
      <!-- Newton - Newton South High -->
      <g transform="translate(541.25625 649.007812)rotate(-90)scale(0.1 -0.1)">
       <use xlink:href="#DejaVuSans-4e"/>
       <use x="74.804688" xlink:href="#DejaVuSans-65"/>
       <use x="136.328125" xlink:href="#DejaVuSans-77"/>
       <use x="218.115234" xlink:href="#DejaVuSans-74"/>
       <use x="257.324219" xlink:href="#DejaVuSans-6f"/>
       <use x="318.505859" xlink:href="#DejaVuSans-6e"/>
       <use x="381.884766" xlink:href="#DejaVuSans-20"/>
       <use x="413.671875" xlink:href="#DejaVuSans-2d"/>
       <use x="449.755859" xlink:href="#DejaVuSans-20"/>
       <use x="481.542969" xlink:href="#DejaVuSans-4e"/>
       <use x="556.347656" xlink:href="#DejaVuSans-65"/>
       <use x="617.871094" xlink:href="#DejaVuSans-77"/>
       <use x="699.658203" xlink:href="#DejaVuSans-74"/>
       <use x="738.867188" xlink:href="#DejaVuSans-6f"/>
       <use x="800.048828" xlink:href="#DejaVuSans-6e"/>
       <use x="863.427734" xlink:href="#DejaVuSans-20"/>
       <use x="895.214844" xlink:href="#DejaVuSans-53"/>
       <use x="958.691406" xlink:href="#DejaVuSans-6f"/>
       <use x="1019.873047" xlink:href="#DejaVuSans-75"/>
       <use x="1083.251953" xlink:href="#DejaVuSans-74"/>
       <use x="1122.460938" xlink:href="#DejaVuSans-68"/>
       <use x="1185.839844" xlink:href="#DejaVuSans-20"/>
       <use x="1217.626953" xlink:href="#DejaVuSans-48"/>
       <use x="1292.822266" xlink:href="#DejaVuSans-69"/>
       <use x="1320.605469" xlink:href="#DejaVuSans-67"/>
       <use x="1384.082031" xlink:href="#DejaVuSans-68"/>
      </g>
     </g>
    </g>
    <g id="xtick_18">
     <g id="line2d_18">
      <g>
       <use style="stroke:#000000;stroke-width:0.8;" x="568.897443" xlink:href="#mc7339e257b" y="497.2625"/>
      </g>
     </g>
     <g id="text_18">
      <!-- Newton - Oak Hill Middle -->
      <defs>
       <path d="M 39.40625 66.21875 
Q 28.65625 66.21875 22.328125 58.203125 
Q 16.015625 50.203125 16.015625 36.375 
Q 16.015625 22.609375 22.328125 14.59375 
Q 28.65625 6.59375 39.40625 6.59375 
Q 50.140625 6.59375 56.421875 14.59375 
Q 62.703125 22.609375 62.703125 36.375 
Q 62.703125 50.203125 56.421875 58.203125 
Q 50.140625 66.21875 39.40625 66.21875 
z
M 39.40625 74.21875 
Q 54.734375 74.21875 63.90625 63.9375 
Q 73.09375 53.65625 73.09375 36.375 
Q 73.09375 19.140625 63.90625 8.859375 
Q 54.734375 -1.421875 39.40625 -1.421875 
Q 24.03125 -1.421875 14.8125 8.828125 
Q 5.609375 19.09375 5.609375 36.375 
Q 5.609375 53.65625 14.8125 63.9375 
Q 24.03125 74.21875 39.40625 74.21875 
z
" id="DejaVuSans-4f"/>
      </defs>
      <g transform="translate(571.656818 627.451563)rotate(-90)scale(0.1 -0.1)">
       <use xlink:href="#DejaVuSans-4e"/>
       <use x="74.804688" xlink:href="#DejaVuSans-65"/>
       <use x="136.328125" xlink:href="#DejaVuSans-77"/>
       <use x="218.115234" xlink:href="#DejaVuSans-74"/>
       <use x="257.324219" xlink:href="#DejaVuSans-6f"/>
       <use x="318.505859" xlink:href="#DejaVuSans-6e"/>
       <use x="381.884766" xlink:href="#DejaVuSans-20"/>
       <use x="413.671875" xlink:href="#DejaVuSans-2d"/>
       <use x="449.755859" xlink:href="#DejaVuSans-20"/>
       <use x="481.542969" xlink:href="#DejaVuSans-4f"/>
       <use x="560.253906" xlink:href="#DejaVuSans-61"/>
       <use x="621.533203" xlink:href="#DejaVuSans-6b"/>
       <use x="679.443359" xlink:href="#DejaVuSans-20"/>
       <use x="711.230469" xlink:href="#DejaVuSans-48"/>
       <use x="786.425781" xlink:href="#DejaVuSans-69"/>
       <use x="814.208984" xlink:href="#DejaVuSans-6c"/>
       <use x="841.992188" xlink:href="#DejaVuSans-6c"/>
       <use x="869.775391" xlink:href="#DejaVuSans-20"/>
       <use x="901.5625" xlink:href="#DejaVuSans-4d"/>
       <use x="987.841797" xlink:href="#DejaVuSans-69"/>
       <use x="1015.625" xlink:href="#DejaVuSans-64"/>
       <use x="1079.101562" xlink:href="#DejaVuSans-64"/>
       <use x="1142.578125" xlink:href="#DejaVuSans-6c"/>
       <use x="1170.361328" xlink:href="#DejaVuSans-65"/>
      </g>
     </g>
    </g>
    <g id="xtick_19">
     <g id="line2d_19">
      <g>
       <use style="stroke:#000000;stroke-width:0.8;" x="599.298011" xlink:href="#mc7339e257b" y="497.2625"/>
      </g>
     </g>
     <g id="text_19">
      <!-- Newton - Peirce -->
      <defs>
       <path d="M 19.671875 64.796875 
L 19.671875 37.40625 
L 32.078125 37.40625 
Q 38.96875 37.40625 42.71875 40.96875 
Q 46.484375 44.53125 46.484375 51.125 
Q 46.484375 57.671875 42.71875 61.234375 
Q 38.96875 64.796875 32.078125 64.796875 
z
M 9.8125 72.90625 
L 32.078125 72.90625 
Q 44.34375 72.90625 50.609375 67.359375 
Q 56.890625 61.8125 56.890625 51.125 
Q 56.890625 40.328125 50.609375 34.8125 
Q 44.34375 29.296875 32.078125 29.296875 
L 19.671875 29.296875 
L 19.671875 0 
L 9.8125 0 
z
" id="DejaVuSans-50"/>
      </defs>
      <g transform="translate(602.057386 583.13125)rotate(-90)scale(0.1 -0.1)">
       <use xlink:href="#DejaVuSans-4e"/>
       <use x="74.804688" xlink:href="#DejaVuSans-65"/>
       <use x="136.328125" xlink:href="#DejaVuSans-77"/>
       <use x="218.115234" xlink:href="#DejaVuSans-74"/>
       <use x="257.324219" xlink:href="#DejaVuSans-6f"/>
       <use x="318.505859" xlink:href="#DejaVuSans-6e"/>
       <use x="381.884766" xlink:href="#DejaVuSans-20"/>
       <use x="413.671875" xlink:href="#DejaVuSans-2d"/>
       <use x="449.755859" xlink:href="#DejaVuSans-20"/>
       <use x="481.542969" xlink:href="#DejaVuSans-50"/>
       <use x="541.798828" xlink:href="#DejaVuSans-65"/>
       <use x="603.322266" xlink:href="#DejaVuSans-69"/>
       <use x="631.105469" xlink:href="#DejaVuSans-72"/>
       <use x="672.1875" xlink:href="#DejaVuSans-63"/>
       <use x="727.167969" xlink:href="#DejaVuSans-65"/>
      </g>
     </g>
    </g>
    <g id="xtick_20">
     <g id="line2d_20">
      <g>
       <use style="stroke:#000000;stroke-width:0.8;" x="629.69858" xlink:href="#mc7339e257b" y="497.2625"/>
      </g>
     </g>
     <g id="text_20">
      <!-- Newton - Underwood -->
      <defs>
       <path d="M 8.6875 72.90625 
L 18.609375 72.90625 
L 18.609375 28.609375 
Q 18.609375 16.890625 22.84375 11.734375 
Q 27.09375 6.59375 36.625 6.59375 
Q 46.09375 6.59375 50.34375 11.734375 
Q 54.59375 16.890625 54.59375 28.609375 
L 54.59375 72.90625 
L 64.5 72.90625 
L 64.5 27.390625 
Q 64.5 13.140625 57.4375 5.859375 
Q 50.390625 -1.421875 36.625 -1.421875 
Q 22.796875 -1.421875 15.734375 5.859375 
Q 8.6875 13.140625 8.6875 27.390625 
z
" id="DejaVuSans-55"/>
      </defs>
      <g transform="translate(632.457955 609.448437)rotate(-90)scale(0.1 -0.1)">
       <use xlink:href="#DejaVuSans-4e"/>
       <use x="74.804688" xlink:href="#DejaVuSans-65"/>
       <use x="136.328125" xlink:href="#DejaVuSans-77"/>
       <use x="218.115234" xlink:href="#DejaVuSans-74"/>
       <use x="257.324219" xlink:href="#DejaVuSans-6f"/>
       <use x="318.505859" xlink:href="#DejaVuSans-6e"/>
       <use x="381.884766" xlink:href="#DejaVuSans-20"/>
       <use x="413.671875" xlink:href="#DejaVuSans-2d"/>
       <use x="449.755859" xlink:href="#DejaVuSans-20"/>
       <use x="481.542969" xlink:href="#DejaVuSans-55"/>
       <use x="554.736328" xlink:href="#DejaVuSans-6e"/>
       <use x="618.115234" xlink:href="#DejaVuSans-64"/>
       <use x="681.591797" xlink:href="#DejaVuSans-65"/>
       <use x="743.115234" xlink:href="#DejaVuSans-72"/>
       <use x="784.228516" xlink:href="#DejaVuSans-77"/>
       <use x="866.015625" xlink:href="#DejaVuSans-6f"/>
       <use x="927.197266" xlink:href="#DejaVuSans-6f"/>
       <use x="988.378906" xlink:href="#DejaVuSans-64"/>
      </g>
     </g>
    </g>
    <g id="xtick_21">
     <g id="line2d_21">
      <g>
       <use style="stroke:#000000;stroke-width:0.8;" x="660.099148" xlink:href="#mc7339e257b" y="497.2625"/>
      </g>
     </g>
     <g id="text_21">
      <!-- Newton - Williams -->
      <g transform="translate(662.858523 594.490625)rotate(-90)scale(0.1 -0.1)">
       <use xlink:href="#DejaVuSans-4e"/>
       <use x="74.804688" xlink:href="#DejaVuSans-65"/>
       <use x="136.328125" xlink:href="#DejaVuSans-77"/>
       <use x="218.115234" xlink:href="#DejaVuSans-74"/>
       <use x="257.324219" xlink:href="#DejaVuSans-6f"/>
       <use x="318.505859" xlink:href="#DejaVuSans-6e"/>
       <use x="381.884766" xlink:href="#DejaVuSans-20"/>
       <use x="413.671875" xlink:href="#DejaVuSans-2d"/>
       <use x="449.755859" xlink:href="#DejaVuSans-20"/>
       <use x="481.542969" xlink:href="#DejaVuSans-57"/>
       <use x="580.388672" xlink:href="#DejaVuSans-69"/>
       <use x="608.171875" xlink:href="#DejaVuSans-6c"/>
       <use x="635.955078" xlink:href="#DejaVuSans-6c"/>
       <use x="663.738281" xlink:href="#DejaVuSans-69"/>
       <use x="691.521484" xlink:href="#DejaVuSans-61"/>
       <use x="752.800781" xlink:href="#DejaVuSans-6d"/>
       <use x="850.212891" xlink:href="#DejaVuSans-73"/>
      </g>
     </g>
    </g>
    <g id="xtick_22">
     <g id="line2d_22">
      <g>
       <use style="stroke:#000000;stroke-width:0.8;" x="690.499716" xlink:href="#mc7339e257b" y="497.2625"/>
      </g>
     </g>
     <g id="text_22">
      <!-- Newton - Zervas -->
      <defs>
       <path d="M 5.609375 72.90625 
L 62.890625 72.90625 
L 62.890625 65.375 
L 16.796875 8.296875 
L 64.015625 8.296875 
L 64.015625 0 
L 4.5 0 
L 4.5 7.515625 
L 50.59375 64.59375 
L 5.609375 64.59375 
z
" id="DejaVuSans-5a"/>
       <path d="M 2.984375 54.6875 
L 12.5 54.6875 
L 29.59375 8.796875 
L 46.6875 54.6875 
L 56.203125 54.6875 
L 35.6875 0 
L 23.484375 0 
z
" id="DejaVuSans-76"/>
      </defs>
      <g transform="translate(693.259091 586.785938)rotate(-90)scale(0.1 -0.1)">
       <use xlink:href="#DejaVuSans-4e"/>
       <use x="74.804688" xlink:href="#DejaVuSans-65"/>
       <use x="136.328125" xlink:href="#DejaVuSans-77"/>
       <use x="218.115234" xlink:href="#DejaVuSans-74"/>
       <use x="257.324219" xlink:href="#DejaVuSans-6f"/>
       <use x="318.505859" xlink:href="#DejaVuSans-6e"/>
       <use x="381.884766" xlink:href="#DejaVuSans-20"/>
       <use x="413.671875" xlink:href="#DejaVuSans-2d"/>
       <use x="449.755859" xlink:href="#DejaVuSans-20"/>
       <use x="481.542969" xlink:href="#DejaVuSans-5a"/>
       <use x="550.048828" xlink:href="#DejaVuSans-65"/>
       <use x="611.572266" xlink:href="#DejaVuSans-72"/>
       <use x="652.685547" xlink:href="#DejaVuSans-76"/>
       <use x="711.865234" xlink:href="#DejaVuSans-61"/>
       <use x="773.144531" xlink:href="#DejaVuSans-73"/>
      </g>
     </g>
    </g>
   </g>
   <g id="matplotlib.axis_2">
    <g id="ytick_1">
     <g id="line2d_23">
      <defs>
       <path d="M 0 0 
L -3.5 0 
" id="m17dc5397d4" style="stroke:#000000;stroke-width:0.8;"/>
      </defs>
      <g>
       <use style="stroke:#000000;stroke-width:0.8;" x="36.8875" xlink:href="#m17dc5397d4" y="497.2625"/>
      </g>
     </g>
     <g id="text_23">
      <!-- 0 -->
      <defs>
       <path d="M 31.78125 66.40625 
Q 24.171875 66.40625 20.328125 58.90625 
Q 16.5 51.421875 16.5 36.375 
Q 16.5 21.390625 20.328125 13.890625 
Q 24.171875 6.390625 31.78125 6.390625 
Q 39.453125 6.390625 43.28125 13.890625 
Q 47.125 21.390625 47.125 36.375 
Q 47.125 51.421875 43.28125 58.90625 
Q 39.453125 66.40625 31.78125 66.40625 
z
M 31.78125 74.21875 
Q 44.046875 74.21875 50.515625 64.515625 
Q 56.984375 54.828125 56.984375 36.375 
Q 56.984375 17.96875 50.515625 8.265625 
Q 44.046875 -1.421875 31.78125 -1.421875 
Q 19.53125 -1.421875 13.0625 8.265625 
Q 6.59375 17.96875 6.59375 36.375 
Q 6.59375 54.828125 13.0625 64.515625 
Q 19.53125 74.21875 31.78125 74.21875 
z
" id="DejaVuSans-30"/>
      </defs>
      <g transform="translate(23.525 501.061719)scale(0.1 -0.1)">
       <use xlink:href="#DejaVuSans-30"/>
      </g>
     </g>
    </g>
    <g id="ytick_2">
     <g id="line2d_24">
      <g>
       <use style="stroke:#000000;stroke-width:0.8;" x="36.8875" xlink:href="#m17dc5397d4" y="406.180463"/>
      </g>
     </g>
     <g id="text_24">
      <!-- 20 -->
      <defs>
       <path d="M 19.1875 8.296875 
L 53.609375 8.296875 
L 53.609375 0 
L 7.328125 0 
L 7.328125 8.296875 
Q 12.9375 14.109375 22.625 23.890625 
Q 32.328125 33.6875 34.8125 36.53125 
Q 39.546875 41.84375 41.421875 45.53125 
Q 43.3125 49.21875 43.3125 52.78125 
Q 43.3125 58.59375 39.234375 62.25 
Q 35.15625 65.921875 28.609375 65.921875 
Q 23.96875 65.921875 18.8125 64.3125 
Q 13.671875 62.703125 7.8125 59.421875 
L 7.8125 69.390625 
Q 13.765625 71.78125 18.9375 73 
Q 24.125 74.21875 28.421875 74.21875 
Q 39.75 74.21875 46.484375 68.546875 
Q 53.21875 62.890625 53.21875 53.421875 
Q 53.21875 48.921875 51.53125 44.890625 
Q 49.859375 40.875 45.40625 35.40625 
Q 44.1875 33.984375 37.640625 27.21875 
Q 31.109375 20.453125 19.1875 8.296875 
z
" id="DejaVuSans-32"/>
      </defs>
      <g transform="translate(17.1625 409.979682)scale(0.1 -0.1)">
       <use xlink:href="#DejaVuSans-32"/>
       <use x="63.623047" xlink:href="#DejaVuSans-30"/>
      </g>
     </g>
    </g>
    <g id="ytick_3">
     <g id="line2d_25">
      <g>
       <use style="stroke:#000000;stroke-width:0.8;" x="36.8875" xlink:href="#m17dc5397d4" y="315.098426"/>
      </g>
     </g>
     <g id="text_25">
      <!-- 40 -->
      <defs>
       <path d="M 37.796875 64.3125 
L 12.890625 25.390625 
L 37.796875 25.390625 
z
M 35.203125 72.90625 
L 47.609375 72.90625 
L 47.609375 25.390625 
L 58.015625 25.390625 
L 58.015625 17.1875 
L 47.609375 17.1875 
L 47.609375 0 
L 37.796875 0 
L 37.796875 17.1875 
L 4.890625 17.1875 
L 4.890625 26.703125 
z
" id="DejaVuSans-34"/>
      </defs>
      <g transform="translate(17.1625 318.897645)scale(0.1 -0.1)">
       <use xlink:href="#DejaVuSans-34"/>
       <use x="63.623047" xlink:href="#DejaVuSans-30"/>
      </g>
     </g>
    </g>
    <g id="ytick_4">
     <g id="line2d_26">
      <g>
       <use style="stroke:#000000;stroke-width:0.8;" x="36.8875" xlink:href="#m17dc5397d4" y="224.01639"/>
      </g>
     </g>
     <g id="text_26">
      <!-- 60 -->
      <defs>
       <path d="M 33.015625 40.375 
Q 26.375 40.375 22.484375 35.828125 
Q 18.609375 31.296875 18.609375 23.390625 
Q 18.609375 15.53125 22.484375 10.953125 
Q 26.375 6.390625 33.015625 6.390625 
Q 39.65625 6.390625 43.53125 10.953125 
Q 47.40625 15.53125 47.40625 23.390625 
Q 47.40625 31.296875 43.53125 35.828125 
Q 39.65625 40.375 33.015625 40.375 
z
M 52.59375 71.296875 
L 52.59375 62.3125 
Q 48.875 64.0625 45.09375 64.984375 
Q 41.3125 65.921875 37.59375 65.921875 
Q 27.828125 65.921875 22.671875 59.328125 
Q 17.53125 52.734375 16.796875 39.40625 
Q 19.671875 43.65625 24.015625 45.921875 
Q 28.375 48.1875 33.59375 48.1875 
Q 44.578125 48.1875 50.953125 41.515625 
Q 57.328125 34.859375 57.328125 23.390625 
Q 57.328125 12.15625 50.6875 5.359375 
Q 44.046875 -1.421875 33.015625 -1.421875 
Q 20.359375 -1.421875 13.671875 8.265625 
Q 6.984375 17.96875 6.984375 36.375 
Q 6.984375 53.65625 15.1875 63.9375 
Q 23.390625 74.21875 37.203125 74.21875 
Q 40.921875 74.21875 44.703125 73.484375 
Q 48.484375 72.75 52.59375 71.296875 
z
" id="DejaVuSans-36"/>
      </defs>
      <g transform="translate(17.1625 227.815608)scale(0.1 -0.1)">
       <use xlink:href="#DejaVuSans-36"/>
       <use x="63.623047" xlink:href="#DejaVuSans-30"/>
      </g>
     </g>
    </g>
    <g id="ytick_5">
     <g id="line2d_27">
      <g>
       <use style="stroke:#000000;stroke-width:0.8;" x="36.8875" xlink:href="#m17dc5397d4" y="132.934353"/>
      </g>
     </g>
     <g id="text_27">
      <!-- 80 -->
      <defs>
       <path d="M 31.78125 34.625 
Q 24.75 34.625 20.71875 30.859375 
Q 16.703125 27.09375 16.703125 20.515625 
Q 16.703125 13.921875 20.71875 10.15625 
Q 24.75 6.390625 31.78125 6.390625 
Q 38.8125 6.390625 42.859375 10.171875 
Q 46.921875 13.96875 46.921875 20.515625 
Q 46.921875 27.09375 42.890625 30.859375 
Q 38.875 34.625 31.78125 34.625 
z
M 21.921875 38.8125 
Q 15.578125 40.375 12.03125 44.71875 
Q 8.5 49.078125 8.5 55.328125 
Q 8.5 64.0625 14.71875 69.140625 
Q 20.953125 74.21875 31.78125 74.21875 
Q 42.671875 74.21875 48.875 69.140625 
Q 55.078125 64.0625 55.078125 55.328125 
Q 55.078125 49.078125 51.53125 44.71875 
Q 48 40.375 41.703125 38.8125 
Q 48.828125 37.15625 52.796875 32.3125 
Q 56.78125 27.484375 56.78125 20.515625 
Q 56.78125 9.90625 50.3125 4.234375 
Q 43.84375 -1.421875 31.78125 -1.421875 
Q 19.734375 -1.421875 13.25 4.234375 
Q 6.78125 9.90625 6.78125 20.515625 
Q 6.78125 27.484375 10.78125 32.3125 
Q 14.796875 37.15625 21.921875 38.8125 
z
M 18.3125 54.390625 
Q 18.3125 48.734375 21.84375 45.5625 
Q 25.390625 42.390625 31.78125 42.390625 
Q 38.140625 42.390625 41.71875 45.5625 
Q 45.3125 48.734375 45.3125 54.390625 
Q 45.3125 60.0625 41.71875 63.234375 
Q 38.140625 66.40625 31.78125 66.40625 
Q 25.390625 66.40625 21.84375 63.234375 
Q 18.3125 60.0625 18.3125 54.390625 
z
" id="DejaVuSans-38"/>
      </defs>
      <g transform="translate(17.1625 136.733572)scale(0.1 -0.1)">
       <use xlink:href="#DejaVuSans-38"/>
       <use x="63.623047" xlink:href="#DejaVuSans-30"/>
      </g>
     </g>
    </g>
    <g id="ytick_6">
     <g id="line2d_28">
      <g>
       <use style="stroke:#000000;stroke-width:0.8;" x="36.8875" xlink:href="#m17dc5397d4" y="41.852316"/>
      </g>
     </g>
     <g id="text_28">
      <!-- 100 -->
      <defs>
       <path d="M 12.40625 8.296875 
L 28.515625 8.296875 
L 28.515625 63.921875 
L 10.984375 60.40625 
L 10.984375 69.390625 
L 28.421875 72.90625 
L 38.28125 72.90625 
L 38.28125 8.296875 
L 54.390625 8.296875 
L 54.390625 0 
L 12.40625 0 
z
" id="DejaVuSans-31"/>
      </defs>
      <g transform="translate(10.8 45.651535)scale(0.1 -0.1)">
       <use xlink:href="#DejaVuSans-31"/>
       <use x="63.623047" xlink:href="#DejaVuSans-30"/>
       <use x="127.246094" xlink:href="#DejaVuSans-30"/>
      </g>
     </g>
    </g>
   </g>
   <g id="patch_91">
    <path d="M 36.8875 497.2625 
L 36.8875 14.3 
" style="fill:none;stroke:#000000;stroke-linecap:square;stroke-linejoin:miter;stroke-width:0.8;"/>
   </g>
   <g id="patch_92">
    <path d="M 705.7 497.2625 
L 705.7 14.3 
" style="fill:none;stroke:#000000;stroke-linecap:square;stroke-linejoin:miter;stroke-width:0.8;"/>
   </g>
   <g id="patch_93">
    <path d="M 36.8875 497.2625 
L 705.7 497.2625 
" style="fill:none;stroke:#000000;stroke-linecap:square;stroke-linejoin:miter;stroke-width:0.8;"/>
   </g>
   <g id="patch_94">
    <path d="M 36.8875 14.3 
L 705.7 14.3 
" style="fill:none;stroke:#000000;stroke-linecap:square;stroke-linejoin:miter;stroke-width:0.8;"/>
   </g>
   <g id="legend_1">
    <g id="patch_95">
     <path d="M 609.496875 286.6375 
L 698.7 286.6375 
Q 700.7 286.6375 700.7 284.6375 
L 700.7 226.925 
Q 700.7 224.925 698.7 224.925 
L 609.496875 224.925 
Q 607.496875 224.925 607.496875 226.925 
L 607.496875 284.6375 
Q 607.496875 286.6375 609.496875 286.6375 
z
" style="fill:#ffffff;opacity:0.8;stroke:#cccccc;stroke-linejoin:miter;"/>
    </g>
    <g id="patch_96">
     <path d="M 611.496875 236.523438 
L 631.496875 236.523438 
L 631.496875 229.523438 
L 611.496875 229.523438 
z
" style="fill:#1f77b4;"/>
    </g>
    <g id="text_29">
     <!-- APercent -->
     <g transform="translate(639.496875 236.523438)scale(0.1 -0.1)">
      <use xlink:href="#DejaVuSans-41"/>
      <use x="68.408203" xlink:href="#DejaVuSans-50"/>
      <use x="128.664062" xlink:href="#DejaVuSans-65"/>
      <use x="190.1875" xlink:href="#DejaVuSans-72"/>
      <use x="231.269531" xlink:href="#DejaVuSans-63"/>
      <use x="286.25" xlink:href="#DejaVuSans-65"/>
      <use x="347.773438" xlink:href="#DejaVuSans-6e"/>
      <use x="411.152344" xlink:href="#DejaVuSans-74"/>
     </g>
    </g>
    <g id="patch_97">
     <path d="M 611.496875 251.201563 
L 631.496875 251.201563 
L 631.496875 244.201563 
L 611.496875 244.201563 
z
" style="fill:#ff7f0e;"/>
    </g>
    <g id="text_30">
     <!-- PPercent -->
     <g transform="translate(639.496875 251.201563)scale(0.1 -0.1)">
      <use xlink:href="#DejaVuSans-50"/>
      <use x="60.302734" xlink:href="#DejaVuSans-50"/>
      <use x="120.558594" xlink:href="#DejaVuSans-65"/>
      <use x="182.082031" xlink:href="#DejaVuSans-72"/>
      <use x="223.164062" xlink:href="#DejaVuSans-63"/>
      <use x="278.144531" xlink:href="#DejaVuSans-65"/>
      <use x="339.667969" xlink:href="#DejaVuSans-6e"/>
      <use x="403.046875" xlink:href="#DejaVuSans-74"/>
     </g>
    </g>
    <g id="patch_98">
     <path d="M 611.496875 265.879688 
L 631.496875 265.879688 
L 631.496875 258.879688 
L 611.496875 258.879688 
z
" style="fill:#2ca02c;"/>
    </g>
    <g id="text_31">
     <!-- NIPercent -->
     <defs>
      <path d="M 9.8125 72.90625 
L 19.671875 72.90625 
L 19.671875 0 
L 9.8125 0 
z
" id="DejaVuSans-49"/>
     </defs>
     <g transform="translate(639.496875 265.879688)scale(0.1 -0.1)">
      <use xlink:href="#DejaVuSans-4e"/>
      <use x="74.804688" xlink:href="#DejaVuSans-49"/>
      <use x="104.296875" xlink:href="#DejaVuSans-50"/>
      <use x="164.552734" xlink:href="#DejaVuSans-65"/>
      <use x="226.076172" xlink:href="#DejaVuSans-72"/>
      <use x="267.158203" xlink:href="#DejaVuSans-63"/>
      <use x="322.138672" xlink:href="#DejaVuSans-65"/>
      <use x="383.662109" xlink:href="#DejaVuSans-6e"/>
      <use x="447.041016" xlink:href="#DejaVuSans-74"/>
     </g>
    </g>
    <g id="patch_99">
     <path d="M 611.496875 280.557813 
L 631.496875 280.557813 
L 631.496875 273.557813 
L 611.496875 273.557813 
z
" style="fill:#d62728;"/>
    </g>
    <g id="text_32">
     <!-- W/FPercent -->
     <defs>
      <path d="M 25.390625 72.90625 
L 33.6875 72.90625 
L 8.296875 -9.28125 
L 0 -9.28125 
z
" id="DejaVuSans-2f"/>
     </defs>
     <g transform="translate(639.496875 280.557813)scale(0.1 -0.1)">
      <use xlink:href="#DejaVuSans-57"/>
      <use x="98.876953" xlink:href="#DejaVuSans-2f"/>
      <use x="132.568359" xlink:href="#DejaVuSans-46"/>
      <use x="190.087891" xlink:href="#DejaVuSans-50"/>
      <use x="250.34375" xlink:href="#DejaVuSans-65"/>
      <use x="311.867188" xlink:href="#DejaVuSans-72"/>
      <use x="352.949219" xlink:href="#DejaVuSans-63"/>
      <use x="407.929688" xlink:href="#DejaVuSans-65"/>
      <use x="469.453125" xlink:href="#DejaVuSans-6e"/>
      <use x="532.832031" xlink:href="#DejaVuSans-74"/>
     </g>
    </g>
   </g>
  </g>
 </g>
 <defs>
  <clipPath id="pf7fe418ca5">
   <rect height="482.9625" width="668.8125" x="36.8875" y="14.3"/>
  </clipPath>
 </defs>
</svg>
