<?xml version="1.0" encoding="utf-8" standalone="no"?>
<!DOCTYPE svg PUBLIC "-//W3C//DTD SVG 1.1//EN"
  "http://www.w3.org/Graphics/SVG/1.1/DTD/svg11.dtd">
<!-- Created with matplotlib (http://matplotlib.org/) -->
<svg height="720pt" version="1.1" viewBox="0 0 720 720" width="720pt" xmlns="http://www.w3.org/2000/svg" xmlns:xlink="http://www.w3.org/1999/xlink">
 <defs>
  <style type="text/css">
*{stroke-linecap:butt;stroke-linejoin:round;}
  </style>
 </defs>
 <g id="figure_1">
  <g id="patch_1">
   <path d="M 0 720 
L 720 720 
L 720 0 
L 0 0 
z
" style="fill:#ffffff;"/>
  </g>
  <g id="axes_1">
   <g id="patch_2">
    <path d="M 30.525 455.101562 
L 705.7 455.101562 
L 705.7 14.3 
L 30.525 14.3 
z
" style="fill:#ffffff;"/>
   </g>
   <g id="patch_3">
    <path clip-path="url(#p43098afa4a)" d="M 37.863859 455.101562 
L 45.202717 455.101562 
L 45.202717 263.579937 
L 37.863859 263.579937 
z
" style="fill:#1f77b4;"/>
   </g>
   <g id="patch_4">
    <path clip-path="url(#p43098afa4a)" d="M 67.219293 455.101562 
L 74.558152 455.101562 
L 74.558152 329.981418 
L 67.219293 329.981418 
z
" style="fill:#1f77b4;"/>
   </g>
   <g id="patch_5">
    <path clip-path="url(#p43098afa4a)" d="M 96.574728 455.101562 
L 103.913587 455.101562 
L 103.913587 373.883223 
L 96.574728 373.883223 
z
" style="fill:#1f77b4;"/>
   </g>
   <g id="patch_6">
    <path clip-path="url(#p43098afa4a)" d="M 125.930163 455.101562 
L 133.269022 455.101562 
L 133.269022 188.946869 
L 125.930163 188.946869 
z
" style="fill:#1f77b4;"/>
   </g>
   <g id="patch_7">
    <path clip-path="url(#p43098afa4a)" d="M 155.285598 455.101562 
L 162.624457 455.101562 
L 162.624457 226.812176 
L 155.285598 226.812176 
z
" style="fill:#1f77b4;"/>
   </g>
   <g id="patch_8">
    <path clip-path="url(#p43098afa4a)" d="M 184.641033 455.101562 
L 191.979891 455.101562 
L 191.979891 342.603187 
L 184.641033 342.603187 
z
" style="fill:#1f77b4;"/>
   </g>
   <g id="patch_9">
    <path clip-path="url(#p43098afa4a)" d="M 213.996467 455.101562 
L 221.335326 455.101562 
L 221.335326 305.286652 
L 213.996467 305.286652 
z
" style="fill:#1f77b4;"/>
   </g>
   <g id="patch_10">
    <path clip-path="url(#p43098afa4a)" d="M 243.351902 455.101562 
L 250.690761 455.101562 
L 250.690761 131.325749 
L 243.351902 131.325749 
z
" style="fill:#1f77b4;"/>
   </g>
   <g id="patch_11">
    <path clip-path="url(#p43098afa4a)" d="M 272.707337 455.101562 
L 280.046196 455.101562 
L 280.046196 235.043764 
L 272.707337 235.043764 
z
" style="fill:#1f77b4;"/>
   </g>
   <g id="patch_12">
    <path clip-path="url(#p43098afa4a)" d="M 302.062772 455.101562 
L 309.40163 455.101562 
L 309.40163 35.290551 
L 302.062772 35.290551 
z
" style="fill:#1f77b4;"/>
   </g>
   <g id="patch_13">
    <path clip-path="url(#p43098afa4a)" d="M 331.418207 455.101562 
L 338.757065 455.101562 
L 338.757065 229.007266 
L 331.418207 229.007266 
z
" style="fill:#1f77b4;"/>
   </g>
   <g id="patch_14">
    <path clip-path="url(#p43098afa4a)" d="M 360.773641 455.101562 
L 368.1125 455.101562 
L 368.1125 182.91037 
L 360.773641 182.91037 
z
" style="fill:#1f77b4;"/>
   </g>
   <g id="patch_15">
    <path clip-path="url(#p43098afa4a)" d="M 390.129076 455.101562 
L 397.467935 455.101562 
L 397.467935 349.188458 
L 390.129076 349.188458 
z
" style="fill:#1f77b4;"/>
   </g>
   <g id="patch_16">
    <path clip-path="url(#p43098afa4a)" d="M 419.484511 455.101562 
L 426.82337 455.101562 
L 426.82337 341.505642 
L 419.484511 341.505642 
z
" style="fill:#1f77b4;"/>
   </g>
   <g id="patch_17">
    <path clip-path="url(#p43098afa4a)" d="M 448.839946 455.101562 
L 456.178804 455.101562 
L 456.178804 294.311201 
L 448.839946 294.311201 
z
" style="fill:#1f77b4;"/>
   </g>
   <g id="patch_18">
    <path clip-path="url(#p43098afa4a)" d="M 478.19538 455.101562 
L 485.534239 455.101562 
L 485.534239 259.189757 
L 478.19538 259.189757 
z
" style="fill:#1f77b4;"/>
   </g>
   <g id="patch_19">
    <path clip-path="url(#p43098afa4a)" d="M 507.550815 455.101562 
L 514.889674 455.101562 
L 514.889674 243.275353 
L 507.550815 243.275353 
z
" style="fill:#1f77b4;"/>
   </g>
   <g id="patch_20">
    <path clip-path="url(#p43098afa4a)" d="M 536.90625 455.101562 
L 544.245109 455.101562 
L 544.245109 202.11741 
L 536.90625 202.11741 
z
" style="fill:#1f77b4;"/>
   </g>
   <g id="patch_21">
    <path clip-path="url(#p43098afa4a)" d="M 566.261685 455.101562 
L 573.600543 455.101562 
L 573.600543 283.33575 
L 566.261685 283.33575 
z
" style="fill:#1f77b4;"/>
   </g>
   <g id="patch_22">
    <path clip-path="url(#p43098afa4a)" d="M 595.61712 455.101562 
L 602.955978 455.101562 
L 602.955978 141.752428 
L 595.61712 141.752428 
z
" style="fill:#1f77b4;"/>
   </g>
   <g id="patch_23">
    <path clip-path="url(#p43098afa4a)" d="M 624.972554 455.101562 
L 632.311413 455.101562 
L 632.311413 173.581237 
L 624.972554 173.581237 
z
" style="fill:#1f77b4;"/>
   </g>
   <g id="patch_24">
    <path clip-path="url(#p43098afa4a)" d="M 654.327989 455.101562 
L 661.666848 455.101562 
L 661.666848 282.238205 
L 654.327989 282.238205 
z
" style="fill:#1f77b4;"/>
   </g>
   <g id="patch_25">
    <path clip-path="url(#p43098afa4a)" d="M 683.683424 455.101562 
L 691.022283 455.101562 
L 691.022283 290.469793 
L 683.683424 290.469793 
z
" style="fill:#1f77b4;"/>
   </g>
   <g id="patch_26">
    <path clip-path="url(#p43098afa4a)" d="M 45.202717 455.101562 
L 52.541576 455.101562 
L 52.541576 332.176508 
L 45.202717 332.176508 
z
" style="fill:#ff7f0e;"/>
   </g>
   <g id="patch_27">
    <path clip-path="url(#p43098afa4a)" d="M 74.558152 455.101562 
L 81.897011 455.101562 
L 81.897011 455.101562 
L 74.558152 455.101562 
z
" style="fill:#ff7f0e;"/>
   </g>
   <g id="patch_28">
    <path clip-path="url(#p43098afa4a)" d="M 103.913587 455.101562 
L 111.252446 455.101562 
L 111.252446 423.821526 
L 103.913587 423.821526 
z
" style="fill:#ff7f0e;"/>
   </g>
   <g id="patch_29">
    <path clip-path="url(#p43098afa4a)" d="M 133.269022 455.101562 
L 140.60788 455.101562 
L 140.60788 336.566689 
L 133.269022 336.566689 
z
" style="fill:#ff7f0e;"/>
   </g>
   <g id="patch_30">
    <path clip-path="url(#p43098afa4a)" d="M 162.624457 455.101562 
L 169.963315 455.101562 
L 169.963315 256.445894 
L 162.624457 256.445894 
z
" style="fill:#ff7f0e;"/>
   </g>
   <g id="patch_31">
    <path clip-path="url(#p43098afa4a)" d="M 191.979891 455.101562 
L 199.31875 455.101562 
L 199.31875 398.577988 
L 191.979891 398.577988 
z
" style="fill:#ff7f0e;"/>
   </g>
   <g id="patch_32">
    <path clip-path="url(#p43098afa4a)" d="M 221.335326 455.101562 
L 228.674185 455.101562 
L 228.674185 375.529541 
L 221.335326 375.529541 
z
" style="fill:#ff7f0e;"/>
   </g>
   <g id="patch_33">
    <path clip-path="url(#p43098afa4a)" d="M 250.690761 455.101562 
L 258.02962 455.101562 
L 258.02962 222.421995 
L 250.690761 222.421995 
z
" style="fill:#ff7f0e;"/>
   </g>
   <g id="patch_34">
    <path clip-path="url(#p43098afa4a)" d="M 280.046196 455.101562 
L 287.385054 455.101562 
L 287.385054 325.591237 
L 280.046196 325.591237 
z
" style="fill:#ff7f0e;"/>
   </g>
   <g id="patch_35">
    <path clip-path="url(#p43098afa4a)" d="M 309.40163 455.101562 
L 316.740489 455.101562 
L 316.740489 102.240803 
L 309.40163 102.240803 
z
" style="fill:#ff7f0e;"/>
   </g>
   <g id="patch_36">
    <path clip-path="url(#p43098afa4a)" d="M 338.757065 455.101562 
L 346.095924 455.101562 
L 346.095924 358.517591 
L 338.757065 358.517591 
z
" style="fill:#ff7f0e;"/>
   </g>
   <g id="patch_37">
    <path clip-path="url(#p43098afa4a)" d="M 368.1125 455.101562 
L 375.451359 455.101562 
L 375.451359 251.506941 
L 368.1125 251.506941 
z
" style="fill:#ff7f0e;"/>
   </g>
   <g id="patch_38">
    <path clip-path="url(#p43098afa4a)" d="M 397.467935 455.101562 
L 404.806793 455.101562 
L 404.806793 390.895172 
L 397.467935 390.895172 
z
" style="fill:#ff7f0e;"/>
   </g>
   <g id="patch_39">
    <path clip-path="url(#p43098afa4a)" d="M 426.82337 455.101562 
L 434.162228 455.101562 
L 434.162228 370.041815 
L 426.82337 370.041815 
z
" style="fill:#ff7f0e;"/>
   </g>
   <g id="patch_40">
    <path clip-path="url(#p43098afa4a)" d="M 456.178804 455.101562 
L 463.517663 455.101562 
L 463.517663 327.786328 
L 456.178804 327.786328 
z
" style="fill:#ff7f0e;"/>
   </g>
   <g id="patch_41">
    <path clip-path="url(#p43098afa4a)" d="M 485.534239 455.101562 
L 492.873098 455.101562 
L 492.873098 382.114811 
L 485.534239 382.114811 
z
" style="fill:#ff7f0e;"/>
   </g>
   <g id="patch_42">
    <path clip-path="url(#p43098afa4a)" d="M 514.889674 455.101562 
L 522.228533 455.101562 
L 522.228533 314.067013 
L 514.889674 314.067013 
z
" style="fill:#ff7f0e;"/>
   </g>
   <g id="patch_43">
    <path clip-path="url(#p43098afa4a)" d="M 544.245109 455.101562 
L 551.583967 455.101562 
L 551.583967 254.799576 
L 544.245109 254.799576 
z
" style="fill:#ff7f0e;"/>
   </g>
   <g id="patch_44">
    <path clip-path="url(#p43098afa4a)" d="M 573.600543 455.101562 
L 580.939402 455.101562 
L 580.939402 325.591237 
L 573.600543 325.591237 
z
" style="fill:#ff7f0e;"/>
   </g>
   <g id="patch_45">
    <path clip-path="url(#p43098afa4a)" d="M 602.955978 455.101562 
L 610.294837 455.101562 
L 610.294837 248.214306 
L 602.955978 248.214306 
z
" style="fill:#ff7f0e;"/>
   </g>
   <g id="patch_46">
    <path clip-path="url(#p43098afa4a)" d="M 632.311413 455.101562 
L 639.650272 455.101562 
L 639.650272 250.409396 
L 632.311413 250.409396 
z
" style="fill:#ff7f0e;"/>
   </g>
   <g id="patch_47">
    <path clip-path="url(#p43098afa4a)" d="M 661.666848 455.101562 
L 669.005707 455.101562 
L 669.005707 386.504992 
L 661.666848 386.504992 
z
" style="fill:#ff7f0e;"/>
   </g>
   <g id="patch_48">
    <path clip-path="url(#p43098afa4a)" d="M 691.022283 455.101562 
L 698.361141 455.101562 
L 698.361141 397.480443 
L 691.022283 397.480443 
z
" style="fill:#ff7f0e;"/>
   </g>
   <g id="matplotlib.axis_1">
    <g id="xtick_1">
     <g id="line2d_1">
      <defs>
       <path d="M 0 0 
L 0 3.5 
" id="mfda7d273d1" style="stroke:#000000;stroke-width:0.8;"/>
      </defs>
      <g>
       <use style="stroke:#000000;stroke-width:0.8;" x="45.202717" xlink:href="#mfda7d273d1" y="455.101562"/>
      </g>
     </g>
     <g id="text_1">
      <!-- Brockton - Ashfield Middle School -->
      <defs>
       <path d="M 19.671875 34.8125 
L 19.671875 8.109375 
L 35.5 8.109375 
Q 43.453125 8.109375 47.28125 11.40625 
Q 51.125 14.703125 51.125 21.484375 
Q 51.125 28.328125 47.28125 31.5625 
Q 43.453125 34.8125 35.5 34.8125 
z
M 19.671875 64.796875 
L 19.671875 42.828125 
L 34.28125 42.828125 
Q 41.5 42.828125 45.03125 45.53125 
Q 48.578125 48.25 48.578125 53.8125 
Q 48.578125 59.328125 45.03125 62.0625 
Q 41.5 64.796875 34.28125 64.796875 
z
M 9.8125 72.90625 
L 35.015625 72.90625 
Q 46.296875 72.90625 52.390625 68.21875 
Q 58.5 63.53125 58.5 54.890625 
Q 58.5 48.1875 55.375 44.234375 
Q 52.25 40.28125 46.1875 39.3125 
Q 53.46875 37.75 57.5 32.78125 
Q 61.53125 27.828125 61.53125 20.40625 
Q 61.53125 10.640625 54.890625 5.3125 
Q 48.25 0 35.984375 0 
L 9.8125 0 
z
" id="DejaVuSans-42"/>
       <path d="M 41.109375 46.296875 
Q 39.59375 47.171875 37.8125 47.578125 
Q 36.03125 48 33.890625 48 
Q 26.265625 48 22.1875 43.046875 
Q 18.109375 38.09375 18.109375 28.8125 
L 18.109375 0 
L 9.078125 0 
L 9.078125 54.6875 
L 18.109375 54.6875 
L 18.109375 46.1875 
Q 20.953125 51.171875 25.484375 53.578125 
Q 30.03125 56 36.53125 56 
Q 37.453125 56 38.578125 55.875 
Q 39.703125 55.765625 41.0625 55.515625 
z
" id="DejaVuSans-72"/>
       <path d="M 30.609375 48.390625 
Q 23.390625 48.390625 19.1875 42.75 
Q 14.984375 37.109375 14.984375 27.296875 
Q 14.984375 17.484375 19.15625 11.84375 
Q 23.34375 6.203125 30.609375 6.203125 
Q 37.796875 6.203125 41.984375 11.859375 
Q 46.1875 17.53125 46.1875 27.296875 
Q 46.1875 37.015625 41.984375 42.703125 
Q 37.796875 48.390625 30.609375 48.390625 
z
M 30.609375 56 
Q 42.328125 56 49.015625 48.375 
Q 55.71875 40.765625 55.71875 27.296875 
Q 55.71875 13.875 49.015625 6.21875 
Q 42.328125 -1.421875 30.609375 -1.421875 
Q 18.84375 -1.421875 12.171875 6.21875 
Q 5.515625 13.875 5.515625 27.296875 
Q 5.515625 40.765625 12.171875 48.375 
Q 18.84375 56 30.609375 56 
z
" id="DejaVuSans-6f"/>
       <path d="M 48.78125 52.59375 
L 48.78125 44.1875 
Q 44.96875 46.296875 41.140625 47.34375 
Q 37.3125 48.390625 33.40625 48.390625 
Q 24.65625 48.390625 19.8125 42.84375 
Q 14.984375 37.3125 14.984375 27.296875 
Q 14.984375 17.28125 19.8125 11.734375 
Q 24.65625 6.203125 33.40625 6.203125 
Q 37.3125 6.203125 41.140625 7.25 
Q 44.96875 8.296875 48.78125 10.40625 
L 48.78125 2.09375 
Q 45.015625 0.34375 40.984375 -0.53125 
Q 36.96875 -1.421875 32.421875 -1.421875 
Q 20.0625 -1.421875 12.78125 6.34375 
Q 5.515625 14.109375 5.515625 27.296875 
Q 5.515625 40.671875 12.859375 48.328125 
Q 20.21875 56 33.015625 56 
Q 37.15625 56 41.109375 55.140625 
Q 45.0625 54.296875 48.78125 52.59375 
z
" id="DejaVuSans-63"/>
       <path d="M 9.078125 75.984375 
L 18.109375 75.984375 
L 18.109375 31.109375 
L 44.921875 54.6875 
L 56.390625 54.6875 
L 27.390625 29.109375 
L 57.625 0 
L 45.90625 0 
L 18.109375 26.703125 
L 18.109375 0 
L 9.078125 0 
z
" id="DejaVuSans-6b"/>
       <path d="M 18.3125 70.21875 
L 18.3125 54.6875 
L 36.8125 54.6875 
L 36.8125 47.703125 
L 18.3125 47.703125 
L 18.3125 18.015625 
Q 18.3125 11.328125 20.140625 9.421875 
Q 21.96875 7.515625 27.59375 7.515625 
L 36.8125 7.515625 
L 36.8125 0 
L 27.59375 0 
Q 17.1875 0 13.234375 3.875 
Q 9.28125 7.765625 9.28125 18.015625 
L 9.28125 47.703125 
L 2.6875 47.703125 
L 2.6875 54.6875 
L 9.28125 54.6875 
L 9.28125 70.21875 
z
" id="DejaVuSans-74"/>
       <path d="M 54.890625 33.015625 
L 54.890625 0 
L 45.90625 0 
L 45.90625 32.71875 
Q 45.90625 40.484375 42.875 44.328125 
Q 39.84375 48.1875 33.796875 48.1875 
Q 26.515625 48.1875 22.3125 43.546875 
Q 18.109375 38.921875 18.109375 30.90625 
L 18.109375 0 
L 9.078125 0 
L 9.078125 54.6875 
L 18.109375 54.6875 
L 18.109375 46.1875 
Q 21.34375 51.125 25.703125 53.5625 
Q 30.078125 56 35.796875 56 
Q 45.21875 56 50.046875 50.171875 
Q 54.890625 44.34375 54.890625 33.015625 
z
" id="DejaVuSans-6e"/>
       <path id="DejaVuSans-20"/>
       <path d="M 4.890625 31.390625 
L 31.203125 31.390625 
L 31.203125 23.390625 
L 4.890625 23.390625 
z
" id="DejaVuSans-2d"/>
       <path d="M 34.1875 63.1875 
L 20.796875 26.90625 
L 47.609375 26.90625 
z
M 28.609375 72.90625 
L 39.796875 72.90625 
L 67.578125 0 
L 57.328125 0 
L 50.6875 18.703125 
L 17.828125 18.703125 
L 11.1875 0 
L 0.78125 0 
z
" id="DejaVuSans-41"/>
       <path d="M 44.28125 53.078125 
L 44.28125 44.578125 
Q 40.484375 46.53125 36.375 47.5 
Q 32.28125 48.484375 27.875 48.484375 
Q 21.1875 48.484375 17.84375 46.4375 
Q 14.5 44.390625 14.5 40.28125 
Q 14.5 37.15625 16.890625 35.375 
Q 19.28125 33.59375 26.515625 31.984375 
L 29.59375 31.296875 
Q 39.15625 29.25 43.1875 25.515625 
Q 47.21875 21.78125 47.21875 15.09375 
Q 47.21875 7.46875 41.1875 3.015625 
Q 35.15625 -1.421875 24.609375 -1.421875 
Q 20.21875 -1.421875 15.453125 -0.5625 
Q 10.6875 0.296875 5.421875 2 
L 5.421875 11.28125 
Q 10.40625 8.6875 15.234375 7.390625 
Q 20.0625 6.109375 24.8125 6.109375 
Q 31.15625 6.109375 34.5625 8.28125 
Q 37.984375 10.453125 37.984375 14.40625 
Q 37.984375 18.0625 35.515625 20.015625 
Q 33.0625 21.96875 24.703125 23.78125 
L 21.578125 24.515625 
Q 13.234375 26.265625 9.515625 29.90625 
Q 5.8125 33.546875 5.8125 39.890625 
Q 5.8125 47.609375 11.28125 51.796875 
Q 16.75 56 26.8125 56 
Q 31.78125 56 36.171875 55.265625 
Q 40.578125 54.546875 44.28125 53.078125 
z
" id="DejaVuSans-73"/>
       <path d="M 54.890625 33.015625 
L 54.890625 0 
L 45.90625 0 
L 45.90625 32.71875 
Q 45.90625 40.484375 42.875 44.328125 
Q 39.84375 48.1875 33.796875 48.1875 
Q 26.515625 48.1875 22.3125 43.546875 
Q 18.109375 38.921875 18.109375 30.90625 
L 18.109375 0 
L 9.078125 0 
L 9.078125 75.984375 
L 18.109375 75.984375 
L 18.109375 46.1875 
Q 21.34375 51.125 25.703125 53.5625 
Q 30.078125 56 35.796875 56 
Q 45.21875 56 50.046875 50.171875 
Q 54.890625 44.34375 54.890625 33.015625 
z
" id="DejaVuSans-68"/>
       <path d="M 37.109375 75.984375 
L 37.109375 68.5 
L 28.515625 68.5 
Q 23.6875 68.5 21.796875 66.546875 
Q 19.921875 64.59375 19.921875 59.515625 
L 19.921875 54.6875 
L 34.71875 54.6875 
L 34.71875 47.703125 
L 19.921875 47.703125 
L 19.921875 0 
L 10.890625 0 
L 10.890625 47.703125 
L 2.296875 47.703125 
L 2.296875 54.6875 
L 10.890625 54.6875 
L 10.890625 58.5 
Q 10.890625 67.625 15.140625 71.796875 
Q 19.390625 75.984375 28.609375 75.984375 
z
" id="DejaVuSans-66"/>
       <path d="M 9.421875 54.6875 
L 18.40625 54.6875 
L 18.40625 0 
L 9.421875 0 
z
M 9.421875 75.984375 
L 18.40625 75.984375 
L 18.40625 64.59375 
L 9.421875 64.59375 
z
" id="DejaVuSans-69"/>
       <path d="M 56.203125 29.59375 
L 56.203125 25.203125 
L 14.890625 25.203125 
Q 15.484375 15.921875 20.484375 11.0625 
Q 25.484375 6.203125 34.421875 6.203125 
Q 39.59375 6.203125 44.453125 7.46875 
Q 49.3125 8.734375 54.109375 11.28125 
L 54.109375 2.78125 
Q 49.265625 0.734375 44.1875 -0.34375 
Q 39.109375 -1.421875 33.890625 -1.421875 
Q 20.796875 -1.421875 13.15625 6.1875 
Q 5.515625 13.8125 5.515625 26.8125 
Q 5.515625 40.234375 12.765625 48.109375 
Q 20.015625 56 32.328125 56 
Q 43.359375 56 49.78125 48.890625 
Q 56.203125 41.796875 56.203125 29.59375 
z
M 47.21875 32.234375 
Q 47.125 39.59375 43.09375 43.984375 
Q 39.0625 48.390625 32.421875 48.390625 
Q 24.90625 48.390625 20.390625 44.140625 
Q 15.875 39.890625 15.1875 32.171875 
z
" id="DejaVuSans-65"/>
       <path d="M 9.421875 75.984375 
L 18.40625 75.984375 
L 18.40625 0 
L 9.421875 0 
z
" id="DejaVuSans-6c"/>
       <path d="M 45.40625 46.390625 
L 45.40625 75.984375 
L 54.390625 75.984375 
L 54.390625 0 
L 45.40625 0 
L 45.40625 8.203125 
Q 42.578125 3.328125 38.25 0.953125 
Q 33.9375 -1.421875 27.875 -1.421875 
Q 17.96875 -1.421875 11.734375 6.484375 
Q 5.515625 14.40625 5.515625 27.296875 
Q 5.515625 40.1875 11.734375 48.09375 
Q 17.96875 56 27.875 56 
Q 33.9375 56 38.25 53.625 
Q 42.578125 51.265625 45.40625 46.390625 
z
M 14.796875 27.296875 
Q 14.796875 17.390625 18.875 11.75 
Q 22.953125 6.109375 30.078125 6.109375 
Q 37.203125 6.109375 41.296875 11.75 
Q 45.40625 17.390625 45.40625 27.296875 
Q 45.40625 37.203125 41.296875 42.84375 
Q 37.203125 48.484375 30.078125 48.484375 
Q 22.953125 48.484375 18.875 42.84375 
Q 14.796875 37.203125 14.796875 27.296875 
z
" id="DejaVuSans-64"/>
       <path d="M 9.8125 72.90625 
L 24.515625 72.90625 
L 43.109375 23.296875 
L 61.8125 72.90625 
L 76.515625 72.90625 
L 76.515625 0 
L 66.890625 0 
L 66.890625 64.015625 
L 48.09375 14.015625 
L 38.1875 14.015625 
L 19.390625 64.015625 
L 19.390625 0 
L 9.8125 0 
z
" id="DejaVuSans-4d"/>
       <path d="M 53.515625 70.515625 
L 53.515625 60.890625 
Q 47.90625 63.578125 42.921875 64.890625 
Q 37.9375 66.21875 33.296875 66.21875 
Q 25.25 66.21875 20.875 63.09375 
Q 16.5 59.96875 16.5 54.203125 
Q 16.5 49.359375 19.40625 46.890625 
Q 22.3125 44.4375 30.421875 42.921875 
L 36.375 41.703125 
Q 47.40625 39.59375 52.65625 34.296875 
Q 57.90625 29 57.90625 20.125 
Q 57.90625 9.515625 50.796875 4.046875 
Q 43.703125 -1.421875 29.984375 -1.421875 
Q 24.8125 -1.421875 18.96875 -0.25 
Q 13.140625 0.921875 6.890625 3.21875 
L 6.890625 13.375 
Q 12.890625 10.015625 18.65625 8.296875 
Q 24.421875 6.59375 29.984375 6.59375 
Q 38.421875 6.59375 43.015625 9.90625 
Q 47.609375 13.234375 47.609375 19.390625 
Q 47.609375 24.75 44.3125 27.78125 
Q 41.015625 30.8125 33.5 32.328125 
L 27.484375 33.5 
Q 16.453125 35.6875 11.515625 40.375 
Q 6.59375 45.0625 6.59375 53.421875 
Q 6.59375 63.09375 13.40625 68.65625 
Q 20.21875 74.21875 32.171875 74.21875 
Q 37.3125 74.21875 42.625 73.28125 
Q 47.953125 72.359375 53.515625 70.515625 
z
" id="DejaVuSans-53"/>
      </defs>
      <g transform="translate(47.962092 629.375)rotate(-90)scale(0.1 -0.1)">
       <use xlink:href="#DejaVuSans-42"/>
       <use x="68.603516" xlink:href="#DejaVuSans-72"/>
       <use x="109.685547" xlink:href="#DejaVuSans-6f"/>
       <use x="170.867188" xlink:href="#DejaVuSans-63"/>
       <use x="225.847656" xlink:href="#DejaVuSans-6b"/>
       <use x="283.757812" xlink:href="#DejaVuSans-74"/>
       <use x="322.966797" xlink:href="#DejaVuSans-6f"/>
       <use x="384.148438" xlink:href="#DejaVuSans-6e"/>
       <use x="447.527344" xlink:href="#DejaVuSans-20"/>
       <use x="479.314453" xlink:href="#DejaVuSans-2d"/>
       <use x="515.398438" xlink:href="#DejaVuSans-20"/>
       <use x="547.185547" xlink:href="#DejaVuSans-41"/>
       <use x="615.59375" xlink:href="#DejaVuSans-73"/>
       <use x="667.693359" xlink:href="#DejaVuSans-68"/>
       <use x="731.072266" xlink:href="#DejaVuSans-66"/>
       <use x="766.277344" xlink:href="#DejaVuSans-69"/>
       <use x="794.060547" xlink:href="#DejaVuSans-65"/>
       <use x="855.583984" xlink:href="#DejaVuSans-6c"/>
       <use x="883.367188" xlink:href="#DejaVuSans-64"/>
       <use x="946.84375" xlink:href="#DejaVuSans-20"/>
       <use x="978.630859" xlink:href="#DejaVuSans-4d"/>
       <use x="1064.910156" xlink:href="#DejaVuSans-69"/>
       <use x="1092.693359" xlink:href="#DejaVuSans-64"/>
       <use x="1156.169922" xlink:href="#DejaVuSans-64"/>
       <use x="1219.646484" xlink:href="#DejaVuSans-6c"/>
       <use x="1247.429688" xlink:href="#DejaVuSans-65"/>
       <use x="1308.953125" xlink:href="#DejaVuSans-20"/>
       <use x="1340.740234" xlink:href="#DejaVuSans-53"/>
       <use x="1404.216797" xlink:href="#DejaVuSans-63"/>
       <use x="1459.197266" xlink:href="#DejaVuSans-68"/>
       <use x="1522.576172" xlink:href="#DejaVuSans-6f"/>
       <use x="1583.757812" xlink:href="#DejaVuSans-6f"/>
       <use x="1644.939453" xlink:href="#DejaVuSans-6c"/>
      </g>
     </g>
    </g>
    <g id="xtick_2">
     <g id="line2d_2">
      <g>
       <use style="stroke:#000000;stroke-width:0.8;" x="74.558152" xlink:href="#mfda7d273d1" y="455.101562"/>
      </g>
     </g>
     <g id="text_2">
      <!-- Brockton - Barrett Russell Early Childhood Center -->
      <defs>
       <path d="M 34.28125 27.484375 
Q 23.390625 27.484375 19.1875 25 
Q 14.984375 22.515625 14.984375 16.5 
Q 14.984375 11.71875 18.140625 8.90625 
Q 21.296875 6.109375 26.703125 6.109375 
Q 34.1875 6.109375 38.703125 11.40625 
Q 43.21875 16.703125 43.21875 25.484375 
L 43.21875 27.484375 
z
M 52.203125 31.203125 
L 52.203125 0 
L 43.21875 0 
L 43.21875 8.296875 
Q 40.140625 3.328125 35.546875 0.953125 
Q 30.953125 -1.421875 24.3125 -1.421875 
Q 15.921875 -1.421875 10.953125 3.296875 
Q 6 8.015625 6 15.921875 
Q 6 25.140625 12.171875 29.828125 
Q 18.359375 34.515625 30.609375 34.515625 
L 43.21875 34.515625 
L 43.21875 35.40625 
Q 43.21875 41.609375 39.140625 45 
Q 35.0625 48.390625 27.6875 48.390625 
Q 23 48.390625 18.546875 47.265625 
Q 14.109375 46.140625 10.015625 43.890625 
L 10.015625 52.203125 
Q 14.9375 54.109375 19.578125 55.046875 
Q 24.21875 56 28.609375 56 
Q 40.484375 56 46.34375 49.84375 
Q 52.203125 43.703125 52.203125 31.203125 
z
" id="DejaVuSans-61"/>
       <path d="M 44.390625 34.1875 
Q 47.5625 33.109375 50.5625 29.59375 
Q 53.5625 26.078125 56.59375 19.921875 
L 66.609375 0 
L 56 0 
L 46.6875 18.703125 
Q 43.0625 26.03125 39.671875 28.421875 
Q 36.28125 30.8125 30.421875 30.8125 
L 19.671875 30.8125 
L 19.671875 0 
L 9.8125 0 
L 9.8125 72.90625 
L 32.078125 72.90625 
Q 44.578125 72.90625 50.734375 67.671875 
Q 56.890625 62.453125 56.890625 51.90625 
Q 56.890625 45.015625 53.6875 40.46875 
Q 50.484375 35.9375 44.390625 34.1875 
z
M 19.671875 64.796875 
L 19.671875 38.921875 
L 32.078125 38.921875 
Q 39.203125 38.921875 42.84375 42.21875 
Q 46.484375 45.515625 46.484375 51.90625 
Q 46.484375 58.296875 42.84375 61.546875 
Q 39.203125 64.796875 32.078125 64.796875 
z
" id="DejaVuSans-52"/>
       <path d="M 8.5 21.578125 
L 8.5 54.6875 
L 17.484375 54.6875 
L 17.484375 21.921875 
Q 17.484375 14.15625 20.5 10.265625 
Q 23.53125 6.390625 29.59375 6.390625 
Q 36.859375 6.390625 41.078125 11.03125 
Q 45.3125 15.671875 45.3125 23.6875 
L 45.3125 54.6875 
L 54.296875 54.6875 
L 54.296875 0 
L 45.3125 0 
L 45.3125 8.40625 
Q 42.046875 3.421875 37.71875 1 
Q 33.40625 -1.421875 27.6875 -1.421875 
Q 18.265625 -1.421875 13.375 4.4375 
Q 8.5 10.296875 8.5 21.578125 
z
M 31.109375 56 
z
" id="DejaVuSans-75"/>
       <path d="M 9.8125 72.90625 
L 55.90625 72.90625 
L 55.90625 64.59375 
L 19.671875 64.59375 
L 19.671875 43.015625 
L 54.390625 43.015625 
L 54.390625 34.71875 
L 19.671875 34.71875 
L 19.671875 8.296875 
L 56.78125 8.296875 
L 56.78125 0 
L 9.8125 0 
z
" id="DejaVuSans-45"/>
       <path d="M 32.171875 -5.078125 
Q 28.375 -14.84375 24.75 -17.8125 
Q 21.140625 -20.796875 15.09375 -20.796875 
L 7.90625 -20.796875 
L 7.90625 -13.28125 
L 13.1875 -13.28125 
Q 16.890625 -13.28125 18.9375 -11.515625 
Q 21 -9.765625 23.484375 -3.21875 
L 25.09375 0.875 
L 2.984375 54.6875 
L 12.5 54.6875 
L 29.59375 11.921875 
L 46.6875 54.6875 
L 56.203125 54.6875 
z
" id="DejaVuSans-79"/>
       <path d="M 64.40625 67.28125 
L 64.40625 56.890625 
Q 59.421875 61.53125 53.78125 63.8125 
Q 48.140625 66.109375 41.796875 66.109375 
Q 29.296875 66.109375 22.65625 58.46875 
Q 16.015625 50.828125 16.015625 36.375 
Q 16.015625 21.96875 22.65625 14.328125 
Q 29.296875 6.6875 41.796875 6.6875 
Q 48.140625 6.6875 53.78125 8.984375 
Q 59.421875 11.28125 64.40625 15.921875 
L 64.40625 5.609375 
Q 59.234375 2.09375 53.4375 0.328125 
Q 47.65625 -1.421875 41.21875 -1.421875 
Q 24.65625 -1.421875 15.125 8.703125 
Q 5.609375 18.84375 5.609375 36.375 
Q 5.609375 53.953125 15.125 64.078125 
Q 24.65625 74.21875 41.21875 74.21875 
Q 47.75 74.21875 53.53125 72.484375 
Q 59.328125 70.75 64.40625 67.28125 
z
" id="DejaVuSans-43"/>
      </defs>
      <g transform="translate(77.317527 709.2)rotate(-90)scale(0.1 -0.1)">
       <use xlink:href="#DejaVuSans-42"/>
       <use x="68.603516" xlink:href="#DejaVuSans-72"/>
       <use x="109.685547" xlink:href="#DejaVuSans-6f"/>
       <use x="170.867188" xlink:href="#DejaVuSans-63"/>
       <use x="225.847656" xlink:href="#DejaVuSans-6b"/>
       <use x="283.757812" xlink:href="#DejaVuSans-74"/>
       <use x="322.966797" xlink:href="#DejaVuSans-6f"/>
       <use x="384.148438" xlink:href="#DejaVuSans-6e"/>
       <use x="447.527344" xlink:href="#DejaVuSans-20"/>
       <use x="479.314453" xlink:href="#DejaVuSans-2d"/>
       <use x="515.398438" xlink:href="#DejaVuSans-20"/>
       <use x="547.185547" xlink:href="#DejaVuSans-42"/>
       <use x="615.789062" xlink:href="#DejaVuSans-61"/>
       <use x="677.068359" xlink:href="#DejaVuSans-72"/>
       <use x="718.166016" xlink:href="#DejaVuSans-72"/>
       <use x="759.248047" xlink:href="#DejaVuSans-65"/>
       <use x="820.771484" xlink:href="#DejaVuSans-74"/>
       <use x="859.980469" xlink:href="#DejaVuSans-74"/>
       <use x="899.189453" xlink:href="#DejaVuSans-20"/>
       <use x="930.976562" xlink:href="#DejaVuSans-52"/>
       <use x="1000.396484" xlink:href="#DejaVuSans-75"/>
       <use x="1063.775391" xlink:href="#DejaVuSans-73"/>
       <use x="1115.875" xlink:href="#DejaVuSans-73"/>
       <use x="1167.974609" xlink:href="#DejaVuSans-65"/>
       <use x="1229.498047" xlink:href="#DejaVuSans-6c"/>
       <use x="1257.28125" xlink:href="#DejaVuSans-6c"/>
       <use x="1285.064453" xlink:href="#DejaVuSans-20"/>
       <use x="1316.851562" xlink:href="#DejaVuSans-45"/>
       <use x="1380.035156" xlink:href="#DejaVuSans-61"/>
       <use x="1441.314453" xlink:href="#DejaVuSans-72"/>
       <use x="1482.427734" xlink:href="#DejaVuSans-6c"/>
       <use x="1510.210938" xlink:href="#DejaVuSans-79"/>
       <use x="1569.390625" xlink:href="#DejaVuSans-20"/>
       <use x="1601.177734" xlink:href="#DejaVuSans-43"/>
       <use x="1671.001953" xlink:href="#DejaVuSans-68"/>
       <use x="1734.380859" xlink:href="#DejaVuSans-69"/>
       <use x="1762.164062" xlink:href="#DejaVuSans-6c"/>
       <use x="1789.947266" xlink:href="#DejaVuSans-64"/>
       <use x="1853.423828" xlink:href="#DejaVuSans-68"/>
       <use x="1916.802734" xlink:href="#DejaVuSans-6f"/>
       <use x="1977.984375" xlink:href="#DejaVuSans-6f"/>
       <use x="2039.166016" xlink:href="#DejaVuSans-64"/>
       <use x="2102.642578" xlink:href="#DejaVuSans-20"/>
       <use x="2134.429688" xlink:href="#DejaVuSans-43"/>
       <use x="2204.253906" xlink:href="#DejaVuSans-65"/>
       <use x="2265.777344" xlink:href="#DejaVuSans-6e"/>
       <use x="2329.15625" xlink:href="#DejaVuSans-74"/>
       <use x="2368.365234" xlink:href="#DejaVuSans-65"/>
       <use x="2429.888672" xlink:href="#DejaVuSans-72"/>
      </g>
     </g>
    </g>
    <g id="xtick_3">
     <g id="line2d_3">
      <g>
       <use style="stroke:#000000;stroke-width:0.8;" x="103.913587" xlink:href="#mfda7d273d1" y="455.101562"/>
      </g>
     </g>
     <g id="text_3">
      <!-- Brockton - Brockton Champion High School -->
      <defs>
       <path d="M 52 44.1875 
Q 55.375 50.25 60.0625 53.125 
Q 64.75 56 71.09375 56 
Q 79.640625 56 84.28125 50.015625 
Q 88.921875 44.046875 88.921875 33.015625 
L 88.921875 0 
L 79.890625 0 
L 79.890625 32.71875 
Q 79.890625 40.578125 77.09375 44.375 
Q 74.3125 48.1875 68.609375 48.1875 
Q 61.625 48.1875 57.5625 43.546875 
Q 53.515625 38.921875 53.515625 30.90625 
L 53.515625 0 
L 44.484375 0 
L 44.484375 32.71875 
Q 44.484375 40.625 41.703125 44.40625 
Q 38.921875 48.1875 33.109375 48.1875 
Q 26.21875 48.1875 22.15625 43.53125 
Q 18.109375 38.875 18.109375 30.90625 
L 18.109375 0 
L 9.078125 0 
L 9.078125 54.6875 
L 18.109375 54.6875 
L 18.109375 46.1875 
Q 21.1875 51.21875 25.484375 53.609375 
Q 29.78125 56 35.6875 56 
Q 41.65625 56 45.828125 52.96875 
Q 50 49.953125 52 44.1875 
z
" id="DejaVuSans-6d"/>
       <path d="M 18.109375 8.203125 
L 18.109375 -20.796875 
L 9.078125 -20.796875 
L 9.078125 54.6875 
L 18.109375 54.6875 
L 18.109375 46.390625 
Q 20.953125 51.265625 25.265625 53.625 
Q 29.59375 56 35.59375 56 
Q 45.5625 56 51.78125 48.09375 
Q 58.015625 40.1875 58.015625 27.296875 
Q 58.015625 14.40625 51.78125 6.484375 
Q 45.5625 -1.421875 35.59375 -1.421875 
Q 29.59375 -1.421875 25.265625 0.953125 
Q 20.953125 3.328125 18.109375 8.203125 
z
M 48.6875 27.296875 
Q 48.6875 37.203125 44.609375 42.84375 
Q 40.53125 48.484375 33.40625 48.484375 
Q 26.265625 48.484375 22.1875 42.84375 
Q 18.109375 37.203125 18.109375 27.296875 
Q 18.109375 17.390625 22.1875 11.75 
Q 26.265625 6.109375 33.40625 6.109375 
Q 40.53125 6.109375 44.609375 11.75 
Q 48.6875 17.390625 48.6875 27.296875 
z
" id="DejaVuSans-70"/>
       <path d="M 9.8125 72.90625 
L 19.671875 72.90625 
L 19.671875 43.015625 
L 55.515625 43.015625 
L 55.515625 72.90625 
L 65.375 72.90625 
L 65.375 0 
L 55.515625 0 
L 55.515625 34.71875 
L 19.671875 34.71875 
L 19.671875 0 
L 9.8125 0 
z
" id="DejaVuSans-48"/>
       <path d="M 45.40625 27.984375 
Q 45.40625 37.75 41.375 43.109375 
Q 37.359375 48.484375 30.078125 48.484375 
Q 22.859375 48.484375 18.828125 43.109375 
Q 14.796875 37.75 14.796875 27.984375 
Q 14.796875 18.265625 18.828125 12.890625 
Q 22.859375 7.515625 30.078125 7.515625 
Q 37.359375 7.515625 41.375 12.890625 
Q 45.40625 18.265625 45.40625 27.984375 
z
M 54.390625 6.78125 
Q 54.390625 -7.171875 48.1875 -13.984375 
Q 42 -20.796875 29.203125 -20.796875 
Q 24.46875 -20.796875 20.265625 -20.09375 
Q 16.0625 -19.390625 12.109375 -17.921875 
L 12.109375 -9.1875 
Q 16.0625 -11.328125 19.921875 -12.34375 
Q 23.78125 -13.375 27.78125 -13.375 
Q 36.625 -13.375 41.015625 -8.765625 
Q 45.40625 -4.15625 45.40625 5.171875 
L 45.40625 9.625 
Q 42.625 4.78125 38.28125 2.390625 
Q 33.9375 0 27.875 0 
Q 17.828125 0 11.671875 7.65625 
Q 5.515625 15.328125 5.515625 27.984375 
Q 5.515625 40.671875 11.671875 48.328125 
Q 17.828125 56 27.875 56 
Q 33.9375 56 38.28125 53.609375 
Q 42.625 51.21875 45.40625 46.390625 
L 45.40625 54.6875 
L 54.390625 54.6875 
z
" id="DejaVuSans-67"/>
      </defs>
      <g transform="translate(106.672962 678.0625)rotate(-90)scale(0.1 -0.1)">
       <use xlink:href="#DejaVuSans-42"/>
       <use x="68.603516" xlink:href="#DejaVuSans-72"/>
       <use x="109.685547" xlink:href="#DejaVuSans-6f"/>
       <use x="170.867188" xlink:href="#DejaVuSans-63"/>
       <use x="225.847656" xlink:href="#DejaVuSans-6b"/>
       <use x="283.757812" xlink:href="#DejaVuSans-74"/>
       <use x="322.966797" xlink:href="#DejaVuSans-6f"/>
       <use x="384.148438" xlink:href="#DejaVuSans-6e"/>
       <use x="447.527344" xlink:href="#DejaVuSans-20"/>
       <use x="479.314453" xlink:href="#DejaVuSans-2d"/>
       <use x="515.398438" xlink:href="#DejaVuSans-20"/>
       <use x="547.185547" xlink:href="#DejaVuSans-42"/>
       <use x="615.789062" xlink:href="#DejaVuSans-72"/>
       <use x="656.871094" xlink:href="#DejaVuSans-6f"/>
       <use x="718.052734" xlink:href="#DejaVuSans-63"/>
       <use x="773.033203" xlink:href="#DejaVuSans-6b"/>
       <use x="830.943359" xlink:href="#DejaVuSans-74"/>
       <use x="870.152344" xlink:href="#DejaVuSans-6f"/>
       <use x="931.333984" xlink:href="#DejaVuSans-6e"/>
       <use x="994.712891" xlink:href="#DejaVuSans-20"/>
       <use x="1026.5" xlink:href="#DejaVuSans-43"/>
       <use x="1096.324219" xlink:href="#DejaVuSans-68"/>
       <use x="1159.703125" xlink:href="#DejaVuSans-61"/>
       <use x="1220.982422" xlink:href="#DejaVuSans-6d"/>
       <use x="1318.394531" xlink:href="#DejaVuSans-70"/>
       <use x="1381.871094" xlink:href="#DejaVuSans-69"/>
       <use x="1409.654297" xlink:href="#DejaVuSans-6f"/>
       <use x="1470.835938" xlink:href="#DejaVuSans-6e"/>
       <use x="1534.214844" xlink:href="#DejaVuSans-20"/>
       <use x="1566.001953" xlink:href="#DejaVuSans-48"/>
       <use x="1641.197266" xlink:href="#DejaVuSans-69"/>
       <use x="1668.980469" xlink:href="#DejaVuSans-67"/>
       <use x="1732.457031" xlink:href="#DejaVuSans-68"/>
       <use x="1795.835938" xlink:href="#DejaVuSans-20"/>
       <use x="1827.623047" xlink:href="#DejaVuSans-53"/>
       <use x="1891.099609" xlink:href="#DejaVuSans-63"/>
       <use x="1946.080078" xlink:href="#DejaVuSans-68"/>
       <use x="2009.458984" xlink:href="#DejaVuSans-6f"/>
       <use x="2070.640625" xlink:href="#DejaVuSans-6f"/>
       <use x="2131.822266" xlink:href="#DejaVuSans-6c"/>
      </g>
     </g>
    </g>
    <g id="xtick_4">
     <g id="line2d_4">
      <g>
       <use style="stroke:#000000;stroke-width:0.8;" x="133.269022" xlink:href="#mfda7d273d1" y="455.101562"/>
      </g>
     </g>
     <g id="text_4">
      <!-- Brockton - Brockton High -->
      <g transform="translate(136.028397 587.734375)rotate(-90)scale(0.1 -0.1)">
       <use xlink:href="#DejaVuSans-42"/>
       <use x="68.603516" xlink:href="#DejaVuSans-72"/>
       <use x="109.685547" xlink:href="#DejaVuSans-6f"/>
       <use x="170.867188" xlink:href="#DejaVuSans-63"/>
       <use x="225.847656" xlink:href="#DejaVuSans-6b"/>
       <use x="283.757812" xlink:href="#DejaVuSans-74"/>
       <use x="322.966797" xlink:href="#DejaVuSans-6f"/>
       <use x="384.148438" xlink:href="#DejaVuSans-6e"/>
       <use x="447.527344" xlink:href="#DejaVuSans-20"/>
       <use x="479.314453" xlink:href="#DejaVuSans-2d"/>
       <use x="515.398438" xlink:href="#DejaVuSans-20"/>
       <use x="547.185547" xlink:href="#DejaVuSans-42"/>
       <use x="615.789062" xlink:href="#DejaVuSans-72"/>
       <use x="656.871094" xlink:href="#DejaVuSans-6f"/>
       <use x="718.052734" xlink:href="#DejaVuSans-63"/>
       <use x="773.033203" xlink:href="#DejaVuSans-6b"/>
       <use x="830.943359" xlink:href="#DejaVuSans-74"/>
       <use x="870.152344" xlink:href="#DejaVuSans-6f"/>
       <use x="931.333984" xlink:href="#DejaVuSans-6e"/>
       <use x="994.712891" xlink:href="#DejaVuSans-20"/>
       <use x="1026.5" xlink:href="#DejaVuSans-48"/>
       <use x="1101.695312" xlink:href="#DejaVuSans-69"/>
       <use x="1129.478516" xlink:href="#DejaVuSans-67"/>
       <use x="1192.955078" xlink:href="#DejaVuSans-68"/>
      </g>
     </g>
    </g>
    <g id="xtick_5">
     <g id="line2d_5">
      <g>
       <use style="stroke:#000000;stroke-width:0.8;" x="162.624457" xlink:href="#mfda7d273d1" y="455.101562"/>
      </g>
     </g>
     <g id="text_5">
      <!-- Brockton - Brookfield -->
      <g transform="translate(165.383832 567.39375)rotate(-90)scale(0.1 -0.1)">
       <use xlink:href="#DejaVuSans-42"/>
       <use x="68.603516" xlink:href="#DejaVuSans-72"/>
       <use x="109.685547" xlink:href="#DejaVuSans-6f"/>
       <use x="170.867188" xlink:href="#DejaVuSans-63"/>
       <use x="225.847656" xlink:href="#DejaVuSans-6b"/>
       <use x="283.757812" xlink:href="#DejaVuSans-74"/>
       <use x="322.966797" xlink:href="#DejaVuSans-6f"/>
       <use x="384.148438" xlink:href="#DejaVuSans-6e"/>
       <use x="447.527344" xlink:href="#DejaVuSans-20"/>
       <use x="479.314453" xlink:href="#DejaVuSans-2d"/>
       <use x="515.398438" xlink:href="#DejaVuSans-20"/>
       <use x="547.185547" xlink:href="#DejaVuSans-42"/>
       <use x="615.789062" xlink:href="#DejaVuSans-72"/>
       <use x="656.871094" xlink:href="#DejaVuSans-6f"/>
       <use x="718.052734" xlink:href="#DejaVuSans-6f"/>
       <use x="779.234375" xlink:href="#DejaVuSans-6b"/>
       <use x="837.144531" xlink:href="#DejaVuSans-66"/>
       <use x="872.349609" xlink:href="#DejaVuSans-69"/>
       <use x="900.132812" xlink:href="#DejaVuSans-65"/>
       <use x="961.65625" xlink:href="#DejaVuSans-6c"/>
       <use x="989.439453" xlink:href="#DejaVuSans-64"/>
      </g>
     </g>
    </g>
    <g id="xtick_6">
     <g id="line2d_6">
      <g>
       <use style="stroke:#000000;stroke-width:0.8;" x="191.979891" xlink:href="#mfda7d273d1" y="455.101562"/>
      </g>
     </g>
     <g id="text_6">
      <!-- Brockton - Downey -->
      <defs>
       <path d="M 19.671875 64.796875 
L 19.671875 8.109375 
L 31.59375 8.109375 
Q 46.6875 8.109375 53.6875 14.9375 
Q 60.6875 21.78125 60.6875 36.53125 
Q 60.6875 51.171875 53.6875 57.984375 
Q 46.6875 64.796875 31.59375 64.796875 
z
M 9.8125 72.90625 
L 30.078125 72.90625 
Q 51.265625 72.90625 61.171875 64.09375 
Q 71.09375 55.28125 71.09375 36.53125 
Q 71.09375 17.671875 61.125 8.828125 
Q 51.171875 0 30.078125 0 
L 9.8125 0 
z
" id="DejaVuSans-44"/>
       <path d="M 4.203125 54.6875 
L 13.1875 54.6875 
L 24.421875 12.015625 
L 35.59375 54.6875 
L 46.1875 54.6875 
L 57.421875 12.015625 
L 68.609375 54.6875 
L 77.59375 54.6875 
L 63.28125 0 
L 52.6875 0 
L 40.921875 44.828125 
L 29.109375 0 
L 18.5 0 
z
" id="DejaVuSans-77"/>
      </defs>
      <g transform="translate(194.739266 557.225)rotate(-90)scale(0.1 -0.1)">
       <use xlink:href="#DejaVuSans-42"/>
       <use x="68.603516" xlink:href="#DejaVuSans-72"/>
       <use x="109.685547" xlink:href="#DejaVuSans-6f"/>
       <use x="170.867188" xlink:href="#DejaVuSans-63"/>
       <use x="225.847656" xlink:href="#DejaVuSans-6b"/>
       <use x="283.757812" xlink:href="#DejaVuSans-74"/>
       <use x="322.966797" xlink:href="#DejaVuSans-6f"/>
       <use x="384.148438" xlink:href="#DejaVuSans-6e"/>
       <use x="447.527344" xlink:href="#DejaVuSans-20"/>
       <use x="479.314453" xlink:href="#DejaVuSans-2d"/>
       <use x="515.398438" xlink:href="#DejaVuSans-20"/>
       <use x="547.185547" xlink:href="#DejaVuSans-44"/>
       <use x="624.1875" xlink:href="#DejaVuSans-6f"/>
       <use x="685.369141" xlink:href="#DejaVuSans-77"/>
       <use x="767.15625" xlink:href="#DejaVuSans-6e"/>
       <use x="830.535156" xlink:href="#DejaVuSans-65"/>
       <use x="892.058594" xlink:href="#DejaVuSans-79"/>
      </g>
     </g>
    </g>
    <g id="xtick_7">
     <g id="line2d_7">
      <g>
       <use style="stroke:#000000;stroke-width:0.8;" x="221.335326" xlink:href="#mfda7d273d1" y="455.101562"/>
      </g>
     </g>
     <g id="text_7">
      <!-- Brockton - Dr W Arnone Community School -->
      <defs>
       <path d="M 3.328125 72.90625 
L 13.28125 72.90625 
L 28.609375 11.28125 
L 43.890625 72.90625 
L 54.984375 72.90625 
L 70.3125 11.28125 
L 85.59375 72.90625 
L 95.609375 72.90625 
L 77.296875 0 
L 64.890625 0 
L 49.515625 63.28125 
L 33.984375 0 
L 21.578125 0 
z
" id="DejaVuSans-57"/>
      </defs>
      <g transform="translate(224.094701 678.201562)rotate(-90)scale(0.1 -0.1)">
       <use xlink:href="#DejaVuSans-42"/>
       <use x="68.603516" xlink:href="#DejaVuSans-72"/>
       <use x="109.685547" xlink:href="#DejaVuSans-6f"/>
       <use x="170.867188" xlink:href="#DejaVuSans-63"/>
       <use x="225.847656" xlink:href="#DejaVuSans-6b"/>
       <use x="283.757812" xlink:href="#DejaVuSans-74"/>
       <use x="322.966797" xlink:href="#DejaVuSans-6f"/>
       <use x="384.148438" xlink:href="#DejaVuSans-6e"/>
       <use x="447.527344" xlink:href="#DejaVuSans-20"/>
       <use x="479.314453" xlink:href="#DejaVuSans-2d"/>
       <use x="515.398438" xlink:href="#DejaVuSans-20"/>
       <use x="547.185547" xlink:href="#DejaVuSans-44"/>
       <use x="624.1875" xlink:href="#DejaVuSans-72"/>
       <use x="665.300781" xlink:href="#DejaVuSans-20"/>
       <use x="697.087891" xlink:href="#DejaVuSans-57"/>
       <use x="795.964844" xlink:href="#DejaVuSans-20"/>
       <use x="827.751953" xlink:href="#DejaVuSans-41"/>
       <use x="896.160156" xlink:href="#DejaVuSans-72"/>
       <use x="937.257812" xlink:href="#DejaVuSans-6e"/>
       <use x="1000.636719" xlink:href="#DejaVuSans-6f"/>
       <use x="1061.818359" xlink:href="#DejaVuSans-6e"/>
       <use x="1125.197266" xlink:href="#DejaVuSans-65"/>
       <use x="1186.720703" xlink:href="#DejaVuSans-20"/>
       <use x="1218.507812" xlink:href="#DejaVuSans-43"/>
       <use x="1288.332031" xlink:href="#DejaVuSans-6f"/>
       <use x="1349.513672" xlink:href="#DejaVuSans-6d"/>
       <use x="1446.925781" xlink:href="#DejaVuSans-6d"/>
       <use x="1544.337891" xlink:href="#DejaVuSans-75"/>
       <use x="1607.716797" xlink:href="#DejaVuSans-6e"/>
       <use x="1671.095703" xlink:href="#DejaVuSans-69"/>
       <use x="1698.878906" xlink:href="#DejaVuSans-74"/>
       <use x="1738.087891" xlink:href="#DejaVuSans-79"/>
       <use x="1797.267578" xlink:href="#DejaVuSans-20"/>
       <use x="1829.054688" xlink:href="#DejaVuSans-53"/>
       <use x="1892.53125" xlink:href="#DejaVuSans-63"/>
       <use x="1947.511719" xlink:href="#DejaVuSans-68"/>
       <use x="2010.890625" xlink:href="#DejaVuSans-6f"/>
       <use x="2072.072266" xlink:href="#DejaVuSans-6f"/>
       <use x="2133.253906" xlink:href="#DejaVuSans-6c"/>
      </g>
     </g>
    </g>
    <g id="xtick_8">
     <g id="line2d_8">
      <g>
       <use style="stroke:#000000;stroke-width:0.8;" x="250.690761" xlink:href="#mfda7d273d1" y="455.101562"/>
      </g>
     </g>
     <g id="text_8">
      <!-- Brockton - East Middle School -->
      <g transform="translate(253.450136 610.985937)rotate(-90)scale(0.1 -0.1)">
       <use xlink:href="#DejaVuSans-42"/>
       <use x="68.603516" xlink:href="#DejaVuSans-72"/>
       <use x="109.685547" xlink:href="#DejaVuSans-6f"/>
       <use x="170.867188" xlink:href="#DejaVuSans-63"/>
       <use x="225.847656" xlink:href="#DejaVuSans-6b"/>
       <use x="283.757812" xlink:href="#DejaVuSans-74"/>
       <use x="322.966797" xlink:href="#DejaVuSans-6f"/>
       <use x="384.148438" xlink:href="#DejaVuSans-6e"/>
       <use x="447.527344" xlink:href="#DejaVuSans-20"/>
       <use x="479.314453" xlink:href="#DejaVuSans-2d"/>
       <use x="515.398438" xlink:href="#DejaVuSans-20"/>
       <use x="547.185547" xlink:href="#DejaVuSans-45"/>
       <use x="610.369141" xlink:href="#DejaVuSans-61"/>
       <use x="671.648438" xlink:href="#DejaVuSans-73"/>
       <use x="723.748047" xlink:href="#DejaVuSans-74"/>
       <use x="762.957031" xlink:href="#DejaVuSans-20"/>
       <use x="794.744141" xlink:href="#DejaVuSans-4d"/>
       <use x="881.023438" xlink:href="#DejaVuSans-69"/>
       <use x="908.806641" xlink:href="#DejaVuSans-64"/>
       <use x="972.283203" xlink:href="#DejaVuSans-64"/>
       <use x="1035.759766" xlink:href="#DejaVuSans-6c"/>
       <use x="1063.542969" xlink:href="#DejaVuSans-65"/>
       <use x="1125.066406" xlink:href="#DejaVuSans-20"/>
       <use x="1156.853516" xlink:href="#DejaVuSans-53"/>
       <use x="1220.330078" xlink:href="#DejaVuSans-63"/>
       <use x="1275.310547" xlink:href="#DejaVuSans-68"/>
       <use x="1338.689453" xlink:href="#DejaVuSans-6f"/>
       <use x="1399.871094" xlink:href="#DejaVuSans-6f"/>
       <use x="1461.052734" xlink:href="#DejaVuSans-6c"/>
      </g>
     </g>
    </g>
    <g id="xtick_9">
     <g id="line2d_9">
      <g>
       <use style="stroke:#000000;stroke-width:0.8;" x="280.046196" xlink:href="#mfda7d273d1" y="455.101562"/>
      </g>
     </g>
     <g id="text_9">
      <!-- Brockton - Edgar B Davis -->
      <defs>
       <path d="M 2.984375 54.6875 
L 12.5 54.6875 
L 29.59375 8.796875 
L 46.6875 54.6875 
L 56.203125 54.6875 
L 35.6875 0 
L 23.484375 0 
z
" id="DejaVuSans-76"/>
      </defs>
      <g transform="translate(282.805571 587.025)rotate(-90)scale(0.1 -0.1)">
       <use xlink:href="#DejaVuSans-42"/>
       <use x="68.603516" xlink:href="#DejaVuSans-72"/>
       <use x="109.685547" xlink:href="#DejaVuSans-6f"/>
       <use x="170.867188" xlink:href="#DejaVuSans-63"/>
       <use x="225.847656" xlink:href="#DejaVuSans-6b"/>
       <use x="283.757812" xlink:href="#DejaVuSans-74"/>
       <use x="322.966797" xlink:href="#DejaVuSans-6f"/>
       <use x="384.148438" xlink:href="#DejaVuSans-6e"/>
       <use x="447.527344" xlink:href="#DejaVuSans-20"/>
       <use x="479.314453" xlink:href="#DejaVuSans-2d"/>
       <use x="515.398438" xlink:href="#DejaVuSans-20"/>
       <use x="547.185547" xlink:href="#DejaVuSans-45"/>
       <use x="610.369141" xlink:href="#DejaVuSans-64"/>
       <use x="673.845703" xlink:href="#DejaVuSans-67"/>
       <use x="737.322266" xlink:href="#DejaVuSans-61"/>
       <use x="798.601562" xlink:href="#DejaVuSans-72"/>
       <use x="839.714844" xlink:href="#DejaVuSans-20"/>
       <use x="871.501953" xlink:href="#DejaVuSans-42"/>
       <use x="940.105469" xlink:href="#DejaVuSans-20"/>
       <use x="971.892578" xlink:href="#DejaVuSans-44"/>
       <use x="1048.894531" xlink:href="#DejaVuSans-61"/>
       <use x="1110.173828" xlink:href="#DejaVuSans-76"/>
       <use x="1169.353516" xlink:href="#DejaVuSans-69"/>
       <use x="1197.136719" xlink:href="#DejaVuSans-73"/>
      </g>
     </g>
    </g>
    <g id="xtick_10">
     <g id="line2d_10">
      <g>
       <use style="stroke:#000000;stroke-width:0.8;" x="309.40163" xlink:href="#mfda7d273d1" y="455.101562"/>
      </g>
     </g>
     <g id="text_10">
      <!-- Brockton - Edison Academy -->
      <g transform="translate(312.161005 599.734375)rotate(-90)scale(0.1 -0.1)">
       <use xlink:href="#DejaVuSans-42"/>
       <use x="68.603516" xlink:href="#DejaVuSans-72"/>
       <use x="109.685547" xlink:href="#DejaVuSans-6f"/>
       <use x="170.867188" xlink:href="#DejaVuSans-63"/>
       <use x="225.847656" xlink:href="#DejaVuSans-6b"/>
       <use x="283.757812" xlink:href="#DejaVuSans-74"/>
       <use x="322.966797" xlink:href="#DejaVuSans-6f"/>
       <use x="384.148438" xlink:href="#DejaVuSans-6e"/>
       <use x="447.527344" xlink:href="#DejaVuSans-20"/>
       <use x="479.314453" xlink:href="#DejaVuSans-2d"/>
       <use x="515.398438" xlink:href="#DejaVuSans-20"/>
       <use x="547.185547" xlink:href="#DejaVuSans-45"/>
       <use x="610.369141" xlink:href="#DejaVuSans-64"/>
       <use x="673.845703" xlink:href="#DejaVuSans-69"/>
       <use x="701.628906" xlink:href="#DejaVuSans-73"/>
       <use x="753.728516" xlink:href="#DejaVuSans-6f"/>
       <use x="814.910156" xlink:href="#DejaVuSans-6e"/>
       <use x="878.289062" xlink:href="#DejaVuSans-20"/>
       <use x="910.076172" xlink:href="#DejaVuSans-41"/>
       <use x="978.46875" xlink:href="#DejaVuSans-63"/>
       <use x="1033.449219" xlink:href="#DejaVuSans-61"/>
       <use x="1094.728516" xlink:href="#DejaVuSans-64"/>
       <use x="1158.205078" xlink:href="#DejaVuSans-65"/>
       <use x="1219.728516" xlink:href="#DejaVuSans-6d"/>
       <use x="1317.140625" xlink:href="#DejaVuSans-79"/>
      </g>
     </g>
    </g>
    <g id="xtick_11">
     <g id="line2d_11">
      <g>
       <use style="stroke:#000000;stroke-width:0.8;" x="338.757065" xlink:href="#mfda7d273d1" y="455.101562"/>
      </g>
     </g>
     <g id="text_11">
      <!-- Brockton - Frederick Douglass Academy -->
      <defs>
       <path d="M 9.8125 72.90625 
L 51.703125 72.90625 
L 51.703125 64.59375 
L 19.671875 64.59375 
L 19.671875 43.109375 
L 48.578125 43.109375 
L 48.578125 34.8125 
L 19.671875 34.8125 
L 19.671875 0 
L 9.8125 0 
z
" id="DejaVuSans-46"/>
      </defs>
      <g transform="translate(341.51644 662.3125)rotate(-90)scale(0.1 -0.1)">
       <use xlink:href="#DejaVuSans-42"/>
       <use x="68.603516" xlink:href="#DejaVuSans-72"/>
       <use x="109.685547" xlink:href="#DejaVuSans-6f"/>
       <use x="170.867188" xlink:href="#DejaVuSans-63"/>
       <use x="225.847656" xlink:href="#DejaVuSans-6b"/>
       <use x="283.757812" xlink:href="#DejaVuSans-74"/>
       <use x="322.966797" xlink:href="#DejaVuSans-6f"/>
       <use x="384.148438" xlink:href="#DejaVuSans-6e"/>
       <use x="447.527344" xlink:href="#DejaVuSans-20"/>
       <use x="479.314453" xlink:href="#DejaVuSans-2d"/>
       <use x="515.398438" xlink:href="#DejaVuSans-20"/>
       <use x="547.185547" xlink:href="#DejaVuSans-46"/>
       <use x="604.595703" xlink:href="#DejaVuSans-72"/>
       <use x="645.677734" xlink:href="#DejaVuSans-65"/>
       <use x="707.201172" xlink:href="#DejaVuSans-64"/>
       <use x="770.677734" xlink:href="#DejaVuSans-65"/>
       <use x="832.201172" xlink:href="#DejaVuSans-72"/>
       <use x="873.314453" xlink:href="#DejaVuSans-69"/>
       <use x="901.097656" xlink:href="#DejaVuSans-63"/>
       <use x="956.078125" xlink:href="#DejaVuSans-6b"/>
       <use x="1013.988281" xlink:href="#DejaVuSans-20"/>
       <use x="1045.775391" xlink:href="#DejaVuSans-44"/>
       <use x="1122.777344" xlink:href="#DejaVuSans-6f"/>
       <use x="1183.958984" xlink:href="#DejaVuSans-75"/>
       <use x="1247.337891" xlink:href="#DejaVuSans-67"/>
       <use x="1310.814453" xlink:href="#DejaVuSans-6c"/>
       <use x="1338.597656" xlink:href="#DejaVuSans-61"/>
       <use x="1399.876953" xlink:href="#DejaVuSans-73"/>
       <use x="1451.976562" xlink:href="#DejaVuSans-73"/>
       <use x="1504.076172" xlink:href="#DejaVuSans-20"/>
       <use x="1535.863281" xlink:href="#DejaVuSans-41"/>
       <use x="1604.255859" xlink:href="#DejaVuSans-63"/>
       <use x="1659.236328" xlink:href="#DejaVuSans-61"/>
       <use x="1720.515625" xlink:href="#DejaVuSans-64"/>
       <use x="1783.992188" xlink:href="#DejaVuSans-65"/>
       <use x="1845.515625" xlink:href="#DejaVuSans-6d"/>
       <use x="1942.927734" xlink:href="#DejaVuSans-79"/>
      </g>
     </g>
    </g>
    <g id="xtick_12">
     <g id="line2d_12">
      <g>
       <use style="stroke:#000000;stroke-width:0.8;" x="368.1125" xlink:href="#mfda7d273d1" y="455.101562"/>
      </g>
     </g>
     <g id="text_12">
      <!-- Brockton - Gilmore Elementary School -->
      <defs>
       <path d="M 59.515625 10.40625 
L 59.515625 29.984375 
L 43.40625 29.984375 
L 43.40625 38.09375 
L 69.28125 38.09375 
L 69.28125 6.78125 
Q 63.578125 2.734375 56.6875 0.65625 
Q 49.8125 -1.421875 42 -1.421875 
Q 24.90625 -1.421875 15.25 8.5625 
Q 5.609375 18.5625 5.609375 36.375 
Q 5.609375 54.25 15.25 64.234375 
Q 24.90625 74.21875 42 74.21875 
Q 49.125 74.21875 55.546875 72.453125 
Q 61.96875 70.703125 67.390625 67.28125 
L 67.390625 56.78125 
Q 61.921875 61.421875 55.765625 63.765625 
Q 49.609375 66.109375 42.828125 66.109375 
Q 29.4375 66.109375 22.71875 58.640625 
Q 16.015625 51.171875 16.015625 36.375 
Q 16.015625 21.625 22.71875 14.15625 
Q 29.4375 6.6875 42.828125 6.6875 
Q 48.046875 6.6875 52.140625 7.59375 
Q 56.25 8.5 59.515625 10.40625 
z
" id="DejaVuSans-47"/>
      </defs>
      <g transform="translate(370.871875 653.359375)rotate(-90)scale(0.1 -0.1)">
       <use xlink:href="#DejaVuSans-42"/>
       <use x="68.603516" xlink:href="#DejaVuSans-72"/>
       <use x="109.685547" xlink:href="#DejaVuSans-6f"/>
       <use x="170.867188" xlink:href="#DejaVuSans-63"/>
       <use x="225.847656" xlink:href="#DejaVuSans-6b"/>
       <use x="283.757812" xlink:href="#DejaVuSans-74"/>
       <use x="322.966797" xlink:href="#DejaVuSans-6f"/>
       <use x="384.148438" xlink:href="#DejaVuSans-6e"/>
       <use x="447.527344" xlink:href="#DejaVuSans-20"/>
       <use x="479.314453" xlink:href="#DejaVuSans-2d"/>
       <use x="515.398438" xlink:href="#DejaVuSans-20"/>
       <use x="547.185547" xlink:href="#DejaVuSans-47"/>
       <use x="624.675781" xlink:href="#DejaVuSans-69"/>
       <use x="652.458984" xlink:href="#DejaVuSans-6c"/>
       <use x="680.242188" xlink:href="#DejaVuSans-6d"/>
       <use x="777.654297" xlink:href="#DejaVuSans-6f"/>
       <use x="838.835938" xlink:href="#DejaVuSans-72"/>
       <use x="879.917969" xlink:href="#DejaVuSans-65"/>
       <use x="941.441406" xlink:href="#DejaVuSans-20"/>
       <use x="973.228516" xlink:href="#DejaVuSans-45"/>
       <use x="1036.412109" xlink:href="#DejaVuSans-6c"/>
       <use x="1064.195312" xlink:href="#DejaVuSans-65"/>
       <use x="1125.71875" xlink:href="#DejaVuSans-6d"/>
       <use x="1223.130859" xlink:href="#DejaVuSans-65"/>
       <use x="1284.654297" xlink:href="#DejaVuSans-6e"/>
       <use x="1348.033203" xlink:href="#DejaVuSans-74"/>
       <use x="1387.242188" xlink:href="#DejaVuSans-61"/>
       <use x="1448.521484" xlink:href="#DejaVuSans-72"/>
       <use x="1489.634766" xlink:href="#DejaVuSans-79"/>
       <use x="1548.814453" xlink:href="#DejaVuSans-20"/>
       <use x="1580.601562" xlink:href="#DejaVuSans-53"/>
       <use x="1644.078125" xlink:href="#DejaVuSans-63"/>
       <use x="1699.058594" xlink:href="#DejaVuSans-68"/>
       <use x="1762.4375" xlink:href="#DejaVuSans-6f"/>
       <use x="1823.619141" xlink:href="#DejaVuSans-6f"/>
       <use x="1884.800781" xlink:href="#DejaVuSans-6c"/>
      </g>
     </g>
    </g>
    <g id="xtick_13">
     <g id="line2d_13">
      <g>
       <use style="stroke:#000000;stroke-width:0.8;" x="397.467935" xlink:href="#mfda7d273d1" y="455.101562"/>
      </g>
     </g>
     <g id="text_13">
      <!-- Brockton - Hancock -->
      <g transform="translate(400.22731 559.710938)rotate(-90)scale(0.1 -0.1)">
       <use xlink:href="#DejaVuSans-42"/>
       <use x="68.603516" xlink:href="#DejaVuSans-72"/>
       <use x="109.685547" xlink:href="#DejaVuSans-6f"/>
       <use x="170.867188" xlink:href="#DejaVuSans-63"/>
       <use x="225.847656" xlink:href="#DejaVuSans-6b"/>
       <use x="283.757812" xlink:href="#DejaVuSans-74"/>
       <use x="322.966797" xlink:href="#DejaVuSans-6f"/>
       <use x="384.148438" xlink:href="#DejaVuSans-6e"/>
       <use x="447.527344" xlink:href="#DejaVuSans-20"/>
       <use x="479.314453" xlink:href="#DejaVuSans-2d"/>
       <use x="515.398438" xlink:href="#DejaVuSans-20"/>
       <use x="547.185547" xlink:href="#DejaVuSans-48"/>
       <use x="622.380859" xlink:href="#DejaVuSans-61"/>
       <use x="683.660156" xlink:href="#DejaVuSans-6e"/>
       <use x="747.039062" xlink:href="#DejaVuSans-63"/>
       <use x="802.019531" xlink:href="#DejaVuSans-6f"/>
       <use x="863.201172" xlink:href="#DejaVuSans-63"/>
       <use x="918.181641" xlink:href="#DejaVuSans-6b"/>
      </g>
     </g>
    </g>
    <g id="xtick_14">
     <g id="line2d_14">
      <g>
       <use style="stroke:#000000;stroke-width:0.8;" x="426.82337" xlink:href="#mfda7d273d1" y="455.101562"/>
      </g>
     </g>
     <g id="text_14">
      <!-- Brockton - Huntington Therapeutic Day School -->
      <defs>
       <path d="M -0.296875 72.90625 
L 61.375 72.90625 
L 61.375 64.59375 
L 35.5 64.59375 
L 35.5 0 
L 25.59375 0 
L 25.59375 64.59375 
L -0.296875 64.59375 
z
" id="DejaVuSans-54"/>
      </defs>
      <g transform="translate(429.582745 695.129687)rotate(-90)scale(0.1 -0.1)">
       <use xlink:href="#DejaVuSans-42"/>
       <use x="68.603516" xlink:href="#DejaVuSans-72"/>
       <use x="109.685547" xlink:href="#DejaVuSans-6f"/>
       <use x="170.867188" xlink:href="#DejaVuSans-63"/>
       <use x="225.847656" xlink:href="#DejaVuSans-6b"/>
       <use x="283.757812" xlink:href="#DejaVuSans-74"/>
       <use x="322.966797" xlink:href="#DejaVuSans-6f"/>
       <use x="384.148438" xlink:href="#DejaVuSans-6e"/>
       <use x="447.527344" xlink:href="#DejaVuSans-20"/>
       <use x="479.314453" xlink:href="#DejaVuSans-2d"/>
       <use x="515.398438" xlink:href="#DejaVuSans-20"/>
       <use x="547.185547" xlink:href="#DejaVuSans-48"/>
       <use x="622.380859" xlink:href="#DejaVuSans-75"/>
       <use x="685.759766" xlink:href="#DejaVuSans-6e"/>
       <use x="749.138672" xlink:href="#DejaVuSans-74"/>
       <use x="788.347656" xlink:href="#DejaVuSans-69"/>
       <use x="816.130859" xlink:href="#DejaVuSans-6e"/>
       <use x="879.509766" xlink:href="#DejaVuSans-67"/>
       <use x="942.986328" xlink:href="#DejaVuSans-74"/>
       <use x="982.195312" xlink:href="#DejaVuSans-6f"/>
       <use x="1043.376953" xlink:href="#DejaVuSans-6e"/>
       <use x="1106.755859" xlink:href="#DejaVuSans-20"/>
       <use x="1138.542969" xlink:href="#DejaVuSans-54"/>
       <use x="1199.626953" xlink:href="#DejaVuSans-68"/>
       <use x="1263.005859" xlink:href="#DejaVuSans-65"/>
       <use x="1324.529297" xlink:href="#DejaVuSans-72"/>
       <use x="1365.642578" xlink:href="#DejaVuSans-61"/>
       <use x="1426.921875" xlink:href="#DejaVuSans-70"/>
       <use x="1490.398438" xlink:href="#DejaVuSans-65"/>
       <use x="1551.921875" xlink:href="#DejaVuSans-75"/>
       <use x="1615.300781" xlink:href="#DejaVuSans-74"/>
       <use x="1654.509766" xlink:href="#DejaVuSans-69"/>
       <use x="1682.292969" xlink:href="#DejaVuSans-63"/>
       <use x="1737.273438" xlink:href="#DejaVuSans-20"/>
       <use x="1769.060547" xlink:href="#DejaVuSans-44"/>
       <use x="1846.0625" xlink:href="#DejaVuSans-61"/>
       <use x="1907.341797" xlink:href="#DejaVuSans-79"/>
       <use x="1966.521484" xlink:href="#DejaVuSans-20"/>
       <use x="1998.308594" xlink:href="#DejaVuSans-53"/>
       <use x="2061.785156" xlink:href="#DejaVuSans-63"/>
       <use x="2116.765625" xlink:href="#DejaVuSans-68"/>
       <use x="2180.144531" xlink:href="#DejaVuSans-6f"/>
       <use x="2241.326172" xlink:href="#DejaVuSans-6f"/>
       <use x="2302.507812" xlink:href="#DejaVuSans-6c"/>
      </g>
     </g>
    </g>
    <g id="xtick_15">
     <g id="line2d_15">
      <g>
       <use style="stroke:#000000;stroke-width:0.8;" x="456.178804" xlink:href="#mfda7d273d1" y="455.101562"/>
      </g>
     </g>
     <g id="text_15">
      <!-- Brockton - John F Kennedy -->
      <defs>
       <path d="M 9.8125 72.90625 
L 19.671875 72.90625 
L 19.671875 5.078125 
Q 19.671875 -8.109375 14.671875 -14.0625 
Q 9.671875 -20.015625 -1.421875 -20.015625 
L -5.171875 -20.015625 
L -5.171875 -11.71875 
L -2.09375 -11.71875 
Q 4.4375 -11.71875 7.125 -8.046875 
Q 9.8125 -4.390625 9.8125 5.078125 
z
" id="DejaVuSans-4a"/>
       <path d="M 9.8125 72.90625 
L 19.671875 72.90625 
L 19.671875 42.09375 
L 52.390625 72.90625 
L 65.09375 72.90625 
L 28.90625 38.921875 
L 67.671875 0 
L 54.6875 0 
L 19.671875 35.109375 
L 19.671875 0 
L 9.8125 0 
z
" id="DejaVuSans-4b"/>
      </defs>
      <g transform="translate(458.938179 594.46875)rotate(-90)scale(0.1 -0.1)">
       <use xlink:href="#DejaVuSans-42"/>
       <use x="68.603516" xlink:href="#DejaVuSans-72"/>
       <use x="109.685547" xlink:href="#DejaVuSans-6f"/>
       <use x="170.867188" xlink:href="#DejaVuSans-63"/>
       <use x="225.847656" xlink:href="#DejaVuSans-6b"/>
       <use x="283.757812" xlink:href="#DejaVuSans-74"/>
       <use x="322.966797" xlink:href="#DejaVuSans-6f"/>
       <use x="384.148438" xlink:href="#DejaVuSans-6e"/>
       <use x="447.527344" xlink:href="#DejaVuSans-20"/>
       <use x="479.314453" xlink:href="#DejaVuSans-2d"/>
       <use x="515.398438" xlink:href="#DejaVuSans-20"/>
       <use x="547.185547" xlink:href="#DejaVuSans-4a"/>
       <use x="576.677734" xlink:href="#DejaVuSans-6f"/>
       <use x="637.859375" xlink:href="#DejaVuSans-68"/>
       <use x="701.238281" xlink:href="#DejaVuSans-6e"/>
       <use x="764.617188" xlink:href="#DejaVuSans-20"/>
       <use x="796.404297" xlink:href="#DejaVuSans-46"/>
       <use x="853.923828" xlink:href="#DejaVuSans-20"/>
       <use x="885.710938" xlink:href="#DejaVuSans-4b"/>
       <use x="951.208984" xlink:href="#DejaVuSans-65"/>
       <use x="1012.732422" xlink:href="#DejaVuSans-6e"/>
       <use x="1076.111328" xlink:href="#DejaVuSans-6e"/>
       <use x="1139.490234" xlink:href="#DejaVuSans-65"/>
       <use x="1201.013672" xlink:href="#DejaVuSans-64"/>
       <use x="1264.490234" xlink:href="#DejaVuSans-79"/>
      </g>
     </g>
    </g>
    <g id="xtick_16">
     <g id="line2d_16">
      <g>
       <use style="stroke:#000000;stroke-width:0.8;" x="485.534239" xlink:href="#mfda7d273d1" y="455.101562"/>
      </g>
     </g>
     <g id="text_16">
      <!-- Brockton - Joseph F. Plouffe Academy -->
      <defs>
       <path d="M 10.6875 12.40625 
L 21 12.40625 
L 21 0 
L 10.6875 0 
z
" id="DejaVuSans-2e"/>
       <path d="M 19.671875 64.796875 
L 19.671875 37.40625 
L 32.078125 37.40625 
Q 38.96875 37.40625 42.71875 40.96875 
Q 46.484375 44.53125 46.484375 51.125 
Q 46.484375 57.671875 42.71875 61.234375 
Q 38.96875 64.796875 32.078125 64.796875 
z
M 9.8125 72.90625 
L 32.078125 72.90625 
Q 44.34375 72.90625 50.609375 67.359375 
Q 56.890625 61.8125 56.890625 51.125 
Q 56.890625 40.328125 50.609375 34.8125 
Q 44.34375 29.296875 32.078125 29.296875 
L 19.671875 29.296875 
L 19.671875 0 
L 9.8125 0 
z
" id="DejaVuSans-50"/>
      </defs>
      <g transform="translate(488.293614 649.459375)rotate(-90)scale(0.1 -0.1)">
       <use xlink:href="#DejaVuSans-42"/>
       <use x="68.603516" xlink:href="#DejaVuSans-72"/>
       <use x="109.685547" xlink:href="#DejaVuSans-6f"/>
       <use x="170.867188" xlink:href="#DejaVuSans-63"/>
       <use x="225.847656" xlink:href="#DejaVuSans-6b"/>
       <use x="283.757812" xlink:href="#DejaVuSans-74"/>
       <use x="322.966797" xlink:href="#DejaVuSans-6f"/>
       <use x="384.148438" xlink:href="#DejaVuSans-6e"/>
       <use x="447.527344" xlink:href="#DejaVuSans-20"/>
       <use x="479.314453" xlink:href="#DejaVuSans-2d"/>
       <use x="515.398438" xlink:href="#DejaVuSans-20"/>
       <use x="547.185547" xlink:href="#DejaVuSans-4a"/>
       <use x="576.677734" xlink:href="#DejaVuSans-6f"/>
       <use x="637.859375" xlink:href="#DejaVuSans-73"/>
       <use x="689.958984" xlink:href="#DejaVuSans-65"/>
       <use x="751.482422" xlink:href="#DejaVuSans-70"/>
       <use x="814.958984" xlink:href="#DejaVuSans-68"/>
       <use x="878.337891" xlink:href="#DejaVuSans-20"/>
       <use x="910.125" xlink:href="#DejaVuSans-46"/>
       <use x="967.394531" xlink:href="#DejaVuSans-2e"/>
       <use x="999.181641" xlink:href="#DejaVuSans-20"/>
       <use x="1030.96875" xlink:href="#DejaVuSans-50"/>
       <use x="1091.271484" xlink:href="#DejaVuSans-6c"/>
       <use x="1119.054688" xlink:href="#DejaVuSans-6f"/>
       <use x="1180.236328" xlink:href="#DejaVuSans-75"/>
       <use x="1243.615234" xlink:href="#DejaVuSans-66"/>
       <use x="1278.820312" xlink:href="#DejaVuSans-66"/>
       <use x="1314.025391" xlink:href="#DejaVuSans-65"/>
       <use x="1375.548828" xlink:href="#DejaVuSans-20"/>
       <use x="1407.335938" xlink:href="#DejaVuSans-41"/>
       <use x="1475.728516" xlink:href="#DejaVuSans-63"/>
       <use x="1530.708984" xlink:href="#DejaVuSans-61"/>
       <use x="1591.988281" xlink:href="#DejaVuSans-64"/>
       <use x="1655.464844" xlink:href="#DejaVuSans-65"/>
       <use x="1716.988281" xlink:href="#DejaVuSans-6d"/>
       <use x="1814.400391" xlink:href="#DejaVuSans-79"/>
      </g>
     </g>
    </g>
    <g id="xtick_17">
     <g id="line2d_17">
      <g>
       <use style="stroke:#000000;stroke-width:0.8;" x="514.889674" xlink:href="#mfda7d273d1" y="455.101562"/>
      </g>
     </g>
     <g id="text_17">
      <!-- Brockton - Louis F Angelo Elementary -->
      <defs>
       <path d="M 9.8125 72.90625 
L 19.671875 72.90625 
L 19.671875 8.296875 
L 55.171875 8.296875 
L 55.171875 0 
L 9.8125 0 
z
" id="DejaVuSans-4c"/>
      </defs>
      <g transform="translate(517.649049 650.254687)rotate(-90)scale(0.1 -0.1)">
       <use xlink:href="#DejaVuSans-42"/>
       <use x="68.603516" xlink:href="#DejaVuSans-72"/>
       <use x="109.685547" xlink:href="#DejaVuSans-6f"/>
       <use x="170.867188" xlink:href="#DejaVuSans-63"/>
       <use x="225.847656" xlink:href="#DejaVuSans-6b"/>
       <use x="283.757812" xlink:href="#DejaVuSans-74"/>
       <use x="322.966797" xlink:href="#DejaVuSans-6f"/>
       <use x="384.148438" xlink:href="#DejaVuSans-6e"/>
       <use x="447.527344" xlink:href="#DejaVuSans-20"/>
       <use x="479.314453" xlink:href="#DejaVuSans-2d"/>
       <use x="515.398438" xlink:href="#DejaVuSans-20"/>
       <use x="547.185547" xlink:href="#DejaVuSans-4c"/>
       <use x="602.882812" xlink:href="#DejaVuSans-6f"/>
       <use x="664.064453" xlink:href="#DejaVuSans-75"/>
       <use x="727.443359" xlink:href="#DejaVuSans-69"/>
       <use x="755.226562" xlink:href="#DejaVuSans-73"/>
       <use x="807.326172" xlink:href="#DejaVuSans-20"/>
       <use x="839.113281" xlink:href="#DejaVuSans-46"/>
       <use x="896.632812" xlink:href="#DejaVuSans-20"/>
       <use x="928.419922" xlink:href="#DejaVuSans-41"/>
       <use x="996.828125" xlink:href="#DejaVuSans-6e"/>
       <use x="1060.207031" xlink:href="#DejaVuSans-67"/>
       <use x="1123.683594" xlink:href="#DejaVuSans-65"/>
       <use x="1185.207031" xlink:href="#DejaVuSans-6c"/>
       <use x="1212.990234" xlink:href="#DejaVuSans-6f"/>
       <use x="1274.171875" xlink:href="#DejaVuSans-20"/>
       <use x="1305.958984" xlink:href="#DejaVuSans-45"/>
       <use x="1369.142578" xlink:href="#DejaVuSans-6c"/>
       <use x="1396.925781" xlink:href="#DejaVuSans-65"/>
       <use x="1458.449219" xlink:href="#DejaVuSans-6d"/>
       <use x="1555.861328" xlink:href="#DejaVuSans-65"/>
       <use x="1617.384766" xlink:href="#DejaVuSans-6e"/>
       <use x="1680.763672" xlink:href="#DejaVuSans-74"/>
       <use x="1719.972656" xlink:href="#DejaVuSans-61"/>
       <use x="1781.251953" xlink:href="#DejaVuSans-72"/>
       <use x="1822.365234" xlink:href="#DejaVuSans-79"/>
      </g>
     </g>
    </g>
    <g id="xtick_18">
     <g id="line2d_18">
      <g>
       <use style="stroke:#000000;stroke-width:0.8;" x="544.245109" xlink:href="#mfda7d273d1" y="455.101562"/>
      </g>
     </g>
     <g id="text_18">
      <!-- Brockton - Manthala George Jr. School -->
      <g transform="translate(547.004484 652.795312)rotate(-90)scale(0.1 -0.1)">
       <use xlink:href="#DejaVuSans-42"/>
       <use x="68.603516" xlink:href="#DejaVuSans-72"/>
       <use x="109.685547" xlink:href="#DejaVuSans-6f"/>
       <use x="170.867188" xlink:href="#DejaVuSans-63"/>
       <use x="225.847656" xlink:href="#DejaVuSans-6b"/>
       <use x="283.757812" xlink:href="#DejaVuSans-74"/>
       <use x="322.966797" xlink:href="#DejaVuSans-6f"/>
       <use x="384.148438" xlink:href="#DejaVuSans-6e"/>
       <use x="447.527344" xlink:href="#DejaVuSans-20"/>
       <use x="479.314453" xlink:href="#DejaVuSans-2d"/>
       <use x="515.398438" xlink:href="#DejaVuSans-20"/>
       <use x="547.185547" xlink:href="#DejaVuSans-4d"/>
       <use x="633.464844" xlink:href="#DejaVuSans-61"/>
       <use x="694.744141" xlink:href="#DejaVuSans-6e"/>
       <use x="758.123047" xlink:href="#DejaVuSans-74"/>
       <use x="797.332031" xlink:href="#DejaVuSans-68"/>
       <use x="860.710938" xlink:href="#DejaVuSans-61"/>
       <use x="921.990234" xlink:href="#DejaVuSans-6c"/>
       <use x="949.773438" xlink:href="#DejaVuSans-61"/>
       <use x="1011.052734" xlink:href="#DejaVuSans-20"/>
       <use x="1042.839844" xlink:href="#DejaVuSans-47"/>
       <use x="1120.330078" xlink:href="#DejaVuSans-65"/>
       <use x="1181.853516" xlink:href="#DejaVuSans-6f"/>
       <use x="1243.035156" xlink:href="#DejaVuSans-72"/>
       <use x="1284.132812" xlink:href="#DejaVuSans-67"/>
       <use x="1347.609375" xlink:href="#DejaVuSans-65"/>
       <use x="1409.132812" xlink:href="#DejaVuSans-20"/>
       <use x="1440.919922" xlink:href="#DejaVuSans-4a"/>
       <use x="1470.412109" xlink:href="#DejaVuSans-72"/>
       <use x="1511.384766" xlink:href="#DejaVuSans-2e"/>
       <use x="1543.171875" xlink:href="#DejaVuSans-20"/>
       <use x="1574.958984" xlink:href="#DejaVuSans-53"/>
       <use x="1638.435547" xlink:href="#DejaVuSans-63"/>
       <use x="1693.416016" xlink:href="#DejaVuSans-68"/>
       <use x="1756.794922" xlink:href="#DejaVuSans-6f"/>
       <use x="1817.976562" xlink:href="#DejaVuSans-6f"/>
       <use x="1879.158203" xlink:href="#DejaVuSans-6c"/>
      </g>
     </g>
    </g>
    <g id="xtick_19">
     <g id="line2d_19">
      <g>
       <use style="stroke:#000000;stroke-width:0.8;" x="573.600543" xlink:href="#mfda7d273d1" y="455.101562"/>
      </g>
     </g>
     <g id="text_19">
      <!-- Brockton - Mary E. Baker School -->
      <g transform="translate(576.359918 622.875)rotate(-90)scale(0.1 -0.1)">
       <use xlink:href="#DejaVuSans-42"/>
       <use x="68.603516" xlink:href="#DejaVuSans-72"/>
       <use x="109.685547" xlink:href="#DejaVuSans-6f"/>
       <use x="170.867188" xlink:href="#DejaVuSans-63"/>
       <use x="225.847656" xlink:href="#DejaVuSans-6b"/>
       <use x="283.757812" xlink:href="#DejaVuSans-74"/>
       <use x="322.966797" xlink:href="#DejaVuSans-6f"/>
       <use x="384.148438" xlink:href="#DejaVuSans-6e"/>
       <use x="447.527344" xlink:href="#DejaVuSans-20"/>
       <use x="479.314453" xlink:href="#DejaVuSans-2d"/>
       <use x="515.398438" xlink:href="#DejaVuSans-20"/>
       <use x="547.185547" xlink:href="#DejaVuSans-4d"/>
       <use x="633.464844" xlink:href="#DejaVuSans-61"/>
       <use x="694.744141" xlink:href="#DejaVuSans-72"/>
       <use x="735.857422" xlink:href="#DejaVuSans-79"/>
       <use x="795.037109" xlink:href="#DejaVuSans-20"/>
       <use x="826.824219" xlink:href="#DejaVuSans-45"/>
       <use x="890.007812" xlink:href="#DejaVuSans-2e"/>
       <use x="921.794922" xlink:href="#DejaVuSans-20"/>
       <use x="953.582031" xlink:href="#DejaVuSans-42"/>
       <use x="1022.185547" xlink:href="#DejaVuSans-61"/>
       <use x="1083.464844" xlink:href="#DejaVuSans-6b"/>
       <use x="1141.328125" xlink:href="#DejaVuSans-65"/>
       <use x="1202.851562" xlink:href="#DejaVuSans-72"/>
       <use x="1243.964844" xlink:href="#DejaVuSans-20"/>
       <use x="1275.751953" xlink:href="#DejaVuSans-53"/>
       <use x="1339.228516" xlink:href="#DejaVuSans-63"/>
       <use x="1394.208984" xlink:href="#DejaVuSans-68"/>
       <use x="1457.587891" xlink:href="#DejaVuSans-6f"/>
       <use x="1518.769531" xlink:href="#DejaVuSans-6f"/>
       <use x="1579.951172" xlink:href="#DejaVuSans-6c"/>
      </g>
     </g>
    </g>
    <g id="xtick_20">
     <g id="line2d_20">
      <g>
       <use style="stroke:#000000;stroke-width:0.8;" x="602.955978" xlink:href="#mfda7d273d1" y="455.101562"/>
      </g>
     </g>
     <g id="text_20">
      <!-- Brockton - North Middle School -->
      <defs>
       <path d="M 9.8125 72.90625 
L 23.09375 72.90625 
L 55.421875 11.921875 
L 55.421875 72.90625 
L 64.984375 72.90625 
L 64.984375 0 
L 51.703125 0 
L 19.390625 60.984375 
L 19.390625 0 
L 9.8125 0 
z
" id="DejaVuSans-4e"/>
      </defs>
      <g transform="translate(605.715353 617.378125)rotate(-90)scale(0.1 -0.1)">
       <use xlink:href="#DejaVuSans-42"/>
       <use x="68.603516" xlink:href="#DejaVuSans-72"/>
       <use x="109.685547" xlink:href="#DejaVuSans-6f"/>
       <use x="170.867188" xlink:href="#DejaVuSans-63"/>
       <use x="225.847656" xlink:href="#DejaVuSans-6b"/>
       <use x="283.757812" xlink:href="#DejaVuSans-74"/>
       <use x="322.966797" xlink:href="#DejaVuSans-6f"/>
       <use x="384.148438" xlink:href="#DejaVuSans-6e"/>
       <use x="447.527344" xlink:href="#DejaVuSans-20"/>
       <use x="479.314453" xlink:href="#DejaVuSans-2d"/>
       <use x="515.398438" xlink:href="#DejaVuSans-20"/>
       <use x="547.185547" xlink:href="#DejaVuSans-4e"/>
       <use x="621.990234" xlink:href="#DejaVuSans-6f"/>
       <use x="683.171875" xlink:href="#DejaVuSans-72"/>
       <use x="724.285156" xlink:href="#DejaVuSans-74"/>
       <use x="763.494141" xlink:href="#DejaVuSans-68"/>
       <use x="826.873047" xlink:href="#DejaVuSans-20"/>
       <use x="858.660156" xlink:href="#DejaVuSans-4d"/>
       <use x="944.939453" xlink:href="#DejaVuSans-69"/>
       <use x="972.722656" xlink:href="#DejaVuSans-64"/>
       <use x="1036.199219" xlink:href="#DejaVuSans-64"/>
       <use x="1099.675781" xlink:href="#DejaVuSans-6c"/>
       <use x="1127.458984" xlink:href="#DejaVuSans-65"/>
       <use x="1188.982422" xlink:href="#DejaVuSans-20"/>
       <use x="1220.769531" xlink:href="#DejaVuSans-53"/>
       <use x="1284.246094" xlink:href="#DejaVuSans-63"/>
       <use x="1339.226562" xlink:href="#DejaVuSans-68"/>
       <use x="1402.605469" xlink:href="#DejaVuSans-6f"/>
       <use x="1463.787109" xlink:href="#DejaVuSans-6f"/>
       <use x="1524.96875" xlink:href="#DejaVuSans-6c"/>
      </g>
     </g>
    </g>
    <g id="xtick_21">
     <g id="line2d_21">
      <g>
       <use style="stroke:#000000;stroke-width:0.8;" x="632.311413" xlink:href="#mfda7d273d1" y="455.101562"/>
      </g>
     </g>
     <g id="text_21">
      <!-- Brockton - Oscar F Raymond -->
      <defs>
       <path d="M 39.40625 66.21875 
Q 28.65625 66.21875 22.328125 58.203125 
Q 16.015625 50.203125 16.015625 36.375 
Q 16.015625 22.609375 22.328125 14.59375 
Q 28.65625 6.59375 39.40625 6.59375 
Q 50.140625 6.59375 56.421875 14.59375 
Q 62.703125 22.609375 62.703125 36.375 
Q 62.703125 50.203125 56.421875 58.203125 
Q 50.140625 66.21875 39.40625 66.21875 
z
M 39.40625 74.21875 
Q 54.734375 74.21875 63.90625 63.9375 
Q 73.09375 53.65625 73.09375 36.375 
Q 73.09375 19.140625 63.90625 8.859375 
Q 54.734375 -1.421875 39.40625 -1.421875 
Q 24.03125 -1.421875 14.8125 8.828125 
Q 5.609375 19.09375 5.609375 36.375 
Q 5.609375 53.65625 14.8125 63.9375 
Q 24.03125 74.21875 39.40625 74.21875 
z
" id="DejaVuSans-4f"/>
      </defs>
      <g transform="translate(635.070788 605.282812)rotate(-90)scale(0.1 -0.1)">
       <use xlink:href="#DejaVuSans-42"/>
       <use x="68.603516" xlink:href="#DejaVuSans-72"/>
       <use x="109.685547" xlink:href="#DejaVuSans-6f"/>
       <use x="170.867188" xlink:href="#DejaVuSans-63"/>
       <use x="225.847656" xlink:href="#DejaVuSans-6b"/>
       <use x="283.757812" xlink:href="#DejaVuSans-74"/>
       <use x="322.966797" xlink:href="#DejaVuSans-6f"/>
       <use x="384.148438" xlink:href="#DejaVuSans-6e"/>
       <use x="447.527344" xlink:href="#DejaVuSans-20"/>
       <use x="479.314453" xlink:href="#DejaVuSans-2d"/>
       <use x="515.398438" xlink:href="#DejaVuSans-20"/>
       <use x="547.185547" xlink:href="#DejaVuSans-4f"/>
       <use x="625.896484" xlink:href="#DejaVuSans-73"/>
       <use x="677.996094" xlink:href="#DejaVuSans-63"/>
       <use x="732.976562" xlink:href="#DejaVuSans-61"/>
       <use x="794.255859" xlink:href="#DejaVuSans-72"/>
       <use x="835.369141" xlink:href="#DejaVuSans-20"/>
       <use x="867.15625" xlink:href="#DejaVuSans-46"/>
       <use x="924.675781" xlink:href="#DejaVuSans-20"/>
       <use x="956.462891" xlink:href="#DejaVuSans-52"/>
       <use x="1025.914062" xlink:href="#DejaVuSans-61"/>
       <use x="1087.193359" xlink:href="#DejaVuSans-79"/>
       <use x="1146.373047" xlink:href="#DejaVuSans-6d"/>
       <use x="1243.785156" xlink:href="#DejaVuSans-6f"/>
       <use x="1304.966797" xlink:href="#DejaVuSans-6e"/>
       <use x="1368.345703" xlink:href="#DejaVuSans-64"/>
      </g>
     </g>
    </g>
    <g id="xtick_22">
     <g id="line2d_22">
      <g>
       <use style="stroke:#000000;stroke-width:0.8;" x="661.666848" xlink:href="#mfda7d273d1" y="455.101562"/>
      </g>
     </g>
     <g id="text_22">
      <!-- Brockton - South Middle School -->
      <g transform="translate(664.426223 618.471875)rotate(-90)scale(0.1 -0.1)">
       <use xlink:href="#DejaVuSans-42"/>
       <use x="68.603516" xlink:href="#DejaVuSans-72"/>
       <use x="109.685547" xlink:href="#DejaVuSans-6f"/>
       <use x="170.867188" xlink:href="#DejaVuSans-63"/>
       <use x="225.847656" xlink:href="#DejaVuSans-6b"/>
       <use x="283.757812" xlink:href="#DejaVuSans-74"/>
       <use x="322.966797" xlink:href="#DejaVuSans-6f"/>
       <use x="384.148438" xlink:href="#DejaVuSans-6e"/>
       <use x="447.527344" xlink:href="#DejaVuSans-20"/>
       <use x="479.314453" xlink:href="#DejaVuSans-2d"/>
       <use x="515.398438" xlink:href="#DejaVuSans-20"/>
       <use x="547.185547" xlink:href="#DejaVuSans-53"/>
       <use x="610.662109" xlink:href="#DejaVuSans-6f"/>
       <use x="671.84375" xlink:href="#DejaVuSans-75"/>
       <use x="735.222656" xlink:href="#DejaVuSans-74"/>
       <use x="774.431641" xlink:href="#DejaVuSans-68"/>
       <use x="837.810547" xlink:href="#DejaVuSans-20"/>
       <use x="869.597656" xlink:href="#DejaVuSans-4d"/>
       <use x="955.876953" xlink:href="#DejaVuSans-69"/>
       <use x="983.660156" xlink:href="#DejaVuSans-64"/>
       <use x="1047.136719" xlink:href="#DejaVuSans-64"/>
       <use x="1110.613281" xlink:href="#DejaVuSans-6c"/>
       <use x="1138.396484" xlink:href="#DejaVuSans-65"/>
       <use x="1199.919922" xlink:href="#DejaVuSans-20"/>
       <use x="1231.707031" xlink:href="#DejaVuSans-53"/>
       <use x="1295.183594" xlink:href="#DejaVuSans-63"/>
       <use x="1350.164062" xlink:href="#DejaVuSans-68"/>
       <use x="1413.542969" xlink:href="#DejaVuSans-6f"/>
       <use x="1474.724609" xlink:href="#DejaVuSans-6f"/>
       <use x="1535.90625" xlink:href="#DejaVuSans-6c"/>
      </g>
     </g>
    </g>
    <g id="xtick_23">
     <g id="line2d_23">
      <g>
       <use style="stroke:#000000;stroke-width:0.8;" x="691.022283" xlink:href="#mfda7d273d1" y="455.101562"/>
      </g>
     </g>
     <g id="text_23">
      <!-- Brockton - West Middle School -->
      <g transform="translate(693.781658 614.571875)rotate(-90)scale(0.1 -0.1)">
       <use xlink:href="#DejaVuSans-42"/>
       <use x="68.603516" xlink:href="#DejaVuSans-72"/>
       <use x="109.685547" xlink:href="#DejaVuSans-6f"/>
       <use x="170.867188" xlink:href="#DejaVuSans-63"/>
       <use x="225.847656" xlink:href="#DejaVuSans-6b"/>
       <use x="283.757812" xlink:href="#DejaVuSans-74"/>
       <use x="322.966797" xlink:href="#DejaVuSans-6f"/>
       <use x="384.148438" xlink:href="#DejaVuSans-6e"/>
       <use x="447.527344" xlink:href="#DejaVuSans-20"/>
       <use x="479.314453" xlink:href="#DejaVuSans-2d"/>
       <use x="515.398438" xlink:href="#DejaVuSans-20"/>
       <use x="547.185547" xlink:href="#DejaVuSans-57"/>
       <use x="645.984375" xlink:href="#DejaVuSans-65"/>
       <use x="707.507812" xlink:href="#DejaVuSans-73"/>
       <use x="759.607422" xlink:href="#DejaVuSans-74"/>
       <use x="798.816406" xlink:href="#DejaVuSans-20"/>
       <use x="830.603516" xlink:href="#DejaVuSans-4d"/>
       <use x="916.882812" xlink:href="#DejaVuSans-69"/>
       <use x="944.666016" xlink:href="#DejaVuSans-64"/>
       <use x="1008.142578" xlink:href="#DejaVuSans-64"/>
       <use x="1071.619141" xlink:href="#DejaVuSans-6c"/>
       <use x="1099.402344" xlink:href="#DejaVuSans-65"/>
       <use x="1160.925781" xlink:href="#DejaVuSans-20"/>
       <use x="1192.712891" xlink:href="#DejaVuSans-53"/>
       <use x="1256.189453" xlink:href="#DejaVuSans-63"/>
       <use x="1311.169922" xlink:href="#DejaVuSans-68"/>
       <use x="1374.548828" xlink:href="#DejaVuSans-6f"/>
       <use x="1435.730469" xlink:href="#DejaVuSans-6f"/>
       <use x="1496.912109" xlink:href="#DejaVuSans-6c"/>
      </g>
     </g>
    </g>
   </g>
   <g id="matplotlib.axis_2">
    <g id="ytick_1">
     <g id="line2d_24">
      <defs>
       <path d="M 0 0 
L -3.5 0 
" id="m116c29ee90" style="stroke:#000000;stroke-width:0.8;"/>
      </defs>
      <g>
       <use style="stroke:#000000;stroke-width:0.8;" x="30.525" xlink:href="#m116c29ee90" y="455.101562"/>
      </g>
     </g>
     <g id="text_24">
      <!-- 0 -->
      <defs>
       <path d="M 31.78125 66.40625 
Q 24.171875 66.40625 20.328125 58.90625 
Q 16.5 51.421875 16.5 36.375 
Q 16.5 21.390625 20.328125 13.890625 
Q 24.171875 6.390625 31.78125 6.390625 
Q 39.453125 6.390625 43.28125 13.890625 
Q 47.125 21.390625 47.125 36.375 
Q 47.125 51.421875 43.28125 58.90625 
Q 39.453125 66.40625 31.78125 66.40625 
z
M 31.78125 74.21875 
Q 44.046875 74.21875 50.515625 64.515625 
Q 56.984375 54.828125 56.984375 36.375 
Q 56.984375 17.96875 50.515625 8.265625 
Q 44.046875 -1.421875 31.78125 -1.421875 
Q 19.53125 -1.421875 13.0625 8.265625 
Q 6.59375 17.96875 6.59375 36.375 
Q 6.59375 54.828125 13.0625 64.515625 
Q 19.53125 74.21875 31.78125 74.21875 
z
" id="DejaVuSans-30"/>
      </defs>
      <g transform="translate(17.1625 458.900781)scale(0.1 -0.1)">
       <use xlink:href="#DejaVuSans-30"/>
      </g>
     </g>
    </g>
    <g id="ytick_2">
     <g id="line2d_25">
      <g>
       <use style="stroke:#000000;stroke-width:0.8;" x="30.525" xlink:href="#m116c29ee90" y="400.224306"/>
      </g>
     </g>
     <g id="text_25">
      <!-- 10 -->
      <defs>
       <path d="M 12.40625 8.296875 
L 28.515625 8.296875 
L 28.515625 63.921875 
L 10.984375 60.40625 
L 10.984375 69.390625 
L 28.421875 72.90625 
L 38.28125 72.90625 
L 38.28125 8.296875 
L 54.390625 8.296875 
L 54.390625 0 
L 12.40625 0 
z
" id="DejaVuSans-31"/>
      </defs>
      <g transform="translate(10.8 404.023525)scale(0.1 -0.1)">
       <use xlink:href="#DejaVuSans-31"/>
       <use x="63.623047" xlink:href="#DejaVuSans-30"/>
      </g>
     </g>
    </g>
    <g id="ytick_3">
     <g id="line2d_26">
      <g>
       <use style="stroke:#000000;stroke-width:0.8;" x="30.525" xlink:href="#m116c29ee90" y="345.34705"/>
      </g>
     </g>
     <g id="text_26">
      <!-- 20 -->
      <defs>
       <path d="M 19.1875 8.296875 
L 53.609375 8.296875 
L 53.609375 0 
L 7.328125 0 
L 7.328125 8.296875 
Q 12.9375 14.109375 22.625 23.890625 
Q 32.328125 33.6875 34.8125 36.53125 
Q 39.546875 41.84375 41.421875 45.53125 
Q 43.3125 49.21875 43.3125 52.78125 
Q 43.3125 58.59375 39.234375 62.25 
Q 35.15625 65.921875 28.609375 65.921875 
Q 23.96875 65.921875 18.8125 64.3125 
Q 13.671875 62.703125 7.8125 59.421875 
L 7.8125 69.390625 
Q 13.765625 71.78125 18.9375 73 
Q 24.125 74.21875 28.421875 74.21875 
Q 39.75 74.21875 46.484375 68.546875 
Q 53.21875 62.890625 53.21875 53.421875 
Q 53.21875 48.921875 51.53125 44.890625 
Q 49.859375 40.875 45.40625 35.40625 
Q 44.1875 33.984375 37.640625 27.21875 
Q 31.109375 20.453125 19.1875 8.296875 
z
" id="DejaVuSans-32"/>
      </defs>
      <g transform="translate(10.8 349.146268)scale(0.1 -0.1)">
       <use xlink:href="#DejaVuSans-32"/>
       <use x="63.623047" xlink:href="#DejaVuSans-30"/>
      </g>
     </g>
    </g>
    <g id="ytick_4">
     <g id="line2d_27">
      <g>
       <use style="stroke:#000000;stroke-width:0.8;" x="30.525" xlink:href="#m116c29ee90" y="290.469793"/>
      </g>
     </g>
     <g id="text_27">
      <!-- 30 -->
      <defs>
       <path d="M 40.578125 39.3125 
Q 47.65625 37.796875 51.625 33 
Q 55.609375 28.21875 55.609375 21.1875 
Q 55.609375 10.40625 48.1875 4.484375 
Q 40.765625 -1.421875 27.09375 -1.421875 
Q 22.515625 -1.421875 17.65625 -0.515625 
Q 12.796875 0.390625 7.625 2.203125 
L 7.625 11.71875 
Q 11.71875 9.328125 16.59375 8.109375 
Q 21.484375 6.890625 26.8125 6.890625 
Q 36.078125 6.890625 40.9375 10.546875 
Q 45.796875 14.203125 45.796875 21.1875 
Q 45.796875 27.640625 41.28125 31.265625 
Q 36.765625 34.90625 28.71875 34.90625 
L 20.21875 34.90625 
L 20.21875 43.015625 
L 29.109375 43.015625 
Q 36.375 43.015625 40.234375 45.921875 
Q 44.09375 48.828125 44.09375 54.296875 
Q 44.09375 59.90625 40.109375 62.90625 
Q 36.140625 65.921875 28.71875 65.921875 
Q 24.65625 65.921875 20.015625 65.03125 
Q 15.375 64.15625 9.8125 62.3125 
L 9.8125 71.09375 
Q 15.4375 72.65625 20.34375 73.4375 
Q 25.25 74.21875 29.59375 74.21875 
Q 40.828125 74.21875 47.359375 69.109375 
Q 53.90625 64.015625 53.90625 55.328125 
Q 53.90625 49.265625 50.4375 45.09375 
Q 46.96875 40.921875 40.578125 39.3125 
z
" id="DejaVuSans-33"/>
      </defs>
      <g transform="translate(10.8 294.269012)scale(0.1 -0.1)">
       <use xlink:href="#DejaVuSans-33"/>
       <use x="63.623047" xlink:href="#DejaVuSans-30"/>
      </g>
     </g>
    </g>
    <g id="ytick_5">
     <g id="line2d_28">
      <g>
       <use style="stroke:#000000;stroke-width:0.8;" x="30.525" xlink:href="#m116c29ee90" y="235.592537"/>
      </g>
     </g>
     <g id="text_28">
      <!-- 40 -->
      <defs>
       <path d="M 37.796875 64.3125 
L 12.890625 25.390625 
L 37.796875 25.390625 
z
M 35.203125 72.90625 
L 47.609375 72.90625 
L 47.609375 25.390625 
L 58.015625 25.390625 
L 58.015625 17.1875 
L 47.609375 17.1875 
L 47.609375 0 
L 37.796875 0 
L 37.796875 17.1875 
L 4.890625 17.1875 
L 4.890625 26.703125 
z
" id="DejaVuSans-34"/>
      </defs>
      <g transform="translate(10.8 239.391755)scale(0.1 -0.1)">
       <use xlink:href="#DejaVuSans-34"/>
       <use x="63.623047" xlink:href="#DejaVuSans-30"/>
      </g>
     </g>
    </g>
    <g id="ytick_6">
     <g id="line2d_29">
      <g>
       <use style="stroke:#000000;stroke-width:0.8;" x="30.525" xlink:href="#m116c29ee90" y="180.71528"/>
      </g>
     </g>
     <g id="text_29">
      <!-- 50 -->
      <defs>
       <path d="M 10.796875 72.90625 
L 49.515625 72.90625 
L 49.515625 64.59375 
L 19.828125 64.59375 
L 19.828125 46.734375 
Q 21.96875 47.46875 24.109375 47.828125 
Q 26.265625 48.1875 28.421875 48.1875 
Q 40.625 48.1875 47.75 41.5 
Q 54.890625 34.8125 54.890625 23.390625 
Q 54.890625 11.625 47.5625 5.09375 
Q 40.234375 -1.421875 26.90625 -1.421875 
Q 22.3125 -1.421875 17.546875 -0.640625 
Q 12.796875 0.140625 7.71875 1.703125 
L 7.71875 11.625 
Q 12.109375 9.234375 16.796875 8.0625 
Q 21.484375 6.890625 26.703125 6.890625 
Q 35.15625 6.890625 40.078125 11.328125 
Q 45.015625 15.765625 45.015625 23.390625 
Q 45.015625 31 40.078125 35.4375 
Q 35.15625 39.890625 26.703125 39.890625 
Q 22.75 39.890625 18.8125 39.015625 
Q 14.890625 38.140625 10.796875 36.28125 
z
" id="DejaVuSans-35"/>
      </defs>
      <g transform="translate(10.8 184.514499)scale(0.1 -0.1)">
       <use xlink:href="#DejaVuSans-35"/>
       <use x="63.623047" xlink:href="#DejaVuSans-30"/>
      </g>
     </g>
    </g>
    <g id="ytick_7">
     <g id="line2d_30">
      <g>
       <use style="stroke:#000000;stroke-width:0.8;" x="30.525" xlink:href="#m116c29ee90" y="125.838024"/>
      </g>
     </g>
     <g id="text_30">
      <!-- 60 -->
      <defs>
       <path d="M 33.015625 40.375 
Q 26.375 40.375 22.484375 35.828125 
Q 18.609375 31.296875 18.609375 23.390625 
Q 18.609375 15.53125 22.484375 10.953125 
Q 26.375 6.390625 33.015625 6.390625 
Q 39.65625 6.390625 43.53125 10.953125 
Q 47.40625 15.53125 47.40625 23.390625 
Q 47.40625 31.296875 43.53125 35.828125 
Q 39.65625 40.375 33.015625 40.375 
z
M 52.59375 71.296875 
L 52.59375 62.3125 
Q 48.875 64.0625 45.09375 64.984375 
Q 41.3125 65.921875 37.59375 65.921875 
Q 27.828125 65.921875 22.671875 59.328125 
Q 17.53125 52.734375 16.796875 39.40625 
Q 19.671875 43.65625 24.015625 45.921875 
Q 28.375 48.1875 33.59375 48.1875 
Q 44.578125 48.1875 50.953125 41.515625 
Q 57.328125 34.859375 57.328125 23.390625 
Q 57.328125 12.15625 50.6875 5.359375 
Q 44.046875 -1.421875 33.015625 -1.421875 
Q 20.359375 -1.421875 13.671875 8.265625 
Q 6.984375 17.96875 6.984375 36.375 
Q 6.984375 53.65625 15.1875 63.9375 
Q 23.390625 74.21875 37.203125 74.21875 
Q 40.921875 74.21875 44.703125 73.484375 
Q 48.484375 72.75 52.59375 71.296875 
z
" id="DejaVuSans-36"/>
      </defs>
      <g transform="translate(10.8 129.637243)scale(0.1 -0.1)">
       <use xlink:href="#DejaVuSans-36"/>
       <use x="63.623047" xlink:href="#DejaVuSans-30"/>
      </g>
     </g>
    </g>
    <g id="ytick_8">
     <g id="line2d_31">
      <g>
       <use style="stroke:#000000;stroke-width:0.8;" x="30.525" xlink:href="#m116c29ee90" y="70.960767"/>
      </g>
     </g>
     <g id="text_31">
      <!-- 70 -->
      <defs>
       <path d="M 8.203125 72.90625 
L 55.078125 72.90625 
L 55.078125 68.703125 
L 28.609375 0 
L 18.3125 0 
L 43.21875 64.59375 
L 8.203125 64.59375 
z
" id="DejaVuSans-37"/>
      </defs>
      <g transform="translate(10.8 74.759986)scale(0.1 -0.1)">
       <use xlink:href="#DejaVuSans-37"/>
       <use x="63.623047" xlink:href="#DejaVuSans-30"/>
      </g>
     </g>
    </g>
    <g id="ytick_9">
     <g id="line2d_32">
      <g>
       <use style="stroke:#000000;stroke-width:0.8;" x="30.525" xlink:href="#m116c29ee90" y="16.083511"/>
      </g>
     </g>
     <g id="text_32">
      <!-- 80 -->
      <defs>
       <path d="M 31.78125 34.625 
Q 24.75 34.625 20.71875 30.859375 
Q 16.703125 27.09375 16.703125 20.515625 
Q 16.703125 13.921875 20.71875 10.15625 
Q 24.75 6.390625 31.78125 6.390625 
Q 38.8125 6.390625 42.859375 10.171875 
Q 46.921875 13.96875 46.921875 20.515625 
Q 46.921875 27.09375 42.890625 30.859375 
Q 38.875 34.625 31.78125 34.625 
z
M 21.921875 38.8125 
Q 15.578125 40.375 12.03125 44.71875 
Q 8.5 49.078125 8.5 55.328125 
Q 8.5 64.0625 14.71875 69.140625 
Q 20.953125 74.21875 31.78125 74.21875 
Q 42.671875 74.21875 48.875 69.140625 
Q 55.078125 64.0625 55.078125 55.328125 
Q 55.078125 49.078125 51.53125 44.71875 
Q 48 40.375 41.703125 38.8125 
Q 48.828125 37.15625 52.796875 32.3125 
Q 56.78125 27.484375 56.78125 20.515625 
Q 56.78125 9.90625 50.3125 4.234375 
Q 43.84375 -1.421875 31.78125 -1.421875 
Q 19.734375 -1.421875 13.25 4.234375 
Q 6.78125 9.90625 6.78125 20.515625 
Q 6.78125 27.484375 10.78125 32.3125 
Q 14.796875 37.15625 21.921875 38.8125 
z
M 18.3125 54.390625 
Q 18.3125 48.734375 21.84375 45.5625 
Q 25.390625 42.390625 31.78125 42.390625 
Q 38.140625 42.390625 41.71875 45.5625 
Q 45.3125 48.734375 45.3125 54.390625 
Q 45.3125 60.0625 41.71875 63.234375 
Q 38.140625 66.40625 31.78125 66.40625 
Q 25.390625 66.40625 21.84375 63.234375 
Q 18.3125 60.0625 18.3125 54.390625 
z
" id="DejaVuSans-38"/>
      </defs>
      <g transform="translate(10.8 19.88273)scale(0.1 -0.1)">
       <use xlink:href="#DejaVuSans-38"/>
       <use x="63.623047" xlink:href="#DejaVuSans-30"/>
      </g>
     </g>
    </g>
   </g>
   <g id="patch_49">
    <path d="M 30.525 455.101562 
L 30.525 14.3 
" style="fill:none;stroke:#000000;stroke-linecap:square;stroke-linejoin:miter;stroke-width:0.8;"/>
   </g>
   <g id="patch_50">
    <path d="M 705.7 455.101562 
L 705.7 14.3 
" style="fill:none;stroke:#000000;stroke-linecap:square;stroke-linejoin:miter;stroke-width:0.8;"/>
   </g>
   <g id="patch_51">
    <path d="M 30.525 455.101562 
L 705.7 455.101562 
" style="fill:none;stroke:#000000;stroke-linecap:square;stroke-linejoin:miter;stroke-width:0.8;"/>
   </g>
   <g id="patch_52">
    <path d="M 30.525 14.3 
L 705.7 14.3 
" style="fill:none;stroke:#000000;stroke-linecap:square;stroke-linejoin:miter;stroke-width:0.8;"/>
   </g>
   <g id="legend_1">
    <g id="patch_53">
     <path d="M 503.764063 51.65625 
L 698.7 51.65625 
Q 700.7 51.65625 700.7 49.65625 
L 700.7 21.3 
Q 700.7 19.3 698.7 19.3 
L 503.764063 19.3 
Q 501.764063 19.3 501.764063 21.3 
L 501.764063 49.65625 
Q 501.764063 51.65625 503.764063 51.65625 
z
" style="fill:#ffffff;opacity:0.8;stroke:#cccccc;stroke-linejoin:miter;"/>
    </g>
    <g id="patch_54">
     <path d="M 505.764063 30.898438 
L 525.764063 30.898438 
L 525.764063 23.898438 
L 505.764063 23.898438 
z
" style="fill:#1f77b4;"/>
    </g>
    <g id="text_33">
     <!-- FirstLanguageNotEnglishPercent -->
     <g transform="translate(533.764063 30.898438)scale(0.1 -0.1)">
      <use xlink:href="#DejaVuSans-46"/>
      <use x="57.410156" xlink:href="#DejaVuSans-69"/>
      <use x="85.193359" xlink:href="#DejaVuSans-72"/>
      <use x="126.306641" xlink:href="#DejaVuSans-73"/>
      <use x="178.40625" xlink:href="#DejaVuSans-74"/>
      <use x="217.615234" xlink:href="#DejaVuSans-4c"/>
      <use x="273.328125" xlink:href="#DejaVuSans-61"/>
      <use x="334.607422" xlink:href="#DejaVuSans-6e"/>
      <use x="397.986328" xlink:href="#DejaVuSans-67"/>
      <use x="461.462891" xlink:href="#DejaVuSans-75"/>
      <use x="524.841797" xlink:href="#DejaVuSans-61"/>
      <use x="586.121094" xlink:href="#DejaVuSans-67"/>
      <use x="649.597656" xlink:href="#DejaVuSans-65"/>
      <use x="711.121094" xlink:href="#DejaVuSans-4e"/>
      <use x="785.925781" xlink:href="#DejaVuSans-6f"/>
      <use x="847.107422" xlink:href="#DejaVuSans-74"/>
      <use x="886.316406" xlink:href="#DejaVuSans-45"/>
      <use x="949.5" xlink:href="#DejaVuSans-6e"/>
      <use x="1012.878906" xlink:href="#DejaVuSans-67"/>
      <use x="1076.355469" xlink:href="#DejaVuSans-6c"/>
      <use x="1104.138672" xlink:href="#DejaVuSans-69"/>
      <use x="1131.921875" xlink:href="#DejaVuSans-73"/>
      <use x="1184.021484" xlink:href="#DejaVuSans-68"/>
      <use x="1247.400391" xlink:href="#DejaVuSans-50"/>
      <use x="1307.65625" xlink:href="#DejaVuSans-65"/>
      <use x="1369.179688" xlink:href="#DejaVuSans-72"/>
      <use x="1410.261719" xlink:href="#DejaVuSans-63"/>
      <use x="1465.242188" xlink:href="#DejaVuSans-65"/>
      <use x="1526.765625" xlink:href="#DejaVuSans-6e"/>
      <use x="1590.144531" xlink:href="#DejaVuSans-74"/>
     </g>
    </g>
    <g id="patch_55">
     <path d="M 505.764063 45.576563 
L 525.764063 45.576563 
L 525.764063 38.576563 
L 505.764063 38.576563 
z
" style="fill:#ff7f0e;"/>
    </g>
    <g id="text_34">
     <!-- EnglishLanguageLearnerPercent -->
     <g transform="translate(533.764063 45.576563)scale(0.1 -0.1)">
      <use xlink:href="#DejaVuSans-45"/>
      <use x="63.183594" xlink:href="#DejaVuSans-6e"/>
      <use x="126.5625" xlink:href="#DejaVuSans-67"/>
      <use x="190.039062" xlink:href="#DejaVuSans-6c"/>
      <use x="217.822266" xlink:href="#DejaVuSans-69"/>
      <use x="245.605469" xlink:href="#DejaVuSans-73"/>
      <use x="297.705078" xlink:href="#DejaVuSans-68"/>
      <use x="361.083984" xlink:href="#DejaVuSans-4c"/>
      <use x="416.796875" xlink:href="#DejaVuSans-61"/>
      <use x="478.076172" xlink:href="#DejaVuSans-6e"/>
      <use x="541.455078" xlink:href="#DejaVuSans-67"/>
      <use x="604.931641" xlink:href="#DejaVuSans-75"/>
      <use x="668.310547" xlink:href="#DejaVuSans-61"/>
      <use x="729.589844" xlink:href="#DejaVuSans-67"/>
      <use x="793.066406" xlink:href="#DejaVuSans-65"/>
      <use x="854.589844" xlink:href="#DejaVuSans-4c"/>
      <use x="910.287109" xlink:href="#DejaVuSans-65"/>
      <use x="971.810547" xlink:href="#DejaVuSans-61"/>
      <use x="1033.089844" xlink:href="#DejaVuSans-72"/>
      <use x="1074.1875" xlink:href="#DejaVuSans-6e"/>
      <use x="1137.566406" xlink:href="#DejaVuSans-65"/>
      <use x="1199.089844" xlink:href="#DejaVuSans-72"/>
      <use x="1240.203125" xlink:href="#DejaVuSans-50"/>
      <use x="1300.458984" xlink:href="#DejaVuSans-65"/>
      <use x="1361.982422" xlink:href="#DejaVuSans-72"/>
      <use x="1403.064453" xlink:href="#DejaVuSans-63"/>
      <use x="1458.044922" xlink:href="#DejaVuSans-65"/>
      <use x="1519.568359" xlink:href="#DejaVuSans-6e"/>
      <use x="1582.947266" xlink:href="#DejaVuSans-74"/>
     </g>
    </g>
   </g>
  </g>
 </g>
 <defs>
  <clipPath id="p43098afa4a">
   <rect height="440.801562" width="675.175" x="30.525" y="14.3"/>
  </clipPath>
 </defs>
</svg>
