<?xml version="1.0" encoding="utf-8" standalone="no"?>
<!DOCTYPE svg PUBLIC "-//W3C//DTD SVG 1.1//EN"
  "http://www.w3.org/Graphics/SVG/1.1/DTD/svg11.dtd">
<!-- Created with matplotlib (http://matplotlib.org/) -->
<svg height="720pt" version="1.1" viewBox="0 0 720 720" width="720pt" xmlns="http://www.w3.org/2000/svg" xmlns:xlink="http://www.w3.org/1999/xlink">
 <defs>
  <style type="text/css">
*{stroke-linecap:butt;stroke-linejoin:round;}
  </style>
 </defs>
 <g id="figure_1">
  <g id="patch_1">
   <path d="M 0 720 
L 720 720 
L 720 0 
L 0 0 
z
" style="fill:#ffffff;"/>
  </g>
  <g id="axes_1">
   <g id="patch_2">
    <path d="M 30.525 432.032812 
L 705.7 432.032812 
L 705.7 14.3 
L 30.525 14.3 
z
" style="fill:#ffffff;"/>
   </g>
   <g id="patch_3">
    <path clip-path="url(#p89d0d210a7)" d="M 45.869886 432.032812 
L 61.214773 432.032812 
L 61.214773 153.172457 
L 45.869886 153.172457 
z
" style="fill:#1f77b4;"/>
   </g>
   <g id="patch_4">
    <path clip-path="url(#p89d0d210a7)" d="M 107.249432 432.032812 
L 122.594318 432.032812 
L 122.594318 113.866426 
L 107.249432 113.866426 
z
" style="fill:#1f77b4;"/>
   </g>
   <g id="patch_5">
    <path clip-path="url(#p89d0d210a7)" d="M 168.628977 432.032812 
L 183.973864 432.032812 
L 183.973864 96.869223 
L 168.628977 96.869223 
z
" style="fill:#1f77b4;"/>
   </g>
   <g id="patch_6">
    <path clip-path="url(#p89d0d210a7)" d="M 230.008523 432.032812 
L 245.353409 432.032812 
L 245.353409 34.192039 
L 230.008523 34.192039 
z
" style="fill:#1f77b4;"/>
   </g>
   <g id="patch_7">
    <path clip-path="url(#p89d0d210a7)" d="M 291.388068 432.032812 
L 306.732955 432.032812 
L 306.732955 92.619923 
L 291.388068 92.619923 
z
" style="fill:#1f77b4;"/>
   </g>
   <g id="patch_8">
    <path clip-path="url(#p89d0d210a7)" d="M 352.767614 432.032812 
L 368.1125 432.032812 
L 368.1125 121.302702 
L 352.767614 121.302702 
z
" style="fill:#1f77b4;"/>
   </g>
   <g id="patch_9">
    <path clip-path="url(#p89d0d210a7)" d="M 414.147159 432.032812 
L 429.492045 432.032812 
L 429.492045 100.587361 
L 414.147159 100.587361 
z
" style="fill:#1f77b4;"/>
   </g>
   <g id="patch_10">
    <path clip-path="url(#p89d0d210a7)" d="M 475.526705 432.032812 
L 490.871591 432.032812 
L 490.871591 130.332466 
L 475.526705 130.332466 
z
" style="fill:#1f77b4;"/>
   </g>
   <g id="patch_11">
    <path clip-path="url(#p89d0d210a7)" d="M 536.90625 432.032812 
L 552.251136 432.032812 
L 552.251136 198.852439 
L 536.90625 198.852439 
z
" style="fill:#1f77b4;"/>
   </g>
   <g id="patch_12">
    <path clip-path="url(#p89d0d210a7)" d="M 598.285795 432.032812 
L 613.630682 432.032812 
L 613.630682 77.74737 
L 598.285795 77.74737 
z
" style="fill:#1f77b4;"/>
   </g>
   <g id="patch_13">
    <path clip-path="url(#p89d0d210a7)" d="M 659.665341 432.032812 
L 675.010227 432.032812 
L 675.010227 103.774337 
L 659.665341 103.774337 
z
" style="fill:#1f77b4;"/>
   </g>
   <g id="patch_14">
    <path clip-path="url(#p89d0d210a7)" d="M 61.214773 432.032812 
L 76.559659 432.032812 
L 76.559659 324.737971 
L 61.214773 324.737971 
z
" style="fill:#ff7f0e;"/>
   </g>
   <g id="patch_15">
    <path clip-path="url(#p89d0d210a7)" d="M 122.594318 432.032812 
L 137.939205 432.032812 
L 137.939205 259.404973 
L 122.594318 259.404973 
z
" style="fill:#ff7f0e;"/>
   </g>
   <g id="patch_16">
    <path clip-path="url(#p89d0d210a7)" d="M 183.973864 432.032812 
L 199.31875 432.032812 
L 199.31875 254.62451 
L 183.973864 254.62451 
z
" style="fill:#ff7f0e;"/>
   </g>
   <g id="patch_17">
    <path clip-path="url(#p89d0d210a7)" d="M 245.353409 432.032812 
L 260.698295 432.032812 
L 260.698295 202.570577 
L 245.353409 202.570577 
z
" style="fill:#ff7f0e;"/>
   </g>
   <g id="patch_18">
    <path clip-path="url(#p89d0d210a7)" d="M 306.732955 432.032812 
L 322.077841 432.032812 
L 322.077841 349.17145 
L 306.732955 349.17145 
z
" style="fill:#ff7f0e;"/>
   </g>
   <g id="patch_19">
    <path clip-path="url(#p89d0d210a7)" d="M 368.1125 432.032812 
L 383.457386 432.032812 
L 383.457386 276.933339 
L 368.1125 276.933339 
z
" style="fill:#ff7f0e;"/>
   </g>
   <g id="patch_20">
    <path clip-path="url(#p89d0d210a7)" d="M 429.492045 432.032812 
L 444.836932 432.032812 
L 444.836932 345.984474 
L 429.492045 345.984474 
z
" style="fill:#ff7f0e;"/>
   </g>
   <g id="patch_21">
    <path clip-path="url(#p89d0d210a7)" d="M 490.871591 432.032812 
L 506.216477 432.032812 
L 506.216477 411.317472 
L 490.871591 411.317472 
z
" style="fill:#ff7f0e;"/>
   </g>
   <g id="patch_22">
    <path clip-path="url(#p89d0d210a7)" d="M 552.251136 432.032812 
L 567.596023 432.032812 
L 567.596023 399.631895 
L 552.251136 399.631895 
z
" style="fill:#ff7f0e;"/>
   </g>
   <g id="patch_23">
    <path clip-path="url(#p89d0d210a7)" d="M 613.630682 432.032812 
L 628.975568 432.032812 
L 628.975568 253.562185 
L 613.630682 253.562185 
z
" style="fill:#ff7f0e;"/>
   </g>
   <g id="patch_24">
    <path clip-path="url(#p89d0d210a7)" d="M 675.010227 432.032812 
L 690.355114 432.032812 
L 690.355114 360.325864 
L 675.010227 360.325864 
z
" style="fill:#ff7f0e;"/>
   </g>
   <g id="matplotlib.axis_1">
    <g id="xtick_1">
     <g id="line2d_1">
      <defs>
       <path d="M 0 0 
L 0 3.5 
" id="m351deb0504" style="stroke:#000000;stroke-width:0.8;"/>
      </defs>
      <g>
       <use style="stroke:#000000;stroke-width:0.8;" x="61.214773" xlink:href="#m351deb0504" y="432.032812"/>
      </g>
     </g>
     <g id="text_1">
      <!-- Revere - A. C. Whelan Elementary School -->
      <defs>
       <path d="M 44.390625 34.1875 
Q 47.5625 33.109375 50.5625 29.59375 
Q 53.5625 26.078125 56.59375 19.921875 
L 66.609375 0 
L 56 0 
L 46.6875 18.703125 
Q 43.0625 26.03125 39.671875 28.421875 
Q 36.28125 30.8125 30.421875 30.8125 
L 19.671875 30.8125 
L 19.671875 0 
L 9.8125 0 
L 9.8125 72.90625 
L 32.078125 72.90625 
Q 44.578125 72.90625 50.734375 67.671875 
Q 56.890625 62.453125 56.890625 51.90625 
Q 56.890625 45.015625 53.6875 40.46875 
Q 50.484375 35.9375 44.390625 34.1875 
z
M 19.671875 64.796875 
L 19.671875 38.921875 
L 32.078125 38.921875 
Q 39.203125 38.921875 42.84375 42.21875 
Q 46.484375 45.515625 46.484375 51.90625 
Q 46.484375 58.296875 42.84375 61.546875 
Q 39.203125 64.796875 32.078125 64.796875 
z
" id="DejaVuSans-52"/>
       <path d="M 56.203125 29.59375 
L 56.203125 25.203125 
L 14.890625 25.203125 
Q 15.484375 15.921875 20.484375 11.0625 
Q 25.484375 6.203125 34.421875 6.203125 
Q 39.59375 6.203125 44.453125 7.46875 
Q 49.3125 8.734375 54.109375 11.28125 
L 54.109375 2.78125 
Q 49.265625 0.734375 44.1875 -0.34375 
Q 39.109375 -1.421875 33.890625 -1.421875 
Q 20.796875 -1.421875 13.15625 6.1875 
Q 5.515625 13.8125 5.515625 26.8125 
Q 5.515625 40.234375 12.765625 48.109375 
Q 20.015625 56 32.328125 56 
Q 43.359375 56 49.78125 48.890625 
Q 56.203125 41.796875 56.203125 29.59375 
z
M 47.21875 32.234375 
Q 47.125 39.59375 43.09375 43.984375 
Q 39.0625 48.390625 32.421875 48.390625 
Q 24.90625 48.390625 20.390625 44.140625 
Q 15.875 39.890625 15.1875 32.171875 
z
" id="DejaVuSans-65"/>
       <path d="M 2.984375 54.6875 
L 12.5 54.6875 
L 29.59375 8.796875 
L 46.6875 54.6875 
L 56.203125 54.6875 
L 35.6875 0 
L 23.484375 0 
z
" id="DejaVuSans-76"/>
       <path d="M 41.109375 46.296875 
Q 39.59375 47.171875 37.8125 47.578125 
Q 36.03125 48 33.890625 48 
Q 26.265625 48 22.1875 43.046875 
Q 18.109375 38.09375 18.109375 28.8125 
L 18.109375 0 
L 9.078125 0 
L 9.078125 54.6875 
L 18.109375 54.6875 
L 18.109375 46.1875 
Q 20.953125 51.171875 25.484375 53.578125 
Q 30.03125 56 36.53125 56 
Q 37.453125 56 38.578125 55.875 
Q 39.703125 55.765625 41.0625 55.515625 
z
" id="DejaVuSans-72"/>
       <path id="DejaVuSans-20"/>
       <path d="M 4.890625 31.390625 
L 31.203125 31.390625 
L 31.203125 23.390625 
L 4.890625 23.390625 
z
" id="DejaVuSans-2d"/>
       <path d="M 34.1875 63.1875 
L 20.796875 26.90625 
L 47.609375 26.90625 
z
M 28.609375 72.90625 
L 39.796875 72.90625 
L 67.578125 0 
L 57.328125 0 
L 50.6875 18.703125 
L 17.828125 18.703125 
L 11.1875 0 
L 0.78125 0 
z
" id="DejaVuSans-41"/>
       <path d="M 10.6875 12.40625 
L 21 12.40625 
L 21 0 
L 10.6875 0 
z
" id="DejaVuSans-2e"/>
       <path d="M 64.40625 67.28125 
L 64.40625 56.890625 
Q 59.421875 61.53125 53.78125 63.8125 
Q 48.140625 66.109375 41.796875 66.109375 
Q 29.296875 66.109375 22.65625 58.46875 
Q 16.015625 50.828125 16.015625 36.375 
Q 16.015625 21.96875 22.65625 14.328125 
Q 29.296875 6.6875 41.796875 6.6875 
Q 48.140625 6.6875 53.78125 8.984375 
Q 59.421875 11.28125 64.40625 15.921875 
L 64.40625 5.609375 
Q 59.234375 2.09375 53.4375 0.328125 
Q 47.65625 -1.421875 41.21875 -1.421875 
Q 24.65625 -1.421875 15.125 8.703125 
Q 5.609375 18.84375 5.609375 36.375 
Q 5.609375 53.953125 15.125 64.078125 
Q 24.65625 74.21875 41.21875 74.21875 
Q 47.75 74.21875 53.53125 72.484375 
Q 59.328125 70.75 64.40625 67.28125 
z
" id="DejaVuSans-43"/>
       <path d="M 3.328125 72.90625 
L 13.28125 72.90625 
L 28.609375 11.28125 
L 43.890625 72.90625 
L 54.984375 72.90625 
L 70.3125 11.28125 
L 85.59375 72.90625 
L 95.609375 72.90625 
L 77.296875 0 
L 64.890625 0 
L 49.515625 63.28125 
L 33.984375 0 
L 21.578125 0 
z
" id="DejaVuSans-57"/>
       <path d="M 54.890625 33.015625 
L 54.890625 0 
L 45.90625 0 
L 45.90625 32.71875 
Q 45.90625 40.484375 42.875 44.328125 
Q 39.84375 48.1875 33.796875 48.1875 
Q 26.515625 48.1875 22.3125 43.546875 
Q 18.109375 38.921875 18.109375 30.90625 
L 18.109375 0 
L 9.078125 0 
L 9.078125 75.984375 
L 18.109375 75.984375 
L 18.109375 46.1875 
Q 21.34375 51.125 25.703125 53.5625 
Q 30.078125 56 35.796875 56 
Q 45.21875 56 50.046875 50.171875 
Q 54.890625 44.34375 54.890625 33.015625 
z
" id="DejaVuSans-68"/>
       <path d="M 9.421875 75.984375 
L 18.40625 75.984375 
L 18.40625 0 
L 9.421875 0 
z
" id="DejaVuSans-6c"/>
       <path d="M 34.28125 27.484375 
Q 23.390625 27.484375 19.1875 25 
Q 14.984375 22.515625 14.984375 16.5 
Q 14.984375 11.71875 18.140625 8.90625 
Q 21.296875 6.109375 26.703125 6.109375 
Q 34.1875 6.109375 38.703125 11.40625 
Q 43.21875 16.703125 43.21875 25.484375 
L 43.21875 27.484375 
z
M 52.203125 31.203125 
L 52.203125 0 
L 43.21875 0 
L 43.21875 8.296875 
Q 40.140625 3.328125 35.546875 0.953125 
Q 30.953125 -1.421875 24.3125 -1.421875 
Q 15.921875 -1.421875 10.953125 3.296875 
Q 6 8.015625 6 15.921875 
Q 6 25.140625 12.171875 29.828125 
Q 18.359375 34.515625 30.609375 34.515625 
L 43.21875 34.515625 
L 43.21875 35.40625 
Q 43.21875 41.609375 39.140625 45 
Q 35.0625 48.390625 27.6875 48.390625 
Q 23 48.390625 18.546875 47.265625 
Q 14.109375 46.140625 10.015625 43.890625 
L 10.015625 52.203125 
Q 14.9375 54.109375 19.578125 55.046875 
Q 24.21875 56 28.609375 56 
Q 40.484375 56 46.34375 49.84375 
Q 52.203125 43.703125 52.203125 31.203125 
z
" id="DejaVuSans-61"/>
       <path d="M 54.890625 33.015625 
L 54.890625 0 
L 45.90625 0 
L 45.90625 32.71875 
Q 45.90625 40.484375 42.875 44.328125 
Q 39.84375 48.1875 33.796875 48.1875 
Q 26.515625 48.1875 22.3125 43.546875 
Q 18.109375 38.921875 18.109375 30.90625 
L 18.109375 0 
L 9.078125 0 
L 9.078125 54.6875 
L 18.109375 54.6875 
L 18.109375 46.1875 
Q 21.34375 51.125 25.703125 53.5625 
Q 30.078125 56 35.796875 56 
Q 45.21875 56 50.046875 50.171875 
Q 54.890625 44.34375 54.890625 33.015625 
z
" id="DejaVuSans-6e"/>
       <path d="M 9.8125 72.90625 
L 55.90625 72.90625 
L 55.90625 64.59375 
L 19.671875 64.59375 
L 19.671875 43.015625 
L 54.390625 43.015625 
L 54.390625 34.71875 
L 19.671875 34.71875 
L 19.671875 8.296875 
L 56.78125 8.296875 
L 56.78125 0 
L 9.8125 0 
z
" id="DejaVuSans-45"/>
       <path d="M 52 44.1875 
Q 55.375 50.25 60.0625 53.125 
Q 64.75 56 71.09375 56 
Q 79.640625 56 84.28125 50.015625 
Q 88.921875 44.046875 88.921875 33.015625 
L 88.921875 0 
L 79.890625 0 
L 79.890625 32.71875 
Q 79.890625 40.578125 77.09375 44.375 
Q 74.3125 48.1875 68.609375 48.1875 
Q 61.625 48.1875 57.5625 43.546875 
Q 53.515625 38.921875 53.515625 30.90625 
L 53.515625 0 
L 44.484375 0 
L 44.484375 32.71875 
Q 44.484375 40.625 41.703125 44.40625 
Q 38.921875 48.1875 33.109375 48.1875 
Q 26.21875 48.1875 22.15625 43.53125 
Q 18.109375 38.875 18.109375 30.90625 
L 18.109375 0 
L 9.078125 0 
L 9.078125 54.6875 
L 18.109375 54.6875 
L 18.109375 46.1875 
Q 21.1875 51.21875 25.484375 53.609375 
Q 29.78125 56 35.6875 56 
Q 41.65625 56 45.828125 52.96875 
Q 50 49.953125 52 44.1875 
z
" id="DejaVuSans-6d"/>
       <path d="M 18.3125 70.21875 
L 18.3125 54.6875 
L 36.8125 54.6875 
L 36.8125 47.703125 
L 18.3125 47.703125 
L 18.3125 18.015625 
Q 18.3125 11.328125 20.140625 9.421875 
Q 21.96875 7.515625 27.59375 7.515625 
L 36.8125 7.515625 
L 36.8125 0 
L 27.59375 0 
Q 17.1875 0 13.234375 3.875 
Q 9.28125 7.765625 9.28125 18.015625 
L 9.28125 47.703125 
L 2.6875 47.703125 
L 2.6875 54.6875 
L 9.28125 54.6875 
L 9.28125 70.21875 
z
" id="DejaVuSans-74"/>
       <path d="M 32.171875 -5.078125 
Q 28.375 -14.84375 24.75 -17.8125 
Q 21.140625 -20.796875 15.09375 -20.796875 
L 7.90625 -20.796875 
L 7.90625 -13.28125 
L 13.1875 -13.28125 
Q 16.890625 -13.28125 18.9375 -11.515625 
Q 21 -9.765625 23.484375 -3.21875 
L 25.09375 0.875 
L 2.984375 54.6875 
L 12.5 54.6875 
L 29.59375 11.921875 
L 46.6875 54.6875 
L 56.203125 54.6875 
z
" id="DejaVuSans-79"/>
       <path d="M 53.515625 70.515625 
L 53.515625 60.890625 
Q 47.90625 63.578125 42.921875 64.890625 
Q 37.9375 66.21875 33.296875 66.21875 
Q 25.25 66.21875 20.875 63.09375 
Q 16.5 59.96875 16.5 54.203125 
Q 16.5 49.359375 19.40625 46.890625 
Q 22.3125 44.4375 30.421875 42.921875 
L 36.375 41.703125 
Q 47.40625 39.59375 52.65625 34.296875 
Q 57.90625 29 57.90625 20.125 
Q 57.90625 9.515625 50.796875 4.046875 
Q 43.703125 -1.421875 29.984375 -1.421875 
Q 24.8125 -1.421875 18.96875 -0.25 
Q 13.140625 0.921875 6.890625 3.21875 
L 6.890625 13.375 
Q 12.890625 10.015625 18.65625 8.296875 
Q 24.421875 6.59375 29.984375 6.59375 
Q 38.421875 6.59375 43.015625 9.90625 
Q 47.609375 13.234375 47.609375 19.390625 
Q 47.609375 24.75 44.3125 27.78125 
Q 41.015625 30.8125 33.5 32.328125 
L 27.484375 33.5 
Q 16.453125 35.6875 11.515625 40.375 
Q 6.59375 45.0625 6.59375 53.421875 
Q 6.59375 63.09375 13.40625 68.65625 
Q 20.21875 74.21875 32.171875 74.21875 
Q 37.3125 74.21875 42.625 73.28125 
Q 47.953125 72.359375 53.515625 70.515625 
z
" id="DejaVuSans-53"/>
       <path d="M 48.78125 52.59375 
L 48.78125 44.1875 
Q 44.96875 46.296875 41.140625 47.34375 
Q 37.3125 48.390625 33.40625 48.390625 
Q 24.65625 48.390625 19.8125 42.84375 
Q 14.984375 37.3125 14.984375 27.296875 
Q 14.984375 17.28125 19.8125 11.734375 
Q 24.65625 6.203125 33.40625 6.203125 
Q 37.3125 6.203125 41.140625 7.25 
Q 44.96875 8.296875 48.78125 10.40625 
L 48.78125 2.09375 
Q 45.015625 0.34375 40.984375 -0.53125 
Q 36.96875 -1.421875 32.421875 -1.421875 
Q 20.0625 -1.421875 12.78125 6.34375 
Q 5.515625 14.109375 5.515625 27.296875 
Q 5.515625 40.671875 12.859375 48.328125 
Q 20.21875 56 33.015625 56 
Q 37.15625 56 41.109375 55.140625 
Q 45.0625 54.296875 48.78125 52.59375 
z
" id="DejaVuSans-63"/>
       <path d="M 30.609375 48.390625 
Q 23.390625 48.390625 19.1875 42.75 
Q 14.984375 37.109375 14.984375 27.296875 
Q 14.984375 17.484375 19.15625 11.84375 
Q 23.34375 6.203125 30.609375 6.203125 
Q 37.796875 6.203125 41.984375 11.859375 
Q 46.1875 17.53125 46.1875 27.296875 
Q 46.1875 37.015625 41.984375 42.703125 
Q 37.796875 48.390625 30.609375 48.390625 
z
M 30.609375 56 
Q 42.328125 56 49.015625 48.375 
Q 55.71875 40.765625 55.71875 27.296875 
Q 55.71875 13.875 49.015625 6.21875 
Q 42.328125 -1.421875 30.609375 -1.421875 
Q 18.84375 -1.421875 12.171875 6.21875 
Q 5.515625 13.875 5.515625 27.296875 
Q 5.515625 40.765625 12.171875 48.375 
Q 18.84375 56 30.609375 56 
z
" id="DejaVuSans-6f"/>
      </defs>
      <g transform="translate(63.974148 645.696875)rotate(-90)scale(0.1 -0.1)">
       <use xlink:href="#DejaVuSans-52"/>
       <use x="69.419922" xlink:href="#DejaVuSans-65"/>
       <use x="130.943359" xlink:href="#DejaVuSans-76"/>
       <use x="190.123047" xlink:href="#DejaVuSans-65"/>
       <use x="251.646484" xlink:href="#DejaVuSans-72"/>
       <use x="292.728516" xlink:href="#DejaVuSans-65"/>
       <use x="354.251953" xlink:href="#DejaVuSans-20"/>
       <use x="386.039062" xlink:href="#DejaVuSans-2d"/>
       <use x="422.123047" xlink:href="#DejaVuSans-20"/>
       <use x="453.910156" xlink:href="#DejaVuSans-41"/>
       <use x="522.302734" xlink:href="#DejaVuSans-2e"/>
       <use x="554.089844" xlink:href="#DejaVuSans-20"/>
       <use x="585.876953" xlink:href="#DejaVuSans-43"/>
       <use x="655.701172" xlink:href="#DejaVuSans-2e"/>
       <use x="687.488281" xlink:href="#DejaVuSans-20"/>
       <use x="719.275391" xlink:href="#DejaVuSans-57"/>
       <use x="818.152344" xlink:href="#DejaVuSans-68"/>
       <use x="881.53125" xlink:href="#DejaVuSans-65"/>
       <use x="943.054688" xlink:href="#DejaVuSans-6c"/>
       <use x="970.837891" xlink:href="#DejaVuSans-61"/>
       <use x="1032.117188" xlink:href="#DejaVuSans-6e"/>
       <use x="1095.496094" xlink:href="#DejaVuSans-20"/>
       <use x="1127.283203" xlink:href="#DejaVuSans-45"/>
       <use x="1190.466797" xlink:href="#DejaVuSans-6c"/>
       <use x="1218.25" xlink:href="#DejaVuSans-65"/>
       <use x="1279.773438" xlink:href="#DejaVuSans-6d"/>
       <use x="1377.185547" xlink:href="#DejaVuSans-65"/>
       <use x="1438.708984" xlink:href="#DejaVuSans-6e"/>
       <use x="1502.087891" xlink:href="#DejaVuSans-74"/>
       <use x="1541.296875" xlink:href="#DejaVuSans-61"/>
       <use x="1602.576172" xlink:href="#DejaVuSans-72"/>
       <use x="1643.689453" xlink:href="#DejaVuSans-79"/>
       <use x="1702.869141" xlink:href="#DejaVuSans-20"/>
       <use x="1734.65625" xlink:href="#DejaVuSans-53"/>
       <use x="1798.132812" xlink:href="#DejaVuSans-63"/>
       <use x="1853.113281" xlink:href="#DejaVuSans-68"/>
       <use x="1916.492188" xlink:href="#DejaVuSans-6f"/>
       <use x="1977.673828" xlink:href="#DejaVuSans-6f"/>
       <use x="2038.855469" xlink:href="#DejaVuSans-6c"/>
      </g>
     </g>
    </g>
    <g id="xtick_2">
     <g id="line2d_2">
      <g>
       <use style="stroke:#000000;stroke-width:0.8;" x="122.594318" xlink:href="#m351deb0504" y="432.032812"/>
      </g>
     </g>
     <g id="text_2">
      <!-- Revere - Abraham Lincoln -->
      <defs>
       <path d="M 48.6875 27.296875 
Q 48.6875 37.203125 44.609375 42.84375 
Q 40.53125 48.484375 33.40625 48.484375 
Q 26.265625 48.484375 22.1875 42.84375 
Q 18.109375 37.203125 18.109375 27.296875 
Q 18.109375 17.390625 22.1875 11.75 
Q 26.265625 6.109375 33.40625 6.109375 
Q 40.53125 6.109375 44.609375 11.75 
Q 48.6875 17.390625 48.6875 27.296875 
z
M 18.109375 46.390625 
Q 20.953125 51.265625 25.265625 53.625 
Q 29.59375 56 35.59375 56 
Q 45.5625 56 51.78125 48.09375 
Q 58.015625 40.1875 58.015625 27.296875 
Q 58.015625 14.40625 51.78125 6.484375 
Q 45.5625 -1.421875 35.59375 -1.421875 
Q 29.59375 -1.421875 25.265625 0.953125 
Q 20.953125 3.328125 18.109375 8.203125 
L 18.109375 0 
L 9.078125 0 
L 9.078125 75.984375 
L 18.109375 75.984375 
z
" id="DejaVuSans-62"/>
       <path d="M 9.8125 72.90625 
L 19.671875 72.90625 
L 19.671875 8.296875 
L 55.171875 8.296875 
L 55.171875 0 
L 9.8125 0 
z
" id="DejaVuSans-4c"/>
       <path d="M 9.421875 54.6875 
L 18.40625 54.6875 
L 18.40625 0 
L 9.421875 0 
z
M 9.421875 75.984375 
L 18.40625 75.984375 
L 18.40625 64.59375 
L 9.421875 64.59375 
z
" id="DejaVuSans-69"/>
      </defs>
      <g transform="translate(125.353693 568.657812)rotate(-90)scale(0.1 -0.1)">
       <use xlink:href="#DejaVuSans-52"/>
       <use x="69.419922" xlink:href="#DejaVuSans-65"/>
       <use x="130.943359" xlink:href="#DejaVuSans-76"/>
       <use x="190.123047" xlink:href="#DejaVuSans-65"/>
       <use x="251.646484" xlink:href="#DejaVuSans-72"/>
       <use x="292.728516" xlink:href="#DejaVuSans-65"/>
       <use x="354.251953" xlink:href="#DejaVuSans-20"/>
       <use x="386.039062" xlink:href="#DejaVuSans-2d"/>
       <use x="422.123047" xlink:href="#DejaVuSans-20"/>
       <use x="453.910156" xlink:href="#DejaVuSans-41"/>
       <use x="522.318359" xlink:href="#DejaVuSans-62"/>
       <use x="585.794922" xlink:href="#DejaVuSans-72"/>
       <use x="626.908203" xlink:href="#DejaVuSans-61"/>
       <use x="688.1875" xlink:href="#DejaVuSans-68"/>
       <use x="751.566406" xlink:href="#DejaVuSans-61"/>
       <use x="812.845703" xlink:href="#DejaVuSans-6d"/>
       <use x="910.257812" xlink:href="#DejaVuSans-20"/>
       <use x="942.044922" xlink:href="#DejaVuSans-4c"/>
       <use x="997.757812" xlink:href="#DejaVuSans-69"/>
       <use x="1025.541016" xlink:href="#DejaVuSans-6e"/>
       <use x="1088.919922" xlink:href="#DejaVuSans-63"/>
       <use x="1143.900391" xlink:href="#DejaVuSans-6f"/>
       <use x="1205.082031" xlink:href="#DejaVuSans-6c"/>
       <use x="1232.865234" xlink:href="#DejaVuSans-6e"/>
      </g>
     </g>
    </g>
    <g id="xtick_3">
     <g id="line2d_3">
      <g>
       <use style="stroke:#000000;stroke-width:0.8;" x="183.973864" xlink:href="#m351deb0504" y="432.032812"/>
      </g>
     </g>
     <g id="text_3">
      <!-- Revere - Beachmont Veterans Memorial School -->
      <defs>
       <path d="M 19.671875 34.8125 
L 19.671875 8.109375 
L 35.5 8.109375 
Q 43.453125 8.109375 47.28125 11.40625 
Q 51.125 14.703125 51.125 21.484375 
Q 51.125 28.328125 47.28125 31.5625 
Q 43.453125 34.8125 35.5 34.8125 
z
M 19.671875 64.796875 
L 19.671875 42.828125 
L 34.28125 42.828125 
Q 41.5 42.828125 45.03125 45.53125 
Q 48.578125 48.25 48.578125 53.8125 
Q 48.578125 59.328125 45.03125 62.0625 
Q 41.5 64.796875 34.28125 64.796875 
z
M 9.8125 72.90625 
L 35.015625 72.90625 
Q 46.296875 72.90625 52.390625 68.21875 
Q 58.5 63.53125 58.5 54.890625 
Q 58.5 48.1875 55.375 44.234375 
Q 52.25 40.28125 46.1875 39.3125 
Q 53.46875 37.75 57.5 32.78125 
Q 61.53125 27.828125 61.53125 20.40625 
Q 61.53125 10.640625 54.890625 5.3125 
Q 48.25 0 35.984375 0 
L 9.8125 0 
z
" id="DejaVuSans-42"/>
       <path d="M 28.609375 0 
L 0.78125 72.90625 
L 11.078125 72.90625 
L 34.1875 11.53125 
L 57.328125 72.90625 
L 67.578125 72.90625 
L 39.796875 0 
z
" id="DejaVuSans-56"/>
       <path d="M 44.28125 53.078125 
L 44.28125 44.578125 
Q 40.484375 46.53125 36.375 47.5 
Q 32.28125 48.484375 27.875 48.484375 
Q 21.1875 48.484375 17.84375 46.4375 
Q 14.5 44.390625 14.5 40.28125 
Q 14.5 37.15625 16.890625 35.375 
Q 19.28125 33.59375 26.515625 31.984375 
L 29.59375 31.296875 
Q 39.15625 29.25 43.1875 25.515625 
Q 47.21875 21.78125 47.21875 15.09375 
Q 47.21875 7.46875 41.1875 3.015625 
Q 35.15625 -1.421875 24.609375 -1.421875 
Q 20.21875 -1.421875 15.453125 -0.5625 
Q 10.6875 0.296875 5.421875 2 
L 5.421875 11.28125 
Q 10.40625 8.6875 15.234375 7.390625 
Q 20.0625 6.109375 24.8125 6.109375 
Q 31.15625 6.109375 34.5625 8.28125 
Q 37.984375 10.453125 37.984375 14.40625 
Q 37.984375 18.0625 35.515625 20.015625 
Q 33.0625 21.96875 24.703125 23.78125 
L 21.578125 24.515625 
Q 13.234375 26.265625 9.515625 29.90625 
Q 5.8125 33.546875 5.8125 39.890625 
Q 5.8125 47.609375 11.28125 51.796875 
Q 16.75 56 26.8125 56 
Q 31.78125 56 36.171875 55.265625 
Q 40.578125 54.546875 44.28125 53.078125 
z
" id="DejaVuSans-73"/>
       <path d="M 9.8125 72.90625 
L 24.515625 72.90625 
L 43.109375 23.296875 
L 61.8125 72.90625 
L 76.515625 72.90625 
L 76.515625 0 
L 66.890625 0 
L 66.890625 64.015625 
L 48.09375 14.015625 
L 38.1875 14.015625 
L 19.390625 64.015625 
L 19.390625 0 
L 9.8125 0 
z
" id="DejaVuSans-4d"/>
      </defs>
      <g transform="translate(186.733239 675.532812)rotate(-90)scale(0.1 -0.1)">
       <use xlink:href="#DejaVuSans-52"/>
       <use x="69.419922" xlink:href="#DejaVuSans-65"/>
       <use x="130.943359" xlink:href="#DejaVuSans-76"/>
       <use x="190.123047" xlink:href="#DejaVuSans-65"/>
       <use x="251.646484" xlink:href="#DejaVuSans-72"/>
       <use x="292.728516" xlink:href="#DejaVuSans-65"/>
       <use x="354.251953" xlink:href="#DejaVuSans-20"/>
       <use x="386.039062" xlink:href="#DejaVuSans-2d"/>
       <use x="422.123047" xlink:href="#DejaVuSans-20"/>
       <use x="453.910156" xlink:href="#DejaVuSans-42"/>
       <use x="522.513672" xlink:href="#DejaVuSans-65"/>
       <use x="584.037109" xlink:href="#DejaVuSans-61"/>
       <use x="645.316406" xlink:href="#DejaVuSans-63"/>
       <use x="700.296875" xlink:href="#DejaVuSans-68"/>
       <use x="763.675781" xlink:href="#DejaVuSans-6d"/>
       <use x="861.087891" xlink:href="#DejaVuSans-6f"/>
       <use x="922.269531" xlink:href="#DejaVuSans-6e"/>
       <use x="985.648438" xlink:href="#DejaVuSans-74"/>
       <use x="1024.857422" xlink:href="#DejaVuSans-20"/>
       <use x="1056.644531" xlink:href="#DejaVuSans-56"/>
       <use x="1124.943359" xlink:href="#DejaVuSans-65"/>
       <use x="1186.466797" xlink:href="#DejaVuSans-74"/>
       <use x="1225.675781" xlink:href="#DejaVuSans-65"/>
       <use x="1287.199219" xlink:href="#DejaVuSans-72"/>
       <use x="1328.3125" xlink:href="#DejaVuSans-61"/>
       <use x="1389.591797" xlink:href="#DejaVuSans-6e"/>
       <use x="1452.970703" xlink:href="#DejaVuSans-73"/>
       <use x="1505.070312" xlink:href="#DejaVuSans-20"/>
       <use x="1536.857422" xlink:href="#DejaVuSans-4d"/>
       <use x="1623.136719" xlink:href="#DejaVuSans-65"/>
       <use x="1684.660156" xlink:href="#DejaVuSans-6d"/>
       <use x="1782.072266" xlink:href="#DejaVuSans-6f"/>
       <use x="1843.253906" xlink:href="#DejaVuSans-72"/>
       <use x="1884.367188" xlink:href="#DejaVuSans-69"/>
       <use x="1912.150391" xlink:href="#DejaVuSans-61"/>
       <use x="1973.429688" xlink:href="#DejaVuSans-6c"/>
       <use x="2001.212891" xlink:href="#DejaVuSans-20"/>
       <use x="2033" xlink:href="#DejaVuSans-53"/>
       <use x="2096.476562" xlink:href="#DejaVuSans-63"/>
       <use x="2151.457031" xlink:href="#DejaVuSans-68"/>
       <use x="2214.835938" xlink:href="#DejaVuSans-6f"/>
       <use x="2276.017578" xlink:href="#DejaVuSans-6f"/>
       <use x="2337.199219" xlink:href="#DejaVuSans-6c"/>
      </g>
     </g>
    </g>
    <g id="xtick_4">
     <g id="line2d_4">
      <g>
       <use style="stroke:#000000;stroke-width:0.8;" x="245.353409" xlink:href="#m351deb0504" y="432.032812"/>
      </g>
     </g>
     <g id="text_4">
      <!-- Revere - Garfield Elementary School -->
      <defs>
       <path d="M 59.515625 10.40625 
L 59.515625 29.984375 
L 43.40625 29.984375 
L 43.40625 38.09375 
L 69.28125 38.09375 
L 69.28125 6.78125 
Q 63.578125 2.734375 56.6875 0.65625 
Q 49.8125 -1.421875 42 -1.421875 
Q 24.90625 -1.421875 15.25 8.5625 
Q 5.609375 18.5625 5.609375 36.375 
Q 5.609375 54.25 15.25 64.234375 
Q 24.90625 74.21875 42 74.21875 
Q 49.125 74.21875 55.546875 72.453125 
Q 61.96875 70.703125 67.390625 67.28125 
L 67.390625 56.78125 
Q 61.921875 61.421875 55.765625 63.765625 
Q 49.609375 66.109375 42.828125 66.109375 
Q 29.4375 66.109375 22.71875 58.640625 
Q 16.015625 51.171875 16.015625 36.375 
Q 16.015625 21.625 22.71875 14.15625 
Q 29.4375 6.6875 42.828125 6.6875 
Q 48.046875 6.6875 52.140625 7.59375 
Q 56.25 8.5 59.515625 10.40625 
z
" id="DejaVuSans-47"/>
       <path d="M 37.109375 75.984375 
L 37.109375 68.5 
L 28.515625 68.5 
Q 23.6875 68.5 21.796875 66.546875 
Q 19.921875 64.59375 19.921875 59.515625 
L 19.921875 54.6875 
L 34.71875 54.6875 
L 34.71875 47.703125 
L 19.921875 47.703125 
L 19.921875 0 
L 10.890625 0 
L 10.890625 47.703125 
L 2.296875 47.703125 
L 2.296875 54.6875 
L 10.890625 54.6875 
L 10.890625 58.5 
Q 10.890625 67.625 15.140625 71.796875 
Q 19.390625 75.984375 28.609375 75.984375 
z
" id="DejaVuSans-66"/>
       <path d="M 45.40625 46.390625 
L 45.40625 75.984375 
L 54.390625 75.984375 
L 54.390625 0 
L 45.40625 0 
L 45.40625 8.203125 
Q 42.578125 3.328125 38.25 0.953125 
Q 33.9375 -1.421875 27.875 -1.421875 
Q 17.96875 -1.421875 11.734375 6.484375 
Q 5.515625 14.40625 5.515625 27.296875 
Q 5.515625 40.1875 11.734375 48.09375 
Q 17.96875 56 27.875 56 
Q 33.9375 56 38.25 53.625 
Q 42.578125 51.265625 45.40625 46.390625 
z
M 14.796875 27.296875 
Q 14.796875 17.390625 18.875 11.75 
Q 22.953125 6.109375 30.078125 6.109375 
Q 37.203125 6.109375 41.296875 11.75 
Q 45.40625 17.390625 45.40625 27.296875 
Q 45.40625 37.203125 41.296875 42.84375 
Q 37.203125 48.484375 30.078125 48.484375 
Q 22.953125 48.484375 18.875 42.84375 
Q 14.796875 37.203125 14.796875 27.296875 
z
" id="DejaVuSans-64"/>
      </defs>
      <g transform="translate(248.112784 621.10625)rotate(-90)scale(0.1 -0.1)">
       <use xlink:href="#DejaVuSans-52"/>
       <use x="69.419922" xlink:href="#DejaVuSans-65"/>
       <use x="130.943359" xlink:href="#DejaVuSans-76"/>
       <use x="190.123047" xlink:href="#DejaVuSans-65"/>
       <use x="251.646484" xlink:href="#DejaVuSans-72"/>
       <use x="292.728516" xlink:href="#DejaVuSans-65"/>
       <use x="354.251953" xlink:href="#DejaVuSans-20"/>
       <use x="386.039062" xlink:href="#DejaVuSans-2d"/>
       <use x="422.123047" xlink:href="#DejaVuSans-20"/>
       <use x="453.910156" xlink:href="#DejaVuSans-47"/>
       <use x="531.400391" xlink:href="#DejaVuSans-61"/>
       <use x="592.679688" xlink:href="#DejaVuSans-72"/>
       <use x="633.792969" xlink:href="#DejaVuSans-66"/>
       <use x="668.998047" xlink:href="#DejaVuSans-69"/>
       <use x="696.78125" xlink:href="#DejaVuSans-65"/>
       <use x="758.304688" xlink:href="#DejaVuSans-6c"/>
       <use x="786.087891" xlink:href="#DejaVuSans-64"/>
       <use x="849.564453" xlink:href="#DejaVuSans-20"/>
       <use x="881.351562" xlink:href="#DejaVuSans-45"/>
       <use x="944.535156" xlink:href="#DejaVuSans-6c"/>
       <use x="972.318359" xlink:href="#DejaVuSans-65"/>
       <use x="1033.841797" xlink:href="#DejaVuSans-6d"/>
       <use x="1131.253906" xlink:href="#DejaVuSans-65"/>
       <use x="1192.777344" xlink:href="#DejaVuSans-6e"/>
       <use x="1256.15625" xlink:href="#DejaVuSans-74"/>
       <use x="1295.365234" xlink:href="#DejaVuSans-61"/>
       <use x="1356.644531" xlink:href="#DejaVuSans-72"/>
       <use x="1397.757812" xlink:href="#DejaVuSans-79"/>
       <use x="1456.9375" xlink:href="#DejaVuSans-20"/>
       <use x="1488.724609" xlink:href="#DejaVuSans-53"/>
       <use x="1552.201172" xlink:href="#DejaVuSans-63"/>
       <use x="1607.181641" xlink:href="#DejaVuSans-68"/>
       <use x="1670.560547" xlink:href="#DejaVuSans-6f"/>
       <use x="1731.742188" xlink:href="#DejaVuSans-6f"/>
       <use x="1792.923828" xlink:href="#DejaVuSans-6c"/>
      </g>
     </g>
    </g>
    <g id="xtick_5">
     <g id="line2d_5">
      <g>
       <use style="stroke:#000000;stroke-width:0.8;" x="306.732955" xlink:href="#m351deb0504" y="432.032812"/>
      </g>
     </g>
     <g id="text_5">
      <!-- Revere - Garfield Middle School -->
      <g transform="translate(309.49233 596.58125)rotate(-90)scale(0.1 -0.1)">
       <use xlink:href="#DejaVuSans-52"/>
       <use x="69.419922" xlink:href="#DejaVuSans-65"/>
       <use x="130.943359" xlink:href="#DejaVuSans-76"/>
       <use x="190.123047" xlink:href="#DejaVuSans-65"/>
       <use x="251.646484" xlink:href="#DejaVuSans-72"/>
       <use x="292.728516" xlink:href="#DejaVuSans-65"/>
       <use x="354.251953" xlink:href="#DejaVuSans-20"/>
       <use x="386.039062" xlink:href="#DejaVuSans-2d"/>
       <use x="422.123047" xlink:href="#DejaVuSans-20"/>
       <use x="453.910156" xlink:href="#DejaVuSans-47"/>
       <use x="531.400391" xlink:href="#DejaVuSans-61"/>
       <use x="592.679688" xlink:href="#DejaVuSans-72"/>
       <use x="633.792969" xlink:href="#DejaVuSans-66"/>
       <use x="668.998047" xlink:href="#DejaVuSans-69"/>
       <use x="696.78125" xlink:href="#DejaVuSans-65"/>
       <use x="758.304688" xlink:href="#DejaVuSans-6c"/>
       <use x="786.087891" xlink:href="#DejaVuSans-64"/>
       <use x="849.564453" xlink:href="#DejaVuSans-20"/>
       <use x="881.351562" xlink:href="#DejaVuSans-4d"/>
       <use x="967.630859" xlink:href="#DejaVuSans-69"/>
       <use x="995.414062" xlink:href="#DejaVuSans-64"/>
       <use x="1058.890625" xlink:href="#DejaVuSans-64"/>
       <use x="1122.367188" xlink:href="#DejaVuSans-6c"/>
       <use x="1150.150391" xlink:href="#DejaVuSans-65"/>
       <use x="1211.673828" xlink:href="#DejaVuSans-20"/>
       <use x="1243.460938" xlink:href="#DejaVuSans-53"/>
       <use x="1306.9375" xlink:href="#DejaVuSans-63"/>
       <use x="1361.917969" xlink:href="#DejaVuSans-68"/>
       <use x="1425.296875" xlink:href="#DejaVuSans-6f"/>
       <use x="1486.478516" xlink:href="#DejaVuSans-6f"/>
       <use x="1547.660156" xlink:href="#DejaVuSans-6c"/>
      </g>
     </g>
    </g>
    <g id="xtick_6">
     <g id="line2d_6">
      <g>
       <use style="stroke:#000000;stroke-width:0.8;" x="368.1125" xlink:href="#m351deb0504" y="432.032812"/>
      </g>
     </g>
     <g id="text_6">
      <!-- Revere - Paul Revere -->
      <defs>
       <path d="M 19.671875 64.796875 
L 19.671875 37.40625 
L 32.078125 37.40625 
Q 38.96875 37.40625 42.71875 40.96875 
Q 46.484375 44.53125 46.484375 51.125 
Q 46.484375 57.671875 42.71875 61.234375 
Q 38.96875 64.796875 32.078125 64.796875 
z
M 9.8125 72.90625 
L 32.078125 72.90625 
Q 44.34375 72.90625 50.609375 67.359375 
Q 56.890625 61.8125 56.890625 51.125 
Q 56.890625 40.328125 50.609375 34.8125 
Q 44.34375 29.296875 32.078125 29.296875 
L 19.671875 29.296875 
L 19.671875 0 
L 9.8125 0 
z
" id="DejaVuSans-50"/>
       <path d="M 8.5 21.578125 
L 8.5 54.6875 
L 17.484375 54.6875 
L 17.484375 21.921875 
Q 17.484375 14.15625 20.5 10.265625 
Q 23.53125 6.390625 29.59375 6.390625 
Q 36.859375 6.390625 41.078125 11.03125 
Q 45.3125 15.671875 45.3125 23.6875 
L 45.3125 54.6875 
L 54.296875 54.6875 
L 54.296875 0 
L 45.3125 0 
L 45.3125 8.40625 
Q 42.046875 3.421875 37.71875 1 
Q 33.40625 -1.421875 27.6875 -1.421875 
Q 18.265625 -1.421875 13.375 4.4375 
Q 8.5 10.296875 8.5 21.578125 
z
M 31.109375 56 
z
" id="DejaVuSans-75"/>
      </defs>
      <g transform="translate(370.871875 544.298437)rotate(-90)scale(0.1 -0.1)">
       <use xlink:href="#DejaVuSans-52"/>
       <use x="69.419922" xlink:href="#DejaVuSans-65"/>
       <use x="130.943359" xlink:href="#DejaVuSans-76"/>
       <use x="190.123047" xlink:href="#DejaVuSans-65"/>
       <use x="251.646484" xlink:href="#DejaVuSans-72"/>
       <use x="292.728516" xlink:href="#DejaVuSans-65"/>
       <use x="354.251953" xlink:href="#DejaVuSans-20"/>
       <use x="386.039062" xlink:href="#DejaVuSans-2d"/>
       <use x="422.123047" xlink:href="#DejaVuSans-20"/>
       <use x="453.910156" xlink:href="#DejaVuSans-50"/>
       <use x="514.150391" xlink:href="#DejaVuSans-61"/>
       <use x="575.429688" xlink:href="#DejaVuSans-75"/>
       <use x="638.808594" xlink:href="#DejaVuSans-6c"/>
       <use x="666.591797" xlink:href="#DejaVuSans-20"/>
       <use x="698.378906" xlink:href="#DejaVuSans-52"/>
       <use x="767.798828" xlink:href="#DejaVuSans-65"/>
       <use x="829.322266" xlink:href="#DejaVuSans-76"/>
       <use x="888.501953" xlink:href="#DejaVuSans-65"/>
       <use x="950.025391" xlink:href="#DejaVuSans-72"/>
       <use x="991.107422" xlink:href="#DejaVuSans-65"/>
      </g>
     </g>
    </g>
    <g id="xtick_7">
     <g id="line2d_7">
      <g>
       <use style="stroke:#000000;stroke-width:0.8;" x="429.492045" xlink:href="#m351deb0504" y="432.032812"/>
      </g>
     </g>
     <g id="text_7">
      <!-- Revere - Revere High -->
      <defs>
       <path d="M 9.8125 72.90625 
L 19.671875 72.90625 
L 19.671875 43.015625 
L 55.515625 43.015625 
L 55.515625 72.90625 
L 65.375 72.90625 
L 65.375 0 
L 55.515625 0 
L 55.515625 34.71875 
L 19.671875 34.71875 
L 19.671875 0 
L 9.8125 0 
z
" id="DejaVuSans-48"/>
       <path d="M 45.40625 27.984375 
Q 45.40625 37.75 41.375 43.109375 
Q 37.359375 48.484375 30.078125 48.484375 
Q 22.859375 48.484375 18.828125 43.109375 
Q 14.796875 37.75 14.796875 27.984375 
Q 14.796875 18.265625 18.828125 12.890625 
Q 22.859375 7.515625 30.078125 7.515625 
Q 37.359375 7.515625 41.375 12.890625 
Q 45.40625 18.265625 45.40625 27.984375 
z
M 54.390625 6.78125 
Q 54.390625 -7.171875 48.1875 -13.984375 
Q 42 -20.796875 29.203125 -20.796875 
Q 24.46875 -20.796875 20.265625 -20.09375 
Q 16.0625 -19.390625 12.109375 -17.921875 
L 12.109375 -9.1875 
Q 16.0625 -11.328125 19.921875 -12.34375 
Q 23.78125 -13.375 27.78125 -13.375 
Q 36.625 -13.375 41.015625 -8.765625 
Q 45.40625 -4.15625 45.40625 5.171875 
L 45.40625 9.625 
Q 42.625 4.78125 38.28125 2.390625 
Q 33.9375 0 27.875 0 
Q 17.828125 0 11.671875 7.65625 
Q 5.515625 15.328125 5.515625 27.984375 
Q 5.515625 40.671875 11.671875 48.328125 
Q 17.828125 56 27.875 56 
Q 33.9375 56 38.28125 53.609375 
Q 42.625 51.21875 45.40625 46.390625 
L 45.40625 54.6875 
L 54.390625 54.6875 
z
" id="DejaVuSans-67"/>
      </defs>
      <g transform="translate(432.25142 546.015625)rotate(-90)scale(0.1 -0.1)">
       <use xlink:href="#DejaVuSans-52"/>
       <use x="69.419922" xlink:href="#DejaVuSans-65"/>
       <use x="130.943359" xlink:href="#DejaVuSans-76"/>
       <use x="190.123047" xlink:href="#DejaVuSans-65"/>
       <use x="251.646484" xlink:href="#DejaVuSans-72"/>
       <use x="292.728516" xlink:href="#DejaVuSans-65"/>
       <use x="354.251953" xlink:href="#DejaVuSans-20"/>
       <use x="386.039062" xlink:href="#DejaVuSans-2d"/>
       <use x="422.123047" xlink:href="#DejaVuSans-20"/>
       <use x="453.910156" xlink:href="#DejaVuSans-52"/>
       <use x="523.330078" xlink:href="#DejaVuSans-65"/>
       <use x="584.853516" xlink:href="#DejaVuSans-76"/>
       <use x="644.033203" xlink:href="#DejaVuSans-65"/>
       <use x="705.556641" xlink:href="#DejaVuSans-72"/>
       <use x="746.638672" xlink:href="#DejaVuSans-65"/>
       <use x="808.162109" xlink:href="#DejaVuSans-20"/>
       <use x="839.949219" xlink:href="#DejaVuSans-48"/>
       <use x="915.144531" xlink:href="#DejaVuSans-69"/>
       <use x="942.927734" xlink:href="#DejaVuSans-67"/>
       <use x="1006.404297" xlink:href="#DejaVuSans-68"/>
      </g>
     </g>
    </g>
    <g id="xtick_8">
     <g id="line2d_8">
      <g>
       <use style="stroke:#000000;stroke-width:0.8;" x="490.871591" xlink:href="#m351deb0504" y="432.032812"/>
      </g>
     </g>
     <g id="text_8">
      <!-- Revere - Rumney Marsh Academy -->
      <g transform="translate(493.630966 609.251562)rotate(-90)scale(0.1 -0.1)">
       <use xlink:href="#DejaVuSans-52"/>
       <use x="69.419922" xlink:href="#DejaVuSans-65"/>
       <use x="130.943359" xlink:href="#DejaVuSans-76"/>
       <use x="190.123047" xlink:href="#DejaVuSans-65"/>
       <use x="251.646484" xlink:href="#DejaVuSans-72"/>
       <use x="292.728516" xlink:href="#DejaVuSans-65"/>
       <use x="354.251953" xlink:href="#DejaVuSans-20"/>
       <use x="386.039062" xlink:href="#DejaVuSans-2d"/>
       <use x="422.123047" xlink:href="#DejaVuSans-20"/>
       <use x="453.910156" xlink:href="#DejaVuSans-52"/>
       <use x="523.330078" xlink:href="#DejaVuSans-75"/>
       <use x="586.708984" xlink:href="#DejaVuSans-6d"/>
       <use x="684.121094" xlink:href="#DejaVuSans-6e"/>
       <use x="747.5" xlink:href="#DejaVuSans-65"/>
       <use x="809.023438" xlink:href="#DejaVuSans-79"/>
       <use x="868.203125" xlink:href="#DejaVuSans-20"/>
       <use x="899.990234" xlink:href="#DejaVuSans-4d"/>
       <use x="986.269531" xlink:href="#DejaVuSans-61"/>
       <use x="1047.548828" xlink:href="#DejaVuSans-72"/>
       <use x="1088.662109" xlink:href="#DejaVuSans-73"/>
       <use x="1140.761719" xlink:href="#DejaVuSans-68"/>
       <use x="1204.140625" xlink:href="#DejaVuSans-20"/>
       <use x="1235.927734" xlink:href="#DejaVuSans-41"/>
       <use x="1304.320312" xlink:href="#DejaVuSans-63"/>
       <use x="1359.300781" xlink:href="#DejaVuSans-61"/>
       <use x="1420.580078" xlink:href="#DejaVuSans-64"/>
       <use x="1484.056641" xlink:href="#DejaVuSans-65"/>
       <use x="1545.580078" xlink:href="#DejaVuSans-6d"/>
       <use x="1642.992188" xlink:href="#DejaVuSans-79"/>
      </g>
     </g>
    </g>
    <g id="xtick_9">
     <g id="line2d_9">
      <g>
       <use style="stroke:#000000;stroke-width:0.8;" x="552.251136" xlink:href="#m351deb0504" y="432.032812"/>
      </g>
     </g>
     <g id="text_9">
      <!-- Revere - Seacoast School -->
      <g transform="translate(555.010511 566.307812)rotate(-90)scale(0.1 -0.1)">
       <use xlink:href="#DejaVuSans-52"/>
       <use x="69.419922" xlink:href="#DejaVuSans-65"/>
       <use x="130.943359" xlink:href="#DejaVuSans-76"/>
       <use x="190.123047" xlink:href="#DejaVuSans-65"/>
       <use x="251.646484" xlink:href="#DejaVuSans-72"/>
       <use x="292.728516" xlink:href="#DejaVuSans-65"/>
       <use x="354.251953" xlink:href="#DejaVuSans-20"/>
       <use x="386.039062" xlink:href="#DejaVuSans-2d"/>
       <use x="422.123047" xlink:href="#DejaVuSans-20"/>
       <use x="453.910156" xlink:href="#DejaVuSans-53"/>
       <use x="517.386719" xlink:href="#DejaVuSans-65"/>
       <use x="578.910156" xlink:href="#DejaVuSans-61"/>
       <use x="640.189453" xlink:href="#DejaVuSans-63"/>
       <use x="695.169922" xlink:href="#DejaVuSans-6f"/>
       <use x="756.351562" xlink:href="#DejaVuSans-61"/>
       <use x="817.630859" xlink:href="#DejaVuSans-73"/>
       <use x="869.730469" xlink:href="#DejaVuSans-74"/>
       <use x="908.939453" xlink:href="#DejaVuSans-20"/>
       <use x="940.726562" xlink:href="#DejaVuSans-53"/>
       <use x="1004.203125" xlink:href="#DejaVuSans-63"/>
       <use x="1059.183594" xlink:href="#DejaVuSans-68"/>
       <use x="1122.5625" xlink:href="#DejaVuSans-6f"/>
       <use x="1183.744141" xlink:href="#DejaVuSans-6f"/>
       <use x="1244.925781" xlink:href="#DejaVuSans-6c"/>
      </g>
     </g>
    </g>
    <g id="xtick_10">
     <g id="line2d_10">
      <g>
       <use style="stroke:#000000;stroke-width:0.8;" x="613.630682" xlink:href="#m351deb0504" y="432.032812"/>
      </g>
     </g>
     <g id="text_10">
      <!-- Revere - Staff Sargent James J. Hill Elementary School -->
      <defs>
       <path d="M 9.8125 72.90625 
L 19.671875 72.90625 
L 19.671875 5.078125 
Q 19.671875 -8.109375 14.671875 -14.0625 
Q 9.671875 -20.015625 -1.421875 -20.015625 
L -5.171875 -20.015625 
L -5.171875 -11.71875 
L -2.09375 -11.71875 
Q 4.4375 -11.71875 7.125 -8.046875 
Q 9.8125 -4.390625 9.8125 5.078125 
z
" id="DejaVuSans-4a"/>
      </defs>
      <g transform="translate(616.390057 709.2)rotate(-90)scale(0.1 -0.1)">
       <use xlink:href="#DejaVuSans-52"/>
       <use x="69.419922" xlink:href="#DejaVuSans-65"/>
       <use x="130.943359" xlink:href="#DejaVuSans-76"/>
       <use x="190.123047" xlink:href="#DejaVuSans-65"/>
       <use x="251.646484" xlink:href="#DejaVuSans-72"/>
       <use x="292.728516" xlink:href="#DejaVuSans-65"/>
       <use x="354.251953" xlink:href="#DejaVuSans-20"/>
       <use x="386.039062" xlink:href="#DejaVuSans-2d"/>
       <use x="422.123047" xlink:href="#DejaVuSans-20"/>
       <use x="453.910156" xlink:href="#DejaVuSans-53"/>
       <use x="517.386719" xlink:href="#DejaVuSans-74"/>
       <use x="556.595703" xlink:href="#DejaVuSans-61"/>
       <use x="617.875" xlink:href="#DejaVuSans-66"/>
       <use x="653.080078" xlink:href="#DejaVuSans-66"/>
       <use x="688.285156" xlink:href="#DejaVuSans-20"/>
       <use x="720.072266" xlink:href="#DejaVuSans-53"/>
       <use x="783.548828" xlink:href="#DejaVuSans-61"/>
       <use x="844.828125" xlink:href="#DejaVuSans-72"/>
       <use x="885.925781" xlink:href="#DejaVuSans-67"/>
       <use x="949.402344" xlink:href="#DejaVuSans-65"/>
       <use x="1010.925781" xlink:href="#DejaVuSans-6e"/>
       <use x="1074.304688" xlink:href="#DejaVuSans-74"/>
       <use x="1113.513672" xlink:href="#DejaVuSans-20"/>
       <use x="1145.300781" xlink:href="#DejaVuSans-4a"/>
       <use x="1174.792969" xlink:href="#DejaVuSans-61"/>
       <use x="1236.072266" xlink:href="#DejaVuSans-6d"/>
       <use x="1333.484375" xlink:href="#DejaVuSans-65"/>
       <use x="1395.007812" xlink:href="#DejaVuSans-73"/>
       <use x="1447.107422" xlink:href="#DejaVuSans-20"/>
       <use x="1478.894531" xlink:href="#DejaVuSans-4a"/>
       <use x="1508.386719" xlink:href="#DejaVuSans-2e"/>
       <use x="1540.173828" xlink:href="#DejaVuSans-20"/>
       <use x="1571.960938" xlink:href="#DejaVuSans-48"/>
       <use x="1647.15625" xlink:href="#DejaVuSans-69"/>
       <use x="1674.939453" xlink:href="#DejaVuSans-6c"/>
       <use x="1702.722656" xlink:href="#DejaVuSans-6c"/>
       <use x="1730.505859" xlink:href="#DejaVuSans-20"/>
       <use x="1762.292969" xlink:href="#DejaVuSans-45"/>
       <use x="1825.476562" xlink:href="#DejaVuSans-6c"/>
       <use x="1853.259766" xlink:href="#DejaVuSans-65"/>
       <use x="1914.783203" xlink:href="#DejaVuSans-6d"/>
       <use x="2012.195312" xlink:href="#DejaVuSans-65"/>
       <use x="2073.71875" xlink:href="#DejaVuSans-6e"/>
       <use x="2137.097656" xlink:href="#DejaVuSans-74"/>
       <use x="2176.306641" xlink:href="#DejaVuSans-61"/>
       <use x="2237.585938" xlink:href="#DejaVuSans-72"/>
       <use x="2278.699219" xlink:href="#DejaVuSans-79"/>
       <use x="2337.878906" xlink:href="#DejaVuSans-20"/>
       <use x="2369.666016" xlink:href="#DejaVuSans-53"/>
       <use x="2433.142578" xlink:href="#DejaVuSans-63"/>
       <use x="2488.123047" xlink:href="#DejaVuSans-68"/>
       <use x="2551.501953" xlink:href="#DejaVuSans-6f"/>
       <use x="2612.683594" xlink:href="#DejaVuSans-6f"/>
       <use x="2673.865234" xlink:href="#DejaVuSans-6c"/>
      </g>
     </g>
    </g>
    <g id="xtick_11">
     <g id="line2d_11">
      <g>
       <use style="stroke:#000000;stroke-width:0.8;" x="675.010227" xlink:href="#m351deb0504" y="432.032812"/>
      </g>
     </g>
     <g id="text_11">
      <!-- Revere - Susan B. Anthony Middle School -->
      <g transform="translate(677.769602 645.582813)rotate(-90)scale(0.1 -0.1)">
       <use xlink:href="#DejaVuSans-52"/>
       <use x="69.419922" xlink:href="#DejaVuSans-65"/>
       <use x="130.943359" xlink:href="#DejaVuSans-76"/>
       <use x="190.123047" xlink:href="#DejaVuSans-65"/>
       <use x="251.646484" xlink:href="#DejaVuSans-72"/>
       <use x="292.728516" xlink:href="#DejaVuSans-65"/>
       <use x="354.251953" xlink:href="#DejaVuSans-20"/>
       <use x="386.039062" xlink:href="#DejaVuSans-2d"/>
       <use x="422.123047" xlink:href="#DejaVuSans-20"/>
       <use x="453.910156" xlink:href="#DejaVuSans-53"/>
       <use x="517.386719" xlink:href="#DejaVuSans-75"/>
       <use x="580.765625" xlink:href="#DejaVuSans-73"/>
       <use x="632.865234" xlink:href="#DejaVuSans-61"/>
       <use x="694.144531" xlink:href="#DejaVuSans-6e"/>
       <use x="757.523438" xlink:href="#DejaVuSans-20"/>
       <use x="789.310547" xlink:href="#DejaVuSans-42"/>
       <use x="857.914062" xlink:href="#DejaVuSans-2e"/>
       <use x="889.701172" xlink:href="#DejaVuSans-20"/>
       <use x="921.488281" xlink:href="#DejaVuSans-41"/>
       <use x="989.896484" xlink:href="#DejaVuSans-6e"/>
       <use x="1053.275391" xlink:href="#DejaVuSans-74"/>
       <use x="1092.484375" xlink:href="#DejaVuSans-68"/>
       <use x="1155.863281" xlink:href="#DejaVuSans-6f"/>
       <use x="1217.044922" xlink:href="#DejaVuSans-6e"/>
       <use x="1280.423828" xlink:href="#DejaVuSans-79"/>
       <use x="1339.603516" xlink:href="#DejaVuSans-20"/>
       <use x="1371.390625" xlink:href="#DejaVuSans-4d"/>
       <use x="1457.669922" xlink:href="#DejaVuSans-69"/>
       <use x="1485.453125" xlink:href="#DejaVuSans-64"/>
       <use x="1548.929688" xlink:href="#DejaVuSans-64"/>
       <use x="1612.40625" xlink:href="#DejaVuSans-6c"/>
       <use x="1640.189453" xlink:href="#DejaVuSans-65"/>
       <use x="1701.712891" xlink:href="#DejaVuSans-20"/>
       <use x="1733.5" xlink:href="#DejaVuSans-53"/>
       <use x="1796.976562" xlink:href="#DejaVuSans-63"/>
       <use x="1851.957031" xlink:href="#DejaVuSans-68"/>
       <use x="1915.335938" xlink:href="#DejaVuSans-6f"/>
       <use x="1976.517578" xlink:href="#DejaVuSans-6f"/>
       <use x="2037.699219" xlink:href="#DejaVuSans-6c"/>
      </g>
     </g>
    </g>
   </g>
   <g id="matplotlib.axis_2">
    <g id="ytick_1">
     <g id="line2d_12">
      <defs>
       <path d="M 0 0 
L -3.5 0 
" id="mf5be466781" style="stroke:#000000;stroke-width:0.8;"/>
      </defs>
      <g>
       <use style="stroke:#000000;stroke-width:0.8;" x="30.525" xlink:href="#mf5be466781" y="432.032812"/>
      </g>
     </g>
     <g id="text_12">
      <!-- 0 -->
      <defs>
       <path d="M 31.78125 66.40625 
Q 24.171875 66.40625 20.328125 58.90625 
Q 16.5 51.421875 16.5 36.375 
Q 16.5 21.390625 20.328125 13.890625 
Q 24.171875 6.390625 31.78125 6.390625 
Q 39.453125 6.390625 43.28125 13.890625 
Q 47.125 21.390625 47.125 36.375 
Q 47.125 51.421875 43.28125 58.90625 
Q 39.453125 66.40625 31.78125 66.40625 
z
M 31.78125 74.21875 
Q 44.046875 74.21875 50.515625 64.515625 
Q 56.984375 54.828125 56.984375 36.375 
Q 56.984375 17.96875 50.515625 8.265625 
Q 44.046875 -1.421875 31.78125 -1.421875 
Q 19.53125 -1.421875 13.0625 8.265625 
Q 6.59375 17.96875 6.59375 36.375 
Q 6.59375 54.828125 13.0625 64.515625 
Q 19.53125 74.21875 31.78125 74.21875 
z
" id="DejaVuSans-30"/>
      </defs>
      <g transform="translate(17.1625 435.832031)scale(0.1 -0.1)">
       <use xlink:href="#DejaVuSans-30"/>
      </g>
     </g>
    </g>
    <g id="ytick_2">
     <g id="line2d_13">
      <g>
       <use style="stroke:#000000;stroke-width:0.8;" x="30.525" xlink:href="#mf5be466781" y="378.916554"/>
      </g>
     </g>
     <g id="text_13">
      <!-- 10 -->
      <defs>
       <path d="M 12.40625 8.296875 
L 28.515625 8.296875 
L 28.515625 63.921875 
L 10.984375 60.40625 
L 10.984375 69.390625 
L 28.421875 72.90625 
L 38.28125 72.90625 
L 38.28125 8.296875 
L 54.390625 8.296875 
L 54.390625 0 
L 12.40625 0 
z
" id="DejaVuSans-31"/>
      </defs>
      <g transform="translate(10.8 382.715773)scale(0.1 -0.1)">
       <use xlink:href="#DejaVuSans-31"/>
       <use x="63.623047" xlink:href="#DejaVuSans-30"/>
      </g>
     </g>
    </g>
    <g id="ytick_3">
     <g id="line2d_14">
      <g>
       <use style="stroke:#000000;stroke-width:0.8;" x="30.525" xlink:href="#mf5be466781" y="325.800296"/>
      </g>
     </g>
     <g id="text_14">
      <!-- 20 -->
      <defs>
       <path d="M 19.1875 8.296875 
L 53.609375 8.296875 
L 53.609375 0 
L 7.328125 0 
L 7.328125 8.296875 
Q 12.9375 14.109375 22.625 23.890625 
Q 32.328125 33.6875 34.8125 36.53125 
Q 39.546875 41.84375 41.421875 45.53125 
Q 43.3125 49.21875 43.3125 52.78125 
Q 43.3125 58.59375 39.234375 62.25 
Q 35.15625 65.921875 28.609375 65.921875 
Q 23.96875 65.921875 18.8125 64.3125 
Q 13.671875 62.703125 7.8125 59.421875 
L 7.8125 69.390625 
Q 13.765625 71.78125 18.9375 73 
Q 24.125 74.21875 28.421875 74.21875 
Q 39.75 74.21875 46.484375 68.546875 
Q 53.21875 62.890625 53.21875 53.421875 
Q 53.21875 48.921875 51.53125 44.890625 
Q 49.859375 40.875 45.40625 35.40625 
Q 44.1875 33.984375 37.640625 27.21875 
Q 31.109375 20.453125 19.1875 8.296875 
z
" id="DejaVuSans-32"/>
      </defs>
      <g transform="translate(10.8 329.599515)scale(0.1 -0.1)">
       <use xlink:href="#DejaVuSans-32"/>
       <use x="63.623047" xlink:href="#DejaVuSans-30"/>
      </g>
     </g>
    </g>
    <g id="ytick_4">
     <g id="line2d_15">
      <g>
       <use style="stroke:#000000;stroke-width:0.8;" x="30.525" xlink:href="#mf5be466781" y="272.684038"/>
      </g>
     </g>
     <g id="text_15">
      <!-- 30 -->
      <defs>
       <path d="M 40.578125 39.3125 
Q 47.65625 37.796875 51.625 33 
Q 55.609375 28.21875 55.609375 21.1875 
Q 55.609375 10.40625 48.1875 4.484375 
Q 40.765625 -1.421875 27.09375 -1.421875 
Q 22.515625 -1.421875 17.65625 -0.515625 
Q 12.796875 0.390625 7.625 2.203125 
L 7.625 11.71875 
Q 11.71875 9.328125 16.59375 8.109375 
Q 21.484375 6.890625 26.8125 6.890625 
Q 36.078125 6.890625 40.9375 10.546875 
Q 45.796875 14.203125 45.796875 21.1875 
Q 45.796875 27.640625 41.28125 31.265625 
Q 36.765625 34.90625 28.71875 34.90625 
L 20.21875 34.90625 
L 20.21875 43.015625 
L 29.109375 43.015625 
Q 36.375 43.015625 40.234375 45.921875 
Q 44.09375 48.828125 44.09375 54.296875 
Q 44.09375 59.90625 40.109375 62.90625 
Q 36.140625 65.921875 28.71875 65.921875 
Q 24.65625 65.921875 20.015625 65.03125 
Q 15.375 64.15625 9.8125 62.3125 
L 9.8125 71.09375 
Q 15.4375 72.65625 20.34375 73.4375 
Q 25.25 74.21875 29.59375 74.21875 
Q 40.828125 74.21875 47.359375 69.109375 
Q 53.90625 64.015625 53.90625 55.328125 
Q 53.90625 49.265625 50.4375 45.09375 
Q 46.96875 40.921875 40.578125 39.3125 
z
" id="DejaVuSans-33"/>
      </defs>
      <g transform="translate(10.8 276.483257)scale(0.1 -0.1)">
       <use xlink:href="#DejaVuSans-33"/>
       <use x="63.623047" xlink:href="#DejaVuSans-30"/>
      </g>
     </g>
    </g>
    <g id="ytick_5">
     <g id="line2d_16">
      <g>
       <use style="stroke:#000000;stroke-width:0.8;" x="30.525" xlink:href="#mf5be466781" y="219.56778"/>
      </g>
     </g>
     <g id="text_16">
      <!-- 40 -->
      <defs>
       <path d="M 37.796875 64.3125 
L 12.890625 25.390625 
L 37.796875 25.390625 
z
M 35.203125 72.90625 
L 47.609375 72.90625 
L 47.609375 25.390625 
L 58.015625 25.390625 
L 58.015625 17.1875 
L 47.609375 17.1875 
L 47.609375 0 
L 37.796875 0 
L 37.796875 17.1875 
L 4.890625 17.1875 
L 4.890625 26.703125 
z
" id="DejaVuSans-34"/>
      </defs>
      <g transform="translate(10.8 223.366999)scale(0.1 -0.1)">
       <use xlink:href="#DejaVuSans-34"/>
       <use x="63.623047" xlink:href="#DejaVuSans-30"/>
      </g>
     </g>
    </g>
    <g id="ytick_6">
     <g id="line2d_17">
      <g>
       <use style="stroke:#000000;stroke-width:0.8;" x="30.525" xlink:href="#mf5be466781" y="166.451522"/>
      </g>
     </g>
     <g id="text_17">
      <!-- 50 -->
      <defs>
       <path d="M 10.796875 72.90625 
L 49.515625 72.90625 
L 49.515625 64.59375 
L 19.828125 64.59375 
L 19.828125 46.734375 
Q 21.96875 47.46875 24.109375 47.828125 
Q 26.265625 48.1875 28.421875 48.1875 
Q 40.625 48.1875 47.75 41.5 
Q 54.890625 34.8125 54.890625 23.390625 
Q 54.890625 11.625 47.5625 5.09375 
Q 40.234375 -1.421875 26.90625 -1.421875 
Q 22.3125 -1.421875 17.546875 -0.640625 
Q 12.796875 0.140625 7.71875 1.703125 
L 7.71875 11.625 
Q 12.109375 9.234375 16.796875 8.0625 
Q 21.484375 6.890625 26.703125 6.890625 
Q 35.15625 6.890625 40.078125 11.328125 
Q 45.015625 15.765625 45.015625 23.390625 
Q 45.015625 31 40.078125 35.4375 
Q 35.15625 39.890625 26.703125 39.890625 
Q 22.75 39.890625 18.8125 39.015625 
Q 14.890625 38.140625 10.796875 36.28125 
z
" id="DejaVuSans-35"/>
      </defs>
      <g transform="translate(10.8 170.25074)scale(0.1 -0.1)">
       <use xlink:href="#DejaVuSans-35"/>
       <use x="63.623047" xlink:href="#DejaVuSans-30"/>
      </g>
     </g>
    </g>
    <g id="ytick_7">
     <g id="line2d_18">
      <g>
       <use style="stroke:#000000;stroke-width:0.8;" x="30.525" xlink:href="#mf5be466781" y="113.335263"/>
      </g>
     </g>
     <g id="text_18">
      <!-- 60 -->
      <defs>
       <path d="M 33.015625 40.375 
Q 26.375 40.375 22.484375 35.828125 
Q 18.609375 31.296875 18.609375 23.390625 
Q 18.609375 15.53125 22.484375 10.953125 
Q 26.375 6.390625 33.015625 6.390625 
Q 39.65625 6.390625 43.53125 10.953125 
Q 47.40625 15.53125 47.40625 23.390625 
Q 47.40625 31.296875 43.53125 35.828125 
Q 39.65625 40.375 33.015625 40.375 
z
M 52.59375 71.296875 
L 52.59375 62.3125 
Q 48.875 64.0625 45.09375 64.984375 
Q 41.3125 65.921875 37.59375 65.921875 
Q 27.828125 65.921875 22.671875 59.328125 
Q 17.53125 52.734375 16.796875 39.40625 
Q 19.671875 43.65625 24.015625 45.921875 
Q 28.375 48.1875 33.59375 48.1875 
Q 44.578125 48.1875 50.953125 41.515625 
Q 57.328125 34.859375 57.328125 23.390625 
Q 57.328125 12.15625 50.6875 5.359375 
Q 44.046875 -1.421875 33.015625 -1.421875 
Q 20.359375 -1.421875 13.671875 8.265625 
Q 6.984375 17.96875 6.984375 36.375 
Q 6.984375 53.65625 15.1875 63.9375 
Q 23.390625 74.21875 37.203125 74.21875 
Q 40.921875 74.21875 44.703125 73.484375 
Q 48.484375 72.75 52.59375 71.296875 
z
" id="DejaVuSans-36"/>
      </defs>
      <g transform="translate(10.8 117.134482)scale(0.1 -0.1)">
       <use xlink:href="#DejaVuSans-36"/>
       <use x="63.623047" xlink:href="#DejaVuSans-30"/>
      </g>
     </g>
    </g>
    <g id="ytick_8">
     <g id="line2d_19">
      <g>
       <use style="stroke:#000000;stroke-width:0.8;" x="30.525" xlink:href="#mf5be466781" y="60.219005"/>
      </g>
     </g>
     <g id="text_19">
      <!-- 70 -->
      <defs>
       <path d="M 8.203125 72.90625 
L 55.078125 72.90625 
L 55.078125 68.703125 
L 28.609375 0 
L 18.3125 0 
L 43.21875 64.59375 
L 8.203125 64.59375 
z
" id="DejaVuSans-37"/>
      </defs>
      <g transform="translate(10.8 64.018224)scale(0.1 -0.1)">
       <use xlink:href="#DejaVuSans-37"/>
       <use x="63.623047" xlink:href="#DejaVuSans-30"/>
      </g>
     </g>
    </g>
   </g>
   <g id="patch_25">
    <path d="M 30.525 432.032812 
L 30.525 14.3 
" style="fill:none;stroke:#000000;stroke-linecap:square;stroke-linejoin:miter;stroke-width:0.8;"/>
   </g>
   <g id="patch_26">
    <path d="M 705.7 432.032812 
L 705.7 14.3 
" style="fill:none;stroke:#000000;stroke-linecap:square;stroke-linejoin:miter;stroke-width:0.8;"/>
   </g>
   <g id="patch_27">
    <path d="M 30.525 432.032812 
L 705.7 432.032812 
" style="fill:none;stroke:#000000;stroke-linecap:square;stroke-linejoin:miter;stroke-width:0.8;"/>
   </g>
   <g id="patch_28">
    <path d="M 30.525 14.3 
L 705.7 14.3 
" style="fill:none;stroke:#000000;stroke-linecap:square;stroke-linejoin:miter;stroke-width:0.8;"/>
   </g>
   <g id="legend_1">
    <g id="patch_29">
     <path d="M 503.764063 51.65625 
L 698.7 51.65625 
Q 700.7 51.65625 700.7 49.65625 
L 700.7 21.3 
Q 700.7 19.3 698.7 19.3 
L 503.764063 19.3 
Q 501.764063 19.3 501.764063 21.3 
L 501.764063 49.65625 
Q 501.764063 51.65625 503.764063 51.65625 
z
" style="fill:#ffffff;opacity:0.8;stroke:#cccccc;stroke-linejoin:miter;"/>
    </g>
    <g id="patch_30">
     <path d="M 505.764063 30.898438 
L 525.764063 30.898438 
L 525.764063 23.898438 
L 505.764063 23.898438 
z
" style="fill:#1f77b4;"/>
    </g>
    <g id="text_20">
     <!-- FirstLanguageNotEnglishPercent -->
     <defs>
      <path d="M 9.8125 72.90625 
L 51.703125 72.90625 
L 51.703125 64.59375 
L 19.671875 64.59375 
L 19.671875 43.109375 
L 48.578125 43.109375 
L 48.578125 34.8125 
L 19.671875 34.8125 
L 19.671875 0 
L 9.8125 0 
z
" id="DejaVuSans-46"/>
      <path d="M 9.8125 72.90625 
L 23.09375 72.90625 
L 55.421875 11.921875 
L 55.421875 72.90625 
L 64.984375 72.90625 
L 64.984375 0 
L 51.703125 0 
L 19.390625 60.984375 
L 19.390625 0 
L 9.8125 0 
z
" id="DejaVuSans-4e"/>
     </defs>
     <g transform="translate(533.764063 30.898438)scale(0.1 -0.1)">
      <use xlink:href="#DejaVuSans-46"/>
      <use x="57.410156" xlink:href="#DejaVuSans-69"/>
      <use x="85.193359" xlink:href="#DejaVuSans-72"/>
      <use x="126.306641" xlink:href="#DejaVuSans-73"/>
      <use x="178.40625" xlink:href="#DejaVuSans-74"/>
      <use x="217.615234" xlink:href="#DejaVuSans-4c"/>
      <use x="273.328125" xlink:href="#DejaVuSans-61"/>
      <use x="334.607422" xlink:href="#DejaVuSans-6e"/>
      <use x="397.986328" xlink:href="#DejaVuSans-67"/>
      <use x="461.462891" xlink:href="#DejaVuSans-75"/>
      <use x="524.841797" xlink:href="#DejaVuSans-61"/>
      <use x="586.121094" xlink:href="#DejaVuSans-67"/>
      <use x="649.597656" xlink:href="#DejaVuSans-65"/>
      <use x="711.121094" xlink:href="#DejaVuSans-4e"/>
      <use x="785.925781" xlink:href="#DejaVuSans-6f"/>
      <use x="847.107422" xlink:href="#DejaVuSans-74"/>
      <use x="886.316406" xlink:href="#DejaVuSans-45"/>
      <use x="949.5" xlink:href="#DejaVuSans-6e"/>
      <use x="1012.878906" xlink:href="#DejaVuSans-67"/>
      <use x="1076.355469" xlink:href="#DejaVuSans-6c"/>
      <use x="1104.138672" xlink:href="#DejaVuSans-69"/>
      <use x="1131.921875" xlink:href="#DejaVuSans-73"/>
      <use x="1184.021484" xlink:href="#DejaVuSans-68"/>
      <use x="1247.400391" xlink:href="#DejaVuSans-50"/>
      <use x="1307.65625" xlink:href="#DejaVuSans-65"/>
      <use x="1369.179688" xlink:href="#DejaVuSans-72"/>
      <use x="1410.261719" xlink:href="#DejaVuSans-63"/>
      <use x="1465.242188" xlink:href="#DejaVuSans-65"/>
      <use x="1526.765625" xlink:href="#DejaVuSans-6e"/>
      <use x="1590.144531" xlink:href="#DejaVuSans-74"/>
     </g>
    </g>
    <g id="patch_31">
     <path d="M 505.764063 45.576563 
L 525.764063 45.576563 
L 525.764063 38.576563 
L 505.764063 38.576563 
z
" style="fill:#ff7f0e;"/>
    </g>
    <g id="text_21">
     <!-- EnglishLanguageLearnerPercent -->
     <g transform="translate(533.764063 45.576563)scale(0.1 -0.1)">
      <use xlink:href="#DejaVuSans-45"/>
      <use x="63.183594" xlink:href="#DejaVuSans-6e"/>
      <use x="126.5625" xlink:href="#DejaVuSans-67"/>
      <use x="190.039062" xlink:href="#DejaVuSans-6c"/>
      <use x="217.822266" xlink:href="#DejaVuSans-69"/>
      <use x="245.605469" xlink:href="#DejaVuSans-73"/>
      <use x="297.705078" xlink:href="#DejaVuSans-68"/>
      <use x="361.083984" xlink:href="#DejaVuSans-4c"/>
      <use x="416.796875" xlink:href="#DejaVuSans-61"/>
      <use x="478.076172" xlink:href="#DejaVuSans-6e"/>
      <use x="541.455078" xlink:href="#DejaVuSans-67"/>
      <use x="604.931641" xlink:href="#DejaVuSans-75"/>
      <use x="668.310547" xlink:href="#DejaVuSans-61"/>
      <use x="729.589844" xlink:href="#DejaVuSans-67"/>
      <use x="793.066406" xlink:href="#DejaVuSans-65"/>
      <use x="854.589844" xlink:href="#DejaVuSans-4c"/>
      <use x="910.287109" xlink:href="#DejaVuSans-65"/>
      <use x="971.810547" xlink:href="#DejaVuSans-61"/>
      <use x="1033.089844" xlink:href="#DejaVuSans-72"/>
      <use x="1074.1875" xlink:href="#DejaVuSans-6e"/>
      <use x="1137.566406" xlink:href="#DejaVuSans-65"/>
      <use x="1199.089844" xlink:href="#DejaVuSans-72"/>
      <use x="1240.203125" xlink:href="#DejaVuSans-50"/>
      <use x="1300.458984" xlink:href="#DejaVuSans-65"/>
      <use x="1361.982422" xlink:href="#DejaVuSans-72"/>
      <use x="1403.064453" xlink:href="#DejaVuSans-63"/>
      <use x="1458.044922" xlink:href="#DejaVuSans-65"/>
      <use x="1519.568359" xlink:href="#DejaVuSans-6e"/>
      <use x="1582.947266" xlink:href="#DejaVuSans-74"/>
     </g>
    </g>
   </g>
  </g>
 </g>
 <defs>
  <clipPath id="p89d0d210a7">
   <rect height="417.732812" width="675.175" x="30.525" y="14.3"/>
  </clipPath>
 </defs>
</svg>
