<?xml version="1.0" encoding="utf-8" standalone="no"?>
<!DOCTYPE svg PUBLIC "-//W3C//DTD SVG 1.1//EN"
  "http://www.w3.org/Graphics/SVG/1.1/DTD/svg11.dtd">
<!-- Created with matplotlib (http://matplotlib.org/) -->
<svg height="720pt" version="1.1" viewBox="0 0 720 720" width="720pt" xmlns="http://www.w3.org/2000/svg" xmlns:xlink="http://www.w3.org/1999/xlink">
 <defs>
  <style type="text/css">
*{stroke-linecap:butt;stroke-linejoin:round;}
  </style>
 </defs>
 <g id="figure_1">
  <g id="patch_1">
   <path d="M 0 720 
L 720 720 
L 720 0 
L 0 0 
z
" style="fill:#ffffff;"/>
  </g>
  <g id="axes_1">
   <g id="patch_2">
    <path d="M 30.525 401.910937 
L 705.7 401.910937 
L 705.7 14.3 
L 30.525 14.3 
z
" style="fill:#ffffff;"/>
   </g>
   <g id="patch_3">
    <path clip-path="url(#p2a66f2d26e)" d="M 44.591146 401.910937 
L 72.723437 401.910937 
L 72.723437 388.79785 
L 44.591146 388.79785 
z
" style="fill:#1f77b4;"/>
   </g>
   <g id="patch_4">
    <path clip-path="url(#p2a66f2d26e)" d="M 100.855729 401.910937 
L 128.988021 401.910937 
L 128.988021 368.929536 
L 100.855729 368.929536 
z
" style="fill:#1f77b4;"/>
   </g>
   <g id="patch_5">
    <path clip-path="url(#p2a66f2d26e)" d="M 157.120313 401.910937 
L 185.252604 401.910937 
L 185.252604 374.095298 
L 157.120313 374.095298 
z
" style="fill:#1f77b4;"/>
   </g>
   <g id="patch_6">
    <path clip-path="url(#p2a66f2d26e)" d="M 213.384896 401.910937 
L 241.517188 401.910937 
L 241.517188 378.466327 
L 213.384896 378.466327 
z
" style="fill:#1f77b4;"/>
   </g>
   <g id="patch_7">
    <path clip-path="url(#p2a66f2d26e)" d="M 269.649479 401.910937 
L 297.781771 401.910937 
L 297.781771 381.247891 
L 269.649479 381.247891 
z
" style="fill:#1f77b4;"/>
   </g>
   <g id="patch_8">
    <path clip-path="url(#p2a66f2d26e)" d="M 325.914062 401.910937 
L 354.046354 401.910937 
L 354.046354 386.413653 
L 325.914062 386.413653 
z
" style="fill:#1f77b4;"/>
   </g>
   <g id="patch_9">
    <path clip-path="url(#p2a66f2d26e)" d="M 382.178646 401.910937 
L 410.310938 401.910937 
L 410.310938 391.182048 
L 382.178646 391.182048 
z
" style="fill:#1f77b4;"/>
   </g>
   <g id="patch_10">
    <path clip-path="url(#p2a66f2d26e)" d="M 438.443229 401.910937 
L 466.575521 401.910937 
L 466.575521 377.671594 
L 438.443229 377.671594 
z
" style="fill:#1f77b4;"/>
   </g>
   <g id="patch_11">
    <path clip-path="url(#p2a66f2d26e)" d="M 494.707812 401.910937 
L 522.840104 401.910937 
L 522.840104 381.247891 
L 494.707812 381.247891 
z
" style="fill:#1f77b4;"/>
   </g>
   <g id="patch_12">
    <path clip-path="url(#p2a66f2d26e)" d="M 550.972396 401.910937 
L 579.104688 401.910937 
L 579.104688 385.61892 
L 550.972396 385.61892 
z
" style="fill:#1f77b4;"/>
   </g>
   <g id="patch_13">
    <path clip-path="url(#p2a66f2d26e)" d="M 607.236979 401.910937 
L 635.369271 401.910937 
L 635.369271 353.829618 
L 607.236979 353.829618 
z
" style="fill:#1f77b4;"/>
   </g>
   <g id="patch_14">
    <path clip-path="url(#p2a66f2d26e)" d="M 663.501562 401.910937 
L 691.633854 401.910937 
L 691.633854 361.379577 
L 663.501562 361.379577 
z
" style="fill:#1f77b4;"/>
   </g>
   <g id="patch_15">
    <path clip-path="url(#p2a66f2d26e)" d="M 44.591146 388.79785 
L 72.723437 388.79785 
L 72.723437 282.701054 
L 44.591146 282.701054 
z
" style="fill:#ff7f0e;"/>
   </g>
   <g id="patch_16">
    <path clip-path="url(#p2a66f2d26e)" d="M 100.855729 368.929536 
L 128.988021 368.929536 
L 128.988021 262.83274 
L 100.855729 262.83274 
z
" style="fill:#ff7f0e;"/>
   </g>
   <g id="patch_17">
    <path clip-path="url(#p2a66f2d26e)" d="M 157.120313 374.095298 
L 185.252604 374.095298 
L 185.252604 306.145664 
L 157.120313 306.145664 
z
" style="fill:#ff7f0e;"/>
   </g>
   <g id="patch_18">
    <path clip-path="url(#p2a66f2d26e)" d="M 213.384896 378.466327 
L 241.517188 378.466327 
L 241.517188 269.587966 
L 213.384896 269.587966 
z
" style="fill:#ff7f0e;"/>
   </g>
   <g id="patch_19">
    <path clip-path="url(#p2a66f2d26e)" d="M 269.649479 381.247891 
L 297.781771 381.247891 
L 297.781771 330.782373 
L 269.649479 330.782373 
z
" style="fill:#ff7f0e;"/>
   </g>
   <g id="patch_20">
    <path clip-path="url(#p2a66f2d26e)" d="M 325.914062 386.413653 
L 354.046354 386.413653 
L 354.046354 322.437682 
L 325.914062 322.437682 
z
" style="fill:#ff7f0e;"/>
   </g>
   <g id="patch_21">
    <path clip-path="url(#p2a66f2d26e)" d="M 382.178646 391.182048 
L 410.310938 391.182048 
L 410.310938 329.590275 
L 382.178646 329.590275 
z
" style="fill:#ff7f0e;"/>
   </g>
   <g id="patch_22">
    <path clip-path="url(#p2a66f2d26e)" d="M 438.443229 377.671594 
L 466.575521 377.671594 
L 466.575521 257.666978 
L 438.443229 257.666978 
z
" style="fill:#ff7f0e;"/>
   </g>
   <g id="patch_23">
    <path clip-path="url(#p2a66f2d26e)" d="M 494.707812 381.247891 
L 522.840104 381.247891 
L 522.840104 316.874554 
L 494.707812 316.874554 
z
" style="fill:#ff7f0e;"/>
   </g>
   <g id="patch_24">
    <path clip-path="url(#p2a66f2d26e)" d="M 550.972396 385.61892 
L 579.104688 385.61892 
L 579.104688 293.429943 
L 550.972396 293.429943 
z
" style="fill:#ff7f0e;"/>
   </g>
   <g id="patch_25">
    <path clip-path="url(#p2a66f2d26e)" d="M 607.236979 353.829618 
L 635.369271 353.829618 
L 635.369271 278.330025 
L 607.236979 278.330025 
z
" style="fill:#ff7f0e;"/>
   </g>
   <g id="patch_26">
    <path clip-path="url(#p2a66f2d26e)" d="M 663.501562 361.379577 
L 691.633854 361.379577 
L 691.633854 271.972164 
L 663.501562 271.972164 
z
" style="fill:#ff7f0e;"/>
   </g>
   <g id="patch_27">
    <path clip-path="url(#p2a66f2d26e)" d="M 44.591146 282.701054 
L 72.723437 282.701054 
L 72.723437 84.017914 
L 44.591146 84.017914 
z
" style="fill:#2ca02c;"/>
   </g>
   <g id="patch_28">
    <path clip-path="url(#p2a66f2d26e)" d="M 100.855729 262.83274 
L 128.988021 262.83274 
L 128.988021 97.131001 
L 100.855729 97.131001 
z
" style="fill:#2ca02c;"/>
   </g>
   <g id="patch_29">
    <path clip-path="url(#p2a66f2d26e)" d="M 157.120313 306.145664 
L 185.252604 306.145664 
L 185.252604 85.210013 
L 157.120313 85.210013 
z
" style="fill:#2ca02c;"/>
   </g>
   <g id="patch_30">
    <path clip-path="url(#p2a66f2d26e)" d="M 213.384896 269.587966 
L 241.517188 269.587966 
L 241.517188 77.262687 
L 213.384896 77.262687 
z
" style="fill:#2ca02c;"/>
   </g>
   <g id="patch_31">
    <path clip-path="url(#p2a66f2d26e)" d="M 269.649479 330.782373 
L 297.781771 330.782373 
L 297.781771 96.733635 
L 269.649479 96.733635 
z
" style="fill:#2ca02c;"/>
   </g>
   <g id="patch_32">
    <path clip-path="url(#p2a66f2d26e)" d="M 325.914062 322.437682 
L 354.046354 322.437682 
L 354.046354 78.454786 
L 325.914062 78.454786 
z
" style="fill:#2ca02c;"/>
   </g>
   <g id="patch_33">
    <path clip-path="url(#p2a66f2d26e)" d="M 382.178646 329.590275 
L 410.310938 329.590275 
L 410.310938 87.991577 
L 382.178646 87.991577 
z
" style="fill:#2ca02c;"/>
   </g>
   <g id="patch_34">
    <path clip-path="url(#p2a66f2d26e)" d="M 438.443229 257.666978 
L 466.575521 257.666978 
L 466.575521 72.096925 
L 438.443229 72.096925 
z
" style="fill:#2ca02c;"/>
   </g>
   <g id="patch_35">
    <path clip-path="url(#p2a66f2d26e)" d="M 494.707812 316.874554 
L 522.840104 316.874554 
L 522.840104 91.170507 
L 494.707812 91.170507 
z
" style="fill:#2ca02c;"/>
   </g>
   <g id="patch_36">
    <path clip-path="url(#p2a66f2d26e)" d="M 550.972396 293.429943 
L 579.104688 293.429943 
L 579.104688 79.646885 
L 550.972396 79.646885 
z
" style="fill:#2ca02c;"/>
   </g>
   <g id="patch_37">
    <path clip-path="url(#p2a66f2d26e)" d="M 607.236979 278.330025 
L 635.369271 278.330025 
L 635.369271 168.656931 
L 607.236979 168.656931 
z
" style="fill:#2ca02c;"/>
   </g>
   <g id="patch_38">
    <path clip-path="url(#p2a66f2d26e)" d="M 663.501562 271.972164 
L 691.633854 271.972164 
L 691.633854 80.044251 
L 663.501562 80.044251 
z
" style="fill:#2ca02c;"/>
   </g>
   <g id="patch_39">
    <path clip-path="url(#p2a66f2d26e)" d="M 44.591146 84.017914 
L 72.723437 84.017914 
L 72.723437 64.1496 
L 44.591146 64.1496 
z
" style="fill:#d62728;"/>
   </g>
   <g id="patch_40">
    <path clip-path="url(#p2a66f2d26e)" d="M 100.855729 97.131001 
L 128.988021 97.131001 
L 128.988021 50.639146 
L 100.855729 50.639146 
z
" style="fill:#d62728;"/>
   </g>
   <g id="patch_41">
    <path clip-path="url(#p2a66f2d26e)" d="M 157.120313 85.210013 
L 185.252604 85.210013 
L 185.252604 39.115524 
L 157.120313 39.115524 
z
" style="fill:#d62728;"/>
   </g>
   <g id="patch_42">
    <path clip-path="url(#p2a66f2d26e)" d="M 213.384896 77.262687 
L 241.517188 77.262687 
L 241.517188 39.910257 
L 213.384896 39.910257 
z
" style="fill:#d62728;"/>
   </g>
   <g id="patch_43">
    <path clip-path="url(#p2a66f2d26e)" d="M 269.649479 96.733635 
L 297.781771 96.733635 
L 297.781771 45.076018 
L 269.649479 45.076018 
z
" style="fill:#d62728;"/>
   </g>
   <g id="patch_44">
    <path clip-path="url(#p2a66f2d26e)" d="M 325.914062 78.454786 
L 354.046354 78.454786 
L 354.046354 41.897088 
L 325.914062 41.897088 
z
" style="fill:#d62728;"/>
   </g>
   <g id="patch_45">
    <path clip-path="url(#p2a66f2d26e)" d="M 382.178646 87.991577 
L 410.310938 87.991577 
L 410.310938 47.460216 
L 382.178646 47.460216 
z
" style="fill:#d62728;"/>
   </g>
   <g id="patch_46">
    <path clip-path="url(#p2a66f2d26e)" d="M 438.443229 72.096925 
L 466.575521 72.096925 
L 466.575521 36.731326 
L 438.443229 36.731326 
z
" style="fill:#d62728;"/>
   </g>
   <g id="patch_47">
    <path clip-path="url(#p2a66f2d26e)" d="M 494.707812 91.170507 
L 522.840104 91.170507 
L 522.840104 58.983838 
L 494.707812 58.983838 
z
" style="fill:#d62728;"/>
   </g>
   <g id="patch_48">
    <path clip-path="url(#p2a66f2d26e)" d="M 550.972396 79.646885 
L 579.104688 79.646885 
L 579.104688 39.51289 
L 550.972396 39.51289 
z
" style="fill:#d62728;"/>
   </g>
   <g id="patch_49">
    <path clip-path="url(#p2a66f2d26e)" d="M 607.236979 168.656931 
L 635.369271 168.656931 
L 635.369271 93.157338 
L 607.236979 93.157338 
z
" style="fill:#d62728;"/>
   </g>
   <g id="patch_50">
    <path clip-path="url(#p2a66f2d26e)" d="M 663.501562 80.044251 
L 691.633854 80.044251 
L 691.633854 32.757664 
L 663.501562 32.757664 
z
" style="fill:#d62728;"/>
   </g>
   <g id="matplotlib.axis_1">
    <g id="xtick_1">
     <g id="line2d_1">
      <defs>
       <path d="M 0 0 
L 0 3.5 
" id="m3081c997ba" style="stroke:#000000;stroke-width:0.8;"/>
      </defs>
      <g>
       <use style="stroke:#000000;stroke-width:0.8;" x="58.657292" xlink:href="#m3081c997ba" y="401.910937"/>
      </g>
     </g>
     <g id="text_1">
      <!-- Brookline - Brookline Early Education Program at Beacon -->
      <defs>
       <path d="M 19.671875 34.8125 
L 19.671875 8.109375 
L 35.5 8.109375 
Q 43.453125 8.109375 47.28125 11.40625 
Q 51.125 14.703125 51.125 21.484375 
Q 51.125 28.328125 47.28125 31.5625 
Q 43.453125 34.8125 35.5 34.8125 
z
M 19.671875 64.796875 
L 19.671875 42.828125 
L 34.28125 42.828125 
Q 41.5 42.828125 45.03125 45.53125 
Q 48.578125 48.25 48.578125 53.8125 
Q 48.578125 59.328125 45.03125 62.0625 
Q 41.5 64.796875 34.28125 64.796875 
z
M 9.8125 72.90625 
L 35.015625 72.90625 
Q 46.296875 72.90625 52.390625 68.21875 
Q 58.5 63.53125 58.5 54.890625 
Q 58.5 48.1875 55.375 44.234375 
Q 52.25 40.28125 46.1875 39.3125 
Q 53.46875 37.75 57.5 32.78125 
Q 61.53125 27.828125 61.53125 20.40625 
Q 61.53125 10.640625 54.890625 5.3125 
Q 48.25 0 35.984375 0 
L 9.8125 0 
z
" id="DejaVuSans-42"/>
       <path d="M 41.109375 46.296875 
Q 39.59375 47.171875 37.8125 47.578125 
Q 36.03125 48 33.890625 48 
Q 26.265625 48 22.1875 43.046875 
Q 18.109375 38.09375 18.109375 28.8125 
L 18.109375 0 
L 9.078125 0 
L 9.078125 54.6875 
L 18.109375 54.6875 
L 18.109375 46.1875 
Q 20.953125 51.171875 25.484375 53.578125 
Q 30.03125 56 36.53125 56 
Q 37.453125 56 38.578125 55.875 
Q 39.703125 55.765625 41.0625 55.515625 
z
" id="DejaVuSans-72"/>
       <path d="M 30.609375 48.390625 
Q 23.390625 48.390625 19.1875 42.75 
Q 14.984375 37.109375 14.984375 27.296875 
Q 14.984375 17.484375 19.15625 11.84375 
Q 23.34375 6.203125 30.609375 6.203125 
Q 37.796875 6.203125 41.984375 11.859375 
Q 46.1875 17.53125 46.1875 27.296875 
Q 46.1875 37.015625 41.984375 42.703125 
Q 37.796875 48.390625 30.609375 48.390625 
z
M 30.609375 56 
Q 42.328125 56 49.015625 48.375 
Q 55.71875 40.765625 55.71875 27.296875 
Q 55.71875 13.875 49.015625 6.21875 
Q 42.328125 -1.421875 30.609375 -1.421875 
Q 18.84375 -1.421875 12.171875 6.21875 
Q 5.515625 13.875 5.515625 27.296875 
Q 5.515625 40.765625 12.171875 48.375 
Q 18.84375 56 30.609375 56 
z
" id="DejaVuSans-6f"/>
       <path d="M 9.078125 75.984375 
L 18.109375 75.984375 
L 18.109375 31.109375 
L 44.921875 54.6875 
L 56.390625 54.6875 
L 27.390625 29.109375 
L 57.625 0 
L 45.90625 0 
L 18.109375 26.703125 
L 18.109375 0 
L 9.078125 0 
z
" id="DejaVuSans-6b"/>
       <path d="M 9.421875 75.984375 
L 18.40625 75.984375 
L 18.40625 0 
L 9.421875 0 
z
" id="DejaVuSans-6c"/>
       <path d="M 9.421875 54.6875 
L 18.40625 54.6875 
L 18.40625 0 
L 9.421875 0 
z
M 9.421875 75.984375 
L 18.40625 75.984375 
L 18.40625 64.59375 
L 9.421875 64.59375 
z
" id="DejaVuSans-69"/>
       <path d="M 54.890625 33.015625 
L 54.890625 0 
L 45.90625 0 
L 45.90625 32.71875 
Q 45.90625 40.484375 42.875 44.328125 
Q 39.84375 48.1875 33.796875 48.1875 
Q 26.515625 48.1875 22.3125 43.546875 
Q 18.109375 38.921875 18.109375 30.90625 
L 18.109375 0 
L 9.078125 0 
L 9.078125 54.6875 
L 18.109375 54.6875 
L 18.109375 46.1875 
Q 21.34375 51.125 25.703125 53.5625 
Q 30.078125 56 35.796875 56 
Q 45.21875 56 50.046875 50.171875 
Q 54.890625 44.34375 54.890625 33.015625 
z
" id="DejaVuSans-6e"/>
       <path d="M 56.203125 29.59375 
L 56.203125 25.203125 
L 14.890625 25.203125 
Q 15.484375 15.921875 20.484375 11.0625 
Q 25.484375 6.203125 34.421875 6.203125 
Q 39.59375 6.203125 44.453125 7.46875 
Q 49.3125 8.734375 54.109375 11.28125 
L 54.109375 2.78125 
Q 49.265625 0.734375 44.1875 -0.34375 
Q 39.109375 -1.421875 33.890625 -1.421875 
Q 20.796875 -1.421875 13.15625 6.1875 
Q 5.515625 13.8125 5.515625 26.8125 
Q 5.515625 40.234375 12.765625 48.109375 
Q 20.015625 56 32.328125 56 
Q 43.359375 56 49.78125 48.890625 
Q 56.203125 41.796875 56.203125 29.59375 
z
M 47.21875 32.234375 
Q 47.125 39.59375 43.09375 43.984375 
Q 39.0625 48.390625 32.421875 48.390625 
Q 24.90625 48.390625 20.390625 44.140625 
Q 15.875 39.890625 15.1875 32.171875 
z
" id="DejaVuSans-65"/>
       <path id="DejaVuSans-20"/>
       <path d="M 4.890625 31.390625 
L 31.203125 31.390625 
L 31.203125 23.390625 
L 4.890625 23.390625 
z
" id="DejaVuSans-2d"/>
       <path d="M 9.8125 72.90625 
L 55.90625 72.90625 
L 55.90625 64.59375 
L 19.671875 64.59375 
L 19.671875 43.015625 
L 54.390625 43.015625 
L 54.390625 34.71875 
L 19.671875 34.71875 
L 19.671875 8.296875 
L 56.78125 8.296875 
L 56.78125 0 
L 9.8125 0 
z
" id="DejaVuSans-45"/>
       <path d="M 34.28125 27.484375 
Q 23.390625 27.484375 19.1875 25 
Q 14.984375 22.515625 14.984375 16.5 
Q 14.984375 11.71875 18.140625 8.90625 
Q 21.296875 6.109375 26.703125 6.109375 
Q 34.1875 6.109375 38.703125 11.40625 
Q 43.21875 16.703125 43.21875 25.484375 
L 43.21875 27.484375 
z
M 52.203125 31.203125 
L 52.203125 0 
L 43.21875 0 
L 43.21875 8.296875 
Q 40.140625 3.328125 35.546875 0.953125 
Q 30.953125 -1.421875 24.3125 -1.421875 
Q 15.921875 -1.421875 10.953125 3.296875 
Q 6 8.015625 6 15.921875 
Q 6 25.140625 12.171875 29.828125 
Q 18.359375 34.515625 30.609375 34.515625 
L 43.21875 34.515625 
L 43.21875 35.40625 
Q 43.21875 41.609375 39.140625 45 
Q 35.0625 48.390625 27.6875 48.390625 
Q 23 48.390625 18.546875 47.265625 
Q 14.109375 46.140625 10.015625 43.890625 
L 10.015625 52.203125 
Q 14.9375 54.109375 19.578125 55.046875 
Q 24.21875 56 28.609375 56 
Q 40.484375 56 46.34375 49.84375 
Q 52.203125 43.703125 52.203125 31.203125 
z
" id="DejaVuSans-61"/>
       <path d="M 32.171875 -5.078125 
Q 28.375 -14.84375 24.75 -17.8125 
Q 21.140625 -20.796875 15.09375 -20.796875 
L 7.90625 -20.796875 
L 7.90625 -13.28125 
L 13.1875 -13.28125 
Q 16.890625 -13.28125 18.9375 -11.515625 
Q 21 -9.765625 23.484375 -3.21875 
L 25.09375 0.875 
L 2.984375 54.6875 
L 12.5 54.6875 
L 29.59375 11.921875 
L 46.6875 54.6875 
L 56.203125 54.6875 
z
" id="DejaVuSans-79"/>
       <path d="M 45.40625 46.390625 
L 45.40625 75.984375 
L 54.390625 75.984375 
L 54.390625 0 
L 45.40625 0 
L 45.40625 8.203125 
Q 42.578125 3.328125 38.25 0.953125 
Q 33.9375 -1.421875 27.875 -1.421875 
Q 17.96875 -1.421875 11.734375 6.484375 
Q 5.515625 14.40625 5.515625 27.296875 
Q 5.515625 40.1875 11.734375 48.09375 
Q 17.96875 56 27.875 56 
Q 33.9375 56 38.25 53.625 
Q 42.578125 51.265625 45.40625 46.390625 
z
M 14.796875 27.296875 
Q 14.796875 17.390625 18.875 11.75 
Q 22.953125 6.109375 30.078125 6.109375 
Q 37.203125 6.109375 41.296875 11.75 
Q 45.40625 17.390625 45.40625 27.296875 
Q 45.40625 37.203125 41.296875 42.84375 
Q 37.203125 48.484375 30.078125 48.484375 
Q 22.953125 48.484375 18.875 42.84375 
Q 14.796875 37.203125 14.796875 27.296875 
z
" id="DejaVuSans-64"/>
       <path d="M 8.5 21.578125 
L 8.5 54.6875 
L 17.484375 54.6875 
L 17.484375 21.921875 
Q 17.484375 14.15625 20.5 10.265625 
Q 23.53125 6.390625 29.59375 6.390625 
Q 36.859375 6.390625 41.078125 11.03125 
Q 45.3125 15.671875 45.3125 23.6875 
L 45.3125 54.6875 
L 54.296875 54.6875 
L 54.296875 0 
L 45.3125 0 
L 45.3125 8.40625 
Q 42.046875 3.421875 37.71875 1 
Q 33.40625 -1.421875 27.6875 -1.421875 
Q 18.265625 -1.421875 13.375 4.4375 
Q 8.5 10.296875 8.5 21.578125 
z
M 31.109375 56 
z
" id="DejaVuSans-75"/>
       <path d="M 48.78125 52.59375 
L 48.78125 44.1875 
Q 44.96875 46.296875 41.140625 47.34375 
Q 37.3125 48.390625 33.40625 48.390625 
Q 24.65625 48.390625 19.8125 42.84375 
Q 14.984375 37.3125 14.984375 27.296875 
Q 14.984375 17.28125 19.8125 11.734375 
Q 24.65625 6.203125 33.40625 6.203125 
Q 37.3125 6.203125 41.140625 7.25 
Q 44.96875 8.296875 48.78125 10.40625 
L 48.78125 2.09375 
Q 45.015625 0.34375 40.984375 -0.53125 
Q 36.96875 -1.421875 32.421875 -1.421875 
Q 20.0625 -1.421875 12.78125 6.34375 
Q 5.515625 14.109375 5.515625 27.296875 
Q 5.515625 40.671875 12.859375 48.328125 
Q 20.21875 56 33.015625 56 
Q 37.15625 56 41.109375 55.140625 
Q 45.0625 54.296875 48.78125 52.59375 
z
" id="DejaVuSans-63"/>
       <path d="M 18.3125 70.21875 
L 18.3125 54.6875 
L 36.8125 54.6875 
L 36.8125 47.703125 
L 18.3125 47.703125 
L 18.3125 18.015625 
Q 18.3125 11.328125 20.140625 9.421875 
Q 21.96875 7.515625 27.59375 7.515625 
L 36.8125 7.515625 
L 36.8125 0 
L 27.59375 0 
Q 17.1875 0 13.234375 3.875 
Q 9.28125 7.765625 9.28125 18.015625 
L 9.28125 47.703125 
L 2.6875 47.703125 
L 2.6875 54.6875 
L 9.28125 54.6875 
L 9.28125 70.21875 
z
" id="DejaVuSans-74"/>
       <path d="M 19.671875 64.796875 
L 19.671875 37.40625 
L 32.078125 37.40625 
Q 38.96875 37.40625 42.71875 40.96875 
Q 46.484375 44.53125 46.484375 51.125 
Q 46.484375 57.671875 42.71875 61.234375 
Q 38.96875 64.796875 32.078125 64.796875 
z
M 9.8125 72.90625 
L 32.078125 72.90625 
Q 44.34375 72.90625 50.609375 67.359375 
Q 56.890625 61.8125 56.890625 51.125 
Q 56.890625 40.328125 50.609375 34.8125 
Q 44.34375 29.296875 32.078125 29.296875 
L 19.671875 29.296875 
L 19.671875 0 
L 9.8125 0 
z
" id="DejaVuSans-50"/>
       <path d="M 45.40625 27.984375 
Q 45.40625 37.75 41.375 43.109375 
Q 37.359375 48.484375 30.078125 48.484375 
Q 22.859375 48.484375 18.828125 43.109375 
Q 14.796875 37.75 14.796875 27.984375 
Q 14.796875 18.265625 18.828125 12.890625 
Q 22.859375 7.515625 30.078125 7.515625 
Q 37.359375 7.515625 41.375 12.890625 
Q 45.40625 18.265625 45.40625 27.984375 
z
M 54.390625 6.78125 
Q 54.390625 -7.171875 48.1875 -13.984375 
Q 42 -20.796875 29.203125 -20.796875 
Q 24.46875 -20.796875 20.265625 -20.09375 
Q 16.0625 -19.390625 12.109375 -17.921875 
L 12.109375 -9.1875 
Q 16.0625 -11.328125 19.921875 -12.34375 
Q 23.78125 -13.375 27.78125 -13.375 
Q 36.625 -13.375 41.015625 -8.765625 
Q 45.40625 -4.15625 45.40625 5.171875 
L 45.40625 9.625 
Q 42.625 4.78125 38.28125 2.390625 
Q 33.9375 0 27.875 0 
Q 17.828125 0 11.671875 7.65625 
Q 5.515625 15.328125 5.515625 27.984375 
Q 5.515625 40.671875 11.671875 48.328125 
Q 17.828125 56 27.875 56 
Q 33.9375 56 38.28125 53.609375 
Q 42.625 51.21875 45.40625 46.390625 
L 45.40625 54.6875 
L 54.390625 54.6875 
z
" id="DejaVuSans-67"/>
       <path d="M 52 44.1875 
Q 55.375 50.25 60.0625 53.125 
Q 64.75 56 71.09375 56 
Q 79.640625 56 84.28125 50.015625 
Q 88.921875 44.046875 88.921875 33.015625 
L 88.921875 0 
L 79.890625 0 
L 79.890625 32.71875 
Q 79.890625 40.578125 77.09375 44.375 
Q 74.3125 48.1875 68.609375 48.1875 
Q 61.625 48.1875 57.5625 43.546875 
Q 53.515625 38.921875 53.515625 30.90625 
L 53.515625 0 
L 44.484375 0 
L 44.484375 32.71875 
Q 44.484375 40.625 41.703125 44.40625 
Q 38.921875 48.1875 33.109375 48.1875 
Q 26.21875 48.1875 22.15625 43.53125 
Q 18.109375 38.875 18.109375 30.90625 
L 18.109375 0 
L 9.078125 0 
L 9.078125 54.6875 
L 18.109375 54.6875 
L 18.109375 46.1875 
Q 21.1875 51.21875 25.484375 53.609375 
Q 29.78125 56 35.6875 56 
Q 41.65625 56 45.828125 52.96875 
Q 50 49.953125 52 44.1875 
z
" id="DejaVuSans-6d"/>
      </defs>
      <g transform="translate(61.416667 693.621875)rotate(-90)scale(0.1 -0.1)">
       <use xlink:href="#DejaVuSans-42"/>
       <use x="68.603516" xlink:href="#DejaVuSans-72"/>
       <use x="109.685547" xlink:href="#DejaVuSans-6f"/>
       <use x="170.867188" xlink:href="#DejaVuSans-6f"/>
       <use x="232.048828" xlink:href="#DejaVuSans-6b"/>
       <use x="289.958984" xlink:href="#DejaVuSans-6c"/>
       <use x="317.742188" xlink:href="#DejaVuSans-69"/>
       <use x="345.525391" xlink:href="#DejaVuSans-6e"/>
       <use x="408.904297" xlink:href="#DejaVuSans-65"/>
       <use x="470.427734" xlink:href="#DejaVuSans-20"/>
       <use x="502.214844" xlink:href="#DejaVuSans-2d"/>
       <use x="538.298828" xlink:href="#DejaVuSans-20"/>
       <use x="570.085938" xlink:href="#DejaVuSans-42"/>
       <use x="638.689453" xlink:href="#DejaVuSans-72"/>
       <use x="679.771484" xlink:href="#DejaVuSans-6f"/>
       <use x="740.953125" xlink:href="#DejaVuSans-6f"/>
       <use x="802.134766" xlink:href="#DejaVuSans-6b"/>
       <use x="860.044922" xlink:href="#DejaVuSans-6c"/>
       <use x="887.828125" xlink:href="#DejaVuSans-69"/>
       <use x="915.611328" xlink:href="#DejaVuSans-6e"/>
       <use x="978.990234" xlink:href="#DejaVuSans-65"/>
       <use x="1040.513672" xlink:href="#DejaVuSans-20"/>
       <use x="1072.300781" xlink:href="#DejaVuSans-45"/>
       <use x="1135.484375" xlink:href="#DejaVuSans-61"/>
       <use x="1196.763672" xlink:href="#DejaVuSans-72"/>
       <use x="1237.876953" xlink:href="#DejaVuSans-6c"/>
       <use x="1265.660156" xlink:href="#DejaVuSans-79"/>
       <use x="1324.839844" xlink:href="#DejaVuSans-20"/>
       <use x="1356.626953" xlink:href="#DejaVuSans-45"/>
       <use x="1419.810547" xlink:href="#DejaVuSans-64"/>
       <use x="1483.287109" xlink:href="#DejaVuSans-75"/>
       <use x="1546.666016" xlink:href="#DejaVuSans-63"/>
       <use x="1601.646484" xlink:href="#DejaVuSans-61"/>
       <use x="1662.925781" xlink:href="#DejaVuSans-74"/>
       <use x="1702.134766" xlink:href="#DejaVuSans-69"/>
       <use x="1729.917969" xlink:href="#DejaVuSans-6f"/>
       <use x="1791.099609" xlink:href="#DejaVuSans-6e"/>
       <use x="1854.478516" xlink:href="#DejaVuSans-20"/>
       <use x="1886.265625" xlink:href="#DejaVuSans-50"/>
       <use x="1946.552734" xlink:href="#DejaVuSans-72"/>
       <use x="1987.634766" xlink:href="#DejaVuSans-6f"/>
       <use x="2048.816406" xlink:href="#DejaVuSans-67"/>
       <use x="2112.292969" xlink:href="#DejaVuSans-72"/>
       <use x="2153.40625" xlink:href="#DejaVuSans-61"/>
       <use x="2214.685547" xlink:href="#DejaVuSans-6d"/>
       <use x="2312.097656" xlink:href="#DejaVuSans-20"/>
       <use x="2343.884766" xlink:href="#DejaVuSans-61"/>
       <use x="2405.164062" xlink:href="#DejaVuSans-74"/>
       <use x="2444.373047" xlink:href="#DejaVuSans-20"/>
       <use x="2476.160156" xlink:href="#DejaVuSans-42"/>
       <use x="2544.763672" xlink:href="#DejaVuSans-65"/>
       <use x="2606.287109" xlink:href="#DejaVuSans-61"/>
       <use x="2667.566406" xlink:href="#DejaVuSans-63"/>
       <use x="2722.546875" xlink:href="#DejaVuSans-6f"/>
       <use x="2783.728516" xlink:href="#DejaVuSans-6e"/>
      </g>
     </g>
    </g>
    <g id="xtick_2">
     <g id="line2d_2">
      <g>
       <use style="stroke:#000000;stroke-width:0.8;" x="114.921875" xlink:href="#m3081c997ba" y="401.910937"/>
      </g>
     </g>
     <g id="text_2">
      <!-- Brookline - Brookline Early Education Program at Putterham -->
      <defs>
       <path d="M 54.890625 33.015625 
L 54.890625 0 
L 45.90625 0 
L 45.90625 32.71875 
Q 45.90625 40.484375 42.875 44.328125 
Q 39.84375 48.1875 33.796875 48.1875 
Q 26.515625 48.1875 22.3125 43.546875 
Q 18.109375 38.921875 18.109375 30.90625 
L 18.109375 0 
L 9.078125 0 
L 9.078125 75.984375 
L 18.109375 75.984375 
L 18.109375 46.1875 
Q 21.34375 51.125 25.703125 53.5625 
Q 30.078125 56 35.796875 56 
Q 45.21875 56 50.046875 50.171875 
Q 54.890625 44.34375 54.890625 33.015625 
z
" id="DejaVuSans-68"/>
      </defs>
      <g transform="translate(117.68125 709.2)rotate(-90)scale(0.1 -0.1)">
       <use xlink:href="#DejaVuSans-42"/>
       <use x="68.603516" xlink:href="#DejaVuSans-72"/>
       <use x="109.685547" xlink:href="#DejaVuSans-6f"/>
       <use x="170.867188" xlink:href="#DejaVuSans-6f"/>
       <use x="232.048828" xlink:href="#DejaVuSans-6b"/>
       <use x="289.958984" xlink:href="#DejaVuSans-6c"/>
       <use x="317.742188" xlink:href="#DejaVuSans-69"/>
       <use x="345.525391" xlink:href="#DejaVuSans-6e"/>
       <use x="408.904297" xlink:href="#DejaVuSans-65"/>
       <use x="470.427734" xlink:href="#DejaVuSans-20"/>
       <use x="502.214844" xlink:href="#DejaVuSans-2d"/>
       <use x="538.298828" xlink:href="#DejaVuSans-20"/>
       <use x="570.085938" xlink:href="#DejaVuSans-42"/>
       <use x="638.689453" xlink:href="#DejaVuSans-72"/>
       <use x="679.771484" xlink:href="#DejaVuSans-6f"/>
       <use x="740.953125" xlink:href="#DejaVuSans-6f"/>
       <use x="802.134766" xlink:href="#DejaVuSans-6b"/>
       <use x="860.044922" xlink:href="#DejaVuSans-6c"/>
       <use x="887.828125" xlink:href="#DejaVuSans-69"/>
       <use x="915.611328" xlink:href="#DejaVuSans-6e"/>
       <use x="978.990234" xlink:href="#DejaVuSans-65"/>
       <use x="1040.513672" xlink:href="#DejaVuSans-20"/>
       <use x="1072.300781" xlink:href="#DejaVuSans-45"/>
       <use x="1135.484375" xlink:href="#DejaVuSans-61"/>
       <use x="1196.763672" xlink:href="#DejaVuSans-72"/>
       <use x="1237.876953" xlink:href="#DejaVuSans-6c"/>
       <use x="1265.660156" xlink:href="#DejaVuSans-79"/>
       <use x="1324.839844" xlink:href="#DejaVuSans-20"/>
       <use x="1356.626953" xlink:href="#DejaVuSans-45"/>
       <use x="1419.810547" xlink:href="#DejaVuSans-64"/>
       <use x="1483.287109" xlink:href="#DejaVuSans-75"/>
       <use x="1546.666016" xlink:href="#DejaVuSans-63"/>
       <use x="1601.646484" xlink:href="#DejaVuSans-61"/>
       <use x="1662.925781" xlink:href="#DejaVuSans-74"/>
       <use x="1702.134766" xlink:href="#DejaVuSans-69"/>
       <use x="1729.917969" xlink:href="#DejaVuSans-6f"/>
       <use x="1791.099609" xlink:href="#DejaVuSans-6e"/>
       <use x="1854.478516" xlink:href="#DejaVuSans-20"/>
       <use x="1886.265625" xlink:href="#DejaVuSans-50"/>
       <use x="1946.552734" xlink:href="#DejaVuSans-72"/>
       <use x="1987.634766" xlink:href="#DejaVuSans-6f"/>
       <use x="2048.816406" xlink:href="#DejaVuSans-67"/>
       <use x="2112.292969" xlink:href="#DejaVuSans-72"/>
       <use x="2153.40625" xlink:href="#DejaVuSans-61"/>
       <use x="2214.685547" xlink:href="#DejaVuSans-6d"/>
       <use x="2312.097656" xlink:href="#DejaVuSans-20"/>
       <use x="2343.884766" xlink:href="#DejaVuSans-61"/>
       <use x="2405.164062" xlink:href="#DejaVuSans-74"/>
       <use x="2444.373047" xlink:href="#DejaVuSans-20"/>
       <use x="2476.160156" xlink:href="#DejaVuSans-50"/>
       <use x="2536.447266" xlink:href="#DejaVuSans-75"/>
       <use x="2599.826172" xlink:href="#DejaVuSans-74"/>
       <use x="2639.035156" xlink:href="#DejaVuSans-74"/>
       <use x="2678.244141" xlink:href="#DejaVuSans-65"/>
       <use x="2739.767578" xlink:href="#DejaVuSans-72"/>
       <use x="2780.865234" xlink:href="#DejaVuSans-68"/>
       <use x="2844.244141" xlink:href="#DejaVuSans-61"/>
       <use x="2905.523438" xlink:href="#DejaVuSans-6d"/>
      </g>
     </g>
    </g>
    <g id="xtick_3">
     <g id="line2d_3">
      <g>
       <use style="stroke:#000000;stroke-width:0.8;" x="171.186458" xlink:href="#m3081c997ba" y="401.910937"/>
      </g>
     </g>
     <g id="text_3">
      <!-- Brookline - Brookline High -->
      <defs>
       <path d="M 9.8125 72.90625 
L 19.671875 72.90625 
L 19.671875 43.015625 
L 55.515625 43.015625 
L 55.515625 72.90625 
L 65.375 72.90625 
L 65.375 0 
L 55.515625 0 
L 55.515625 34.71875 
L 19.671875 34.71875 
L 19.671875 0 
L 9.8125 0 
z
" id="DejaVuSans-48"/>
      </defs>
      <g transform="translate(173.945833 539.125)rotate(-90)scale(0.1 -0.1)">
       <use xlink:href="#DejaVuSans-42"/>
       <use x="68.603516" xlink:href="#DejaVuSans-72"/>
       <use x="109.685547" xlink:href="#DejaVuSans-6f"/>
       <use x="170.867188" xlink:href="#DejaVuSans-6f"/>
       <use x="232.048828" xlink:href="#DejaVuSans-6b"/>
       <use x="289.958984" xlink:href="#DejaVuSans-6c"/>
       <use x="317.742188" xlink:href="#DejaVuSans-69"/>
       <use x="345.525391" xlink:href="#DejaVuSans-6e"/>
       <use x="408.904297" xlink:href="#DejaVuSans-65"/>
       <use x="470.427734" xlink:href="#DejaVuSans-20"/>
       <use x="502.214844" xlink:href="#DejaVuSans-2d"/>
       <use x="538.298828" xlink:href="#DejaVuSans-20"/>
       <use x="570.085938" xlink:href="#DejaVuSans-42"/>
       <use x="638.689453" xlink:href="#DejaVuSans-72"/>
       <use x="679.771484" xlink:href="#DejaVuSans-6f"/>
       <use x="740.953125" xlink:href="#DejaVuSans-6f"/>
       <use x="802.134766" xlink:href="#DejaVuSans-6b"/>
       <use x="860.044922" xlink:href="#DejaVuSans-6c"/>
       <use x="887.828125" xlink:href="#DejaVuSans-69"/>
       <use x="915.611328" xlink:href="#DejaVuSans-6e"/>
       <use x="978.990234" xlink:href="#DejaVuSans-65"/>
       <use x="1040.513672" xlink:href="#DejaVuSans-20"/>
       <use x="1072.300781" xlink:href="#DejaVuSans-48"/>
       <use x="1147.496094" xlink:href="#DejaVuSans-69"/>
       <use x="1175.279297" xlink:href="#DejaVuSans-67"/>
       <use x="1238.755859" xlink:href="#DejaVuSans-68"/>
      </g>
     </g>
    </g>
    <g id="xtick_4">
     <g id="line2d_4">
      <g>
       <use style="stroke:#000000;stroke-width:0.8;" x="227.451042" xlink:href="#m3081c997ba" y="401.910937"/>
      </g>
     </g>
     <g id="text_4">
      <!-- Brookline - Edith C Baker -->
      <defs>
       <path d="M 64.40625 67.28125 
L 64.40625 56.890625 
Q 59.421875 61.53125 53.78125 63.8125 
Q 48.140625 66.109375 41.796875 66.109375 
Q 29.296875 66.109375 22.65625 58.46875 
Q 16.015625 50.828125 16.015625 36.375 
Q 16.015625 21.96875 22.65625 14.328125 
Q 29.296875 6.6875 41.796875 6.6875 
Q 48.140625 6.6875 53.78125 8.984375 
Q 59.421875 11.28125 64.40625 15.921875 
L 64.40625 5.609375 
Q 59.234375 2.09375 53.4375 0.328125 
Q 47.65625 -1.421875 41.21875 -1.421875 
Q 24.65625 -1.421875 15.125 8.703125 
Q 5.609375 18.84375 5.609375 36.375 
Q 5.609375 53.953125 15.125 64.078125 
Q 24.65625 74.21875 41.21875 74.21875 
Q 47.75 74.21875 53.53125 72.484375 
Q 59.328125 70.75 64.40625 67.28125 
z
" id="DejaVuSans-43"/>
      </defs>
      <g transform="translate(230.210417 534)rotate(-90)scale(0.1 -0.1)">
       <use xlink:href="#DejaVuSans-42"/>
       <use x="68.603516" xlink:href="#DejaVuSans-72"/>
       <use x="109.685547" xlink:href="#DejaVuSans-6f"/>
       <use x="170.867188" xlink:href="#DejaVuSans-6f"/>
       <use x="232.048828" xlink:href="#DejaVuSans-6b"/>
       <use x="289.958984" xlink:href="#DejaVuSans-6c"/>
       <use x="317.742188" xlink:href="#DejaVuSans-69"/>
       <use x="345.525391" xlink:href="#DejaVuSans-6e"/>
       <use x="408.904297" xlink:href="#DejaVuSans-65"/>
       <use x="470.427734" xlink:href="#DejaVuSans-20"/>
       <use x="502.214844" xlink:href="#DejaVuSans-2d"/>
       <use x="538.298828" xlink:href="#DejaVuSans-20"/>
       <use x="570.085938" xlink:href="#DejaVuSans-45"/>
       <use x="633.269531" xlink:href="#DejaVuSans-64"/>
       <use x="696.746094" xlink:href="#DejaVuSans-69"/>
       <use x="724.529297" xlink:href="#DejaVuSans-74"/>
       <use x="763.738281" xlink:href="#DejaVuSans-68"/>
       <use x="827.117188" xlink:href="#DejaVuSans-20"/>
       <use x="858.904297" xlink:href="#DejaVuSans-43"/>
       <use x="928.728516" xlink:href="#DejaVuSans-20"/>
       <use x="960.515625" xlink:href="#DejaVuSans-42"/>
       <use x="1029.119141" xlink:href="#DejaVuSans-61"/>
       <use x="1090.398438" xlink:href="#DejaVuSans-6b"/>
       <use x="1148.261719" xlink:href="#DejaVuSans-65"/>
       <use x="1209.785156" xlink:href="#DejaVuSans-72"/>
      </g>
     </g>
    </g>
    <g id="xtick_5">
     <g id="line2d_5">
      <g>
       <use style="stroke:#000000;stroke-width:0.8;" x="283.715625" xlink:href="#m3081c997ba" y="401.910937"/>
      </g>
     </g>
     <g id="text_5">
      <!-- Brookline - Edward Devotion -->
      <defs>
       <path d="M 4.203125 54.6875 
L 13.1875 54.6875 
L 24.421875 12.015625 
L 35.59375 54.6875 
L 46.1875 54.6875 
L 57.421875 12.015625 
L 68.609375 54.6875 
L 77.59375 54.6875 
L 63.28125 0 
L 52.6875 0 
L 40.921875 44.828125 
L 29.109375 0 
L 18.5 0 
z
" id="DejaVuSans-77"/>
       <path d="M 19.671875 64.796875 
L 19.671875 8.109375 
L 31.59375 8.109375 
Q 46.6875 8.109375 53.6875 14.9375 
Q 60.6875 21.78125 60.6875 36.53125 
Q 60.6875 51.171875 53.6875 57.984375 
Q 46.6875 64.796875 31.59375 64.796875 
z
M 9.8125 72.90625 
L 30.078125 72.90625 
Q 51.265625 72.90625 61.171875 64.09375 
Q 71.09375 55.28125 71.09375 36.53125 
Q 71.09375 17.671875 61.125 8.828125 
Q 51.171875 0 30.078125 0 
L 9.8125 0 
z
" id="DejaVuSans-44"/>
       <path d="M 2.984375 54.6875 
L 12.5 54.6875 
L 29.59375 8.796875 
L 46.6875 54.6875 
L 56.203125 54.6875 
L 35.6875 0 
L 23.484375 0 
z
" id="DejaVuSans-76"/>
      </defs>
      <g transform="translate(286.475 551.573437)rotate(-90)scale(0.1 -0.1)">
       <use xlink:href="#DejaVuSans-42"/>
       <use x="68.603516" xlink:href="#DejaVuSans-72"/>
       <use x="109.685547" xlink:href="#DejaVuSans-6f"/>
       <use x="170.867188" xlink:href="#DejaVuSans-6f"/>
       <use x="232.048828" xlink:href="#DejaVuSans-6b"/>
       <use x="289.958984" xlink:href="#DejaVuSans-6c"/>
       <use x="317.742188" xlink:href="#DejaVuSans-69"/>
       <use x="345.525391" xlink:href="#DejaVuSans-6e"/>
       <use x="408.904297" xlink:href="#DejaVuSans-65"/>
       <use x="470.427734" xlink:href="#DejaVuSans-20"/>
       <use x="502.214844" xlink:href="#DejaVuSans-2d"/>
       <use x="538.298828" xlink:href="#DejaVuSans-20"/>
       <use x="570.085938" xlink:href="#DejaVuSans-45"/>
       <use x="633.269531" xlink:href="#DejaVuSans-64"/>
       <use x="696.746094" xlink:href="#DejaVuSans-77"/>
       <use x="778.533203" xlink:href="#DejaVuSans-61"/>
       <use x="839.8125" xlink:href="#DejaVuSans-72"/>
       <use x="880.910156" xlink:href="#DejaVuSans-64"/>
       <use x="944.386719" xlink:href="#DejaVuSans-20"/>
       <use x="976.173828" xlink:href="#DejaVuSans-44"/>
       <use x="1053.175781" xlink:href="#DejaVuSans-65"/>
       <use x="1114.699219" xlink:href="#DejaVuSans-76"/>
       <use x="1173.878906" xlink:href="#DejaVuSans-6f"/>
       <use x="1235.060547" xlink:href="#DejaVuSans-74"/>
       <use x="1274.269531" xlink:href="#DejaVuSans-69"/>
       <use x="1302.052734" xlink:href="#DejaVuSans-6f"/>
       <use x="1363.234375" xlink:href="#DejaVuSans-6e"/>
      </g>
     </g>
    </g>
    <g id="xtick_6">
     <g id="line2d_6">
      <g>
       <use style="stroke:#000000;stroke-width:0.8;" x="339.980208" xlink:href="#m3081c997ba" y="401.910937"/>
      </g>
     </g>
     <g id="text_6">
      <!-- Brookline - Heath -->
      <g transform="translate(342.739583 495.978125)rotate(-90)scale(0.1 -0.1)">
       <use xlink:href="#DejaVuSans-42"/>
       <use x="68.603516" xlink:href="#DejaVuSans-72"/>
       <use x="109.685547" xlink:href="#DejaVuSans-6f"/>
       <use x="170.867188" xlink:href="#DejaVuSans-6f"/>
       <use x="232.048828" xlink:href="#DejaVuSans-6b"/>
       <use x="289.958984" xlink:href="#DejaVuSans-6c"/>
       <use x="317.742188" xlink:href="#DejaVuSans-69"/>
       <use x="345.525391" xlink:href="#DejaVuSans-6e"/>
       <use x="408.904297" xlink:href="#DejaVuSans-65"/>
       <use x="470.427734" xlink:href="#DejaVuSans-20"/>
       <use x="502.214844" xlink:href="#DejaVuSans-2d"/>
       <use x="538.298828" xlink:href="#DejaVuSans-20"/>
       <use x="570.085938" xlink:href="#DejaVuSans-48"/>
       <use x="645.28125" xlink:href="#DejaVuSans-65"/>
       <use x="706.804688" xlink:href="#DejaVuSans-61"/>
       <use x="768.083984" xlink:href="#DejaVuSans-74"/>
       <use x="807.292969" xlink:href="#DejaVuSans-68"/>
      </g>
     </g>
    </g>
    <g id="xtick_7">
     <g id="line2d_7">
      <g>
       <use style="stroke:#000000;stroke-width:0.8;" x="396.244792" xlink:href="#m3081c997ba" y="401.910937"/>
      </g>
     </g>
     <g id="text_7">
      <!-- Brookline - John D Runkle -->
      <defs>
       <path d="M 9.8125 72.90625 
L 19.671875 72.90625 
L 19.671875 5.078125 
Q 19.671875 -8.109375 14.671875 -14.0625 
Q 9.671875 -20.015625 -1.421875 -20.015625 
L -5.171875 -20.015625 
L -5.171875 -11.71875 
L -2.09375 -11.71875 
Q 4.4375 -11.71875 7.125 -8.046875 
Q 9.8125 -4.390625 9.8125 5.078125 
z
" id="DejaVuSans-4a"/>
       <path d="M 44.390625 34.1875 
Q 47.5625 33.109375 50.5625 29.59375 
Q 53.5625 26.078125 56.59375 19.921875 
L 66.609375 0 
L 56 0 
L 46.6875 18.703125 
Q 43.0625 26.03125 39.671875 28.421875 
Q 36.28125 30.8125 30.421875 30.8125 
L 19.671875 30.8125 
L 19.671875 0 
L 9.8125 0 
L 9.8125 72.90625 
L 32.078125 72.90625 
Q 44.578125 72.90625 50.734375 67.671875 
Q 56.890625 62.453125 56.890625 51.90625 
Q 56.890625 45.015625 53.6875 40.46875 
Q 50.484375 35.9375 44.390625 34.1875 
z
M 19.671875 64.796875 
L 19.671875 38.921875 
L 32.078125 38.921875 
Q 39.203125 38.921875 42.84375 42.21875 
Q 46.484375 45.515625 46.484375 51.90625 
Q 46.484375 58.296875 42.84375 61.546875 
Q 39.203125 64.796875 32.078125 64.796875 
z
" id="DejaVuSans-52"/>
      </defs>
      <g transform="translate(399.004167 536.057812)rotate(-90)scale(0.1 -0.1)">
       <use xlink:href="#DejaVuSans-42"/>
       <use x="68.603516" xlink:href="#DejaVuSans-72"/>
       <use x="109.685547" xlink:href="#DejaVuSans-6f"/>
       <use x="170.867188" xlink:href="#DejaVuSans-6f"/>
       <use x="232.048828" xlink:href="#DejaVuSans-6b"/>
       <use x="289.958984" xlink:href="#DejaVuSans-6c"/>
       <use x="317.742188" xlink:href="#DejaVuSans-69"/>
       <use x="345.525391" xlink:href="#DejaVuSans-6e"/>
       <use x="408.904297" xlink:href="#DejaVuSans-65"/>
       <use x="470.427734" xlink:href="#DejaVuSans-20"/>
       <use x="502.214844" xlink:href="#DejaVuSans-2d"/>
       <use x="538.298828" xlink:href="#DejaVuSans-20"/>
       <use x="570.085938" xlink:href="#DejaVuSans-4a"/>
       <use x="599.578125" xlink:href="#DejaVuSans-6f"/>
       <use x="660.759766" xlink:href="#DejaVuSans-68"/>
       <use x="724.138672" xlink:href="#DejaVuSans-6e"/>
       <use x="787.517578" xlink:href="#DejaVuSans-20"/>
       <use x="819.304688" xlink:href="#DejaVuSans-44"/>
       <use x="896.306641" xlink:href="#DejaVuSans-20"/>
       <use x="928.09375" xlink:href="#DejaVuSans-52"/>
       <use x="997.513672" xlink:href="#DejaVuSans-75"/>
       <use x="1060.892578" xlink:href="#DejaVuSans-6e"/>
       <use x="1124.271484" xlink:href="#DejaVuSans-6b"/>
       <use x="1182.181641" xlink:href="#DejaVuSans-6c"/>
       <use x="1209.964844" xlink:href="#DejaVuSans-65"/>
      </g>
     </g>
    </g>
    <g id="xtick_8">
     <g id="line2d_8">
      <g>
       <use style="stroke:#000000;stroke-width:0.8;" x="452.509375" xlink:href="#m3081c997ba" y="401.910937"/>
      </g>
     </g>
     <g id="text_8">
      <!-- Brookline - Lawrence -->
      <defs>
       <path d="M 9.8125 72.90625 
L 19.671875 72.90625 
L 19.671875 8.296875 
L 55.171875 8.296875 
L 55.171875 0 
L 9.8125 0 
z
" id="DejaVuSans-4c"/>
      </defs>
      <g transform="translate(455.26875 514.046875)rotate(-90)scale(0.1 -0.1)">
       <use xlink:href="#DejaVuSans-42"/>
       <use x="68.603516" xlink:href="#DejaVuSans-72"/>
       <use x="109.685547" xlink:href="#DejaVuSans-6f"/>
       <use x="170.867188" xlink:href="#DejaVuSans-6f"/>
       <use x="232.048828" xlink:href="#DejaVuSans-6b"/>
       <use x="289.958984" xlink:href="#DejaVuSans-6c"/>
       <use x="317.742188" xlink:href="#DejaVuSans-69"/>
       <use x="345.525391" xlink:href="#DejaVuSans-6e"/>
       <use x="408.904297" xlink:href="#DejaVuSans-65"/>
       <use x="470.427734" xlink:href="#DejaVuSans-20"/>
       <use x="502.214844" xlink:href="#DejaVuSans-2d"/>
       <use x="538.298828" xlink:href="#DejaVuSans-20"/>
       <use x="570.085938" xlink:href="#DejaVuSans-4c"/>
       <use x="625.798828" xlink:href="#DejaVuSans-61"/>
       <use x="687.078125" xlink:href="#DejaVuSans-77"/>
       <use x="768.865234" xlink:href="#DejaVuSans-72"/>
       <use x="809.947266" xlink:href="#DejaVuSans-65"/>
       <use x="871.470703" xlink:href="#DejaVuSans-6e"/>
       <use x="934.849609" xlink:href="#DejaVuSans-63"/>
       <use x="989.830078" xlink:href="#DejaVuSans-65"/>
      </g>
     </g>
    </g>
    <g id="xtick_9">
     <g id="line2d_9">
      <g>
       <use style="stroke:#000000;stroke-width:0.8;" x="508.773958" xlink:href="#m3081c997ba" y="401.910937"/>
      </g>
     </g>
     <g id="text_9">
      <!-- Brookline - Michael Driscoll -->
      <defs>
       <path d="M 9.8125 72.90625 
L 24.515625 72.90625 
L 43.109375 23.296875 
L 61.8125 72.90625 
L 76.515625 72.90625 
L 76.515625 0 
L 66.890625 0 
L 66.890625 64.015625 
L 48.09375 14.015625 
L 38.1875 14.015625 
L 19.390625 64.015625 
L 19.390625 0 
L 9.8125 0 
z
" id="DejaVuSans-4d"/>
       <path d="M 44.28125 53.078125 
L 44.28125 44.578125 
Q 40.484375 46.53125 36.375 47.5 
Q 32.28125 48.484375 27.875 48.484375 
Q 21.1875 48.484375 17.84375 46.4375 
Q 14.5 44.390625 14.5 40.28125 
Q 14.5 37.15625 16.890625 35.375 
Q 19.28125 33.59375 26.515625 31.984375 
L 29.59375 31.296875 
Q 39.15625 29.25 43.1875 25.515625 
Q 47.21875 21.78125 47.21875 15.09375 
Q 47.21875 7.46875 41.1875 3.015625 
Q 35.15625 -1.421875 24.609375 -1.421875 
Q 20.21875 -1.421875 15.453125 -0.5625 
Q 10.6875 0.296875 5.421875 2 
L 5.421875 11.28125 
Q 10.40625 8.6875 15.234375 7.390625 
Q 20.0625 6.109375 24.8125 6.109375 
Q 31.15625 6.109375 34.5625 8.28125 
Q 37.984375 10.453125 37.984375 14.40625 
Q 37.984375 18.0625 35.515625 20.015625 
Q 33.0625 21.96875 24.703125 23.78125 
L 21.578125 24.515625 
Q 13.234375 26.265625 9.515625 29.90625 
Q 5.8125 33.546875 5.8125 39.890625 
Q 5.8125 47.609375 11.28125 51.796875 
Q 16.75 56 26.8125 56 
Q 31.78125 56 36.171875 55.265625 
Q 40.578125 54.546875 44.28125 53.078125 
z
" id="DejaVuSans-73"/>
      </defs>
      <g transform="translate(511.533333 544.370312)rotate(-90)scale(0.1 -0.1)">
       <use xlink:href="#DejaVuSans-42"/>
       <use x="68.603516" xlink:href="#DejaVuSans-72"/>
       <use x="109.685547" xlink:href="#DejaVuSans-6f"/>
       <use x="170.867188" xlink:href="#DejaVuSans-6f"/>
       <use x="232.048828" xlink:href="#DejaVuSans-6b"/>
       <use x="289.958984" xlink:href="#DejaVuSans-6c"/>
       <use x="317.742188" xlink:href="#DejaVuSans-69"/>
       <use x="345.525391" xlink:href="#DejaVuSans-6e"/>
       <use x="408.904297" xlink:href="#DejaVuSans-65"/>
       <use x="470.427734" xlink:href="#DejaVuSans-20"/>
       <use x="502.214844" xlink:href="#DejaVuSans-2d"/>
       <use x="538.298828" xlink:href="#DejaVuSans-20"/>
       <use x="570.085938" xlink:href="#DejaVuSans-4d"/>
       <use x="656.365234" xlink:href="#DejaVuSans-69"/>
       <use x="684.148438" xlink:href="#DejaVuSans-63"/>
       <use x="739.128906" xlink:href="#DejaVuSans-68"/>
       <use x="802.507812" xlink:href="#DejaVuSans-61"/>
       <use x="863.787109" xlink:href="#DejaVuSans-65"/>
       <use x="925.310547" xlink:href="#DejaVuSans-6c"/>
       <use x="953.09375" xlink:href="#DejaVuSans-20"/>
       <use x="984.880859" xlink:href="#DejaVuSans-44"/>
       <use x="1061.882812" xlink:href="#DejaVuSans-72"/>
       <use x="1102.996094" xlink:href="#DejaVuSans-69"/>
       <use x="1130.779297" xlink:href="#DejaVuSans-73"/>
       <use x="1182.878906" xlink:href="#DejaVuSans-63"/>
       <use x="1237.859375" xlink:href="#DejaVuSans-6f"/>
       <use x="1299.041016" xlink:href="#DejaVuSans-6c"/>
       <use x="1326.824219" xlink:href="#DejaVuSans-6c"/>
      </g>
     </g>
    </g>
    <g id="xtick_10">
     <g id="line2d_10">
      <g>
       <use style="stroke:#000000;stroke-width:0.8;" x="565.038542" xlink:href="#m3081c997ba" y="401.910937"/>
      </g>
     </g>
     <g id="text_10">
      <!-- Brookline - Pierce -->
      <g transform="translate(567.797917 496.635938)rotate(-90)scale(0.1 -0.1)">
       <use xlink:href="#DejaVuSans-42"/>
       <use x="68.603516" xlink:href="#DejaVuSans-72"/>
       <use x="109.685547" xlink:href="#DejaVuSans-6f"/>
       <use x="170.867188" xlink:href="#DejaVuSans-6f"/>
       <use x="232.048828" xlink:href="#DejaVuSans-6b"/>
       <use x="289.958984" xlink:href="#DejaVuSans-6c"/>
       <use x="317.742188" xlink:href="#DejaVuSans-69"/>
       <use x="345.525391" xlink:href="#DejaVuSans-6e"/>
       <use x="408.904297" xlink:href="#DejaVuSans-65"/>
       <use x="470.427734" xlink:href="#DejaVuSans-20"/>
       <use x="502.214844" xlink:href="#DejaVuSans-2d"/>
       <use x="538.298828" xlink:href="#DejaVuSans-20"/>
       <use x="570.085938" xlink:href="#DejaVuSans-50"/>
       <use x="630.357422" xlink:href="#DejaVuSans-69"/>
       <use x="658.140625" xlink:href="#DejaVuSans-65"/>
       <use x="719.664062" xlink:href="#DejaVuSans-72"/>
       <use x="760.746094" xlink:href="#DejaVuSans-63"/>
       <use x="815.726562" xlink:href="#DejaVuSans-65"/>
      </g>
     </g>
    </g>
    <g id="xtick_11">
     <g id="line2d_11">
      <g>
       <use style="stroke:#000000;stroke-width:0.8;" x="621.303125" xlink:href="#m3081c997ba" y="401.910937"/>
      </g>
     </g>
     <g id="text_11">
      <!-- Brookline - The Lynch Center -->
      <defs>
       <path d="M -0.296875 72.90625 
L 61.375 72.90625 
L 61.375 64.59375 
L 35.5 64.59375 
L 35.5 0 
L 25.59375 0 
L 25.59375 64.59375 
L -0.296875 64.59375 
z
" id="DejaVuSans-54"/>
      </defs>
      <g transform="translate(624.0625 554.18125)rotate(-90)scale(0.1 -0.1)">
       <use xlink:href="#DejaVuSans-42"/>
       <use x="68.603516" xlink:href="#DejaVuSans-72"/>
       <use x="109.685547" xlink:href="#DejaVuSans-6f"/>
       <use x="170.867188" xlink:href="#DejaVuSans-6f"/>
       <use x="232.048828" xlink:href="#DejaVuSans-6b"/>
       <use x="289.958984" xlink:href="#DejaVuSans-6c"/>
       <use x="317.742188" xlink:href="#DejaVuSans-69"/>
       <use x="345.525391" xlink:href="#DejaVuSans-6e"/>
       <use x="408.904297" xlink:href="#DejaVuSans-65"/>
       <use x="470.427734" xlink:href="#DejaVuSans-20"/>
       <use x="502.214844" xlink:href="#DejaVuSans-2d"/>
       <use x="538.298828" xlink:href="#DejaVuSans-20"/>
       <use x="570.085938" xlink:href="#DejaVuSans-54"/>
       <use x="631.169922" xlink:href="#DejaVuSans-68"/>
       <use x="694.548828" xlink:href="#DejaVuSans-65"/>
       <use x="756.072266" xlink:href="#DejaVuSans-20"/>
       <use x="787.859375" xlink:href="#DejaVuSans-4c"/>
       <use x="843.431641" xlink:href="#DejaVuSans-79"/>
       <use x="902.611328" xlink:href="#DejaVuSans-6e"/>
       <use x="965.990234" xlink:href="#DejaVuSans-63"/>
       <use x="1020.970703" xlink:href="#DejaVuSans-68"/>
       <use x="1084.349609" xlink:href="#DejaVuSans-20"/>
       <use x="1116.136719" xlink:href="#DejaVuSans-43"/>
       <use x="1185.960938" xlink:href="#DejaVuSans-65"/>
       <use x="1247.484375" xlink:href="#DejaVuSans-6e"/>
       <use x="1310.863281" xlink:href="#DejaVuSans-74"/>
       <use x="1350.072266" xlink:href="#DejaVuSans-65"/>
       <use x="1411.595703" xlink:href="#DejaVuSans-72"/>
      </g>
     </g>
    </g>
    <g id="xtick_12">
     <g id="line2d_12">
      <g>
       <use style="stroke:#000000;stroke-width:0.8;" x="677.567708" xlink:href="#m3081c997ba" y="401.910937"/>
      </g>
     </g>
     <g id="text_12">
      <!-- Brookline - William H Lincoln -->
      <defs>
       <path d="M 3.328125 72.90625 
L 13.28125 72.90625 
L 28.609375 11.28125 
L 43.890625 72.90625 
L 54.984375 72.90625 
L 70.3125 11.28125 
L 85.59375 72.90625 
L 95.609375 72.90625 
L 77.296875 0 
L 64.890625 0 
L 49.515625 63.28125 
L 33.984375 0 
L 21.578125 0 
z
" id="DejaVuSans-57"/>
      </defs>
      <g transform="translate(680.327083 552.08125)rotate(-90)scale(0.1 -0.1)">
       <use xlink:href="#DejaVuSans-42"/>
       <use x="68.603516" xlink:href="#DejaVuSans-72"/>
       <use x="109.685547" xlink:href="#DejaVuSans-6f"/>
       <use x="170.867188" xlink:href="#DejaVuSans-6f"/>
       <use x="232.048828" xlink:href="#DejaVuSans-6b"/>
       <use x="289.958984" xlink:href="#DejaVuSans-6c"/>
       <use x="317.742188" xlink:href="#DejaVuSans-69"/>
       <use x="345.525391" xlink:href="#DejaVuSans-6e"/>
       <use x="408.904297" xlink:href="#DejaVuSans-65"/>
       <use x="470.427734" xlink:href="#DejaVuSans-20"/>
       <use x="502.214844" xlink:href="#DejaVuSans-2d"/>
       <use x="538.298828" xlink:href="#DejaVuSans-20"/>
       <use x="570.085938" xlink:href="#DejaVuSans-57"/>
       <use x="668.931641" xlink:href="#DejaVuSans-69"/>
       <use x="696.714844" xlink:href="#DejaVuSans-6c"/>
       <use x="724.498047" xlink:href="#DejaVuSans-6c"/>
       <use x="752.28125" xlink:href="#DejaVuSans-69"/>
       <use x="780.064453" xlink:href="#DejaVuSans-61"/>
       <use x="841.34375" xlink:href="#DejaVuSans-6d"/>
       <use x="938.755859" xlink:href="#DejaVuSans-20"/>
       <use x="970.542969" xlink:href="#DejaVuSans-48"/>
       <use x="1045.738281" xlink:href="#DejaVuSans-20"/>
       <use x="1077.525391" xlink:href="#DejaVuSans-4c"/>
       <use x="1133.238281" xlink:href="#DejaVuSans-69"/>
       <use x="1161.021484" xlink:href="#DejaVuSans-6e"/>
       <use x="1224.400391" xlink:href="#DejaVuSans-63"/>
       <use x="1279.380859" xlink:href="#DejaVuSans-6f"/>
       <use x="1340.5625" xlink:href="#DejaVuSans-6c"/>
       <use x="1368.345703" xlink:href="#DejaVuSans-6e"/>
      </g>
     </g>
    </g>
   </g>
   <g id="matplotlib.axis_2">
    <g id="ytick_1">
     <g id="line2d_13">
      <defs>
       <path d="M 0 0 
L -3.5 0 
" id="mdb0fa336f8" style="stroke:#000000;stroke-width:0.8;"/>
      </defs>
      <g>
       <use style="stroke:#000000;stroke-width:0.8;" x="30.525" xlink:href="#mdb0fa336f8" y="401.910937"/>
      </g>
     </g>
     <g id="text_13">
      <!-- 0 -->
      <defs>
       <path d="M 31.78125 66.40625 
Q 24.171875 66.40625 20.328125 58.90625 
Q 16.5 51.421875 16.5 36.375 
Q 16.5 21.390625 20.328125 13.890625 
Q 24.171875 6.390625 31.78125 6.390625 
Q 39.453125 6.390625 43.28125 13.890625 
Q 47.125 21.390625 47.125 36.375 
Q 47.125 51.421875 43.28125 58.90625 
Q 39.453125 66.40625 31.78125 66.40625 
z
M 31.78125 74.21875 
Q 44.046875 74.21875 50.515625 64.515625 
Q 56.984375 54.828125 56.984375 36.375 
Q 56.984375 17.96875 50.515625 8.265625 
Q 44.046875 -1.421875 31.78125 -1.421875 
Q 19.53125 -1.421875 13.0625 8.265625 
Q 6.59375 17.96875 6.59375 36.375 
Q 6.59375 54.828125 13.0625 64.515625 
Q 19.53125 74.21875 31.78125 74.21875 
z
" id="DejaVuSans-30"/>
      </defs>
      <g transform="translate(17.1625 405.710156)scale(0.1 -0.1)">
       <use xlink:href="#DejaVuSans-30"/>
      </g>
     </g>
    </g>
    <g id="ytick_2">
     <g id="line2d_14">
      <g>
       <use style="stroke:#000000;stroke-width:0.8;" x="30.525" xlink:href="#mdb0fa336f8" y="322.437682"/>
      </g>
     </g>
     <g id="text_14">
      <!-- 20 -->
      <defs>
       <path d="M 19.1875 8.296875 
L 53.609375 8.296875 
L 53.609375 0 
L 7.328125 0 
L 7.328125 8.296875 
Q 12.9375 14.109375 22.625 23.890625 
Q 32.328125 33.6875 34.8125 36.53125 
Q 39.546875 41.84375 41.421875 45.53125 
Q 43.3125 49.21875 43.3125 52.78125 
Q 43.3125 58.59375 39.234375 62.25 
Q 35.15625 65.921875 28.609375 65.921875 
Q 23.96875 65.921875 18.8125 64.3125 
Q 13.671875 62.703125 7.8125 59.421875 
L 7.8125 69.390625 
Q 13.765625 71.78125 18.9375 73 
Q 24.125 74.21875 28.421875 74.21875 
Q 39.75 74.21875 46.484375 68.546875 
Q 53.21875 62.890625 53.21875 53.421875 
Q 53.21875 48.921875 51.53125 44.890625 
Q 49.859375 40.875 45.40625 35.40625 
Q 44.1875 33.984375 37.640625 27.21875 
Q 31.109375 20.453125 19.1875 8.296875 
z
" id="DejaVuSans-32"/>
      </defs>
      <g transform="translate(10.8 326.2369)scale(0.1 -0.1)">
       <use xlink:href="#DejaVuSans-32"/>
       <use x="63.623047" xlink:href="#DejaVuSans-30"/>
      </g>
     </g>
    </g>
    <g id="ytick_3">
     <g id="line2d_15">
      <g>
       <use style="stroke:#000000;stroke-width:0.8;" x="30.525" xlink:href="#mdb0fa336f8" y="242.964426"/>
      </g>
     </g>
     <g id="text_15">
      <!-- 40 -->
      <defs>
       <path d="M 37.796875 64.3125 
L 12.890625 25.390625 
L 37.796875 25.390625 
z
M 35.203125 72.90625 
L 47.609375 72.90625 
L 47.609375 25.390625 
L 58.015625 25.390625 
L 58.015625 17.1875 
L 47.609375 17.1875 
L 47.609375 0 
L 37.796875 0 
L 37.796875 17.1875 
L 4.890625 17.1875 
L 4.890625 26.703125 
z
" id="DejaVuSans-34"/>
      </defs>
      <g transform="translate(10.8 246.763644)scale(0.1 -0.1)">
       <use xlink:href="#DejaVuSans-34"/>
       <use x="63.623047" xlink:href="#DejaVuSans-30"/>
      </g>
     </g>
    </g>
    <g id="ytick_4">
     <g id="line2d_16">
      <g>
       <use style="stroke:#000000;stroke-width:0.8;" x="30.525" xlink:href="#mdb0fa336f8" y="163.49117"/>
      </g>
     </g>
     <g id="text_16">
      <!-- 60 -->
      <defs>
       <path d="M 33.015625 40.375 
Q 26.375 40.375 22.484375 35.828125 
Q 18.609375 31.296875 18.609375 23.390625 
Q 18.609375 15.53125 22.484375 10.953125 
Q 26.375 6.390625 33.015625 6.390625 
Q 39.65625 6.390625 43.53125 10.953125 
Q 47.40625 15.53125 47.40625 23.390625 
Q 47.40625 31.296875 43.53125 35.828125 
Q 39.65625 40.375 33.015625 40.375 
z
M 52.59375 71.296875 
L 52.59375 62.3125 
Q 48.875 64.0625 45.09375 64.984375 
Q 41.3125 65.921875 37.59375 65.921875 
Q 27.828125 65.921875 22.671875 59.328125 
Q 17.53125 52.734375 16.796875 39.40625 
Q 19.671875 43.65625 24.015625 45.921875 
Q 28.375 48.1875 33.59375 48.1875 
Q 44.578125 48.1875 50.953125 41.515625 
Q 57.328125 34.859375 57.328125 23.390625 
Q 57.328125 12.15625 50.6875 5.359375 
Q 44.046875 -1.421875 33.015625 -1.421875 
Q 20.359375 -1.421875 13.671875 8.265625 
Q 6.984375 17.96875 6.984375 36.375 
Q 6.984375 53.65625 15.1875 63.9375 
Q 23.390625 74.21875 37.203125 74.21875 
Q 40.921875 74.21875 44.703125 73.484375 
Q 48.484375 72.75 52.59375 71.296875 
z
" id="DejaVuSans-36"/>
      </defs>
      <g transform="translate(10.8 167.290388)scale(0.1 -0.1)">
       <use xlink:href="#DejaVuSans-36"/>
       <use x="63.623047" xlink:href="#DejaVuSans-30"/>
      </g>
     </g>
    </g>
    <g id="ytick_5">
     <g id="line2d_17">
      <g>
       <use style="stroke:#000000;stroke-width:0.8;" x="30.525" xlink:href="#mdb0fa336f8" y="84.017914"/>
      </g>
     </g>
     <g id="text_17">
      <!-- 80 -->
      <defs>
       <path d="M 31.78125 34.625 
Q 24.75 34.625 20.71875 30.859375 
Q 16.703125 27.09375 16.703125 20.515625 
Q 16.703125 13.921875 20.71875 10.15625 
Q 24.75 6.390625 31.78125 6.390625 
Q 38.8125 6.390625 42.859375 10.171875 
Q 46.921875 13.96875 46.921875 20.515625 
Q 46.921875 27.09375 42.890625 30.859375 
Q 38.875 34.625 31.78125 34.625 
z
M 21.921875 38.8125 
Q 15.578125 40.375 12.03125 44.71875 
Q 8.5 49.078125 8.5 55.328125 
Q 8.5 64.0625 14.71875 69.140625 
Q 20.953125 74.21875 31.78125 74.21875 
Q 42.671875 74.21875 48.875 69.140625 
Q 55.078125 64.0625 55.078125 55.328125 
Q 55.078125 49.078125 51.53125 44.71875 
Q 48 40.375 41.703125 38.8125 
Q 48.828125 37.15625 52.796875 32.3125 
Q 56.78125 27.484375 56.78125 20.515625 
Q 56.78125 9.90625 50.3125 4.234375 
Q 43.84375 -1.421875 31.78125 -1.421875 
Q 19.734375 -1.421875 13.25 4.234375 
Q 6.78125 9.90625 6.78125 20.515625 
Q 6.78125 27.484375 10.78125 32.3125 
Q 14.796875 37.15625 21.921875 38.8125 
z
M 18.3125 54.390625 
Q 18.3125 48.734375 21.84375 45.5625 
Q 25.390625 42.390625 31.78125 42.390625 
Q 38.140625 42.390625 41.71875 45.5625 
Q 45.3125 48.734375 45.3125 54.390625 
Q 45.3125 60.0625 41.71875 63.234375 
Q 38.140625 66.40625 31.78125 66.40625 
Q 25.390625 66.40625 21.84375 63.234375 
Q 18.3125 60.0625 18.3125 54.390625 
z
" id="DejaVuSans-38"/>
      </defs>
      <g transform="translate(10.8 87.817133)scale(0.1 -0.1)">
       <use xlink:href="#DejaVuSans-38"/>
       <use x="63.623047" xlink:href="#DejaVuSans-30"/>
      </g>
     </g>
    </g>
   </g>
   <g id="patch_51">
    <path d="M 30.525 401.910937 
L 30.525 14.3 
" style="fill:none;stroke:#000000;stroke-linecap:square;stroke-linejoin:miter;stroke-width:0.8;"/>
   </g>
   <g id="patch_52">
    <path d="M 705.7 401.910937 
L 705.7 14.3 
" style="fill:none;stroke:#000000;stroke-linecap:square;stroke-linejoin:miter;stroke-width:0.8;"/>
   </g>
   <g id="patch_53">
    <path d="M 30.525 401.910937 
L 705.7 401.910937 
" style="fill:none;stroke:#000000;stroke-linecap:square;stroke-linejoin:miter;stroke-width:0.8;"/>
   </g>
   <g id="patch_54">
    <path d="M 30.525 14.3 
L 705.7 14.3 
" style="fill:none;stroke:#000000;stroke-linecap:square;stroke-linejoin:miter;stroke-width:0.8;"/>
   </g>
   <g id="legend_1">
    <g id="patch_55">
     <path d="M 583.903125 81.0125 
L 698.7 81.0125 
Q 700.7 81.0125 700.7 79.0125 
L 700.7 21.3 
Q 700.7 19.3 698.7 19.3 
L 583.903125 19.3 
Q 581.903125 19.3 581.903125 21.3 
L 581.903125 79.0125 
Q 581.903125 81.0125 583.903125 81.0125 
z
" style="fill:#ffffff;opacity:0.8;stroke:#cccccc;stroke-linejoin:miter;"/>
    </g>
    <g id="patch_56">
     <path d="M 585.903125 30.898438 
L 605.903125 30.898438 
L 605.903125 23.898438 
L 585.903125 23.898438 
z
" style="fill:#1f77b4;"/>
    </g>
    <g id="text_18">
     <!-- AfricanAmerican -->
     <defs>
      <path d="M 34.1875 63.1875 
L 20.796875 26.90625 
L 47.609375 26.90625 
z
M 28.609375 72.90625 
L 39.796875 72.90625 
L 67.578125 0 
L 57.328125 0 
L 50.6875 18.703125 
L 17.828125 18.703125 
L 11.1875 0 
L 0.78125 0 
z
" id="DejaVuSans-41"/>
      <path d="M 37.109375 75.984375 
L 37.109375 68.5 
L 28.515625 68.5 
Q 23.6875 68.5 21.796875 66.546875 
Q 19.921875 64.59375 19.921875 59.515625 
L 19.921875 54.6875 
L 34.71875 54.6875 
L 34.71875 47.703125 
L 19.921875 47.703125 
L 19.921875 0 
L 10.890625 0 
L 10.890625 47.703125 
L 2.296875 47.703125 
L 2.296875 54.6875 
L 10.890625 54.6875 
L 10.890625 58.5 
Q 10.890625 67.625 15.140625 71.796875 
Q 19.390625 75.984375 28.609375 75.984375 
z
" id="DejaVuSans-66"/>
     </defs>
     <g transform="translate(613.903125 30.898438)scale(0.1 -0.1)">
      <use xlink:href="#DejaVuSans-41"/>
      <use x="68.361328" xlink:href="#DejaVuSans-66"/>
      <use x="103.566406" xlink:href="#DejaVuSans-72"/>
      <use x="144.679688" xlink:href="#DejaVuSans-69"/>
      <use x="172.462891" xlink:href="#DejaVuSans-63"/>
      <use x="227.443359" xlink:href="#DejaVuSans-61"/>
      <use x="288.722656" xlink:href="#DejaVuSans-6e"/>
      <use x="352.101562" xlink:href="#DejaVuSans-41"/>
      <use x="420.509766" xlink:href="#DejaVuSans-6d"/>
      <use x="517.921875" xlink:href="#DejaVuSans-65"/>
      <use x="579.445312" xlink:href="#DejaVuSans-72"/>
      <use x="620.558594" xlink:href="#DejaVuSans-69"/>
      <use x="648.341797" xlink:href="#DejaVuSans-63"/>
      <use x="703.322266" xlink:href="#DejaVuSans-61"/>
      <use x="764.601562" xlink:href="#DejaVuSans-6e"/>
     </g>
    </g>
    <g id="patch_57">
     <path d="M 585.903125 45.576563 
L 605.903125 45.576563 
L 605.903125 38.576563 
L 585.903125 38.576563 
z
" style="fill:#ff7f0e;"/>
    </g>
    <g id="text_19">
     <!-- Asian -->
     <g transform="translate(613.903125 45.576563)scale(0.1 -0.1)">
      <use xlink:href="#DejaVuSans-41"/>
      <use x="68.408203" xlink:href="#DejaVuSans-73"/>
      <use x="120.507812" xlink:href="#DejaVuSans-69"/>
      <use x="148.291016" xlink:href="#DejaVuSans-61"/>
      <use x="209.570312" xlink:href="#DejaVuSans-6e"/>
     </g>
    </g>
    <g id="patch_58">
     <path d="M 585.903125 60.254688 
L 605.903125 60.254688 
L 605.903125 53.254688 
L 585.903125 53.254688 
z
" style="fill:#2ca02c;"/>
    </g>
    <g id="text_20">
     <!-- White -->
     <g transform="translate(613.903125 60.254688)scale(0.1 -0.1)">
      <use xlink:href="#DejaVuSans-57"/>
      <use x="98.876953" xlink:href="#DejaVuSans-68"/>
      <use x="162.255859" xlink:href="#DejaVuSans-69"/>
      <use x="190.039062" xlink:href="#DejaVuSans-74"/>
      <use x="229.248047" xlink:href="#DejaVuSans-65"/>
     </g>
    </g>
    <g id="patch_59">
     <path d="M 585.903125 74.932812 
L 605.903125 74.932812 
L 605.903125 67.932812 
L 585.903125 67.932812 
z
" style="fill:#d62728;"/>
    </g>
    <g id="text_21">
     <!-- Hispanic -->
     <defs>
      <path d="M 18.109375 8.203125 
L 18.109375 -20.796875 
L 9.078125 -20.796875 
L 9.078125 54.6875 
L 18.109375 54.6875 
L 18.109375 46.390625 
Q 20.953125 51.265625 25.265625 53.625 
Q 29.59375 56 35.59375 56 
Q 45.5625 56 51.78125 48.09375 
Q 58.015625 40.1875 58.015625 27.296875 
Q 58.015625 14.40625 51.78125 6.484375 
Q 45.5625 -1.421875 35.59375 -1.421875 
Q 29.59375 -1.421875 25.265625 0.953125 
Q 20.953125 3.328125 18.109375 8.203125 
z
M 48.6875 27.296875 
Q 48.6875 37.203125 44.609375 42.84375 
Q 40.53125 48.484375 33.40625 48.484375 
Q 26.265625 48.484375 22.1875 42.84375 
Q 18.109375 37.203125 18.109375 27.296875 
Q 18.109375 17.390625 22.1875 11.75 
Q 26.265625 6.109375 33.40625 6.109375 
Q 40.53125 6.109375 44.609375 11.75 
Q 48.6875 17.390625 48.6875 27.296875 
z
" id="DejaVuSans-70"/>
     </defs>
     <g transform="translate(613.903125 74.932812)scale(0.1 -0.1)">
      <use xlink:href="#DejaVuSans-48"/>
      <use x="75.195312" xlink:href="#DejaVuSans-69"/>
      <use x="102.978516" xlink:href="#DejaVuSans-73"/>
      <use x="155.078125" xlink:href="#DejaVuSans-70"/>
      <use x="218.554688" xlink:href="#DejaVuSans-61"/>
      <use x="279.833984" xlink:href="#DejaVuSans-6e"/>
      <use x="343.212891" xlink:href="#DejaVuSans-69"/>
      <use x="370.996094" xlink:href="#DejaVuSans-63"/>
     </g>
    </g>
   </g>
  </g>
 </g>
 <defs>
  <clipPath id="p2a66f2d26e">
   <rect height="387.610937" width="675.175" x="30.525" y="14.3"/>
  </clipPath>
 </defs>
</svg>
