<?xml version="1.0" encoding="utf-8" standalone="no"?>
<!DOCTYPE svg PUBLIC "-//W3C//DTD SVG 1.1//EN"
  "http://www.w3.org/Graphics/SVG/1.1/DTD/svg11.dtd">
<!-- Created with matplotlib (http://matplotlib.org/) -->
<svg height="720pt" version="1.1" viewBox="0 0 720 720" width="720pt" xmlns="http://www.w3.org/2000/svg" xmlns:xlink="http://www.w3.org/1999/xlink">
 <defs>
  <style type="text/css">
*{stroke-linecap:butt;stroke-linejoin:round;}
  </style>
 </defs>
 <g id="figure_1">
  <g id="patch_1">
   <path d="M 0 720 
L 720 720 
L 720 0 
L 0 0 
z
" style="fill:#ffffff;"/>
  </g>
  <g id="axes_1">
   <g id="patch_2">
    <path d="M 30.525 445.4875 
L 705.7 445.4875 
L 705.7 14.3 
L 30.525 14.3 
z
" style="fill:#ffffff;"/>
   </g>
   <g id="patch_3">
    <path clip-path="url(#pc70c02dc6b)" d="M 44.591146 445.4875 
L 53.968576 445.4875 
L 53.968576 341.112748 
L 44.591146 341.112748 
z
" style="fill:#1f77b4;"/>
   </g>
   <g id="patch_4">
    <path clip-path="url(#pc70c02dc6b)" d="M 100.855729 445.4875 
L 110.23316 445.4875 
L 110.23316 369.060086 
L 100.855729 369.060086 
z
" style="fill:#1f77b4;"/>
   </g>
   <g id="patch_5">
    <path clip-path="url(#pc70c02dc6b)" d="M 157.120313 445.4875 
L 166.497743 445.4875 
L 166.497743 317.728241 
L 157.120313 317.728241 
z
" style="fill:#1f77b4;"/>
   </g>
   <g id="patch_6">
    <path clip-path="url(#pc70c02dc6b)" d="M 213.384896 445.4875 
L 222.762326 445.4875 
L 222.762326 182.554382 
L 213.384896 182.554382 
z
" style="fill:#1f77b4;"/>
   </g>
   <g id="patch_7">
    <path clip-path="url(#pc70c02dc6b)" d="M 269.649479 445.4875 
L 279.02691 445.4875 
L 279.02691 333.127794 
L 269.649479 333.127794 
z
" style="fill:#1f77b4;"/>
   </g>
   <g id="patch_8">
    <path clip-path="url(#pc70c02dc6b)" d="M 325.914062 445.4875 
L 335.291493 445.4875 
L 335.291493 345.105225 
L 325.914062 345.105225 
z
" style="fill:#1f77b4;"/>
   </g>
   <g id="patch_9">
    <path clip-path="url(#pc70c02dc6b)" d="M 382.178646 445.4875 
L 391.556076 445.4875 
L 391.556076 330.276025 
L 382.178646 330.276025 
z
" style="fill:#1f77b4;"/>
   </g>
   <g id="patch_10">
    <path clip-path="url(#pc70c02dc6b)" d="M 438.443229 445.4875 
L 447.82066 445.4875 
L 447.82066 335.979563 
L 438.443229 335.979563 
z
" style="fill:#1f77b4;"/>
   </g>
   <g id="patch_11">
    <path clip-path="url(#pc70c02dc6b)" d="M 494.707812 445.4875 
L 504.085243 445.4875 
L 504.085243 367.349024 
L 494.707812 367.349024 
z
" style="fill:#1f77b4;"/>
   </g>
   <g id="patch_12">
    <path clip-path="url(#pc70c02dc6b)" d="M 550.972396 445.4875 
L 560.349826 445.4875 
L 560.349826 374.193271 
L 550.972396 374.193271 
z
" style="fill:#1f77b4;"/>
   </g>
   <g id="patch_13">
    <path clip-path="url(#pc70c02dc6b)" d="M 607.236979 445.4875 
L 616.61441 445.4875 
L 616.61441 362.21584 
L 607.236979 362.21584 
z
" style="fill:#1f77b4;"/>
   </g>
   <g id="patch_14">
    <path clip-path="url(#pc70c02dc6b)" d="M 663.501562 445.4875 
L 672.878993 445.4875 
L 672.878993 364.497255 
L 663.501562 364.497255 
z
" style="fill:#1f77b4;"/>
   </g>
   <g id="patch_15">
    <path clip-path="url(#pc70c02dc6b)" d="M 53.968576 445.4875 
L 63.346007 445.4875 
L 63.346007 201.946412 
L 53.968576 201.946412 
z
" style="fill:#ff7f0e;"/>
   </g>
   <g id="patch_16">
    <path clip-path="url(#pc70c02dc6b)" d="M 110.23316 445.4875 
L 119.61059 445.4875 
L 119.61059 216.775612 
L 110.23316 216.775612 
z
" style="fill:#ff7f0e;"/>
   </g>
   <g id="patch_17">
    <path clip-path="url(#pc70c02dc6b)" d="M 166.497743 445.4875 
L 175.875174 445.4875 
L 175.875174 218.486673 
L 166.497743 218.486673 
z
" style="fill:#ff7f0e;"/>
   </g>
   <g id="patch_18">
    <path clip-path="url(#pc70c02dc6b)" d="M 222.762326 445.4875 
L 232.139757 445.4875 
L 232.139757 129.511475 
L 222.762326 129.511475 
z
" style="fill:#ff7f0e;"/>
   </g>
   <g id="patch_19">
    <path clip-path="url(#pc70c02dc6b)" d="M 279.02691 445.4875 
L 288.40434 445.4875 
L 288.40434 223.619858 
L 279.02691 223.619858 
z
" style="fill:#ff7f0e;"/>
   </g>
   <g id="patch_20">
    <path clip-path="url(#pc70c02dc6b)" d="M 335.291493 445.4875 
L 344.668924 445.4875 
L 344.668924 221.908796 
L 335.291493 221.908796 
z
" style="fill:#ff7f0e;"/>
   </g>
   <g id="patch_21">
    <path clip-path="url(#pc70c02dc6b)" d="M 391.556076 445.4875 
L 400.933507 445.4875 
L 400.933507 178.561905 
L 391.556076 178.561905 
z
" style="fill:#ff7f0e;"/>
   </g>
   <g id="patch_22">
    <path clip-path="url(#pc70c02dc6b)" d="M 447.82066 445.4875 
L 457.19809 445.4875 
L 457.19809 232.175165 
L 447.82066 232.175165 
z
" style="fill:#ff7f0e;"/>
   </g>
   <g id="patch_23">
    <path clip-path="url(#pc70c02dc6b)" d="M 504.085243 445.4875 
L 513.462674 445.4875 
L 513.462674 221.338442 
L 504.085243 221.338442 
z
" style="fill:#ff7f0e;"/>
   </g>
   <g id="patch_24">
    <path clip-path="url(#pc70c02dc6b)" d="M 560.349826 445.4875 
L 569.727257 445.4875 
L 569.727257 265.826042 
L 560.349826 265.826042 
z
" style="fill:#ff7f0e;"/>
   </g>
   <g id="patch_25">
    <path clip-path="url(#pc70c02dc6b)" d="M 616.61441 445.4875 
L 625.99184 445.4875 
L 625.99184 244.72295 
L 616.61441 244.72295 
z
" style="fill:#ff7f0e;"/>
   </g>
   <g id="patch_26">
    <path clip-path="url(#pc70c02dc6b)" d="M 672.878993 445.4875 
L 682.256424 445.4875 
L 682.256424 34.832738 
L 672.878993 34.832738 
z
" style="fill:#ff7f0e;"/>
   </g>
   <g id="patch_27">
    <path clip-path="url(#pc70c02dc6b)" d="M 63.346007 445.4875 
L 72.723437 445.4875 
L 72.723437 264.685334 
L 63.346007 264.685334 
z
" style="fill:#2ca02c;"/>
   </g>
   <g id="patch_28">
    <path clip-path="url(#pc70c02dc6b)" d="M 119.61059 445.4875 
L 128.988021 445.4875 
L 128.988021 304.039749 
L 119.61059 304.039749 
z
" style="fill:#2ca02c;"/>
   </g>
   <g id="patch_29">
    <path clip-path="url(#pc70c02dc6b)" d="M 175.875174 445.4875 
L 185.252604 445.4875 
L 185.252604 282.936657 
L 175.875174 282.936657 
z
" style="fill:#2ca02c;"/>
   </g>
   <g id="patch_30">
    <path clip-path="url(#pc70c02dc6b)" d="M 232.139757 445.4875 
L 241.517188 445.4875 
L 241.517188 294.914087 
L 232.139757 294.914087 
z
" style="fill:#2ca02c;"/>
   </g>
   <g id="patch_31">
    <path clip-path="url(#pc70c02dc6b)" d="M 288.40434 445.4875 
L 297.781771 445.4875 
L 297.781771 280.084888 
L 288.40434 280.084888 
z
" style="fill:#2ca02c;"/>
   </g>
   <g id="patch_32">
    <path clip-path="url(#pc70c02dc6b)" d="M 344.668924 445.4875 
L 354.046354 445.4875 
L 354.046354 287.499487 
L 344.668924 287.499487 
z
" style="fill:#2ca02c;"/>
   </g>
   <g id="patch_33">
    <path clip-path="url(#pc70c02dc6b)" d="M 400.933507 445.4875 
L 410.310938 445.4875 
L 410.310938 277.803472 
L 400.933507 277.803472 
z
" style="fill:#2ca02c;"/>
   </g>
   <g id="patch_34">
    <path clip-path="url(#pc70c02dc6b)" d="M 457.19809 445.4875 
L 466.575521 445.4875 
L 466.575521 305.180456 
L 457.19809 305.180456 
z
" style="fill:#2ca02c;"/>
   </g>
   <g id="patch_35">
    <path clip-path="url(#pc70c02dc6b)" d="M 513.462674 445.4875 
L 522.840104 445.4875 
L 522.840104 331.987087 
L 513.462674 331.987087 
z
" style="fill:#2ca02c;"/>
   </g>
   <g id="patch_36">
    <path clip-path="url(#pc70c02dc6b)" d="M 569.727257 445.4875 
L 579.104687 445.4875 
L 579.104687 316.587533 
L 569.727257 316.587533 
z
" style="fill:#2ca02c;"/>
   </g>
   <g id="patch_37">
    <path clip-path="url(#pc70c02dc6b)" d="M 625.99184 445.4875 
L 635.369271 445.4875 
L 635.369271 303.469395 
L 625.99184 303.469395 
z
" style="fill:#2ca02c;"/>
   </g>
   <g id="patch_38">
    <path clip-path="url(#pc70c02dc6b)" d="M 682.256424 445.4875 
L 691.633854 445.4875 
L 691.633854 120.956167 
L 682.256424 120.956167 
z
" style="fill:#2ca02c;"/>
   </g>
   <g id="matplotlib.axis_1">
    <g id="xtick_1">
     <g id="line2d_1">
      <defs>
       <path d="M 0 0 
L 0 3.5 
" id="mf47ed56413" style="stroke:#000000;stroke-width:0.8;"/>
      </defs>
      <g>
       <use style="stroke:#000000;stroke-width:0.8;" x="58.657292" xlink:href="#mf47ed56413" y="445.4875"/>
      </g>
     </g>
     <g id="text_1">
      <!-- Weymouth - Abigail Adams Middle School -->
      <defs>
       <path d="M 3.328125 72.90625 
L 13.28125 72.90625 
L 28.609375 11.28125 
L 43.890625 72.90625 
L 54.984375 72.90625 
L 70.3125 11.28125 
L 85.59375 72.90625 
L 95.609375 72.90625 
L 77.296875 0 
L 64.890625 0 
L 49.515625 63.28125 
L 33.984375 0 
L 21.578125 0 
z
" id="DejaVuSans-57"/>
       <path d="M 56.203125 29.59375 
L 56.203125 25.203125 
L 14.890625 25.203125 
Q 15.484375 15.921875 20.484375 11.0625 
Q 25.484375 6.203125 34.421875 6.203125 
Q 39.59375 6.203125 44.453125 7.46875 
Q 49.3125 8.734375 54.109375 11.28125 
L 54.109375 2.78125 
Q 49.265625 0.734375 44.1875 -0.34375 
Q 39.109375 -1.421875 33.890625 -1.421875 
Q 20.796875 -1.421875 13.15625 6.1875 
Q 5.515625 13.8125 5.515625 26.8125 
Q 5.515625 40.234375 12.765625 48.109375 
Q 20.015625 56 32.328125 56 
Q 43.359375 56 49.78125 48.890625 
Q 56.203125 41.796875 56.203125 29.59375 
z
M 47.21875 32.234375 
Q 47.125 39.59375 43.09375 43.984375 
Q 39.0625 48.390625 32.421875 48.390625 
Q 24.90625 48.390625 20.390625 44.140625 
Q 15.875 39.890625 15.1875 32.171875 
z
" id="DejaVuSans-65"/>
       <path d="M 32.171875 -5.078125 
Q 28.375 -14.84375 24.75 -17.8125 
Q 21.140625 -20.796875 15.09375 -20.796875 
L 7.90625 -20.796875 
L 7.90625 -13.28125 
L 13.1875 -13.28125 
Q 16.890625 -13.28125 18.9375 -11.515625 
Q 21 -9.765625 23.484375 -3.21875 
L 25.09375 0.875 
L 2.984375 54.6875 
L 12.5 54.6875 
L 29.59375 11.921875 
L 46.6875 54.6875 
L 56.203125 54.6875 
z
" id="DejaVuSans-79"/>
       <path d="M 52 44.1875 
Q 55.375 50.25 60.0625 53.125 
Q 64.75 56 71.09375 56 
Q 79.640625 56 84.28125 50.015625 
Q 88.921875 44.046875 88.921875 33.015625 
L 88.921875 0 
L 79.890625 0 
L 79.890625 32.71875 
Q 79.890625 40.578125 77.09375 44.375 
Q 74.3125 48.1875 68.609375 48.1875 
Q 61.625 48.1875 57.5625 43.546875 
Q 53.515625 38.921875 53.515625 30.90625 
L 53.515625 0 
L 44.484375 0 
L 44.484375 32.71875 
Q 44.484375 40.625 41.703125 44.40625 
Q 38.921875 48.1875 33.109375 48.1875 
Q 26.21875 48.1875 22.15625 43.53125 
Q 18.109375 38.875 18.109375 30.90625 
L 18.109375 0 
L 9.078125 0 
L 9.078125 54.6875 
L 18.109375 54.6875 
L 18.109375 46.1875 
Q 21.1875 51.21875 25.484375 53.609375 
Q 29.78125 56 35.6875 56 
Q 41.65625 56 45.828125 52.96875 
Q 50 49.953125 52 44.1875 
z
" id="DejaVuSans-6d"/>
       <path d="M 30.609375 48.390625 
Q 23.390625 48.390625 19.1875 42.75 
Q 14.984375 37.109375 14.984375 27.296875 
Q 14.984375 17.484375 19.15625 11.84375 
Q 23.34375 6.203125 30.609375 6.203125 
Q 37.796875 6.203125 41.984375 11.859375 
Q 46.1875 17.53125 46.1875 27.296875 
Q 46.1875 37.015625 41.984375 42.703125 
Q 37.796875 48.390625 30.609375 48.390625 
z
M 30.609375 56 
Q 42.328125 56 49.015625 48.375 
Q 55.71875 40.765625 55.71875 27.296875 
Q 55.71875 13.875 49.015625 6.21875 
Q 42.328125 -1.421875 30.609375 -1.421875 
Q 18.84375 -1.421875 12.171875 6.21875 
Q 5.515625 13.875 5.515625 27.296875 
Q 5.515625 40.765625 12.171875 48.375 
Q 18.84375 56 30.609375 56 
z
" id="DejaVuSans-6f"/>
       <path d="M 8.5 21.578125 
L 8.5 54.6875 
L 17.484375 54.6875 
L 17.484375 21.921875 
Q 17.484375 14.15625 20.5 10.265625 
Q 23.53125 6.390625 29.59375 6.390625 
Q 36.859375 6.390625 41.078125 11.03125 
Q 45.3125 15.671875 45.3125 23.6875 
L 45.3125 54.6875 
L 54.296875 54.6875 
L 54.296875 0 
L 45.3125 0 
L 45.3125 8.40625 
Q 42.046875 3.421875 37.71875 1 
Q 33.40625 -1.421875 27.6875 -1.421875 
Q 18.265625 -1.421875 13.375 4.4375 
Q 8.5 10.296875 8.5 21.578125 
z
M 31.109375 56 
z
" id="DejaVuSans-75"/>
       <path d="M 18.3125 70.21875 
L 18.3125 54.6875 
L 36.8125 54.6875 
L 36.8125 47.703125 
L 18.3125 47.703125 
L 18.3125 18.015625 
Q 18.3125 11.328125 20.140625 9.421875 
Q 21.96875 7.515625 27.59375 7.515625 
L 36.8125 7.515625 
L 36.8125 0 
L 27.59375 0 
Q 17.1875 0 13.234375 3.875 
Q 9.28125 7.765625 9.28125 18.015625 
L 9.28125 47.703125 
L 2.6875 47.703125 
L 2.6875 54.6875 
L 9.28125 54.6875 
L 9.28125 70.21875 
z
" id="DejaVuSans-74"/>
       <path d="M 54.890625 33.015625 
L 54.890625 0 
L 45.90625 0 
L 45.90625 32.71875 
Q 45.90625 40.484375 42.875 44.328125 
Q 39.84375 48.1875 33.796875 48.1875 
Q 26.515625 48.1875 22.3125 43.546875 
Q 18.109375 38.921875 18.109375 30.90625 
L 18.109375 0 
L 9.078125 0 
L 9.078125 75.984375 
L 18.109375 75.984375 
L 18.109375 46.1875 
Q 21.34375 51.125 25.703125 53.5625 
Q 30.078125 56 35.796875 56 
Q 45.21875 56 50.046875 50.171875 
Q 54.890625 44.34375 54.890625 33.015625 
z
" id="DejaVuSans-68"/>
       <path id="DejaVuSans-20"/>
       <path d="M 4.890625 31.390625 
L 31.203125 31.390625 
L 31.203125 23.390625 
L 4.890625 23.390625 
z
" id="DejaVuSans-2d"/>
       <path d="M 34.1875 63.1875 
L 20.796875 26.90625 
L 47.609375 26.90625 
z
M 28.609375 72.90625 
L 39.796875 72.90625 
L 67.578125 0 
L 57.328125 0 
L 50.6875 18.703125 
L 17.828125 18.703125 
L 11.1875 0 
L 0.78125 0 
z
" id="DejaVuSans-41"/>
       <path d="M 48.6875 27.296875 
Q 48.6875 37.203125 44.609375 42.84375 
Q 40.53125 48.484375 33.40625 48.484375 
Q 26.265625 48.484375 22.1875 42.84375 
Q 18.109375 37.203125 18.109375 27.296875 
Q 18.109375 17.390625 22.1875 11.75 
Q 26.265625 6.109375 33.40625 6.109375 
Q 40.53125 6.109375 44.609375 11.75 
Q 48.6875 17.390625 48.6875 27.296875 
z
M 18.109375 46.390625 
Q 20.953125 51.265625 25.265625 53.625 
Q 29.59375 56 35.59375 56 
Q 45.5625 56 51.78125 48.09375 
Q 58.015625 40.1875 58.015625 27.296875 
Q 58.015625 14.40625 51.78125 6.484375 
Q 45.5625 -1.421875 35.59375 -1.421875 
Q 29.59375 -1.421875 25.265625 0.953125 
Q 20.953125 3.328125 18.109375 8.203125 
L 18.109375 0 
L 9.078125 0 
L 9.078125 75.984375 
L 18.109375 75.984375 
z
" id="DejaVuSans-62"/>
       <path d="M 9.421875 54.6875 
L 18.40625 54.6875 
L 18.40625 0 
L 9.421875 0 
z
M 9.421875 75.984375 
L 18.40625 75.984375 
L 18.40625 64.59375 
L 9.421875 64.59375 
z
" id="DejaVuSans-69"/>
       <path d="M 45.40625 27.984375 
Q 45.40625 37.75 41.375 43.109375 
Q 37.359375 48.484375 30.078125 48.484375 
Q 22.859375 48.484375 18.828125 43.109375 
Q 14.796875 37.75 14.796875 27.984375 
Q 14.796875 18.265625 18.828125 12.890625 
Q 22.859375 7.515625 30.078125 7.515625 
Q 37.359375 7.515625 41.375 12.890625 
Q 45.40625 18.265625 45.40625 27.984375 
z
M 54.390625 6.78125 
Q 54.390625 -7.171875 48.1875 -13.984375 
Q 42 -20.796875 29.203125 -20.796875 
Q 24.46875 -20.796875 20.265625 -20.09375 
Q 16.0625 -19.390625 12.109375 -17.921875 
L 12.109375 -9.1875 
Q 16.0625 -11.328125 19.921875 -12.34375 
Q 23.78125 -13.375 27.78125 -13.375 
Q 36.625 -13.375 41.015625 -8.765625 
Q 45.40625 -4.15625 45.40625 5.171875 
L 45.40625 9.625 
Q 42.625 4.78125 38.28125 2.390625 
Q 33.9375 0 27.875 0 
Q 17.828125 0 11.671875 7.65625 
Q 5.515625 15.328125 5.515625 27.984375 
Q 5.515625 40.671875 11.671875 48.328125 
Q 17.828125 56 27.875 56 
Q 33.9375 56 38.28125 53.609375 
Q 42.625 51.21875 45.40625 46.390625 
L 45.40625 54.6875 
L 54.390625 54.6875 
z
" id="DejaVuSans-67"/>
       <path d="M 34.28125 27.484375 
Q 23.390625 27.484375 19.1875 25 
Q 14.984375 22.515625 14.984375 16.5 
Q 14.984375 11.71875 18.140625 8.90625 
Q 21.296875 6.109375 26.703125 6.109375 
Q 34.1875 6.109375 38.703125 11.40625 
Q 43.21875 16.703125 43.21875 25.484375 
L 43.21875 27.484375 
z
M 52.203125 31.203125 
L 52.203125 0 
L 43.21875 0 
L 43.21875 8.296875 
Q 40.140625 3.328125 35.546875 0.953125 
Q 30.953125 -1.421875 24.3125 -1.421875 
Q 15.921875 -1.421875 10.953125 3.296875 
Q 6 8.015625 6 15.921875 
Q 6 25.140625 12.171875 29.828125 
Q 18.359375 34.515625 30.609375 34.515625 
L 43.21875 34.515625 
L 43.21875 35.40625 
Q 43.21875 41.609375 39.140625 45 
Q 35.0625 48.390625 27.6875 48.390625 
Q 23 48.390625 18.546875 47.265625 
Q 14.109375 46.140625 10.015625 43.890625 
L 10.015625 52.203125 
Q 14.9375 54.109375 19.578125 55.046875 
Q 24.21875 56 28.609375 56 
Q 40.484375 56 46.34375 49.84375 
Q 52.203125 43.703125 52.203125 31.203125 
z
" id="DejaVuSans-61"/>
       <path d="M 9.421875 75.984375 
L 18.40625 75.984375 
L 18.40625 0 
L 9.421875 0 
z
" id="DejaVuSans-6c"/>
       <path d="M 45.40625 46.390625 
L 45.40625 75.984375 
L 54.390625 75.984375 
L 54.390625 0 
L 45.40625 0 
L 45.40625 8.203125 
Q 42.578125 3.328125 38.25 0.953125 
Q 33.9375 -1.421875 27.875 -1.421875 
Q 17.96875 -1.421875 11.734375 6.484375 
Q 5.515625 14.40625 5.515625 27.296875 
Q 5.515625 40.1875 11.734375 48.09375 
Q 17.96875 56 27.875 56 
Q 33.9375 56 38.25 53.625 
Q 42.578125 51.265625 45.40625 46.390625 
z
M 14.796875 27.296875 
Q 14.796875 17.390625 18.875 11.75 
Q 22.953125 6.109375 30.078125 6.109375 
Q 37.203125 6.109375 41.296875 11.75 
Q 45.40625 17.390625 45.40625 27.296875 
Q 45.40625 37.203125 41.296875 42.84375 
Q 37.203125 48.484375 30.078125 48.484375 
Q 22.953125 48.484375 18.875 42.84375 
Q 14.796875 37.203125 14.796875 27.296875 
z
" id="DejaVuSans-64"/>
       <path d="M 44.28125 53.078125 
L 44.28125 44.578125 
Q 40.484375 46.53125 36.375 47.5 
Q 32.28125 48.484375 27.875 48.484375 
Q 21.1875 48.484375 17.84375 46.4375 
Q 14.5 44.390625 14.5 40.28125 
Q 14.5 37.15625 16.890625 35.375 
Q 19.28125 33.59375 26.515625 31.984375 
L 29.59375 31.296875 
Q 39.15625 29.25 43.1875 25.515625 
Q 47.21875 21.78125 47.21875 15.09375 
Q 47.21875 7.46875 41.1875 3.015625 
Q 35.15625 -1.421875 24.609375 -1.421875 
Q 20.21875 -1.421875 15.453125 -0.5625 
Q 10.6875 0.296875 5.421875 2 
L 5.421875 11.28125 
Q 10.40625 8.6875 15.234375 7.390625 
Q 20.0625 6.109375 24.8125 6.109375 
Q 31.15625 6.109375 34.5625 8.28125 
Q 37.984375 10.453125 37.984375 14.40625 
Q 37.984375 18.0625 35.515625 20.015625 
Q 33.0625 21.96875 24.703125 23.78125 
L 21.578125 24.515625 
Q 13.234375 26.265625 9.515625 29.90625 
Q 5.8125 33.546875 5.8125 39.890625 
Q 5.8125 47.609375 11.28125 51.796875 
Q 16.75 56 26.8125 56 
Q 31.78125 56 36.171875 55.265625 
Q 40.578125 54.546875 44.28125 53.078125 
z
" id="DejaVuSans-73"/>
       <path d="M 9.8125 72.90625 
L 24.515625 72.90625 
L 43.109375 23.296875 
L 61.8125 72.90625 
L 76.515625 72.90625 
L 76.515625 0 
L 66.890625 0 
L 66.890625 64.015625 
L 48.09375 14.015625 
L 38.1875 14.015625 
L 19.390625 64.015625 
L 19.390625 0 
L 9.8125 0 
z
" id="DejaVuSans-4d"/>
       <path d="M 53.515625 70.515625 
L 53.515625 60.890625 
Q 47.90625 63.578125 42.921875 64.890625 
Q 37.9375 66.21875 33.296875 66.21875 
Q 25.25 66.21875 20.875 63.09375 
Q 16.5 59.96875 16.5 54.203125 
Q 16.5 49.359375 19.40625 46.890625 
Q 22.3125 44.4375 30.421875 42.921875 
L 36.375 41.703125 
Q 47.40625 39.59375 52.65625 34.296875 
Q 57.90625 29 57.90625 20.125 
Q 57.90625 9.515625 50.796875 4.046875 
Q 43.703125 -1.421875 29.984375 -1.421875 
Q 24.8125 -1.421875 18.96875 -0.25 
Q 13.140625 0.921875 6.890625 3.21875 
L 6.890625 13.375 
Q 12.890625 10.015625 18.65625 8.296875 
Q 24.421875 6.59375 29.984375 6.59375 
Q 38.421875 6.59375 43.015625 9.90625 
Q 47.609375 13.234375 47.609375 19.390625 
Q 47.609375 24.75 44.3125 27.78125 
Q 41.015625 30.8125 33.5 32.328125 
L 27.484375 33.5 
Q 16.453125 35.6875 11.515625 40.375 
Q 6.59375 45.0625 6.59375 53.421875 
Q 6.59375 63.09375 13.40625 68.65625 
Q 20.21875 74.21875 32.171875 74.21875 
Q 37.3125 74.21875 42.625 73.28125 
Q 47.953125 72.359375 53.515625 70.515625 
z
" id="DejaVuSans-53"/>
       <path d="M 48.78125 52.59375 
L 48.78125 44.1875 
Q 44.96875 46.296875 41.140625 47.34375 
Q 37.3125 48.390625 33.40625 48.390625 
Q 24.65625 48.390625 19.8125 42.84375 
Q 14.984375 37.3125 14.984375 27.296875 
Q 14.984375 17.28125 19.8125 11.734375 
Q 24.65625 6.203125 33.40625 6.203125 
Q 37.3125 6.203125 41.140625 7.25 
Q 44.96875 8.296875 48.78125 10.40625 
L 48.78125 2.09375 
Q 45.015625 0.34375 40.984375 -0.53125 
Q 36.96875 -1.421875 32.421875 -1.421875 
Q 20.0625 -1.421875 12.78125 6.34375 
Q 5.515625 14.109375 5.515625 27.296875 
Q 5.515625 40.671875 12.859375 48.328125 
Q 20.21875 56 33.015625 56 
Q 37.15625 56 41.109375 55.140625 
Q 45.0625 54.296875 48.78125 52.59375 
z
" id="DejaVuSans-63"/>
      </defs>
      <g transform="translate(61.416667 660.892187)rotate(-90)scale(0.1 -0.1)">
       <use xlink:href="#DejaVuSans-57"/>
       <use x="98.798828" xlink:href="#DejaVuSans-65"/>
       <use x="160.322266" xlink:href="#DejaVuSans-79"/>
       <use x="219.501953" xlink:href="#DejaVuSans-6d"/>
       <use x="316.914062" xlink:href="#DejaVuSans-6f"/>
       <use x="378.095703" xlink:href="#DejaVuSans-75"/>
       <use x="441.474609" xlink:href="#DejaVuSans-74"/>
       <use x="480.683594" xlink:href="#DejaVuSans-68"/>
       <use x="544.0625" xlink:href="#DejaVuSans-20"/>
       <use x="575.849609" xlink:href="#DejaVuSans-2d"/>
       <use x="611.933594" xlink:href="#DejaVuSans-20"/>
       <use x="643.720703" xlink:href="#DejaVuSans-41"/>
       <use x="712.128906" xlink:href="#DejaVuSans-62"/>
       <use x="775.605469" xlink:href="#DejaVuSans-69"/>
       <use x="803.388672" xlink:href="#DejaVuSans-67"/>
       <use x="866.865234" xlink:href="#DejaVuSans-61"/>
       <use x="928.144531" xlink:href="#DejaVuSans-69"/>
       <use x="955.927734" xlink:href="#DejaVuSans-6c"/>
       <use x="983.710938" xlink:href="#DejaVuSans-20"/>
       <use x="1015.498047" xlink:href="#DejaVuSans-41"/>
       <use x="1083.890625" xlink:href="#DejaVuSans-64"/>
       <use x="1147.367188" xlink:href="#DejaVuSans-61"/>
       <use x="1208.646484" xlink:href="#DejaVuSans-6d"/>
       <use x="1306.058594" xlink:href="#DejaVuSans-73"/>
       <use x="1358.158203" xlink:href="#DejaVuSans-20"/>
       <use x="1389.945312" xlink:href="#DejaVuSans-4d"/>
       <use x="1476.224609" xlink:href="#DejaVuSans-69"/>
       <use x="1504.007812" xlink:href="#DejaVuSans-64"/>
       <use x="1567.484375" xlink:href="#DejaVuSans-64"/>
       <use x="1630.960938" xlink:href="#DejaVuSans-6c"/>
       <use x="1658.744141" xlink:href="#DejaVuSans-65"/>
       <use x="1720.267578" xlink:href="#DejaVuSans-20"/>
       <use x="1752.054688" xlink:href="#DejaVuSans-53"/>
       <use x="1815.53125" xlink:href="#DejaVuSans-63"/>
       <use x="1870.511719" xlink:href="#DejaVuSans-68"/>
       <use x="1933.890625" xlink:href="#DejaVuSans-6f"/>
       <use x="1995.072266" xlink:href="#DejaVuSans-6f"/>
       <use x="2056.253906" xlink:href="#DejaVuSans-6c"/>
      </g>
     </g>
    </g>
    <g id="xtick_2">
     <g id="line2d_2">
      <g>
       <use style="stroke:#000000;stroke-width:0.8;" x="114.921875" xlink:href="#mf47ed56413" y="445.4875"/>
      </g>
     </g>
     <g id="text_2">
      <!-- Weymouth - Academy Avenue -->
      <defs>
       <path d="M 2.984375 54.6875 
L 12.5 54.6875 
L 29.59375 8.796875 
L 46.6875 54.6875 
L 56.203125 54.6875 
L 35.6875 0 
L 23.484375 0 
z
" id="DejaVuSans-76"/>
       <path d="M 54.890625 33.015625 
L 54.890625 0 
L 45.90625 0 
L 45.90625 32.71875 
Q 45.90625 40.484375 42.875 44.328125 
Q 39.84375 48.1875 33.796875 48.1875 
Q 26.515625 48.1875 22.3125 43.546875 
Q 18.109375 38.921875 18.109375 30.90625 
L 18.109375 0 
L 9.078125 0 
L 9.078125 54.6875 
L 18.109375 54.6875 
L 18.109375 46.1875 
Q 21.34375 51.125 25.703125 53.5625 
Q 30.078125 56 35.796875 56 
Q 45.21875 56 50.046875 50.171875 
Q 54.890625 44.34375 54.890625 33.015625 
z
" id="DejaVuSans-6e"/>
      </defs>
      <g transform="translate(117.68125 604.395312)rotate(-90)scale(0.1 -0.1)">
       <use xlink:href="#DejaVuSans-57"/>
       <use x="98.798828" xlink:href="#DejaVuSans-65"/>
       <use x="160.322266" xlink:href="#DejaVuSans-79"/>
       <use x="219.501953" xlink:href="#DejaVuSans-6d"/>
       <use x="316.914062" xlink:href="#DejaVuSans-6f"/>
       <use x="378.095703" xlink:href="#DejaVuSans-75"/>
       <use x="441.474609" xlink:href="#DejaVuSans-74"/>
       <use x="480.683594" xlink:href="#DejaVuSans-68"/>
       <use x="544.0625" xlink:href="#DejaVuSans-20"/>
       <use x="575.849609" xlink:href="#DejaVuSans-2d"/>
       <use x="611.933594" xlink:href="#DejaVuSans-20"/>
       <use x="643.720703" xlink:href="#DejaVuSans-41"/>
       <use x="712.113281" xlink:href="#DejaVuSans-63"/>
       <use x="767.09375" xlink:href="#DejaVuSans-61"/>
       <use x="828.373047" xlink:href="#DejaVuSans-64"/>
       <use x="891.849609" xlink:href="#DejaVuSans-65"/>
       <use x="953.373047" xlink:href="#DejaVuSans-6d"/>
       <use x="1050.785156" xlink:href="#DejaVuSans-79"/>
       <use x="1109.964844" xlink:href="#DejaVuSans-20"/>
       <use x="1141.751953" xlink:href="#DejaVuSans-41"/>
       <use x="1210.082031" xlink:href="#DejaVuSans-76"/>
       <use x="1269.261719" xlink:href="#DejaVuSans-65"/>
       <use x="1330.785156" xlink:href="#DejaVuSans-6e"/>
       <use x="1394.164062" xlink:href="#DejaVuSans-75"/>
       <use x="1457.542969" xlink:href="#DejaVuSans-65"/>
      </g>
     </g>
    </g>
    <g id="xtick_3">
     <g id="line2d_3">
      <g>
       <use style="stroke:#000000;stroke-width:0.8;" x="171.186458" xlink:href="#mf47ed56413" y="445.4875"/>
      </g>
     </g>
     <g id="text_3">
      <!-- Weymouth - Frederick C Murphy -->
      <defs>
       <path d="M 9.8125 72.90625 
L 51.703125 72.90625 
L 51.703125 64.59375 
L 19.671875 64.59375 
L 19.671875 43.109375 
L 48.578125 43.109375 
L 48.578125 34.8125 
L 19.671875 34.8125 
L 19.671875 0 
L 9.8125 0 
z
" id="DejaVuSans-46"/>
       <path d="M 41.109375 46.296875 
Q 39.59375 47.171875 37.8125 47.578125 
Q 36.03125 48 33.890625 48 
Q 26.265625 48 22.1875 43.046875 
Q 18.109375 38.09375 18.109375 28.8125 
L 18.109375 0 
L 9.078125 0 
L 9.078125 54.6875 
L 18.109375 54.6875 
L 18.109375 46.1875 
Q 20.953125 51.171875 25.484375 53.578125 
Q 30.03125 56 36.53125 56 
Q 37.453125 56 38.578125 55.875 
Q 39.703125 55.765625 41.0625 55.515625 
z
" id="DejaVuSans-72"/>
       <path d="M 9.078125 75.984375 
L 18.109375 75.984375 
L 18.109375 31.109375 
L 44.921875 54.6875 
L 56.390625 54.6875 
L 27.390625 29.109375 
L 57.625 0 
L 45.90625 0 
L 18.109375 26.703125 
L 18.109375 0 
L 9.078125 0 
z
" id="DejaVuSans-6b"/>
       <path d="M 64.40625 67.28125 
L 64.40625 56.890625 
Q 59.421875 61.53125 53.78125 63.8125 
Q 48.140625 66.109375 41.796875 66.109375 
Q 29.296875 66.109375 22.65625 58.46875 
Q 16.015625 50.828125 16.015625 36.375 
Q 16.015625 21.96875 22.65625 14.328125 
Q 29.296875 6.6875 41.796875 6.6875 
Q 48.140625 6.6875 53.78125 8.984375 
Q 59.421875 11.28125 64.40625 15.921875 
L 64.40625 5.609375 
Q 59.234375 2.09375 53.4375 0.328125 
Q 47.65625 -1.421875 41.21875 -1.421875 
Q 24.65625 -1.421875 15.125 8.703125 
Q 5.609375 18.84375 5.609375 36.375 
Q 5.609375 53.953125 15.125 64.078125 
Q 24.65625 74.21875 41.21875 74.21875 
Q 47.75 74.21875 53.53125 72.484375 
Q 59.328125 70.75 64.40625 67.28125 
z
" id="DejaVuSans-43"/>
       <path d="M 18.109375 8.203125 
L 18.109375 -20.796875 
L 9.078125 -20.796875 
L 9.078125 54.6875 
L 18.109375 54.6875 
L 18.109375 46.390625 
Q 20.953125 51.265625 25.265625 53.625 
Q 29.59375 56 35.59375 56 
Q 45.5625 56 51.78125 48.09375 
Q 58.015625 40.1875 58.015625 27.296875 
Q 58.015625 14.40625 51.78125 6.484375 
Q 45.5625 -1.421875 35.59375 -1.421875 
Q 29.59375 -1.421875 25.265625 0.953125 
Q 20.953125 3.328125 18.109375 8.203125 
z
M 48.6875 27.296875 
Q 48.6875 37.203125 44.609375 42.84375 
Q 40.53125 48.484375 33.40625 48.484375 
Q 26.265625 48.484375 22.1875 42.84375 
Q 18.109375 37.203125 18.109375 27.296875 
Q 18.109375 17.390625 22.1875 11.75 
Q 26.265625 6.109375 33.40625 6.109375 
Q 40.53125 6.109375 44.609375 11.75 
Q 48.6875 17.390625 48.6875 27.296875 
z
" id="DejaVuSans-70"/>
      </defs>
      <g transform="translate(173.945833 614.559375)rotate(-90)scale(0.1 -0.1)">
       <use xlink:href="#DejaVuSans-57"/>
       <use x="98.798828" xlink:href="#DejaVuSans-65"/>
       <use x="160.322266" xlink:href="#DejaVuSans-79"/>
       <use x="219.501953" xlink:href="#DejaVuSans-6d"/>
       <use x="316.914062" xlink:href="#DejaVuSans-6f"/>
       <use x="378.095703" xlink:href="#DejaVuSans-75"/>
       <use x="441.474609" xlink:href="#DejaVuSans-74"/>
       <use x="480.683594" xlink:href="#DejaVuSans-68"/>
       <use x="544.0625" xlink:href="#DejaVuSans-20"/>
       <use x="575.849609" xlink:href="#DejaVuSans-2d"/>
       <use x="611.933594" xlink:href="#DejaVuSans-20"/>
       <use x="643.720703" xlink:href="#DejaVuSans-46"/>
       <use x="701.130859" xlink:href="#DejaVuSans-72"/>
       <use x="742.212891" xlink:href="#DejaVuSans-65"/>
       <use x="803.736328" xlink:href="#DejaVuSans-64"/>
       <use x="867.212891" xlink:href="#DejaVuSans-65"/>
       <use x="928.736328" xlink:href="#DejaVuSans-72"/>
       <use x="969.849609" xlink:href="#DejaVuSans-69"/>
       <use x="997.632812" xlink:href="#DejaVuSans-63"/>
       <use x="1052.613281" xlink:href="#DejaVuSans-6b"/>
       <use x="1110.523438" xlink:href="#DejaVuSans-20"/>
       <use x="1142.310547" xlink:href="#DejaVuSans-43"/>
       <use x="1212.134766" xlink:href="#DejaVuSans-20"/>
       <use x="1243.921875" xlink:href="#DejaVuSans-4d"/>
       <use x="1330.201172" xlink:href="#DejaVuSans-75"/>
       <use x="1393.580078" xlink:href="#DejaVuSans-72"/>
       <use x="1434.693359" xlink:href="#DejaVuSans-70"/>
       <use x="1498.169922" xlink:href="#DejaVuSans-68"/>
       <use x="1561.548828" xlink:href="#DejaVuSans-79"/>
      </g>
     </g>
    </g>
    <g id="xtick_4">
     <g id="line2d_4">
      <g>
       <use style="stroke:#000000;stroke-width:0.8;" x="227.451042" xlink:href="#mf47ed56413" y="445.4875"/>
      </g>
     </g>
     <g id="text_4">
      <!-- Weymouth - Johnson Early Childhood Center -->
      <defs>
       <path d="M 9.8125 72.90625 
L 19.671875 72.90625 
L 19.671875 5.078125 
Q 19.671875 -8.109375 14.671875 -14.0625 
Q 9.671875 -20.015625 -1.421875 -20.015625 
L -5.171875 -20.015625 
L -5.171875 -11.71875 
L -2.09375 -11.71875 
Q 4.4375 -11.71875 7.125 -8.046875 
Q 9.8125 -4.390625 9.8125 5.078125 
z
" id="DejaVuSans-4a"/>
       <path d="M 9.8125 72.90625 
L 55.90625 72.90625 
L 55.90625 64.59375 
L 19.671875 64.59375 
L 19.671875 43.015625 
L 54.390625 43.015625 
L 54.390625 34.71875 
L 19.671875 34.71875 
L 19.671875 8.296875 
L 56.78125 8.296875 
L 56.78125 0 
L 9.8125 0 
z
" id="DejaVuSans-45"/>
      </defs>
      <g transform="translate(230.210417 674.8625)rotate(-90)scale(0.1 -0.1)">
       <use xlink:href="#DejaVuSans-57"/>
       <use x="98.798828" xlink:href="#DejaVuSans-65"/>
       <use x="160.322266" xlink:href="#DejaVuSans-79"/>
       <use x="219.501953" xlink:href="#DejaVuSans-6d"/>
       <use x="316.914062" xlink:href="#DejaVuSans-6f"/>
       <use x="378.095703" xlink:href="#DejaVuSans-75"/>
       <use x="441.474609" xlink:href="#DejaVuSans-74"/>
       <use x="480.683594" xlink:href="#DejaVuSans-68"/>
       <use x="544.0625" xlink:href="#DejaVuSans-20"/>
       <use x="575.849609" xlink:href="#DejaVuSans-2d"/>
       <use x="611.933594" xlink:href="#DejaVuSans-20"/>
       <use x="643.720703" xlink:href="#DejaVuSans-4a"/>
       <use x="673.212891" xlink:href="#DejaVuSans-6f"/>
       <use x="734.394531" xlink:href="#DejaVuSans-68"/>
       <use x="797.773438" xlink:href="#DejaVuSans-6e"/>
       <use x="861.152344" xlink:href="#DejaVuSans-73"/>
       <use x="913.251953" xlink:href="#DejaVuSans-6f"/>
       <use x="974.433594" xlink:href="#DejaVuSans-6e"/>
       <use x="1037.8125" xlink:href="#DejaVuSans-20"/>
       <use x="1069.599609" xlink:href="#DejaVuSans-45"/>
       <use x="1132.783203" xlink:href="#DejaVuSans-61"/>
       <use x="1194.0625" xlink:href="#DejaVuSans-72"/>
       <use x="1235.175781" xlink:href="#DejaVuSans-6c"/>
       <use x="1262.958984" xlink:href="#DejaVuSans-79"/>
       <use x="1322.138672" xlink:href="#DejaVuSans-20"/>
       <use x="1353.925781" xlink:href="#DejaVuSans-43"/>
       <use x="1423.75" xlink:href="#DejaVuSans-68"/>
       <use x="1487.128906" xlink:href="#DejaVuSans-69"/>
       <use x="1514.912109" xlink:href="#DejaVuSans-6c"/>
       <use x="1542.695312" xlink:href="#DejaVuSans-64"/>
       <use x="1606.171875" xlink:href="#DejaVuSans-68"/>
       <use x="1669.550781" xlink:href="#DejaVuSans-6f"/>
       <use x="1730.732422" xlink:href="#DejaVuSans-6f"/>
       <use x="1791.914062" xlink:href="#DejaVuSans-64"/>
       <use x="1855.390625" xlink:href="#DejaVuSans-20"/>
       <use x="1887.177734" xlink:href="#DejaVuSans-43"/>
       <use x="1957.001953" xlink:href="#DejaVuSans-65"/>
       <use x="2018.525391" xlink:href="#DejaVuSans-6e"/>
       <use x="2081.904297" xlink:href="#DejaVuSans-74"/>
       <use x="2121.113281" xlink:href="#DejaVuSans-65"/>
       <use x="2182.636719" xlink:href="#DejaVuSans-72"/>
      </g>
     </g>
    </g>
    <g id="xtick_5">
     <g id="line2d_5">
      <g>
       <use style="stroke:#000000;stroke-width:0.8;" x="283.715625" xlink:href="#mf47ed56413" y="445.4875"/>
      </g>
     </g>
     <g id="text_5">
      <!-- Weymouth - Lawrence W Pingree -->
      <defs>
       <path d="M 9.8125 72.90625 
L 19.671875 72.90625 
L 19.671875 8.296875 
L 55.171875 8.296875 
L 55.171875 0 
L 9.8125 0 
z
" id="DejaVuSans-4c"/>
       <path d="M 4.203125 54.6875 
L 13.1875 54.6875 
L 24.421875 12.015625 
L 35.59375 54.6875 
L 46.1875 54.6875 
L 57.421875 12.015625 
L 68.609375 54.6875 
L 77.59375 54.6875 
L 63.28125 0 
L 52.6875 0 
L 40.921875 44.828125 
L 29.109375 0 
L 18.5 0 
z
" id="DejaVuSans-77"/>
       <path d="M 19.671875 64.796875 
L 19.671875 37.40625 
L 32.078125 37.40625 
Q 38.96875 37.40625 42.71875 40.96875 
Q 46.484375 44.53125 46.484375 51.125 
Q 46.484375 57.671875 42.71875 61.234375 
Q 38.96875 64.796875 32.078125 64.796875 
z
M 9.8125 72.90625 
L 32.078125 72.90625 
Q 44.34375 72.90625 50.609375 67.359375 
Q 56.890625 61.8125 56.890625 51.125 
Q 56.890625 40.328125 50.609375 34.8125 
Q 44.34375 29.296875 32.078125 29.296875 
L 19.671875 29.296875 
L 19.671875 0 
L 9.8125 0 
z
" id="DejaVuSans-50"/>
      </defs>
      <g transform="translate(286.475 619.134375)rotate(-90)scale(0.1 -0.1)">
       <use xlink:href="#DejaVuSans-57"/>
       <use x="98.798828" xlink:href="#DejaVuSans-65"/>
       <use x="160.322266" xlink:href="#DejaVuSans-79"/>
       <use x="219.501953" xlink:href="#DejaVuSans-6d"/>
       <use x="316.914062" xlink:href="#DejaVuSans-6f"/>
       <use x="378.095703" xlink:href="#DejaVuSans-75"/>
       <use x="441.474609" xlink:href="#DejaVuSans-74"/>
       <use x="480.683594" xlink:href="#DejaVuSans-68"/>
       <use x="544.0625" xlink:href="#DejaVuSans-20"/>
       <use x="575.849609" xlink:href="#DejaVuSans-2d"/>
       <use x="611.933594" xlink:href="#DejaVuSans-20"/>
       <use x="643.720703" xlink:href="#DejaVuSans-4c"/>
       <use x="699.433594" xlink:href="#DejaVuSans-61"/>
       <use x="760.712891" xlink:href="#DejaVuSans-77"/>
       <use x="842.5" xlink:href="#DejaVuSans-72"/>
       <use x="883.582031" xlink:href="#DejaVuSans-65"/>
       <use x="945.105469" xlink:href="#DejaVuSans-6e"/>
       <use x="1008.484375" xlink:href="#DejaVuSans-63"/>
       <use x="1063.464844" xlink:href="#DejaVuSans-65"/>
       <use x="1124.988281" xlink:href="#DejaVuSans-20"/>
       <use x="1156.775391" xlink:href="#DejaVuSans-57"/>
       <use x="1255.652344" xlink:href="#DejaVuSans-20"/>
       <use x="1287.439453" xlink:href="#DejaVuSans-50"/>
       <use x="1347.710938" xlink:href="#DejaVuSans-69"/>
       <use x="1375.494141" xlink:href="#DejaVuSans-6e"/>
       <use x="1438.873047" xlink:href="#DejaVuSans-67"/>
       <use x="1502.349609" xlink:href="#DejaVuSans-72"/>
       <use x="1543.431641" xlink:href="#DejaVuSans-65"/>
       <use x="1604.955078" xlink:href="#DejaVuSans-65"/>
      </g>
     </g>
    </g>
    <g id="xtick_6">
     <g id="line2d_6">
      <g>
       <use style="stroke:#000000;stroke-width:0.8;" x="339.980208" xlink:href="#mf47ed56413" y="445.4875"/>
      </g>
     </g>
     <g id="text_6">
      <!-- Weymouth - Maria Weston Chapman Middle School -->
      <g transform="translate(342.739583 709.2)rotate(-90)scale(0.1 -0.1)">
       <use xlink:href="#DejaVuSans-57"/>
       <use x="98.798828" xlink:href="#DejaVuSans-65"/>
       <use x="160.322266" xlink:href="#DejaVuSans-79"/>
       <use x="219.501953" xlink:href="#DejaVuSans-6d"/>
       <use x="316.914062" xlink:href="#DejaVuSans-6f"/>
       <use x="378.095703" xlink:href="#DejaVuSans-75"/>
       <use x="441.474609" xlink:href="#DejaVuSans-74"/>
       <use x="480.683594" xlink:href="#DejaVuSans-68"/>
       <use x="544.0625" xlink:href="#DejaVuSans-20"/>
       <use x="575.849609" xlink:href="#DejaVuSans-2d"/>
       <use x="611.933594" xlink:href="#DejaVuSans-20"/>
       <use x="643.720703" xlink:href="#DejaVuSans-4d"/>
       <use x="730" xlink:href="#DejaVuSans-61"/>
       <use x="791.279297" xlink:href="#DejaVuSans-72"/>
       <use x="832.392578" xlink:href="#DejaVuSans-69"/>
       <use x="860.175781" xlink:href="#DejaVuSans-61"/>
       <use x="921.455078" xlink:href="#DejaVuSans-20"/>
       <use x="953.242188" xlink:href="#DejaVuSans-57"/>
       <use x="1052.041016" xlink:href="#DejaVuSans-65"/>
       <use x="1113.564453" xlink:href="#DejaVuSans-73"/>
       <use x="1165.664062" xlink:href="#DejaVuSans-74"/>
       <use x="1204.873047" xlink:href="#DejaVuSans-6f"/>
       <use x="1266.054688" xlink:href="#DejaVuSans-6e"/>
       <use x="1329.433594" xlink:href="#DejaVuSans-20"/>
       <use x="1361.220703" xlink:href="#DejaVuSans-43"/>
       <use x="1431.044922" xlink:href="#DejaVuSans-68"/>
       <use x="1494.423828" xlink:href="#DejaVuSans-61"/>
       <use x="1555.703125" xlink:href="#DejaVuSans-70"/>
       <use x="1619.179688" xlink:href="#DejaVuSans-6d"/>
       <use x="1716.591797" xlink:href="#DejaVuSans-61"/>
       <use x="1777.871094" xlink:href="#DejaVuSans-6e"/>
       <use x="1841.25" xlink:href="#DejaVuSans-20"/>
       <use x="1873.037109" xlink:href="#DejaVuSans-4d"/>
       <use x="1959.316406" xlink:href="#DejaVuSans-69"/>
       <use x="1987.099609" xlink:href="#DejaVuSans-64"/>
       <use x="2050.576172" xlink:href="#DejaVuSans-64"/>
       <use x="2114.052734" xlink:href="#DejaVuSans-6c"/>
       <use x="2141.835938" xlink:href="#DejaVuSans-65"/>
       <use x="2203.359375" xlink:href="#DejaVuSans-20"/>
       <use x="2235.146484" xlink:href="#DejaVuSans-53"/>
       <use x="2298.623047" xlink:href="#DejaVuSans-63"/>
       <use x="2353.603516" xlink:href="#DejaVuSans-68"/>
       <use x="2416.982422" xlink:href="#DejaVuSans-6f"/>
       <use x="2478.164062" xlink:href="#DejaVuSans-6f"/>
       <use x="2539.345703" xlink:href="#DejaVuSans-6c"/>
      </g>
     </g>
    </g>
    <g id="xtick_7">
     <g id="line2d_7">
      <g>
       <use style="stroke:#000000;stroke-width:0.8;" x="396.244792" xlink:href="#mf47ed56413" y="445.4875"/>
      </g>
     </g>
     <g id="text_7">
      <!-- Weymouth - Ralph Talbot -->
      <defs>
       <path d="M 44.390625 34.1875 
Q 47.5625 33.109375 50.5625 29.59375 
Q 53.5625 26.078125 56.59375 19.921875 
L 66.609375 0 
L 56 0 
L 46.6875 18.703125 
Q 43.0625 26.03125 39.671875 28.421875 
Q 36.28125 30.8125 30.421875 30.8125 
L 19.671875 30.8125 
L 19.671875 0 
L 9.8125 0 
L 9.8125 72.90625 
L 32.078125 72.90625 
Q 44.578125 72.90625 50.734375 67.671875 
Q 56.890625 62.453125 56.890625 51.90625 
Q 56.890625 45.015625 53.6875 40.46875 
Q 50.484375 35.9375 44.390625 34.1875 
z
M 19.671875 64.796875 
L 19.671875 38.921875 
L 32.078125 38.921875 
Q 39.203125 38.921875 42.84375 42.21875 
Q 46.484375 45.515625 46.484375 51.90625 
Q 46.484375 58.296875 42.84375 61.546875 
Q 39.203125 64.796875 32.078125 64.796875 
z
" id="DejaVuSans-52"/>
       <path d="M -0.296875 72.90625 
L 61.375 72.90625 
L 61.375 64.59375 
L 35.5 64.59375 
L 35.5 0 
L 25.59375 0 
L 25.59375 64.59375 
L -0.296875 64.59375 
z
" id="DejaVuSans-54"/>
      </defs>
      <g transform="translate(399.004167 579.95)rotate(-90)scale(0.1 -0.1)">
       <use xlink:href="#DejaVuSans-57"/>
       <use x="98.798828" xlink:href="#DejaVuSans-65"/>
       <use x="160.322266" xlink:href="#DejaVuSans-79"/>
       <use x="219.501953" xlink:href="#DejaVuSans-6d"/>
       <use x="316.914062" xlink:href="#DejaVuSans-6f"/>
       <use x="378.095703" xlink:href="#DejaVuSans-75"/>
       <use x="441.474609" xlink:href="#DejaVuSans-74"/>
       <use x="480.683594" xlink:href="#DejaVuSans-68"/>
       <use x="544.0625" xlink:href="#DejaVuSans-20"/>
       <use x="575.849609" xlink:href="#DejaVuSans-2d"/>
       <use x="611.933594" xlink:href="#DejaVuSans-20"/>
       <use x="643.720703" xlink:href="#DejaVuSans-52"/>
       <use x="713.171875" xlink:href="#DejaVuSans-61"/>
       <use x="774.451172" xlink:href="#DejaVuSans-6c"/>
       <use x="802.234375" xlink:href="#DejaVuSans-70"/>
       <use x="865.710938" xlink:href="#DejaVuSans-68"/>
       <use x="929.089844" xlink:href="#DejaVuSans-20"/>
       <use x="960.876953" xlink:href="#DejaVuSans-54"/>
       <use x="1021.710938" xlink:href="#DejaVuSans-61"/>
       <use x="1082.990234" xlink:href="#DejaVuSans-6c"/>
       <use x="1110.773438" xlink:href="#DejaVuSans-62"/>
       <use x="1174.25" xlink:href="#DejaVuSans-6f"/>
       <use x="1235.431641" xlink:href="#DejaVuSans-74"/>
      </g>
     </g>
    </g>
    <g id="xtick_8">
     <g id="line2d_8">
      <g>
       <use style="stroke:#000000;stroke-width:0.8;" x="452.509375" xlink:href="#mf47ed56413" y="445.4875"/>
      </g>
     </g>
     <g id="text_8">
      <!-- Weymouth - Thomas V Nash -->
      <defs>
       <path d="M 28.609375 0 
L 0.78125 72.90625 
L 11.078125 72.90625 
L 34.1875 11.53125 
L 57.328125 72.90625 
L 67.578125 72.90625 
L 39.796875 0 
z
" id="DejaVuSans-56"/>
       <path d="M 9.8125 72.90625 
L 23.09375 72.90625 
L 55.421875 11.921875 
L 55.421875 72.90625 
L 64.984375 72.90625 
L 64.984375 0 
L 51.703125 0 
L 19.390625 60.984375 
L 19.390625 0 
L 9.8125 0 
z
" id="DejaVuSans-4e"/>
      </defs>
      <g transform="translate(455.26875 594.853125)rotate(-90)scale(0.1 -0.1)">
       <use xlink:href="#DejaVuSans-57"/>
       <use x="98.798828" xlink:href="#DejaVuSans-65"/>
       <use x="160.322266" xlink:href="#DejaVuSans-79"/>
       <use x="219.501953" xlink:href="#DejaVuSans-6d"/>
       <use x="316.914062" xlink:href="#DejaVuSans-6f"/>
       <use x="378.095703" xlink:href="#DejaVuSans-75"/>
       <use x="441.474609" xlink:href="#DejaVuSans-74"/>
       <use x="480.683594" xlink:href="#DejaVuSans-68"/>
       <use x="544.0625" xlink:href="#DejaVuSans-20"/>
       <use x="575.849609" xlink:href="#DejaVuSans-2d"/>
       <use x="611.933594" xlink:href="#DejaVuSans-20"/>
       <use x="643.720703" xlink:href="#DejaVuSans-54"/>
       <use x="704.804688" xlink:href="#DejaVuSans-68"/>
       <use x="768.183594" xlink:href="#DejaVuSans-6f"/>
       <use x="829.365234" xlink:href="#DejaVuSans-6d"/>
       <use x="926.777344" xlink:href="#DejaVuSans-61"/>
       <use x="988.056641" xlink:href="#DejaVuSans-73"/>
       <use x="1040.15625" xlink:href="#DejaVuSans-20"/>
       <use x="1071.943359" xlink:href="#DejaVuSans-56"/>
       <use x="1140.351562" xlink:href="#DejaVuSans-20"/>
       <use x="1172.138672" xlink:href="#DejaVuSans-4e"/>
       <use x="1246.943359" xlink:href="#DejaVuSans-61"/>
       <use x="1308.222656" xlink:href="#DejaVuSans-73"/>
       <use x="1360.322266" xlink:href="#DejaVuSans-68"/>
      </g>
     </g>
    </g>
    <g id="xtick_9">
     <g id="line2d_9">
      <g>
       <use style="stroke:#000000;stroke-width:0.8;" x="508.773958" xlink:href="#mf47ed56413" y="445.4875"/>
      </g>
     </g>
     <g id="text_9">
      <!-- Weymouth - Thomas W. Hamilton Primary School -->
      <defs>
       <path d="M 10.6875 12.40625 
L 21 12.40625 
L 21 0 
L 10.6875 0 
z
" id="DejaVuSans-2e"/>
       <path d="M 9.8125 72.90625 
L 19.671875 72.90625 
L 19.671875 43.015625 
L 55.515625 43.015625 
L 55.515625 72.90625 
L 65.375 72.90625 
L 65.375 0 
L 55.515625 0 
L 55.515625 34.71875 
L 19.671875 34.71875 
L 19.671875 0 
L 9.8125 0 
z
" id="DejaVuSans-48"/>
      </defs>
      <g transform="translate(511.533333 699.598437)rotate(-90)scale(0.1 -0.1)">
       <use xlink:href="#DejaVuSans-57"/>
       <use x="98.798828" xlink:href="#DejaVuSans-65"/>
       <use x="160.322266" xlink:href="#DejaVuSans-79"/>
       <use x="219.501953" xlink:href="#DejaVuSans-6d"/>
       <use x="316.914062" xlink:href="#DejaVuSans-6f"/>
       <use x="378.095703" xlink:href="#DejaVuSans-75"/>
       <use x="441.474609" xlink:href="#DejaVuSans-74"/>
       <use x="480.683594" xlink:href="#DejaVuSans-68"/>
       <use x="544.0625" xlink:href="#DejaVuSans-20"/>
       <use x="575.849609" xlink:href="#DejaVuSans-2d"/>
       <use x="611.933594" xlink:href="#DejaVuSans-20"/>
       <use x="643.720703" xlink:href="#DejaVuSans-54"/>
       <use x="704.804688" xlink:href="#DejaVuSans-68"/>
       <use x="768.183594" xlink:href="#DejaVuSans-6f"/>
       <use x="829.365234" xlink:href="#DejaVuSans-6d"/>
       <use x="926.777344" xlink:href="#DejaVuSans-61"/>
       <use x="988.056641" xlink:href="#DejaVuSans-73"/>
       <use x="1040.15625" xlink:href="#DejaVuSans-20"/>
       <use x="1071.943359" xlink:href="#DejaVuSans-57"/>
       <use x="1170.648438" xlink:href="#DejaVuSans-2e"/>
       <use x="1202.435547" xlink:href="#DejaVuSans-20"/>
       <use x="1234.222656" xlink:href="#DejaVuSans-48"/>
       <use x="1309.417969" xlink:href="#DejaVuSans-61"/>
       <use x="1370.697266" xlink:href="#DejaVuSans-6d"/>
       <use x="1468.109375" xlink:href="#DejaVuSans-69"/>
       <use x="1495.892578" xlink:href="#DejaVuSans-6c"/>
       <use x="1523.675781" xlink:href="#DejaVuSans-74"/>
       <use x="1562.884766" xlink:href="#DejaVuSans-6f"/>
       <use x="1624.066406" xlink:href="#DejaVuSans-6e"/>
       <use x="1687.445312" xlink:href="#DejaVuSans-20"/>
       <use x="1719.232422" xlink:href="#DejaVuSans-50"/>
       <use x="1779.519531" xlink:href="#DejaVuSans-72"/>
       <use x="1820.632812" xlink:href="#DejaVuSans-69"/>
       <use x="1848.416016" xlink:href="#DejaVuSans-6d"/>
       <use x="1945.828125" xlink:href="#DejaVuSans-61"/>
       <use x="2007.107422" xlink:href="#DejaVuSans-72"/>
       <use x="2048.220703" xlink:href="#DejaVuSans-79"/>
       <use x="2107.400391" xlink:href="#DejaVuSans-20"/>
       <use x="2139.1875" xlink:href="#DejaVuSans-53"/>
       <use x="2202.664062" xlink:href="#DejaVuSans-63"/>
       <use x="2257.644531" xlink:href="#DejaVuSans-68"/>
       <use x="2321.023438" xlink:href="#DejaVuSans-6f"/>
       <use x="2382.205078" xlink:href="#DejaVuSans-6f"/>
       <use x="2443.386719" xlink:href="#DejaVuSans-6c"/>
      </g>
     </g>
    </g>
    <g id="xtick_10">
     <g id="line2d_10">
      <g>
       <use style="stroke:#000000;stroke-width:0.8;" x="565.038542" xlink:href="#mf47ed56413" y="445.4875"/>
      </g>
     </g>
     <g id="text_10">
      <!-- Weymouth - Wessagusset -->
      <g transform="translate(567.797917 582.615625)rotate(-90)scale(0.1 -0.1)">
       <use xlink:href="#DejaVuSans-57"/>
       <use x="98.798828" xlink:href="#DejaVuSans-65"/>
       <use x="160.322266" xlink:href="#DejaVuSans-79"/>
       <use x="219.501953" xlink:href="#DejaVuSans-6d"/>
       <use x="316.914062" xlink:href="#DejaVuSans-6f"/>
       <use x="378.095703" xlink:href="#DejaVuSans-75"/>
       <use x="441.474609" xlink:href="#DejaVuSans-74"/>
       <use x="480.683594" xlink:href="#DejaVuSans-68"/>
       <use x="544.0625" xlink:href="#DejaVuSans-20"/>
       <use x="575.849609" xlink:href="#DejaVuSans-2d"/>
       <use x="611.933594" xlink:href="#DejaVuSans-20"/>
       <use x="643.720703" xlink:href="#DejaVuSans-57"/>
       <use x="742.519531" xlink:href="#DejaVuSans-65"/>
       <use x="804.042969" xlink:href="#DejaVuSans-73"/>
       <use x="856.142578" xlink:href="#DejaVuSans-73"/>
       <use x="908.242188" xlink:href="#DejaVuSans-61"/>
       <use x="969.521484" xlink:href="#DejaVuSans-67"/>
       <use x="1032.998047" xlink:href="#DejaVuSans-75"/>
       <use x="1096.376953" xlink:href="#DejaVuSans-73"/>
       <use x="1148.476562" xlink:href="#DejaVuSans-73"/>
       <use x="1200.576172" xlink:href="#DejaVuSans-65"/>
       <use x="1262.099609" xlink:href="#DejaVuSans-74"/>
      </g>
     </g>
    </g>
    <g id="xtick_11">
     <g id="line2d_11">
      <g>
       <use style="stroke:#000000;stroke-width:0.8;" x="621.303125" xlink:href="#mf47ed56413" y="445.4875"/>
      </g>
     </g>
     <g id="text_11">
      <!-- Weymouth - Weymouth High School -->
      <g transform="translate(624.0625 633.804688)rotate(-90)scale(0.1 -0.1)">
       <use xlink:href="#DejaVuSans-57"/>
       <use x="98.798828" xlink:href="#DejaVuSans-65"/>
       <use x="160.322266" xlink:href="#DejaVuSans-79"/>
       <use x="219.501953" xlink:href="#DejaVuSans-6d"/>
       <use x="316.914062" xlink:href="#DejaVuSans-6f"/>
       <use x="378.095703" xlink:href="#DejaVuSans-75"/>
       <use x="441.474609" xlink:href="#DejaVuSans-74"/>
       <use x="480.683594" xlink:href="#DejaVuSans-68"/>
       <use x="544.0625" xlink:href="#DejaVuSans-20"/>
       <use x="575.849609" xlink:href="#DejaVuSans-2d"/>
       <use x="611.933594" xlink:href="#DejaVuSans-20"/>
       <use x="643.720703" xlink:href="#DejaVuSans-57"/>
       <use x="742.519531" xlink:href="#DejaVuSans-65"/>
       <use x="804.042969" xlink:href="#DejaVuSans-79"/>
       <use x="863.222656" xlink:href="#DejaVuSans-6d"/>
       <use x="960.634766" xlink:href="#DejaVuSans-6f"/>
       <use x="1021.816406" xlink:href="#DejaVuSans-75"/>
       <use x="1085.195312" xlink:href="#DejaVuSans-74"/>
       <use x="1124.404297" xlink:href="#DejaVuSans-68"/>
       <use x="1187.783203" xlink:href="#DejaVuSans-20"/>
       <use x="1219.570312" xlink:href="#DejaVuSans-48"/>
       <use x="1294.765625" xlink:href="#DejaVuSans-69"/>
       <use x="1322.548828" xlink:href="#DejaVuSans-67"/>
       <use x="1386.025391" xlink:href="#DejaVuSans-68"/>
       <use x="1449.404297" xlink:href="#DejaVuSans-20"/>
       <use x="1481.191406" xlink:href="#DejaVuSans-53"/>
       <use x="1544.667969" xlink:href="#DejaVuSans-63"/>
       <use x="1599.648438" xlink:href="#DejaVuSans-68"/>
       <use x="1663.027344" xlink:href="#DejaVuSans-6f"/>
       <use x="1724.208984" xlink:href="#DejaVuSans-6f"/>
       <use x="1785.390625" xlink:href="#DejaVuSans-6c"/>
      </g>
     </g>
    </g>
    <g id="xtick_12">
     <g id="line2d_12">
      <g>
       <use style="stroke:#000000;stroke-width:0.8;" x="677.567708" xlink:href="#mf47ed56413" y="445.4875"/>
      </g>
     </g>
     <g id="text_12">
      <!-- Weymouth - William Seach -->
      <g transform="translate(680.327083 587.367188)rotate(-90)scale(0.1 -0.1)">
       <use xlink:href="#DejaVuSans-57"/>
       <use x="98.798828" xlink:href="#DejaVuSans-65"/>
       <use x="160.322266" xlink:href="#DejaVuSans-79"/>
       <use x="219.501953" xlink:href="#DejaVuSans-6d"/>
       <use x="316.914062" xlink:href="#DejaVuSans-6f"/>
       <use x="378.095703" xlink:href="#DejaVuSans-75"/>
       <use x="441.474609" xlink:href="#DejaVuSans-74"/>
       <use x="480.683594" xlink:href="#DejaVuSans-68"/>
       <use x="544.0625" xlink:href="#DejaVuSans-20"/>
       <use x="575.849609" xlink:href="#DejaVuSans-2d"/>
       <use x="611.933594" xlink:href="#DejaVuSans-20"/>
       <use x="643.720703" xlink:href="#DejaVuSans-57"/>
       <use x="742.566406" xlink:href="#DejaVuSans-69"/>
       <use x="770.349609" xlink:href="#DejaVuSans-6c"/>
       <use x="798.132812" xlink:href="#DejaVuSans-6c"/>
       <use x="825.916016" xlink:href="#DejaVuSans-69"/>
       <use x="853.699219" xlink:href="#DejaVuSans-61"/>
       <use x="914.978516" xlink:href="#DejaVuSans-6d"/>
       <use x="1012.390625" xlink:href="#DejaVuSans-20"/>
       <use x="1044.177734" xlink:href="#DejaVuSans-53"/>
       <use x="1107.654297" xlink:href="#DejaVuSans-65"/>
       <use x="1169.177734" xlink:href="#DejaVuSans-61"/>
       <use x="1230.457031" xlink:href="#DejaVuSans-63"/>
       <use x="1285.4375" xlink:href="#DejaVuSans-68"/>
      </g>
     </g>
    </g>
   </g>
   <g id="matplotlib.axis_2">
    <g id="ytick_1">
     <g id="line2d_13">
      <defs>
       <path d="M 0 0 
L -3.5 0 
" id="m14172d0123" style="stroke:#000000;stroke-width:0.8;"/>
      </defs>
      <g>
       <use style="stroke:#000000;stroke-width:0.8;" x="30.525" xlink:href="#m14172d0123" y="445.4875"/>
      </g>
     </g>
     <g id="text_13">
      <!-- 0 -->
      <defs>
       <path d="M 31.78125 66.40625 
Q 24.171875 66.40625 20.328125 58.90625 
Q 16.5 51.421875 16.5 36.375 
Q 16.5 21.390625 20.328125 13.890625 
Q 24.171875 6.390625 31.78125 6.390625 
Q 39.453125 6.390625 43.28125 13.890625 
Q 47.125 21.390625 47.125 36.375 
Q 47.125 51.421875 43.28125 58.90625 
Q 39.453125 66.40625 31.78125 66.40625 
z
M 31.78125 74.21875 
Q 44.046875 74.21875 50.515625 64.515625 
Q 56.984375 54.828125 56.984375 36.375 
Q 56.984375 17.96875 50.515625 8.265625 
Q 44.046875 -1.421875 31.78125 -1.421875 
Q 19.53125 -1.421875 13.0625 8.265625 
Q 6.59375 17.96875 6.59375 36.375 
Q 6.59375 54.828125 13.0625 64.515625 
Q 19.53125 74.21875 31.78125 74.21875 
z
" id="DejaVuSans-30"/>
      </defs>
      <g transform="translate(17.1625 449.286719)scale(0.1 -0.1)">
       <use xlink:href="#DejaVuSans-30"/>
      </g>
     </g>
    </g>
    <g id="ytick_2">
     <g id="line2d_14">
      <g>
       <use style="stroke:#000000;stroke-width:0.8;" x="30.525" xlink:href="#m14172d0123" y="388.452116"/>
      </g>
     </g>
     <g id="text_14">
      <!-- 10 -->
      <defs>
       <path d="M 12.40625 8.296875 
L 28.515625 8.296875 
L 28.515625 63.921875 
L 10.984375 60.40625 
L 10.984375 69.390625 
L 28.421875 72.90625 
L 38.28125 72.90625 
L 38.28125 8.296875 
L 54.390625 8.296875 
L 54.390625 0 
L 12.40625 0 
z
" id="DejaVuSans-31"/>
      </defs>
      <g transform="translate(10.8 392.251335)scale(0.1 -0.1)">
       <use xlink:href="#DejaVuSans-31"/>
       <use x="63.623047" xlink:href="#DejaVuSans-30"/>
      </g>
     </g>
    </g>
    <g id="ytick_3">
     <g id="line2d_15">
      <g>
       <use style="stroke:#000000;stroke-width:0.8;" x="30.525" xlink:href="#m14172d0123" y="331.416733"/>
      </g>
     </g>
     <g id="text_15">
      <!-- 20 -->
      <defs>
       <path d="M 19.1875 8.296875 
L 53.609375 8.296875 
L 53.609375 0 
L 7.328125 0 
L 7.328125 8.296875 
Q 12.9375 14.109375 22.625 23.890625 
Q 32.328125 33.6875 34.8125 36.53125 
Q 39.546875 41.84375 41.421875 45.53125 
Q 43.3125 49.21875 43.3125 52.78125 
Q 43.3125 58.59375 39.234375 62.25 
Q 35.15625 65.921875 28.609375 65.921875 
Q 23.96875 65.921875 18.8125 64.3125 
Q 13.671875 62.703125 7.8125 59.421875 
L 7.8125 69.390625 
Q 13.765625 71.78125 18.9375 73 
Q 24.125 74.21875 28.421875 74.21875 
Q 39.75 74.21875 46.484375 68.546875 
Q 53.21875 62.890625 53.21875 53.421875 
Q 53.21875 48.921875 51.53125 44.890625 
Q 49.859375 40.875 45.40625 35.40625 
Q 44.1875 33.984375 37.640625 27.21875 
Q 31.109375 20.453125 19.1875 8.296875 
z
" id="DejaVuSans-32"/>
      </defs>
      <g transform="translate(10.8 335.215952)scale(0.1 -0.1)">
       <use xlink:href="#DejaVuSans-32"/>
       <use x="63.623047" xlink:href="#DejaVuSans-30"/>
      </g>
     </g>
    </g>
    <g id="ytick_4">
     <g id="line2d_16">
      <g>
       <use style="stroke:#000000;stroke-width:0.8;" x="30.525" xlink:href="#m14172d0123" y="274.381349"/>
      </g>
     </g>
     <g id="text_16">
      <!-- 30 -->
      <defs>
       <path d="M 40.578125 39.3125 
Q 47.65625 37.796875 51.625 33 
Q 55.609375 28.21875 55.609375 21.1875 
Q 55.609375 10.40625 48.1875 4.484375 
Q 40.765625 -1.421875 27.09375 -1.421875 
Q 22.515625 -1.421875 17.65625 -0.515625 
Q 12.796875 0.390625 7.625 2.203125 
L 7.625 11.71875 
Q 11.71875 9.328125 16.59375 8.109375 
Q 21.484375 6.890625 26.8125 6.890625 
Q 36.078125 6.890625 40.9375 10.546875 
Q 45.796875 14.203125 45.796875 21.1875 
Q 45.796875 27.640625 41.28125 31.265625 
Q 36.765625 34.90625 28.71875 34.90625 
L 20.21875 34.90625 
L 20.21875 43.015625 
L 29.109375 43.015625 
Q 36.375 43.015625 40.234375 45.921875 
Q 44.09375 48.828125 44.09375 54.296875 
Q 44.09375 59.90625 40.109375 62.90625 
Q 36.140625 65.921875 28.71875 65.921875 
Q 24.65625 65.921875 20.015625 65.03125 
Q 15.375 64.15625 9.8125 62.3125 
L 9.8125 71.09375 
Q 15.4375 72.65625 20.34375 73.4375 
Q 25.25 74.21875 29.59375 74.21875 
Q 40.828125 74.21875 47.359375 69.109375 
Q 53.90625 64.015625 53.90625 55.328125 
Q 53.90625 49.265625 50.4375 45.09375 
Q 46.96875 40.921875 40.578125 39.3125 
z
" id="DejaVuSans-33"/>
      </defs>
      <g transform="translate(10.8 278.180568)scale(0.1 -0.1)">
       <use xlink:href="#DejaVuSans-33"/>
       <use x="63.623047" xlink:href="#DejaVuSans-30"/>
      </g>
     </g>
    </g>
    <g id="ytick_5">
     <g id="line2d_17">
      <g>
       <use style="stroke:#000000;stroke-width:0.8;" x="30.525" xlink:href="#m14172d0123" y="217.345966"/>
      </g>
     </g>
     <g id="text_17">
      <!-- 40 -->
      <defs>
       <path d="M 37.796875 64.3125 
L 12.890625 25.390625 
L 37.796875 25.390625 
z
M 35.203125 72.90625 
L 47.609375 72.90625 
L 47.609375 25.390625 
L 58.015625 25.390625 
L 58.015625 17.1875 
L 47.609375 17.1875 
L 47.609375 0 
L 37.796875 0 
L 37.796875 17.1875 
L 4.890625 17.1875 
L 4.890625 26.703125 
z
" id="DejaVuSans-34"/>
      </defs>
      <g transform="translate(10.8 221.145184)scale(0.1 -0.1)">
       <use xlink:href="#DejaVuSans-34"/>
       <use x="63.623047" xlink:href="#DejaVuSans-30"/>
      </g>
     </g>
    </g>
    <g id="ytick_6">
     <g id="line2d_18">
      <g>
       <use style="stroke:#000000;stroke-width:0.8;" x="30.525" xlink:href="#m14172d0123" y="160.310582"/>
      </g>
     </g>
     <g id="text_18">
      <!-- 50 -->
      <defs>
       <path d="M 10.796875 72.90625 
L 49.515625 72.90625 
L 49.515625 64.59375 
L 19.828125 64.59375 
L 19.828125 46.734375 
Q 21.96875 47.46875 24.109375 47.828125 
Q 26.265625 48.1875 28.421875 48.1875 
Q 40.625 48.1875 47.75 41.5 
Q 54.890625 34.8125 54.890625 23.390625 
Q 54.890625 11.625 47.5625 5.09375 
Q 40.234375 -1.421875 26.90625 -1.421875 
Q 22.3125 -1.421875 17.546875 -0.640625 
Q 12.796875 0.140625 7.71875 1.703125 
L 7.71875 11.625 
Q 12.109375 9.234375 16.796875 8.0625 
Q 21.484375 6.890625 26.703125 6.890625 
Q 35.15625 6.890625 40.078125 11.328125 
Q 45.015625 15.765625 45.015625 23.390625 
Q 45.015625 31 40.078125 35.4375 
Q 35.15625 39.890625 26.703125 39.890625 
Q 22.75 39.890625 18.8125 39.015625 
Q 14.890625 38.140625 10.796875 36.28125 
z
" id="DejaVuSans-35"/>
      </defs>
      <g transform="translate(10.8 164.109801)scale(0.1 -0.1)">
       <use xlink:href="#DejaVuSans-35"/>
       <use x="63.623047" xlink:href="#DejaVuSans-30"/>
      </g>
     </g>
    </g>
    <g id="ytick_7">
     <g id="line2d_19">
      <g>
       <use style="stroke:#000000;stroke-width:0.8;" x="30.525" xlink:href="#m14172d0123" y="103.275198"/>
      </g>
     </g>
     <g id="text_19">
      <!-- 60 -->
      <defs>
       <path d="M 33.015625 40.375 
Q 26.375 40.375 22.484375 35.828125 
Q 18.609375 31.296875 18.609375 23.390625 
Q 18.609375 15.53125 22.484375 10.953125 
Q 26.375 6.390625 33.015625 6.390625 
Q 39.65625 6.390625 43.53125 10.953125 
Q 47.40625 15.53125 47.40625 23.390625 
Q 47.40625 31.296875 43.53125 35.828125 
Q 39.65625 40.375 33.015625 40.375 
z
M 52.59375 71.296875 
L 52.59375 62.3125 
Q 48.875 64.0625 45.09375 64.984375 
Q 41.3125 65.921875 37.59375 65.921875 
Q 27.828125 65.921875 22.671875 59.328125 
Q 17.53125 52.734375 16.796875 39.40625 
Q 19.671875 43.65625 24.015625 45.921875 
Q 28.375 48.1875 33.59375 48.1875 
Q 44.578125 48.1875 50.953125 41.515625 
Q 57.328125 34.859375 57.328125 23.390625 
Q 57.328125 12.15625 50.6875 5.359375 
Q 44.046875 -1.421875 33.015625 -1.421875 
Q 20.359375 -1.421875 13.671875 8.265625 
Q 6.984375 17.96875 6.984375 36.375 
Q 6.984375 53.65625 15.1875 63.9375 
Q 23.390625 74.21875 37.203125 74.21875 
Q 40.921875 74.21875 44.703125 73.484375 
Q 48.484375 72.75 52.59375 71.296875 
z
" id="DejaVuSans-36"/>
      </defs>
      <g transform="translate(10.8 107.074417)scale(0.1 -0.1)">
       <use xlink:href="#DejaVuSans-36"/>
       <use x="63.623047" xlink:href="#DejaVuSans-30"/>
      </g>
     </g>
    </g>
    <g id="ytick_8">
     <g id="line2d_20">
      <g>
       <use style="stroke:#000000;stroke-width:0.8;" x="30.525" xlink:href="#m14172d0123" y="46.239815"/>
      </g>
     </g>
     <g id="text_20">
      <!-- 70 -->
      <defs>
       <path d="M 8.203125 72.90625 
L 55.078125 72.90625 
L 55.078125 68.703125 
L 28.609375 0 
L 18.3125 0 
L 43.21875 64.59375 
L 8.203125 64.59375 
z
" id="DejaVuSans-37"/>
      </defs>
      <g transform="translate(10.8 50.039034)scale(0.1 -0.1)">
       <use xlink:href="#DejaVuSans-37"/>
       <use x="63.623047" xlink:href="#DejaVuSans-30"/>
      </g>
     </g>
    </g>
   </g>
   <g id="patch_39">
    <path d="M 30.525 445.4875 
L 30.525 14.3 
" style="fill:none;stroke:#000000;stroke-linecap:square;stroke-linejoin:miter;stroke-width:0.8;"/>
   </g>
   <g id="patch_40">
    <path d="M 705.7 445.4875 
L 705.7 14.3 
" style="fill:none;stroke:#000000;stroke-linecap:square;stroke-linejoin:miter;stroke-width:0.8;"/>
   </g>
   <g id="patch_41">
    <path d="M 30.525 445.4875 
L 705.7 445.4875 
" style="fill:none;stroke:#000000;stroke-linecap:square;stroke-linejoin:miter;stroke-width:0.8;"/>
   </g>
   <g id="patch_42">
    <path d="M 30.525 14.3 
L 705.7 14.3 
" style="fill:none;stroke:#000000;stroke-linecap:square;stroke-linejoin:miter;stroke-width:0.8;"/>
   </g>
   <g id="legend_1">
    <g id="patch_43">
     <path d="M 37.525 66.334375 
L 249.179688 66.334375 
Q 251.179688 66.334375 251.179688 64.334375 
L 251.179688 21.3 
Q 251.179688 19.3 249.179688 19.3 
L 37.525 19.3 
Q 35.525 19.3 35.525 21.3 
L 35.525 64.334375 
Q 35.525 66.334375 37.525 66.334375 
z
" style="fill:#ffffff;opacity:0.8;stroke:#cccccc;stroke-linejoin:miter;"/>
    </g>
    <g id="patch_44">
     <path d="M 39.525 30.898438 
L 59.525 30.898438 
L 59.525 23.898438 
L 39.525 23.898438 
z
" style="fill:#1f77b4;"/>
    </g>
    <g id="text_21">
     <!-- StudentsWithDisabilitiesPercent -->
     <defs>
      <path d="M 19.671875 64.796875 
L 19.671875 8.109375 
L 31.59375 8.109375 
Q 46.6875 8.109375 53.6875 14.9375 
Q 60.6875 21.78125 60.6875 36.53125 
Q 60.6875 51.171875 53.6875 57.984375 
Q 46.6875 64.796875 31.59375 64.796875 
z
M 9.8125 72.90625 
L 30.078125 72.90625 
Q 51.265625 72.90625 61.171875 64.09375 
Q 71.09375 55.28125 71.09375 36.53125 
Q 71.09375 17.671875 61.125 8.828125 
Q 51.171875 0 30.078125 0 
L 9.8125 0 
z
" id="DejaVuSans-44"/>
     </defs>
     <g transform="translate(67.525 30.898438)scale(0.1 -0.1)">
      <use xlink:href="#DejaVuSans-53"/>
      <use x="63.476562" xlink:href="#DejaVuSans-74"/>
      <use x="102.685547" xlink:href="#DejaVuSans-75"/>
      <use x="166.064453" xlink:href="#DejaVuSans-64"/>
      <use x="229.541016" xlink:href="#DejaVuSans-65"/>
      <use x="291.064453" xlink:href="#DejaVuSans-6e"/>
      <use x="354.443359" xlink:href="#DejaVuSans-74"/>
      <use x="393.652344" xlink:href="#DejaVuSans-73"/>
      <use x="445.751953" xlink:href="#DejaVuSans-57"/>
      <use x="544.597656" xlink:href="#DejaVuSans-69"/>
      <use x="572.380859" xlink:href="#DejaVuSans-74"/>
      <use x="611.589844" xlink:href="#DejaVuSans-68"/>
      <use x="674.96875" xlink:href="#DejaVuSans-44"/>
      <use x="751.970703" xlink:href="#DejaVuSans-69"/>
      <use x="779.753906" xlink:href="#DejaVuSans-73"/>
      <use x="831.853516" xlink:href="#DejaVuSans-61"/>
      <use x="893.132812" xlink:href="#DejaVuSans-62"/>
      <use x="956.609375" xlink:href="#DejaVuSans-69"/>
      <use x="984.392578" xlink:href="#DejaVuSans-6c"/>
      <use x="1012.175781" xlink:href="#DejaVuSans-69"/>
      <use x="1039.958984" xlink:href="#DejaVuSans-74"/>
      <use x="1079.167969" xlink:href="#DejaVuSans-69"/>
      <use x="1106.951172" xlink:href="#DejaVuSans-65"/>
      <use x="1168.474609" xlink:href="#DejaVuSans-73"/>
      <use x="1220.574219" xlink:href="#DejaVuSans-50"/>
      <use x="1280.830078" xlink:href="#DejaVuSans-65"/>
      <use x="1342.353516" xlink:href="#DejaVuSans-72"/>
      <use x="1383.435547" xlink:href="#DejaVuSans-63"/>
      <use x="1438.416016" xlink:href="#DejaVuSans-65"/>
      <use x="1499.939453" xlink:href="#DejaVuSans-6e"/>
      <use x="1563.318359" xlink:href="#DejaVuSans-74"/>
     </g>
    </g>
    <g id="patch_45">
     <path d="M 39.525 45.576563 
L 59.525 45.576563 
L 59.525 38.576563 
L 39.525 38.576563 
z
" style="fill:#ff7f0e;"/>
    </g>
    <g id="text_22">
     <!-- HighNeedsPercent -->
     <g transform="translate(67.525 45.576563)scale(0.1 -0.1)">
      <use xlink:href="#DejaVuSans-48"/>
      <use x="75.195312" xlink:href="#DejaVuSans-69"/>
      <use x="102.978516" xlink:href="#DejaVuSans-67"/>
      <use x="166.455078" xlink:href="#DejaVuSans-68"/>
      <use x="229.833984" xlink:href="#DejaVuSans-4e"/>
      <use x="304.638672" xlink:href="#DejaVuSans-65"/>
      <use x="366.162109" xlink:href="#DejaVuSans-65"/>
      <use x="427.685547" xlink:href="#DejaVuSans-64"/>
      <use x="491.162109" xlink:href="#DejaVuSans-73"/>
      <use x="543.261719" xlink:href="#DejaVuSans-50"/>
      <use x="603.517578" xlink:href="#DejaVuSans-65"/>
      <use x="665.041016" xlink:href="#DejaVuSans-72"/>
      <use x="706.123047" xlink:href="#DejaVuSans-63"/>
      <use x="761.103516" xlink:href="#DejaVuSans-65"/>
      <use x="822.626953" xlink:href="#DejaVuSans-6e"/>
      <use x="886.005859" xlink:href="#DejaVuSans-74"/>
     </g>
    </g>
    <g id="patch_46">
     <path d="M 39.525 60.254688 
L 59.525 60.254688 
L 59.525 53.254688 
L 39.525 53.254688 
z
" style="fill:#2ca02c;"/>
    </g>
    <g id="text_23">
     <!-- EconomicallyDisadvantagedPercent -->
     <g transform="translate(67.525 60.254688)scale(0.1 -0.1)">
      <use xlink:href="#DejaVuSans-45"/>
      <use x="63.183594" xlink:href="#DejaVuSans-63"/>
      <use x="118.164062" xlink:href="#DejaVuSans-6f"/>
      <use x="179.345703" xlink:href="#DejaVuSans-6e"/>
      <use x="242.724609" xlink:href="#DejaVuSans-6f"/>
      <use x="303.90625" xlink:href="#DejaVuSans-6d"/>
      <use x="401.318359" xlink:href="#DejaVuSans-69"/>
      <use x="429.101562" xlink:href="#DejaVuSans-63"/>
      <use x="484.082031" xlink:href="#DejaVuSans-61"/>
      <use x="545.361328" xlink:href="#DejaVuSans-6c"/>
      <use x="573.144531" xlink:href="#DejaVuSans-6c"/>
      <use x="600.927734" xlink:href="#DejaVuSans-79"/>
      <use x="660.107422" xlink:href="#DejaVuSans-44"/>
      <use x="737.109375" xlink:href="#DejaVuSans-69"/>
      <use x="764.892578" xlink:href="#DejaVuSans-73"/>
      <use x="816.992188" xlink:href="#DejaVuSans-61"/>
      <use x="878.271484" xlink:href="#DejaVuSans-64"/>
      <use x="941.748047" xlink:href="#DejaVuSans-76"/>
      <use x="1000.927734" xlink:href="#DejaVuSans-61"/>
      <use x="1062.207031" xlink:href="#DejaVuSans-6e"/>
      <use x="1125.585938" xlink:href="#DejaVuSans-74"/>
      <use x="1164.794922" xlink:href="#DejaVuSans-61"/>
      <use x="1226.074219" xlink:href="#DejaVuSans-67"/>
      <use x="1289.550781" xlink:href="#DejaVuSans-65"/>
      <use x="1351.074219" xlink:href="#DejaVuSans-64"/>
      <use x="1414.550781" xlink:href="#DejaVuSans-50"/>
      <use x="1474.806641" xlink:href="#DejaVuSans-65"/>
      <use x="1536.330078" xlink:href="#DejaVuSans-72"/>
      <use x="1577.412109" xlink:href="#DejaVuSans-63"/>
      <use x="1632.392578" xlink:href="#DejaVuSans-65"/>
      <use x="1693.916016" xlink:href="#DejaVuSans-6e"/>
      <use x="1757.294922" xlink:href="#DejaVuSans-74"/>
     </g>
    </g>
   </g>
  </g>
 </g>
 <defs>
  <clipPath id="pc70c02dc6b">
   <rect height="431.1875" width="675.175" x="30.525" y="14.3"/>
  </clipPath>
 </defs>
</svg>
