<?xml version="1.0" encoding="utf-8" standalone="no"?>
<!DOCTYPE svg PUBLIC "-//W3C//DTD SVG 1.1//EN"
  "http://www.w3.org/Graphics/SVG/1.1/DTD/svg11.dtd">
<!-- Created with matplotlib (http://matplotlib.org/) -->
<svg height="720pt" version="1.1" viewBox="0 0 720 720" width="720pt" xmlns="http://www.w3.org/2000/svg" xmlns:xlink="http://www.w3.org/1999/xlink">
 <defs>
  <style type="text/css">
*{stroke-linecap:butt;stroke-linejoin:round;}
  </style>
 </defs>
 <g id="figure_1">
  <g id="patch_1">
   <path d="M 0 720 
L 720 720 
L 720 0 
L 0 0 
z
" style="fill:#ffffff;"/>
  </g>
  <g id="axes_1">
   <g id="patch_2">
    <path d="M 36.8875 457.50625 
L 705.7 457.50625 
L 705.7 14.3 
L 36.8875 14.3 
z
" style="fill:#ffffff;"/>
   </g>
   <g id="patch_3">
    <path clip-path="url(#p228d355dcd)" d="M 50.821094 457.50625 
L 78.688281 457.50625 
L 78.688281 420.782562 
L 50.821094 420.782562 
z
" style="fill:#1f77b4;"/>
   </g>
   <g id="patch_4">
    <path clip-path="url(#p228d355dcd)" d="M 106.555469 457.50625 
L 134.422656 457.50625 
L 134.422656 399.102312 
L 106.555469 399.102312 
z
" style="fill:#1f77b4;"/>
   </g>
   <g id="patch_5">
    <path clip-path="url(#p228d355dcd)" d="M 162.289844 457.50625 
L 190.157031 457.50625 
L 190.157031 425.207102 
L 162.289844 425.207102 
z
" style="fill:#1f77b4;"/>
   </g>
   <g id="patch_6">
    <path clip-path="url(#p228d355dcd)" d="M 218.024219 457.50625 
L 245.891406 457.50625 
L 245.891406 407.508939 
L 218.024219 407.508939 
z
" style="fill:#1f77b4;"/>
   </g>
   <g id="patch_7">
    <path clip-path="url(#p228d355dcd)" d="M 273.758594 457.50625 
L 301.625781 457.50625 
L 301.625781 396.890041 
L 273.758594 396.890041 
z
" style="fill:#1f77b4;"/>
   </g>
   <g id="patch_8">
    <path clip-path="url(#p228d355dcd)" d="M 329.492969 457.50625 
L 357.360156 457.50625 
L 357.360156 410.163664 
L 329.492969 410.163664 
z
" style="fill:#1f77b4;"/>
   </g>
   <g id="patch_9">
    <path clip-path="url(#p228d355dcd)" d="M 385.227344 457.50625 
L 413.094531 457.50625 
L 413.094531 441.135449 
L 385.227344 441.135449 
z
" style="fill:#1f77b4;"/>
   </g>
   <g id="patch_10">
    <path clip-path="url(#p228d355dcd)" d="M 440.961719 457.50625 
L 468.828906 457.50625 
L 468.828906 375.652246 
L 440.961719 375.652246 
z
" style="fill:#1f77b4;"/>
   </g>
   <g id="patch_11">
    <path clip-path="url(#p228d355dcd)" d="M 496.696094 457.50625 
L 524.563281 457.50625 
L 524.563281 446.887352 
L 496.696094 446.887352 
z
" style="fill:#1f77b4;"/>
   </g>
   <g id="patch_12">
    <path clip-path="url(#p228d355dcd)" d="M 552.430469 457.50625 
L 580.297656 457.50625 
L 580.297656 399.102312 
L 552.430469 399.102312 
z
" style="fill:#1f77b4;"/>
   </g>
   <g id="patch_13">
    <path clip-path="url(#p228d355dcd)" d="M 608.164844 457.50625 
L 636.032031 457.50625 
L 636.032031 410.163664 
L 608.164844 410.163664 
z
" style="fill:#1f77b4;"/>
   </g>
   <g id="patch_14">
    <path clip-path="url(#p228d355dcd)" d="M 663.899219 457.50625 
L 691.766406 457.50625 
L 691.766406 435.383546 
L 663.899219 435.383546 
z
" style="fill:#1f77b4;"/>
   </g>
   <g id="patch_15">
    <path clip-path="url(#p228d355dcd)" d="M 50.821094 420.782562 
L 78.688281 420.782562 
L 78.688281 411.491026 
L 50.821094 411.491026 
z
" style="fill:#ff7f0e;"/>
   </g>
   <g id="patch_16">
    <path clip-path="url(#p228d355dcd)" d="M 106.555469 399.102312 
L 134.422656 399.102312 
L 134.422656 395.120225 
L 106.555469 395.120225 
z
" style="fill:#ff7f0e;"/>
   </g>
   <g id="patch_17">
    <path clip-path="url(#p228d355dcd)" d="M 162.289844 425.207102 
L 190.157031 425.207102 
L 190.157031 421.225016 
L 162.289844 421.225016 
z
" style="fill:#ff7f0e;"/>
   </g>
   <g id="patch_18">
    <path clip-path="url(#p228d355dcd)" d="M 218.024219 407.508939 
L 245.891406 407.508939 
L 245.891406 403.526852 
L 218.024219 403.526852 
z
" style="fill:#ff7f0e;"/>
   </g>
   <g id="patch_19">
    <path clip-path="url(#p228d355dcd)" d="M 273.758594 396.890041 
L 301.625781 396.890041 
L 301.625781 394.677771 
L 273.758594 394.677771 
z
" style="fill:#ff7f0e;"/>
   </g>
   <g id="patch_20">
    <path clip-path="url(#p228d355dcd)" d="M 329.492969 410.163664 
L 357.360156 410.163664 
L 357.360156 401.314582 
L 329.492969 401.314582 
z
" style="fill:#ff7f0e;"/>
   </g>
   <g id="patch_21">
    <path clip-path="url(#p228d355dcd)" d="M 385.227344 457.50625 
L 413.094531 457.50625 
L 413.094531 457.50625 
L 385.227344 457.50625 
z
" style="fill:#ff7f0e;"/>
   </g>
   <g id="patch_22">
    <path clip-path="url(#p228d355dcd)" d="M 440.961719 375.652246 
L 468.828906 375.652246 
L 468.828906 370.785251 
L 440.961719 370.785251 
z
" style="fill:#ff7f0e;"/>
   </g>
   <g id="patch_23">
    <path clip-path="url(#p228d355dcd)" d="M 496.696094 446.887352 
L 524.563281 446.887352 
L 524.563281 439.808087 
L 496.696094 439.808087 
z
" style="fill:#ff7f0e;"/>
   </g>
   <g id="patch_24">
    <path clip-path="url(#p228d355dcd)" d="M 552.430469 399.102312 
L 580.297656 399.102312 
L 580.297656 394.235317 
L 552.430469 394.235317 
z
" style="fill:#ff7f0e;"/>
   </g>
   <g id="patch_25">
    <path clip-path="url(#p228d355dcd)" d="M 608.164844 410.163664 
L 636.032031 410.163664 
L 636.032031 404.854215 
L 608.164844 404.854215 
z
" style="fill:#ff7f0e;"/>
   </g>
   <g id="patch_26">
    <path clip-path="url(#p228d355dcd)" d="M 663.899219 435.383546 
L 691.766406 435.383546 
L 691.766406 415.915567 
L 663.899219 415.915567 
z
" style="fill:#ff7f0e;"/>
   </g>
   <g id="patch_27">
    <path clip-path="url(#p228d355dcd)" d="M 50.821094 411.491026 
L 78.688281 411.491026 
L 78.688281 124.338329 
L 50.821094 124.338329 
z
" style="fill:#2ca02c;"/>
   </g>
   <g id="patch_28">
    <path clip-path="url(#p228d355dcd)" d="M 106.555469 395.120225 
L 134.422656 395.120225 
L 134.422656 157.079931 
L 106.555469 157.079931 
z
" style="fill:#2ca02c;"/>
   </g>
   <g id="patch_29">
    <path clip-path="url(#p228d355dcd)" d="M 162.289844 421.225016 
L 190.157031 421.225016 
L 190.157031 88.499549 
L 162.289844 88.499549 
z
" style="fill:#2ca02c;"/>
   </g>
   <g id="patch_30">
    <path clip-path="url(#p228d355dcd)" d="M 218.024219 403.526852 
L 245.891406 403.526852 
L 245.891406 113.276977 
L 218.024219 113.276977 
z
" style="fill:#2ca02c;"/>
   </g>
   <g id="patch_31">
    <path clip-path="url(#p228d355dcd)" d="M 273.758594 394.677771 
L 301.625781 394.677771 
L 301.625781 165.044104 
L 273.758594 165.044104 
z
" style="fill:#2ca02c;"/>
   </g>
   <g id="patch_32">
    <path clip-path="url(#p228d355dcd)" d="M 329.492969 401.314582 
L 357.360156 401.314582 
L 357.360156 91.154273 
L 329.492969 91.154273 
z
" style="fill:#2ca02c;"/>
   </g>
   <g id="patch_33">
    <path clip-path="url(#p228d355dcd)" d="M 385.227344 441.135449 
L 413.094531 441.135449 
L 413.094531 95.13636 
L 385.227344 95.13636 
z
" style="fill:#2ca02c;"/>
   </g>
   <g id="patch_34">
    <path clip-path="url(#p228d355dcd)" d="M 440.961719 370.785251 
L 468.828906 370.785251 
L 468.828906 193.361165 
L 440.961719 193.361165 
z
" style="fill:#2ca02c;"/>
   </g>
   <g id="patch_35">
    <path clip-path="url(#p228d355dcd)" d="M 496.696094 439.808087 
L 524.563281 439.808087 
L 524.563281 84.075008 
L 496.696094 84.075008 
z
" style="fill:#2ca02c;"/>
   </g>
   <g id="patch_36">
    <path clip-path="url(#p228d355dcd)" d="M 552.430469 394.235317 
L 580.297656 394.235317 
L 580.297656 95.578814 
L 552.430469 95.578814 
z
" style="fill:#2ca02c;"/>
   </g>
   <g id="patch_37">
    <path clip-path="url(#p228d355dcd)" d="M 608.164844 404.854215 
L 636.032031 404.854215 
L 636.032031 99.118447 
L 608.164844 99.118447 
z
" style="fill:#2ca02c;"/>
   </g>
   <g id="patch_38">
    <path clip-path="url(#p228d355dcd)" d="M 663.899219 415.915567 
L 691.766406 415.915567 
L 691.766406 73.45611 
L 663.899219 73.45611 
z
" style="fill:#2ca02c;"/>
   </g>
   <g id="patch_39">
    <path clip-path="url(#p228d355dcd)" d="M 50.821094 124.338329 
L 78.688281 124.338329 
L 78.688281 70.358932 
L 50.821094 70.358932 
z
" style="fill:#d62728;"/>
   </g>
   <g id="patch_40">
    <path clip-path="url(#p228d355dcd)" d="M 106.555469 157.079931 
L 134.422656 157.079931 
L 134.422656 70.801386 
L 106.555469 70.801386 
z
" style="fill:#d62728;"/>
   </g>
   <g id="patch_41">
    <path clip-path="url(#p228d355dcd)" d="M 162.289844 88.499549 
L 190.157031 88.499549 
L 190.157031 42.484325 
L 162.289844 42.484325 
z
" style="fill:#d62728;"/>
   </g>
   <g id="patch_42">
    <path clip-path="url(#p228d355dcd)" d="M 218.024219 113.276977 
L 245.891406 113.276977 
L 245.891406 60.182488 
L 218.024219 60.182488 
z
" style="fill:#d62728;"/>
   </g>
   <g id="patch_43">
    <path clip-path="url(#p228d355dcd)" d="M 273.758594 165.044104 
L 301.625781 165.044104 
L 301.625781 70.358932 
L 273.758594 70.358932 
z
" style="fill:#d62728;"/>
   </g>
   <g id="patch_44">
    <path clip-path="url(#p228d355dcd)" d="M 329.492969 91.154273 
L 357.360156 91.154273 
L 357.360156 35.40506 
L 329.492969 35.40506 
z
" style="fill:#d62728;"/>
   </g>
   <g id="patch_45">
    <path clip-path="url(#p228d355dcd)" d="M 385.227344 95.13636 
L 413.094531 95.13636 
L 413.094531 60.182488 
L 385.227344 60.182488 
z
" style="fill:#d62728;"/>
   </g>
   <g id="patch_46">
    <path clip-path="url(#p228d355dcd)" d="M 440.961719 193.361165 
L 468.828906 193.361165 
L 468.828906 85.844824 
L 440.961719 85.844824 
z
" style="fill:#d62728;"/>
   </g>
   <g id="patch_47">
    <path clip-path="url(#p228d355dcd)" d="M 496.696094 84.075008 
L 524.563281 84.075008 
L 524.563281 46.023957 
L 496.696094 46.023957 
z
" style="fill:#d62728;"/>
   </g>
   <g id="patch_48">
    <path clip-path="url(#p228d355dcd)" d="M 552.430469 95.578814 
L 580.297656 95.578814 
L 580.297656 50.448498 
L 552.430469 50.448498 
z
" style="fill:#d62728;"/>
   </g>
   <g id="patch_49">
    <path clip-path="url(#p228d355dcd)" d="M 608.164844 99.118447 
L 636.032031 99.118447 
L 636.032031 48.236228 
L 608.164844 48.236228 
z
" style="fill:#d62728;"/>
   </g>
   <g id="patch_50">
    <path clip-path="url(#p228d355dcd)" d="M 663.899219 73.45611 
L 691.766406 73.45611 
L 691.766406 50.006044 
L 663.899219 50.006044 
z
" style="fill:#d62728;"/>
   </g>
   <g id="matplotlib.axis_1">
    <g id="xtick_1">
     <g id="line2d_1">
      <defs>
       <path d="M 0 0 
L 0 3.5 
" id="m238de8c807" style="stroke:#000000;stroke-width:0.8;"/>
      </defs>
      <g>
       <use style="stroke:#000000;stroke-width:0.8;" x="64.754688" xlink:href="#m238de8c807" y="457.50625"/>
      </g>
     </g>
     <g id="text_1">
      <!-- Pittsfield - Allendale -->
      <defs>
       <path d="M 19.671875 64.796875 
L 19.671875 37.40625 
L 32.078125 37.40625 
Q 38.96875 37.40625 42.71875 40.96875 
Q 46.484375 44.53125 46.484375 51.125 
Q 46.484375 57.671875 42.71875 61.234375 
Q 38.96875 64.796875 32.078125 64.796875 
z
M 9.8125 72.90625 
L 32.078125 72.90625 
Q 44.34375 72.90625 50.609375 67.359375 
Q 56.890625 61.8125 56.890625 51.125 
Q 56.890625 40.328125 50.609375 34.8125 
Q 44.34375 29.296875 32.078125 29.296875 
L 19.671875 29.296875 
L 19.671875 0 
L 9.8125 0 
z
" id="DejaVuSans-50"/>
       <path d="M 9.421875 54.6875 
L 18.40625 54.6875 
L 18.40625 0 
L 9.421875 0 
z
M 9.421875 75.984375 
L 18.40625 75.984375 
L 18.40625 64.59375 
L 9.421875 64.59375 
z
" id="DejaVuSans-69"/>
       <path d="M 18.3125 70.21875 
L 18.3125 54.6875 
L 36.8125 54.6875 
L 36.8125 47.703125 
L 18.3125 47.703125 
L 18.3125 18.015625 
Q 18.3125 11.328125 20.140625 9.421875 
Q 21.96875 7.515625 27.59375 7.515625 
L 36.8125 7.515625 
L 36.8125 0 
L 27.59375 0 
Q 17.1875 0 13.234375 3.875 
Q 9.28125 7.765625 9.28125 18.015625 
L 9.28125 47.703125 
L 2.6875 47.703125 
L 2.6875 54.6875 
L 9.28125 54.6875 
L 9.28125 70.21875 
z
" id="DejaVuSans-74"/>
       <path d="M 44.28125 53.078125 
L 44.28125 44.578125 
Q 40.484375 46.53125 36.375 47.5 
Q 32.28125 48.484375 27.875 48.484375 
Q 21.1875 48.484375 17.84375 46.4375 
Q 14.5 44.390625 14.5 40.28125 
Q 14.5 37.15625 16.890625 35.375 
Q 19.28125 33.59375 26.515625 31.984375 
L 29.59375 31.296875 
Q 39.15625 29.25 43.1875 25.515625 
Q 47.21875 21.78125 47.21875 15.09375 
Q 47.21875 7.46875 41.1875 3.015625 
Q 35.15625 -1.421875 24.609375 -1.421875 
Q 20.21875 -1.421875 15.453125 -0.5625 
Q 10.6875 0.296875 5.421875 2 
L 5.421875 11.28125 
Q 10.40625 8.6875 15.234375 7.390625 
Q 20.0625 6.109375 24.8125 6.109375 
Q 31.15625 6.109375 34.5625 8.28125 
Q 37.984375 10.453125 37.984375 14.40625 
Q 37.984375 18.0625 35.515625 20.015625 
Q 33.0625 21.96875 24.703125 23.78125 
L 21.578125 24.515625 
Q 13.234375 26.265625 9.515625 29.90625 
Q 5.8125 33.546875 5.8125 39.890625 
Q 5.8125 47.609375 11.28125 51.796875 
Q 16.75 56 26.8125 56 
Q 31.78125 56 36.171875 55.265625 
Q 40.578125 54.546875 44.28125 53.078125 
z
" id="DejaVuSans-73"/>
       <path d="M 37.109375 75.984375 
L 37.109375 68.5 
L 28.515625 68.5 
Q 23.6875 68.5 21.796875 66.546875 
Q 19.921875 64.59375 19.921875 59.515625 
L 19.921875 54.6875 
L 34.71875 54.6875 
L 34.71875 47.703125 
L 19.921875 47.703125 
L 19.921875 0 
L 10.890625 0 
L 10.890625 47.703125 
L 2.296875 47.703125 
L 2.296875 54.6875 
L 10.890625 54.6875 
L 10.890625 58.5 
Q 10.890625 67.625 15.140625 71.796875 
Q 19.390625 75.984375 28.609375 75.984375 
z
" id="DejaVuSans-66"/>
       <path d="M 56.203125 29.59375 
L 56.203125 25.203125 
L 14.890625 25.203125 
Q 15.484375 15.921875 20.484375 11.0625 
Q 25.484375 6.203125 34.421875 6.203125 
Q 39.59375 6.203125 44.453125 7.46875 
Q 49.3125 8.734375 54.109375 11.28125 
L 54.109375 2.78125 
Q 49.265625 0.734375 44.1875 -0.34375 
Q 39.109375 -1.421875 33.890625 -1.421875 
Q 20.796875 -1.421875 13.15625 6.1875 
Q 5.515625 13.8125 5.515625 26.8125 
Q 5.515625 40.234375 12.765625 48.109375 
Q 20.015625 56 32.328125 56 
Q 43.359375 56 49.78125 48.890625 
Q 56.203125 41.796875 56.203125 29.59375 
z
M 47.21875 32.234375 
Q 47.125 39.59375 43.09375 43.984375 
Q 39.0625 48.390625 32.421875 48.390625 
Q 24.90625 48.390625 20.390625 44.140625 
Q 15.875 39.890625 15.1875 32.171875 
z
" id="DejaVuSans-65"/>
       <path d="M 9.421875 75.984375 
L 18.40625 75.984375 
L 18.40625 0 
L 9.421875 0 
z
" id="DejaVuSans-6c"/>
       <path d="M 45.40625 46.390625 
L 45.40625 75.984375 
L 54.390625 75.984375 
L 54.390625 0 
L 45.40625 0 
L 45.40625 8.203125 
Q 42.578125 3.328125 38.25 0.953125 
Q 33.9375 -1.421875 27.875 -1.421875 
Q 17.96875 -1.421875 11.734375 6.484375 
Q 5.515625 14.40625 5.515625 27.296875 
Q 5.515625 40.1875 11.734375 48.09375 
Q 17.96875 56 27.875 56 
Q 33.9375 56 38.25 53.625 
Q 42.578125 51.265625 45.40625 46.390625 
z
M 14.796875 27.296875 
Q 14.796875 17.390625 18.875 11.75 
Q 22.953125 6.109375 30.078125 6.109375 
Q 37.203125 6.109375 41.296875 11.75 
Q 45.40625 17.390625 45.40625 27.296875 
Q 45.40625 37.203125 41.296875 42.84375 
Q 37.203125 48.484375 30.078125 48.484375 
Q 22.953125 48.484375 18.875 42.84375 
Q 14.796875 37.203125 14.796875 27.296875 
z
" id="DejaVuSans-64"/>
       <path id="DejaVuSans-20"/>
       <path d="M 4.890625 31.390625 
L 31.203125 31.390625 
L 31.203125 23.390625 
L 4.890625 23.390625 
z
" id="DejaVuSans-2d"/>
       <path d="M 34.1875 63.1875 
L 20.796875 26.90625 
L 47.609375 26.90625 
z
M 28.609375 72.90625 
L 39.796875 72.90625 
L 67.578125 0 
L 57.328125 0 
L 50.6875 18.703125 
L 17.828125 18.703125 
L 11.1875 0 
L 0.78125 0 
z
" id="DejaVuSans-41"/>
       <path d="M 54.890625 33.015625 
L 54.890625 0 
L 45.90625 0 
L 45.90625 32.71875 
Q 45.90625 40.484375 42.875 44.328125 
Q 39.84375 48.1875 33.796875 48.1875 
Q 26.515625 48.1875 22.3125 43.546875 
Q 18.109375 38.921875 18.109375 30.90625 
L 18.109375 0 
L 9.078125 0 
L 9.078125 54.6875 
L 18.109375 54.6875 
L 18.109375 46.1875 
Q 21.34375 51.125 25.703125 53.5625 
Q 30.078125 56 35.796875 56 
Q 45.21875 56 50.046875 50.171875 
Q 54.890625 44.34375 54.890625 33.015625 
z
" id="DejaVuSans-6e"/>
       <path d="M 34.28125 27.484375 
Q 23.390625 27.484375 19.1875 25 
Q 14.984375 22.515625 14.984375 16.5 
Q 14.984375 11.71875 18.140625 8.90625 
Q 21.296875 6.109375 26.703125 6.109375 
Q 34.1875 6.109375 38.703125 11.40625 
Q 43.21875 16.703125 43.21875 25.484375 
L 43.21875 27.484375 
z
M 52.203125 31.203125 
L 52.203125 0 
L 43.21875 0 
L 43.21875 8.296875 
Q 40.140625 3.328125 35.546875 0.953125 
Q 30.953125 -1.421875 24.3125 -1.421875 
Q 15.921875 -1.421875 10.953125 3.296875 
Q 6 8.015625 6 15.921875 
Q 6 25.140625 12.171875 29.828125 
Q 18.359375 34.515625 30.609375 34.515625 
L 43.21875 34.515625 
L 43.21875 35.40625 
Q 43.21875 41.609375 39.140625 45 
Q 35.0625 48.390625 27.6875 48.390625 
Q 23 48.390625 18.546875 47.265625 
Q 14.109375 46.140625 10.015625 43.890625 
L 10.015625 52.203125 
Q 14.9375 54.109375 19.578125 55.046875 
Q 24.21875 56 28.609375 56 
Q 40.484375 56 46.34375 49.84375 
Q 52.203125 43.703125 52.203125 31.203125 
z
" id="DejaVuSans-61"/>
      </defs>
      <g transform="translate(67.514062 564.198437)rotate(-90)scale(0.1 -0.1)">
       <use xlink:href="#DejaVuSans-50"/>
       <use x="60.271484" xlink:href="#DejaVuSans-69"/>
       <use x="88.054688" xlink:href="#DejaVuSans-74"/>
       <use x="127.263672" xlink:href="#DejaVuSans-74"/>
       <use x="166.472656" xlink:href="#DejaVuSans-73"/>
       <use x="218.572266" xlink:href="#DejaVuSans-66"/>
       <use x="253.777344" xlink:href="#DejaVuSans-69"/>
       <use x="281.560547" xlink:href="#DejaVuSans-65"/>
       <use x="343.083984" xlink:href="#DejaVuSans-6c"/>
       <use x="370.867188" xlink:href="#DejaVuSans-64"/>
       <use x="434.34375" xlink:href="#DejaVuSans-20"/>
       <use x="466.130859" xlink:href="#DejaVuSans-2d"/>
       <use x="502.214844" xlink:href="#DejaVuSans-20"/>
       <use x="534.001953" xlink:href="#DejaVuSans-41"/>
       <use x="602.410156" xlink:href="#DejaVuSans-6c"/>
       <use x="630.193359" xlink:href="#DejaVuSans-6c"/>
       <use x="657.976562" xlink:href="#DejaVuSans-65"/>
       <use x="719.5" xlink:href="#DejaVuSans-6e"/>
       <use x="782.878906" xlink:href="#DejaVuSans-64"/>
       <use x="846.355469" xlink:href="#DejaVuSans-61"/>
       <use x="907.634766" xlink:href="#DejaVuSans-6c"/>
       <use x="935.417969" xlink:href="#DejaVuSans-65"/>
      </g>
     </g>
    </g>
    <g id="xtick_2">
     <g id="line2d_2">
      <g>
       <use style="stroke:#000000;stroke-width:0.8;" x="120.489063" xlink:href="#m238de8c807" y="457.50625"/>
      </g>
     </g>
     <g id="text_2">
      <!-- Pittsfield - Crosby -->
      <defs>
       <path d="M 64.40625 67.28125 
L 64.40625 56.890625 
Q 59.421875 61.53125 53.78125 63.8125 
Q 48.140625 66.109375 41.796875 66.109375 
Q 29.296875 66.109375 22.65625 58.46875 
Q 16.015625 50.828125 16.015625 36.375 
Q 16.015625 21.96875 22.65625 14.328125 
Q 29.296875 6.6875 41.796875 6.6875 
Q 48.140625 6.6875 53.78125 8.984375 
Q 59.421875 11.28125 64.40625 15.921875 
L 64.40625 5.609375 
Q 59.234375 2.09375 53.4375 0.328125 
Q 47.65625 -1.421875 41.21875 -1.421875 
Q 24.65625 -1.421875 15.125 8.703125 
Q 5.609375 18.84375 5.609375 36.375 
Q 5.609375 53.953125 15.125 64.078125 
Q 24.65625 74.21875 41.21875 74.21875 
Q 47.75 74.21875 53.53125 72.484375 
Q 59.328125 70.75 64.40625 67.28125 
z
" id="DejaVuSans-43"/>
       <path d="M 41.109375 46.296875 
Q 39.59375 47.171875 37.8125 47.578125 
Q 36.03125 48 33.890625 48 
Q 26.265625 48 22.1875 43.046875 
Q 18.109375 38.09375 18.109375 28.8125 
L 18.109375 0 
L 9.078125 0 
L 9.078125 54.6875 
L 18.109375 54.6875 
L 18.109375 46.1875 
Q 20.953125 51.171875 25.484375 53.578125 
Q 30.03125 56 36.53125 56 
Q 37.453125 56 38.578125 55.875 
Q 39.703125 55.765625 41.0625 55.515625 
z
" id="DejaVuSans-72"/>
       <path d="M 30.609375 48.390625 
Q 23.390625 48.390625 19.1875 42.75 
Q 14.984375 37.109375 14.984375 27.296875 
Q 14.984375 17.484375 19.15625 11.84375 
Q 23.34375 6.203125 30.609375 6.203125 
Q 37.796875 6.203125 41.984375 11.859375 
Q 46.1875 17.53125 46.1875 27.296875 
Q 46.1875 37.015625 41.984375 42.703125 
Q 37.796875 48.390625 30.609375 48.390625 
z
M 30.609375 56 
Q 42.328125 56 49.015625 48.375 
Q 55.71875 40.765625 55.71875 27.296875 
Q 55.71875 13.875 49.015625 6.21875 
Q 42.328125 -1.421875 30.609375 -1.421875 
Q 18.84375 -1.421875 12.171875 6.21875 
Q 5.515625 13.875 5.515625 27.296875 
Q 5.515625 40.765625 12.171875 48.375 
Q 18.84375 56 30.609375 56 
z
" id="DejaVuSans-6f"/>
       <path d="M 48.6875 27.296875 
Q 48.6875 37.203125 44.609375 42.84375 
Q 40.53125 48.484375 33.40625 48.484375 
Q 26.265625 48.484375 22.1875 42.84375 
Q 18.109375 37.203125 18.109375 27.296875 
Q 18.109375 17.390625 22.1875 11.75 
Q 26.265625 6.109375 33.40625 6.109375 
Q 40.53125 6.109375 44.609375 11.75 
Q 48.6875 17.390625 48.6875 27.296875 
z
M 18.109375 46.390625 
Q 20.953125 51.265625 25.265625 53.625 
Q 29.59375 56 35.59375 56 
Q 45.5625 56 51.78125 48.09375 
Q 58.015625 40.1875 58.015625 27.296875 
Q 58.015625 14.40625 51.78125 6.484375 
Q 45.5625 -1.421875 35.59375 -1.421875 
Q 29.59375 -1.421875 25.265625 0.953125 
Q 20.953125 3.328125 18.109375 8.203125 
L 18.109375 0 
L 9.078125 0 
L 9.078125 75.984375 
L 18.109375 75.984375 
z
" id="DejaVuSans-62"/>
       <path d="M 32.171875 -5.078125 
Q 28.375 -14.84375 24.75 -17.8125 
Q 21.140625 -20.796875 15.09375 -20.796875 
L 7.90625 -20.796875 
L 7.90625 -13.28125 
L 13.1875 -13.28125 
Q 16.890625 -13.28125 18.9375 -11.515625 
Q 21 -9.765625 23.484375 -3.21875 
L 25.09375 0.875 
L 2.984375 54.6875 
L 12.5 54.6875 
L 29.59375 11.921875 
L 46.6875 54.6875 
L 56.203125 54.6875 
z
" id="DejaVuSans-79"/>
      </defs>
      <g transform="translate(123.248437 552.589062)rotate(-90)scale(0.1 -0.1)">
       <use xlink:href="#DejaVuSans-50"/>
       <use x="60.271484" xlink:href="#DejaVuSans-69"/>
       <use x="88.054688" xlink:href="#DejaVuSans-74"/>
       <use x="127.263672" xlink:href="#DejaVuSans-74"/>
       <use x="166.472656" xlink:href="#DejaVuSans-73"/>
       <use x="218.572266" xlink:href="#DejaVuSans-66"/>
       <use x="253.777344" xlink:href="#DejaVuSans-69"/>
       <use x="281.560547" xlink:href="#DejaVuSans-65"/>
       <use x="343.083984" xlink:href="#DejaVuSans-6c"/>
       <use x="370.867188" xlink:href="#DejaVuSans-64"/>
       <use x="434.34375" xlink:href="#DejaVuSans-20"/>
       <use x="466.130859" xlink:href="#DejaVuSans-2d"/>
       <use x="502.214844" xlink:href="#DejaVuSans-20"/>
       <use x="534.001953" xlink:href="#DejaVuSans-43"/>
       <use x="603.826172" xlink:href="#DejaVuSans-72"/>
       <use x="644.908203" xlink:href="#DejaVuSans-6f"/>
       <use x="706.089844" xlink:href="#DejaVuSans-73"/>
       <use x="758.189453" xlink:href="#DejaVuSans-62"/>
       <use x="821.666016" xlink:href="#DejaVuSans-79"/>
      </g>
     </g>
    </g>
    <g id="xtick_3">
     <g id="line2d_3">
      <g>
       <use style="stroke:#000000;stroke-width:0.8;" x="176.223437" xlink:href="#m238de8c807" y="457.50625"/>
      </g>
     </g>
     <g id="text_3">
      <!-- Pittsfield - Egremont -->
      <defs>
       <path d="M 9.8125 72.90625 
L 55.90625 72.90625 
L 55.90625 64.59375 
L 19.671875 64.59375 
L 19.671875 43.015625 
L 54.390625 43.015625 
L 54.390625 34.71875 
L 19.671875 34.71875 
L 19.671875 8.296875 
L 56.78125 8.296875 
L 56.78125 0 
L 9.8125 0 
z
" id="DejaVuSans-45"/>
       <path d="M 45.40625 27.984375 
Q 45.40625 37.75 41.375 43.109375 
Q 37.359375 48.484375 30.078125 48.484375 
Q 22.859375 48.484375 18.828125 43.109375 
Q 14.796875 37.75 14.796875 27.984375 
Q 14.796875 18.265625 18.828125 12.890625 
Q 22.859375 7.515625 30.078125 7.515625 
Q 37.359375 7.515625 41.375 12.890625 
Q 45.40625 18.265625 45.40625 27.984375 
z
M 54.390625 6.78125 
Q 54.390625 -7.171875 48.1875 -13.984375 
Q 42 -20.796875 29.203125 -20.796875 
Q 24.46875 -20.796875 20.265625 -20.09375 
Q 16.0625 -19.390625 12.109375 -17.921875 
L 12.109375 -9.1875 
Q 16.0625 -11.328125 19.921875 -12.34375 
Q 23.78125 -13.375 27.78125 -13.375 
Q 36.625 -13.375 41.015625 -8.765625 
Q 45.40625 -4.15625 45.40625 5.171875 
L 45.40625 9.625 
Q 42.625 4.78125 38.28125 2.390625 
Q 33.9375 0 27.875 0 
Q 17.828125 0 11.671875 7.65625 
Q 5.515625 15.328125 5.515625 27.984375 
Q 5.515625 40.671875 11.671875 48.328125 
Q 17.828125 56 27.875 56 
Q 33.9375 56 38.28125 53.609375 
Q 42.625 51.21875 45.40625 46.390625 
L 45.40625 54.6875 
L 54.390625 54.6875 
z
" id="DejaVuSans-67"/>
       <path d="M 52 44.1875 
Q 55.375 50.25 60.0625 53.125 
Q 64.75 56 71.09375 56 
Q 79.640625 56 84.28125 50.015625 
Q 88.921875 44.046875 88.921875 33.015625 
L 88.921875 0 
L 79.890625 0 
L 79.890625 32.71875 
Q 79.890625 40.578125 77.09375 44.375 
Q 74.3125 48.1875 68.609375 48.1875 
Q 61.625 48.1875 57.5625 43.546875 
Q 53.515625 38.921875 53.515625 30.90625 
L 53.515625 0 
L 44.484375 0 
L 44.484375 32.71875 
Q 44.484375 40.625 41.703125 44.40625 
Q 38.921875 48.1875 33.109375 48.1875 
Q 26.21875 48.1875 22.15625 43.53125 
Q 18.109375 38.875 18.109375 30.90625 
L 18.109375 0 
L 9.078125 0 
L 9.078125 54.6875 
L 18.109375 54.6875 
L 18.109375 46.1875 
Q 21.1875 51.21875 25.484375 53.609375 
Q 29.78125 56 35.6875 56 
Q 41.65625 56 45.828125 52.96875 
Q 50 49.953125 52 44.1875 
z
" id="DejaVuSans-6d"/>
      </defs>
      <g transform="translate(178.982812 566.948437)rotate(-90)scale(0.1 -0.1)">
       <use xlink:href="#DejaVuSans-50"/>
       <use x="60.271484" xlink:href="#DejaVuSans-69"/>
       <use x="88.054688" xlink:href="#DejaVuSans-74"/>
       <use x="127.263672" xlink:href="#DejaVuSans-74"/>
       <use x="166.472656" xlink:href="#DejaVuSans-73"/>
       <use x="218.572266" xlink:href="#DejaVuSans-66"/>
       <use x="253.777344" xlink:href="#DejaVuSans-69"/>
       <use x="281.560547" xlink:href="#DejaVuSans-65"/>
       <use x="343.083984" xlink:href="#DejaVuSans-6c"/>
       <use x="370.867188" xlink:href="#DejaVuSans-64"/>
       <use x="434.34375" xlink:href="#DejaVuSans-20"/>
       <use x="466.130859" xlink:href="#DejaVuSans-2d"/>
       <use x="502.214844" xlink:href="#DejaVuSans-20"/>
       <use x="534.001953" xlink:href="#DejaVuSans-45"/>
       <use x="597.185547" xlink:href="#DejaVuSans-67"/>
       <use x="660.662109" xlink:href="#DejaVuSans-72"/>
       <use x="701.744141" xlink:href="#DejaVuSans-65"/>
       <use x="763.267578" xlink:href="#DejaVuSans-6d"/>
       <use x="860.679688" xlink:href="#DejaVuSans-6f"/>
       <use x="921.861328" xlink:href="#DejaVuSans-6e"/>
       <use x="985.240234" xlink:href="#DejaVuSans-74"/>
      </g>
     </g>
    </g>
    <g id="xtick_4">
     <g id="line2d_4">
      <g>
       <use style="stroke:#000000;stroke-width:0.8;" x="231.957812" xlink:href="#m238de8c807" y="457.50625"/>
      </g>
     </g>
     <g id="text_4">
      <!-- Pittsfield - John T Reid Middle -->
      <defs>
       <path d="M 9.8125 72.90625 
L 19.671875 72.90625 
L 19.671875 5.078125 
Q 19.671875 -8.109375 14.671875 -14.0625 
Q 9.671875 -20.015625 -1.421875 -20.015625 
L -5.171875 -20.015625 
L -5.171875 -11.71875 
L -2.09375 -11.71875 
Q 4.4375 -11.71875 7.125 -8.046875 
Q 9.8125 -4.390625 9.8125 5.078125 
z
" id="DejaVuSans-4a"/>
       <path d="M 54.890625 33.015625 
L 54.890625 0 
L 45.90625 0 
L 45.90625 32.71875 
Q 45.90625 40.484375 42.875 44.328125 
Q 39.84375 48.1875 33.796875 48.1875 
Q 26.515625 48.1875 22.3125 43.546875 
Q 18.109375 38.921875 18.109375 30.90625 
L 18.109375 0 
L 9.078125 0 
L 9.078125 75.984375 
L 18.109375 75.984375 
L 18.109375 46.1875 
Q 21.34375 51.125 25.703125 53.5625 
Q 30.078125 56 35.796875 56 
Q 45.21875 56 50.046875 50.171875 
Q 54.890625 44.34375 54.890625 33.015625 
z
" id="DejaVuSans-68"/>
       <path d="M -0.296875 72.90625 
L 61.375 72.90625 
L 61.375 64.59375 
L 35.5 64.59375 
L 35.5 0 
L 25.59375 0 
L 25.59375 64.59375 
L -0.296875 64.59375 
z
" id="DejaVuSans-54"/>
       <path d="M 44.390625 34.1875 
Q 47.5625 33.109375 50.5625 29.59375 
Q 53.5625 26.078125 56.59375 19.921875 
L 66.609375 0 
L 56 0 
L 46.6875 18.703125 
Q 43.0625 26.03125 39.671875 28.421875 
Q 36.28125 30.8125 30.421875 30.8125 
L 19.671875 30.8125 
L 19.671875 0 
L 9.8125 0 
L 9.8125 72.90625 
L 32.078125 72.90625 
Q 44.578125 72.90625 50.734375 67.671875 
Q 56.890625 62.453125 56.890625 51.90625 
Q 56.890625 45.015625 53.6875 40.46875 
Q 50.484375 35.9375 44.390625 34.1875 
z
M 19.671875 64.796875 
L 19.671875 38.921875 
L 32.078125 38.921875 
Q 39.203125 38.921875 42.84375 42.21875 
Q 46.484375 45.515625 46.484375 51.90625 
Q 46.484375 58.296875 42.84375 61.546875 
Q 39.203125 64.796875 32.078125 64.796875 
z
" id="DejaVuSans-52"/>
       <path d="M 9.8125 72.90625 
L 24.515625 72.90625 
L 43.109375 23.296875 
L 61.8125 72.90625 
L 76.515625 72.90625 
L 76.515625 0 
L 66.890625 0 
L 66.890625 64.015625 
L 48.09375 14.015625 
L 38.1875 14.015625 
L 19.390625 64.015625 
L 19.390625 0 
L 9.8125 0 
z
" id="DejaVuSans-4d"/>
      </defs>
      <g transform="translate(234.717187 610.545312)rotate(-90)scale(0.1 -0.1)">
       <use xlink:href="#DejaVuSans-50"/>
       <use x="60.271484" xlink:href="#DejaVuSans-69"/>
       <use x="88.054688" xlink:href="#DejaVuSans-74"/>
       <use x="127.263672" xlink:href="#DejaVuSans-74"/>
       <use x="166.472656" xlink:href="#DejaVuSans-73"/>
       <use x="218.572266" xlink:href="#DejaVuSans-66"/>
       <use x="253.777344" xlink:href="#DejaVuSans-69"/>
       <use x="281.560547" xlink:href="#DejaVuSans-65"/>
       <use x="343.083984" xlink:href="#DejaVuSans-6c"/>
       <use x="370.867188" xlink:href="#DejaVuSans-64"/>
       <use x="434.34375" xlink:href="#DejaVuSans-20"/>
       <use x="466.130859" xlink:href="#DejaVuSans-2d"/>
       <use x="502.214844" xlink:href="#DejaVuSans-20"/>
       <use x="534.001953" xlink:href="#DejaVuSans-4a"/>
       <use x="563.494141" xlink:href="#DejaVuSans-6f"/>
       <use x="624.675781" xlink:href="#DejaVuSans-68"/>
       <use x="688.054688" xlink:href="#DejaVuSans-6e"/>
       <use x="751.433594" xlink:href="#DejaVuSans-20"/>
       <use x="783.220703" xlink:href="#DejaVuSans-54"/>
       <use x="844.304688" xlink:href="#DejaVuSans-20"/>
       <use x="876.091797" xlink:href="#DejaVuSans-52"/>
       <use x="945.511719" xlink:href="#DejaVuSans-65"/>
       <use x="1007.035156" xlink:href="#DejaVuSans-69"/>
       <use x="1034.818359" xlink:href="#DejaVuSans-64"/>
       <use x="1098.294922" xlink:href="#DejaVuSans-20"/>
       <use x="1130.082031" xlink:href="#DejaVuSans-4d"/>
       <use x="1216.361328" xlink:href="#DejaVuSans-69"/>
       <use x="1244.144531" xlink:href="#DejaVuSans-64"/>
       <use x="1307.621094" xlink:href="#DejaVuSans-64"/>
       <use x="1371.097656" xlink:href="#DejaVuSans-6c"/>
       <use x="1398.880859" xlink:href="#DejaVuSans-65"/>
      </g>
     </g>
    </g>
    <g id="xtick_5">
     <g id="line2d_5">
      <g>
       <use style="stroke:#000000;stroke-width:0.8;" x="287.692187" xlink:href="#m238de8c807" y="457.50625"/>
      </g>
     </g>
     <g id="text_5">
      <!-- Pittsfield - Morningside Community School -->
      <defs>
       <path d="M 8.5 21.578125 
L 8.5 54.6875 
L 17.484375 54.6875 
L 17.484375 21.921875 
Q 17.484375 14.15625 20.5 10.265625 
Q 23.53125 6.390625 29.59375 6.390625 
Q 36.859375 6.390625 41.078125 11.03125 
Q 45.3125 15.671875 45.3125 23.6875 
L 45.3125 54.6875 
L 54.296875 54.6875 
L 54.296875 0 
L 45.3125 0 
L 45.3125 8.40625 
Q 42.046875 3.421875 37.71875 1 
Q 33.40625 -1.421875 27.6875 -1.421875 
Q 18.265625 -1.421875 13.375 4.4375 
Q 8.5 10.296875 8.5 21.578125 
z
M 31.109375 56 
z
" id="DejaVuSans-75"/>
       <path d="M 53.515625 70.515625 
L 53.515625 60.890625 
Q 47.90625 63.578125 42.921875 64.890625 
Q 37.9375 66.21875 33.296875 66.21875 
Q 25.25 66.21875 20.875 63.09375 
Q 16.5 59.96875 16.5 54.203125 
Q 16.5 49.359375 19.40625 46.890625 
Q 22.3125 44.4375 30.421875 42.921875 
L 36.375 41.703125 
Q 47.40625 39.59375 52.65625 34.296875 
Q 57.90625 29 57.90625 20.125 
Q 57.90625 9.515625 50.796875 4.046875 
Q 43.703125 -1.421875 29.984375 -1.421875 
Q 24.8125 -1.421875 18.96875 -0.25 
Q 13.140625 0.921875 6.890625 3.21875 
L 6.890625 13.375 
Q 12.890625 10.015625 18.65625 8.296875 
Q 24.421875 6.59375 29.984375 6.59375 
Q 38.421875 6.59375 43.015625 9.90625 
Q 47.609375 13.234375 47.609375 19.390625 
Q 47.609375 24.75 44.3125 27.78125 
Q 41.015625 30.8125 33.5 32.328125 
L 27.484375 33.5 
Q 16.453125 35.6875 11.515625 40.375 
Q 6.59375 45.0625 6.59375 53.421875 
Q 6.59375 63.09375 13.40625 68.65625 
Q 20.21875 74.21875 32.171875 74.21875 
Q 37.3125 74.21875 42.625 73.28125 
Q 47.953125 72.359375 53.515625 70.515625 
z
" id="DejaVuSans-53"/>
       <path d="M 48.78125 52.59375 
L 48.78125 44.1875 
Q 44.96875 46.296875 41.140625 47.34375 
Q 37.3125 48.390625 33.40625 48.390625 
Q 24.65625 48.390625 19.8125 42.84375 
Q 14.984375 37.3125 14.984375 27.296875 
Q 14.984375 17.28125 19.8125 11.734375 
Q 24.65625 6.203125 33.40625 6.203125 
Q 37.3125 6.203125 41.140625 7.25 
Q 44.96875 8.296875 48.78125 10.40625 
L 48.78125 2.09375 
Q 45.015625 0.34375 40.984375 -0.53125 
Q 36.96875 -1.421875 32.421875 -1.421875 
Q 20.0625 -1.421875 12.78125 6.34375 
Q 5.515625 14.109375 5.515625 27.296875 
Q 5.515625 40.671875 12.859375 48.328125 
Q 20.21875 56 33.015625 56 
Q 37.15625 56 41.109375 55.140625 
Q 45.0625 54.296875 48.78125 52.59375 
z
" id="DejaVuSans-63"/>
      </defs>
      <g transform="translate(290.451562 676.48125)rotate(-90)scale(0.1 -0.1)">
       <use xlink:href="#DejaVuSans-50"/>
       <use x="60.271484" xlink:href="#DejaVuSans-69"/>
       <use x="88.054688" xlink:href="#DejaVuSans-74"/>
       <use x="127.263672" xlink:href="#DejaVuSans-74"/>
       <use x="166.472656" xlink:href="#DejaVuSans-73"/>
       <use x="218.572266" xlink:href="#DejaVuSans-66"/>
       <use x="253.777344" xlink:href="#DejaVuSans-69"/>
       <use x="281.560547" xlink:href="#DejaVuSans-65"/>
       <use x="343.083984" xlink:href="#DejaVuSans-6c"/>
       <use x="370.867188" xlink:href="#DejaVuSans-64"/>
       <use x="434.34375" xlink:href="#DejaVuSans-20"/>
       <use x="466.130859" xlink:href="#DejaVuSans-2d"/>
       <use x="502.214844" xlink:href="#DejaVuSans-20"/>
       <use x="534.001953" xlink:href="#DejaVuSans-4d"/>
       <use x="620.28125" xlink:href="#DejaVuSans-6f"/>
       <use x="681.462891" xlink:href="#DejaVuSans-72"/>
       <use x="722.560547" xlink:href="#DejaVuSans-6e"/>
       <use x="785.939453" xlink:href="#DejaVuSans-69"/>
       <use x="813.722656" xlink:href="#DejaVuSans-6e"/>
       <use x="877.101562" xlink:href="#DejaVuSans-67"/>
       <use x="940.578125" xlink:href="#DejaVuSans-73"/>
       <use x="992.677734" xlink:href="#DejaVuSans-69"/>
       <use x="1020.460938" xlink:href="#DejaVuSans-64"/>
       <use x="1083.9375" xlink:href="#DejaVuSans-65"/>
       <use x="1145.460938" xlink:href="#DejaVuSans-20"/>
       <use x="1177.248047" xlink:href="#DejaVuSans-43"/>
       <use x="1247.072266" xlink:href="#DejaVuSans-6f"/>
       <use x="1308.253906" xlink:href="#DejaVuSans-6d"/>
       <use x="1405.666016" xlink:href="#DejaVuSans-6d"/>
       <use x="1503.078125" xlink:href="#DejaVuSans-75"/>
       <use x="1566.457031" xlink:href="#DejaVuSans-6e"/>
       <use x="1629.835938" xlink:href="#DejaVuSans-69"/>
       <use x="1657.619141" xlink:href="#DejaVuSans-74"/>
       <use x="1696.828125" xlink:href="#DejaVuSans-79"/>
       <use x="1756.007812" xlink:href="#DejaVuSans-20"/>
       <use x="1787.794922" xlink:href="#DejaVuSans-53"/>
       <use x="1851.271484" xlink:href="#DejaVuSans-63"/>
       <use x="1906.251953" xlink:href="#DejaVuSans-68"/>
       <use x="1969.630859" xlink:href="#DejaVuSans-6f"/>
       <use x="2030.8125" xlink:href="#DejaVuSans-6f"/>
       <use x="2091.994141" xlink:href="#DejaVuSans-6c"/>
      </g>
     </g>
    </g>
    <g id="xtick_6">
     <g id="line2d_6">
      <g>
       <use style="stroke:#000000;stroke-width:0.8;" x="343.426562" xlink:href="#m238de8c807" y="457.50625"/>
      </g>
     </g>
     <g id="text_6">
      <!-- Pittsfield - Pittsfield High -->
      <defs>
       <path d="M 9.8125 72.90625 
L 19.671875 72.90625 
L 19.671875 43.015625 
L 55.515625 43.015625 
L 55.515625 72.90625 
L 65.375 72.90625 
L 65.375 0 
L 55.515625 0 
L 55.515625 34.71875 
L 19.671875 34.71875 
L 19.671875 0 
L 9.8125 0 
z
" id="DejaVuSans-48"/>
      </defs>
      <g transform="translate(346.185937 587.498437)rotate(-90)scale(0.1 -0.1)">
       <use xlink:href="#DejaVuSans-50"/>
       <use x="60.271484" xlink:href="#DejaVuSans-69"/>
       <use x="88.054688" xlink:href="#DejaVuSans-74"/>
       <use x="127.263672" xlink:href="#DejaVuSans-74"/>
       <use x="166.472656" xlink:href="#DejaVuSans-73"/>
       <use x="218.572266" xlink:href="#DejaVuSans-66"/>
       <use x="253.777344" xlink:href="#DejaVuSans-69"/>
       <use x="281.560547" xlink:href="#DejaVuSans-65"/>
       <use x="343.083984" xlink:href="#DejaVuSans-6c"/>
       <use x="370.867188" xlink:href="#DejaVuSans-64"/>
       <use x="434.34375" xlink:href="#DejaVuSans-20"/>
       <use x="466.130859" xlink:href="#DejaVuSans-2d"/>
       <use x="502.214844" xlink:href="#DejaVuSans-20"/>
       <use x="534.001953" xlink:href="#DejaVuSans-50"/>
       <use x="594.273438" xlink:href="#DejaVuSans-69"/>
       <use x="622.056641" xlink:href="#DejaVuSans-74"/>
       <use x="661.265625" xlink:href="#DejaVuSans-74"/>
       <use x="700.474609" xlink:href="#DejaVuSans-73"/>
       <use x="752.574219" xlink:href="#DejaVuSans-66"/>
       <use x="787.779297" xlink:href="#DejaVuSans-69"/>
       <use x="815.5625" xlink:href="#DejaVuSans-65"/>
       <use x="877.085938" xlink:href="#DejaVuSans-6c"/>
       <use x="904.869141" xlink:href="#DejaVuSans-64"/>
       <use x="968.345703" xlink:href="#DejaVuSans-20"/>
       <use x="1000.132812" xlink:href="#DejaVuSans-48"/>
       <use x="1075.328125" xlink:href="#DejaVuSans-69"/>
       <use x="1103.111328" xlink:href="#DejaVuSans-67"/>
       <use x="1166.587891" xlink:href="#DejaVuSans-68"/>
      </g>
     </g>
    </g>
    <g id="xtick_7">
     <g id="line2d_7">
      <g>
       <use style="stroke:#000000;stroke-width:0.8;" x="399.160937" xlink:href="#m238de8c807" y="457.50625"/>
      </g>
     </g>
     <g id="text_7">
      <!-- Pittsfield - Robert T. Capeless Elementary School -->
      <defs>
       <path d="M 10.6875 12.40625 
L 21 12.40625 
L 21 0 
L 10.6875 0 
z
" id="DejaVuSans-2e"/>
       <path d="M 18.109375 8.203125 
L 18.109375 -20.796875 
L 9.078125 -20.796875 
L 9.078125 54.6875 
L 18.109375 54.6875 
L 18.109375 46.390625 
Q 20.953125 51.265625 25.265625 53.625 
Q 29.59375 56 35.59375 56 
Q 45.5625 56 51.78125 48.09375 
Q 58.015625 40.1875 58.015625 27.296875 
Q 58.015625 14.40625 51.78125 6.484375 
Q 45.5625 -1.421875 35.59375 -1.421875 
Q 29.59375 -1.421875 25.265625 0.953125 
Q 20.953125 3.328125 18.109375 8.203125 
z
M 48.6875 27.296875 
Q 48.6875 37.203125 44.609375 42.84375 
Q 40.53125 48.484375 33.40625 48.484375 
Q 26.265625 48.484375 22.1875 42.84375 
Q 18.109375 37.203125 18.109375 27.296875 
Q 18.109375 17.390625 22.1875 11.75 
Q 26.265625 6.109375 33.40625 6.109375 
Q 40.53125 6.109375 44.609375 11.75 
Q 48.6875 17.390625 48.6875 27.296875 
z
" id="DejaVuSans-70"/>
      </defs>
      <g transform="translate(401.920312 709.2)rotate(-90)scale(0.1 -0.1)">
       <use xlink:href="#DejaVuSans-50"/>
       <use x="60.271484" xlink:href="#DejaVuSans-69"/>
       <use x="88.054688" xlink:href="#DejaVuSans-74"/>
       <use x="127.263672" xlink:href="#DejaVuSans-74"/>
       <use x="166.472656" xlink:href="#DejaVuSans-73"/>
       <use x="218.572266" xlink:href="#DejaVuSans-66"/>
       <use x="253.777344" xlink:href="#DejaVuSans-69"/>
       <use x="281.560547" xlink:href="#DejaVuSans-65"/>
       <use x="343.083984" xlink:href="#DejaVuSans-6c"/>
       <use x="370.867188" xlink:href="#DejaVuSans-64"/>
       <use x="434.34375" xlink:href="#DejaVuSans-20"/>
       <use x="466.130859" xlink:href="#DejaVuSans-2d"/>
       <use x="502.214844" xlink:href="#DejaVuSans-20"/>
       <use x="534.001953" xlink:href="#DejaVuSans-52"/>
       <use x="603.421875" xlink:href="#DejaVuSans-6f"/>
       <use x="664.603516" xlink:href="#DejaVuSans-62"/>
       <use x="728.080078" xlink:href="#DejaVuSans-65"/>
       <use x="789.603516" xlink:href="#DejaVuSans-72"/>
       <use x="830.716797" xlink:href="#DejaVuSans-74"/>
       <use x="869.925781" xlink:href="#DejaVuSans-20"/>
       <use x="901.712891" xlink:href="#DejaVuSans-54"/>
       <use x="962.625" xlink:href="#DejaVuSans-2e"/>
       <use x="994.412109" xlink:href="#DejaVuSans-20"/>
       <use x="1026.199219" xlink:href="#DejaVuSans-43"/>
       <use x="1096.023438" xlink:href="#DejaVuSans-61"/>
       <use x="1157.302734" xlink:href="#DejaVuSans-70"/>
       <use x="1220.779297" xlink:href="#DejaVuSans-65"/>
       <use x="1282.302734" xlink:href="#DejaVuSans-6c"/>
       <use x="1310.085938" xlink:href="#DejaVuSans-65"/>
       <use x="1371.609375" xlink:href="#DejaVuSans-73"/>
       <use x="1423.708984" xlink:href="#DejaVuSans-73"/>
       <use x="1475.808594" xlink:href="#DejaVuSans-20"/>
       <use x="1507.595703" xlink:href="#DejaVuSans-45"/>
       <use x="1570.779297" xlink:href="#DejaVuSans-6c"/>
       <use x="1598.5625" xlink:href="#DejaVuSans-65"/>
       <use x="1660.085938" xlink:href="#DejaVuSans-6d"/>
       <use x="1757.498047" xlink:href="#DejaVuSans-65"/>
       <use x="1819.021484" xlink:href="#DejaVuSans-6e"/>
       <use x="1882.400391" xlink:href="#DejaVuSans-74"/>
       <use x="1921.609375" xlink:href="#DejaVuSans-61"/>
       <use x="1982.888672" xlink:href="#DejaVuSans-72"/>
       <use x="2024.001953" xlink:href="#DejaVuSans-79"/>
       <use x="2083.181641" xlink:href="#DejaVuSans-20"/>
       <use x="2114.96875" xlink:href="#DejaVuSans-53"/>
       <use x="2178.445312" xlink:href="#DejaVuSans-63"/>
       <use x="2233.425781" xlink:href="#DejaVuSans-68"/>
       <use x="2296.804688" xlink:href="#DejaVuSans-6f"/>
       <use x="2357.986328" xlink:href="#DejaVuSans-6f"/>
       <use x="2419.167969" xlink:href="#DejaVuSans-6c"/>
      </g>
     </g>
    </g>
    <g id="xtick_8">
     <g id="line2d_8">
      <g>
       <use style="stroke:#000000;stroke-width:0.8;" x="454.895312" xlink:href="#m238de8c807" y="457.50625"/>
      </g>
     </g>
     <g id="text_8">
      <!-- Pittsfield - Silvio O Conte Community -->
      <defs>
       <path d="M 2.984375 54.6875 
L 12.5 54.6875 
L 29.59375 8.796875 
L 46.6875 54.6875 
L 56.203125 54.6875 
L 35.6875 0 
L 23.484375 0 
z
" id="DejaVuSans-76"/>
       <path d="M 39.40625 66.21875 
Q 28.65625 66.21875 22.328125 58.203125 
Q 16.015625 50.203125 16.015625 36.375 
Q 16.015625 22.609375 22.328125 14.59375 
Q 28.65625 6.59375 39.40625 6.59375 
Q 50.140625 6.59375 56.421875 14.59375 
Q 62.703125 22.609375 62.703125 36.375 
Q 62.703125 50.203125 56.421875 58.203125 
Q 50.140625 66.21875 39.40625 66.21875 
z
M 39.40625 74.21875 
Q 54.734375 74.21875 63.90625 63.9375 
Q 73.09375 53.65625 73.09375 36.375 
Q 73.09375 19.140625 63.90625 8.859375 
Q 54.734375 -1.421875 39.40625 -1.421875 
Q 24.03125 -1.421875 14.8125 8.828125 
Q 5.609375 19.09375 5.609375 36.375 
Q 5.609375 53.65625 14.8125 63.9375 
Q 24.03125 74.21875 39.40625 74.21875 
z
" id="DejaVuSans-4f"/>
      </defs>
      <g transform="translate(457.654687 649.417187)rotate(-90)scale(0.1 -0.1)">
       <use xlink:href="#DejaVuSans-50"/>
       <use x="60.271484" xlink:href="#DejaVuSans-69"/>
       <use x="88.054688" xlink:href="#DejaVuSans-74"/>
       <use x="127.263672" xlink:href="#DejaVuSans-74"/>
       <use x="166.472656" xlink:href="#DejaVuSans-73"/>
       <use x="218.572266" xlink:href="#DejaVuSans-66"/>
       <use x="253.777344" xlink:href="#DejaVuSans-69"/>
       <use x="281.560547" xlink:href="#DejaVuSans-65"/>
       <use x="343.083984" xlink:href="#DejaVuSans-6c"/>
       <use x="370.867188" xlink:href="#DejaVuSans-64"/>
       <use x="434.34375" xlink:href="#DejaVuSans-20"/>
       <use x="466.130859" xlink:href="#DejaVuSans-2d"/>
       <use x="502.214844" xlink:href="#DejaVuSans-20"/>
       <use x="534.001953" xlink:href="#DejaVuSans-53"/>
       <use x="597.478516" xlink:href="#DejaVuSans-69"/>
       <use x="625.261719" xlink:href="#DejaVuSans-6c"/>
       <use x="653.044922" xlink:href="#DejaVuSans-76"/>
       <use x="712.224609" xlink:href="#DejaVuSans-69"/>
       <use x="740.007812" xlink:href="#DejaVuSans-6f"/>
       <use x="801.189453" xlink:href="#DejaVuSans-20"/>
       <use x="832.976562" xlink:href="#DejaVuSans-4f"/>
       <use x="911.6875" xlink:href="#DejaVuSans-20"/>
       <use x="943.474609" xlink:href="#DejaVuSans-43"/>
       <use x="1013.298828" xlink:href="#DejaVuSans-6f"/>
       <use x="1074.480469" xlink:href="#DejaVuSans-6e"/>
       <use x="1137.859375" xlink:href="#DejaVuSans-74"/>
       <use x="1177.068359" xlink:href="#DejaVuSans-65"/>
       <use x="1238.591797" xlink:href="#DejaVuSans-20"/>
       <use x="1270.378906" xlink:href="#DejaVuSans-43"/>
       <use x="1340.203125" xlink:href="#DejaVuSans-6f"/>
       <use x="1401.384766" xlink:href="#DejaVuSans-6d"/>
       <use x="1498.796875" xlink:href="#DejaVuSans-6d"/>
       <use x="1596.208984" xlink:href="#DejaVuSans-75"/>
       <use x="1659.587891" xlink:href="#DejaVuSans-6e"/>
       <use x="1722.966797" xlink:href="#DejaVuSans-69"/>
       <use x="1750.75" xlink:href="#DejaVuSans-74"/>
       <use x="1789.958984" xlink:href="#DejaVuSans-79"/>
      </g>
     </g>
    </g>
    <g id="xtick_9">
     <g id="line2d_9">
      <g>
       <use style="stroke:#000000;stroke-width:0.8;" x="510.629687" xlink:href="#m238de8c807" y="457.50625"/>
      </g>
     </g>
     <g id="text_9">
      <!-- Pittsfield - Stearns -->
      <g transform="translate(513.389063 556.109375)rotate(-90)scale(0.1 -0.1)">
       <use xlink:href="#DejaVuSans-50"/>
       <use x="60.271484" xlink:href="#DejaVuSans-69"/>
       <use x="88.054688" xlink:href="#DejaVuSans-74"/>
       <use x="127.263672" xlink:href="#DejaVuSans-74"/>
       <use x="166.472656" xlink:href="#DejaVuSans-73"/>
       <use x="218.572266" xlink:href="#DejaVuSans-66"/>
       <use x="253.777344" xlink:href="#DejaVuSans-69"/>
       <use x="281.560547" xlink:href="#DejaVuSans-65"/>
       <use x="343.083984" xlink:href="#DejaVuSans-6c"/>
       <use x="370.867188" xlink:href="#DejaVuSans-64"/>
       <use x="434.34375" xlink:href="#DejaVuSans-20"/>
       <use x="466.130859" xlink:href="#DejaVuSans-2d"/>
       <use x="502.214844" xlink:href="#DejaVuSans-20"/>
       <use x="534.001953" xlink:href="#DejaVuSans-53"/>
       <use x="597.478516" xlink:href="#DejaVuSans-74"/>
       <use x="636.6875" xlink:href="#DejaVuSans-65"/>
       <use x="698.210938" xlink:href="#DejaVuSans-61"/>
       <use x="759.490234" xlink:href="#DejaVuSans-72"/>
       <use x="800.587891" xlink:href="#DejaVuSans-6e"/>
       <use x="863.966797" xlink:href="#DejaVuSans-73"/>
      </g>
     </g>
    </g>
    <g id="xtick_10">
     <g id="line2d_10">
      <g>
       <use style="stroke:#000000;stroke-width:0.8;" x="566.364063" xlink:href="#m238de8c807" y="457.50625"/>
      </g>
     </g>
     <g id="text_10">
      <!-- Pittsfield - Taconic High -->
      <g transform="translate(569.123438 582.507812)rotate(-90)scale(0.1 -0.1)">
       <use xlink:href="#DejaVuSans-50"/>
       <use x="60.271484" xlink:href="#DejaVuSans-69"/>
       <use x="88.054688" xlink:href="#DejaVuSans-74"/>
       <use x="127.263672" xlink:href="#DejaVuSans-74"/>
       <use x="166.472656" xlink:href="#DejaVuSans-73"/>
       <use x="218.572266" xlink:href="#DejaVuSans-66"/>
       <use x="253.777344" xlink:href="#DejaVuSans-69"/>
       <use x="281.560547" xlink:href="#DejaVuSans-65"/>
       <use x="343.083984" xlink:href="#DejaVuSans-6c"/>
       <use x="370.867188" xlink:href="#DejaVuSans-64"/>
       <use x="434.34375" xlink:href="#DejaVuSans-20"/>
       <use x="466.130859" xlink:href="#DejaVuSans-2d"/>
       <use x="502.214844" xlink:href="#DejaVuSans-20"/>
       <use x="534.001953" xlink:href="#DejaVuSans-54"/>
       <use x="594.835938" xlink:href="#DejaVuSans-61"/>
       <use x="656.115234" xlink:href="#DejaVuSans-63"/>
       <use x="711.095703" xlink:href="#DejaVuSans-6f"/>
       <use x="772.277344" xlink:href="#DejaVuSans-6e"/>
       <use x="835.65625" xlink:href="#DejaVuSans-69"/>
       <use x="863.439453" xlink:href="#DejaVuSans-63"/>
       <use x="918.419922" xlink:href="#DejaVuSans-20"/>
       <use x="950.207031" xlink:href="#DejaVuSans-48"/>
       <use x="1025.402344" xlink:href="#DejaVuSans-69"/>
       <use x="1053.185547" xlink:href="#DejaVuSans-67"/>
       <use x="1116.662109" xlink:href="#DejaVuSans-68"/>
      </g>
     </g>
    </g>
    <g id="xtick_11">
     <g id="line2d_11">
      <g>
       <use style="stroke:#000000;stroke-width:0.8;" x="622.098438" xlink:href="#m238de8c807" y="457.50625"/>
      </g>
     </g>
     <g id="text_11">
      <!-- Pittsfield - Theodore Herberg Middle -->
      <g transform="translate(624.857813 645.482812)rotate(-90)scale(0.1 -0.1)">
       <use xlink:href="#DejaVuSans-50"/>
       <use x="60.271484" xlink:href="#DejaVuSans-69"/>
       <use x="88.054688" xlink:href="#DejaVuSans-74"/>
       <use x="127.263672" xlink:href="#DejaVuSans-74"/>
       <use x="166.472656" xlink:href="#DejaVuSans-73"/>
       <use x="218.572266" xlink:href="#DejaVuSans-66"/>
       <use x="253.777344" xlink:href="#DejaVuSans-69"/>
       <use x="281.560547" xlink:href="#DejaVuSans-65"/>
       <use x="343.083984" xlink:href="#DejaVuSans-6c"/>
       <use x="370.867188" xlink:href="#DejaVuSans-64"/>
       <use x="434.34375" xlink:href="#DejaVuSans-20"/>
       <use x="466.130859" xlink:href="#DejaVuSans-2d"/>
       <use x="502.214844" xlink:href="#DejaVuSans-20"/>
       <use x="534.001953" xlink:href="#DejaVuSans-54"/>
       <use x="595.085938" xlink:href="#DejaVuSans-68"/>
       <use x="658.464844" xlink:href="#DejaVuSans-65"/>
       <use x="719.988281" xlink:href="#DejaVuSans-6f"/>
       <use x="781.169922" xlink:href="#DejaVuSans-64"/>
       <use x="844.646484" xlink:href="#DejaVuSans-6f"/>
       <use x="905.828125" xlink:href="#DejaVuSans-72"/>
       <use x="946.910156" xlink:href="#DejaVuSans-65"/>
       <use x="1008.433594" xlink:href="#DejaVuSans-20"/>
       <use x="1040.220703" xlink:href="#DejaVuSans-48"/>
       <use x="1115.416016" xlink:href="#DejaVuSans-65"/>
       <use x="1176.939453" xlink:href="#DejaVuSans-72"/>
       <use x="1218.052734" xlink:href="#DejaVuSans-62"/>
       <use x="1281.529297" xlink:href="#DejaVuSans-65"/>
       <use x="1343.052734" xlink:href="#DejaVuSans-72"/>
       <use x="1384.150391" xlink:href="#DejaVuSans-67"/>
       <use x="1447.626953" xlink:href="#DejaVuSans-20"/>
       <use x="1479.414062" xlink:href="#DejaVuSans-4d"/>
       <use x="1565.693359" xlink:href="#DejaVuSans-69"/>
       <use x="1593.476562" xlink:href="#DejaVuSans-64"/>
       <use x="1656.953125" xlink:href="#DejaVuSans-64"/>
       <use x="1720.429688" xlink:href="#DejaVuSans-6c"/>
       <use x="1748.212891" xlink:href="#DejaVuSans-65"/>
      </g>
     </g>
    </g>
    <g id="xtick_12">
     <g id="line2d_12">
      <g>
       <use style="stroke:#000000;stroke-width:0.8;" x="677.832813" xlink:href="#m238de8c807" y="457.50625"/>
      </g>
     </g>
     <g id="text_12">
      <!-- Pittsfield - Williams -->
      <defs>
       <path d="M 3.328125 72.90625 
L 13.28125 72.90625 
L 28.609375 11.28125 
L 43.890625 72.90625 
L 54.984375 72.90625 
L 70.3125 11.28125 
L 85.59375 72.90625 
L 95.609375 72.90625 
L 77.296875 0 
L 64.890625 0 
L 49.515625 63.28125 
L 33.984375 0 
L 21.578125 0 
z
" id="DejaVuSans-57"/>
      </defs>
      <g transform="translate(680.592188 559.978125)rotate(-90)scale(0.1 -0.1)">
       <use xlink:href="#DejaVuSans-50"/>
       <use x="60.271484" xlink:href="#DejaVuSans-69"/>
       <use x="88.054688" xlink:href="#DejaVuSans-74"/>
       <use x="127.263672" xlink:href="#DejaVuSans-74"/>
       <use x="166.472656" xlink:href="#DejaVuSans-73"/>
       <use x="218.572266" xlink:href="#DejaVuSans-66"/>
       <use x="253.777344" xlink:href="#DejaVuSans-69"/>
       <use x="281.560547" xlink:href="#DejaVuSans-65"/>
       <use x="343.083984" xlink:href="#DejaVuSans-6c"/>
       <use x="370.867188" xlink:href="#DejaVuSans-64"/>
       <use x="434.34375" xlink:href="#DejaVuSans-20"/>
       <use x="466.130859" xlink:href="#DejaVuSans-2d"/>
       <use x="502.214844" xlink:href="#DejaVuSans-20"/>
       <use x="534.001953" xlink:href="#DejaVuSans-57"/>
       <use x="632.847656" xlink:href="#DejaVuSans-69"/>
       <use x="660.630859" xlink:href="#DejaVuSans-6c"/>
       <use x="688.414062" xlink:href="#DejaVuSans-6c"/>
       <use x="716.197266" xlink:href="#DejaVuSans-69"/>
       <use x="743.980469" xlink:href="#DejaVuSans-61"/>
       <use x="805.259766" xlink:href="#DejaVuSans-6d"/>
       <use x="902.671875" xlink:href="#DejaVuSans-73"/>
      </g>
     </g>
    </g>
   </g>
   <g id="matplotlib.axis_2">
    <g id="ytick_1">
     <g id="line2d_13">
      <defs>
       <path d="M 0 0 
L -3.5 0 
" id="m769d0caaf0" style="stroke:#000000;stroke-width:0.8;"/>
      </defs>
      <g>
       <use style="stroke:#000000;stroke-width:0.8;" x="36.8875" xlink:href="#m769d0caaf0" y="457.50625"/>
      </g>
     </g>
     <g id="text_13">
      <!-- 0 -->
      <defs>
       <path d="M 31.78125 66.40625 
Q 24.171875 66.40625 20.328125 58.90625 
Q 16.5 51.421875 16.5 36.375 
Q 16.5 21.390625 20.328125 13.890625 
Q 24.171875 6.390625 31.78125 6.390625 
Q 39.453125 6.390625 43.28125 13.890625 
Q 47.125 21.390625 47.125 36.375 
Q 47.125 51.421875 43.28125 58.90625 
Q 39.453125 66.40625 31.78125 66.40625 
z
M 31.78125 74.21875 
Q 44.046875 74.21875 50.515625 64.515625 
Q 56.984375 54.828125 56.984375 36.375 
Q 56.984375 17.96875 50.515625 8.265625 
Q 44.046875 -1.421875 31.78125 -1.421875 
Q 19.53125 -1.421875 13.0625 8.265625 
Q 6.59375 17.96875 6.59375 36.375 
Q 6.59375 54.828125 13.0625 64.515625 
Q 19.53125 74.21875 31.78125 74.21875 
z
" id="DejaVuSans-30"/>
      </defs>
      <g transform="translate(23.525 461.305469)scale(0.1 -0.1)">
       <use xlink:href="#DejaVuSans-30"/>
      </g>
     </g>
    </g>
    <g id="ytick_2">
     <g id="line2d_14">
      <g>
       <use style="stroke:#000000;stroke-width:0.8;" x="36.8875" xlink:href="#m769d0caaf0" y="369.015434"/>
      </g>
     </g>
     <g id="text_14">
      <!-- 20 -->
      <defs>
       <path d="M 19.1875 8.296875 
L 53.609375 8.296875 
L 53.609375 0 
L 7.328125 0 
L 7.328125 8.296875 
Q 12.9375 14.109375 22.625 23.890625 
Q 32.328125 33.6875 34.8125 36.53125 
Q 39.546875 41.84375 41.421875 45.53125 
Q 43.3125 49.21875 43.3125 52.78125 
Q 43.3125 58.59375 39.234375 62.25 
Q 35.15625 65.921875 28.609375 65.921875 
Q 23.96875 65.921875 18.8125 64.3125 
Q 13.671875 62.703125 7.8125 59.421875 
L 7.8125 69.390625 
Q 13.765625 71.78125 18.9375 73 
Q 24.125 74.21875 28.421875 74.21875 
Q 39.75 74.21875 46.484375 68.546875 
Q 53.21875 62.890625 53.21875 53.421875 
Q 53.21875 48.921875 51.53125 44.890625 
Q 49.859375 40.875 45.40625 35.40625 
Q 44.1875 33.984375 37.640625 27.21875 
Q 31.109375 20.453125 19.1875 8.296875 
z
" id="DejaVuSans-32"/>
      </defs>
      <g transform="translate(17.1625 372.814653)scale(0.1 -0.1)">
       <use xlink:href="#DejaVuSans-32"/>
       <use x="63.623047" xlink:href="#DejaVuSans-30"/>
      </g>
     </g>
    </g>
    <g id="ytick_3">
     <g id="line2d_15">
      <g>
       <use style="stroke:#000000;stroke-width:0.8;" x="36.8875" xlink:href="#m769d0caaf0" y="280.524619"/>
      </g>
     </g>
     <g id="text_15">
      <!-- 40 -->
      <defs>
       <path d="M 37.796875 64.3125 
L 12.890625 25.390625 
L 37.796875 25.390625 
z
M 35.203125 72.90625 
L 47.609375 72.90625 
L 47.609375 25.390625 
L 58.015625 25.390625 
L 58.015625 17.1875 
L 47.609375 17.1875 
L 47.609375 0 
L 37.796875 0 
L 37.796875 17.1875 
L 4.890625 17.1875 
L 4.890625 26.703125 
z
" id="DejaVuSans-34"/>
      </defs>
      <g transform="translate(17.1625 284.323838)scale(0.1 -0.1)">
       <use xlink:href="#DejaVuSans-34"/>
       <use x="63.623047" xlink:href="#DejaVuSans-30"/>
      </g>
     </g>
    </g>
    <g id="ytick_4">
     <g id="line2d_16">
      <g>
       <use style="stroke:#000000;stroke-width:0.8;" x="36.8875" xlink:href="#m769d0caaf0" y="192.033803"/>
      </g>
     </g>
     <g id="text_16">
      <!-- 60 -->
      <defs>
       <path d="M 33.015625 40.375 
Q 26.375 40.375 22.484375 35.828125 
Q 18.609375 31.296875 18.609375 23.390625 
Q 18.609375 15.53125 22.484375 10.953125 
Q 26.375 6.390625 33.015625 6.390625 
Q 39.65625 6.390625 43.53125 10.953125 
Q 47.40625 15.53125 47.40625 23.390625 
Q 47.40625 31.296875 43.53125 35.828125 
Q 39.65625 40.375 33.015625 40.375 
z
M 52.59375 71.296875 
L 52.59375 62.3125 
Q 48.875 64.0625 45.09375 64.984375 
Q 41.3125 65.921875 37.59375 65.921875 
Q 27.828125 65.921875 22.671875 59.328125 
Q 17.53125 52.734375 16.796875 39.40625 
Q 19.671875 43.65625 24.015625 45.921875 
Q 28.375 48.1875 33.59375 48.1875 
Q 44.578125 48.1875 50.953125 41.515625 
Q 57.328125 34.859375 57.328125 23.390625 
Q 57.328125 12.15625 50.6875 5.359375 
Q 44.046875 -1.421875 33.015625 -1.421875 
Q 20.359375 -1.421875 13.671875 8.265625 
Q 6.984375 17.96875 6.984375 36.375 
Q 6.984375 53.65625 15.1875 63.9375 
Q 23.390625 74.21875 37.203125 74.21875 
Q 40.921875 74.21875 44.703125 73.484375 
Q 48.484375 72.75 52.59375 71.296875 
z
" id="DejaVuSans-36"/>
      </defs>
      <g transform="translate(17.1625 195.833022)scale(0.1 -0.1)">
       <use xlink:href="#DejaVuSans-36"/>
       <use x="63.623047" xlink:href="#DejaVuSans-30"/>
      </g>
     </g>
    </g>
    <g id="ytick_5">
     <g id="line2d_17">
      <g>
       <use style="stroke:#000000;stroke-width:0.8;" x="36.8875" xlink:href="#m769d0caaf0" y="103.542988"/>
      </g>
     </g>
     <g id="text_17">
      <!-- 80 -->
      <defs>
       <path d="M 31.78125 34.625 
Q 24.75 34.625 20.71875 30.859375 
Q 16.703125 27.09375 16.703125 20.515625 
Q 16.703125 13.921875 20.71875 10.15625 
Q 24.75 6.390625 31.78125 6.390625 
Q 38.8125 6.390625 42.859375 10.171875 
Q 46.921875 13.96875 46.921875 20.515625 
Q 46.921875 27.09375 42.890625 30.859375 
Q 38.875 34.625 31.78125 34.625 
z
M 21.921875 38.8125 
Q 15.578125 40.375 12.03125 44.71875 
Q 8.5 49.078125 8.5 55.328125 
Q 8.5 64.0625 14.71875 69.140625 
Q 20.953125 74.21875 31.78125 74.21875 
Q 42.671875 74.21875 48.875 69.140625 
Q 55.078125 64.0625 55.078125 55.328125 
Q 55.078125 49.078125 51.53125 44.71875 
Q 48 40.375 41.703125 38.8125 
Q 48.828125 37.15625 52.796875 32.3125 
Q 56.78125 27.484375 56.78125 20.515625 
Q 56.78125 9.90625 50.3125 4.234375 
Q 43.84375 -1.421875 31.78125 -1.421875 
Q 19.734375 -1.421875 13.25 4.234375 
Q 6.78125 9.90625 6.78125 20.515625 
Q 6.78125 27.484375 10.78125 32.3125 
Q 14.796875 37.15625 21.921875 38.8125 
z
M 18.3125 54.390625 
Q 18.3125 48.734375 21.84375 45.5625 
Q 25.390625 42.390625 31.78125 42.390625 
Q 38.140625 42.390625 41.71875 45.5625 
Q 45.3125 48.734375 45.3125 54.390625 
Q 45.3125 60.0625 41.71875 63.234375 
Q 38.140625 66.40625 31.78125 66.40625 
Q 25.390625 66.40625 21.84375 63.234375 
Q 18.3125 60.0625 18.3125 54.390625 
z
" id="DejaVuSans-38"/>
      </defs>
      <g transform="translate(17.1625 107.342206)scale(0.1 -0.1)">
       <use xlink:href="#DejaVuSans-38"/>
       <use x="63.623047" xlink:href="#DejaVuSans-30"/>
      </g>
     </g>
    </g>
    <g id="ytick_6">
     <g id="line2d_18">
      <g>
       <use style="stroke:#000000;stroke-width:0.8;" x="36.8875" xlink:href="#m769d0caaf0" y="15.052172"/>
      </g>
     </g>
     <g id="text_18">
      <!-- 100 -->
      <defs>
       <path d="M 12.40625 8.296875 
L 28.515625 8.296875 
L 28.515625 63.921875 
L 10.984375 60.40625 
L 10.984375 69.390625 
L 28.421875 72.90625 
L 38.28125 72.90625 
L 38.28125 8.296875 
L 54.390625 8.296875 
L 54.390625 0 
L 12.40625 0 
z
" id="DejaVuSans-31"/>
      </defs>
      <g transform="translate(10.8 18.851391)scale(0.1 -0.1)">
       <use xlink:href="#DejaVuSans-31"/>
       <use x="63.623047" xlink:href="#DejaVuSans-30"/>
       <use x="127.246094" xlink:href="#DejaVuSans-30"/>
      </g>
     </g>
    </g>
   </g>
   <g id="patch_51">
    <path d="M 36.8875 457.50625 
L 36.8875 14.3 
" style="fill:none;stroke:#000000;stroke-linecap:square;stroke-linejoin:miter;stroke-width:0.8;"/>
   </g>
   <g id="patch_52">
    <path d="M 705.7 457.50625 
L 705.7 14.3 
" style="fill:none;stroke:#000000;stroke-linecap:square;stroke-linejoin:miter;stroke-width:0.8;"/>
   </g>
   <g id="patch_53">
    <path d="M 36.8875 457.50625 
L 705.7 457.50625 
" style="fill:none;stroke:#000000;stroke-linecap:square;stroke-linejoin:miter;stroke-width:0.8;"/>
   </g>
   <g id="patch_54">
    <path d="M 36.8875 14.3 
L 705.7 14.3 
" style="fill:none;stroke:#000000;stroke-linecap:square;stroke-linejoin:miter;stroke-width:0.8;"/>
   </g>
   <g id="legend_1">
    <g id="patch_55">
     <path d="M 43.8875 81.0125 
L 158.684375 81.0125 
Q 160.684375 81.0125 160.684375 79.0125 
L 160.684375 21.3 
Q 160.684375 19.3 158.684375 19.3 
L 43.8875 19.3 
Q 41.8875 19.3 41.8875 21.3 
L 41.8875 79.0125 
Q 41.8875 81.0125 43.8875 81.0125 
z
" style="fill:#ffffff;opacity:0.8;stroke:#cccccc;stroke-linejoin:miter;"/>
    </g>
    <g id="patch_56">
     <path d="M 45.8875 30.898438 
L 65.8875 30.898438 
L 65.8875 23.898438 
L 45.8875 23.898438 
z
" style="fill:#1f77b4;"/>
    </g>
    <g id="text_19">
     <!-- AfricanAmerican -->
     <g transform="translate(73.8875 30.898438)scale(0.1 -0.1)">
      <use xlink:href="#DejaVuSans-41"/>
      <use x="68.361328" xlink:href="#DejaVuSans-66"/>
      <use x="103.566406" xlink:href="#DejaVuSans-72"/>
      <use x="144.679688" xlink:href="#DejaVuSans-69"/>
      <use x="172.462891" xlink:href="#DejaVuSans-63"/>
      <use x="227.443359" xlink:href="#DejaVuSans-61"/>
      <use x="288.722656" xlink:href="#DejaVuSans-6e"/>
      <use x="352.101562" xlink:href="#DejaVuSans-41"/>
      <use x="420.509766" xlink:href="#DejaVuSans-6d"/>
      <use x="517.921875" xlink:href="#DejaVuSans-65"/>
      <use x="579.445312" xlink:href="#DejaVuSans-72"/>
      <use x="620.558594" xlink:href="#DejaVuSans-69"/>
      <use x="648.341797" xlink:href="#DejaVuSans-63"/>
      <use x="703.322266" xlink:href="#DejaVuSans-61"/>
      <use x="764.601562" xlink:href="#DejaVuSans-6e"/>
     </g>
    </g>
    <g id="patch_57">
     <path d="M 45.8875 45.576563 
L 65.8875 45.576563 
L 65.8875 38.576563 
L 45.8875 38.576563 
z
" style="fill:#ff7f0e;"/>
    </g>
    <g id="text_20">
     <!-- Asian -->
     <g transform="translate(73.8875 45.576563)scale(0.1 -0.1)">
      <use xlink:href="#DejaVuSans-41"/>
      <use x="68.408203" xlink:href="#DejaVuSans-73"/>
      <use x="120.507812" xlink:href="#DejaVuSans-69"/>
      <use x="148.291016" xlink:href="#DejaVuSans-61"/>
      <use x="209.570312" xlink:href="#DejaVuSans-6e"/>
     </g>
    </g>
    <g id="patch_58">
     <path d="M 45.8875 60.254688 
L 65.8875 60.254688 
L 65.8875 53.254688 
L 45.8875 53.254688 
z
" style="fill:#2ca02c;"/>
    </g>
    <g id="text_21">
     <!-- White -->
     <g transform="translate(73.8875 60.254688)scale(0.1 -0.1)">
      <use xlink:href="#DejaVuSans-57"/>
      <use x="98.876953" xlink:href="#DejaVuSans-68"/>
      <use x="162.255859" xlink:href="#DejaVuSans-69"/>
      <use x="190.039062" xlink:href="#DejaVuSans-74"/>
      <use x="229.248047" xlink:href="#DejaVuSans-65"/>
     </g>
    </g>
    <g id="patch_59">
     <path d="M 45.8875 74.932812 
L 65.8875 74.932812 
L 65.8875 67.932812 
L 45.8875 67.932812 
z
" style="fill:#d62728;"/>
    </g>
    <g id="text_22">
     <!-- Hispanic -->
     <g transform="translate(73.8875 74.932812)scale(0.1 -0.1)">
      <use xlink:href="#DejaVuSans-48"/>
      <use x="75.195312" xlink:href="#DejaVuSans-69"/>
      <use x="102.978516" xlink:href="#DejaVuSans-73"/>
      <use x="155.078125" xlink:href="#DejaVuSans-70"/>
      <use x="218.554688" xlink:href="#DejaVuSans-61"/>
      <use x="279.833984" xlink:href="#DejaVuSans-6e"/>
      <use x="343.212891" xlink:href="#DejaVuSans-69"/>
      <use x="370.996094" xlink:href="#DejaVuSans-63"/>
     </g>
    </g>
   </g>
  </g>
 </g>
 <defs>
  <clipPath id="p228d355dcd">
   <rect height="443.20625" width="668.8125" x="36.8875" y="14.3"/>
  </clipPath>
 </defs>
</svg>
