<?xml version="1.0" encoding="utf-8" standalone="no"?>
<!DOCTYPE svg PUBLIC "-//W3C//DTD SVG 1.1//EN"
  "http://www.w3.org/Graphics/SVG/1.1/DTD/svg11.dtd">
<!-- Created with matplotlib (http://matplotlib.org/) -->
<svg height="720pt" version="1.1" viewBox="0 0 720 720" width="720pt" xmlns="http://www.w3.org/2000/svg" xmlns:xlink="http://www.w3.org/1999/xlink">
 <defs>
  <style type="text/css">
*{stroke-linecap:butt;stroke-linejoin:round;}
  </style>
 </defs>
 <g id="figure_1">
  <g id="patch_1">
   <path d="M 0 720 
L 720 720 
L 720 0 
L 0 0 
z
" style="fill:#ffffff;"/>
  </g>
  <g id="axes_1">
   <g id="patch_2">
    <path d="M 36.8875 467.09375 
L 705.7 467.09375 
L 705.7 14.3 
L 36.8875 14.3 
z
" style="fill:#ffffff;"/>
   </g>
   <g id="patch_3">
    <path clip-path="url(#pc7b45cee37)" d="M 43.318389 467.09375 
L 56.180168 467.09375 
L 56.180168 424.893663 
L 43.318389 424.893663 
z
" style="fill:#1f77b4;"/>
   </g>
   <g id="patch_4">
    <path clip-path="url(#pc7b45cee37)" d="M 69.041947 467.09375 
L 81.903726 467.09375 
L 81.903726 406.431124 
L 69.041947 406.431124 
z
" style="fill:#1f77b4;"/>
   </g>
   <g id="patch_5">
    <path clip-path="url(#pc7b45cee37)" d="M 94.765505 467.09375 
L 107.627284 467.09375 
L 107.627284 426.652 
L 94.765505 426.652 
z
" style="fill:#1f77b4;"/>
   </g>
   <g id="patch_6">
    <path clip-path="url(#pc7b45cee37)" d="M 120.489063 467.09375 
L 133.350841 467.09375 
L 133.350841 421.816573 
L 120.489063 421.816573 
z
" style="fill:#1f77b4;"/>
   </g>
   <g id="patch_7">
    <path clip-path="url(#pc7b45cee37)" d="M 146.21262 467.09375 
L 159.074399 467.09375 
L 159.074399 402.91445 
L 146.21262 402.91445 
z
" style="fill:#1f77b4;"/>
   </g>
   <g id="patch_8">
    <path clip-path="url(#pc7b45cee37)" d="M 171.936178 467.09375 
L 184.797957 467.09375 
L 184.797957 423.57491 
L 171.936178 423.57491 
z
" style="fill:#1f77b4;"/>
   </g>
   <g id="patch_9">
    <path clip-path="url(#pc7b45cee37)" d="M 197.659736 467.09375 
L 210.521514 467.09375 
L 210.521514 428.410337 
L 197.659736 428.410337 
z
" style="fill:#1f77b4;"/>
   </g>
   <g id="patch_10">
    <path clip-path="url(#pc7b45cee37)" d="M 223.383293 467.09375 
L 236.245072 467.09375 
L 236.245072 430.168674 
L 223.383293 430.168674 
z
" style="fill:#1f77b4;"/>
   </g>
   <g id="patch_11">
    <path clip-path="url(#pc7b45cee37)" d="M 249.106851 467.09375 
L 261.96863 467.09375 
L 261.96863 421.376989 
L 249.106851 421.376989 
z
" style="fill:#1f77b4;"/>
   </g>
   <g id="patch_12">
    <path clip-path="url(#pc7b45cee37)" d="M 274.830409 467.09375 
L 287.692188 467.09375 
L 287.692188 435.883269 
L 274.830409 435.883269 
z
" style="fill:#1f77b4;"/>
   </g>
   <g id="patch_13">
    <path clip-path="url(#pc7b45cee37)" d="M 300.553966 467.09375 
L 313.415745 467.09375 
L 313.415745 413.904057 
L 300.553966 413.904057 
z
" style="fill:#1f77b4;"/>
   </g>
   <g id="patch_14">
    <path clip-path="url(#pc7b45cee37)" d="M 326.277524 467.09375 
L 339.139303 467.09375 
L 339.139303 427.531168 
L 326.277524 427.531168 
z
" style="fill:#1f77b4;"/>
   </g>
   <g id="patch_15">
    <path clip-path="url(#pc7b45cee37)" d="M 352.001082 467.09375 
L 364.862861 467.09375 
L 364.862861 425.333247 
L 352.001082 425.333247 
z
" style="fill:#1f77b4;"/>
   </g>
   <g id="patch_16">
    <path clip-path="url(#pc7b45cee37)" d="M 377.724639 467.09375 
L 390.586418 467.09375 
L 390.586418 393.243597 
L 377.724639 393.243597 
z
" style="fill:#1f77b4;"/>
   </g>
   <g id="patch_17">
    <path clip-path="url(#pc7b45cee37)" d="M 403.448197 467.09375 
L 416.309976 467.09375 
L 416.309976 434.124932 
L 403.448197 434.124932 
z
" style="fill:#1f77b4;"/>
   </g>
   <g id="patch_18">
    <path clip-path="url(#pc7b45cee37)" d="M 429.171755 467.09375 
L 442.033534 467.09375 
L 442.033534 424.893663 
L 429.171755 424.893663 
z
" style="fill:#1f77b4;"/>
   </g>
   <g id="patch_19">
    <path clip-path="url(#pc7b45cee37)" d="M 454.895313 467.09375 
L 467.757091 467.09375 
L 467.757091 433.685347 
L 454.895313 433.685347 
z
" style="fill:#1f77b4;"/>
   </g>
   <g id="patch_20">
    <path clip-path="url(#pc7b45cee37)" d="M 480.61887 467.09375 
L 493.480649 467.09375 
L 493.480649 461.818739 
L 480.61887 461.818739 
z
" style="fill:#1f77b4;"/>
   </g>
   <g id="patch_21">
    <path clip-path="url(#pc7b45cee37)" d="M 506.342428 467.09375 
L 519.204207 467.09375 
L 519.204207 437.641606 
L 506.342428 437.641606 
z
" style="fill:#1f77b4;"/>
   </g>
   <g id="patch_22">
    <path clip-path="url(#pc7b45cee37)" d="M 532.065986 467.09375 
L 544.927764 467.09375 
L 544.927764 432.366595 
L 532.065986 432.366595 
z
" style="fill:#1f77b4;"/>
   </g>
   <g id="patch_23">
    <path clip-path="url(#pc7b45cee37)" d="M 557.789543 467.09375 
L 570.651322 467.09375 
L 570.651322 427.531168 
L 557.789543 427.531168 
z
" style="fill:#1f77b4;"/>
   </g>
   <g id="patch_24">
    <path clip-path="url(#pc7b45cee37)" d="M 583.513101 467.09375 
L 596.37488 467.09375 
L 596.37488 424.454078 
L 583.513101 424.454078 
z
" style="fill:#1f77b4;"/>
   </g>
   <g id="patch_25">
    <path clip-path="url(#pc7b45cee37)" d="M 609.236659 467.09375 
L 622.098438 467.09375 
L 622.098438 421.376989 
L 609.236659 421.376989 
z
" style="fill:#1f77b4;"/>
   </g>
   <g id="patch_26">
    <path clip-path="url(#pc7b45cee37)" d="M 634.960216 467.09375 
L 647.821995 467.09375 
L 647.821995 408.189461 
L 634.960216 408.189461 
z
" style="fill:#1f77b4;"/>
   </g>
   <g id="patch_27">
    <path clip-path="url(#pc7b45cee37)" d="M 660.683774 467.09375 
L 673.545553 467.09375 
L 673.545553 449.51038 
L 660.683774 449.51038 
z
" style="fill:#1f77b4;"/>
   </g>
   <g id="patch_28">
    <path clip-path="url(#pc7b45cee37)" d="M 686.407332 467.09375 
L 699.269111 467.09375 
L 699.269111 439.399943 
L 686.407332 439.399943 
z
" style="fill:#1f77b4;"/>
   </g>
   <g id="patch_29">
    <path clip-path="url(#pc7b45cee37)" d="M 43.318389 424.893663 
L 56.180168 424.893663 
L 56.180168 354.999768 
L 43.318389 354.999768 
z
" style="fill:#ff7f0e;"/>
   </g>
   <g id="patch_30">
    <path clip-path="url(#pc7b45cee37)" d="M 69.041947 406.431124 
L 81.903726 406.431124 
L 81.903726 373.462306 
L 69.041947 373.462306 
z
" style="fill:#ff7f0e;"/>
   </g>
   <g id="patch_31">
    <path clip-path="url(#pc7b45cee37)" d="M 94.765505 426.652 
L 107.627284 426.652 
L 107.627284 379.616486 
L 94.765505 379.616486 
z
" style="fill:#ff7f0e;"/>
   </g>
   <g id="patch_32">
    <path clip-path="url(#pc7b45cee37)" d="M 120.489063 421.816573 
L 133.350841 421.816573 
L 133.350841 363.351869 
L 120.489063 363.351869 
z
" style="fill:#ff7f0e;"/>
   </g>
   <g id="patch_33">
    <path clip-path="url(#pc7b45cee37)" d="M 146.21262 402.91445 
L 159.074399 402.91445 
L 159.074399 374.781059 
L 146.21262 374.781059 
z
" style="fill:#ff7f0e;"/>
   </g>
   <g id="patch_34">
    <path clip-path="url(#pc7b45cee37)" d="M 171.936178 423.57491 
L 184.797957 423.57491 
L 184.797957 376.97898 
L 171.936178 376.97898 
z
" style="fill:#ff7f0e;"/>
   </g>
   <g id="patch_35">
    <path clip-path="url(#pc7b45cee37)" d="M 197.659736 428.410337 
L 210.521514 428.410337 
L 210.521514 404.233203 
L 197.659736 404.233203 
z
" style="fill:#ff7f0e;"/>
   </g>
   <g id="patch_36">
    <path clip-path="url(#pc7b45cee37)" d="M 223.383293 430.168674 
L 236.245072 430.168674 
L 236.245072 397.63944 
L 223.383293 397.63944 
z
" style="fill:#ff7f0e;"/>
   </g>
   <g id="patch_37">
    <path clip-path="url(#pc7b45cee37)" d="M 249.106851 421.376989 
L 261.96863 421.376989 
L 261.96863 371.264385 
L 249.106851 371.264385 
z
" style="fill:#ff7f0e;"/>
   </g>
   <g id="patch_38">
    <path clip-path="url(#pc7b45cee37)" d="M 274.830409 435.883269 
L 287.692188 435.883269 
L 287.692188 387.089418 
L 274.830409 387.089418 
z
" style="fill:#ff7f0e;"/>
   </g>
   <g id="patch_39">
    <path clip-path="url(#pc7b45cee37)" d="M 300.553966 413.904057 
L 313.415745 413.904057 
L 313.415745 401.595698 
L 300.553966 401.595698 
z
" style="fill:#ff7f0e;"/>
   </g>
   <g id="patch_40">
    <path clip-path="url(#pc7b45cee37)" d="M 326.277524 427.531168 
L 339.139303 427.531168 
L 339.139303 393.243597 
L 326.277524 393.243597 
z
" style="fill:#ff7f0e;"/>
   </g>
   <g id="patch_41">
    <path clip-path="url(#pc7b45cee37)" d="M 352.001082 425.333247 
L 364.862861 425.333247 
L 364.862861 384.891496 
L 352.001082 384.891496 
z
" style="fill:#ff7f0e;"/>
   </g>
   <g id="patch_42">
    <path clip-path="url(#pc7b45cee37)" d="M 377.724639 393.243597 
L 390.586418 393.243597 
L 390.586418 355.878936 
L 377.724639 355.878936 
z
" style="fill:#ff7f0e;"/>
   </g>
   <g id="patch_43">
    <path clip-path="url(#pc7b45cee37)" d="M 403.448197 434.124932 
L 416.309976 434.124932 
L 416.309976 401.156113 
L 403.448197 401.156113 
z
" style="fill:#ff7f0e;"/>
   </g>
   <g id="patch_44">
    <path clip-path="url(#pc7b45cee37)" d="M 429.171755 424.893663 
L 442.033534 424.893663 
L 442.033534 388.847755 
L 429.171755 388.847755 
z
" style="fill:#ff7f0e;"/>
   </g>
   <g id="patch_45">
    <path clip-path="url(#pc7b45cee37)" d="M 454.895313 433.685347 
L 467.757091 433.685347 
L 467.757091 406.870709 
L 454.895313 406.870709 
z
" style="fill:#ff7f0e;"/>
   </g>
   <g id="patch_46">
    <path clip-path="url(#pc7b45cee37)" d="M 480.61887 461.818739 
L 493.480649 461.818739 
L 493.480649 442.916617 
L 480.61887 442.916617 
z
" style="fill:#ff7f0e;"/>
   </g>
   <g id="patch_47">
    <path clip-path="url(#pc7b45cee37)" d="M 506.342428 437.641606 
L 519.204207 437.641606 
L 519.204207 398.518608 
L 506.342428 398.518608 
z
" style="fill:#ff7f0e;"/>
   </g>
   <g id="patch_48">
    <path clip-path="url(#pc7b45cee37)" d="M 532.065986 432.366595 
L 544.927764 432.366595 
L 544.927764 395.881103 
L 532.065986 395.881103 
z
" style="fill:#ff7f0e;"/>
   </g>
   <g id="patch_49">
    <path clip-path="url(#pc7b45cee37)" d="M 557.789543 427.531168 
L 570.651322 427.531168 
L 570.651322 404.672787 
L 557.789543 404.672787 
z
" style="fill:#ff7f0e;"/>
   </g>
   <g id="patch_50">
    <path clip-path="url(#pc7b45cee37)" d="M 583.513101 424.454078 
L 596.37488 424.454078 
L 596.37488 389.287339 
L 583.513101 389.287339 
z
" style="fill:#ff7f0e;"/>
   </g>
   <g id="patch_51">
    <path clip-path="url(#pc7b45cee37)" d="M 609.236659 421.376989 
L 622.098438 421.376989 
L 622.098438 395.881103 
L 609.236659 395.881103 
z
" style="fill:#ff7f0e;"/>
   </g>
   <g id="patch_52">
    <path clip-path="url(#pc7b45cee37)" d="M 634.960216 408.189461 
L 647.821995 408.189461 
L 647.821995 380.05607 
L 634.960216 380.05607 
z
" style="fill:#ff7f0e;"/>
   </g>
   <g id="patch_53">
    <path clip-path="url(#pc7b45cee37)" d="M 660.683774 449.51038 
L 673.545553 449.51038 
L 673.545553 440.718695 
L 660.683774 440.718695 
z
" style="fill:#ff7f0e;"/>
   </g>
   <g id="patch_54">
    <path clip-path="url(#pc7b45cee37)" d="M 686.407332 439.399943 
L 699.269111 439.399943 
L 699.269111 373.462306 
L 686.407332 373.462306 
z
" style="fill:#ff7f0e;"/>
   </g>
   <g id="patch_55">
    <path clip-path="url(#pc7b45cee37)" d="M 43.318389 354.999768 
L 56.180168 354.999768 
L 56.180168 329.943466 
L 43.318389 329.943466 
z
" style="fill:#2ca02c;"/>
   </g>
   <g id="patch_56">
    <path clip-path="url(#pc7b45cee37)" d="M 69.041947 373.462306 
L 81.903726 373.462306 
L 81.903726 245.103707 
L 69.041947 245.103707 
z
" style="fill:#2ca02c;"/>
   </g>
   <g id="patch_57">
    <path clip-path="url(#pc7b45cee37)" d="M 94.765505 379.616486 
L 107.627284 379.616486 
L 107.627284 319.833028 
L 94.765505 319.833028 
z
" style="fill:#2ca02c;"/>
   </g>
   <g id="patch_58">
    <path clip-path="url(#pc7b45cee37)" d="M 120.489063 363.351869 
L 133.350841 363.351869 
L 133.350841 291.699637 
L 120.489063 291.699637 
z
" style="fill:#2ca02c;"/>
   </g>
   <g id="patch_59">
    <path clip-path="url(#pc7b45cee37)" d="M 146.21262 374.781059 
L 159.074399 374.781059 
L 159.074399 174.330644 
L 146.21262 174.330644 
z
" style="fill:#2ca02c;"/>
   </g>
   <g id="patch_60">
    <path clip-path="url(#pc7b45cee37)" d="M 171.936178 376.97898 
L 184.797957 376.97898 
L 184.797957 282.907952 
L 171.936178 282.907952 
z
" style="fill:#2ca02c;"/>
   </g>
   <g id="patch_61">
    <path clip-path="url(#pc7b45cee37)" d="M 197.659736 404.233203 
L 210.521514 404.233203 
L 210.521514 387.529002 
L 197.659736 387.529002 
z
" style="fill:#2ca02c;"/>
   </g>
   <g id="patch_62">
    <path clip-path="url(#pc7b45cee37)" d="M 223.383293 397.63944 
L 236.245072 397.63944 
L 236.245072 353.681015 
L 223.383293 353.681015 
z
" style="fill:#2ca02c;"/>
   </g>
   <g id="patch_63">
    <path clip-path="url(#pc7b45cee37)" d="M 249.106851 371.264385 
L 261.96863 371.264385 
L 261.96863 325.547624 
L 249.106851 325.547624 
z
" style="fill:#2ca02c;"/>
   </g>
   <g id="patch_64">
    <path clip-path="url(#pc7b45cee37)" d="M 274.830409 387.089418 
L 287.692188 387.089418 
L 287.692188 243.34537 
L 274.830409 243.34537 
z
" style="fill:#2ca02c;"/>
   </g>
   <g id="patch_65">
    <path clip-path="url(#pc7b45cee37)" d="M 300.553966 401.595698 
L 313.415745 401.595698 
L 313.415745 294.776727 
L 300.553966 294.776727 
z
" style="fill:#2ca02c;"/>
   </g>
   <g id="patch_66">
    <path clip-path="url(#pc7b45cee37)" d="M 326.277524 393.243597 
L 339.139303 393.243597 
L 339.139303 318.514276 
L 326.277524 318.514276 
z
" style="fill:#2ca02c;"/>
   </g>
   <g id="patch_67">
    <path clip-path="url(#pc7b45cee37)" d="M 352.001082 384.891496 
L 364.862861 384.891496 
L 364.862861 347.087252 
L 352.001082 347.087252 
z
" style="fill:#2ca02c;"/>
   </g>
   <g id="patch_68">
    <path clip-path="url(#pc7b45cee37)" d="M 377.724639 355.878936 
L 390.586418 355.878936 
L 390.586418 274.995436 
L 377.724639 274.995436 
z
" style="fill:#2ca02c;"/>
   </g>
   <g id="patch_69">
    <path clip-path="url(#pc7b45cee37)" d="M 403.448197 401.156113 
L 416.309976 401.156113 
L 416.309976 296.535064 
L 403.448197 296.535064 
z
" style="fill:#2ca02c;"/>
   </g>
   <g id="patch_70">
    <path clip-path="url(#pc7b45cee37)" d="M 429.171755 388.847755 
L 442.033534 388.847755 
L 442.033534 318.514276 
L 429.171755 318.514276 
z
" style="fill:#2ca02c;"/>
   </g>
   <g id="patch_71">
    <path clip-path="url(#pc7b45cee37)" d="M 454.895313 406.870709 
L 467.757091 406.870709 
L 467.757091 340.933072 
L 454.895313 340.933072 
z
" style="fill:#2ca02c;"/>
   </g>
   <g id="patch_72">
    <path clip-path="url(#pc7b45cee37)" d="M 480.61887 442.916617 
L 493.480649 442.916617 
L 493.480649 170.374386 
L 480.61887 170.374386 
z
" style="fill:#2ca02c;"/>
   </g>
   <g id="patch_73">
    <path clip-path="url(#pc7b45cee37)" d="M 506.342428 398.518608 
L 519.204207 398.518608 
L 519.204207 246.42246 
L 506.342428 246.42246 
z
" style="fill:#2ca02c;"/>
   </g>
   <g id="patch_74">
    <path clip-path="url(#pc7b45cee37)" d="M 532.065986 395.881103 
L 544.927764 395.881103 
L 544.927764 363.791453 
L 532.065986 363.791453 
z
" style="fill:#2ca02c;"/>
   </g>
   <g id="patch_75">
    <path clip-path="url(#pc7b45cee37)" d="M 557.789543 404.672787 
L 570.651322 404.672787 
L 570.651322 261.368324 
L 557.789543 261.368324 
z
" style="fill:#2ca02c;"/>
   </g>
   <g id="patch_76">
    <path clip-path="url(#pc7b45cee37)" d="M 583.513101 389.287339 
L 596.37488 389.287339 
L 596.37488 341.812241 
L 583.513101 341.812241 
z
" style="fill:#2ca02c;"/>
   </g>
   <g id="patch_77">
    <path clip-path="url(#pc7b45cee37)" d="M 609.236659 395.881103 
L 622.098438 395.881103 
L 622.098438 363.351869 
L 609.236659 363.351869 
z
" style="fill:#2ca02c;"/>
   </g>
   <g id="patch_78">
    <path clip-path="url(#pc7b45cee37)" d="M 634.960216 380.05607 
L 647.821995 380.05607 
L 647.821995 360.274779 
L 634.960216 360.274779 
z
" style="fill:#2ca02c;"/>
   </g>
   <g id="patch_79">
    <path clip-path="url(#pc7b45cee37)" d="M 660.683774 440.718695 
L 673.545553 440.718695 
L 673.545553 352.801847 
L 660.683774 352.801847 
z
" style="fill:#2ca02c;"/>
   </g>
   <g id="patch_80">
    <path clip-path="url(#pc7b45cee37)" d="M 686.407332 373.462306 
L 699.269111 373.462306 
L 699.269111 352.801847 
L 686.407332 352.801847 
z
" style="fill:#2ca02c;"/>
   </g>
   <g id="patch_81">
    <path clip-path="url(#pc7b45cee37)" d="M 43.318389 329.943466 
L 56.180168 329.943466 
L 56.180168 45.092876 
L 43.318389 45.092876 
z
" style="fill:#d62728;"/>
   </g>
   <g id="patch_82">
    <path clip-path="url(#pc7b45cee37)" d="M 69.041947 245.103707 
L 81.903726 245.103707 
L 81.903726 71.467931 
L 69.041947 71.467931 
z
" style="fill:#d62728;"/>
   </g>
   <g id="patch_83">
    <path clip-path="url(#pc7b45cee37)" d="M 94.765505 319.833028 
L 107.627284 319.833028 
L 107.627284 44.213708 
L 94.765505 44.213708 
z
" style="fill:#d62728;"/>
   </g>
   <g id="patch_84">
    <path clip-path="url(#pc7b45cee37)" d="M 120.489063 291.699637 
L 133.350841 291.699637 
L 133.350841 52.126224 
L 120.489063 52.126224 
z
" style="fill:#d62728;"/>
   </g>
   <g id="patch_85">
    <path clip-path="url(#pc7b45cee37)" d="M 146.21262 174.330644 
L 159.074399 174.330644 
L 159.074399 63.555414 
L 146.21262 63.555414 
z
" style="fill:#d62728;"/>
   </g>
   <g id="patch_86">
    <path clip-path="url(#pc7b45cee37)" d="M 171.936178 282.907952 
L 184.797957 282.907952 
L 184.797957 39.378281 
L 171.936178 39.378281 
z
" style="fill:#d62728;"/>
   </g>
   <g id="patch_87">
    <path clip-path="url(#pc7b45cee37)" d="M 197.659736 387.529002 
L 210.521514 387.529002 
L 210.521514 38.938697 
L 197.659736 38.938697 
z
" style="fill:#d62728;"/>
   </g>
   <g id="patch_88">
    <path clip-path="url(#pc7b45cee37)" d="M 223.383293 353.681015 
L 236.245072 353.681015 
L 236.245072 42.894955 
L 223.383293 42.894955 
z
" style="fill:#d62728;"/>
   </g>
   <g id="patch_89">
    <path clip-path="url(#pc7b45cee37)" d="M 249.106851 325.547624 
L 261.96863 325.547624 
L 261.96863 35.861607 
L 249.106851 35.861607 
z
" style="fill:#d62728;"/>
   </g>
   <g id="patch_90">
    <path clip-path="url(#pc7b45cee37)" d="M 274.830409 243.34537 
L 287.692188 243.34537 
L 287.692188 54.76373 
L 274.830409 54.76373 
z
" style="fill:#d62728;"/>
   </g>
   <g id="patch_91">
    <path clip-path="url(#pc7b45cee37)" d="M 300.553966 294.776727 
L 313.415745 294.776727 
L 313.415745 52.565808 
L 300.553966 52.565808 
z
" style="fill:#d62728;"/>
   </g>
   <g id="patch_92">
    <path clip-path="url(#pc7b45cee37)" d="M 326.277524 318.514276 
L 339.139303 318.514276 
L 339.139303 39.817865 
L 326.277524 39.817865 
z
" style="fill:#d62728;"/>
   </g>
   <g id="patch_93">
    <path clip-path="url(#pc7b45cee37)" d="M 352.001082 347.087252 
L 364.862861 347.087252 
L 364.862861 43.334539 
L 352.001082 43.334539 
z
" style="fill:#d62728;"/>
   </g>
   <g id="patch_94">
    <path clip-path="url(#pc7b45cee37)" d="M 377.724639 274.995436 
L 390.586418 274.995436 
L 390.586418 56.522067 
L 377.724639 56.522067 
z
" style="fill:#d62728;"/>
   </g>
   <g id="patch_95">
    <path clip-path="url(#pc7b45cee37)" d="M 403.448197 296.535064 
L 416.309976 296.535064 
L 416.309976 51.247056 
L 403.448197 51.247056 
z
" style="fill:#d62728;"/>
   </g>
   <g id="patch_96">
    <path clip-path="url(#pc7b45cee37)" d="M 429.171755 318.514276 
L 442.033534 318.514276 
L 442.033534 40.25745 
L 429.171755 40.25745 
z
" style="fill:#d62728;"/>
   </g>
   <g id="patch_97">
    <path clip-path="url(#pc7b45cee37)" d="M 454.895313 340.933072 
L 467.757091 340.933072 
L 467.757091 40.25745 
L 454.895313 40.25745 
z
" style="fill:#d62728;"/>
   </g>
   <g id="patch_98">
    <path clip-path="url(#pc7b45cee37)" d="M 480.61887 170.374386 
L 493.480649 170.374386 
L 493.480649 73.226268 
L 480.61887 73.226268 
z
" style="fill:#d62728;"/>
   </g>
   <g id="patch_99">
    <path clip-path="url(#pc7b45cee37)" d="M 506.342428 246.42246 
L 519.204207 246.42246 
L 519.204207 59.159572 
L 506.342428 59.159572 
z
" style="fill:#d62728;"/>
   </g>
   <g id="patch_100">
    <path clip-path="url(#pc7b45cee37)" d="M 532.065986 363.791453 
L 544.927764 363.791453 
L 544.927764 39.378281 
L 532.065986 39.378281 
z
" style="fill:#d62728;"/>
   </g>
   <g id="patch_101">
    <path clip-path="url(#pc7b45cee37)" d="M 557.789543 261.368324 
L 570.651322 261.368324 
L 570.651322 47.290797 
L 557.789543 47.290797 
z
" style="fill:#d62728;"/>
   </g>
   <g id="patch_102">
    <path clip-path="url(#pc7b45cee37)" d="M 583.513101 341.812241 
L 596.37488 341.812241 
L 596.37488 43.774124 
L 583.513101 43.774124 
z
" style="fill:#d62728;"/>
   </g>
   <g id="patch_103">
    <path clip-path="url(#pc7b45cee37)" d="M 609.236659 363.351869 
L 622.098438 363.351869 
L 622.098438 43.334539 
L 609.236659 43.334539 
z
" style="fill:#d62728;"/>
   </g>
   <g id="patch_104">
    <path clip-path="url(#pc7b45cee37)" d="M 634.960216 360.274779 
L 647.821995 360.274779 
L 647.821995 45.092876 
L 634.960216 45.092876 
z
" style="fill:#d62728;"/>
   </g>
   <g id="patch_105">
    <path clip-path="url(#pc7b45cee37)" d="M 660.683774 352.801847 
L 673.545553 352.801847 
L 673.545553 53.884561 
L 660.683774 53.884561 
z
" style="fill:#d62728;"/>
   </g>
   <g id="patch_106">
    <path clip-path="url(#pc7b45cee37)" d="M 686.407332 352.801847 
L 699.269111 352.801847 
L 699.269111 36.301191 
L 686.407332 36.301191 
z
" style="fill:#d62728;"/>
   </g>
   <g id="matplotlib.axis_1">
    <g id="xtick_1">
     <g id="line2d_1">
      <defs>
       <path d="M 0 0 
L 0 3.5 
" id="m8358e9b51e" style="stroke:#000000;stroke-width:0.8;"/>
      </defs>
      <g>
       <use style="stroke:#000000;stroke-width:0.8;" x="49.749279" xlink:href="#m8358e9b51e" y="467.09375"/>
      </g>
     </g>
     <g id="text_1">
      <!-- Lynn - A Drewicz Elementary -->
      <defs>
       <path d="M 9.8125 72.90625 
L 19.671875 72.90625 
L 19.671875 8.296875 
L 55.171875 8.296875 
L 55.171875 0 
L 9.8125 0 
z
" id="DejaVuSans-4c"/>
       <path d="M 32.171875 -5.078125 
Q 28.375 -14.84375 24.75 -17.8125 
Q 21.140625 -20.796875 15.09375 -20.796875 
L 7.90625 -20.796875 
L 7.90625 -13.28125 
L 13.1875 -13.28125 
Q 16.890625 -13.28125 18.9375 -11.515625 
Q 21 -9.765625 23.484375 -3.21875 
L 25.09375 0.875 
L 2.984375 54.6875 
L 12.5 54.6875 
L 29.59375 11.921875 
L 46.6875 54.6875 
L 56.203125 54.6875 
z
" id="DejaVuSans-79"/>
       <path d="M 54.890625 33.015625 
L 54.890625 0 
L 45.90625 0 
L 45.90625 32.71875 
Q 45.90625 40.484375 42.875 44.328125 
Q 39.84375 48.1875 33.796875 48.1875 
Q 26.515625 48.1875 22.3125 43.546875 
Q 18.109375 38.921875 18.109375 30.90625 
L 18.109375 0 
L 9.078125 0 
L 9.078125 54.6875 
L 18.109375 54.6875 
L 18.109375 46.1875 
Q 21.34375 51.125 25.703125 53.5625 
Q 30.078125 56 35.796875 56 
Q 45.21875 56 50.046875 50.171875 
Q 54.890625 44.34375 54.890625 33.015625 
z
" id="DejaVuSans-6e"/>
       <path id="DejaVuSans-20"/>
       <path d="M 4.890625 31.390625 
L 31.203125 31.390625 
L 31.203125 23.390625 
L 4.890625 23.390625 
z
" id="DejaVuSans-2d"/>
       <path d="M 34.1875 63.1875 
L 20.796875 26.90625 
L 47.609375 26.90625 
z
M 28.609375 72.90625 
L 39.796875 72.90625 
L 67.578125 0 
L 57.328125 0 
L 50.6875 18.703125 
L 17.828125 18.703125 
L 11.1875 0 
L 0.78125 0 
z
" id="DejaVuSans-41"/>
       <path d="M 19.671875 64.796875 
L 19.671875 8.109375 
L 31.59375 8.109375 
Q 46.6875 8.109375 53.6875 14.9375 
Q 60.6875 21.78125 60.6875 36.53125 
Q 60.6875 51.171875 53.6875 57.984375 
Q 46.6875 64.796875 31.59375 64.796875 
z
M 9.8125 72.90625 
L 30.078125 72.90625 
Q 51.265625 72.90625 61.171875 64.09375 
Q 71.09375 55.28125 71.09375 36.53125 
Q 71.09375 17.671875 61.125 8.828125 
Q 51.171875 0 30.078125 0 
L 9.8125 0 
z
" id="DejaVuSans-44"/>
       <path d="M 41.109375 46.296875 
Q 39.59375 47.171875 37.8125 47.578125 
Q 36.03125 48 33.890625 48 
Q 26.265625 48 22.1875 43.046875 
Q 18.109375 38.09375 18.109375 28.8125 
L 18.109375 0 
L 9.078125 0 
L 9.078125 54.6875 
L 18.109375 54.6875 
L 18.109375 46.1875 
Q 20.953125 51.171875 25.484375 53.578125 
Q 30.03125 56 36.53125 56 
Q 37.453125 56 38.578125 55.875 
Q 39.703125 55.765625 41.0625 55.515625 
z
" id="DejaVuSans-72"/>
       <path d="M 56.203125 29.59375 
L 56.203125 25.203125 
L 14.890625 25.203125 
Q 15.484375 15.921875 20.484375 11.0625 
Q 25.484375 6.203125 34.421875 6.203125 
Q 39.59375 6.203125 44.453125 7.46875 
Q 49.3125 8.734375 54.109375 11.28125 
L 54.109375 2.78125 
Q 49.265625 0.734375 44.1875 -0.34375 
Q 39.109375 -1.421875 33.890625 -1.421875 
Q 20.796875 -1.421875 13.15625 6.1875 
Q 5.515625 13.8125 5.515625 26.8125 
Q 5.515625 40.234375 12.765625 48.109375 
Q 20.015625 56 32.328125 56 
Q 43.359375 56 49.78125 48.890625 
Q 56.203125 41.796875 56.203125 29.59375 
z
M 47.21875 32.234375 
Q 47.125 39.59375 43.09375 43.984375 
Q 39.0625 48.390625 32.421875 48.390625 
Q 24.90625 48.390625 20.390625 44.140625 
Q 15.875 39.890625 15.1875 32.171875 
z
" id="DejaVuSans-65"/>
       <path d="M 4.203125 54.6875 
L 13.1875 54.6875 
L 24.421875 12.015625 
L 35.59375 54.6875 
L 46.1875 54.6875 
L 57.421875 12.015625 
L 68.609375 54.6875 
L 77.59375 54.6875 
L 63.28125 0 
L 52.6875 0 
L 40.921875 44.828125 
L 29.109375 0 
L 18.5 0 
z
" id="DejaVuSans-77"/>
       <path d="M 9.421875 54.6875 
L 18.40625 54.6875 
L 18.40625 0 
L 9.421875 0 
z
M 9.421875 75.984375 
L 18.40625 75.984375 
L 18.40625 64.59375 
L 9.421875 64.59375 
z
" id="DejaVuSans-69"/>
       <path d="M 48.78125 52.59375 
L 48.78125 44.1875 
Q 44.96875 46.296875 41.140625 47.34375 
Q 37.3125 48.390625 33.40625 48.390625 
Q 24.65625 48.390625 19.8125 42.84375 
Q 14.984375 37.3125 14.984375 27.296875 
Q 14.984375 17.28125 19.8125 11.734375 
Q 24.65625 6.203125 33.40625 6.203125 
Q 37.3125 6.203125 41.140625 7.25 
Q 44.96875 8.296875 48.78125 10.40625 
L 48.78125 2.09375 
Q 45.015625 0.34375 40.984375 -0.53125 
Q 36.96875 -1.421875 32.421875 -1.421875 
Q 20.0625 -1.421875 12.78125 6.34375 
Q 5.515625 14.109375 5.515625 27.296875 
Q 5.515625 40.671875 12.859375 48.328125 
Q 20.21875 56 33.015625 56 
Q 37.15625 56 41.109375 55.140625 
Q 45.0625 54.296875 48.78125 52.59375 
z
" id="DejaVuSans-63"/>
       <path d="M 5.515625 54.6875 
L 48.1875 54.6875 
L 48.1875 46.484375 
L 14.40625 7.171875 
L 48.1875 7.171875 
L 48.1875 0 
L 4.296875 0 
L 4.296875 8.203125 
L 38.09375 47.515625 
L 5.515625 47.515625 
z
" id="DejaVuSans-7a"/>
       <path d="M 9.8125 72.90625 
L 55.90625 72.90625 
L 55.90625 64.59375 
L 19.671875 64.59375 
L 19.671875 43.015625 
L 54.390625 43.015625 
L 54.390625 34.71875 
L 19.671875 34.71875 
L 19.671875 8.296875 
L 56.78125 8.296875 
L 56.78125 0 
L 9.8125 0 
z
" id="DejaVuSans-45"/>
       <path d="M 9.421875 75.984375 
L 18.40625 75.984375 
L 18.40625 0 
L 9.421875 0 
z
" id="DejaVuSans-6c"/>
       <path d="M 52 44.1875 
Q 55.375 50.25 60.0625 53.125 
Q 64.75 56 71.09375 56 
Q 79.640625 56 84.28125 50.015625 
Q 88.921875 44.046875 88.921875 33.015625 
L 88.921875 0 
L 79.890625 0 
L 79.890625 32.71875 
Q 79.890625 40.578125 77.09375 44.375 
Q 74.3125 48.1875 68.609375 48.1875 
Q 61.625 48.1875 57.5625 43.546875 
Q 53.515625 38.921875 53.515625 30.90625 
L 53.515625 0 
L 44.484375 0 
L 44.484375 32.71875 
Q 44.484375 40.625 41.703125 44.40625 
Q 38.921875 48.1875 33.109375 48.1875 
Q 26.21875 48.1875 22.15625 43.53125 
Q 18.109375 38.875 18.109375 30.90625 
L 18.109375 0 
L 9.078125 0 
L 9.078125 54.6875 
L 18.109375 54.6875 
L 18.109375 46.1875 
Q 21.1875 51.21875 25.484375 53.609375 
Q 29.78125 56 35.6875 56 
Q 41.65625 56 45.828125 52.96875 
Q 50 49.953125 52 44.1875 
z
" id="DejaVuSans-6d"/>
       <path d="M 18.3125 70.21875 
L 18.3125 54.6875 
L 36.8125 54.6875 
L 36.8125 47.703125 
L 18.3125 47.703125 
L 18.3125 18.015625 
Q 18.3125 11.328125 20.140625 9.421875 
Q 21.96875 7.515625 27.59375 7.515625 
L 36.8125 7.515625 
L 36.8125 0 
L 27.59375 0 
Q 17.1875 0 13.234375 3.875 
Q 9.28125 7.765625 9.28125 18.015625 
L 9.28125 47.703125 
L 2.6875 47.703125 
L 2.6875 54.6875 
L 9.28125 54.6875 
L 9.28125 70.21875 
z
" id="DejaVuSans-74"/>
       <path d="M 34.28125 27.484375 
Q 23.390625 27.484375 19.1875 25 
Q 14.984375 22.515625 14.984375 16.5 
Q 14.984375 11.71875 18.140625 8.90625 
Q 21.296875 6.109375 26.703125 6.109375 
Q 34.1875 6.109375 38.703125 11.40625 
Q 43.21875 16.703125 43.21875 25.484375 
L 43.21875 27.484375 
z
M 52.203125 31.203125 
L 52.203125 0 
L 43.21875 0 
L 43.21875 8.296875 
Q 40.140625 3.328125 35.546875 0.953125 
Q 30.953125 -1.421875 24.3125 -1.421875 
Q 15.921875 -1.421875 10.953125 3.296875 
Q 6 8.015625 6 15.921875 
Q 6 25.140625 12.171875 29.828125 
Q 18.359375 34.515625 30.609375 34.515625 
L 43.21875 34.515625 
L 43.21875 35.40625 
Q 43.21875 41.609375 39.140625 45 
Q 35.0625 48.390625 27.6875 48.390625 
Q 23 48.390625 18.546875 47.265625 
Q 14.109375 46.140625 10.015625 43.890625 
L 10.015625 52.203125 
Q 14.9375 54.109375 19.578125 55.046875 
Q 24.21875 56 28.609375 56 
Q 40.484375 56 46.34375 49.84375 
Q 52.203125 43.703125 52.203125 31.203125 
z
" id="DejaVuSans-61"/>
      </defs>
      <g transform="translate(52.508654 618.629687)rotate(-90)scale(0.1 -0.1)">
       <use xlink:href="#DejaVuSans-4c"/>
       <use x="55.572266" xlink:href="#DejaVuSans-79"/>
       <use x="114.751953" xlink:href="#DejaVuSans-6e"/>
       <use x="178.130859" xlink:href="#DejaVuSans-6e"/>
       <use x="241.509766" xlink:href="#DejaVuSans-20"/>
       <use x="273.296875" xlink:href="#DejaVuSans-2d"/>
       <use x="309.380859" xlink:href="#DejaVuSans-20"/>
       <use x="341.167969" xlink:href="#DejaVuSans-41"/>
       <use x="409.576172" xlink:href="#DejaVuSans-20"/>
       <use x="441.363281" xlink:href="#DejaVuSans-44"/>
       <use x="518.365234" xlink:href="#DejaVuSans-72"/>
       <use x="559.447266" xlink:href="#DejaVuSans-65"/>
       <use x="620.970703" xlink:href="#DejaVuSans-77"/>
       <use x="702.757812" xlink:href="#DejaVuSans-69"/>
       <use x="730.541016" xlink:href="#DejaVuSans-63"/>
       <use x="785.521484" xlink:href="#DejaVuSans-7a"/>
       <use x="838.011719" xlink:href="#DejaVuSans-20"/>
       <use x="869.798828" xlink:href="#DejaVuSans-45"/>
       <use x="932.982422" xlink:href="#DejaVuSans-6c"/>
       <use x="960.765625" xlink:href="#DejaVuSans-65"/>
       <use x="1022.289062" xlink:href="#DejaVuSans-6d"/>
       <use x="1119.701172" xlink:href="#DejaVuSans-65"/>
       <use x="1181.224609" xlink:href="#DejaVuSans-6e"/>
       <use x="1244.603516" xlink:href="#DejaVuSans-74"/>
       <use x="1283.8125" xlink:href="#DejaVuSans-61"/>
       <use x="1345.091797" xlink:href="#DejaVuSans-72"/>
       <use x="1386.205078" xlink:href="#DejaVuSans-79"/>
      </g>
     </g>
    </g>
    <g id="xtick_2">
     <g id="line2d_2">
      <g>
       <use style="stroke:#000000;stroke-width:0.8;" x="75.472837" xlink:href="#m8358e9b51e" y="467.09375"/>
      </g>
     </g>
     <g id="text_2">
      <!-- Lynn - Aborn -->
      <defs>
       <path d="M 48.6875 27.296875 
Q 48.6875 37.203125 44.609375 42.84375 
Q 40.53125 48.484375 33.40625 48.484375 
Q 26.265625 48.484375 22.1875 42.84375 
Q 18.109375 37.203125 18.109375 27.296875 
Q 18.109375 17.390625 22.1875 11.75 
Q 26.265625 6.109375 33.40625 6.109375 
Q 40.53125 6.109375 44.609375 11.75 
Q 48.6875 17.390625 48.6875 27.296875 
z
M 18.109375 46.390625 
Q 20.953125 51.265625 25.265625 53.625 
Q 29.59375 56 35.59375 56 
Q 45.5625 56 51.78125 48.09375 
Q 58.015625 40.1875 58.015625 27.296875 
Q 58.015625 14.40625 51.78125 6.484375 
Q 45.5625 -1.421875 35.59375 -1.421875 
Q 29.59375 -1.421875 25.265625 0.953125 
Q 20.953125 3.328125 18.109375 8.203125 
L 18.109375 0 
L 9.078125 0 
L 9.078125 75.984375 
L 18.109375 75.984375 
z
" id="DejaVuSans-62"/>
       <path d="M 30.609375 48.390625 
Q 23.390625 48.390625 19.1875 42.75 
Q 14.984375 37.109375 14.984375 27.296875 
Q 14.984375 17.484375 19.15625 11.84375 
Q 23.34375 6.203125 30.609375 6.203125 
Q 37.796875 6.203125 41.984375 11.859375 
Q 46.1875 17.53125 46.1875 27.296875 
Q 46.1875 37.015625 41.984375 42.703125 
Q 37.796875 48.390625 30.609375 48.390625 
z
M 30.609375 56 
Q 42.328125 56 49.015625 48.375 
Q 55.71875 40.765625 55.71875 27.296875 
Q 55.71875 13.875 49.015625 6.21875 
Q 42.328125 -1.421875 30.609375 -1.421875 
Q 18.84375 -1.421875 12.171875 6.21875 
Q 5.515625 13.875 5.515625 27.296875 
Q 5.515625 40.765625 12.171875 48.375 
Q 18.84375 56 30.609375 56 
z
" id="DejaVuSans-6f"/>
      </defs>
      <g transform="translate(78.232212 537.964062)rotate(-90)scale(0.1 -0.1)">
       <use xlink:href="#DejaVuSans-4c"/>
       <use x="55.572266" xlink:href="#DejaVuSans-79"/>
       <use x="114.751953" xlink:href="#DejaVuSans-6e"/>
       <use x="178.130859" xlink:href="#DejaVuSans-6e"/>
       <use x="241.509766" xlink:href="#DejaVuSans-20"/>
       <use x="273.296875" xlink:href="#DejaVuSans-2d"/>
       <use x="309.380859" xlink:href="#DejaVuSans-20"/>
       <use x="341.167969" xlink:href="#DejaVuSans-41"/>
       <use x="409.576172" xlink:href="#DejaVuSans-62"/>
       <use x="473.052734" xlink:href="#DejaVuSans-6f"/>
       <use x="534.234375" xlink:href="#DejaVuSans-72"/>
       <use x="575.332031" xlink:href="#DejaVuSans-6e"/>
      </g>
     </g>
    </g>
    <g id="xtick_3">
     <g id="line2d_3">
      <g>
       <use style="stroke:#000000;stroke-width:0.8;" x="101.196394" xlink:href="#m8358e9b51e" y="467.09375"/>
      </g>
     </g>
     <g id="text_3">
      <!-- Lynn - Breed Middle School -->
      <defs>
       <path d="M 19.671875 34.8125 
L 19.671875 8.109375 
L 35.5 8.109375 
Q 43.453125 8.109375 47.28125 11.40625 
Q 51.125 14.703125 51.125 21.484375 
Q 51.125 28.328125 47.28125 31.5625 
Q 43.453125 34.8125 35.5 34.8125 
z
M 19.671875 64.796875 
L 19.671875 42.828125 
L 34.28125 42.828125 
Q 41.5 42.828125 45.03125 45.53125 
Q 48.578125 48.25 48.578125 53.8125 
Q 48.578125 59.328125 45.03125 62.0625 
Q 41.5 64.796875 34.28125 64.796875 
z
M 9.8125 72.90625 
L 35.015625 72.90625 
Q 46.296875 72.90625 52.390625 68.21875 
Q 58.5 63.53125 58.5 54.890625 
Q 58.5 48.1875 55.375 44.234375 
Q 52.25 40.28125 46.1875 39.3125 
Q 53.46875 37.75 57.5 32.78125 
Q 61.53125 27.828125 61.53125 20.40625 
Q 61.53125 10.640625 54.890625 5.3125 
Q 48.25 0 35.984375 0 
L 9.8125 0 
z
" id="DejaVuSans-42"/>
       <path d="M 45.40625 46.390625 
L 45.40625 75.984375 
L 54.390625 75.984375 
L 54.390625 0 
L 45.40625 0 
L 45.40625 8.203125 
Q 42.578125 3.328125 38.25 0.953125 
Q 33.9375 -1.421875 27.875 -1.421875 
Q 17.96875 -1.421875 11.734375 6.484375 
Q 5.515625 14.40625 5.515625 27.296875 
Q 5.515625 40.1875 11.734375 48.09375 
Q 17.96875 56 27.875 56 
Q 33.9375 56 38.25 53.625 
Q 42.578125 51.265625 45.40625 46.390625 
z
M 14.796875 27.296875 
Q 14.796875 17.390625 18.875 11.75 
Q 22.953125 6.109375 30.078125 6.109375 
Q 37.203125 6.109375 41.296875 11.75 
Q 45.40625 17.390625 45.40625 27.296875 
Q 45.40625 37.203125 41.296875 42.84375 
Q 37.203125 48.484375 30.078125 48.484375 
Q 22.953125 48.484375 18.875 42.84375 
Q 14.796875 37.203125 14.796875 27.296875 
z
" id="DejaVuSans-64"/>
       <path d="M 9.8125 72.90625 
L 24.515625 72.90625 
L 43.109375 23.296875 
L 61.8125 72.90625 
L 76.515625 72.90625 
L 76.515625 0 
L 66.890625 0 
L 66.890625 64.015625 
L 48.09375 14.015625 
L 38.1875 14.015625 
L 19.390625 64.015625 
L 19.390625 0 
L 9.8125 0 
z
" id="DejaVuSans-4d"/>
       <path d="M 53.515625 70.515625 
L 53.515625 60.890625 
Q 47.90625 63.578125 42.921875 64.890625 
Q 37.9375 66.21875 33.296875 66.21875 
Q 25.25 66.21875 20.875 63.09375 
Q 16.5 59.96875 16.5 54.203125 
Q 16.5 49.359375 19.40625 46.890625 
Q 22.3125 44.4375 30.421875 42.921875 
L 36.375 41.703125 
Q 47.40625 39.59375 52.65625 34.296875 
Q 57.90625 29 57.90625 20.125 
Q 57.90625 9.515625 50.796875 4.046875 
Q 43.703125 -1.421875 29.984375 -1.421875 
Q 24.8125 -1.421875 18.96875 -0.25 
Q 13.140625 0.921875 6.890625 3.21875 
L 6.890625 13.375 
Q 12.890625 10.015625 18.65625 8.296875 
Q 24.421875 6.59375 29.984375 6.59375 
Q 38.421875 6.59375 43.015625 9.90625 
Q 47.609375 13.234375 47.609375 19.390625 
Q 47.609375 24.75 44.3125 27.78125 
Q 41.015625 30.8125 33.5 32.328125 
L 27.484375 33.5 
Q 16.453125 35.6875 11.515625 40.375 
Q 6.59375 45.0625 6.59375 53.421875 
Q 6.59375 63.09375 13.40625 68.65625 
Q 20.21875 74.21875 32.171875 74.21875 
Q 37.3125 74.21875 42.625 73.28125 
Q 47.953125 72.359375 53.515625 70.515625 
z
" id="DejaVuSans-53"/>
       <path d="M 54.890625 33.015625 
L 54.890625 0 
L 45.90625 0 
L 45.90625 32.71875 
Q 45.90625 40.484375 42.875 44.328125 
Q 39.84375 48.1875 33.796875 48.1875 
Q 26.515625 48.1875 22.3125 43.546875 
Q 18.109375 38.921875 18.109375 30.90625 
L 18.109375 0 
L 9.078125 0 
L 9.078125 75.984375 
L 18.109375 75.984375 
L 18.109375 46.1875 
Q 21.34375 51.125 25.703125 53.5625 
Q 30.078125 56 35.796875 56 
Q 45.21875 56 50.046875 50.171875 
Q 54.890625 44.34375 54.890625 33.015625 
z
" id="DejaVuSans-68"/>
      </defs>
      <g transform="translate(103.955769 610.423437)rotate(-90)scale(0.1 -0.1)">
       <use xlink:href="#DejaVuSans-4c"/>
       <use x="55.572266" xlink:href="#DejaVuSans-79"/>
       <use x="114.751953" xlink:href="#DejaVuSans-6e"/>
       <use x="178.130859" xlink:href="#DejaVuSans-6e"/>
       <use x="241.509766" xlink:href="#DejaVuSans-20"/>
       <use x="273.296875" xlink:href="#DejaVuSans-2d"/>
       <use x="309.380859" xlink:href="#DejaVuSans-20"/>
       <use x="341.167969" xlink:href="#DejaVuSans-42"/>
       <use x="409.771484" xlink:href="#DejaVuSans-72"/>
       <use x="450.853516" xlink:href="#DejaVuSans-65"/>
       <use x="512.376953" xlink:href="#DejaVuSans-65"/>
       <use x="573.900391" xlink:href="#DejaVuSans-64"/>
       <use x="637.376953" xlink:href="#DejaVuSans-20"/>
       <use x="669.164062" xlink:href="#DejaVuSans-4d"/>
       <use x="755.443359" xlink:href="#DejaVuSans-69"/>
       <use x="783.226562" xlink:href="#DejaVuSans-64"/>
       <use x="846.703125" xlink:href="#DejaVuSans-64"/>
       <use x="910.179688" xlink:href="#DejaVuSans-6c"/>
       <use x="937.962891" xlink:href="#DejaVuSans-65"/>
       <use x="999.486328" xlink:href="#DejaVuSans-20"/>
       <use x="1031.273438" xlink:href="#DejaVuSans-53"/>
       <use x="1094.75" xlink:href="#DejaVuSans-63"/>
       <use x="1149.730469" xlink:href="#DejaVuSans-68"/>
       <use x="1213.109375" xlink:href="#DejaVuSans-6f"/>
       <use x="1274.291016" xlink:href="#DejaVuSans-6f"/>
       <use x="1335.472656" xlink:href="#DejaVuSans-6c"/>
      </g>
     </g>
    </g>
    <g id="xtick_4">
     <g id="line2d_4">
      <g>
       <use style="stroke:#000000;stroke-width:0.8;" x="126.919952" xlink:href="#m8358e9b51e" y="467.09375"/>
      </g>
     </g>
     <g id="text_4">
      <!-- Lynn - Brickett Elementary -->
      <defs>
       <path d="M 9.078125 75.984375 
L 18.109375 75.984375 
L 18.109375 31.109375 
L 44.921875 54.6875 
L 56.390625 54.6875 
L 27.390625 29.109375 
L 57.625 0 
L 45.90625 0 
L 18.109375 26.703125 
L 18.109375 0 
L 9.078125 0 
z
" id="DejaVuSans-6b"/>
      </defs>
      <g transform="translate(129.679327 607.975)rotate(-90)scale(0.1 -0.1)">
       <use xlink:href="#DejaVuSans-4c"/>
       <use x="55.572266" xlink:href="#DejaVuSans-79"/>
       <use x="114.751953" xlink:href="#DejaVuSans-6e"/>
       <use x="178.130859" xlink:href="#DejaVuSans-6e"/>
       <use x="241.509766" xlink:href="#DejaVuSans-20"/>
       <use x="273.296875" xlink:href="#DejaVuSans-2d"/>
       <use x="309.380859" xlink:href="#DejaVuSans-20"/>
       <use x="341.167969" xlink:href="#DejaVuSans-42"/>
       <use x="409.771484" xlink:href="#DejaVuSans-72"/>
       <use x="450.884766" xlink:href="#DejaVuSans-69"/>
       <use x="478.667969" xlink:href="#DejaVuSans-63"/>
       <use x="533.648438" xlink:href="#DejaVuSans-6b"/>
       <use x="591.511719" xlink:href="#DejaVuSans-65"/>
       <use x="653.035156" xlink:href="#DejaVuSans-74"/>
       <use x="692.244141" xlink:href="#DejaVuSans-74"/>
       <use x="731.453125" xlink:href="#DejaVuSans-20"/>
       <use x="763.240234" xlink:href="#DejaVuSans-45"/>
       <use x="826.423828" xlink:href="#DejaVuSans-6c"/>
       <use x="854.207031" xlink:href="#DejaVuSans-65"/>
       <use x="915.730469" xlink:href="#DejaVuSans-6d"/>
       <use x="1013.142578" xlink:href="#DejaVuSans-65"/>
       <use x="1074.666016" xlink:href="#DejaVuSans-6e"/>
       <use x="1138.044922" xlink:href="#DejaVuSans-74"/>
       <use x="1177.253906" xlink:href="#DejaVuSans-61"/>
       <use x="1238.533203" xlink:href="#DejaVuSans-72"/>
       <use x="1279.646484" xlink:href="#DejaVuSans-79"/>
      </g>
     </g>
    </g>
    <g id="xtick_5">
     <g id="line2d_5">
      <g>
       <use style="stroke:#000000;stroke-width:0.8;" x="152.64351" xlink:href="#m8358e9b51e" y="467.09375"/>
      </g>
     </g>
     <g id="text_5">
      <!-- Lynn - Capt William G Shoemaker -->
      <defs>
       <path d="M 64.40625 67.28125 
L 64.40625 56.890625 
Q 59.421875 61.53125 53.78125 63.8125 
Q 48.140625 66.109375 41.796875 66.109375 
Q 29.296875 66.109375 22.65625 58.46875 
Q 16.015625 50.828125 16.015625 36.375 
Q 16.015625 21.96875 22.65625 14.328125 
Q 29.296875 6.6875 41.796875 6.6875 
Q 48.140625 6.6875 53.78125 8.984375 
Q 59.421875 11.28125 64.40625 15.921875 
L 64.40625 5.609375 
Q 59.234375 2.09375 53.4375 0.328125 
Q 47.65625 -1.421875 41.21875 -1.421875 
Q 24.65625 -1.421875 15.125 8.703125 
Q 5.609375 18.84375 5.609375 36.375 
Q 5.609375 53.953125 15.125 64.078125 
Q 24.65625 74.21875 41.21875 74.21875 
Q 47.75 74.21875 53.53125 72.484375 
Q 59.328125 70.75 64.40625 67.28125 
z
" id="DejaVuSans-43"/>
       <path d="M 18.109375 8.203125 
L 18.109375 -20.796875 
L 9.078125 -20.796875 
L 9.078125 54.6875 
L 18.109375 54.6875 
L 18.109375 46.390625 
Q 20.953125 51.265625 25.265625 53.625 
Q 29.59375 56 35.59375 56 
Q 45.5625 56 51.78125 48.09375 
Q 58.015625 40.1875 58.015625 27.296875 
Q 58.015625 14.40625 51.78125 6.484375 
Q 45.5625 -1.421875 35.59375 -1.421875 
Q 29.59375 -1.421875 25.265625 0.953125 
Q 20.953125 3.328125 18.109375 8.203125 
z
M 48.6875 27.296875 
Q 48.6875 37.203125 44.609375 42.84375 
Q 40.53125 48.484375 33.40625 48.484375 
Q 26.265625 48.484375 22.1875 42.84375 
Q 18.109375 37.203125 18.109375 27.296875 
Q 18.109375 17.390625 22.1875 11.75 
Q 26.265625 6.109375 33.40625 6.109375 
Q 40.53125 6.109375 44.609375 11.75 
Q 48.6875 17.390625 48.6875 27.296875 
z
" id="DejaVuSans-70"/>
       <path d="M 3.328125 72.90625 
L 13.28125 72.90625 
L 28.609375 11.28125 
L 43.890625 72.90625 
L 54.984375 72.90625 
L 70.3125 11.28125 
L 85.59375 72.90625 
L 95.609375 72.90625 
L 77.296875 0 
L 64.890625 0 
L 49.515625 63.28125 
L 33.984375 0 
L 21.578125 0 
z
" id="DejaVuSans-57"/>
       <path d="M 59.515625 10.40625 
L 59.515625 29.984375 
L 43.40625 29.984375 
L 43.40625 38.09375 
L 69.28125 38.09375 
L 69.28125 6.78125 
Q 63.578125 2.734375 56.6875 0.65625 
Q 49.8125 -1.421875 42 -1.421875 
Q 24.90625 -1.421875 15.25 8.5625 
Q 5.609375 18.5625 5.609375 36.375 
Q 5.609375 54.25 15.25 64.234375 
Q 24.90625 74.21875 42 74.21875 
Q 49.125 74.21875 55.546875 72.453125 
Q 61.96875 70.703125 67.390625 67.28125 
L 67.390625 56.78125 
Q 61.921875 61.421875 55.765625 63.765625 
Q 49.609375 66.109375 42.828125 66.109375 
Q 29.4375 66.109375 22.71875 58.640625 
Q 16.015625 51.171875 16.015625 36.375 
Q 16.015625 21.625 22.71875 14.15625 
Q 29.4375 6.6875 42.828125 6.6875 
Q 48.046875 6.6875 52.140625 7.59375 
Q 56.25 8.5 59.515625 10.40625 
z
" id="DejaVuSans-47"/>
      </defs>
      <g transform="translate(155.402885 642.614062)rotate(-90)scale(0.1 -0.1)">
       <use xlink:href="#DejaVuSans-4c"/>
       <use x="55.572266" xlink:href="#DejaVuSans-79"/>
       <use x="114.751953" xlink:href="#DejaVuSans-6e"/>
       <use x="178.130859" xlink:href="#DejaVuSans-6e"/>
       <use x="241.509766" xlink:href="#DejaVuSans-20"/>
       <use x="273.296875" xlink:href="#DejaVuSans-2d"/>
       <use x="309.380859" xlink:href="#DejaVuSans-20"/>
       <use x="341.167969" xlink:href="#DejaVuSans-43"/>
       <use x="410.992188" xlink:href="#DejaVuSans-61"/>
       <use x="472.271484" xlink:href="#DejaVuSans-70"/>
       <use x="535.748047" xlink:href="#DejaVuSans-74"/>
       <use x="574.957031" xlink:href="#DejaVuSans-20"/>
       <use x="606.744141" xlink:href="#DejaVuSans-57"/>
       <use x="705.589844" xlink:href="#DejaVuSans-69"/>
       <use x="733.373047" xlink:href="#DejaVuSans-6c"/>
       <use x="761.15625" xlink:href="#DejaVuSans-6c"/>
       <use x="788.939453" xlink:href="#DejaVuSans-69"/>
       <use x="816.722656" xlink:href="#DejaVuSans-61"/>
       <use x="878.001953" xlink:href="#DejaVuSans-6d"/>
       <use x="975.414062" xlink:href="#DejaVuSans-20"/>
       <use x="1007.201172" xlink:href="#DejaVuSans-47"/>
       <use x="1084.691406" xlink:href="#DejaVuSans-20"/>
       <use x="1116.478516" xlink:href="#DejaVuSans-53"/>
       <use x="1179.955078" xlink:href="#DejaVuSans-68"/>
       <use x="1243.333984" xlink:href="#DejaVuSans-6f"/>
       <use x="1304.515625" xlink:href="#DejaVuSans-65"/>
       <use x="1366.039062" xlink:href="#DejaVuSans-6d"/>
       <use x="1463.451172" xlink:href="#DejaVuSans-61"/>
       <use x="1524.730469" xlink:href="#DejaVuSans-6b"/>
       <use x="1582.59375" xlink:href="#DejaVuSans-65"/>
       <use x="1644.117188" xlink:href="#DejaVuSans-72"/>
      </g>
     </g>
    </g>
    <g id="xtick_6">
     <g id="line2d_6">
      <g>
       <use style="stroke:#000000;stroke-width:0.8;" x="178.367067" xlink:href="#m8358e9b51e" y="467.09375"/>
      </g>
     </g>
     <g id="text_6">
      <!-- Lynn - Classical High -->
      <defs>
       <path d="M 44.28125 53.078125 
L 44.28125 44.578125 
Q 40.484375 46.53125 36.375 47.5 
Q 32.28125 48.484375 27.875 48.484375 
Q 21.1875 48.484375 17.84375 46.4375 
Q 14.5 44.390625 14.5 40.28125 
Q 14.5 37.15625 16.890625 35.375 
Q 19.28125 33.59375 26.515625 31.984375 
L 29.59375 31.296875 
Q 39.15625 29.25 43.1875 25.515625 
Q 47.21875 21.78125 47.21875 15.09375 
Q 47.21875 7.46875 41.1875 3.015625 
Q 35.15625 -1.421875 24.609375 -1.421875 
Q 20.21875 -1.421875 15.453125 -0.5625 
Q 10.6875 0.296875 5.421875 2 
L 5.421875 11.28125 
Q 10.40625 8.6875 15.234375 7.390625 
Q 20.0625 6.109375 24.8125 6.109375 
Q 31.15625 6.109375 34.5625 8.28125 
Q 37.984375 10.453125 37.984375 14.40625 
Q 37.984375 18.0625 35.515625 20.015625 
Q 33.0625 21.96875 24.703125 23.78125 
L 21.578125 24.515625 
Q 13.234375 26.265625 9.515625 29.90625 
Q 5.8125 33.546875 5.8125 39.890625 
Q 5.8125 47.609375 11.28125 51.796875 
Q 16.75 56 26.8125 56 
Q 31.78125 56 36.171875 55.265625 
Q 40.578125 54.546875 44.28125 53.078125 
z
" id="DejaVuSans-73"/>
       <path d="M 9.8125 72.90625 
L 19.671875 72.90625 
L 19.671875 43.015625 
L 55.515625 43.015625 
L 55.515625 72.90625 
L 65.375 72.90625 
L 65.375 0 
L 55.515625 0 
L 55.515625 34.71875 
L 19.671875 34.71875 
L 19.671875 0 
L 9.8125 0 
z
" id="DejaVuSans-48"/>
       <path d="M 45.40625 27.984375 
Q 45.40625 37.75 41.375 43.109375 
Q 37.359375 48.484375 30.078125 48.484375 
Q 22.859375 48.484375 18.828125 43.109375 
Q 14.796875 37.75 14.796875 27.984375 
Q 14.796875 18.265625 18.828125 12.890625 
Q 22.859375 7.515625 30.078125 7.515625 
Q 37.359375 7.515625 41.375 12.890625 
Q 45.40625 18.265625 45.40625 27.984375 
z
M 54.390625 6.78125 
Q 54.390625 -7.171875 48.1875 -13.984375 
Q 42 -20.796875 29.203125 -20.796875 
Q 24.46875 -20.796875 20.265625 -20.09375 
Q 16.0625 -19.390625 12.109375 -17.921875 
L 12.109375 -9.1875 
Q 16.0625 -11.328125 19.921875 -12.34375 
Q 23.78125 -13.375 27.78125 -13.375 
Q 36.625 -13.375 41.015625 -8.765625 
Q 45.40625 -4.15625 45.40625 5.171875 
L 45.40625 9.625 
Q 42.625 4.78125 38.28125 2.390625 
Q 33.9375 0 27.875 0 
Q 17.828125 0 11.671875 7.65625 
Q 5.515625 15.328125 5.515625 27.984375 
Q 5.515625 40.671875 11.671875 48.328125 
Q 17.828125 56 27.875 56 
Q 33.9375 56 38.28125 53.609375 
Q 42.625 51.21875 45.40625 46.390625 
L 45.40625 54.6875 
L 54.390625 54.6875 
z
" id="DejaVuSans-67"/>
      </defs>
      <g transform="translate(181.126442 577.8625)rotate(-90)scale(0.1 -0.1)">
       <use xlink:href="#DejaVuSans-4c"/>
       <use x="55.572266" xlink:href="#DejaVuSans-79"/>
       <use x="114.751953" xlink:href="#DejaVuSans-6e"/>
       <use x="178.130859" xlink:href="#DejaVuSans-6e"/>
       <use x="241.509766" xlink:href="#DejaVuSans-20"/>
       <use x="273.296875" xlink:href="#DejaVuSans-2d"/>
       <use x="309.380859" xlink:href="#DejaVuSans-20"/>
       <use x="341.167969" xlink:href="#DejaVuSans-43"/>
       <use x="410.992188" xlink:href="#DejaVuSans-6c"/>
       <use x="438.775391" xlink:href="#DejaVuSans-61"/>
       <use x="500.054688" xlink:href="#DejaVuSans-73"/>
       <use x="552.154297" xlink:href="#DejaVuSans-73"/>
       <use x="604.253906" xlink:href="#DejaVuSans-69"/>
       <use x="632.037109" xlink:href="#DejaVuSans-63"/>
       <use x="687.017578" xlink:href="#DejaVuSans-61"/>
       <use x="748.296875" xlink:href="#DejaVuSans-6c"/>
       <use x="776.080078" xlink:href="#DejaVuSans-20"/>
       <use x="807.867188" xlink:href="#DejaVuSans-48"/>
       <use x="883.0625" xlink:href="#DejaVuSans-69"/>
       <use x="910.845703" xlink:href="#DejaVuSans-67"/>
       <use x="974.322266" xlink:href="#DejaVuSans-68"/>
      </g>
     </g>
    </g>
    <g id="xtick_7">
     <g id="line2d_7">
      <g>
       <use style="stroke:#000000;stroke-width:0.8;" x="204.090625" xlink:href="#m8358e9b51e" y="467.09375"/>
      </g>
     </g>
     <g id="text_7">
      <!-- Lynn - Cobbet Elementary -->
      <g transform="translate(206.85 604.81875)rotate(-90)scale(0.1 -0.1)">
       <use xlink:href="#DejaVuSans-4c"/>
       <use x="55.572266" xlink:href="#DejaVuSans-79"/>
       <use x="114.751953" xlink:href="#DejaVuSans-6e"/>
       <use x="178.130859" xlink:href="#DejaVuSans-6e"/>
       <use x="241.509766" xlink:href="#DejaVuSans-20"/>
       <use x="273.296875" xlink:href="#DejaVuSans-2d"/>
       <use x="309.380859" xlink:href="#DejaVuSans-20"/>
       <use x="341.167969" xlink:href="#DejaVuSans-43"/>
       <use x="410.992188" xlink:href="#DejaVuSans-6f"/>
       <use x="472.173828" xlink:href="#DejaVuSans-62"/>
       <use x="535.650391" xlink:href="#DejaVuSans-62"/>
       <use x="599.126953" xlink:href="#DejaVuSans-65"/>
       <use x="660.650391" xlink:href="#DejaVuSans-74"/>
       <use x="699.859375" xlink:href="#DejaVuSans-20"/>
       <use x="731.646484" xlink:href="#DejaVuSans-45"/>
       <use x="794.830078" xlink:href="#DejaVuSans-6c"/>
       <use x="822.613281" xlink:href="#DejaVuSans-65"/>
       <use x="884.136719" xlink:href="#DejaVuSans-6d"/>
       <use x="981.548828" xlink:href="#DejaVuSans-65"/>
       <use x="1043.072266" xlink:href="#DejaVuSans-6e"/>
       <use x="1106.451172" xlink:href="#DejaVuSans-74"/>
       <use x="1145.660156" xlink:href="#DejaVuSans-61"/>
       <use x="1206.939453" xlink:href="#DejaVuSans-72"/>
       <use x="1248.052734" xlink:href="#DejaVuSans-79"/>
      </g>
     </g>
    </g>
    <g id="xtick_8">
     <g id="line2d_8">
      <g>
       <use style="stroke:#000000;stroke-width:0.8;" x="229.814183" xlink:href="#m8358e9b51e" y="467.09375"/>
      </g>
     </g>
     <g id="text_8">
      <!-- Lynn - E J Harrington -->
      <defs>
       <path d="M 9.8125 72.90625 
L 19.671875 72.90625 
L 19.671875 5.078125 
Q 19.671875 -8.109375 14.671875 -14.0625 
Q 9.671875 -20.015625 -1.421875 -20.015625 
L -5.171875 -20.015625 
L -5.171875 -11.71875 
L -2.09375 -11.71875 
Q 4.4375 -11.71875 7.125 -8.046875 
Q 9.8125 -4.390625 9.8125 5.078125 
z
" id="DejaVuSans-4a"/>
      </defs>
      <g transform="translate(232.573558 577.54375)rotate(-90)scale(0.1 -0.1)">
       <use xlink:href="#DejaVuSans-4c"/>
       <use x="55.572266" xlink:href="#DejaVuSans-79"/>
       <use x="114.751953" xlink:href="#DejaVuSans-6e"/>
       <use x="178.130859" xlink:href="#DejaVuSans-6e"/>
       <use x="241.509766" xlink:href="#DejaVuSans-20"/>
       <use x="273.296875" xlink:href="#DejaVuSans-2d"/>
       <use x="309.380859" xlink:href="#DejaVuSans-20"/>
       <use x="341.167969" xlink:href="#DejaVuSans-45"/>
       <use x="404.351562" xlink:href="#DejaVuSans-20"/>
       <use x="436.138672" xlink:href="#DejaVuSans-4a"/>
       <use x="465.630859" xlink:href="#DejaVuSans-20"/>
       <use x="497.417969" xlink:href="#DejaVuSans-48"/>
       <use x="572.613281" xlink:href="#DejaVuSans-61"/>
       <use x="633.892578" xlink:href="#DejaVuSans-72"/>
       <use x="674.990234" xlink:href="#DejaVuSans-72"/>
       <use x="716.103516" xlink:href="#DejaVuSans-69"/>
       <use x="743.886719" xlink:href="#DejaVuSans-6e"/>
       <use x="807.265625" xlink:href="#DejaVuSans-67"/>
       <use x="870.742188" xlink:href="#DejaVuSans-74"/>
       <use x="909.951172" xlink:href="#DejaVuSans-6f"/>
       <use x="971.132812" xlink:href="#DejaVuSans-6e"/>
      </g>
     </g>
    </g>
    <g id="xtick_9">
     <g id="line2d_9">
      <g>
       <use style="stroke:#000000;stroke-width:0.8;" x="255.53774" xlink:href="#m8358e9b51e" y="467.09375"/>
      </g>
     </g>
     <g id="text_9">
      <!-- Lynn - Early Childhood Center -->
      <g transform="translate(258.297115 623.626562)rotate(-90)scale(0.1 -0.1)">
       <use xlink:href="#DejaVuSans-4c"/>
       <use x="55.572266" xlink:href="#DejaVuSans-79"/>
       <use x="114.751953" xlink:href="#DejaVuSans-6e"/>
       <use x="178.130859" xlink:href="#DejaVuSans-6e"/>
       <use x="241.509766" xlink:href="#DejaVuSans-20"/>
       <use x="273.296875" xlink:href="#DejaVuSans-2d"/>
       <use x="309.380859" xlink:href="#DejaVuSans-20"/>
       <use x="341.167969" xlink:href="#DejaVuSans-45"/>
       <use x="404.351562" xlink:href="#DejaVuSans-61"/>
       <use x="465.630859" xlink:href="#DejaVuSans-72"/>
       <use x="506.744141" xlink:href="#DejaVuSans-6c"/>
       <use x="534.527344" xlink:href="#DejaVuSans-79"/>
       <use x="593.707031" xlink:href="#DejaVuSans-20"/>
       <use x="625.494141" xlink:href="#DejaVuSans-43"/>
       <use x="695.318359" xlink:href="#DejaVuSans-68"/>
       <use x="758.697266" xlink:href="#DejaVuSans-69"/>
       <use x="786.480469" xlink:href="#DejaVuSans-6c"/>
       <use x="814.263672" xlink:href="#DejaVuSans-64"/>
       <use x="877.740234" xlink:href="#DejaVuSans-68"/>
       <use x="941.119141" xlink:href="#DejaVuSans-6f"/>
       <use x="1002.300781" xlink:href="#DejaVuSans-6f"/>
       <use x="1063.482422" xlink:href="#DejaVuSans-64"/>
       <use x="1126.958984" xlink:href="#DejaVuSans-20"/>
       <use x="1158.746094" xlink:href="#DejaVuSans-43"/>
       <use x="1228.570312" xlink:href="#DejaVuSans-65"/>
       <use x="1290.09375" xlink:href="#DejaVuSans-6e"/>
       <use x="1353.472656" xlink:href="#DejaVuSans-74"/>
       <use x="1392.681641" xlink:href="#DejaVuSans-65"/>
       <use x="1454.205078" xlink:href="#DejaVuSans-72"/>
      </g>
     </g>
    </g>
    <g id="xtick_10">
     <g id="line2d_10">
      <g>
       <use style="stroke:#000000;stroke-width:0.8;" x="281.261298" xlink:href="#m8358e9b51e" y="467.09375"/>
      </g>
     </g>
     <g id="text_10">
      <!-- Lynn - Edward A Sisson -->
      <g transform="translate(284.020673 590.839062)rotate(-90)scale(0.1 -0.1)">
       <use xlink:href="#DejaVuSans-4c"/>
       <use x="55.572266" xlink:href="#DejaVuSans-79"/>
       <use x="114.751953" xlink:href="#DejaVuSans-6e"/>
       <use x="178.130859" xlink:href="#DejaVuSans-6e"/>
       <use x="241.509766" xlink:href="#DejaVuSans-20"/>
       <use x="273.296875" xlink:href="#DejaVuSans-2d"/>
       <use x="309.380859" xlink:href="#DejaVuSans-20"/>
       <use x="341.167969" xlink:href="#DejaVuSans-45"/>
       <use x="404.351562" xlink:href="#DejaVuSans-64"/>
       <use x="467.828125" xlink:href="#DejaVuSans-77"/>
       <use x="549.615234" xlink:href="#DejaVuSans-61"/>
       <use x="610.894531" xlink:href="#DejaVuSans-72"/>
       <use x="651.992188" xlink:href="#DejaVuSans-64"/>
       <use x="715.46875" xlink:href="#DejaVuSans-20"/>
       <use x="747.255859" xlink:href="#DejaVuSans-41"/>
       <use x="815.664062" xlink:href="#DejaVuSans-20"/>
       <use x="847.451172" xlink:href="#DejaVuSans-53"/>
       <use x="910.927734" xlink:href="#DejaVuSans-69"/>
       <use x="938.710938" xlink:href="#DejaVuSans-73"/>
       <use x="990.810547" xlink:href="#DejaVuSans-73"/>
       <use x="1042.910156" xlink:href="#DejaVuSans-6f"/>
       <use x="1104.091797" xlink:href="#DejaVuSans-6e"/>
      </g>
     </g>
    </g>
    <g id="xtick_11">
     <g id="line2d_11">
      <g>
       <use style="stroke:#000000;stroke-width:0.8;" x="306.984856" xlink:href="#m8358e9b51e" y="467.09375"/>
      </g>
     </g>
     <g id="text_11">
      <!-- Lynn - Fecteau-Leary Junior/Senior High School -->
      <defs>
       <path d="M 9.8125 72.90625 
L 51.703125 72.90625 
L 51.703125 64.59375 
L 19.671875 64.59375 
L 19.671875 43.109375 
L 48.578125 43.109375 
L 48.578125 34.8125 
L 19.671875 34.8125 
L 19.671875 0 
L 9.8125 0 
z
" id="DejaVuSans-46"/>
       <path d="M 8.5 21.578125 
L 8.5 54.6875 
L 17.484375 54.6875 
L 17.484375 21.921875 
Q 17.484375 14.15625 20.5 10.265625 
Q 23.53125 6.390625 29.59375 6.390625 
Q 36.859375 6.390625 41.078125 11.03125 
Q 45.3125 15.671875 45.3125 23.6875 
L 45.3125 54.6875 
L 54.296875 54.6875 
L 54.296875 0 
L 45.3125 0 
L 45.3125 8.40625 
Q 42.046875 3.421875 37.71875 1 
Q 33.40625 -1.421875 27.6875 -1.421875 
Q 18.265625 -1.421875 13.375 4.4375 
Q 8.5 10.296875 8.5 21.578125 
z
M 31.109375 56 
z
" id="DejaVuSans-75"/>
       <path d="M 25.390625 72.90625 
L 33.6875 72.90625 
L 8.296875 -9.28125 
L 0 -9.28125 
z
" id="DejaVuSans-2f"/>
      </defs>
      <g transform="translate(309.744231 709.2)rotate(-90)scale(0.1 -0.1)">
       <use xlink:href="#DejaVuSans-4c"/>
       <use x="55.572266" xlink:href="#DejaVuSans-79"/>
       <use x="114.751953" xlink:href="#DejaVuSans-6e"/>
       <use x="178.130859" xlink:href="#DejaVuSans-6e"/>
       <use x="241.509766" xlink:href="#DejaVuSans-20"/>
       <use x="273.296875" xlink:href="#DejaVuSans-2d"/>
       <use x="309.380859" xlink:href="#DejaVuSans-20"/>
       <use x="341.167969" xlink:href="#DejaVuSans-46"/>
       <use x="398.609375" xlink:href="#DejaVuSans-65"/>
       <use x="460.132812" xlink:href="#DejaVuSans-63"/>
       <use x="515.113281" xlink:href="#DejaVuSans-74"/>
       <use x="554.322266" xlink:href="#DejaVuSans-65"/>
       <use x="615.845703" xlink:href="#DejaVuSans-61"/>
       <use x="677.125" xlink:href="#DejaVuSans-75"/>
       <use x="740.503906" xlink:href="#DejaVuSans-2d"/>
       <use x="776.587891" xlink:href="#DejaVuSans-4c"/>
       <use x="832.285156" xlink:href="#DejaVuSans-65"/>
       <use x="893.808594" xlink:href="#DejaVuSans-61"/>
       <use x="955.087891" xlink:href="#DejaVuSans-72"/>
       <use x="996.201172" xlink:href="#DejaVuSans-79"/>
       <use x="1055.380859" xlink:href="#DejaVuSans-20"/>
       <use x="1087.167969" xlink:href="#DejaVuSans-4a"/>
       <use x="1116.660156" xlink:href="#DejaVuSans-75"/>
       <use x="1180.039062" xlink:href="#DejaVuSans-6e"/>
       <use x="1243.417969" xlink:href="#DejaVuSans-69"/>
       <use x="1271.201172" xlink:href="#DejaVuSans-6f"/>
       <use x="1332.382812" xlink:href="#DejaVuSans-72"/>
       <use x="1373.496094" xlink:href="#DejaVuSans-2f"/>
       <use x="1407.1875" xlink:href="#DejaVuSans-53"/>
       <use x="1470.664062" xlink:href="#DejaVuSans-65"/>
       <use x="1532.1875" xlink:href="#DejaVuSans-6e"/>
       <use x="1595.566406" xlink:href="#DejaVuSans-69"/>
       <use x="1623.349609" xlink:href="#DejaVuSans-6f"/>
       <use x="1684.53125" xlink:href="#DejaVuSans-72"/>
       <use x="1725.644531" xlink:href="#DejaVuSans-20"/>
       <use x="1757.431641" xlink:href="#DejaVuSans-48"/>
       <use x="1832.626953" xlink:href="#DejaVuSans-69"/>
       <use x="1860.410156" xlink:href="#DejaVuSans-67"/>
       <use x="1923.886719" xlink:href="#DejaVuSans-68"/>
       <use x="1987.265625" xlink:href="#DejaVuSans-20"/>
       <use x="2019.052734" xlink:href="#DejaVuSans-53"/>
       <use x="2082.529297" xlink:href="#DejaVuSans-63"/>
       <use x="2137.509766" xlink:href="#DejaVuSans-68"/>
       <use x="2200.888672" xlink:href="#DejaVuSans-6f"/>
       <use x="2262.070312" xlink:href="#DejaVuSans-6f"/>
       <use x="2323.251953" xlink:href="#DejaVuSans-6c"/>
      </g>
     </g>
    </g>
    <g id="xtick_12">
     <g id="line2d_12">
      <g>
       <use style="stroke:#000000;stroke-width:0.8;" x="332.708413" xlink:href="#m8358e9b51e" y="467.09375"/>
      </g>
     </g>
     <g id="text_12">
      <!-- Lynn - Hood -->
      <g transform="translate(335.467788 534.315625)rotate(-90)scale(0.1 -0.1)">
       <use xlink:href="#DejaVuSans-4c"/>
       <use x="55.572266" xlink:href="#DejaVuSans-79"/>
       <use x="114.751953" xlink:href="#DejaVuSans-6e"/>
       <use x="178.130859" xlink:href="#DejaVuSans-6e"/>
       <use x="241.509766" xlink:href="#DejaVuSans-20"/>
       <use x="273.296875" xlink:href="#DejaVuSans-2d"/>
       <use x="309.380859" xlink:href="#DejaVuSans-20"/>
       <use x="341.167969" xlink:href="#DejaVuSans-48"/>
       <use x="416.363281" xlink:href="#DejaVuSans-6f"/>
       <use x="477.544922" xlink:href="#DejaVuSans-6f"/>
       <use x="538.726562" xlink:href="#DejaVuSans-64"/>
      </g>
     </g>
    </g>
    <g id="xtick_13">
     <g id="line2d_13">
      <g>
       <use style="stroke:#000000;stroke-width:0.8;" x="358.431971" xlink:href="#m8358e9b51e" y="467.09375"/>
      </g>
     </g>
     <g id="text_13">
      <!-- Lynn - Ingalls -->
      <defs>
       <path d="M 9.8125 72.90625 
L 19.671875 72.90625 
L 19.671875 0 
L 9.8125 0 
z
" id="DejaVuSans-49"/>
      </defs>
      <g transform="translate(361.191346 540.739062)rotate(-90)scale(0.1 -0.1)">
       <use xlink:href="#DejaVuSans-4c"/>
       <use x="55.572266" xlink:href="#DejaVuSans-79"/>
       <use x="114.751953" xlink:href="#DejaVuSans-6e"/>
       <use x="178.130859" xlink:href="#DejaVuSans-6e"/>
       <use x="241.509766" xlink:href="#DejaVuSans-20"/>
       <use x="273.296875" xlink:href="#DejaVuSans-2d"/>
       <use x="309.380859" xlink:href="#DejaVuSans-20"/>
       <use x="341.167969" xlink:href="#DejaVuSans-49"/>
       <use x="370.660156" xlink:href="#DejaVuSans-6e"/>
       <use x="434.039062" xlink:href="#DejaVuSans-67"/>
       <use x="497.515625" xlink:href="#DejaVuSans-61"/>
       <use x="558.794922" xlink:href="#DejaVuSans-6c"/>
       <use x="586.578125" xlink:href="#DejaVuSans-6c"/>
       <use x="614.361328" xlink:href="#DejaVuSans-73"/>
      </g>
     </g>
    </g>
    <g id="xtick_14">
     <g id="line2d_14">
      <g>
       <use style="stroke:#000000;stroke-width:0.8;" x="384.155529" xlink:href="#m8358e9b51e" y="467.09375"/>
      </g>
     </g>
     <g id="text_14">
      <!-- Lynn - Julia F Callahan -->
      <g transform="translate(386.914904 584.8875)rotate(-90)scale(0.1 -0.1)">
       <use xlink:href="#DejaVuSans-4c"/>
       <use x="55.572266" xlink:href="#DejaVuSans-79"/>
       <use x="114.751953" xlink:href="#DejaVuSans-6e"/>
       <use x="178.130859" xlink:href="#DejaVuSans-6e"/>
       <use x="241.509766" xlink:href="#DejaVuSans-20"/>
       <use x="273.296875" xlink:href="#DejaVuSans-2d"/>
       <use x="309.380859" xlink:href="#DejaVuSans-20"/>
       <use x="341.167969" xlink:href="#DejaVuSans-4a"/>
       <use x="370.660156" xlink:href="#DejaVuSans-75"/>
       <use x="434.039062" xlink:href="#DejaVuSans-6c"/>
       <use x="461.822266" xlink:href="#DejaVuSans-69"/>
       <use x="489.605469" xlink:href="#DejaVuSans-61"/>
       <use x="550.884766" xlink:href="#DejaVuSans-20"/>
       <use x="582.671875" xlink:href="#DejaVuSans-46"/>
       <use x="640.191406" xlink:href="#DejaVuSans-20"/>
       <use x="671.978516" xlink:href="#DejaVuSans-43"/>
       <use x="741.802734" xlink:href="#DejaVuSans-61"/>
       <use x="803.082031" xlink:href="#DejaVuSans-6c"/>
       <use x="830.865234" xlink:href="#DejaVuSans-6c"/>
       <use x="858.648438" xlink:href="#DejaVuSans-61"/>
       <use x="919.927734" xlink:href="#DejaVuSans-68"/>
       <use x="983.306641" xlink:href="#DejaVuSans-61"/>
       <use x="1044.585938" xlink:href="#DejaVuSans-6e"/>
      </g>
     </g>
    </g>
    <g id="xtick_15">
     <g id="line2d_15">
      <g>
       <use style="stroke:#000000;stroke-width:0.8;" x="409.879087" xlink:href="#m8358e9b51e" y="467.09375"/>
      </g>
     </g>
     <g id="text_15">
      <!-- Lynn - Lincoln-Thomson -->
      <defs>
       <path d="M -0.296875 72.90625 
L 61.375 72.90625 
L 61.375 64.59375 
L 35.5 64.59375 
L 35.5 0 
L 25.59375 0 
L 25.59375 64.59375 
L -0.296875 64.59375 
z
" id="DejaVuSans-54"/>
      </defs>
      <g transform="translate(412.638462 593.19375)rotate(-90)scale(0.1 -0.1)">
       <use xlink:href="#DejaVuSans-4c"/>
       <use x="55.572266" xlink:href="#DejaVuSans-79"/>
       <use x="114.751953" xlink:href="#DejaVuSans-6e"/>
       <use x="178.130859" xlink:href="#DejaVuSans-6e"/>
       <use x="241.509766" xlink:href="#DejaVuSans-20"/>
       <use x="273.296875" xlink:href="#DejaVuSans-2d"/>
       <use x="309.380859" xlink:href="#DejaVuSans-20"/>
       <use x="341.167969" xlink:href="#DejaVuSans-4c"/>
       <use x="396.880859" xlink:href="#DejaVuSans-69"/>
       <use x="424.664062" xlink:href="#DejaVuSans-6e"/>
       <use x="488.042969" xlink:href="#DejaVuSans-63"/>
       <use x="543.023438" xlink:href="#DejaVuSans-6f"/>
       <use x="604.205078" xlink:href="#DejaVuSans-6c"/>
       <use x="631.988281" xlink:href="#DejaVuSans-6e"/>
       <use x="695.367188" xlink:href="#DejaVuSans-2d"/>
       <use x="731.310547" xlink:href="#DejaVuSans-54"/>
       <use x="792.394531" xlink:href="#DejaVuSans-68"/>
       <use x="855.773438" xlink:href="#DejaVuSans-6f"/>
       <use x="916.955078" xlink:href="#DejaVuSans-6d"/>
       <use x="1014.367188" xlink:href="#DejaVuSans-73"/>
       <use x="1066.466797" xlink:href="#DejaVuSans-6f"/>
       <use x="1127.648438" xlink:href="#DejaVuSans-6e"/>
      </g>
     </g>
    </g>
    <g id="xtick_16">
     <g id="line2d_16">
      <g>
       <use style="stroke:#000000;stroke-width:0.8;" x="435.602644" xlink:href="#m8358e9b51e" y="467.09375"/>
      </g>
     </g>
     <g id="text_16">
      <!-- Lynn - Lynn English High -->
      <g transform="translate(438.362019 597.809375)rotate(-90)scale(0.1 -0.1)">
       <use xlink:href="#DejaVuSans-4c"/>
       <use x="55.572266" xlink:href="#DejaVuSans-79"/>
       <use x="114.751953" xlink:href="#DejaVuSans-6e"/>
       <use x="178.130859" xlink:href="#DejaVuSans-6e"/>
       <use x="241.509766" xlink:href="#DejaVuSans-20"/>
       <use x="273.296875" xlink:href="#DejaVuSans-2d"/>
       <use x="309.380859" xlink:href="#DejaVuSans-20"/>
       <use x="341.167969" xlink:href="#DejaVuSans-4c"/>
       <use x="396.740234" xlink:href="#DejaVuSans-79"/>
       <use x="455.919922" xlink:href="#DejaVuSans-6e"/>
       <use x="519.298828" xlink:href="#DejaVuSans-6e"/>
       <use x="582.677734" xlink:href="#DejaVuSans-20"/>
       <use x="614.464844" xlink:href="#DejaVuSans-45"/>
       <use x="677.648438" xlink:href="#DejaVuSans-6e"/>
       <use x="741.027344" xlink:href="#DejaVuSans-67"/>
       <use x="804.503906" xlink:href="#DejaVuSans-6c"/>
       <use x="832.287109" xlink:href="#DejaVuSans-69"/>
       <use x="860.070312" xlink:href="#DejaVuSans-73"/>
       <use x="912.169922" xlink:href="#DejaVuSans-68"/>
       <use x="975.548828" xlink:href="#DejaVuSans-20"/>
       <use x="1007.335938" xlink:href="#DejaVuSans-48"/>
       <use x="1082.53125" xlink:href="#DejaVuSans-69"/>
       <use x="1110.314453" xlink:href="#DejaVuSans-67"/>
       <use x="1173.791016" xlink:href="#DejaVuSans-68"/>
      </g>
     </g>
    </g>
    <g id="xtick_17">
     <g id="line2d_17">
      <g>
       <use style="stroke:#000000;stroke-width:0.8;" x="461.326202" xlink:href="#m8358e9b51e" y="467.09375"/>
      </g>
     </g>
     <g id="text_17">
      <!-- Lynn - Lynn Vocational Technical Institute -->
      <defs>
       <path d="M 28.609375 0 
L 0.78125 72.90625 
L 11.078125 72.90625 
L 34.1875 11.53125 
L 57.328125 72.90625 
L 67.578125 72.90625 
L 39.796875 0 
z
" id="DejaVuSans-56"/>
      </defs>
      <g transform="translate(464.085577 683.648438)rotate(-90)scale(0.1 -0.1)">
       <use xlink:href="#DejaVuSans-4c"/>
       <use x="55.572266" xlink:href="#DejaVuSans-79"/>
       <use x="114.751953" xlink:href="#DejaVuSans-6e"/>
       <use x="178.130859" xlink:href="#DejaVuSans-6e"/>
       <use x="241.509766" xlink:href="#DejaVuSans-20"/>
       <use x="273.296875" xlink:href="#DejaVuSans-2d"/>
       <use x="309.380859" xlink:href="#DejaVuSans-20"/>
       <use x="341.167969" xlink:href="#DejaVuSans-4c"/>
       <use x="396.740234" xlink:href="#DejaVuSans-79"/>
       <use x="455.919922" xlink:href="#DejaVuSans-6e"/>
       <use x="519.298828" xlink:href="#DejaVuSans-6e"/>
       <use x="582.677734" xlink:href="#DejaVuSans-20"/>
       <use x="614.464844" xlink:href="#DejaVuSans-56"/>
       <use x="682.763672" xlink:href="#DejaVuSans-6f"/>
       <use x="743.945312" xlink:href="#DejaVuSans-63"/>
       <use x="798.925781" xlink:href="#DejaVuSans-61"/>
       <use x="860.205078" xlink:href="#DejaVuSans-74"/>
       <use x="899.414062" xlink:href="#DejaVuSans-69"/>
       <use x="927.197266" xlink:href="#DejaVuSans-6f"/>
       <use x="988.378906" xlink:href="#DejaVuSans-6e"/>
       <use x="1051.757812" xlink:href="#DejaVuSans-61"/>
       <use x="1113.037109" xlink:href="#DejaVuSans-6c"/>
       <use x="1140.820312" xlink:href="#DejaVuSans-20"/>
       <use x="1172.607422" xlink:href="#DejaVuSans-54"/>
       <use x="1233.425781" xlink:href="#DejaVuSans-65"/>
       <use x="1294.949219" xlink:href="#DejaVuSans-63"/>
       <use x="1349.929688" xlink:href="#DejaVuSans-68"/>
       <use x="1413.308594" xlink:href="#DejaVuSans-6e"/>
       <use x="1476.6875" xlink:href="#DejaVuSans-69"/>
       <use x="1504.470703" xlink:href="#DejaVuSans-63"/>
       <use x="1559.451172" xlink:href="#DejaVuSans-61"/>
       <use x="1620.730469" xlink:href="#DejaVuSans-6c"/>
       <use x="1648.513672" xlink:href="#DejaVuSans-20"/>
       <use x="1680.300781" xlink:href="#DejaVuSans-49"/>
       <use x="1709.792969" xlink:href="#DejaVuSans-6e"/>
       <use x="1773.171875" xlink:href="#DejaVuSans-73"/>
       <use x="1825.271484" xlink:href="#DejaVuSans-74"/>
       <use x="1864.480469" xlink:href="#DejaVuSans-69"/>
       <use x="1892.263672" xlink:href="#DejaVuSans-74"/>
       <use x="1931.472656" xlink:href="#DejaVuSans-75"/>
       <use x="1994.851562" xlink:href="#DejaVuSans-74"/>
       <use x="2034.060547" xlink:href="#DejaVuSans-65"/>
      </g>
     </g>
    </g>
    <g id="xtick_18">
     <g id="line2d_18">
      <g>
       <use style="stroke:#000000;stroke-width:0.8;" x="487.04976" xlink:href="#m8358e9b51e" y="467.09375"/>
      </g>
     </g>
     <g id="text_18">
      <!-- Lynn - Lynn Woods -->
      <g transform="translate(489.809135 569.214062)rotate(-90)scale(0.1 -0.1)">
       <use xlink:href="#DejaVuSans-4c"/>
       <use x="55.572266" xlink:href="#DejaVuSans-79"/>
       <use x="114.751953" xlink:href="#DejaVuSans-6e"/>
       <use x="178.130859" xlink:href="#DejaVuSans-6e"/>
       <use x="241.509766" xlink:href="#DejaVuSans-20"/>
       <use x="273.296875" xlink:href="#DejaVuSans-2d"/>
       <use x="309.380859" xlink:href="#DejaVuSans-20"/>
       <use x="341.167969" xlink:href="#DejaVuSans-4c"/>
       <use x="396.740234" xlink:href="#DejaVuSans-79"/>
       <use x="455.919922" xlink:href="#DejaVuSans-6e"/>
       <use x="519.298828" xlink:href="#DejaVuSans-6e"/>
       <use x="582.677734" xlink:href="#DejaVuSans-20"/>
       <use x="614.464844" xlink:href="#DejaVuSans-57"/>
       <use x="713.263672" xlink:href="#DejaVuSans-6f"/>
       <use x="774.445312" xlink:href="#DejaVuSans-6f"/>
       <use x="835.626953" xlink:href="#DejaVuSans-64"/>
       <use x="899.103516" xlink:href="#DejaVuSans-73"/>
      </g>
     </g>
    </g>
    <g id="xtick_19">
     <g id="line2d_19">
      <g>
       <use style="stroke:#000000;stroke-width:0.8;" x="512.773317" xlink:href="#m8358e9b51e" y="467.09375"/>
      </g>
     </g>
     <g id="text_19">
      <!-- Lynn - Pickering Middle -->
      <defs>
       <path d="M 19.671875 64.796875 
L 19.671875 37.40625 
L 32.078125 37.40625 
Q 38.96875 37.40625 42.71875 40.96875 
Q 46.484375 44.53125 46.484375 51.125 
Q 46.484375 57.671875 42.71875 61.234375 
Q 38.96875 64.796875 32.078125 64.796875 
z
M 9.8125 72.90625 
L 32.078125 72.90625 
Q 44.34375 72.90625 50.609375 67.359375 
Q 56.890625 61.8125 56.890625 51.125 
Q 56.890625 40.328125 50.609375 34.8125 
Q 44.34375 29.296875 32.078125 29.296875 
L 19.671875 29.296875 
L 19.671875 0 
L 9.8125 0 
z
" id="DejaVuSans-50"/>
      </defs>
      <g transform="translate(515.532692 590.239062)rotate(-90)scale(0.1 -0.1)">
       <use xlink:href="#DejaVuSans-4c"/>
       <use x="55.572266" xlink:href="#DejaVuSans-79"/>
       <use x="114.751953" xlink:href="#DejaVuSans-6e"/>
       <use x="178.130859" xlink:href="#DejaVuSans-6e"/>
       <use x="241.509766" xlink:href="#DejaVuSans-20"/>
       <use x="273.296875" xlink:href="#DejaVuSans-2d"/>
       <use x="309.380859" xlink:href="#DejaVuSans-20"/>
       <use x="341.167969" xlink:href="#DejaVuSans-50"/>
       <use x="401.439453" xlink:href="#DejaVuSans-69"/>
       <use x="429.222656" xlink:href="#DejaVuSans-63"/>
       <use x="484.203125" xlink:href="#DejaVuSans-6b"/>
       <use x="542.066406" xlink:href="#DejaVuSans-65"/>
       <use x="603.589844" xlink:href="#DejaVuSans-72"/>
       <use x="644.703125" xlink:href="#DejaVuSans-69"/>
       <use x="672.486328" xlink:href="#DejaVuSans-6e"/>
       <use x="735.865234" xlink:href="#DejaVuSans-67"/>
       <use x="799.341797" xlink:href="#DejaVuSans-20"/>
       <use x="831.128906" xlink:href="#DejaVuSans-4d"/>
       <use x="917.408203" xlink:href="#DejaVuSans-69"/>
       <use x="945.191406" xlink:href="#DejaVuSans-64"/>
       <use x="1008.667969" xlink:href="#DejaVuSans-64"/>
       <use x="1072.144531" xlink:href="#DejaVuSans-6c"/>
       <use x="1099.927734" xlink:href="#DejaVuSans-65"/>
      </g>
     </g>
    </g>
    <g id="xtick_20">
     <g id="line2d_20">
      <g>
       <use style="stroke:#000000;stroke-width:0.8;" x="538.496875" xlink:href="#m8358e9b51e" y="467.09375"/>
      </g>
     </g>
     <g id="text_20">
      <!-- Lynn - Robert L Ford -->
      <defs>
       <path d="M 44.390625 34.1875 
Q 47.5625 33.109375 50.5625 29.59375 
Q 53.5625 26.078125 56.59375 19.921875 
L 66.609375 0 
L 56 0 
L 46.6875 18.703125 
Q 43.0625 26.03125 39.671875 28.421875 
Q 36.28125 30.8125 30.421875 30.8125 
L 19.671875 30.8125 
L 19.671875 0 
L 9.8125 0 
L 9.8125 72.90625 
L 32.078125 72.90625 
Q 44.578125 72.90625 50.734375 67.671875 
Q 56.890625 62.453125 56.890625 51.90625 
Q 56.890625 45.015625 53.6875 40.46875 
Q 50.484375 35.9375 44.390625 34.1875 
z
M 19.671875 64.796875 
L 19.671875 38.921875 
L 32.078125 38.921875 
Q 39.203125 38.921875 42.84375 42.21875 
Q 46.484375 45.515625 46.484375 51.90625 
Q 46.484375 58.296875 42.84375 61.546875 
Q 39.203125 64.796875 32.078125 64.796875 
z
" id="DejaVuSans-52"/>
      </defs>
      <g transform="translate(541.25625 576.054688)rotate(-90)scale(0.1 -0.1)">
       <use xlink:href="#DejaVuSans-4c"/>
       <use x="55.572266" xlink:href="#DejaVuSans-79"/>
       <use x="114.751953" xlink:href="#DejaVuSans-6e"/>
       <use x="178.130859" xlink:href="#DejaVuSans-6e"/>
       <use x="241.509766" xlink:href="#DejaVuSans-20"/>
       <use x="273.296875" xlink:href="#DejaVuSans-2d"/>
       <use x="309.380859" xlink:href="#DejaVuSans-20"/>
       <use x="341.167969" xlink:href="#DejaVuSans-52"/>
       <use x="410.587891" xlink:href="#DejaVuSans-6f"/>
       <use x="471.769531" xlink:href="#DejaVuSans-62"/>
       <use x="535.246094" xlink:href="#DejaVuSans-65"/>
       <use x="596.769531" xlink:href="#DejaVuSans-72"/>
       <use x="637.882812" xlink:href="#DejaVuSans-74"/>
       <use x="677.091797" xlink:href="#DejaVuSans-20"/>
       <use x="708.878906" xlink:href="#DejaVuSans-4c"/>
       <use x="764.591797" xlink:href="#DejaVuSans-20"/>
       <use x="796.378906" xlink:href="#DejaVuSans-46"/>
       <use x="853.851562" xlink:href="#DejaVuSans-6f"/>
       <use x="915.033203" xlink:href="#DejaVuSans-72"/>
       <use x="956.130859" xlink:href="#DejaVuSans-64"/>
      </g>
     </g>
    </g>
    <g id="xtick_21">
     <g id="line2d_21">
      <g>
       <use style="stroke:#000000;stroke-width:0.8;" x="564.220433" xlink:href="#m8358e9b51e" y="467.09375"/>
      </g>
     </g>
     <g id="text_21">
      <!-- Lynn - Sewell-Anderson -->
      <g transform="translate(566.979808 591.659375)rotate(-90)scale(0.1 -0.1)">
       <use xlink:href="#DejaVuSans-4c"/>
       <use x="55.572266" xlink:href="#DejaVuSans-79"/>
       <use x="114.751953" xlink:href="#DejaVuSans-6e"/>
       <use x="178.130859" xlink:href="#DejaVuSans-6e"/>
       <use x="241.509766" xlink:href="#DejaVuSans-20"/>
       <use x="273.296875" xlink:href="#DejaVuSans-2d"/>
       <use x="309.380859" xlink:href="#DejaVuSans-20"/>
       <use x="341.167969" xlink:href="#DejaVuSans-53"/>
       <use x="404.644531" xlink:href="#DejaVuSans-65"/>
       <use x="466.167969" xlink:href="#DejaVuSans-77"/>
       <use x="547.955078" xlink:href="#DejaVuSans-65"/>
       <use x="609.478516" xlink:href="#DejaVuSans-6c"/>
       <use x="637.261719" xlink:href="#DejaVuSans-6c"/>
       <use x="665.044922" xlink:href="#DejaVuSans-2d"/>
       <use x="701.097656" xlink:href="#DejaVuSans-41"/>
       <use x="769.505859" xlink:href="#DejaVuSans-6e"/>
       <use x="832.884766" xlink:href="#DejaVuSans-64"/>
       <use x="896.361328" xlink:href="#DejaVuSans-65"/>
       <use x="957.884766" xlink:href="#DejaVuSans-72"/>
       <use x="998.998047" xlink:href="#DejaVuSans-73"/>
       <use x="1051.097656" xlink:href="#DejaVuSans-6f"/>
       <use x="1112.279297" xlink:href="#DejaVuSans-6e"/>
      </g>
     </g>
    </g>
    <g id="xtick_22">
     <g id="line2d_22">
      <g>
       <use style="stroke:#000000;stroke-width:0.8;" x="589.94399" xlink:href="#m8358e9b51e" y="467.09375"/>
      </g>
     </g>
     <g id="text_22">
      <!-- Lynn - Thurgood Marshall Mid -->
      <g transform="translate(592.703365 622.245312)rotate(-90)scale(0.1 -0.1)">
       <use xlink:href="#DejaVuSans-4c"/>
       <use x="55.572266" xlink:href="#DejaVuSans-79"/>
       <use x="114.751953" xlink:href="#DejaVuSans-6e"/>
       <use x="178.130859" xlink:href="#DejaVuSans-6e"/>
       <use x="241.509766" xlink:href="#DejaVuSans-20"/>
       <use x="273.296875" xlink:href="#DejaVuSans-2d"/>
       <use x="309.380859" xlink:href="#DejaVuSans-20"/>
       <use x="341.167969" xlink:href="#DejaVuSans-54"/>
       <use x="402.251953" xlink:href="#DejaVuSans-68"/>
       <use x="465.630859" xlink:href="#DejaVuSans-75"/>
       <use x="529.009766" xlink:href="#DejaVuSans-72"/>
       <use x="570.107422" xlink:href="#DejaVuSans-67"/>
       <use x="633.583984" xlink:href="#DejaVuSans-6f"/>
       <use x="694.765625" xlink:href="#DejaVuSans-6f"/>
       <use x="755.947266" xlink:href="#DejaVuSans-64"/>
       <use x="819.423828" xlink:href="#DejaVuSans-20"/>
       <use x="851.210938" xlink:href="#DejaVuSans-4d"/>
       <use x="937.490234" xlink:href="#DejaVuSans-61"/>
       <use x="998.769531" xlink:href="#DejaVuSans-72"/>
       <use x="1039.882812" xlink:href="#DejaVuSans-73"/>
       <use x="1091.982422" xlink:href="#DejaVuSans-68"/>
       <use x="1155.361328" xlink:href="#DejaVuSans-61"/>
       <use x="1216.640625" xlink:href="#DejaVuSans-6c"/>
       <use x="1244.423828" xlink:href="#DejaVuSans-6c"/>
       <use x="1272.207031" xlink:href="#DejaVuSans-20"/>
       <use x="1303.994141" xlink:href="#DejaVuSans-4d"/>
       <use x="1390.273438" xlink:href="#DejaVuSans-69"/>
       <use x="1418.056641" xlink:href="#DejaVuSans-64"/>
      </g>
     </g>
    </g>
    <g id="xtick_23">
     <g id="line2d_23">
      <g>
       <use style="stroke:#000000;stroke-width:0.8;" x="615.667548" xlink:href="#m8358e9b51e" y="467.09375"/>
      </g>
     </g>
     <g id="text_23">
      <!-- Lynn - Tracy -->
      <g transform="translate(618.426923 535.951562)rotate(-90)scale(0.1 -0.1)">
       <use xlink:href="#DejaVuSans-4c"/>
       <use x="55.572266" xlink:href="#DejaVuSans-79"/>
       <use x="114.751953" xlink:href="#DejaVuSans-6e"/>
       <use x="178.130859" xlink:href="#DejaVuSans-6e"/>
       <use x="241.509766" xlink:href="#DejaVuSans-20"/>
       <use x="273.296875" xlink:href="#DejaVuSans-2d"/>
       <use x="309.380859" xlink:href="#DejaVuSans-20"/>
       <use x="341.167969" xlink:href="#DejaVuSans-54"/>
       <use x="402.033203" xlink:href="#DejaVuSans-72"/>
       <use x="443.146484" xlink:href="#DejaVuSans-61"/>
       <use x="504.425781" xlink:href="#DejaVuSans-63"/>
       <use x="559.40625" xlink:href="#DejaVuSans-79"/>
      </g>
     </g>
    </g>
    <g id="xtick_24">
     <g id="line2d_24">
      <g>
       <use style="stroke:#000000;stroke-width:0.8;" x="641.391106" xlink:href="#m8358e9b51e" y="467.09375"/>
      </g>
     </g>
     <g id="text_24">
      <!-- Lynn - Washington Elementary School -->
      <g transform="translate(644.150481 664.71875)rotate(-90)scale(0.1 -0.1)">
       <use xlink:href="#DejaVuSans-4c"/>
       <use x="55.572266" xlink:href="#DejaVuSans-79"/>
       <use x="114.751953" xlink:href="#DejaVuSans-6e"/>
       <use x="178.130859" xlink:href="#DejaVuSans-6e"/>
       <use x="241.509766" xlink:href="#DejaVuSans-20"/>
       <use x="273.296875" xlink:href="#DejaVuSans-2d"/>
       <use x="309.380859" xlink:href="#DejaVuSans-20"/>
       <use x="341.167969" xlink:href="#DejaVuSans-57"/>
       <use x="439.951172" xlink:href="#DejaVuSans-61"/>
       <use x="501.230469" xlink:href="#DejaVuSans-73"/>
       <use x="553.330078" xlink:href="#DejaVuSans-68"/>
       <use x="616.708984" xlink:href="#DejaVuSans-69"/>
       <use x="644.492188" xlink:href="#DejaVuSans-6e"/>
       <use x="707.871094" xlink:href="#DejaVuSans-67"/>
       <use x="771.347656" xlink:href="#DejaVuSans-74"/>
       <use x="810.556641" xlink:href="#DejaVuSans-6f"/>
       <use x="871.738281" xlink:href="#DejaVuSans-6e"/>
       <use x="935.117188" xlink:href="#DejaVuSans-20"/>
       <use x="966.904297" xlink:href="#DejaVuSans-45"/>
       <use x="1030.087891" xlink:href="#DejaVuSans-6c"/>
       <use x="1057.871094" xlink:href="#DejaVuSans-65"/>
       <use x="1119.394531" xlink:href="#DejaVuSans-6d"/>
       <use x="1216.806641" xlink:href="#DejaVuSans-65"/>
       <use x="1278.330078" xlink:href="#DejaVuSans-6e"/>
       <use x="1341.708984" xlink:href="#DejaVuSans-74"/>
       <use x="1380.917969" xlink:href="#DejaVuSans-61"/>
       <use x="1442.197266" xlink:href="#DejaVuSans-72"/>
       <use x="1483.310547" xlink:href="#DejaVuSans-79"/>
       <use x="1542.490234" xlink:href="#DejaVuSans-20"/>
       <use x="1574.277344" xlink:href="#DejaVuSans-53"/>
       <use x="1637.753906" xlink:href="#DejaVuSans-63"/>
       <use x="1692.734375" xlink:href="#DejaVuSans-68"/>
       <use x="1756.113281" xlink:href="#DejaVuSans-6f"/>
       <use x="1817.294922" xlink:href="#DejaVuSans-6f"/>
       <use x="1878.476562" xlink:href="#DejaVuSans-6c"/>
      </g>
     </g>
    </g>
    <g id="xtick_25">
     <g id="line2d_25">
      <g>
       <use style="stroke:#000000;stroke-width:0.8;" x="667.114663" xlink:href="#m8358e9b51e" y="467.09375"/>
      </g>
     </g>
     <g id="text_25">
      <!-- Lynn - William R Fallon -->
      <g transform="translate(669.874038 588.257812)rotate(-90)scale(0.1 -0.1)">
       <use xlink:href="#DejaVuSans-4c"/>
       <use x="55.572266" xlink:href="#DejaVuSans-79"/>
       <use x="114.751953" xlink:href="#DejaVuSans-6e"/>
       <use x="178.130859" xlink:href="#DejaVuSans-6e"/>
       <use x="241.509766" xlink:href="#DejaVuSans-20"/>
       <use x="273.296875" xlink:href="#DejaVuSans-2d"/>
       <use x="309.380859" xlink:href="#DejaVuSans-20"/>
       <use x="341.167969" xlink:href="#DejaVuSans-57"/>
       <use x="440.013672" xlink:href="#DejaVuSans-69"/>
       <use x="467.796875" xlink:href="#DejaVuSans-6c"/>
       <use x="495.580078" xlink:href="#DejaVuSans-6c"/>
       <use x="523.363281" xlink:href="#DejaVuSans-69"/>
       <use x="551.146484" xlink:href="#DejaVuSans-61"/>
       <use x="612.425781" xlink:href="#DejaVuSans-6d"/>
       <use x="709.837891" xlink:href="#DejaVuSans-20"/>
       <use x="741.625" xlink:href="#DejaVuSans-52"/>
       <use x="811.107422" xlink:href="#DejaVuSans-20"/>
       <use x="842.894531" xlink:href="#DejaVuSans-46"/>
       <use x="900.273438" xlink:href="#DejaVuSans-61"/>
       <use x="961.552734" xlink:href="#DejaVuSans-6c"/>
       <use x="989.335938" xlink:href="#DejaVuSans-6c"/>
       <use x="1017.119141" xlink:href="#DejaVuSans-6f"/>
       <use x="1078.300781" xlink:href="#DejaVuSans-6e"/>
      </g>
     </g>
    </g>
    <g id="xtick_26">
     <g id="line2d_26">
      <g>
       <use style="stroke:#000000;stroke-width:0.8;" x="692.838221" xlink:href="#m8358e9b51e" y="467.09375"/>
      </g>
     </g>
     <g id="text_26">
      <!-- Lynn - Wm P Connery -->
      <g transform="translate(695.597596 582.182812)rotate(-90)scale(0.1 -0.1)">
       <use xlink:href="#DejaVuSans-4c"/>
       <use x="55.572266" xlink:href="#DejaVuSans-79"/>
       <use x="114.751953" xlink:href="#DejaVuSans-6e"/>
       <use x="178.130859" xlink:href="#DejaVuSans-6e"/>
       <use x="241.509766" xlink:href="#DejaVuSans-20"/>
       <use x="273.296875" xlink:href="#DejaVuSans-2d"/>
       <use x="309.380859" xlink:href="#DejaVuSans-20"/>
       <use x="341.167969" xlink:href="#DejaVuSans-57"/>
       <use x="440.044922" xlink:href="#DejaVuSans-6d"/>
       <use x="537.457031" xlink:href="#DejaVuSans-20"/>
       <use x="569.244141" xlink:href="#DejaVuSans-50"/>
       <use x="629.546875" xlink:href="#DejaVuSans-20"/>
       <use x="661.333984" xlink:href="#DejaVuSans-43"/>
       <use x="731.158203" xlink:href="#DejaVuSans-6f"/>
       <use x="792.339844" xlink:href="#DejaVuSans-6e"/>
       <use x="855.71875" xlink:href="#DejaVuSans-6e"/>
       <use x="919.097656" xlink:href="#DejaVuSans-65"/>
       <use x="980.621094" xlink:href="#DejaVuSans-72"/>
       <use x="1021.734375" xlink:href="#DejaVuSans-79"/>
      </g>
     </g>
    </g>
   </g>
   <g id="matplotlib.axis_2">
    <g id="ytick_1">
     <g id="line2d_27">
      <defs>
       <path d="M 0 0 
L -3.5 0 
" id="m07291dade4" style="stroke:#000000;stroke-width:0.8;"/>
      </defs>
      <g>
       <use style="stroke:#000000;stroke-width:0.8;" x="36.8875" xlink:href="#m07291dade4" y="467.09375"/>
      </g>
     </g>
     <g id="text_27">
      <!-- 0 -->
      <defs>
       <path d="M 31.78125 66.40625 
Q 24.171875 66.40625 20.328125 58.90625 
Q 16.5 51.421875 16.5 36.375 
Q 16.5 21.390625 20.328125 13.890625 
Q 24.171875 6.390625 31.78125 6.390625 
Q 39.453125 6.390625 43.28125 13.890625 
Q 47.125 21.390625 47.125 36.375 
Q 47.125 51.421875 43.28125 58.90625 
Q 39.453125 66.40625 31.78125 66.40625 
z
M 31.78125 74.21875 
Q 44.046875 74.21875 50.515625 64.515625 
Q 56.984375 54.828125 56.984375 36.375 
Q 56.984375 17.96875 50.515625 8.265625 
Q 44.046875 -1.421875 31.78125 -1.421875 
Q 19.53125 -1.421875 13.0625 8.265625 
Q 6.59375 17.96875 6.59375 36.375 
Q 6.59375 54.828125 13.0625 64.515625 
Q 19.53125 74.21875 31.78125 74.21875 
z
" id="DejaVuSans-30"/>
      </defs>
      <g transform="translate(23.525 470.892969)scale(0.1 -0.1)">
       <use xlink:href="#DejaVuSans-30"/>
      </g>
     </g>
    </g>
    <g id="ytick_2">
     <g id="line2d_28">
      <g>
       <use style="stroke:#000000;stroke-width:0.8;" x="36.8875" xlink:href="#m07291dade4" y="379.176901"/>
      </g>
     </g>
     <g id="text_28">
      <!-- 20 -->
      <defs>
       <path d="M 19.1875 8.296875 
L 53.609375 8.296875 
L 53.609375 0 
L 7.328125 0 
L 7.328125 8.296875 
Q 12.9375 14.109375 22.625 23.890625 
Q 32.328125 33.6875 34.8125 36.53125 
Q 39.546875 41.84375 41.421875 45.53125 
Q 43.3125 49.21875 43.3125 52.78125 
Q 43.3125 58.59375 39.234375 62.25 
Q 35.15625 65.921875 28.609375 65.921875 
Q 23.96875 65.921875 18.8125 64.3125 
Q 13.671875 62.703125 7.8125 59.421875 
L 7.8125 69.390625 
Q 13.765625 71.78125 18.9375 73 
Q 24.125 74.21875 28.421875 74.21875 
Q 39.75 74.21875 46.484375 68.546875 
Q 53.21875 62.890625 53.21875 53.421875 
Q 53.21875 48.921875 51.53125 44.890625 
Q 49.859375 40.875 45.40625 35.40625 
Q 44.1875 33.984375 37.640625 27.21875 
Q 31.109375 20.453125 19.1875 8.296875 
z
" id="DejaVuSans-32"/>
      </defs>
      <g transform="translate(17.1625 382.97612)scale(0.1 -0.1)">
       <use xlink:href="#DejaVuSans-32"/>
       <use x="63.623047" xlink:href="#DejaVuSans-30"/>
      </g>
     </g>
    </g>
    <g id="ytick_3">
     <g id="line2d_29">
      <g>
       <use style="stroke:#000000;stroke-width:0.8;" x="36.8875" xlink:href="#m07291dade4" y="291.260053"/>
      </g>
     </g>
     <g id="text_29">
      <!-- 40 -->
      <defs>
       <path d="M 37.796875 64.3125 
L 12.890625 25.390625 
L 37.796875 25.390625 
z
M 35.203125 72.90625 
L 47.609375 72.90625 
L 47.609375 25.390625 
L 58.015625 25.390625 
L 58.015625 17.1875 
L 47.609375 17.1875 
L 47.609375 0 
L 37.796875 0 
L 37.796875 17.1875 
L 4.890625 17.1875 
L 4.890625 26.703125 
z
" id="DejaVuSans-34"/>
      </defs>
      <g transform="translate(17.1625 295.059271)scale(0.1 -0.1)">
       <use xlink:href="#DejaVuSans-34"/>
       <use x="63.623047" xlink:href="#DejaVuSans-30"/>
      </g>
     </g>
    </g>
    <g id="ytick_4">
     <g id="line2d_30">
      <g>
       <use style="stroke:#000000;stroke-width:0.8;" x="36.8875" xlink:href="#m07291dade4" y="203.343204"/>
      </g>
     </g>
     <g id="text_30">
      <!-- 60 -->
      <defs>
       <path d="M 33.015625 40.375 
Q 26.375 40.375 22.484375 35.828125 
Q 18.609375 31.296875 18.609375 23.390625 
Q 18.609375 15.53125 22.484375 10.953125 
Q 26.375 6.390625 33.015625 6.390625 
Q 39.65625 6.390625 43.53125 10.953125 
Q 47.40625 15.53125 47.40625 23.390625 
Q 47.40625 31.296875 43.53125 35.828125 
Q 39.65625 40.375 33.015625 40.375 
z
M 52.59375 71.296875 
L 52.59375 62.3125 
Q 48.875 64.0625 45.09375 64.984375 
Q 41.3125 65.921875 37.59375 65.921875 
Q 27.828125 65.921875 22.671875 59.328125 
Q 17.53125 52.734375 16.796875 39.40625 
Q 19.671875 43.65625 24.015625 45.921875 
Q 28.375 48.1875 33.59375 48.1875 
Q 44.578125 48.1875 50.953125 41.515625 
Q 57.328125 34.859375 57.328125 23.390625 
Q 57.328125 12.15625 50.6875 5.359375 
Q 44.046875 -1.421875 33.015625 -1.421875 
Q 20.359375 -1.421875 13.671875 8.265625 
Q 6.984375 17.96875 6.984375 36.375 
Q 6.984375 53.65625 15.1875 63.9375 
Q 23.390625 74.21875 37.203125 74.21875 
Q 40.921875 74.21875 44.703125 73.484375 
Q 48.484375 72.75 52.59375 71.296875 
z
" id="DejaVuSans-36"/>
      </defs>
      <g transform="translate(17.1625 207.142423)scale(0.1 -0.1)">
       <use xlink:href="#DejaVuSans-36"/>
       <use x="63.623047" xlink:href="#DejaVuSans-30"/>
      </g>
     </g>
    </g>
    <g id="ytick_5">
     <g id="line2d_31">
      <g>
       <use style="stroke:#000000;stroke-width:0.8;" x="36.8875" xlink:href="#m07291dade4" y="115.426355"/>
      </g>
     </g>
     <g id="text_31">
      <!-- 80 -->
      <defs>
       <path d="M 31.78125 34.625 
Q 24.75 34.625 20.71875 30.859375 
Q 16.703125 27.09375 16.703125 20.515625 
Q 16.703125 13.921875 20.71875 10.15625 
Q 24.75 6.390625 31.78125 6.390625 
Q 38.8125 6.390625 42.859375 10.171875 
Q 46.921875 13.96875 46.921875 20.515625 
Q 46.921875 27.09375 42.890625 30.859375 
Q 38.875 34.625 31.78125 34.625 
z
M 21.921875 38.8125 
Q 15.578125 40.375 12.03125 44.71875 
Q 8.5 49.078125 8.5 55.328125 
Q 8.5 64.0625 14.71875 69.140625 
Q 20.953125 74.21875 31.78125 74.21875 
Q 42.671875 74.21875 48.875 69.140625 
Q 55.078125 64.0625 55.078125 55.328125 
Q 55.078125 49.078125 51.53125 44.71875 
Q 48 40.375 41.703125 38.8125 
Q 48.828125 37.15625 52.796875 32.3125 
Q 56.78125 27.484375 56.78125 20.515625 
Q 56.78125 9.90625 50.3125 4.234375 
Q 43.84375 -1.421875 31.78125 -1.421875 
Q 19.734375 -1.421875 13.25 4.234375 
Q 6.78125 9.90625 6.78125 20.515625 
Q 6.78125 27.484375 10.78125 32.3125 
Q 14.796875 37.15625 21.921875 38.8125 
z
M 18.3125 54.390625 
Q 18.3125 48.734375 21.84375 45.5625 
Q 25.390625 42.390625 31.78125 42.390625 
Q 38.140625 42.390625 41.71875 45.5625 
Q 45.3125 48.734375 45.3125 54.390625 
Q 45.3125 60.0625 41.71875 63.234375 
Q 38.140625 66.40625 31.78125 66.40625 
Q 25.390625 66.40625 21.84375 63.234375 
Q 18.3125 60.0625 18.3125 54.390625 
z
" id="DejaVuSans-38"/>
      </defs>
      <g transform="translate(17.1625 119.225574)scale(0.1 -0.1)">
       <use xlink:href="#DejaVuSans-38"/>
       <use x="63.623047" xlink:href="#DejaVuSans-30"/>
      </g>
     </g>
    </g>
    <g id="ytick_6">
     <g id="line2d_32">
      <g>
       <use style="stroke:#000000;stroke-width:0.8;" x="36.8875" xlink:href="#m07291dade4" y="27.509507"/>
      </g>
     </g>
     <g id="text_32">
      <!-- 100 -->
      <defs>
       <path d="M 12.40625 8.296875 
L 28.515625 8.296875 
L 28.515625 63.921875 
L 10.984375 60.40625 
L 10.984375 69.390625 
L 28.421875 72.90625 
L 38.28125 72.90625 
L 38.28125 8.296875 
L 54.390625 8.296875 
L 54.390625 0 
L 12.40625 0 
z
" id="DejaVuSans-31"/>
      </defs>
      <g transform="translate(10.8 31.308725)scale(0.1 -0.1)">
       <use xlink:href="#DejaVuSans-31"/>
       <use x="63.623047" xlink:href="#DejaVuSans-30"/>
       <use x="127.246094" xlink:href="#DejaVuSans-30"/>
      </g>
     </g>
    </g>
   </g>
   <g id="patch_107">
    <path d="M 36.8875 467.09375 
L 36.8875 14.3 
" style="fill:none;stroke:#000000;stroke-linecap:square;stroke-linejoin:miter;stroke-width:0.8;"/>
   </g>
   <g id="patch_108">
    <path d="M 705.7 467.09375 
L 705.7 14.3 
" style="fill:none;stroke:#000000;stroke-linecap:square;stroke-linejoin:miter;stroke-width:0.8;"/>
   </g>
   <g id="patch_109">
    <path d="M 36.8875 467.09375 
L 705.7 467.09375 
" style="fill:none;stroke:#000000;stroke-linecap:square;stroke-linejoin:miter;stroke-width:0.8;"/>
   </g>
   <g id="patch_110">
    <path d="M 36.8875 14.3 
L 705.7 14.3 
" style="fill:none;stroke:#000000;stroke-linecap:square;stroke-linejoin:miter;stroke-width:0.8;"/>
   </g>
   <g id="legend_1">
    <g id="patch_111">
     <path d="M 583.903125 81.0125 
L 698.7 81.0125 
Q 700.7 81.0125 700.7 79.0125 
L 700.7 21.3 
Q 700.7 19.3 698.7 19.3 
L 583.903125 19.3 
Q 581.903125 19.3 581.903125 21.3 
L 581.903125 79.0125 
Q 581.903125 81.0125 583.903125 81.0125 
z
" style="fill:#ffffff;opacity:0.8;stroke:#cccccc;stroke-linejoin:miter;"/>
    </g>
    <g id="patch_112">
     <path d="M 585.903125 30.898438 
L 605.903125 30.898438 
L 605.903125 23.898438 
L 585.903125 23.898438 
z
" style="fill:#1f77b4;"/>
    </g>
    <g id="text_33">
     <!-- AfricanAmerican -->
     <defs>
      <path d="M 37.109375 75.984375 
L 37.109375 68.5 
L 28.515625 68.5 
Q 23.6875 68.5 21.796875 66.546875 
Q 19.921875 64.59375 19.921875 59.515625 
L 19.921875 54.6875 
L 34.71875 54.6875 
L 34.71875 47.703125 
L 19.921875 47.703125 
L 19.921875 0 
L 10.890625 0 
L 10.890625 47.703125 
L 2.296875 47.703125 
L 2.296875 54.6875 
L 10.890625 54.6875 
L 10.890625 58.5 
Q 10.890625 67.625 15.140625 71.796875 
Q 19.390625 75.984375 28.609375 75.984375 
z
" id="DejaVuSans-66"/>
     </defs>
     <g transform="translate(613.903125 30.898438)scale(0.1 -0.1)">
      <use xlink:href="#DejaVuSans-41"/>
      <use x="68.361328" xlink:href="#DejaVuSans-66"/>
      <use x="103.566406" xlink:href="#DejaVuSans-72"/>
      <use x="144.679688" xlink:href="#DejaVuSans-69"/>
      <use x="172.462891" xlink:href="#DejaVuSans-63"/>
      <use x="227.443359" xlink:href="#DejaVuSans-61"/>
      <use x="288.722656" xlink:href="#DejaVuSans-6e"/>
      <use x="352.101562" xlink:href="#DejaVuSans-41"/>
      <use x="420.509766" xlink:href="#DejaVuSans-6d"/>
      <use x="517.921875" xlink:href="#DejaVuSans-65"/>
      <use x="579.445312" xlink:href="#DejaVuSans-72"/>
      <use x="620.558594" xlink:href="#DejaVuSans-69"/>
      <use x="648.341797" xlink:href="#DejaVuSans-63"/>
      <use x="703.322266" xlink:href="#DejaVuSans-61"/>
      <use x="764.601562" xlink:href="#DejaVuSans-6e"/>
     </g>
    </g>
    <g id="patch_113">
     <path d="M 585.903125 45.576563 
L 605.903125 45.576563 
L 605.903125 38.576563 
L 585.903125 38.576563 
z
" style="fill:#ff7f0e;"/>
    </g>
    <g id="text_34">
     <!-- Asian -->
     <g transform="translate(613.903125 45.576563)scale(0.1 -0.1)">
      <use xlink:href="#DejaVuSans-41"/>
      <use x="68.408203" xlink:href="#DejaVuSans-73"/>
      <use x="120.507812" xlink:href="#DejaVuSans-69"/>
      <use x="148.291016" xlink:href="#DejaVuSans-61"/>
      <use x="209.570312" xlink:href="#DejaVuSans-6e"/>
     </g>
    </g>
    <g id="patch_114">
     <path d="M 585.903125 60.254688 
L 605.903125 60.254688 
L 605.903125 53.254688 
L 585.903125 53.254688 
z
" style="fill:#2ca02c;"/>
    </g>
    <g id="text_35">
     <!-- White -->
     <g transform="translate(613.903125 60.254688)scale(0.1 -0.1)">
      <use xlink:href="#DejaVuSans-57"/>
      <use x="98.876953" xlink:href="#DejaVuSans-68"/>
      <use x="162.255859" xlink:href="#DejaVuSans-69"/>
      <use x="190.039062" xlink:href="#DejaVuSans-74"/>
      <use x="229.248047" xlink:href="#DejaVuSans-65"/>
     </g>
    </g>
    <g id="patch_115">
     <path d="M 585.903125 74.932812 
L 605.903125 74.932812 
L 605.903125 67.932812 
L 585.903125 67.932812 
z
" style="fill:#d62728;"/>
    </g>
    <g id="text_36">
     <!-- Hispanic -->
     <g transform="translate(613.903125 74.932812)scale(0.1 -0.1)">
      <use xlink:href="#DejaVuSans-48"/>
      <use x="75.195312" xlink:href="#DejaVuSans-69"/>
      <use x="102.978516" xlink:href="#DejaVuSans-73"/>
      <use x="155.078125" xlink:href="#DejaVuSans-70"/>
      <use x="218.554688" xlink:href="#DejaVuSans-61"/>
      <use x="279.833984" xlink:href="#DejaVuSans-6e"/>
      <use x="343.212891" xlink:href="#DejaVuSans-69"/>
      <use x="370.996094" xlink:href="#DejaVuSans-63"/>
     </g>
    </g>
   </g>
  </g>
 </g>
 <defs>
  <clipPath id="pc7b45cee37">
   <rect height="452.79375" width="668.8125" x="36.8875" y="14.3"/>
  </clipPath>
 </defs>
</svg>
