<?xml version="1.0" encoding="utf-8" standalone="no"?>
<!DOCTYPE svg PUBLIC "-//W3C//DTD SVG 1.1//EN"
  "http://www.w3.org/Graphics/SVG/1.1/DTD/svg11.dtd">
<!-- Created with matplotlib (http://matplotlib.org/) -->
<svg height="720pt" version="1.1" viewBox="0 0 720 720" width="720pt" xmlns="http://www.w3.org/2000/svg" xmlns:xlink="http://www.w3.org/1999/xlink">
 <defs>
  <style type="text/css">
*{stroke-linecap:butt;stroke-linejoin:round;}
  </style>
 </defs>
 <g id="figure_1">
  <g id="patch_1">
   <path d="M 0 720 
L 720 720 
L 720 0 
L 0 0 
z
" style="fill:#ffffff;"/>
  </g>
  <g id="axes_1">
   <g id="patch_2">
    <path d="M 36.8875 439.00625 
L 705.7 439.00625 
L 705.7 14.3 
L 36.8875 14.3 
z
" style="fill:#ffffff;"/>
   </g>
   <g id="patch_3">
    <path clip-path="url(#p44119a8dd4)" d="M 45.687664 439.00625 
L 63.287993 439.00625 
L 63.287993 439.00625 
L 45.687664 439.00625 
z
" style="fill:#1f77b4;"/>
   </g>
   <g id="patch_4">
    <path clip-path="url(#p44119a8dd4)" d="M 80.888322 439.00625 
L 98.488651 439.00625 
L 98.488651 402.963287 
L 80.888322 402.963287 
z
" style="fill:#1f77b4;"/>
   </g>
   <g id="patch_5">
    <path clip-path="url(#p44119a8dd4)" d="M 116.08898 439.00625 
L 133.689309 439.00625 
L 133.689309 435.001476 
L 116.08898 435.001476 
z
" style="fill:#1f77b4;"/>
   </g>
   <g id="patch_6">
    <path clip-path="url(#p44119a8dd4)" d="M 151.289638 439.00625 
L 168.889967 439.00625 
L 168.889967 310.853492 
L 151.289638 310.853492 
z
" style="fill:#1f77b4;"/>
   </g>
   <g id="patch_7">
    <path clip-path="url(#p44119a8dd4)" d="M 186.490296 439.00625 
L 204.090625 439.00625 
L 204.090625 439.00625 
L 186.490296 439.00625 
z
" style="fill:#1f77b4;"/>
   </g>
   <g id="patch_8">
    <path clip-path="url(#p44119a8dd4)" d="M 221.690954 439.00625 
L 239.291283 439.00625 
L 239.291283 418.982382 
L 221.690954 418.982382 
z
" style="fill:#1f77b4;"/>
   </g>
   <g id="patch_9">
    <path clip-path="url(#p44119a8dd4)" d="M 256.891612 439.00625 
L 274.491941 439.00625 
L 274.491941 366.920324 
L 256.891612 366.920324 
z
" style="fill:#1f77b4;"/>
   </g>
   <g id="patch_10">
    <path clip-path="url(#p44119a8dd4)" d="M 292.09227 439.00625 
L 309.692599 439.00625 
L 309.692599 439.00625 
L 292.09227 439.00625 
z
" style="fill:#1f77b4;"/>
   </g>
   <g id="patch_11">
    <path clip-path="url(#p44119a8dd4)" d="M 327.292928 439.00625 
L 344.893257 439.00625 
L 344.893257 398.958513 
L 327.292928 398.958513 
z
" style="fill:#1f77b4;"/>
   </g>
   <g id="patch_12">
    <path clip-path="url(#p44119a8dd4)" d="M 362.493586 439.00625 
L 380.093914 439.00625 
L 380.093914 439.00625 
L 362.493586 439.00625 
z
" style="fill:#1f77b4;"/>
   </g>
   <g id="patch_13">
    <path clip-path="url(#p44119a8dd4)" d="M 397.694243 439.00625 
L 415.294572 439.00625 
L 415.294572 306.848718 
L 397.694243 306.848718 
z
" style="fill:#1f77b4;"/>
   </g>
   <g id="patch_14">
    <path clip-path="url(#p44119a8dd4)" d="M 432.894901 439.00625 
L 450.49523 439.00625 
L 450.49523 266.800981 
L 432.894901 266.800981 
z
" style="fill:#1f77b4;"/>
   </g>
   <g id="patch_15">
    <path clip-path="url(#p44119a8dd4)" d="M 468.095559 439.00625 
L 485.695888 439.00625 
L 485.695888 262.796208 
L 468.095559 262.796208 
z
" style="fill:#1f77b4;"/>
   </g>
   <g id="patch_16">
    <path clip-path="url(#p44119a8dd4)" d="M 503.296217 439.00625 
L 520.896546 439.00625 
L 520.896546 402.963287 
L 503.296217 402.963287 
z
" style="fill:#1f77b4;"/>
   </g>
   <g id="patch_17">
    <path clip-path="url(#p44119a8dd4)" d="M 538.496875 439.00625 
L 556.097204 439.00625 
L 556.097204 314.858266 
L 538.496875 314.858266 
z
" style="fill:#1f77b4;"/>
   </g>
   <g id="patch_18">
    <path clip-path="url(#p44119a8dd4)" d="M 573.697533 439.00625 
L 591.297862 439.00625 
L 591.297862 394.953739 
L 573.697533 394.953739 
z
" style="fill:#1f77b4;"/>
   </g>
   <g id="patch_19">
    <path clip-path="url(#p44119a8dd4)" d="M 608.898191 439.00625 
L 626.49852 439.00625 
L 626.49852 414.977608 
L 608.898191 414.977608 
z
" style="fill:#1f77b4;"/>
   </g>
   <g id="patch_20">
    <path clip-path="url(#p44119a8dd4)" d="M 644.098849 439.00625 
L 661.699178 439.00625 
L 661.699178 410.972834 
L 644.098849 410.972834 
z
" style="fill:#1f77b4;"/>
   </g>
   <g id="patch_21">
    <path clip-path="url(#p44119a8dd4)" d="M 679.299507 439.00625 
L 696.899836 439.00625 
L 696.899836 262.796208 
L 679.299507 262.796208 
z
" style="fill:#1f77b4;"/>
   </g>
   <g id="patch_22">
    <path clip-path="url(#p44119a8dd4)" d="M 45.687664 439.00625 
L 63.287993 439.00625 
L 63.287993 439.00625 
L 45.687664 439.00625 
z
" style="fill:#ff7f0e;"/>
   </g>
   <g id="patch_23">
    <path clip-path="url(#p44119a8dd4)" d="M 80.888322 402.963287 
L 98.488651 402.963287 
L 98.488651 274.810529 
L 80.888322 274.810529 
z
" style="fill:#ff7f0e;"/>
   </g>
   <g id="patch_24">
    <path clip-path="url(#p44119a8dd4)" d="M 116.08898 435.001476 
L 133.689309 435.001476 
L 133.689309 282.820076 
L 116.08898 282.820076 
z
" style="fill:#ff7f0e;"/>
   </g>
   <g id="patch_25">
    <path clip-path="url(#p44119a8dd4)" d="M 151.289638 310.853492 
L 168.889967 310.853492 
L 168.889967 194.715055 
L 151.289638 194.715055 
z
" style="fill:#ff7f0e;"/>
   </g>
   <g id="patch_26">
    <path clip-path="url(#p44119a8dd4)" d="M 186.490296 439.00625 
L 204.090625 439.00625 
L 204.090625 366.920324 
L 186.490296 366.920324 
z
" style="fill:#ff7f0e;"/>
   </g>
   <g id="patch_27">
    <path clip-path="url(#p44119a8dd4)" d="M 221.690954 418.982382 
L 239.291283 418.982382 
L 239.291283 202.724602 
L 221.690954 202.724602 
z
" style="fill:#ff7f0e;"/>
   </g>
   <g id="patch_28">
    <path clip-path="url(#p44119a8dd4)" d="M 256.891612 366.920324 
L 274.491941 366.920324 
L 274.491941 178.69596 
L 256.891612 178.69596 
z
" style="fill:#ff7f0e;"/>
   </g>
   <g id="patch_29">
    <path clip-path="url(#p44119a8dd4)" d="M 292.09227 439.00625 
L 309.692599 439.00625 
L 309.692599 439.00625 
L 292.09227 439.00625 
z
" style="fill:#ff7f0e;"/>
   </g>
   <g id="patch_30">
    <path clip-path="url(#p44119a8dd4)" d="M 327.292928 398.958513 
L 344.893257 398.958513 
L 344.893257 314.858266 
L 327.292928 314.858266 
z
" style="fill:#ff7f0e;"/>
   </g>
   <g id="patch_31">
    <path clip-path="url(#p44119a8dd4)" d="M 362.493586 439.00625 
L 380.093914 439.00625 
L 380.093914 439.00625 
L 362.493586 439.00625 
z
" style="fill:#ff7f0e;"/>
   </g>
   <g id="patch_32">
    <path clip-path="url(#p44119a8dd4)" d="M 397.694243 306.848718 
L 415.294572 306.848718 
L 415.294572 178.69596 
L 397.694243 178.69596 
z
" style="fill:#ff7f0e;"/>
   </g>
   <g id="patch_33">
    <path clip-path="url(#p44119a8dd4)" d="M 432.894901 266.800981 
L 450.49523 266.800981 
L 450.49523 122.629128 
L 432.894901 122.629128 
z
" style="fill:#ff7f0e;"/>
   </g>
   <g id="patch_34">
    <path clip-path="url(#p44119a8dd4)" d="M 468.095559 262.796208 
L 485.695888 262.796208 
L 485.695888 94.595713 
L 468.095559 94.595713 
z
" style="fill:#ff7f0e;"/>
   </g>
   <g id="patch_35">
    <path clip-path="url(#p44119a8dd4)" d="M 503.296217 402.963287 
L 520.896546 402.963287 
L 520.896546 258.791434 
L 503.296217 258.791434 
z
" style="fill:#ff7f0e;"/>
   </g>
   <g id="patch_36">
    <path clip-path="url(#p44119a8dd4)" d="M 538.496875 314.858266 
L 556.097204 314.858266 
L 556.097204 130.638676 
L 538.496875 130.638676 
z
" style="fill:#ff7f0e;"/>
   </g>
   <g id="patch_37">
    <path clip-path="url(#p44119a8dd4)" d="M 573.697533 394.953739 
L 591.297862 394.953739 
L 591.297862 290.829623 
L 573.697533 290.829623 
z
" style="fill:#ff7f0e;"/>
   </g>
   <g id="patch_38">
    <path clip-path="url(#p44119a8dd4)" d="M 608.898191 414.977608 
L 626.49852 414.977608 
L 626.49852 330.87736 
L 608.898191 330.87736 
z
" style="fill:#ff7f0e;"/>
   </g>
   <g id="patch_39">
    <path clip-path="url(#p44119a8dd4)" d="M 644.098849 410.972834 
L 661.699178 410.972834 
L 661.699178 262.796208 
L 644.098849 262.796208 
z
" style="fill:#ff7f0e;"/>
   </g>
   <g id="patch_40">
    <path clip-path="url(#p44119a8dd4)" d="M 679.299507 262.796208 
L 696.899836 262.796208 
L 696.899836 98.600486 
L 679.299507 98.600486 
z
" style="fill:#ff7f0e;"/>
   </g>
   <g id="patch_41">
    <path clip-path="url(#p44119a8dd4)" d="M 45.687664 439.00625 
L 63.287993 439.00625 
L 63.287993 439.00625 
L 45.687664 439.00625 
z
" style="fill:#2ca02c;"/>
   </g>
   <g id="patch_42">
    <path clip-path="url(#p44119a8dd4)" d="M 80.888322 274.810529 
L 98.488651 274.810529 
L 98.488651 66.562297 
L 80.888322 66.562297 
z
" style="fill:#2ca02c;"/>
   </g>
   <g id="patch_43">
    <path clip-path="url(#p44119a8dd4)" d="M 116.08898 282.820076 
L 133.689309 282.820076 
L 133.689309 90.590939 
L 116.08898 90.590939 
z
" style="fill:#2ca02c;"/>
   </g>
   <g id="patch_44">
    <path clip-path="url(#p44119a8dd4)" d="M 151.289638 194.715055 
L 168.889967 194.715055 
L 168.889967 54.547976 
L 151.289638 54.547976 
z
" style="fill:#2ca02c;"/>
   </g>
   <g id="patch_45">
    <path clip-path="url(#p44119a8dd4)" d="M 186.490296 366.920324 
L 204.090625 366.920324 
L 204.090625 146.657771 
L 186.490296 146.657771 
z
" style="fill:#2ca02c;"/>
   </g>
   <g id="patch_46">
    <path clip-path="url(#p44119a8dd4)" d="M 221.690954 202.724602 
L 239.291283 202.724602 
L 239.291283 74.571844 
L 221.690954 74.571844 
z
" style="fill:#2ca02c;"/>
   </g>
   <g id="patch_47">
    <path clip-path="url(#p44119a8dd4)" d="M 256.891612 178.69596 
L 274.491941 178.69596 
L 274.491941 70.56707 
L 256.891612 70.56707 
z
" style="fill:#2ca02c;"/>
   </g>
   <g id="patch_48">
    <path clip-path="url(#p44119a8dd4)" d="M 292.09227 439.00625 
L 309.692599 439.00625 
L 309.692599 439.00625 
L 292.09227 439.00625 
z
" style="fill:#2ca02c;"/>
   </g>
   <g id="patch_49">
    <path clip-path="url(#p44119a8dd4)" d="M 327.292928 314.858266 
L 344.893257 314.858266 
L 344.893257 114.619581 
L 327.292928 114.619581 
z
" style="fill:#2ca02c;"/>
   </g>
   <g id="patch_50">
    <path clip-path="url(#p44119a8dd4)" d="M 362.493586 439.00625 
L 380.093914 439.00625 
L 380.093914 439.00625 
L 362.493586 439.00625 
z
" style="fill:#2ca02c;"/>
   </g>
   <g id="patch_51">
    <path clip-path="url(#p44119a8dd4)" d="M 397.694243 178.69596 
L 415.294572 178.69596 
L 415.294572 46.538428 
L 397.694243 46.538428 
z
" style="fill:#2ca02c;"/>
   </g>
   <g id="patch_52">
    <path clip-path="url(#p44119a8dd4)" d="M 432.894901 122.629128 
L 450.49523 122.629128 
L 450.49523 70.56707 
L 432.894901 70.56707 
z
" style="fill:#2ca02c;"/>
   </g>
   <g id="patch_53">
    <path clip-path="url(#p44119a8dd4)" d="M 468.095559 94.595713 
L 485.695888 94.595713 
L 485.695888 46.538428 
L 468.095559 46.538428 
z
" style="fill:#2ca02c;"/>
   </g>
   <g id="patch_54">
    <path clip-path="url(#p44119a8dd4)" d="M 503.296217 258.791434 
L 520.896546 258.791434 
L 520.896546 86.586165 
L 503.296217 86.586165 
z
" style="fill:#2ca02c;"/>
   </g>
   <g id="patch_55">
    <path clip-path="url(#p44119a8dd4)" d="M 538.496875 130.638676 
L 556.097204 130.638676 
L 556.097204 46.538428 
L 538.496875 46.538428 
z
" style="fill:#2ca02c;"/>
   </g>
   <g id="patch_56">
    <path clip-path="url(#p44119a8dd4)" d="M 573.697533 290.829623 
L 591.297862 290.829623 
L 591.297862 110.614807 
L 573.697533 110.614807 
z
" style="fill:#2ca02c;"/>
   </g>
   <g id="patch_57">
    <path clip-path="url(#p44119a8dd4)" d="M 608.898191 330.87736 
L 626.49852 330.87736 
L 626.49852 178.69596 
L 608.898191 178.69596 
z
" style="fill:#2ca02c;"/>
   </g>
   <g id="patch_58">
    <path clip-path="url(#p44119a8dd4)" d="M 644.098849 262.796208 
L 661.699178 262.796208 
L 661.699178 82.581391 
L 644.098849 82.581391 
z
" style="fill:#2ca02c;"/>
   </g>
   <g id="patch_59">
    <path clip-path="url(#p44119a8dd4)" d="M 679.299507 98.600486 
L 696.899836 98.600486 
L 696.899836 50.543202 
L 679.299507 50.543202 
z
" style="fill:#2ca02c;"/>
   </g>
   <g id="patch_60">
    <path clip-path="url(#p44119a8dd4)" d="M 45.687664 439.00625 
L 63.287993 439.00625 
L 63.287993 439.00625 
L 45.687664 439.00625 
z
" style="fill:#d62728;"/>
   </g>
   <g id="patch_61">
    <path clip-path="url(#p44119a8dd4)" d="M 80.888322 66.562297 
L 98.488651 66.562297 
L 98.488651 38.528881 
L 80.888322 38.528881 
z
" style="fill:#d62728;"/>
   </g>
   <g id="patch_62">
    <path clip-path="url(#p44119a8dd4)" d="M 116.08898 90.590939 
L 133.689309 90.590939 
L 133.689309 38.528881 
L 116.08898 38.528881 
z
" style="fill:#d62728;"/>
   </g>
   <g id="patch_63">
    <path clip-path="url(#p44119a8dd4)" d="M 151.289638 54.547976 
L 168.889967 54.547976 
L 168.889967 42.533655 
L 151.289638 42.533655 
z
" style="fill:#d62728;"/>
   </g>
   <g id="patch_64">
    <path clip-path="url(#p44119a8dd4)" d="M 186.490296 146.657771 
L 204.090625 146.657771 
L 204.090625 38.528881 
L 186.490296 38.528881 
z
" style="fill:#d62728;"/>
   </g>
   <g id="patch_65">
    <path clip-path="url(#p44119a8dd4)" d="M 221.690954 74.571844 
L 239.291283 74.571844 
L 239.291283 38.528881 
L 221.690954 38.528881 
z
" style="fill:#d62728;"/>
   </g>
   <g id="patch_66">
    <path clip-path="url(#p44119a8dd4)" d="M 256.891612 70.56707 
L 274.491941 70.56707 
L 274.491941 38.528881 
L 256.891612 38.528881 
z
" style="fill:#d62728;"/>
   </g>
   <g id="patch_67">
    <path clip-path="url(#p44119a8dd4)" d="M 292.09227 439.00625 
L 309.692599 439.00625 
L 309.692599 439.00625 
L 292.09227 439.00625 
z
" style="fill:#d62728;"/>
   </g>
   <g id="patch_68">
    <path clip-path="url(#p44119a8dd4)" d="M 327.292928 114.619581 
L 344.893257 114.619581 
L 344.893257 38.528881 
L 327.292928 38.528881 
z
" style="fill:#d62728;"/>
   </g>
   <g id="patch_69">
    <path clip-path="url(#p44119a8dd4)" d="M 362.493586 439.00625 
L 380.093914 439.00625 
L 380.093914 439.00625 
L 362.493586 439.00625 
z
" style="fill:#d62728;"/>
   </g>
   <g id="patch_70">
    <path clip-path="url(#p44119a8dd4)" d="M 397.694243 46.538428 
L 415.294572 46.538428 
L 415.294572 38.528881 
L 397.694243 38.528881 
z
" style="fill:#d62728;"/>
   </g>
   <g id="patch_71">
    <path clip-path="url(#p44119a8dd4)" d="M 432.894901 70.56707 
L 450.49523 70.56707 
L 450.49523 38.528881 
L 432.894901 38.528881 
z
" style="fill:#d62728;"/>
   </g>
   <g id="patch_72">
    <path clip-path="url(#p44119a8dd4)" d="M 468.095559 46.538428 
L 485.695888 46.538428 
L 485.695888 34.524107 
L 468.095559 34.524107 
z
" style="fill:#d62728;"/>
   </g>
   <g id="patch_73">
    <path clip-path="url(#p44119a8dd4)" d="M 503.296217 86.586165 
L 520.896546 86.586165 
L 520.896546 42.533655 
L 503.296217 42.533655 
z
" style="fill:#d62728;"/>
   </g>
   <g id="patch_74">
    <path clip-path="url(#p44119a8dd4)" d="M 538.496875 46.538428 
L 556.097204 46.538428 
L 556.097204 38.528881 
L 538.496875 38.528881 
z
" style="fill:#d62728;"/>
   </g>
   <g id="patch_75">
    <path clip-path="url(#p44119a8dd4)" d="M 573.697533 110.614807 
L 591.297862 110.614807 
L 591.297862 38.528881 
L 573.697533 38.528881 
z
" style="fill:#d62728;"/>
   </g>
   <g id="patch_76">
    <path clip-path="url(#p44119a8dd4)" d="M 608.898191 178.69596 
L 626.49852 178.69596 
L 626.49852 42.533655 
L 608.898191 42.533655 
z
" style="fill:#d62728;"/>
   </g>
   <g id="patch_77">
    <path clip-path="url(#p44119a8dd4)" d="M 644.098849 82.581391 
L 661.699178 82.581391 
L 661.699178 34.524107 
L 644.098849 34.524107 
z
" style="fill:#d62728;"/>
   </g>
   <g id="patch_78">
    <path clip-path="url(#p44119a8dd4)" d="M 679.299507 50.543202 
L 696.899836 50.543202 
L 696.899836 42.533655 
L 679.299507 42.533655 
z
" style="fill:#d62728;"/>
   </g>
   <g id="matplotlib.axis_1">
    <g id="xtick_1">
     <g id="line2d_1">
      <defs>
       <path d="M 0 0 
L 0 3.5 
" id="me0800e4165" style="stroke:#000000;stroke-width:0.8;"/>
      </defs>
      <g>
       <use style="stroke:#000000;stroke-width:0.8;" x="54.487829" xlink:href="#me0800e4165" y="439.00625"/>
      </g>
     </g>
     <g id="text_1">
      <!-- Quincy - Amelio Della Chiesa Early Childhood Center -->
      <defs>
       <path d="M 39.40625 66.21875 
Q 28.65625 66.21875 22.328125 58.203125 
Q 16.015625 50.203125 16.015625 36.375 
Q 16.015625 22.609375 22.328125 14.59375 
Q 28.65625 6.59375 39.40625 6.59375 
Q 50.140625 6.59375 56.421875 14.59375 
Q 62.703125 22.609375 62.703125 36.375 
Q 62.703125 50.203125 56.421875 58.203125 
Q 50.140625 66.21875 39.40625 66.21875 
z
M 53.21875 1.3125 
L 66.21875 -12.890625 
L 54.296875 -12.890625 
L 43.5 -1.21875 
Q 41.890625 -1.3125 41.03125 -1.359375 
Q 40.1875 -1.421875 39.40625 -1.421875 
Q 24.03125 -1.421875 14.8125 8.859375 
Q 5.609375 19.140625 5.609375 36.375 
Q 5.609375 53.65625 14.8125 63.9375 
Q 24.03125 74.21875 39.40625 74.21875 
Q 54.734375 74.21875 63.90625 63.9375 
Q 73.09375 53.65625 73.09375 36.375 
Q 73.09375 23.6875 67.984375 14.640625 
Q 62.890625 5.609375 53.21875 1.3125 
z
" id="DejaVuSans-51"/>
       <path d="M 8.5 21.578125 
L 8.5 54.6875 
L 17.484375 54.6875 
L 17.484375 21.921875 
Q 17.484375 14.15625 20.5 10.265625 
Q 23.53125 6.390625 29.59375 6.390625 
Q 36.859375 6.390625 41.078125 11.03125 
Q 45.3125 15.671875 45.3125 23.6875 
L 45.3125 54.6875 
L 54.296875 54.6875 
L 54.296875 0 
L 45.3125 0 
L 45.3125 8.40625 
Q 42.046875 3.421875 37.71875 1 
Q 33.40625 -1.421875 27.6875 -1.421875 
Q 18.265625 -1.421875 13.375 4.4375 
Q 8.5 10.296875 8.5 21.578125 
z
M 31.109375 56 
z
" id="DejaVuSans-75"/>
       <path d="M 9.421875 54.6875 
L 18.40625 54.6875 
L 18.40625 0 
L 9.421875 0 
z
M 9.421875 75.984375 
L 18.40625 75.984375 
L 18.40625 64.59375 
L 9.421875 64.59375 
z
" id="DejaVuSans-69"/>
       <path d="M 54.890625 33.015625 
L 54.890625 0 
L 45.90625 0 
L 45.90625 32.71875 
Q 45.90625 40.484375 42.875 44.328125 
Q 39.84375 48.1875 33.796875 48.1875 
Q 26.515625 48.1875 22.3125 43.546875 
Q 18.109375 38.921875 18.109375 30.90625 
L 18.109375 0 
L 9.078125 0 
L 9.078125 54.6875 
L 18.109375 54.6875 
L 18.109375 46.1875 
Q 21.34375 51.125 25.703125 53.5625 
Q 30.078125 56 35.796875 56 
Q 45.21875 56 50.046875 50.171875 
Q 54.890625 44.34375 54.890625 33.015625 
z
" id="DejaVuSans-6e"/>
       <path d="M 48.78125 52.59375 
L 48.78125 44.1875 
Q 44.96875 46.296875 41.140625 47.34375 
Q 37.3125 48.390625 33.40625 48.390625 
Q 24.65625 48.390625 19.8125 42.84375 
Q 14.984375 37.3125 14.984375 27.296875 
Q 14.984375 17.28125 19.8125 11.734375 
Q 24.65625 6.203125 33.40625 6.203125 
Q 37.3125 6.203125 41.140625 7.25 
Q 44.96875 8.296875 48.78125 10.40625 
L 48.78125 2.09375 
Q 45.015625 0.34375 40.984375 -0.53125 
Q 36.96875 -1.421875 32.421875 -1.421875 
Q 20.0625 -1.421875 12.78125 6.34375 
Q 5.515625 14.109375 5.515625 27.296875 
Q 5.515625 40.671875 12.859375 48.328125 
Q 20.21875 56 33.015625 56 
Q 37.15625 56 41.109375 55.140625 
Q 45.0625 54.296875 48.78125 52.59375 
z
" id="DejaVuSans-63"/>
       <path d="M 32.171875 -5.078125 
Q 28.375 -14.84375 24.75 -17.8125 
Q 21.140625 -20.796875 15.09375 -20.796875 
L 7.90625 -20.796875 
L 7.90625 -13.28125 
L 13.1875 -13.28125 
Q 16.890625 -13.28125 18.9375 -11.515625 
Q 21 -9.765625 23.484375 -3.21875 
L 25.09375 0.875 
L 2.984375 54.6875 
L 12.5 54.6875 
L 29.59375 11.921875 
L 46.6875 54.6875 
L 56.203125 54.6875 
z
" id="DejaVuSans-79"/>
       <path id="DejaVuSans-20"/>
       <path d="M 4.890625 31.390625 
L 31.203125 31.390625 
L 31.203125 23.390625 
L 4.890625 23.390625 
z
" id="DejaVuSans-2d"/>
       <path d="M 34.1875 63.1875 
L 20.796875 26.90625 
L 47.609375 26.90625 
z
M 28.609375 72.90625 
L 39.796875 72.90625 
L 67.578125 0 
L 57.328125 0 
L 50.6875 18.703125 
L 17.828125 18.703125 
L 11.1875 0 
L 0.78125 0 
z
" id="DejaVuSans-41"/>
       <path d="M 52 44.1875 
Q 55.375 50.25 60.0625 53.125 
Q 64.75 56 71.09375 56 
Q 79.640625 56 84.28125 50.015625 
Q 88.921875 44.046875 88.921875 33.015625 
L 88.921875 0 
L 79.890625 0 
L 79.890625 32.71875 
Q 79.890625 40.578125 77.09375 44.375 
Q 74.3125 48.1875 68.609375 48.1875 
Q 61.625 48.1875 57.5625 43.546875 
Q 53.515625 38.921875 53.515625 30.90625 
L 53.515625 0 
L 44.484375 0 
L 44.484375 32.71875 
Q 44.484375 40.625 41.703125 44.40625 
Q 38.921875 48.1875 33.109375 48.1875 
Q 26.21875 48.1875 22.15625 43.53125 
Q 18.109375 38.875 18.109375 30.90625 
L 18.109375 0 
L 9.078125 0 
L 9.078125 54.6875 
L 18.109375 54.6875 
L 18.109375 46.1875 
Q 21.1875 51.21875 25.484375 53.609375 
Q 29.78125 56 35.6875 56 
Q 41.65625 56 45.828125 52.96875 
Q 50 49.953125 52 44.1875 
z
" id="DejaVuSans-6d"/>
       <path d="M 56.203125 29.59375 
L 56.203125 25.203125 
L 14.890625 25.203125 
Q 15.484375 15.921875 20.484375 11.0625 
Q 25.484375 6.203125 34.421875 6.203125 
Q 39.59375 6.203125 44.453125 7.46875 
Q 49.3125 8.734375 54.109375 11.28125 
L 54.109375 2.78125 
Q 49.265625 0.734375 44.1875 -0.34375 
Q 39.109375 -1.421875 33.890625 -1.421875 
Q 20.796875 -1.421875 13.15625 6.1875 
Q 5.515625 13.8125 5.515625 26.8125 
Q 5.515625 40.234375 12.765625 48.109375 
Q 20.015625 56 32.328125 56 
Q 43.359375 56 49.78125 48.890625 
Q 56.203125 41.796875 56.203125 29.59375 
z
M 47.21875 32.234375 
Q 47.125 39.59375 43.09375 43.984375 
Q 39.0625 48.390625 32.421875 48.390625 
Q 24.90625 48.390625 20.390625 44.140625 
Q 15.875 39.890625 15.1875 32.171875 
z
" id="DejaVuSans-65"/>
       <path d="M 9.421875 75.984375 
L 18.40625 75.984375 
L 18.40625 0 
L 9.421875 0 
z
" id="DejaVuSans-6c"/>
       <path d="M 30.609375 48.390625 
Q 23.390625 48.390625 19.1875 42.75 
Q 14.984375 37.109375 14.984375 27.296875 
Q 14.984375 17.484375 19.15625 11.84375 
Q 23.34375 6.203125 30.609375 6.203125 
Q 37.796875 6.203125 41.984375 11.859375 
Q 46.1875 17.53125 46.1875 27.296875 
Q 46.1875 37.015625 41.984375 42.703125 
Q 37.796875 48.390625 30.609375 48.390625 
z
M 30.609375 56 
Q 42.328125 56 49.015625 48.375 
Q 55.71875 40.765625 55.71875 27.296875 
Q 55.71875 13.875 49.015625 6.21875 
Q 42.328125 -1.421875 30.609375 -1.421875 
Q 18.84375 -1.421875 12.171875 6.21875 
Q 5.515625 13.875 5.515625 27.296875 
Q 5.515625 40.765625 12.171875 48.375 
Q 18.84375 56 30.609375 56 
z
" id="DejaVuSans-6f"/>
       <path d="M 19.671875 64.796875 
L 19.671875 8.109375 
L 31.59375 8.109375 
Q 46.6875 8.109375 53.6875 14.9375 
Q 60.6875 21.78125 60.6875 36.53125 
Q 60.6875 51.171875 53.6875 57.984375 
Q 46.6875 64.796875 31.59375 64.796875 
z
M 9.8125 72.90625 
L 30.078125 72.90625 
Q 51.265625 72.90625 61.171875 64.09375 
Q 71.09375 55.28125 71.09375 36.53125 
Q 71.09375 17.671875 61.125 8.828125 
Q 51.171875 0 30.078125 0 
L 9.8125 0 
z
" id="DejaVuSans-44"/>
       <path d="M 34.28125 27.484375 
Q 23.390625 27.484375 19.1875 25 
Q 14.984375 22.515625 14.984375 16.5 
Q 14.984375 11.71875 18.140625 8.90625 
Q 21.296875 6.109375 26.703125 6.109375 
Q 34.1875 6.109375 38.703125 11.40625 
Q 43.21875 16.703125 43.21875 25.484375 
L 43.21875 27.484375 
z
M 52.203125 31.203125 
L 52.203125 0 
L 43.21875 0 
L 43.21875 8.296875 
Q 40.140625 3.328125 35.546875 0.953125 
Q 30.953125 -1.421875 24.3125 -1.421875 
Q 15.921875 -1.421875 10.953125 3.296875 
Q 6 8.015625 6 15.921875 
Q 6 25.140625 12.171875 29.828125 
Q 18.359375 34.515625 30.609375 34.515625 
L 43.21875 34.515625 
L 43.21875 35.40625 
Q 43.21875 41.609375 39.140625 45 
Q 35.0625 48.390625 27.6875 48.390625 
Q 23 48.390625 18.546875 47.265625 
Q 14.109375 46.140625 10.015625 43.890625 
L 10.015625 52.203125 
Q 14.9375 54.109375 19.578125 55.046875 
Q 24.21875 56 28.609375 56 
Q 40.484375 56 46.34375 49.84375 
Q 52.203125 43.703125 52.203125 31.203125 
z
" id="DejaVuSans-61"/>
       <path d="M 64.40625 67.28125 
L 64.40625 56.890625 
Q 59.421875 61.53125 53.78125 63.8125 
Q 48.140625 66.109375 41.796875 66.109375 
Q 29.296875 66.109375 22.65625 58.46875 
Q 16.015625 50.828125 16.015625 36.375 
Q 16.015625 21.96875 22.65625 14.328125 
Q 29.296875 6.6875 41.796875 6.6875 
Q 48.140625 6.6875 53.78125 8.984375 
Q 59.421875 11.28125 64.40625 15.921875 
L 64.40625 5.609375 
Q 59.234375 2.09375 53.4375 0.328125 
Q 47.65625 -1.421875 41.21875 -1.421875 
Q 24.65625 -1.421875 15.125 8.703125 
Q 5.609375 18.84375 5.609375 36.375 
Q 5.609375 53.953125 15.125 64.078125 
Q 24.65625 74.21875 41.21875 74.21875 
Q 47.75 74.21875 53.53125 72.484375 
Q 59.328125 70.75 64.40625 67.28125 
z
" id="DejaVuSans-43"/>
       <path d="M 54.890625 33.015625 
L 54.890625 0 
L 45.90625 0 
L 45.90625 32.71875 
Q 45.90625 40.484375 42.875 44.328125 
Q 39.84375 48.1875 33.796875 48.1875 
Q 26.515625 48.1875 22.3125 43.546875 
Q 18.109375 38.921875 18.109375 30.90625 
L 18.109375 0 
L 9.078125 0 
L 9.078125 75.984375 
L 18.109375 75.984375 
L 18.109375 46.1875 
Q 21.34375 51.125 25.703125 53.5625 
Q 30.078125 56 35.796875 56 
Q 45.21875 56 50.046875 50.171875 
Q 54.890625 44.34375 54.890625 33.015625 
z
" id="DejaVuSans-68"/>
       <path d="M 44.28125 53.078125 
L 44.28125 44.578125 
Q 40.484375 46.53125 36.375 47.5 
Q 32.28125 48.484375 27.875 48.484375 
Q 21.1875 48.484375 17.84375 46.4375 
Q 14.5 44.390625 14.5 40.28125 
Q 14.5 37.15625 16.890625 35.375 
Q 19.28125 33.59375 26.515625 31.984375 
L 29.59375 31.296875 
Q 39.15625 29.25 43.1875 25.515625 
Q 47.21875 21.78125 47.21875 15.09375 
Q 47.21875 7.46875 41.1875 3.015625 
Q 35.15625 -1.421875 24.609375 -1.421875 
Q 20.21875 -1.421875 15.453125 -0.5625 
Q 10.6875 0.296875 5.421875 2 
L 5.421875 11.28125 
Q 10.40625 8.6875 15.234375 7.390625 
Q 20.0625 6.109375 24.8125 6.109375 
Q 31.15625 6.109375 34.5625 8.28125 
Q 37.984375 10.453125 37.984375 14.40625 
Q 37.984375 18.0625 35.515625 20.015625 
Q 33.0625 21.96875 24.703125 23.78125 
L 21.578125 24.515625 
Q 13.234375 26.265625 9.515625 29.90625 
Q 5.8125 33.546875 5.8125 39.890625 
Q 5.8125 47.609375 11.28125 51.796875 
Q 16.75 56 26.8125 56 
Q 31.78125 56 36.171875 55.265625 
Q 40.578125 54.546875 44.28125 53.078125 
z
" id="DejaVuSans-73"/>
       <path d="M 9.8125 72.90625 
L 55.90625 72.90625 
L 55.90625 64.59375 
L 19.671875 64.59375 
L 19.671875 43.015625 
L 54.390625 43.015625 
L 54.390625 34.71875 
L 19.671875 34.71875 
L 19.671875 8.296875 
L 56.78125 8.296875 
L 56.78125 0 
L 9.8125 0 
z
" id="DejaVuSans-45"/>
       <path d="M 41.109375 46.296875 
Q 39.59375 47.171875 37.8125 47.578125 
Q 36.03125 48 33.890625 48 
Q 26.265625 48 22.1875 43.046875 
Q 18.109375 38.09375 18.109375 28.8125 
L 18.109375 0 
L 9.078125 0 
L 9.078125 54.6875 
L 18.109375 54.6875 
L 18.109375 46.1875 
Q 20.953125 51.171875 25.484375 53.578125 
Q 30.03125 56 36.53125 56 
Q 37.453125 56 38.578125 55.875 
Q 39.703125 55.765625 41.0625 55.515625 
z
" id="DejaVuSans-72"/>
       <path d="M 45.40625 46.390625 
L 45.40625 75.984375 
L 54.390625 75.984375 
L 54.390625 0 
L 45.40625 0 
L 45.40625 8.203125 
Q 42.578125 3.328125 38.25 0.953125 
Q 33.9375 -1.421875 27.875 -1.421875 
Q 17.96875 -1.421875 11.734375 6.484375 
Q 5.515625 14.40625 5.515625 27.296875 
Q 5.515625 40.1875 11.734375 48.09375 
Q 17.96875 56 27.875 56 
Q 33.9375 56 38.25 53.625 
Q 42.578125 51.265625 45.40625 46.390625 
z
M 14.796875 27.296875 
Q 14.796875 17.390625 18.875 11.75 
Q 22.953125 6.109375 30.078125 6.109375 
Q 37.203125 6.109375 41.296875 11.75 
Q 45.40625 17.390625 45.40625 27.296875 
Q 45.40625 37.203125 41.296875 42.84375 
Q 37.203125 48.484375 30.078125 48.484375 
Q 22.953125 48.484375 18.875 42.84375 
Q 14.796875 37.203125 14.796875 27.296875 
z
" id="DejaVuSans-64"/>
       <path d="M 18.3125 70.21875 
L 18.3125 54.6875 
L 36.8125 54.6875 
L 36.8125 47.703125 
L 18.3125 47.703125 
L 18.3125 18.015625 
Q 18.3125 11.328125 20.140625 9.421875 
Q 21.96875 7.515625 27.59375 7.515625 
L 36.8125 7.515625 
L 36.8125 0 
L 27.59375 0 
Q 17.1875 0 13.234375 3.875 
Q 9.28125 7.765625 9.28125 18.015625 
L 9.28125 47.703125 
L 2.6875 47.703125 
L 2.6875 54.6875 
L 9.28125 54.6875 
L 9.28125 70.21875 
z
" id="DejaVuSans-74"/>
      </defs>
      <g transform="translate(57.247204 709.2)rotate(-90)scale(0.1 -0.1)">
       <use xlink:href="#DejaVuSans-51"/>
       <use x="78.710938" xlink:href="#DejaVuSans-75"/>
       <use x="142.089844" xlink:href="#DejaVuSans-69"/>
       <use x="169.873047" xlink:href="#DejaVuSans-6e"/>
       <use x="233.251953" xlink:href="#DejaVuSans-63"/>
       <use x="288.232422" xlink:href="#DejaVuSans-79"/>
       <use x="347.412109" xlink:href="#DejaVuSans-20"/>
       <use x="379.199219" xlink:href="#DejaVuSans-2d"/>
       <use x="415.283203" xlink:href="#DejaVuSans-20"/>
       <use x="447.070312" xlink:href="#DejaVuSans-41"/>
       <use x="515.478516" xlink:href="#DejaVuSans-6d"/>
       <use x="612.890625" xlink:href="#DejaVuSans-65"/>
       <use x="674.414062" xlink:href="#DejaVuSans-6c"/>
       <use x="702.197266" xlink:href="#DejaVuSans-69"/>
       <use x="729.980469" xlink:href="#DejaVuSans-6f"/>
       <use x="791.162109" xlink:href="#DejaVuSans-20"/>
       <use x="822.949219" xlink:href="#DejaVuSans-44"/>
       <use x="899.951172" xlink:href="#DejaVuSans-65"/>
       <use x="961.474609" xlink:href="#DejaVuSans-6c"/>
       <use x="989.257812" xlink:href="#DejaVuSans-6c"/>
       <use x="1017.041016" xlink:href="#DejaVuSans-61"/>
       <use x="1078.320312" xlink:href="#DejaVuSans-20"/>
       <use x="1110.107422" xlink:href="#DejaVuSans-43"/>
       <use x="1179.931641" xlink:href="#DejaVuSans-68"/>
       <use x="1243.310547" xlink:href="#DejaVuSans-69"/>
       <use x="1271.09375" xlink:href="#DejaVuSans-65"/>
       <use x="1332.617188" xlink:href="#DejaVuSans-73"/>
       <use x="1384.716797" xlink:href="#DejaVuSans-61"/>
       <use x="1445.996094" xlink:href="#DejaVuSans-20"/>
       <use x="1477.783203" xlink:href="#DejaVuSans-45"/>
       <use x="1540.966797" xlink:href="#DejaVuSans-61"/>
       <use x="1602.246094" xlink:href="#DejaVuSans-72"/>
       <use x="1643.359375" xlink:href="#DejaVuSans-6c"/>
       <use x="1671.142578" xlink:href="#DejaVuSans-79"/>
       <use x="1730.322266" xlink:href="#DejaVuSans-20"/>
       <use x="1762.109375" xlink:href="#DejaVuSans-43"/>
       <use x="1831.933594" xlink:href="#DejaVuSans-68"/>
       <use x="1895.3125" xlink:href="#DejaVuSans-69"/>
       <use x="1923.095703" xlink:href="#DejaVuSans-6c"/>
       <use x="1950.878906" xlink:href="#DejaVuSans-64"/>
       <use x="2014.355469" xlink:href="#DejaVuSans-68"/>
       <use x="2077.734375" xlink:href="#DejaVuSans-6f"/>
       <use x="2138.916016" xlink:href="#DejaVuSans-6f"/>
       <use x="2200.097656" xlink:href="#DejaVuSans-64"/>
       <use x="2263.574219" xlink:href="#DejaVuSans-20"/>
       <use x="2295.361328" xlink:href="#DejaVuSans-43"/>
       <use x="2365.185547" xlink:href="#DejaVuSans-65"/>
       <use x="2426.708984" xlink:href="#DejaVuSans-6e"/>
       <use x="2490.087891" xlink:href="#DejaVuSans-74"/>
       <use x="2529.296875" xlink:href="#DejaVuSans-65"/>
       <use x="2590.820312" xlink:href="#DejaVuSans-72"/>
      </g>
     </g>
    </g>
    <g id="xtick_2">
     <g id="line2d_2">
      <g>
       <use style="stroke:#000000;stroke-width:0.8;" x="89.688487" xlink:href="#me0800e4165" y="439.00625"/>
      </g>
     </g>
     <g id="text_2">
      <!-- Quincy - Atherton Hough -->
      <defs>
       <path d="M 9.8125 72.90625 
L 19.671875 72.90625 
L 19.671875 43.015625 
L 55.515625 43.015625 
L 55.515625 72.90625 
L 65.375 72.90625 
L 65.375 0 
L 55.515625 0 
L 55.515625 34.71875 
L 19.671875 34.71875 
L 19.671875 0 
L 9.8125 0 
z
" id="DejaVuSans-48"/>
       <path d="M 45.40625 27.984375 
Q 45.40625 37.75 41.375 43.109375 
Q 37.359375 48.484375 30.078125 48.484375 
Q 22.859375 48.484375 18.828125 43.109375 
Q 14.796875 37.75 14.796875 27.984375 
Q 14.796875 18.265625 18.828125 12.890625 
Q 22.859375 7.515625 30.078125 7.515625 
Q 37.359375 7.515625 41.375 12.890625 
Q 45.40625 18.265625 45.40625 27.984375 
z
M 54.390625 6.78125 
Q 54.390625 -7.171875 48.1875 -13.984375 
Q 42 -20.796875 29.203125 -20.796875 
Q 24.46875 -20.796875 20.265625 -20.09375 
Q 16.0625 -19.390625 12.109375 -17.921875 
L 12.109375 -9.1875 
Q 16.0625 -11.328125 19.921875 -12.34375 
Q 23.78125 -13.375 27.78125 -13.375 
Q 36.625 -13.375 41.015625 -8.765625 
Q 45.40625 -4.15625 45.40625 5.171875 
L 45.40625 9.625 
Q 42.625 4.78125 38.28125 2.390625 
Q 33.9375 0 27.875 0 
Q 17.828125 0 11.671875 7.65625 
Q 5.515625 15.328125 5.515625 27.984375 
Q 5.515625 40.671875 11.671875 48.328125 
Q 17.828125 56 27.875 56 
Q 33.9375 56 38.28125 53.609375 
Q 42.625 51.21875 45.40625 46.390625 
L 45.40625 54.6875 
L 54.390625 54.6875 
z
" id="DejaVuSans-67"/>
      </defs>
      <g transform="translate(92.447862 570.290625)rotate(-90)scale(0.1 -0.1)">
       <use xlink:href="#DejaVuSans-51"/>
       <use x="78.710938" xlink:href="#DejaVuSans-75"/>
       <use x="142.089844" xlink:href="#DejaVuSans-69"/>
       <use x="169.873047" xlink:href="#DejaVuSans-6e"/>
       <use x="233.251953" xlink:href="#DejaVuSans-63"/>
       <use x="288.232422" xlink:href="#DejaVuSans-79"/>
       <use x="347.412109" xlink:href="#DejaVuSans-20"/>
       <use x="379.199219" xlink:href="#DejaVuSans-2d"/>
       <use x="415.283203" xlink:href="#DejaVuSans-20"/>
       <use x="447.070312" xlink:href="#DejaVuSans-41"/>
       <use x="515.462891" xlink:href="#DejaVuSans-74"/>
       <use x="554.671875" xlink:href="#DejaVuSans-68"/>
       <use x="618.050781" xlink:href="#DejaVuSans-65"/>
       <use x="679.574219" xlink:href="#DejaVuSans-72"/>
       <use x="720.6875" xlink:href="#DejaVuSans-74"/>
       <use x="759.896484" xlink:href="#DejaVuSans-6f"/>
       <use x="821.078125" xlink:href="#DejaVuSans-6e"/>
       <use x="884.457031" xlink:href="#DejaVuSans-20"/>
       <use x="916.244141" xlink:href="#DejaVuSans-48"/>
       <use x="991.439453" xlink:href="#DejaVuSans-6f"/>
       <use x="1052.621094" xlink:href="#DejaVuSans-75"/>
       <use x="1116" xlink:href="#DejaVuSans-67"/>
       <use x="1179.476562" xlink:href="#DejaVuSans-68"/>
      </g>
     </g>
    </g>
    <g id="xtick_3">
     <g id="line2d_3">
      <g>
       <use style="stroke:#000000;stroke-width:0.8;" x="124.889145" xlink:href="#me0800e4165" y="439.00625"/>
      </g>
     </g>
     <g id="text_3">
      <!-- Quincy - Atlantic Middle -->
      <defs>
       <path d="M 9.8125 72.90625 
L 24.515625 72.90625 
L 43.109375 23.296875 
L 61.8125 72.90625 
L 76.515625 72.90625 
L 76.515625 0 
L 66.890625 0 
L 66.890625 64.015625 
L 48.09375 14.015625 
L 38.1875 14.015625 
L 19.390625 64.015625 
L 19.390625 0 
L 9.8125 0 
z
" id="DejaVuSans-4d"/>
      </defs>
      <g transform="translate(127.64852 565.125)rotate(-90)scale(0.1 -0.1)">
       <use xlink:href="#DejaVuSans-51"/>
       <use x="78.710938" xlink:href="#DejaVuSans-75"/>
       <use x="142.089844" xlink:href="#DejaVuSans-69"/>
       <use x="169.873047" xlink:href="#DejaVuSans-6e"/>
       <use x="233.251953" xlink:href="#DejaVuSans-63"/>
       <use x="288.232422" xlink:href="#DejaVuSans-79"/>
       <use x="347.412109" xlink:href="#DejaVuSans-20"/>
       <use x="379.199219" xlink:href="#DejaVuSans-2d"/>
       <use x="415.283203" xlink:href="#DejaVuSans-20"/>
       <use x="447.070312" xlink:href="#DejaVuSans-41"/>
       <use x="515.462891" xlink:href="#DejaVuSans-74"/>
       <use x="554.671875" xlink:href="#DejaVuSans-6c"/>
       <use x="582.455078" xlink:href="#DejaVuSans-61"/>
       <use x="643.734375" xlink:href="#DejaVuSans-6e"/>
       <use x="707.113281" xlink:href="#DejaVuSans-74"/>
       <use x="746.322266" xlink:href="#DejaVuSans-69"/>
       <use x="774.105469" xlink:href="#DejaVuSans-63"/>
       <use x="829.085938" xlink:href="#DejaVuSans-20"/>
       <use x="860.873047" xlink:href="#DejaVuSans-4d"/>
       <use x="947.152344" xlink:href="#DejaVuSans-69"/>
       <use x="974.935547" xlink:href="#DejaVuSans-64"/>
       <use x="1038.412109" xlink:href="#DejaVuSans-64"/>
       <use x="1101.888672" xlink:href="#DejaVuSans-6c"/>
       <use x="1129.671875" xlink:href="#DejaVuSans-65"/>
      </g>
     </g>
    </g>
    <g id="xtick_4">
     <g id="line2d_4">
      <g>
       <use style="stroke:#000000;stroke-width:0.8;" x="160.089803" xlink:href="#me0800e4165" y="439.00625"/>
      </g>
     </g>
     <g id="text_4">
      <!-- Quincy - Beechwood Knoll Elementary -->
      <defs>
       <path d="M 19.671875 34.8125 
L 19.671875 8.109375 
L 35.5 8.109375 
Q 43.453125 8.109375 47.28125 11.40625 
Q 51.125 14.703125 51.125 21.484375 
Q 51.125 28.328125 47.28125 31.5625 
Q 43.453125 34.8125 35.5 34.8125 
z
M 19.671875 64.796875 
L 19.671875 42.828125 
L 34.28125 42.828125 
Q 41.5 42.828125 45.03125 45.53125 
Q 48.578125 48.25 48.578125 53.8125 
Q 48.578125 59.328125 45.03125 62.0625 
Q 41.5 64.796875 34.28125 64.796875 
z
M 9.8125 72.90625 
L 35.015625 72.90625 
Q 46.296875 72.90625 52.390625 68.21875 
Q 58.5 63.53125 58.5 54.890625 
Q 58.5 48.1875 55.375 44.234375 
Q 52.25 40.28125 46.1875 39.3125 
Q 53.46875 37.75 57.5 32.78125 
Q 61.53125 27.828125 61.53125 20.40625 
Q 61.53125 10.640625 54.890625 5.3125 
Q 48.25 0 35.984375 0 
L 9.8125 0 
z
" id="DejaVuSans-42"/>
       <path d="M 4.203125 54.6875 
L 13.1875 54.6875 
L 24.421875 12.015625 
L 35.59375 54.6875 
L 46.1875 54.6875 
L 57.421875 12.015625 
L 68.609375 54.6875 
L 77.59375 54.6875 
L 63.28125 0 
L 52.6875 0 
L 40.921875 44.828125 
L 29.109375 0 
L 18.5 0 
z
" id="DejaVuSans-77"/>
       <path d="M 9.8125 72.90625 
L 19.671875 72.90625 
L 19.671875 42.09375 
L 52.390625 72.90625 
L 65.09375 72.90625 
L 28.90625 38.921875 
L 67.671875 0 
L 54.6875 0 
L 19.671875 35.109375 
L 19.671875 0 
L 9.8125 0 
z
" id="DejaVuSans-4b"/>
      </defs>
      <g transform="translate(162.849178 636.965625)rotate(-90)scale(0.1 -0.1)">
       <use xlink:href="#DejaVuSans-51"/>
       <use x="78.710938" xlink:href="#DejaVuSans-75"/>
       <use x="142.089844" xlink:href="#DejaVuSans-69"/>
       <use x="169.873047" xlink:href="#DejaVuSans-6e"/>
       <use x="233.251953" xlink:href="#DejaVuSans-63"/>
       <use x="288.232422" xlink:href="#DejaVuSans-79"/>
       <use x="347.412109" xlink:href="#DejaVuSans-20"/>
       <use x="379.199219" xlink:href="#DejaVuSans-2d"/>
       <use x="415.283203" xlink:href="#DejaVuSans-20"/>
       <use x="447.070312" xlink:href="#DejaVuSans-42"/>
       <use x="515.673828" xlink:href="#DejaVuSans-65"/>
       <use x="577.197266" xlink:href="#DejaVuSans-65"/>
       <use x="638.720703" xlink:href="#DejaVuSans-63"/>
       <use x="693.701172" xlink:href="#DejaVuSans-68"/>
       <use x="757.080078" xlink:href="#DejaVuSans-77"/>
       <use x="838.867188" xlink:href="#DejaVuSans-6f"/>
       <use x="900.048828" xlink:href="#DejaVuSans-6f"/>
       <use x="961.230469" xlink:href="#DejaVuSans-64"/>
       <use x="1024.707031" xlink:href="#DejaVuSans-20"/>
       <use x="1056.494141" xlink:href="#DejaVuSans-4b"/>
       <use x="1122.070312" xlink:href="#DejaVuSans-6e"/>
       <use x="1185.449219" xlink:href="#DejaVuSans-6f"/>
       <use x="1246.630859" xlink:href="#DejaVuSans-6c"/>
       <use x="1274.414062" xlink:href="#DejaVuSans-6c"/>
       <use x="1302.197266" xlink:href="#DejaVuSans-20"/>
       <use x="1333.984375" xlink:href="#DejaVuSans-45"/>
       <use x="1397.167969" xlink:href="#DejaVuSans-6c"/>
       <use x="1424.951172" xlink:href="#DejaVuSans-65"/>
       <use x="1486.474609" xlink:href="#DejaVuSans-6d"/>
       <use x="1583.886719" xlink:href="#DejaVuSans-65"/>
       <use x="1645.410156" xlink:href="#DejaVuSans-6e"/>
       <use x="1708.789062" xlink:href="#DejaVuSans-74"/>
       <use x="1747.998047" xlink:href="#DejaVuSans-61"/>
       <use x="1809.277344" xlink:href="#DejaVuSans-72"/>
       <use x="1850.390625" xlink:href="#DejaVuSans-79"/>
      </g>
     </g>
    </g>
    <g id="xtick_5">
     <g id="line2d_5">
      <g>
       <use style="stroke:#000000;stroke-width:0.8;" x="195.290461" xlink:href="#me0800e4165" y="439.00625"/>
      </g>
     </g>
     <g id="text_5">
      <!-- Quincy - Broad Meadows Middle -->
      <g transform="translate(198.049836 606.43125)rotate(-90)scale(0.1 -0.1)">
       <use xlink:href="#DejaVuSans-51"/>
       <use x="78.710938" xlink:href="#DejaVuSans-75"/>
       <use x="142.089844" xlink:href="#DejaVuSans-69"/>
       <use x="169.873047" xlink:href="#DejaVuSans-6e"/>
       <use x="233.251953" xlink:href="#DejaVuSans-63"/>
       <use x="288.232422" xlink:href="#DejaVuSans-79"/>
       <use x="347.412109" xlink:href="#DejaVuSans-20"/>
       <use x="379.199219" xlink:href="#DejaVuSans-2d"/>
       <use x="415.283203" xlink:href="#DejaVuSans-20"/>
       <use x="447.070312" xlink:href="#DejaVuSans-42"/>
       <use x="515.673828" xlink:href="#DejaVuSans-72"/>
       <use x="556.755859" xlink:href="#DejaVuSans-6f"/>
       <use x="617.9375" xlink:href="#DejaVuSans-61"/>
       <use x="679.216797" xlink:href="#DejaVuSans-64"/>
       <use x="742.693359" xlink:href="#DejaVuSans-20"/>
       <use x="774.480469" xlink:href="#DejaVuSans-4d"/>
       <use x="860.759766" xlink:href="#DejaVuSans-65"/>
       <use x="922.283203" xlink:href="#DejaVuSans-61"/>
       <use x="983.5625" xlink:href="#DejaVuSans-64"/>
       <use x="1047.039062" xlink:href="#DejaVuSans-6f"/>
       <use x="1108.220703" xlink:href="#DejaVuSans-77"/>
       <use x="1190.007812" xlink:href="#DejaVuSans-73"/>
       <use x="1242.107422" xlink:href="#DejaVuSans-20"/>
       <use x="1273.894531" xlink:href="#DejaVuSans-4d"/>
       <use x="1360.173828" xlink:href="#DejaVuSans-69"/>
       <use x="1387.957031" xlink:href="#DejaVuSans-64"/>
       <use x="1451.433594" xlink:href="#DejaVuSans-64"/>
       <use x="1514.910156" xlink:href="#DejaVuSans-6c"/>
       <use x="1542.693359" xlink:href="#DejaVuSans-65"/>
      </g>
     </g>
    </g>
    <g id="xtick_6">
     <g id="line2d_6">
      <g>
       <use style="stroke:#000000;stroke-width:0.8;" x="230.491118" xlink:href="#me0800e4165" y="439.00625"/>
      </g>
     </g>
     <g id="text_6">
      <!-- Quincy - Central Middle -->
      <g transform="translate(233.250493 563.335937)rotate(-90)scale(0.1 -0.1)">
       <use xlink:href="#DejaVuSans-51"/>
       <use x="78.710938" xlink:href="#DejaVuSans-75"/>
       <use x="142.089844" xlink:href="#DejaVuSans-69"/>
       <use x="169.873047" xlink:href="#DejaVuSans-6e"/>
       <use x="233.251953" xlink:href="#DejaVuSans-63"/>
       <use x="288.232422" xlink:href="#DejaVuSans-79"/>
       <use x="347.412109" xlink:href="#DejaVuSans-20"/>
       <use x="379.199219" xlink:href="#DejaVuSans-2d"/>
       <use x="415.283203" xlink:href="#DejaVuSans-20"/>
       <use x="447.070312" xlink:href="#DejaVuSans-43"/>
       <use x="516.894531" xlink:href="#DejaVuSans-65"/>
       <use x="578.417969" xlink:href="#DejaVuSans-6e"/>
       <use x="641.796875" xlink:href="#DejaVuSans-74"/>
       <use x="681.005859" xlink:href="#DejaVuSans-72"/>
       <use x="722.119141" xlink:href="#DejaVuSans-61"/>
       <use x="783.398438" xlink:href="#DejaVuSans-6c"/>
       <use x="811.181641" xlink:href="#DejaVuSans-20"/>
       <use x="842.96875" xlink:href="#DejaVuSans-4d"/>
       <use x="929.248047" xlink:href="#DejaVuSans-69"/>
       <use x="957.03125" xlink:href="#DejaVuSans-64"/>
       <use x="1020.507812" xlink:href="#DejaVuSans-64"/>
       <use x="1083.984375" xlink:href="#DejaVuSans-6c"/>
       <use x="1111.767578" xlink:href="#DejaVuSans-65"/>
      </g>
     </g>
    </g>
    <g id="xtick_7">
     <g id="line2d_7">
      <g>
       <use style="stroke:#000000;stroke-width:0.8;" x="265.691776" xlink:href="#me0800e4165" y="439.00625"/>
      </g>
     </g>
     <g id="text_7">
      <!-- Quincy - Charles A Bernazzani Elementary -->
      <defs>
       <path d="M 5.515625 54.6875 
L 48.1875 54.6875 
L 48.1875 46.484375 
L 14.40625 7.171875 
L 48.1875 7.171875 
L 48.1875 0 
L 4.296875 0 
L 4.296875 8.203125 
L 38.09375 47.515625 
L 5.515625 47.515625 
z
" id="DejaVuSans-7a"/>
      </defs>
      <g transform="translate(268.451151 657.676562)rotate(-90)scale(0.1 -0.1)">
       <use xlink:href="#DejaVuSans-51"/>
       <use x="78.710938" xlink:href="#DejaVuSans-75"/>
       <use x="142.089844" xlink:href="#DejaVuSans-69"/>
       <use x="169.873047" xlink:href="#DejaVuSans-6e"/>
       <use x="233.251953" xlink:href="#DejaVuSans-63"/>
       <use x="288.232422" xlink:href="#DejaVuSans-79"/>
       <use x="347.412109" xlink:href="#DejaVuSans-20"/>
       <use x="379.199219" xlink:href="#DejaVuSans-2d"/>
       <use x="415.283203" xlink:href="#DejaVuSans-20"/>
       <use x="447.070312" xlink:href="#DejaVuSans-43"/>
       <use x="516.894531" xlink:href="#DejaVuSans-68"/>
       <use x="580.273438" xlink:href="#DejaVuSans-61"/>
       <use x="641.552734" xlink:href="#DejaVuSans-72"/>
       <use x="682.666016" xlink:href="#DejaVuSans-6c"/>
       <use x="710.449219" xlink:href="#DejaVuSans-65"/>
       <use x="771.972656" xlink:href="#DejaVuSans-73"/>
       <use x="824.072266" xlink:href="#DejaVuSans-20"/>
       <use x="855.859375" xlink:href="#DejaVuSans-41"/>
       <use x="924.267578" xlink:href="#DejaVuSans-20"/>
       <use x="956.054688" xlink:href="#DejaVuSans-42"/>
       <use x="1024.658203" xlink:href="#DejaVuSans-65"/>
       <use x="1086.181641" xlink:href="#DejaVuSans-72"/>
       <use x="1127.279297" xlink:href="#DejaVuSans-6e"/>
       <use x="1190.658203" xlink:href="#DejaVuSans-61"/>
       <use x="1251.9375" xlink:href="#DejaVuSans-7a"/>
       <use x="1304.427734" xlink:href="#DejaVuSans-7a"/>
       <use x="1356.917969" xlink:href="#DejaVuSans-61"/>
       <use x="1418.197266" xlink:href="#DejaVuSans-6e"/>
       <use x="1481.576172" xlink:href="#DejaVuSans-69"/>
       <use x="1509.359375" xlink:href="#DejaVuSans-20"/>
       <use x="1541.146484" xlink:href="#DejaVuSans-45"/>
       <use x="1604.330078" xlink:href="#DejaVuSans-6c"/>
       <use x="1632.113281" xlink:href="#DejaVuSans-65"/>
       <use x="1693.636719" xlink:href="#DejaVuSans-6d"/>
       <use x="1791.048828" xlink:href="#DejaVuSans-65"/>
       <use x="1852.572266" xlink:href="#DejaVuSans-6e"/>
       <use x="1915.951172" xlink:href="#DejaVuSans-74"/>
       <use x="1955.160156" xlink:href="#DejaVuSans-61"/>
       <use x="2016.439453" xlink:href="#DejaVuSans-72"/>
       <use x="2057.552734" xlink:href="#DejaVuSans-79"/>
      </g>
     </g>
    </g>
    <g id="xtick_8">
     <g id="line2d_8">
      <g>
       <use style="stroke:#000000;stroke-width:0.8;" x="300.892434" xlink:href="#me0800e4165" y="439.00625"/>
      </g>
     </g>
     <g id="text_8">
      <!-- Quincy - Clifford H Marshall Elementary -->
      <defs>
       <path d="M 37.109375 75.984375 
L 37.109375 68.5 
L 28.515625 68.5 
Q 23.6875 68.5 21.796875 66.546875 
Q 19.921875 64.59375 19.921875 59.515625 
L 19.921875 54.6875 
L 34.71875 54.6875 
L 34.71875 47.703125 
L 19.921875 47.703125 
L 19.921875 0 
L 10.890625 0 
L 10.890625 47.703125 
L 2.296875 47.703125 
L 2.296875 54.6875 
L 10.890625 54.6875 
L 10.890625 58.5 
Q 10.890625 67.625 15.140625 71.796875 
Q 19.390625 75.984375 28.609375 75.984375 
z
" id="DejaVuSans-66"/>
      </defs>
      <g transform="translate(303.651809 643.58125)rotate(-90)scale(0.1 -0.1)">
       <use xlink:href="#DejaVuSans-51"/>
       <use x="78.710938" xlink:href="#DejaVuSans-75"/>
       <use x="142.089844" xlink:href="#DejaVuSans-69"/>
       <use x="169.873047" xlink:href="#DejaVuSans-6e"/>
       <use x="233.251953" xlink:href="#DejaVuSans-63"/>
       <use x="288.232422" xlink:href="#DejaVuSans-79"/>
       <use x="347.412109" xlink:href="#DejaVuSans-20"/>
       <use x="379.199219" xlink:href="#DejaVuSans-2d"/>
       <use x="415.283203" xlink:href="#DejaVuSans-20"/>
       <use x="447.070312" xlink:href="#DejaVuSans-43"/>
       <use x="516.894531" xlink:href="#DejaVuSans-6c"/>
       <use x="544.677734" xlink:href="#DejaVuSans-69"/>
       <use x="572.460938" xlink:href="#DejaVuSans-66"/>
       <use x="607.666016" xlink:href="#DejaVuSans-66"/>
       <use x="642.871094" xlink:href="#DejaVuSans-6f"/>
       <use x="704.052734" xlink:href="#DejaVuSans-72"/>
       <use x="745.150391" xlink:href="#DejaVuSans-64"/>
       <use x="808.626953" xlink:href="#DejaVuSans-20"/>
       <use x="840.414062" xlink:href="#DejaVuSans-48"/>
       <use x="915.609375" xlink:href="#DejaVuSans-20"/>
       <use x="947.396484" xlink:href="#DejaVuSans-4d"/>
       <use x="1033.675781" xlink:href="#DejaVuSans-61"/>
       <use x="1094.955078" xlink:href="#DejaVuSans-72"/>
       <use x="1136.068359" xlink:href="#DejaVuSans-73"/>
       <use x="1188.167969" xlink:href="#DejaVuSans-68"/>
       <use x="1251.546875" xlink:href="#DejaVuSans-61"/>
       <use x="1312.826172" xlink:href="#DejaVuSans-6c"/>
       <use x="1340.609375" xlink:href="#DejaVuSans-6c"/>
       <use x="1368.392578" xlink:href="#DejaVuSans-20"/>
       <use x="1400.179688" xlink:href="#DejaVuSans-45"/>
       <use x="1463.363281" xlink:href="#DejaVuSans-6c"/>
       <use x="1491.146484" xlink:href="#DejaVuSans-65"/>
       <use x="1552.669922" xlink:href="#DejaVuSans-6d"/>
       <use x="1650.082031" xlink:href="#DejaVuSans-65"/>
       <use x="1711.605469" xlink:href="#DejaVuSans-6e"/>
       <use x="1774.984375" xlink:href="#DejaVuSans-74"/>
       <use x="1814.193359" xlink:href="#DejaVuSans-61"/>
       <use x="1875.472656" xlink:href="#DejaVuSans-72"/>
       <use x="1916.585938" xlink:href="#DejaVuSans-79"/>
      </g>
     </g>
    </g>
    <g id="xtick_9">
     <g id="line2d_9">
      <g>
       <use style="stroke:#000000;stroke-width:0.8;" x="336.093092" xlink:href="#me0800e4165" y="439.00625"/>
      </g>
     </g>
     <g id="text_9">
      <!-- Quincy - Francis W Parker -->
      <defs>
       <path d="M 9.8125 72.90625 
L 51.703125 72.90625 
L 51.703125 64.59375 
L 19.671875 64.59375 
L 19.671875 43.109375 
L 48.578125 43.109375 
L 48.578125 34.8125 
L 19.671875 34.8125 
L 19.671875 0 
L 9.8125 0 
z
" id="DejaVuSans-46"/>
       <path d="M 3.328125 72.90625 
L 13.28125 72.90625 
L 28.609375 11.28125 
L 43.890625 72.90625 
L 54.984375 72.90625 
L 70.3125 11.28125 
L 85.59375 72.90625 
L 95.609375 72.90625 
L 77.296875 0 
L 64.890625 0 
L 49.515625 63.28125 
L 33.984375 0 
L 21.578125 0 
z
" id="DejaVuSans-57"/>
       <path d="M 19.671875 64.796875 
L 19.671875 37.40625 
L 32.078125 37.40625 
Q 38.96875 37.40625 42.71875 40.96875 
Q 46.484375 44.53125 46.484375 51.125 
Q 46.484375 57.671875 42.71875 61.234375 
Q 38.96875 64.796875 32.078125 64.796875 
z
M 9.8125 72.90625 
L 32.078125 72.90625 
Q 44.34375 72.90625 50.609375 67.359375 
Q 56.890625 61.8125 56.890625 51.125 
Q 56.890625 40.328125 50.609375 34.8125 
Q 44.34375 29.296875 32.078125 29.296875 
L 19.671875 29.296875 
L 19.671875 0 
L 9.8125 0 
z
" id="DejaVuSans-50"/>
       <path d="M 9.078125 75.984375 
L 18.109375 75.984375 
L 18.109375 31.109375 
L 44.921875 54.6875 
L 56.390625 54.6875 
L 27.390625 29.109375 
L 57.625 0 
L 45.90625 0 
L 18.109375 26.703125 
L 18.109375 0 
L 9.078125 0 
z
" id="DejaVuSans-6b"/>
      </defs>
      <g transform="translate(338.852467 575.071875)rotate(-90)scale(0.1 -0.1)">
       <use xlink:href="#DejaVuSans-51"/>
       <use x="78.710938" xlink:href="#DejaVuSans-75"/>
       <use x="142.089844" xlink:href="#DejaVuSans-69"/>
       <use x="169.873047" xlink:href="#DejaVuSans-6e"/>
       <use x="233.251953" xlink:href="#DejaVuSans-63"/>
       <use x="288.232422" xlink:href="#DejaVuSans-79"/>
       <use x="347.412109" xlink:href="#DejaVuSans-20"/>
       <use x="379.199219" xlink:href="#DejaVuSans-2d"/>
       <use x="415.283203" xlink:href="#DejaVuSans-20"/>
       <use x="447.070312" xlink:href="#DejaVuSans-46"/>
       <use x="504.480469" xlink:href="#DejaVuSans-72"/>
       <use x="545.59375" xlink:href="#DejaVuSans-61"/>
       <use x="606.873047" xlink:href="#DejaVuSans-6e"/>
       <use x="670.251953" xlink:href="#DejaVuSans-63"/>
       <use x="725.232422" xlink:href="#DejaVuSans-69"/>
       <use x="753.015625" xlink:href="#DejaVuSans-73"/>
       <use x="805.115234" xlink:href="#DejaVuSans-20"/>
       <use x="836.902344" xlink:href="#DejaVuSans-57"/>
       <use x="935.779297" xlink:href="#DejaVuSans-20"/>
       <use x="967.566406" xlink:href="#DejaVuSans-50"/>
       <use x="1027.806641" xlink:href="#DejaVuSans-61"/>
       <use x="1089.085938" xlink:href="#DejaVuSans-72"/>
       <use x="1130.199219" xlink:href="#DejaVuSans-6b"/>
       <use x="1188.0625" xlink:href="#DejaVuSans-65"/>
       <use x="1249.585938" xlink:href="#DejaVuSans-72"/>
      </g>
     </g>
    </g>
    <g id="xtick_10">
     <g id="line2d_10">
      <g>
       <use style="stroke:#000000;stroke-width:0.8;" x="371.29375" xlink:href="#me0800e4165" y="439.00625"/>
      </g>
     </g>
     <g id="text_10">
      <!-- Quincy - Lincoln-Hancock Community School -->
      <defs>
       <path d="M 9.8125 72.90625 
L 19.671875 72.90625 
L 19.671875 8.296875 
L 55.171875 8.296875 
L 55.171875 0 
L 9.8125 0 
z
" id="DejaVuSans-4c"/>
       <path d="M 53.515625 70.515625 
L 53.515625 60.890625 
Q 47.90625 63.578125 42.921875 64.890625 
Q 37.9375 66.21875 33.296875 66.21875 
Q 25.25 66.21875 20.875 63.09375 
Q 16.5 59.96875 16.5 54.203125 
Q 16.5 49.359375 19.40625 46.890625 
Q 22.3125 44.4375 30.421875 42.921875 
L 36.375 41.703125 
Q 47.40625 39.59375 52.65625 34.296875 
Q 57.90625 29 57.90625 20.125 
Q 57.90625 9.515625 50.796875 4.046875 
Q 43.703125 -1.421875 29.984375 -1.421875 
Q 24.8125 -1.421875 18.96875 -0.25 
Q 13.140625 0.921875 6.890625 3.21875 
L 6.890625 13.375 
Q 12.890625 10.015625 18.65625 8.296875 
Q 24.421875 6.59375 29.984375 6.59375 
Q 38.421875 6.59375 43.015625 9.90625 
Q 47.609375 13.234375 47.609375 19.390625 
Q 47.609375 24.75 44.3125 27.78125 
Q 41.015625 30.8125 33.5 32.328125 
L 27.484375 33.5 
Q 16.453125 35.6875 11.515625 40.375 
Q 6.59375 45.0625 6.59375 53.421875 
Q 6.59375 63.09375 13.40625 68.65625 
Q 20.21875 74.21875 32.171875 74.21875 
Q 37.3125 74.21875 42.625 73.28125 
Q 47.953125 72.359375 53.515625 70.515625 
z
" id="DejaVuSans-53"/>
      </defs>
      <g transform="translate(374.053125 670.064062)rotate(-90)scale(0.1 -0.1)">
       <use xlink:href="#DejaVuSans-51"/>
       <use x="78.710938" xlink:href="#DejaVuSans-75"/>
       <use x="142.089844" xlink:href="#DejaVuSans-69"/>
       <use x="169.873047" xlink:href="#DejaVuSans-6e"/>
       <use x="233.251953" xlink:href="#DejaVuSans-63"/>
       <use x="288.232422" xlink:href="#DejaVuSans-79"/>
       <use x="347.412109" xlink:href="#DejaVuSans-20"/>
       <use x="379.199219" xlink:href="#DejaVuSans-2d"/>
       <use x="415.283203" xlink:href="#DejaVuSans-20"/>
       <use x="447.070312" xlink:href="#DejaVuSans-4c"/>
       <use x="502.783203" xlink:href="#DejaVuSans-69"/>
       <use x="530.566406" xlink:href="#DejaVuSans-6e"/>
       <use x="593.945312" xlink:href="#DejaVuSans-63"/>
       <use x="648.925781" xlink:href="#DejaVuSans-6f"/>
       <use x="710.107422" xlink:href="#DejaVuSans-6c"/>
       <use x="737.890625" xlink:href="#DejaVuSans-6e"/>
       <use x="801.269531" xlink:href="#DejaVuSans-2d"/>
       <use x="837.353516" xlink:href="#DejaVuSans-48"/>
       <use x="912.548828" xlink:href="#DejaVuSans-61"/>
       <use x="973.828125" xlink:href="#DejaVuSans-6e"/>
       <use x="1037.207031" xlink:href="#DejaVuSans-63"/>
       <use x="1092.1875" xlink:href="#DejaVuSans-6f"/>
       <use x="1153.369141" xlink:href="#DejaVuSans-63"/>
       <use x="1208.349609" xlink:href="#DejaVuSans-6b"/>
       <use x="1266.259766" xlink:href="#DejaVuSans-20"/>
       <use x="1298.046875" xlink:href="#DejaVuSans-43"/>
       <use x="1367.871094" xlink:href="#DejaVuSans-6f"/>
       <use x="1429.052734" xlink:href="#DejaVuSans-6d"/>
       <use x="1526.464844" xlink:href="#DejaVuSans-6d"/>
       <use x="1623.876953" xlink:href="#DejaVuSans-75"/>
       <use x="1687.255859" xlink:href="#DejaVuSans-6e"/>
       <use x="1750.634766" xlink:href="#DejaVuSans-69"/>
       <use x="1778.417969" xlink:href="#DejaVuSans-74"/>
       <use x="1817.626953" xlink:href="#DejaVuSans-79"/>
       <use x="1876.806641" xlink:href="#DejaVuSans-20"/>
       <use x="1908.59375" xlink:href="#DejaVuSans-53"/>
       <use x="1972.070312" xlink:href="#DejaVuSans-63"/>
       <use x="2027.050781" xlink:href="#DejaVuSans-68"/>
       <use x="2090.429688" xlink:href="#DejaVuSans-6f"/>
       <use x="2151.611328" xlink:href="#DejaVuSans-6f"/>
       <use x="2212.792969" xlink:href="#DejaVuSans-6c"/>
      </g>
     </g>
    </g>
    <g id="xtick_11">
     <g id="line2d_11">
      <g>
       <use style="stroke:#000000;stroke-width:0.8;" x="406.494408" xlink:href="#me0800e4165" y="439.00625"/>
      </g>
     </g>
     <g id="text_11">
      <!-- Quincy - Merrymount -->
      <g transform="translate(409.253783 552.0875)rotate(-90)scale(0.1 -0.1)">
       <use xlink:href="#DejaVuSans-51"/>
       <use x="78.710938" xlink:href="#DejaVuSans-75"/>
       <use x="142.089844" xlink:href="#DejaVuSans-69"/>
       <use x="169.873047" xlink:href="#DejaVuSans-6e"/>
       <use x="233.251953" xlink:href="#DejaVuSans-63"/>
       <use x="288.232422" xlink:href="#DejaVuSans-79"/>
       <use x="347.412109" xlink:href="#DejaVuSans-20"/>
       <use x="379.199219" xlink:href="#DejaVuSans-2d"/>
       <use x="415.283203" xlink:href="#DejaVuSans-20"/>
       <use x="447.070312" xlink:href="#DejaVuSans-4d"/>
       <use x="533.349609" xlink:href="#DejaVuSans-65"/>
       <use x="594.873047" xlink:href="#DejaVuSans-72"/>
       <use x="635.970703" xlink:href="#DejaVuSans-72"/>
       <use x="677.083984" xlink:href="#DejaVuSans-79"/>
       <use x="736.263672" xlink:href="#DejaVuSans-6d"/>
       <use x="833.675781" xlink:href="#DejaVuSans-6f"/>
       <use x="894.857422" xlink:href="#DejaVuSans-75"/>
       <use x="958.236328" xlink:href="#DejaVuSans-6e"/>
       <use x="1021.615234" xlink:href="#DejaVuSans-74"/>
      </g>
     </g>
    </g>
    <g id="xtick_12">
     <g id="line2d_12">
      <g>
       <use style="stroke:#000000;stroke-width:0.8;" x="441.695066" xlink:href="#me0800e4165" y="439.00625"/>
      </g>
     </g>
     <g id="text_12">
      <!-- Quincy - Montclair -->
      <g transform="translate(444.454441 537.010937)rotate(-90)scale(0.1 -0.1)">
       <use xlink:href="#DejaVuSans-51"/>
       <use x="78.710938" xlink:href="#DejaVuSans-75"/>
       <use x="142.089844" xlink:href="#DejaVuSans-69"/>
       <use x="169.873047" xlink:href="#DejaVuSans-6e"/>
       <use x="233.251953" xlink:href="#DejaVuSans-63"/>
       <use x="288.232422" xlink:href="#DejaVuSans-79"/>
       <use x="347.412109" xlink:href="#DejaVuSans-20"/>
       <use x="379.199219" xlink:href="#DejaVuSans-2d"/>
       <use x="415.283203" xlink:href="#DejaVuSans-20"/>
       <use x="447.070312" xlink:href="#DejaVuSans-4d"/>
       <use x="533.349609" xlink:href="#DejaVuSans-6f"/>
       <use x="594.53125" xlink:href="#DejaVuSans-6e"/>
       <use x="657.910156" xlink:href="#DejaVuSans-74"/>
       <use x="697.119141" xlink:href="#DejaVuSans-63"/>
       <use x="752.099609" xlink:href="#DejaVuSans-6c"/>
       <use x="779.882812" xlink:href="#DejaVuSans-61"/>
       <use x="841.162109" xlink:href="#DejaVuSans-69"/>
       <use x="868.945312" xlink:href="#DejaVuSans-72"/>
      </g>
     </g>
    </g>
    <g id="xtick_13">
     <g id="line2d_13">
      <g>
       <use style="stroke:#000000;stroke-width:0.8;" x="476.895724" xlink:href="#me0800e4165" y="439.00625"/>
      </g>
     </g>
     <g id="text_13">
      <!-- Quincy - North Quincy High -->
      <defs>
       <path d="M 9.8125 72.90625 
L 23.09375 72.90625 
L 55.421875 11.921875 
L 55.421875 72.90625 
L 64.984375 72.90625 
L 64.984375 0 
L 51.703125 0 
L 19.390625 60.984375 
L 19.390625 0 
L 9.8125 0 
z
" id="DejaVuSans-4e"/>
      </defs>
      <g transform="translate(479.655099 582.764062)rotate(-90)scale(0.1 -0.1)">
       <use xlink:href="#DejaVuSans-51"/>
       <use x="78.710938" xlink:href="#DejaVuSans-75"/>
       <use x="142.089844" xlink:href="#DejaVuSans-69"/>
       <use x="169.873047" xlink:href="#DejaVuSans-6e"/>
       <use x="233.251953" xlink:href="#DejaVuSans-63"/>
       <use x="288.232422" xlink:href="#DejaVuSans-79"/>
       <use x="347.412109" xlink:href="#DejaVuSans-20"/>
       <use x="379.199219" xlink:href="#DejaVuSans-2d"/>
       <use x="415.283203" xlink:href="#DejaVuSans-20"/>
       <use x="447.070312" xlink:href="#DejaVuSans-4e"/>
       <use x="521.875" xlink:href="#DejaVuSans-6f"/>
       <use x="583.056641" xlink:href="#DejaVuSans-72"/>
       <use x="624.169922" xlink:href="#DejaVuSans-74"/>
       <use x="663.378906" xlink:href="#DejaVuSans-68"/>
       <use x="726.757812" xlink:href="#DejaVuSans-20"/>
       <use x="758.544922" xlink:href="#DejaVuSans-51"/>
       <use x="837.255859" xlink:href="#DejaVuSans-75"/>
       <use x="900.634766" xlink:href="#DejaVuSans-69"/>
       <use x="928.417969" xlink:href="#DejaVuSans-6e"/>
       <use x="991.796875" xlink:href="#DejaVuSans-63"/>
       <use x="1046.777344" xlink:href="#DejaVuSans-79"/>
       <use x="1105.957031" xlink:href="#DejaVuSans-20"/>
       <use x="1137.744141" xlink:href="#DejaVuSans-48"/>
       <use x="1212.939453" xlink:href="#DejaVuSans-69"/>
       <use x="1240.722656" xlink:href="#DejaVuSans-67"/>
       <use x="1304.199219" xlink:href="#DejaVuSans-68"/>
      </g>
     </g>
    </g>
    <g id="xtick_14">
     <g id="line2d_14">
      <g>
       <use style="stroke:#000000;stroke-width:0.8;" x="512.096382" xlink:href="#me0800e4165" y="439.00625"/>
      </g>
     </g>
     <g id="text_14">
      <!-- Quincy - Point Webster Middle -->
      <defs>
       <path d="M 48.6875 27.296875 
Q 48.6875 37.203125 44.609375 42.84375 
Q 40.53125 48.484375 33.40625 48.484375 
Q 26.265625 48.484375 22.1875 42.84375 
Q 18.109375 37.203125 18.109375 27.296875 
Q 18.109375 17.390625 22.1875 11.75 
Q 26.265625 6.109375 33.40625 6.109375 
Q 40.53125 6.109375 44.609375 11.75 
Q 48.6875 17.390625 48.6875 27.296875 
z
M 18.109375 46.390625 
Q 20.953125 51.265625 25.265625 53.625 
Q 29.59375 56 35.59375 56 
Q 45.5625 56 51.78125 48.09375 
Q 58.015625 40.1875 58.015625 27.296875 
Q 58.015625 14.40625 51.78125 6.484375 
Q 45.5625 -1.421875 35.59375 -1.421875 
Q 29.59375 -1.421875 25.265625 0.953125 
Q 20.953125 3.328125 18.109375 8.203125 
L 18.109375 0 
L 9.078125 0 
L 9.078125 75.984375 
L 18.109375 75.984375 
z
" id="DejaVuSans-62"/>
      </defs>
      <g transform="translate(514.855757 597.057812)rotate(-90)scale(0.1 -0.1)">
       <use xlink:href="#DejaVuSans-51"/>
       <use x="78.710938" xlink:href="#DejaVuSans-75"/>
       <use x="142.089844" xlink:href="#DejaVuSans-69"/>
       <use x="169.873047" xlink:href="#DejaVuSans-6e"/>
       <use x="233.251953" xlink:href="#DejaVuSans-63"/>
       <use x="288.232422" xlink:href="#DejaVuSans-79"/>
       <use x="347.412109" xlink:href="#DejaVuSans-20"/>
       <use x="379.199219" xlink:href="#DejaVuSans-2d"/>
       <use x="415.283203" xlink:href="#DejaVuSans-20"/>
       <use x="447.070312" xlink:href="#DejaVuSans-50"/>
       <use x="507.326172" xlink:href="#DejaVuSans-6f"/>
       <use x="568.507812" xlink:href="#DejaVuSans-69"/>
       <use x="596.291016" xlink:href="#DejaVuSans-6e"/>
       <use x="659.669922" xlink:href="#DejaVuSans-74"/>
       <use x="698.878906" xlink:href="#DejaVuSans-20"/>
       <use x="730.666016" xlink:href="#DejaVuSans-57"/>
       <use x="829.464844" xlink:href="#DejaVuSans-65"/>
       <use x="890.988281" xlink:href="#DejaVuSans-62"/>
       <use x="954.464844" xlink:href="#DejaVuSans-73"/>
       <use x="1006.564453" xlink:href="#DejaVuSans-74"/>
       <use x="1045.773438" xlink:href="#DejaVuSans-65"/>
       <use x="1107.296875" xlink:href="#DejaVuSans-72"/>
       <use x="1148.410156" xlink:href="#DejaVuSans-20"/>
       <use x="1180.197266" xlink:href="#DejaVuSans-4d"/>
       <use x="1266.476562" xlink:href="#DejaVuSans-69"/>
       <use x="1294.259766" xlink:href="#DejaVuSans-64"/>
       <use x="1357.736328" xlink:href="#DejaVuSans-64"/>
       <use x="1421.212891" xlink:href="#DejaVuSans-6c"/>
       <use x="1448.996094" xlink:href="#DejaVuSans-65"/>
      </g>
     </g>
    </g>
    <g id="xtick_15">
     <g id="line2d_15">
      <g>
       <use style="stroke:#000000;stroke-width:0.8;" x="547.297039" xlink:href="#me0800e4165" y="439.00625"/>
      </g>
     </g>
     <g id="text_15">
      <!-- Quincy - Quincy High -->
      <g transform="translate(550.056414 551.617187)rotate(-90)scale(0.1 -0.1)">
       <use xlink:href="#DejaVuSans-51"/>
       <use x="78.710938" xlink:href="#DejaVuSans-75"/>
       <use x="142.089844" xlink:href="#DejaVuSans-69"/>
       <use x="169.873047" xlink:href="#DejaVuSans-6e"/>
       <use x="233.251953" xlink:href="#DejaVuSans-63"/>
       <use x="288.232422" xlink:href="#DejaVuSans-79"/>
       <use x="347.412109" xlink:href="#DejaVuSans-20"/>
       <use x="379.199219" xlink:href="#DejaVuSans-2d"/>
       <use x="415.283203" xlink:href="#DejaVuSans-20"/>
       <use x="447.070312" xlink:href="#DejaVuSans-51"/>
       <use x="525.78125" xlink:href="#DejaVuSans-75"/>
       <use x="589.160156" xlink:href="#DejaVuSans-69"/>
       <use x="616.943359" xlink:href="#DejaVuSans-6e"/>
       <use x="680.322266" xlink:href="#DejaVuSans-63"/>
       <use x="735.302734" xlink:href="#DejaVuSans-79"/>
       <use x="794.482422" xlink:href="#DejaVuSans-20"/>
       <use x="826.269531" xlink:href="#DejaVuSans-48"/>
       <use x="901.464844" xlink:href="#DejaVuSans-69"/>
       <use x="929.248047" xlink:href="#DejaVuSans-67"/>
       <use x="992.724609" xlink:href="#DejaVuSans-68"/>
      </g>
     </g>
    </g>
    <g id="xtick_16">
     <g id="line2d_16">
      <g>
       <use style="stroke:#000000;stroke-width:0.8;" x="582.497697" xlink:href="#me0800e4165" y="439.00625"/>
      </g>
     </g>
     <g id="text_16">
      <!-- Quincy - Reay E Sterling Middle -->
      <defs>
       <path d="M 44.390625 34.1875 
Q 47.5625 33.109375 50.5625 29.59375 
Q 53.5625 26.078125 56.59375 19.921875 
L 66.609375 0 
L 56 0 
L 46.6875 18.703125 
Q 43.0625 26.03125 39.671875 28.421875 
Q 36.28125 30.8125 30.421875 30.8125 
L 19.671875 30.8125 
L 19.671875 0 
L 9.8125 0 
L 9.8125 72.90625 
L 32.078125 72.90625 
Q 44.578125 72.90625 50.734375 67.671875 
Q 56.890625 62.453125 56.890625 51.90625 
Q 56.890625 45.015625 53.6875 40.46875 
Q 50.484375 35.9375 44.390625 34.1875 
z
M 19.671875 64.796875 
L 19.671875 38.921875 
L 32.078125 38.921875 
Q 39.203125 38.921875 42.84375 42.21875 
Q 46.484375 45.515625 46.484375 51.90625 
Q 46.484375 58.296875 42.84375 61.546875 
Q 39.203125 64.796875 32.078125 64.796875 
z
" id="DejaVuSans-52"/>
      </defs>
      <g transform="translate(585.257072 603.517187)rotate(-90)scale(0.1 -0.1)">
       <use xlink:href="#DejaVuSans-51"/>
       <use x="78.710938" xlink:href="#DejaVuSans-75"/>
       <use x="142.089844" xlink:href="#DejaVuSans-69"/>
       <use x="169.873047" xlink:href="#DejaVuSans-6e"/>
       <use x="233.251953" xlink:href="#DejaVuSans-63"/>
       <use x="288.232422" xlink:href="#DejaVuSans-79"/>
       <use x="347.412109" xlink:href="#DejaVuSans-20"/>
       <use x="379.199219" xlink:href="#DejaVuSans-2d"/>
       <use x="415.283203" xlink:href="#DejaVuSans-20"/>
       <use x="447.070312" xlink:href="#DejaVuSans-52"/>
       <use x="516.490234" xlink:href="#DejaVuSans-65"/>
       <use x="578.013672" xlink:href="#DejaVuSans-61"/>
       <use x="639.292969" xlink:href="#DejaVuSans-79"/>
       <use x="698.472656" xlink:href="#DejaVuSans-20"/>
       <use x="730.259766" xlink:href="#DejaVuSans-45"/>
       <use x="793.443359" xlink:href="#DejaVuSans-20"/>
       <use x="825.230469" xlink:href="#DejaVuSans-53"/>
       <use x="888.707031" xlink:href="#DejaVuSans-74"/>
       <use x="927.916016" xlink:href="#DejaVuSans-65"/>
       <use x="989.439453" xlink:href="#DejaVuSans-72"/>
       <use x="1030.552734" xlink:href="#DejaVuSans-6c"/>
       <use x="1058.335938" xlink:href="#DejaVuSans-69"/>
       <use x="1086.119141" xlink:href="#DejaVuSans-6e"/>
       <use x="1149.498047" xlink:href="#DejaVuSans-67"/>
       <use x="1212.974609" xlink:href="#DejaVuSans-20"/>
       <use x="1244.761719" xlink:href="#DejaVuSans-4d"/>
       <use x="1331.041016" xlink:href="#DejaVuSans-69"/>
       <use x="1358.824219" xlink:href="#DejaVuSans-64"/>
       <use x="1422.300781" xlink:href="#DejaVuSans-64"/>
       <use x="1485.777344" xlink:href="#DejaVuSans-6c"/>
       <use x="1513.560547" xlink:href="#DejaVuSans-65"/>
      </g>
     </g>
    </g>
    <g id="xtick_17">
     <g id="line2d_17">
      <g>
       <use style="stroke:#000000;stroke-width:0.8;" x="617.698355" xlink:href="#me0800e4165" y="439.00625"/>
      </g>
     </g>
     <g id="text_17">
      <!-- Quincy - Snug Harbor Community School -->
      <g transform="translate(620.45773 651.03125)rotate(-90)scale(0.1 -0.1)">
       <use xlink:href="#DejaVuSans-51"/>
       <use x="78.710938" xlink:href="#DejaVuSans-75"/>
       <use x="142.089844" xlink:href="#DejaVuSans-69"/>
       <use x="169.873047" xlink:href="#DejaVuSans-6e"/>
       <use x="233.251953" xlink:href="#DejaVuSans-63"/>
       <use x="288.232422" xlink:href="#DejaVuSans-79"/>
       <use x="347.412109" xlink:href="#DejaVuSans-20"/>
       <use x="379.199219" xlink:href="#DejaVuSans-2d"/>
       <use x="415.283203" xlink:href="#DejaVuSans-20"/>
       <use x="447.070312" xlink:href="#DejaVuSans-53"/>
       <use x="510.546875" xlink:href="#DejaVuSans-6e"/>
       <use x="573.925781" xlink:href="#DejaVuSans-75"/>
       <use x="637.304688" xlink:href="#DejaVuSans-67"/>
       <use x="700.78125" xlink:href="#DejaVuSans-20"/>
       <use x="732.568359" xlink:href="#DejaVuSans-48"/>
       <use x="807.763672" xlink:href="#DejaVuSans-61"/>
       <use x="869.042969" xlink:href="#DejaVuSans-72"/>
       <use x="910.15625" xlink:href="#DejaVuSans-62"/>
       <use x="973.632812" xlink:href="#DejaVuSans-6f"/>
       <use x="1034.814453" xlink:href="#DejaVuSans-72"/>
       <use x="1075.927734" xlink:href="#DejaVuSans-20"/>
       <use x="1107.714844" xlink:href="#DejaVuSans-43"/>
       <use x="1177.539062" xlink:href="#DejaVuSans-6f"/>
       <use x="1238.720703" xlink:href="#DejaVuSans-6d"/>
       <use x="1336.132812" xlink:href="#DejaVuSans-6d"/>
       <use x="1433.544922" xlink:href="#DejaVuSans-75"/>
       <use x="1496.923828" xlink:href="#DejaVuSans-6e"/>
       <use x="1560.302734" xlink:href="#DejaVuSans-69"/>
       <use x="1588.085938" xlink:href="#DejaVuSans-74"/>
       <use x="1627.294922" xlink:href="#DejaVuSans-79"/>
       <use x="1686.474609" xlink:href="#DejaVuSans-20"/>
       <use x="1718.261719" xlink:href="#DejaVuSans-53"/>
       <use x="1781.738281" xlink:href="#DejaVuSans-63"/>
       <use x="1836.71875" xlink:href="#DejaVuSans-68"/>
       <use x="1900.097656" xlink:href="#DejaVuSans-6f"/>
       <use x="1961.279297" xlink:href="#DejaVuSans-6f"/>
       <use x="2022.460938" xlink:href="#DejaVuSans-6c"/>
      </g>
     </g>
    </g>
    <g id="xtick_18">
     <g id="line2d_18">
      <g>
       <use style="stroke:#000000;stroke-width:0.8;" x="652.899013" xlink:href="#me0800e4165" y="439.00625"/>
      </g>
     </g>
     <g id="text_18">
      <!-- Quincy - Squantum -->
      <defs>
       <path d="M 14.796875 27.296875 
Q 14.796875 17.390625 18.875 11.75 
Q 22.953125 6.109375 30.078125 6.109375 
Q 37.203125 6.109375 41.296875 11.75 
Q 45.40625 17.390625 45.40625 27.296875 
Q 45.40625 37.203125 41.296875 42.84375 
Q 37.203125 48.484375 30.078125 48.484375 
Q 22.953125 48.484375 18.875 42.84375 
Q 14.796875 37.203125 14.796875 27.296875 
z
M 45.40625 8.203125 
Q 42.578125 3.328125 38.25 0.953125 
Q 33.9375 -1.421875 27.875 -1.421875 
Q 17.96875 -1.421875 11.734375 6.484375 
Q 5.515625 14.40625 5.515625 27.296875 
Q 5.515625 40.1875 11.734375 48.09375 
Q 17.96875 56 27.875 56 
Q 33.9375 56 38.25 53.625 
Q 42.578125 51.265625 45.40625 46.390625 
L 45.40625 54.6875 
L 54.390625 54.6875 
L 54.390625 -20.796875 
L 45.40625 -20.796875 
z
" id="DejaVuSans-71"/>
      </defs>
      <g transform="translate(655.658388 542.210937)rotate(-90)scale(0.1 -0.1)">
       <use xlink:href="#DejaVuSans-51"/>
       <use x="78.710938" xlink:href="#DejaVuSans-75"/>
       <use x="142.089844" xlink:href="#DejaVuSans-69"/>
       <use x="169.873047" xlink:href="#DejaVuSans-6e"/>
       <use x="233.251953" xlink:href="#DejaVuSans-63"/>
       <use x="288.232422" xlink:href="#DejaVuSans-79"/>
       <use x="347.412109" xlink:href="#DejaVuSans-20"/>
       <use x="379.199219" xlink:href="#DejaVuSans-2d"/>
       <use x="415.283203" xlink:href="#DejaVuSans-20"/>
       <use x="447.070312" xlink:href="#DejaVuSans-53"/>
       <use x="510.546875" xlink:href="#DejaVuSans-71"/>
       <use x="574.023438" xlink:href="#DejaVuSans-75"/>
       <use x="637.402344" xlink:href="#DejaVuSans-61"/>
       <use x="698.681641" xlink:href="#DejaVuSans-6e"/>
       <use x="762.060547" xlink:href="#DejaVuSans-74"/>
       <use x="801.269531" xlink:href="#DejaVuSans-75"/>
       <use x="864.648438" xlink:href="#DejaVuSans-6d"/>
      </g>
     </g>
    </g>
    <g id="xtick_19">
     <g id="line2d_19">
      <g>
       <use style="stroke:#000000;stroke-width:0.8;" x="688.099671" xlink:href="#me0800e4165" y="439.00625"/>
      </g>
     </g>
     <g id="text_19">
      <!-- Quincy - Wollaston School -->
      <g transform="translate(690.859046 576.359375)rotate(-90)scale(0.1 -0.1)">
       <use xlink:href="#DejaVuSans-51"/>
       <use x="78.710938" xlink:href="#DejaVuSans-75"/>
       <use x="142.089844" xlink:href="#DejaVuSans-69"/>
       <use x="169.873047" xlink:href="#DejaVuSans-6e"/>
       <use x="233.251953" xlink:href="#DejaVuSans-63"/>
       <use x="288.232422" xlink:href="#DejaVuSans-79"/>
       <use x="347.412109" xlink:href="#DejaVuSans-20"/>
       <use x="379.199219" xlink:href="#DejaVuSans-2d"/>
       <use x="415.283203" xlink:href="#DejaVuSans-20"/>
       <use x="447.070312" xlink:href="#DejaVuSans-57"/>
       <use x="545.869141" xlink:href="#DejaVuSans-6f"/>
       <use x="607.050781" xlink:href="#DejaVuSans-6c"/>
       <use x="634.833984" xlink:href="#DejaVuSans-6c"/>
       <use x="662.617188" xlink:href="#DejaVuSans-61"/>
       <use x="723.896484" xlink:href="#DejaVuSans-73"/>
       <use x="775.996094" xlink:href="#DejaVuSans-74"/>
       <use x="815.205078" xlink:href="#DejaVuSans-6f"/>
       <use x="876.386719" xlink:href="#DejaVuSans-6e"/>
       <use x="939.765625" xlink:href="#DejaVuSans-20"/>
       <use x="971.552734" xlink:href="#DejaVuSans-53"/>
       <use x="1035.029297" xlink:href="#DejaVuSans-63"/>
       <use x="1090.009766" xlink:href="#DejaVuSans-68"/>
       <use x="1153.388672" xlink:href="#DejaVuSans-6f"/>
       <use x="1214.570312" xlink:href="#DejaVuSans-6f"/>
       <use x="1275.751953" xlink:href="#DejaVuSans-6c"/>
      </g>
     </g>
    </g>
   </g>
   <g id="matplotlib.axis_2">
    <g id="ytick_1">
     <g id="line2d_20">
      <defs>
       <path d="M 0 0 
L -3.5 0 
" id="m55e4698593" style="stroke:#000000;stroke-width:0.8;"/>
      </defs>
      <g>
       <use style="stroke:#000000;stroke-width:0.8;" x="36.8875" xlink:href="#m55e4698593" y="439.00625"/>
      </g>
     </g>
     <g id="text_20">
      <!-- 0 -->
      <defs>
       <path d="M 31.78125 66.40625 
Q 24.171875 66.40625 20.328125 58.90625 
Q 16.5 51.421875 16.5 36.375 
Q 16.5 21.390625 20.328125 13.890625 
Q 24.171875 6.390625 31.78125 6.390625 
Q 39.453125 6.390625 43.28125 13.890625 
Q 47.125 21.390625 47.125 36.375 
Q 47.125 51.421875 43.28125 58.90625 
Q 39.453125 66.40625 31.78125 66.40625 
z
M 31.78125 74.21875 
Q 44.046875 74.21875 50.515625 64.515625 
Q 56.984375 54.828125 56.984375 36.375 
Q 56.984375 17.96875 50.515625 8.265625 
Q 44.046875 -1.421875 31.78125 -1.421875 
Q 19.53125 -1.421875 13.0625 8.265625 
Q 6.59375 17.96875 6.59375 36.375 
Q 6.59375 54.828125 13.0625 64.515625 
Q 19.53125 74.21875 31.78125 74.21875 
z
" id="DejaVuSans-30"/>
      </defs>
      <g transform="translate(23.525 442.805469)scale(0.1 -0.1)">
       <use xlink:href="#DejaVuSans-30"/>
      </g>
     </g>
    </g>
    <g id="ytick_2">
     <g id="line2d_21">
      <g>
       <use style="stroke:#000000;stroke-width:0.8;" x="36.8875" xlink:href="#m55e4698593" y="358.910776"/>
      </g>
     </g>
     <g id="text_21">
      <!-- 20 -->
      <defs>
       <path d="M 19.1875 8.296875 
L 53.609375 8.296875 
L 53.609375 0 
L 7.328125 0 
L 7.328125 8.296875 
Q 12.9375 14.109375 22.625 23.890625 
Q 32.328125 33.6875 34.8125 36.53125 
Q 39.546875 41.84375 41.421875 45.53125 
Q 43.3125 49.21875 43.3125 52.78125 
Q 43.3125 58.59375 39.234375 62.25 
Q 35.15625 65.921875 28.609375 65.921875 
Q 23.96875 65.921875 18.8125 64.3125 
Q 13.671875 62.703125 7.8125 59.421875 
L 7.8125 69.390625 
Q 13.765625 71.78125 18.9375 73 
Q 24.125 74.21875 28.421875 74.21875 
Q 39.75 74.21875 46.484375 68.546875 
Q 53.21875 62.890625 53.21875 53.421875 
Q 53.21875 48.921875 51.53125 44.890625 
Q 49.859375 40.875 45.40625 35.40625 
Q 44.1875 33.984375 37.640625 27.21875 
Q 31.109375 20.453125 19.1875 8.296875 
z
" id="DejaVuSans-32"/>
      </defs>
      <g transform="translate(17.1625 362.709995)scale(0.1 -0.1)">
       <use xlink:href="#DejaVuSans-32"/>
       <use x="63.623047" xlink:href="#DejaVuSans-30"/>
      </g>
     </g>
    </g>
    <g id="ytick_3">
     <g id="line2d_22">
      <g>
       <use style="stroke:#000000;stroke-width:0.8;" x="36.8875" xlink:href="#m55e4698593" y="278.815302"/>
      </g>
     </g>
     <g id="text_22">
      <!-- 40 -->
      <defs>
       <path d="M 37.796875 64.3125 
L 12.890625 25.390625 
L 37.796875 25.390625 
z
M 35.203125 72.90625 
L 47.609375 72.90625 
L 47.609375 25.390625 
L 58.015625 25.390625 
L 58.015625 17.1875 
L 47.609375 17.1875 
L 47.609375 0 
L 37.796875 0 
L 37.796875 17.1875 
L 4.890625 17.1875 
L 4.890625 26.703125 
z
" id="DejaVuSans-34"/>
      </defs>
      <g transform="translate(17.1625 282.614521)scale(0.1 -0.1)">
       <use xlink:href="#DejaVuSans-34"/>
       <use x="63.623047" xlink:href="#DejaVuSans-30"/>
      </g>
     </g>
    </g>
    <g id="ytick_4">
     <g id="line2d_23">
      <g>
       <use style="stroke:#000000;stroke-width:0.8;" x="36.8875" xlink:href="#m55e4698593" y="198.719829"/>
      </g>
     </g>
     <g id="text_23">
      <!-- 60 -->
      <defs>
       <path d="M 33.015625 40.375 
Q 26.375 40.375 22.484375 35.828125 
Q 18.609375 31.296875 18.609375 23.390625 
Q 18.609375 15.53125 22.484375 10.953125 
Q 26.375 6.390625 33.015625 6.390625 
Q 39.65625 6.390625 43.53125 10.953125 
Q 47.40625 15.53125 47.40625 23.390625 
Q 47.40625 31.296875 43.53125 35.828125 
Q 39.65625 40.375 33.015625 40.375 
z
M 52.59375 71.296875 
L 52.59375 62.3125 
Q 48.875 64.0625 45.09375 64.984375 
Q 41.3125 65.921875 37.59375 65.921875 
Q 27.828125 65.921875 22.671875 59.328125 
Q 17.53125 52.734375 16.796875 39.40625 
Q 19.671875 43.65625 24.015625 45.921875 
Q 28.375 48.1875 33.59375 48.1875 
Q 44.578125 48.1875 50.953125 41.515625 
Q 57.328125 34.859375 57.328125 23.390625 
Q 57.328125 12.15625 50.6875 5.359375 
Q 44.046875 -1.421875 33.015625 -1.421875 
Q 20.359375 -1.421875 13.671875 8.265625 
Q 6.984375 17.96875 6.984375 36.375 
Q 6.984375 53.65625 15.1875 63.9375 
Q 23.390625 74.21875 37.203125 74.21875 
Q 40.921875 74.21875 44.703125 73.484375 
Q 48.484375 72.75 52.59375 71.296875 
z
" id="DejaVuSans-36"/>
      </defs>
      <g transform="translate(17.1625 202.519047)scale(0.1 -0.1)">
       <use xlink:href="#DejaVuSans-36"/>
       <use x="63.623047" xlink:href="#DejaVuSans-30"/>
      </g>
     </g>
    </g>
    <g id="ytick_5">
     <g id="line2d_24">
      <g>
       <use style="stroke:#000000;stroke-width:0.8;" x="36.8875" xlink:href="#m55e4698593" y="118.624355"/>
      </g>
     </g>
     <g id="text_24">
      <!-- 80 -->
      <defs>
       <path d="M 31.78125 34.625 
Q 24.75 34.625 20.71875 30.859375 
Q 16.703125 27.09375 16.703125 20.515625 
Q 16.703125 13.921875 20.71875 10.15625 
Q 24.75 6.390625 31.78125 6.390625 
Q 38.8125 6.390625 42.859375 10.171875 
Q 46.921875 13.96875 46.921875 20.515625 
Q 46.921875 27.09375 42.890625 30.859375 
Q 38.875 34.625 31.78125 34.625 
z
M 21.921875 38.8125 
Q 15.578125 40.375 12.03125 44.71875 
Q 8.5 49.078125 8.5 55.328125 
Q 8.5 64.0625 14.71875 69.140625 
Q 20.953125 74.21875 31.78125 74.21875 
Q 42.671875 74.21875 48.875 69.140625 
Q 55.078125 64.0625 55.078125 55.328125 
Q 55.078125 49.078125 51.53125 44.71875 
Q 48 40.375 41.703125 38.8125 
Q 48.828125 37.15625 52.796875 32.3125 
Q 56.78125 27.484375 56.78125 20.515625 
Q 56.78125 9.90625 50.3125 4.234375 
Q 43.84375 -1.421875 31.78125 -1.421875 
Q 19.734375 -1.421875 13.25 4.234375 
Q 6.78125 9.90625 6.78125 20.515625 
Q 6.78125 27.484375 10.78125 32.3125 
Q 14.796875 37.15625 21.921875 38.8125 
z
M 18.3125 54.390625 
Q 18.3125 48.734375 21.84375 45.5625 
Q 25.390625 42.390625 31.78125 42.390625 
Q 38.140625 42.390625 41.71875 45.5625 
Q 45.3125 48.734375 45.3125 54.390625 
Q 45.3125 60.0625 41.71875 63.234375 
Q 38.140625 66.40625 31.78125 66.40625 
Q 25.390625 66.40625 21.84375 63.234375 
Q 18.3125 60.0625 18.3125 54.390625 
z
" id="DejaVuSans-38"/>
      </defs>
      <g transform="translate(17.1625 122.423573)scale(0.1 -0.1)">
       <use xlink:href="#DejaVuSans-38"/>
       <use x="63.623047" xlink:href="#DejaVuSans-30"/>
      </g>
     </g>
    </g>
    <g id="ytick_6">
     <g id="line2d_25">
      <g>
       <use style="stroke:#000000;stroke-width:0.8;" x="36.8875" xlink:href="#m55e4698593" y="38.528881"/>
      </g>
     </g>
     <g id="text_25">
      <!-- 100 -->
      <defs>
       <path d="M 12.40625 8.296875 
L 28.515625 8.296875 
L 28.515625 63.921875 
L 10.984375 60.40625 
L 10.984375 69.390625 
L 28.421875 72.90625 
L 38.28125 72.90625 
L 38.28125 8.296875 
L 54.390625 8.296875 
L 54.390625 0 
L 12.40625 0 
z
" id="DejaVuSans-31"/>
      </defs>
      <g transform="translate(10.8 42.3281)scale(0.1 -0.1)">
       <use xlink:href="#DejaVuSans-31"/>
       <use x="63.623047" xlink:href="#DejaVuSans-30"/>
       <use x="127.246094" xlink:href="#DejaVuSans-30"/>
      </g>
     </g>
    </g>
   </g>
   <g id="patch_79">
    <path d="M 36.8875 439.00625 
L 36.8875 14.3 
" style="fill:none;stroke:#000000;stroke-linecap:square;stroke-linejoin:miter;stroke-width:0.8;"/>
   </g>
   <g id="patch_80">
    <path d="M 705.7 439.00625 
L 705.7 14.3 
" style="fill:none;stroke:#000000;stroke-linecap:square;stroke-linejoin:miter;stroke-width:0.8;"/>
   </g>
   <g id="patch_81">
    <path d="M 36.8875 439.00625 
L 705.7 439.00625 
" style="fill:none;stroke:#000000;stroke-linecap:square;stroke-linejoin:miter;stroke-width:0.8;"/>
   </g>
   <g id="patch_82">
    <path d="M 36.8875 14.3 
L 705.7 14.3 
" style="fill:none;stroke:#000000;stroke-linecap:square;stroke-linejoin:miter;stroke-width:0.8;"/>
   </g>
   <g id="legend_1">
    <g id="patch_83">
     <path d="M 43.8875 257.509375 
L 133.090625 257.509375 
Q 135.090625 257.509375 135.090625 255.509375 
L 135.090625 197.796875 
Q 135.090625 195.796875 133.090625 195.796875 
L 43.8875 195.796875 
Q 41.8875 195.796875 41.8875 197.796875 
L 41.8875 255.509375 
Q 41.8875 257.509375 43.8875 257.509375 
z
" style="fill:#ffffff;opacity:0.8;stroke:#cccccc;stroke-linejoin:miter;"/>
    </g>
    <g id="patch_84">
     <path d="M 45.8875 207.395312 
L 65.8875 207.395312 
L 65.8875 200.395312 
L 45.8875 200.395312 
z
" style="fill:#1f77b4;"/>
    </g>
    <g id="text_26">
     <!-- APercent -->
     <g transform="translate(73.8875 207.395312)scale(0.1 -0.1)">
      <use xlink:href="#DejaVuSans-41"/>
      <use x="68.408203" xlink:href="#DejaVuSans-50"/>
      <use x="128.664062" xlink:href="#DejaVuSans-65"/>
      <use x="190.1875" xlink:href="#DejaVuSans-72"/>
      <use x="231.269531" xlink:href="#DejaVuSans-63"/>
      <use x="286.25" xlink:href="#DejaVuSans-65"/>
      <use x="347.773438" xlink:href="#DejaVuSans-6e"/>
      <use x="411.152344" xlink:href="#DejaVuSans-74"/>
     </g>
    </g>
    <g id="patch_85">
     <path d="M 45.8875 222.073437 
L 65.8875 222.073437 
L 65.8875 215.073437 
L 45.8875 215.073437 
z
" style="fill:#ff7f0e;"/>
    </g>
    <g id="text_27">
     <!-- PPercent -->
     <g transform="translate(73.8875 222.073437)scale(0.1 -0.1)">
      <use xlink:href="#DejaVuSans-50"/>
      <use x="60.302734" xlink:href="#DejaVuSans-50"/>
      <use x="120.558594" xlink:href="#DejaVuSans-65"/>
      <use x="182.082031" xlink:href="#DejaVuSans-72"/>
      <use x="223.164062" xlink:href="#DejaVuSans-63"/>
      <use x="278.144531" xlink:href="#DejaVuSans-65"/>
      <use x="339.667969" xlink:href="#DejaVuSans-6e"/>
      <use x="403.046875" xlink:href="#DejaVuSans-74"/>
     </g>
    </g>
    <g id="patch_86">
     <path d="M 45.8875 236.751562 
L 65.8875 236.751562 
L 65.8875 229.751562 
L 45.8875 229.751562 
z
" style="fill:#2ca02c;"/>
    </g>
    <g id="text_28">
     <!-- NIPercent -->
     <defs>
      <path d="M 9.8125 72.90625 
L 19.671875 72.90625 
L 19.671875 0 
L 9.8125 0 
z
" id="DejaVuSans-49"/>
     </defs>
     <g transform="translate(73.8875 236.751562)scale(0.1 -0.1)">
      <use xlink:href="#DejaVuSans-4e"/>
      <use x="74.804688" xlink:href="#DejaVuSans-49"/>
      <use x="104.296875" xlink:href="#DejaVuSans-50"/>
      <use x="164.552734" xlink:href="#DejaVuSans-65"/>
      <use x="226.076172" xlink:href="#DejaVuSans-72"/>
      <use x="267.158203" xlink:href="#DejaVuSans-63"/>
      <use x="322.138672" xlink:href="#DejaVuSans-65"/>
      <use x="383.662109" xlink:href="#DejaVuSans-6e"/>
      <use x="447.041016" xlink:href="#DejaVuSans-74"/>
     </g>
    </g>
    <g id="patch_87">
     <path d="M 45.8875 251.429687 
L 65.8875 251.429687 
L 65.8875 244.429687 
L 45.8875 244.429687 
z
" style="fill:#d62728;"/>
    </g>
    <g id="text_29">
     <!-- W/FPercent -->
     <defs>
      <path d="M 25.390625 72.90625 
L 33.6875 72.90625 
L 8.296875 -9.28125 
L 0 -9.28125 
z
" id="DejaVuSans-2f"/>
     </defs>
     <g transform="translate(73.8875 251.429687)scale(0.1 -0.1)">
      <use xlink:href="#DejaVuSans-57"/>
      <use x="98.876953" xlink:href="#DejaVuSans-2f"/>
      <use x="132.568359" xlink:href="#DejaVuSans-46"/>
      <use x="190.087891" xlink:href="#DejaVuSans-50"/>
      <use x="250.34375" xlink:href="#DejaVuSans-65"/>
      <use x="311.867188" xlink:href="#DejaVuSans-72"/>
      <use x="352.949219" xlink:href="#DejaVuSans-63"/>
      <use x="407.929688" xlink:href="#DejaVuSans-65"/>
      <use x="469.453125" xlink:href="#DejaVuSans-6e"/>
      <use x="532.832031" xlink:href="#DejaVuSans-74"/>
     </g>
    </g>
   </g>
  </g>
 </g>
 <defs>
  <clipPath id="p44119a8dd4">
   <rect height="424.70625" width="668.8125" x="36.8875" y="14.3"/>
  </clipPath>
 </defs>
</svg>
