<?xml version="1.0" encoding="utf-8" standalone="no"?>
<!DOCTYPE svg PUBLIC "-//W3C//DTD SVG 1.1//EN"
  "http://www.w3.org/Graphics/SVG/1.1/DTD/svg11.dtd">
<!-- Created with matplotlib (http://matplotlib.org/) -->
<svg height="720pt" version="1.1" viewBox="0 0 720 720" width="720pt" xmlns="http://www.w3.org/2000/svg" xmlns:xlink="http://www.w3.org/1999/xlink">
 <defs>
  <style type="text/css">
*{stroke-linecap:butt;stroke-linejoin:round;}
  </style>
 </defs>
 <g id="figure_1">
  <g id="patch_1">
   <path d="M 0 720 
L 720 720 
L 720 0 
L 0 0 
z
" style="fill:#ffffff;"/>
  </g>
  <g id="axes_1">
   <g id="patch_2">
    <path d="M 30.525 399.532812 
L 705.7 399.532812 
L 705.7 14.3 
L 30.525 14.3 
z
" style="fill:#ffffff;"/>
   </g>
   <g id="patch_3">
    <path clip-path="url(#pb6db6252e5)" d="M 49.279861 399.532812 
L 61.783102 399.532812 
L 61.783102 316.303501 
L 49.279861 316.303501 
z
" style="fill:#1f77b4;"/>
   </g>
   <g id="patch_4">
    <path clip-path="url(#pb6db6252e5)" d="M 124.299306 399.532812 
L 136.802546 399.532812 
L 136.802546 238.169862 
L 124.299306 238.169862 
z
" style="fill:#1f77b4;"/>
   </g>
   <g id="patch_5">
    <path clip-path="url(#pb6db6252e5)" d="M 199.31875 399.532812 
L 211.821991 399.532812 
L 211.821991 267.894616 
L 199.31875 267.894616 
z
" style="fill:#1f77b4;"/>
   </g>
   <g id="patch_6">
    <path clip-path="url(#pb6db6252e5)" d="M 274.338194 399.532812 
L 286.841435 399.532812 
L 286.841435 55.574944 
L 274.338194 55.574944 
z
" style="fill:#1f77b4;"/>
   </g>
   <g id="patch_7">
    <path clip-path="url(#pb6db6252e5)" d="M 349.357639 399.532812 
L 361.86088 399.532812 
L 361.86088 278.08596 
L 349.357639 278.08596 
z
" style="fill:#1f77b4;"/>
   </g>
   <g id="patch_8">
    <path clip-path="url(#pb6db6252e5)" d="M 424.377083 399.532812 
L 436.880324 399.532812 
L 436.880324 265.34678 
L 424.377083 265.34678 
z
" style="fill:#1f77b4;"/>
   </g>
   <g id="patch_9">
    <path clip-path="url(#pb6db6252e5)" d="M 499.396528 399.532812 
L 511.899769 399.532812 
L 511.899769 276.387403 
L 499.396528 276.387403 
z
" style="fill:#1f77b4;"/>
   </g>
   <g id="patch_10">
    <path clip-path="url(#pb6db6252e5)" d="M 574.415972 399.532812 
L 586.919213 399.532812 
L 586.919213 268.743895 
L 574.415972 268.743895 
z
" style="fill:#1f77b4;"/>
   </g>
   <g id="patch_11">
    <path clip-path="url(#pb6db6252e5)" d="M 649.435417 399.532812 
L 661.938657 399.532812 
L 661.938657 264.497501 
L 649.435417 264.497501 
z
" style="fill:#1f77b4;"/>
   </g>
   <g id="patch_12">
    <path clip-path="url(#pb6db6252e5)" d="M 61.783102 399.532812 
L 74.286343 399.532812 
L 74.286343 273.839567 
L 61.783102 273.839567 
z
" style="fill:#ff7f0e;"/>
   </g>
   <g id="patch_13">
    <path clip-path="url(#pb6db6252e5)" d="M 136.802546 399.532812 
L 149.305787 399.532812 
L 149.305787 160.036223 
L 136.802546 160.036223 
z
" style="fill:#ff7f0e;"/>
   </g>
   <g id="patch_14">
    <path clip-path="url(#pb6db6252e5)" d="M 211.821991 399.532812 
L 224.325231 399.532812 
L 224.325231 171.076846 
L 211.821991 171.076846 
z
" style="fill:#ff7f0e;"/>
   </g>
   <g id="patch_15">
    <path clip-path="url(#pb6db6252e5)" d="M 286.841435 399.532812 
L 299.344676 399.532812 
L 299.344676 32.64442 
L 286.841435 32.64442 
z
" style="fill:#ff7f0e;"/>
   </g>
   <g id="patch_16">
    <path clip-path="url(#pb6db6252e5)" d="M 361.86088 399.532812 
L 374.36412 399.532812 
L 374.36412 116.72301 
L 361.86088 116.72301 
z
" style="fill:#ff7f0e;"/>
   </g>
   <g id="patch_17">
    <path clip-path="url(#pb6db6252e5)" d="M 436.880324 399.532812 
L 449.383565 399.532812 
L 449.383565 155.789829 
L 436.880324 155.789829 
z
" style="fill:#ff7f0e;"/>
   </g>
   <g id="patch_18">
    <path clip-path="url(#pb6db6252e5)" d="M 511.899769 399.532812 
L 524.403009 399.532812 
L 524.403009 186.363862 
L 511.899769 186.363862 
z
" style="fill:#ff7f0e;"/>
   </g>
   <g id="patch_19">
    <path clip-path="url(#pb6db6252e5)" d="M 586.919213 399.532812 
L 599.422454 399.532812 
L 599.422454 99.737436 
L 586.919213 99.737436 
z
" style="fill:#ff7f0e;"/>
   </g>
   <g id="patch_20">
    <path clip-path="url(#pb6db6252e5)" d="M 661.938657 399.532812 
L 674.441898 399.532812 
L 674.441898 209.294387 
L 661.938657 209.294387 
z
" style="fill:#ff7f0e;"/>
   </g>
   <g id="patch_21">
    <path clip-path="url(#pb6db6252e5)" d="M 74.286343 399.532812 
L 86.789583 399.532812 
L 86.789583 358.767436 
L 74.286343 358.767436 
z
" style="fill:#2ca02c;"/>
   </g>
   <g id="patch_22">
    <path clip-path="url(#pb6db6252e5)" d="M 149.305787 399.532812 
L 161.809028 399.532812 
L 161.809028 357.918157 
L 149.305787 357.918157 
z
" style="fill:#2ca02c;"/>
   </g>
   <g id="patch_23">
    <path clip-path="url(#pb6db6252e5)" d="M 224.325231 399.532812 
L 236.828472 399.532812 
L 236.828472 353.671763 
L 224.325231 353.671763 
z
" style="fill:#2ca02c;"/>
   </g>
   <g id="patch_24">
    <path clip-path="url(#pb6db6252e5)" d="M 299.344676 399.532812 
L 311.847917 399.532812 
L 311.847917 315.454222 
L 299.344676 315.454222 
z
" style="fill:#2ca02c;"/>
   </g>
   <g id="patch_25">
    <path clip-path="url(#pb6db6252e5)" d="M 374.36412 399.532812 
L 386.867361 399.532812 
L 386.867361 343.480419 
L 374.36412 343.480419 
z
" style="fill:#2ca02c;"/>
   </g>
   <g id="patch_26">
    <path clip-path="url(#pb6db6252e5)" d="M 449.383565 399.532812 
L 461.886806 399.532812 
L 461.886806 334.987632 
L 449.383565 334.987632 
z
" style="fill:#2ca02c;"/>
   </g>
   <g id="patch_27">
    <path clip-path="url(#pb6db6252e5)" d="M 524.403009 399.532812 
L 536.90625 399.532812 
L 536.90625 343.480419 
L 524.403009 343.480419 
z
" style="fill:#2ca02c;"/>
   </g>
   <g id="patch_28">
    <path clip-path="url(#pb6db6252e5)" d="M 599.422454 399.532812 
L 611.925694 399.532812 
L 611.925694 306.961436 
L 599.422454 306.961436 
z
" style="fill:#2ca02c;"/>
   </g>
   <g id="patch_29">
    <path clip-path="url(#pb6db6252e5)" d="M 674.441898 399.532812 
L 686.945139 399.532812 
L 686.945139 357.068878 
L 674.441898 357.068878 
z
" style="fill:#2ca02c;"/>
   </g>
   <g id="matplotlib.axis_1">
    <g id="xtick_1">
     <g id="line2d_1">
      <defs>
       <path d="M 0 0 
L 0 3.5 
" id="m57378b1449" style="stroke:#000000;stroke-width:0.8;"/>
      </defs>
      <g>
       <use style="stroke:#000000;stroke-width:0.8;" x="68.034722" xlink:href="#m57378b1449" y="399.532812"/>
      </g>
     </g>
     <g id="text_1">
      <!-- Acton-Boxborough - Acton-Boxborough Regional High -->
      <defs>
       <path d="M 34.1875 63.1875 
L 20.796875 26.90625 
L 47.609375 26.90625 
z
M 28.609375 72.90625 
L 39.796875 72.90625 
L 67.578125 0 
L 57.328125 0 
L 50.6875 18.703125 
L 17.828125 18.703125 
L 11.1875 0 
L 0.78125 0 
z
" id="DejaVuSans-41"/>
       <path d="M 48.78125 52.59375 
L 48.78125 44.1875 
Q 44.96875 46.296875 41.140625 47.34375 
Q 37.3125 48.390625 33.40625 48.390625 
Q 24.65625 48.390625 19.8125 42.84375 
Q 14.984375 37.3125 14.984375 27.296875 
Q 14.984375 17.28125 19.8125 11.734375 
Q 24.65625 6.203125 33.40625 6.203125 
Q 37.3125 6.203125 41.140625 7.25 
Q 44.96875 8.296875 48.78125 10.40625 
L 48.78125 2.09375 
Q 45.015625 0.34375 40.984375 -0.53125 
Q 36.96875 -1.421875 32.421875 -1.421875 
Q 20.0625 -1.421875 12.78125 6.34375 
Q 5.515625 14.109375 5.515625 27.296875 
Q 5.515625 40.671875 12.859375 48.328125 
Q 20.21875 56 33.015625 56 
Q 37.15625 56 41.109375 55.140625 
Q 45.0625 54.296875 48.78125 52.59375 
z
" id="DejaVuSans-63"/>
       <path d="M 18.3125 70.21875 
L 18.3125 54.6875 
L 36.8125 54.6875 
L 36.8125 47.703125 
L 18.3125 47.703125 
L 18.3125 18.015625 
Q 18.3125 11.328125 20.140625 9.421875 
Q 21.96875 7.515625 27.59375 7.515625 
L 36.8125 7.515625 
L 36.8125 0 
L 27.59375 0 
Q 17.1875 0 13.234375 3.875 
Q 9.28125 7.765625 9.28125 18.015625 
L 9.28125 47.703125 
L 2.6875 47.703125 
L 2.6875 54.6875 
L 9.28125 54.6875 
L 9.28125 70.21875 
z
" id="DejaVuSans-74"/>
       <path d="M 30.609375 48.390625 
Q 23.390625 48.390625 19.1875 42.75 
Q 14.984375 37.109375 14.984375 27.296875 
Q 14.984375 17.484375 19.15625 11.84375 
Q 23.34375 6.203125 30.609375 6.203125 
Q 37.796875 6.203125 41.984375 11.859375 
Q 46.1875 17.53125 46.1875 27.296875 
Q 46.1875 37.015625 41.984375 42.703125 
Q 37.796875 48.390625 30.609375 48.390625 
z
M 30.609375 56 
Q 42.328125 56 49.015625 48.375 
Q 55.71875 40.765625 55.71875 27.296875 
Q 55.71875 13.875 49.015625 6.21875 
Q 42.328125 -1.421875 30.609375 -1.421875 
Q 18.84375 -1.421875 12.171875 6.21875 
Q 5.515625 13.875 5.515625 27.296875 
Q 5.515625 40.765625 12.171875 48.375 
Q 18.84375 56 30.609375 56 
z
" id="DejaVuSans-6f"/>
       <path d="M 54.890625 33.015625 
L 54.890625 0 
L 45.90625 0 
L 45.90625 32.71875 
Q 45.90625 40.484375 42.875 44.328125 
Q 39.84375 48.1875 33.796875 48.1875 
Q 26.515625 48.1875 22.3125 43.546875 
Q 18.109375 38.921875 18.109375 30.90625 
L 18.109375 0 
L 9.078125 0 
L 9.078125 54.6875 
L 18.109375 54.6875 
L 18.109375 46.1875 
Q 21.34375 51.125 25.703125 53.5625 
Q 30.078125 56 35.796875 56 
Q 45.21875 56 50.046875 50.171875 
Q 54.890625 44.34375 54.890625 33.015625 
z
" id="DejaVuSans-6e"/>
       <path d="M 4.890625 31.390625 
L 31.203125 31.390625 
L 31.203125 23.390625 
L 4.890625 23.390625 
z
" id="DejaVuSans-2d"/>
       <path d="M 19.671875 34.8125 
L 19.671875 8.109375 
L 35.5 8.109375 
Q 43.453125 8.109375 47.28125 11.40625 
Q 51.125 14.703125 51.125 21.484375 
Q 51.125 28.328125 47.28125 31.5625 
Q 43.453125 34.8125 35.5 34.8125 
z
M 19.671875 64.796875 
L 19.671875 42.828125 
L 34.28125 42.828125 
Q 41.5 42.828125 45.03125 45.53125 
Q 48.578125 48.25 48.578125 53.8125 
Q 48.578125 59.328125 45.03125 62.0625 
Q 41.5 64.796875 34.28125 64.796875 
z
M 9.8125 72.90625 
L 35.015625 72.90625 
Q 46.296875 72.90625 52.390625 68.21875 
Q 58.5 63.53125 58.5 54.890625 
Q 58.5 48.1875 55.375 44.234375 
Q 52.25 40.28125 46.1875 39.3125 
Q 53.46875 37.75 57.5 32.78125 
Q 61.53125 27.828125 61.53125 20.40625 
Q 61.53125 10.640625 54.890625 5.3125 
Q 48.25 0 35.984375 0 
L 9.8125 0 
z
" id="DejaVuSans-42"/>
       <path d="M 54.890625 54.6875 
L 35.109375 28.078125 
L 55.90625 0 
L 45.3125 0 
L 29.390625 21.484375 
L 13.484375 0 
L 2.875 0 
L 24.125 28.609375 
L 4.6875 54.6875 
L 15.28125 54.6875 
L 29.78125 35.203125 
L 44.28125 54.6875 
z
" id="DejaVuSans-78"/>
       <path d="M 48.6875 27.296875 
Q 48.6875 37.203125 44.609375 42.84375 
Q 40.53125 48.484375 33.40625 48.484375 
Q 26.265625 48.484375 22.1875 42.84375 
Q 18.109375 37.203125 18.109375 27.296875 
Q 18.109375 17.390625 22.1875 11.75 
Q 26.265625 6.109375 33.40625 6.109375 
Q 40.53125 6.109375 44.609375 11.75 
Q 48.6875 17.390625 48.6875 27.296875 
z
M 18.109375 46.390625 
Q 20.953125 51.265625 25.265625 53.625 
Q 29.59375 56 35.59375 56 
Q 45.5625 56 51.78125 48.09375 
Q 58.015625 40.1875 58.015625 27.296875 
Q 58.015625 14.40625 51.78125 6.484375 
Q 45.5625 -1.421875 35.59375 -1.421875 
Q 29.59375 -1.421875 25.265625 0.953125 
Q 20.953125 3.328125 18.109375 8.203125 
L 18.109375 0 
L 9.078125 0 
L 9.078125 75.984375 
L 18.109375 75.984375 
z
" id="DejaVuSans-62"/>
       <path d="M 41.109375 46.296875 
Q 39.59375 47.171875 37.8125 47.578125 
Q 36.03125 48 33.890625 48 
Q 26.265625 48 22.1875 43.046875 
Q 18.109375 38.09375 18.109375 28.8125 
L 18.109375 0 
L 9.078125 0 
L 9.078125 54.6875 
L 18.109375 54.6875 
L 18.109375 46.1875 
Q 20.953125 51.171875 25.484375 53.578125 
Q 30.03125 56 36.53125 56 
Q 37.453125 56 38.578125 55.875 
Q 39.703125 55.765625 41.0625 55.515625 
z
" id="DejaVuSans-72"/>
       <path d="M 8.5 21.578125 
L 8.5 54.6875 
L 17.484375 54.6875 
L 17.484375 21.921875 
Q 17.484375 14.15625 20.5 10.265625 
Q 23.53125 6.390625 29.59375 6.390625 
Q 36.859375 6.390625 41.078125 11.03125 
Q 45.3125 15.671875 45.3125 23.6875 
L 45.3125 54.6875 
L 54.296875 54.6875 
L 54.296875 0 
L 45.3125 0 
L 45.3125 8.40625 
Q 42.046875 3.421875 37.71875 1 
Q 33.40625 -1.421875 27.6875 -1.421875 
Q 18.265625 -1.421875 13.375 4.4375 
Q 8.5 10.296875 8.5 21.578125 
z
M 31.109375 56 
z
" id="DejaVuSans-75"/>
       <path d="M 45.40625 27.984375 
Q 45.40625 37.75 41.375 43.109375 
Q 37.359375 48.484375 30.078125 48.484375 
Q 22.859375 48.484375 18.828125 43.109375 
Q 14.796875 37.75 14.796875 27.984375 
Q 14.796875 18.265625 18.828125 12.890625 
Q 22.859375 7.515625 30.078125 7.515625 
Q 37.359375 7.515625 41.375 12.890625 
Q 45.40625 18.265625 45.40625 27.984375 
z
M 54.390625 6.78125 
Q 54.390625 -7.171875 48.1875 -13.984375 
Q 42 -20.796875 29.203125 -20.796875 
Q 24.46875 -20.796875 20.265625 -20.09375 
Q 16.0625 -19.390625 12.109375 -17.921875 
L 12.109375 -9.1875 
Q 16.0625 -11.328125 19.921875 -12.34375 
Q 23.78125 -13.375 27.78125 -13.375 
Q 36.625 -13.375 41.015625 -8.765625 
Q 45.40625 -4.15625 45.40625 5.171875 
L 45.40625 9.625 
Q 42.625 4.78125 38.28125 2.390625 
Q 33.9375 0 27.875 0 
Q 17.828125 0 11.671875 7.65625 
Q 5.515625 15.328125 5.515625 27.984375 
Q 5.515625 40.671875 11.671875 48.328125 
Q 17.828125 56 27.875 56 
Q 33.9375 56 38.28125 53.609375 
Q 42.625 51.21875 45.40625 46.390625 
L 45.40625 54.6875 
L 54.390625 54.6875 
z
" id="DejaVuSans-67"/>
       <path d="M 54.890625 33.015625 
L 54.890625 0 
L 45.90625 0 
L 45.90625 32.71875 
Q 45.90625 40.484375 42.875 44.328125 
Q 39.84375 48.1875 33.796875 48.1875 
Q 26.515625 48.1875 22.3125 43.546875 
Q 18.109375 38.921875 18.109375 30.90625 
L 18.109375 0 
L 9.078125 0 
L 9.078125 75.984375 
L 18.109375 75.984375 
L 18.109375 46.1875 
Q 21.34375 51.125 25.703125 53.5625 
Q 30.078125 56 35.796875 56 
Q 45.21875 56 50.046875 50.171875 
Q 54.890625 44.34375 54.890625 33.015625 
z
" id="DejaVuSans-68"/>
       <path id="DejaVuSans-20"/>
       <path d="M 44.390625 34.1875 
Q 47.5625 33.109375 50.5625 29.59375 
Q 53.5625 26.078125 56.59375 19.921875 
L 66.609375 0 
L 56 0 
L 46.6875 18.703125 
Q 43.0625 26.03125 39.671875 28.421875 
Q 36.28125 30.8125 30.421875 30.8125 
L 19.671875 30.8125 
L 19.671875 0 
L 9.8125 0 
L 9.8125 72.90625 
L 32.078125 72.90625 
Q 44.578125 72.90625 50.734375 67.671875 
Q 56.890625 62.453125 56.890625 51.90625 
Q 56.890625 45.015625 53.6875 40.46875 
Q 50.484375 35.9375 44.390625 34.1875 
z
M 19.671875 64.796875 
L 19.671875 38.921875 
L 32.078125 38.921875 
Q 39.203125 38.921875 42.84375 42.21875 
Q 46.484375 45.515625 46.484375 51.90625 
Q 46.484375 58.296875 42.84375 61.546875 
Q 39.203125 64.796875 32.078125 64.796875 
z
" id="DejaVuSans-52"/>
       <path d="M 56.203125 29.59375 
L 56.203125 25.203125 
L 14.890625 25.203125 
Q 15.484375 15.921875 20.484375 11.0625 
Q 25.484375 6.203125 34.421875 6.203125 
Q 39.59375 6.203125 44.453125 7.46875 
Q 49.3125 8.734375 54.109375 11.28125 
L 54.109375 2.78125 
Q 49.265625 0.734375 44.1875 -0.34375 
Q 39.109375 -1.421875 33.890625 -1.421875 
Q 20.796875 -1.421875 13.15625 6.1875 
Q 5.515625 13.8125 5.515625 26.8125 
Q 5.515625 40.234375 12.765625 48.109375 
Q 20.015625 56 32.328125 56 
Q 43.359375 56 49.78125 48.890625 
Q 56.203125 41.796875 56.203125 29.59375 
z
M 47.21875 32.234375 
Q 47.125 39.59375 43.09375 43.984375 
Q 39.0625 48.390625 32.421875 48.390625 
Q 24.90625 48.390625 20.390625 44.140625 
Q 15.875 39.890625 15.1875 32.171875 
z
" id="DejaVuSans-65"/>
       <path d="M 9.421875 54.6875 
L 18.40625 54.6875 
L 18.40625 0 
L 9.421875 0 
z
M 9.421875 75.984375 
L 18.40625 75.984375 
L 18.40625 64.59375 
L 9.421875 64.59375 
z
" id="DejaVuSans-69"/>
       <path d="M 34.28125 27.484375 
Q 23.390625 27.484375 19.1875 25 
Q 14.984375 22.515625 14.984375 16.5 
Q 14.984375 11.71875 18.140625 8.90625 
Q 21.296875 6.109375 26.703125 6.109375 
Q 34.1875 6.109375 38.703125 11.40625 
Q 43.21875 16.703125 43.21875 25.484375 
L 43.21875 27.484375 
z
M 52.203125 31.203125 
L 52.203125 0 
L 43.21875 0 
L 43.21875 8.296875 
Q 40.140625 3.328125 35.546875 0.953125 
Q 30.953125 -1.421875 24.3125 -1.421875 
Q 15.921875 -1.421875 10.953125 3.296875 
Q 6 8.015625 6 15.921875 
Q 6 25.140625 12.171875 29.828125 
Q 18.359375 34.515625 30.609375 34.515625 
L 43.21875 34.515625 
L 43.21875 35.40625 
Q 43.21875 41.609375 39.140625 45 
Q 35.0625 48.390625 27.6875 48.390625 
Q 23 48.390625 18.546875 47.265625 
Q 14.109375 46.140625 10.015625 43.890625 
L 10.015625 52.203125 
Q 14.9375 54.109375 19.578125 55.046875 
Q 24.21875 56 28.609375 56 
Q 40.484375 56 46.34375 49.84375 
Q 52.203125 43.703125 52.203125 31.203125 
z
" id="DejaVuSans-61"/>
       <path d="M 9.421875 75.984375 
L 18.40625 75.984375 
L 18.40625 0 
L 9.421875 0 
z
" id="DejaVuSans-6c"/>
       <path d="M 9.8125 72.90625 
L 19.671875 72.90625 
L 19.671875 43.015625 
L 55.515625 43.015625 
L 55.515625 72.90625 
L 65.375 72.90625 
L 65.375 0 
L 55.515625 0 
L 55.515625 34.71875 
L 19.671875 34.71875 
L 19.671875 0 
L 9.8125 0 
z
" id="DejaVuSans-48"/>
      </defs>
      <g transform="translate(70.794097 675.278125)rotate(-90)scale(0.1 -0.1)">
       <use xlink:href="#DejaVuSans-41"/>
       <use x="68.392578" xlink:href="#DejaVuSans-63"/>
       <use x="123.373047" xlink:href="#DejaVuSans-74"/>
       <use x="162.582031" xlink:href="#DejaVuSans-6f"/>
       <use x="223.763672" xlink:href="#DejaVuSans-6e"/>
       <use x="287.142578" xlink:href="#DejaVuSans-2d"/>
       <use x="323.179688" xlink:href="#DejaVuSans-42"/>
       <use x="391.783203" xlink:href="#DejaVuSans-6f"/>
       <use x="452.917969" xlink:href="#DejaVuSans-78"/>
       <use x="512.097656" xlink:href="#DejaVuSans-62"/>
       <use x="575.574219" xlink:href="#DejaVuSans-6f"/>
       <use x="636.755859" xlink:href="#DejaVuSans-72"/>
       <use x="677.837891" xlink:href="#DejaVuSans-6f"/>
       <use x="739.019531" xlink:href="#DejaVuSans-75"/>
       <use x="802.398438" xlink:href="#DejaVuSans-67"/>
       <use x="865.875" xlink:href="#DejaVuSans-68"/>
       <use x="929.253906" xlink:href="#DejaVuSans-20"/>
       <use x="961.041016" xlink:href="#DejaVuSans-2d"/>
       <use x="997.125" xlink:href="#DejaVuSans-20"/>
       <use x="1028.912109" xlink:href="#DejaVuSans-41"/>
       <use x="1097.304688" xlink:href="#DejaVuSans-63"/>
       <use x="1152.285156" xlink:href="#DejaVuSans-74"/>
       <use x="1191.494141" xlink:href="#DejaVuSans-6f"/>
       <use x="1252.675781" xlink:href="#DejaVuSans-6e"/>
       <use x="1316.054688" xlink:href="#DejaVuSans-2d"/>
       <use x="1352.091797" xlink:href="#DejaVuSans-42"/>
       <use x="1420.695312" xlink:href="#DejaVuSans-6f"/>
       <use x="1481.830078" xlink:href="#DejaVuSans-78"/>
       <use x="1541.009766" xlink:href="#DejaVuSans-62"/>
       <use x="1604.486328" xlink:href="#DejaVuSans-6f"/>
       <use x="1665.667969" xlink:href="#DejaVuSans-72"/>
       <use x="1706.75" xlink:href="#DejaVuSans-6f"/>
       <use x="1767.931641" xlink:href="#DejaVuSans-75"/>
       <use x="1831.310547" xlink:href="#DejaVuSans-67"/>
       <use x="1894.787109" xlink:href="#DejaVuSans-68"/>
       <use x="1958.166016" xlink:href="#DejaVuSans-20"/>
       <use x="1989.953125" xlink:href="#DejaVuSans-52"/>
       <use x="2059.373047" xlink:href="#DejaVuSans-65"/>
       <use x="2120.896484" xlink:href="#DejaVuSans-67"/>
       <use x="2184.373047" xlink:href="#DejaVuSans-69"/>
       <use x="2212.15625" xlink:href="#DejaVuSans-6f"/>
       <use x="2273.337891" xlink:href="#DejaVuSans-6e"/>
       <use x="2336.716797" xlink:href="#DejaVuSans-61"/>
       <use x="2397.996094" xlink:href="#DejaVuSans-6c"/>
       <use x="2425.779297" xlink:href="#DejaVuSans-20"/>
       <use x="2457.566406" xlink:href="#DejaVuSans-48"/>
       <use x="2532.761719" xlink:href="#DejaVuSans-69"/>
       <use x="2560.544922" xlink:href="#DejaVuSans-67"/>
       <use x="2624.021484" xlink:href="#DejaVuSans-68"/>
      </g>
     </g>
    </g>
    <g id="xtick_2">
     <g id="line2d_2">
      <g>
       <use style="stroke:#000000;stroke-width:0.8;" x="143.054167" xlink:href="#m57378b1449" y="399.532812"/>
      </g>
     </g>
     <g id="text_2">
      <!-- Acton-Boxborough - Blanchard Memorial School -->
      <defs>
       <path d="M 45.40625 46.390625 
L 45.40625 75.984375 
L 54.390625 75.984375 
L 54.390625 0 
L 45.40625 0 
L 45.40625 8.203125 
Q 42.578125 3.328125 38.25 0.953125 
Q 33.9375 -1.421875 27.875 -1.421875 
Q 17.96875 -1.421875 11.734375 6.484375 
Q 5.515625 14.40625 5.515625 27.296875 
Q 5.515625 40.1875 11.734375 48.09375 
Q 17.96875 56 27.875 56 
Q 33.9375 56 38.25 53.625 
Q 42.578125 51.265625 45.40625 46.390625 
z
M 14.796875 27.296875 
Q 14.796875 17.390625 18.875 11.75 
Q 22.953125 6.109375 30.078125 6.109375 
Q 37.203125 6.109375 41.296875 11.75 
Q 45.40625 17.390625 45.40625 27.296875 
Q 45.40625 37.203125 41.296875 42.84375 
Q 37.203125 48.484375 30.078125 48.484375 
Q 22.953125 48.484375 18.875 42.84375 
Q 14.796875 37.203125 14.796875 27.296875 
z
" id="DejaVuSans-64"/>
       <path d="M 9.8125 72.90625 
L 24.515625 72.90625 
L 43.109375 23.296875 
L 61.8125 72.90625 
L 76.515625 72.90625 
L 76.515625 0 
L 66.890625 0 
L 66.890625 64.015625 
L 48.09375 14.015625 
L 38.1875 14.015625 
L 19.390625 64.015625 
L 19.390625 0 
L 9.8125 0 
z
" id="DejaVuSans-4d"/>
       <path d="M 52 44.1875 
Q 55.375 50.25 60.0625 53.125 
Q 64.75 56 71.09375 56 
Q 79.640625 56 84.28125 50.015625 
Q 88.921875 44.046875 88.921875 33.015625 
L 88.921875 0 
L 79.890625 0 
L 79.890625 32.71875 
Q 79.890625 40.578125 77.09375 44.375 
Q 74.3125 48.1875 68.609375 48.1875 
Q 61.625 48.1875 57.5625 43.546875 
Q 53.515625 38.921875 53.515625 30.90625 
L 53.515625 0 
L 44.484375 0 
L 44.484375 32.71875 
Q 44.484375 40.625 41.703125 44.40625 
Q 38.921875 48.1875 33.109375 48.1875 
Q 26.21875 48.1875 22.15625 43.53125 
Q 18.109375 38.875 18.109375 30.90625 
L 18.109375 0 
L 9.078125 0 
L 9.078125 54.6875 
L 18.109375 54.6875 
L 18.109375 46.1875 
Q 21.1875 51.21875 25.484375 53.609375 
Q 29.78125 56 35.6875 56 
Q 41.65625 56 45.828125 52.96875 
Q 50 49.953125 52 44.1875 
z
" id="DejaVuSans-6d"/>
       <path d="M 53.515625 70.515625 
L 53.515625 60.890625 
Q 47.90625 63.578125 42.921875 64.890625 
Q 37.9375 66.21875 33.296875 66.21875 
Q 25.25 66.21875 20.875 63.09375 
Q 16.5 59.96875 16.5 54.203125 
Q 16.5 49.359375 19.40625 46.890625 
Q 22.3125 44.4375 30.421875 42.921875 
L 36.375 41.703125 
Q 47.40625 39.59375 52.65625 34.296875 
Q 57.90625 29 57.90625 20.125 
Q 57.90625 9.515625 50.796875 4.046875 
Q 43.703125 -1.421875 29.984375 -1.421875 
Q 24.8125 -1.421875 18.96875 -0.25 
Q 13.140625 0.921875 6.890625 3.21875 
L 6.890625 13.375 
Q 12.890625 10.015625 18.65625 8.296875 
Q 24.421875 6.59375 29.984375 6.59375 
Q 38.421875 6.59375 43.015625 9.90625 
Q 47.609375 13.234375 47.609375 19.390625 
Q 47.609375 24.75 44.3125 27.78125 
Q 41.015625 30.8125 33.5 32.328125 
L 27.484375 33.5 
Q 16.453125 35.6875 11.515625 40.375 
Q 6.59375 45.0625 6.59375 53.421875 
Q 6.59375 63.09375 13.40625 68.65625 
Q 20.21875 74.21875 32.171875 74.21875 
Q 37.3125 74.21875 42.625 73.28125 
Q 47.953125 72.359375 53.515625 70.515625 
z
" id="DejaVuSans-53"/>
      </defs>
      <g transform="translate(145.813542 645.94375)rotate(-90)scale(0.1 -0.1)">
       <use xlink:href="#DejaVuSans-41"/>
       <use x="68.392578" xlink:href="#DejaVuSans-63"/>
       <use x="123.373047" xlink:href="#DejaVuSans-74"/>
       <use x="162.582031" xlink:href="#DejaVuSans-6f"/>
       <use x="223.763672" xlink:href="#DejaVuSans-6e"/>
       <use x="287.142578" xlink:href="#DejaVuSans-2d"/>
       <use x="323.179688" xlink:href="#DejaVuSans-42"/>
       <use x="391.783203" xlink:href="#DejaVuSans-6f"/>
       <use x="452.917969" xlink:href="#DejaVuSans-78"/>
       <use x="512.097656" xlink:href="#DejaVuSans-62"/>
       <use x="575.574219" xlink:href="#DejaVuSans-6f"/>
       <use x="636.755859" xlink:href="#DejaVuSans-72"/>
       <use x="677.837891" xlink:href="#DejaVuSans-6f"/>
       <use x="739.019531" xlink:href="#DejaVuSans-75"/>
       <use x="802.398438" xlink:href="#DejaVuSans-67"/>
       <use x="865.875" xlink:href="#DejaVuSans-68"/>
       <use x="929.253906" xlink:href="#DejaVuSans-20"/>
       <use x="961.041016" xlink:href="#DejaVuSans-2d"/>
       <use x="997.125" xlink:href="#DejaVuSans-20"/>
       <use x="1028.912109" xlink:href="#DejaVuSans-42"/>
       <use x="1097.515625" xlink:href="#DejaVuSans-6c"/>
       <use x="1125.298828" xlink:href="#DejaVuSans-61"/>
       <use x="1186.578125" xlink:href="#DejaVuSans-6e"/>
       <use x="1249.957031" xlink:href="#DejaVuSans-63"/>
       <use x="1304.9375" xlink:href="#DejaVuSans-68"/>
       <use x="1368.316406" xlink:href="#DejaVuSans-61"/>
       <use x="1429.595703" xlink:href="#DejaVuSans-72"/>
       <use x="1470.693359" xlink:href="#DejaVuSans-64"/>
       <use x="1534.169922" xlink:href="#DejaVuSans-20"/>
       <use x="1565.957031" xlink:href="#DejaVuSans-4d"/>
       <use x="1652.236328" xlink:href="#DejaVuSans-65"/>
       <use x="1713.759766" xlink:href="#DejaVuSans-6d"/>
       <use x="1811.171875" xlink:href="#DejaVuSans-6f"/>
       <use x="1872.353516" xlink:href="#DejaVuSans-72"/>
       <use x="1913.466797" xlink:href="#DejaVuSans-69"/>
       <use x="1941.25" xlink:href="#DejaVuSans-61"/>
       <use x="2002.529297" xlink:href="#DejaVuSans-6c"/>
       <use x="2030.3125" xlink:href="#DejaVuSans-20"/>
       <use x="2062.099609" xlink:href="#DejaVuSans-53"/>
       <use x="2125.576172" xlink:href="#DejaVuSans-63"/>
       <use x="2180.556641" xlink:href="#DejaVuSans-68"/>
       <use x="2243.935547" xlink:href="#DejaVuSans-6f"/>
       <use x="2305.117188" xlink:href="#DejaVuSans-6f"/>
       <use x="2366.298828" xlink:href="#DejaVuSans-6c"/>
      </g>
     </g>
    </g>
    <g id="xtick_3">
     <g id="line2d_3">
      <g>
       <use style="stroke:#000000;stroke-width:0.8;" x="218.073611" xlink:href="#m57378b1449" y="399.532812"/>
      </g>
     </g>
     <g id="text_3">
      <!-- Acton-Boxborough - C.T. Douglas Elementary School -->
      <defs>
       <path d="M 64.40625 67.28125 
L 64.40625 56.890625 
Q 59.421875 61.53125 53.78125 63.8125 
Q 48.140625 66.109375 41.796875 66.109375 
Q 29.296875 66.109375 22.65625 58.46875 
Q 16.015625 50.828125 16.015625 36.375 
Q 16.015625 21.96875 22.65625 14.328125 
Q 29.296875 6.6875 41.796875 6.6875 
Q 48.140625 6.6875 53.78125 8.984375 
Q 59.421875 11.28125 64.40625 15.921875 
L 64.40625 5.609375 
Q 59.234375 2.09375 53.4375 0.328125 
Q 47.65625 -1.421875 41.21875 -1.421875 
Q 24.65625 -1.421875 15.125 8.703125 
Q 5.609375 18.84375 5.609375 36.375 
Q 5.609375 53.953125 15.125 64.078125 
Q 24.65625 74.21875 41.21875 74.21875 
Q 47.75 74.21875 53.53125 72.484375 
Q 59.328125 70.75 64.40625 67.28125 
z
" id="DejaVuSans-43"/>
       <path d="M 10.6875 12.40625 
L 21 12.40625 
L 21 0 
L 10.6875 0 
z
" id="DejaVuSans-2e"/>
       <path d="M -0.296875 72.90625 
L 61.375 72.90625 
L 61.375 64.59375 
L 35.5 64.59375 
L 35.5 0 
L 25.59375 0 
L 25.59375 64.59375 
L -0.296875 64.59375 
z
" id="DejaVuSans-54"/>
       <path d="M 19.671875 64.796875 
L 19.671875 8.109375 
L 31.59375 8.109375 
Q 46.6875 8.109375 53.6875 14.9375 
Q 60.6875 21.78125 60.6875 36.53125 
Q 60.6875 51.171875 53.6875 57.984375 
Q 46.6875 64.796875 31.59375 64.796875 
z
M 9.8125 72.90625 
L 30.078125 72.90625 
Q 51.265625 72.90625 61.171875 64.09375 
Q 71.09375 55.28125 71.09375 36.53125 
Q 71.09375 17.671875 61.125 8.828125 
Q 51.171875 0 30.078125 0 
L 9.8125 0 
z
" id="DejaVuSans-44"/>
       <path d="M 44.28125 53.078125 
L 44.28125 44.578125 
Q 40.484375 46.53125 36.375 47.5 
Q 32.28125 48.484375 27.875 48.484375 
Q 21.1875 48.484375 17.84375 46.4375 
Q 14.5 44.390625 14.5 40.28125 
Q 14.5 37.15625 16.890625 35.375 
Q 19.28125 33.59375 26.515625 31.984375 
L 29.59375 31.296875 
Q 39.15625 29.25 43.1875 25.515625 
Q 47.21875 21.78125 47.21875 15.09375 
Q 47.21875 7.46875 41.1875 3.015625 
Q 35.15625 -1.421875 24.609375 -1.421875 
Q 20.21875 -1.421875 15.453125 -0.5625 
Q 10.6875 0.296875 5.421875 2 
L 5.421875 11.28125 
Q 10.40625 8.6875 15.234375 7.390625 
Q 20.0625 6.109375 24.8125 6.109375 
Q 31.15625 6.109375 34.5625 8.28125 
Q 37.984375 10.453125 37.984375 14.40625 
Q 37.984375 18.0625 35.515625 20.015625 
Q 33.0625 21.96875 24.703125 23.78125 
L 21.578125 24.515625 
Q 13.234375 26.265625 9.515625 29.90625 
Q 5.8125 33.546875 5.8125 39.890625 
Q 5.8125 47.609375 11.28125 51.796875 
Q 16.75 56 26.8125 56 
Q 31.78125 56 36.171875 55.265625 
Q 40.578125 54.546875 44.28125 53.078125 
z
" id="DejaVuSans-73"/>
       <path d="M 9.8125 72.90625 
L 55.90625 72.90625 
L 55.90625 64.59375 
L 19.671875 64.59375 
L 19.671875 43.015625 
L 54.390625 43.015625 
L 54.390625 34.71875 
L 19.671875 34.71875 
L 19.671875 8.296875 
L 56.78125 8.296875 
L 56.78125 0 
L 9.8125 0 
z
" id="DejaVuSans-45"/>
       <path d="M 32.171875 -5.078125 
Q 28.375 -14.84375 24.75 -17.8125 
Q 21.140625 -20.796875 15.09375 -20.796875 
L 7.90625 -20.796875 
L 7.90625 -13.28125 
L 13.1875 -13.28125 
Q 16.890625 -13.28125 18.9375 -11.515625 
Q 21 -9.765625 23.484375 -3.21875 
L 25.09375 0.875 
L 2.984375 54.6875 
L 12.5 54.6875 
L 29.59375 11.921875 
L 46.6875 54.6875 
L 56.203125 54.6875 
z
" id="DejaVuSans-79"/>
      </defs>
      <g transform="translate(220.832986 669.76875)rotate(-90)scale(0.1 -0.1)">
       <use xlink:href="#DejaVuSans-41"/>
       <use x="68.392578" xlink:href="#DejaVuSans-63"/>
       <use x="123.373047" xlink:href="#DejaVuSans-74"/>
       <use x="162.582031" xlink:href="#DejaVuSans-6f"/>
       <use x="223.763672" xlink:href="#DejaVuSans-6e"/>
       <use x="287.142578" xlink:href="#DejaVuSans-2d"/>
       <use x="323.179688" xlink:href="#DejaVuSans-42"/>
       <use x="391.783203" xlink:href="#DejaVuSans-6f"/>
       <use x="452.917969" xlink:href="#DejaVuSans-78"/>
       <use x="512.097656" xlink:href="#DejaVuSans-62"/>
       <use x="575.574219" xlink:href="#DejaVuSans-6f"/>
       <use x="636.755859" xlink:href="#DejaVuSans-72"/>
       <use x="677.837891" xlink:href="#DejaVuSans-6f"/>
       <use x="739.019531" xlink:href="#DejaVuSans-75"/>
       <use x="802.398438" xlink:href="#DejaVuSans-67"/>
       <use x="865.875" xlink:href="#DejaVuSans-68"/>
       <use x="929.253906" xlink:href="#DejaVuSans-20"/>
       <use x="961.041016" xlink:href="#DejaVuSans-2d"/>
       <use x="997.125" xlink:href="#DejaVuSans-20"/>
       <use x="1028.912109" xlink:href="#DejaVuSans-43"/>
       <use x="1098.736328" xlink:href="#DejaVuSans-2e"/>
       <use x="1130.523438" xlink:href="#DejaVuSans-54"/>
       <use x="1191.435547" xlink:href="#DejaVuSans-2e"/>
       <use x="1223.222656" xlink:href="#DejaVuSans-20"/>
       <use x="1255.009766" xlink:href="#DejaVuSans-44"/>
       <use x="1332.011719" xlink:href="#DejaVuSans-6f"/>
       <use x="1393.193359" xlink:href="#DejaVuSans-75"/>
       <use x="1456.572266" xlink:href="#DejaVuSans-67"/>
       <use x="1520.048828" xlink:href="#DejaVuSans-6c"/>
       <use x="1547.832031" xlink:href="#DejaVuSans-61"/>
       <use x="1609.111328" xlink:href="#DejaVuSans-73"/>
       <use x="1661.210938" xlink:href="#DejaVuSans-20"/>
       <use x="1692.998047" xlink:href="#DejaVuSans-45"/>
       <use x="1756.181641" xlink:href="#DejaVuSans-6c"/>
       <use x="1783.964844" xlink:href="#DejaVuSans-65"/>
       <use x="1845.488281" xlink:href="#DejaVuSans-6d"/>
       <use x="1942.900391" xlink:href="#DejaVuSans-65"/>
       <use x="2004.423828" xlink:href="#DejaVuSans-6e"/>
       <use x="2067.802734" xlink:href="#DejaVuSans-74"/>
       <use x="2107.011719" xlink:href="#DejaVuSans-61"/>
       <use x="2168.291016" xlink:href="#DejaVuSans-72"/>
       <use x="2209.404297" xlink:href="#DejaVuSans-79"/>
       <use x="2268.583984" xlink:href="#DejaVuSans-20"/>
       <use x="2300.371094" xlink:href="#DejaVuSans-53"/>
       <use x="2363.847656" xlink:href="#DejaVuSans-63"/>
       <use x="2418.828125" xlink:href="#DejaVuSans-68"/>
       <use x="2482.207031" xlink:href="#DejaVuSans-6f"/>
       <use x="2543.388672" xlink:href="#DejaVuSans-6f"/>
       <use x="2604.570312" xlink:href="#DejaVuSans-6c"/>
      </g>
     </g>
    </g>
    <g id="xtick_4">
     <g id="line2d_4">
      <g>
       <use style="stroke:#000000;stroke-width:0.8;" x="293.093056" xlink:href="#m57378b1449" y="399.532812"/>
      </g>
     </g>
     <g id="text_4">
      <!-- Acton-Boxborough - Carol Huebner Early Childhood Program -->
      <defs>
       <path d="M 19.671875 64.796875 
L 19.671875 37.40625 
L 32.078125 37.40625 
Q 38.96875 37.40625 42.71875 40.96875 
Q 46.484375 44.53125 46.484375 51.125 
Q 46.484375 57.671875 42.71875 61.234375 
Q 38.96875 64.796875 32.078125 64.796875 
z
M 9.8125 72.90625 
L 32.078125 72.90625 
Q 44.34375 72.90625 50.609375 67.359375 
Q 56.890625 61.8125 56.890625 51.125 
Q 56.890625 40.328125 50.609375 34.8125 
Q 44.34375 29.296875 32.078125 29.296875 
L 19.671875 29.296875 
L 19.671875 0 
L 9.8125 0 
z
" id="DejaVuSans-50"/>
      </defs>
      <g transform="translate(295.852431 709.2)rotate(-90)scale(0.1 -0.1)">
       <use xlink:href="#DejaVuSans-41"/>
       <use x="68.392578" xlink:href="#DejaVuSans-63"/>
       <use x="123.373047" xlink:href="#DejaVuSans-74"/>
       <use x="162.582031" xlink:href="#DejaVuSans-6f"/>
       <use x="223.763672" xlink:href="#DejaVuSans-6e"/>
       <use x="287.142578" xlink:href="#DejaVuSans-2d"/>
       <use x="323.179688" xlink:href="#DejaVuSans-42"/>
       <use x="391.783203" xlink:href="#DejaVuSans-6f"/>
       <use x="452.917969" xlink:href="#DejaVuSans-78"/>
       <use x="512.097656" xlink:href="#DejaVuSans-62"/>
       <use x="575.574219" xlink:href="#DejaVuSans-6f"/>
       <use x="636.755859" xlink:href="#DejaVuSans-72"/>
       <use x="677.837891" xlink:href="#DejaVuSans-6f"/>
       <use x="739.019531" xlink:href="#DejaVuSans-75"/>
       <use x="802.398438" xlink:href="#DejaVuSans-67"/>
       <use x="865.875" xlink:href="#DejaVuSans-68"/>
       <use x="929.253906" xlink:href="#DejaVuSans-20"/>
       <use x="961.041016" xlink:href="#DejaVuSans-2d"/>
       <use x="997.125" xlink:href="#DejaVuSans-20"/>
       <use x="1028.912109" xlink:href="#DejaVuSans-43"/>
       <use x="1098.736328" xlink:href="#DejaVuSans-61"/>
       <use x="1160.015625" xlink:href="#DejaVuSans-72"/>
       <use x="1201.097656" xlink:href="#DejaVuSans-6f"/>
       <use x="1262.279297" xlink:href="#DejaVuSans-6c"/>
       <use x="1290.0625" xlink:href="#DejaVuSans-20"/>
       <use x="1321.849609" xlink:href="#DejaVuSans-48"/>
       <use x="1397.044922" xlink:href="#DejaVuSans-75"/>
       <use x="1460.423828" xlink:href="#DejaVuSans-65"/>
       <use x="1521.947266" xlink:href="#DejaVuSans-62"/>
       <use x="1585.423828" xlink:href="#DejaVuSans-6e"/>
       <use x="1648.802734" xlink:href="#DejaVuSans-65"/>
       <use x="1710.326172" xlink:href="#DejaVuSans-72"/>
       <use x="1751.439453" xlink:href="#DejaVuSans-20"/>
       <use x="1783.226562" xlink:href="#DejaVuSans-45"/>
       <use x="1846.410156" xlink:href="#DejaVuSans-61"/>
       <use x="1907.689453" xlink:href="#DejaVuSans-72"/>
       <use x="1948.802734" xlink:href="#DejaVuSans-6c"/>
       <use x="1976.585938" xlink:href="#DejaVuSans-79"/>
       <use x="2035.765625" xlink:href="#DejaVuSans-20"/>
       <use x="2067.552734" xlink:href="#DejaVuSans-43"/>
       <use x="2137.376953" xlink:href="#DejaVuSans-68"/>
       <use x="2200.755859" xlink:href="#DejaVuSans-69"/>
       <use x="2228.539062" xlink:href="#DejaVuSans-6c"/>
       <use x="2256.322266" xlink:href="#DejaVuSans-64"/>
       <use x="2319.798828" xlink:href="#DejaVuSans-68"/>
       <use x="2383.177734" xlink:href="#DejaVuSans-6f"/>
       <use x="2444.359375" xlink:href="#DejaVuSans-6f"/>
       <use x="2505.541016" xlink:href="#DejaVuSans-64"/>
       <use x="2569.017578" xlink:href="#DejaVuSans-20"/>
       <use x="2600.804688" xlink:href="#DejaVuSans-50"/>
       <use x="2661.091797" xlink:href="#DejaVuSans-72"/>
       <use x="2702.173828" xlink:href="#DejaVuSans-6f"/>
       <use x="2763.355469" xlink:href="#DejaVuSans-67"/>
       <use x="2826.832031" xlink:href="#DejaVuSans-72"/>
       <use x="2867.945312" xlink:href="#DejaVuSans-61"/>
       <use x="2929.224609" xlink:href="#DejaVuSans-6d"/>
      </g>
     </g>
    </g>
    <g id="xtick_5">
     <g id="line2d_5">
      <g>
       <use style="stroke:#000000;stroke-width:0.8;" x="368.1125" xlink:href="#m57378b1449" y="399.532812"/>
      </g>
     </g>
     <g id="text_5">
      <!-- Acton-Boxborough - Luther Conant School -->
      <defs>
       <path d="M 9.8125 72.90625 
L 19.671875 72.90625 
L 19.671875 8.296875 
L 55.171875 8.296875 
L 55.171875 0 
L 9.8125 0 
z
" id="DejaVuSans-4c"/>
      </defs>
      <g transform="translate(370.871875 617.235937)rotate(-90)scale(0.1 -0.1)">
       <use xlink:href="#DejaVuSans-41"/>
       <use x="68.392578" xlink:href="#DejaVuSans-63"/>
       <use x="123.373047" xlink:href="#DejaVuSans-74"/>
       <use x="162.582031" xlink:href="#DejaVuSans-6f"/>
       <use x="223.763672" xlink:href="#DejaVuSans-6e"/>
       <use x="287.142578" xlink:href="#DejaVuSans-2d"/>
       <use x="323.179688" xlink:href="#DejaVuSans-42"/>
       <use x="391.783203" xlink:href="#DejaVuSans-6f"/>
       <use x="452.917969" xlink:href="#DejaVuSans-78"/>
       <use x="512.097656" xlink:href="#DejaVuSans-62"/>
       <use x="575.574219" xlink:href="#DejaVuSans-6f"/>
       <use x="636.755859" xlink:href="#DejaVuSans-72"/>
       <use x="677.837891" xlink:href="#DejaVuSans-6f"/>
       <use x="739.019531" xlink:href="#DejaVuSans-75"/>
       <use x="802.398438" xlink:href="#DejaVuSans-67"/>
       <use x="865.875" xlink:href="#DejaVuSans-68"/>
       <use x="929.253906" xlink:href="#DejaVuSans-20"/>
       <use x="961.041016" xlink:href="#DejaVuSans-2d"/>
       <use x="997.125" xlink:href="#DejaVuSans-20"/>
       <use x="1028.912109" xlink:href="#DejaVuSans-4c"/>
       <use x="1084.609375" xlink:href="#DejaVuSans-75"/>
       <use x="1147.988281" xlink:href="#DejaVuSans-74"/>
       <use x="1187.197266" xlink:href="#DejaVuSans-68"/>
       <use x="1250.576172" xlink:href="#DejaVuSans-65"/>
       <use x="1312.099609" xlink:href="#DejaVuSans-72"/>
       <use x="1353.212891" xlink:href="#DejaVuSans-20"/>
       <use x="1385" xlink:href="#DejaVuSans-43"/>
       <use x="1454.824219" xlink:href="#DejaVuSans-6f"/>
       <use x="1516.005859" xlink:href="#DejaVuSans-6e"/>
       <use x="1579.384766" xlink:href="#DejaVuSans-61"/>
       <use x="1640.664062" xlink:href="#DejaVuSans-6e"/>
       <use x="1704.042969" xlink:href="#DejaVuSans-74"/>
       <use x="1743.251953" xlink:href="#DejaVuSans-20"/>
       <use x="1775.039062" xlink:href="#DejaVuSans-53"/>
       <use x="1838.515625" xlink:href="#DejaVuSans-63"/>
       <use x="1893.496094" xlink:href="#DejaVuSans-68"/>
       <use x="1956.875" xlink:href="#DejaVuSans-6f"/>
       <use x="2018.056641" xlink:href="#DejaVuSans-6f"/>
       <use x="2079.238281" xlink:href="#DejaVuSans-6c"/>
      </g>
     </g>
    </g>
    <g id="xtick_6">
     <g id="line2d_6">
      <g>
       <use style="stroke:#000000;stroke-width:0.8;" x="443.131944" xlink:href="#m57378b1449" y="399.532812"/>
      </g>
     </g>
     <g id="text_6">
      <!-- Acton-Boxborough - McCarthy-Towne School -->
      <defs>
       <path d="M 4.203125 54.6875 
L 13.1875 54.6875 
L 24.421875 12.015625 
L 35.59375 54.6875 
L 46.1875 54.6875 
L 57.421875 12.015625 
L 68.609375 54.6875 
L 77.59375 54.6875 
L 63.28125 0 
L 52.6875 0 
L 40.921875 44.828125 
L 29.109375 0 
L 18.5 0 
z
" id="DejaVuSans-77"/>
      </defs>
      <g transform="translate(445.891319 629.789062)rotate(-90)scale(0.1 -0.1)">
       <use xlink:href="#DejaVuSans-41"/>
       <use x="68.392578" xlink:href="#DejaVuSans-63"/>
       <use x="123.373047" xlink:href="#DejaVuSans-74"/>
       <use x="162.582031" xlink:href="#DejaVuSans-6f"/>
       <use x="223.763672" xlink:href="#DejaVuSans-6e"/>
       <use x="287.142578" xlink:href="#DejaVuSans-2d"/>
       <use x="323.179688" xlink:href="#DejaVuSans-42"/>
       <use x="391.783203" xlink:href="#DejaVuSans-6f"/>
       <use x="452.917969" xlink:href="#DejaVuSans-78"/>
       <use x="512.097656" xlink:href="#DejaVuSans-62"/>
       <use x="575.574219" xlink:href="#DejaVuSans-6f"/>
       <use x="636.755859" xlink:href="#DejaVuSans-72"/>
       <use x="677.837891" xlink:href="#DejaVuSans-6f"/>
       <use x="739.019531" xlink:href="#DejaVuSans-75"/>
       <use x="802.398438" xlink:href="#DejaVuSans-67"/>
       <use x="865.875" xlink:href="#DejaVuSans-68"/>
       <use x="929.253906" xlink:href="#DejaVuSans-20"/>
       <use x="961.041016" xlink:href="#DejaVuSans-2d"/>
       <use x="997.125" xlink:href="#DejaVuSans-20"/>
       <use x="1028.912109" xlink:href="#DejaVuSans-4d"/>
       <use x="1115.191406" xlink:href="#DejaVuSans-63"/>
       <use x="1170.171875" xlink:href="#DejaVuSans-43"/>
       <use x="1239.996094" xlink:href="#DejaVuSans-61"/>
       <use x="1301.275391" xlink:href="#DejaVuSans-72"/>
       <use x="1342.388672" xlink:href="#DejaVuSans-74"/>
       <use x="1381.597656" xlink:href="#DejaVuSans-68"/>
       <use x="1444.976562" xlink:href="#DejaVuSans-79"/>
       <use x="1504.140625" xlink:href="#DejaVuSans-2d"/>
       <use x="1540.083984" xlink:href="#DejaVuSans-54"/>
       <use x="1600.902344" xlink:href="#DejaVuSans-6f"/>
       <use x="1662.083984" xlink:href="#DejaVuSans-77"/>
       <use x="1743.871094" xlink:href="#DejaVuSans-6e"/>
       <use x="1807.25" xlink:href="#DejaVuSans-65"/>
       <use x="1868.773438" xlink:href="#DejaVuSans-20"/>
       <use x="1900.560547" xlink:href="#DejaVuSans-53"/>
       <use x="1964.037109" xlink:href="#DejaVuSans-63"/>
       <use x="2019.017578" xlink:href="#DejaVuSans-68"/>
       <use x="2082.396484" xlink:href="#DejaVuSans-6f"/>
       <use x="2143.578125" xlink:href="#DejaVuSans-6f"/>
       <use x="2204.759766" xlink:href="#DejaVuSans-6c"/>
      </g>
     </g>
    </g>
    <g id="xtick_7">
     <g id="line2d_7">
      <g>
       <use style="stroke:#000000;stroke-width:0.8;" x="518.151389" xlink:href="#m57378b1449" y="399.532812"/>
      </g>
     </g>
     <g id="text_7">
      <!-- Acton-Boxborough - Merriam School -->
      <g transform="translate(520.910764 587.451563)rotate(-90)scale(0.1 -0.1)">
       <use xlink:href="#DejaVuSans-41"/>
       <use x="68.392578" xlink:href="#DejaVuSans-63"/>
       <use x="123.373047" xlink:href="#DejaVuSans-74"/>
       <use x="162.582031" xlink:href="#DejaVuSans-6f"/>
       <use x="223.763672" xlink:href="#DejaVuSans-6e"/>
       <use x="287.142578" xlink:href="#DejaVuSans-2d"/>
       <use x="323.179688" xlink:href="#DejaVuSans-42"/>
       <use x="391.783203" xlink:href="#DejaVuSans-6f"/>
       <use x="452.917969" xlink:href="#DejaVuSans-78"/>
       <use x="512.097656" xlink:href="#DejaVuSans-62"/>
       <use x="575.574219" xlink:href="#DejaVuSans-6f"/>
       <use x="636.755859" xlink:href="#DejaVuSans-72"/>
       <use x="677.837891" xlink:href="#DejaVuSans-6f"/>
       <use x="739.019531" xlink:href="#DejaVuSans-75"/>
       <use x="802.398438" xlink:href="#DejaVuSans-67"/>
       <use x="865.875" xlink:href="#DejaVuSans-68"/>
       <use x="929.253906" xlink:href="#DejaVuSans-20"/>
       <use x="961.041016" xlink:href="#DejaVuSans-2d"/>
       <use x="997.125" xlink:href="#DejaVuSans-20"/>
       <use x="1028.912109" xlink:href="#DejaVuSans-4d"/>
       <use x="1115.191406" xlink:href="#DejaVuSans-65"/>
       <use x="1176.714844" xlink:href="#DejaVuSans-72"/>
       <use x="1217.8125" xlink:href="#DejaVuSans-72"/>
       <use x="1258.925781" xlink:href="#DejaVuSans-69"/>
       <use x="1286.708984" xlink:href="#DejaVuSans-61"/>
       <use x="1347.988281" xlink:href="#DejaVuSans-6d"/>
       <use x="1445.400391" xlink:href="#DejaVuSans-20"/>
       <use x="1477.1875" xlink:href="#DejaVuSans-53"/>
       <use x="1540.664062" xlink:href="#DejaVuSans-63"/>
       <use x="1595.644531" xlink:href="#DejaVuSans-68"/>
       <use x="1659.023438" xlink:href="#DejaVuSans-6f"/>
       <use x="1720.205078" xlink:href="#DejaVuSans-6f"/>
       <use x="1781.386719" xlink:href="#DejaVuSans-6c"/>
      </g>
     </g>
    </g>
    <g id="xtick_8">
     <g id="line2d_8">
      <g>
       <use style="stroke:#000000;stroke-width:0.8;" x="593.170833" xlink:href="#m57378b1449" y="399.532812"/>
      </g>
     </g>
     <g id="text_8">
      <!-- Acton-Boxborough - Paul P Gates Elementary School -->
      <defs>
       <path d="M 59.515625 10.40625 
L 59.515625 29.984375 
L 43.40625 29.984375 
L 43.40625 38.09375 
L 69.28125 38.09375 
L 69.28125 6.78125 
Q 63.578125 2.734375 56.6875 0.65625 
Q 49.8125 -1.421875 42 -1.421875 
Q 24.90625 -1.421875 15.25 8.5625 
Q 5.609375 18.5625 5.609375 36.375 
Q 5.609375 54.25 15.25 64.234375 
Q 24.90625 74.21875 42 74.21875 
Q 49.125 74.21875 55.546875 72.453125 
Q 61.96875 70.703125 67.390625 67.28125 
L 67.390625 56.78125 
Q 61.921875 61.421875 55.765625 63.765625 
Q 49.609375 66.109375 42.828125 66.109375 
Q 29.4375 66.109375 22.71875 58.640625 
Q 16.015625 51.171875 16.015625 36.375 
Q 16.015625 21.625 22.71875 14.15625 
Q 29.4375 6.6875 42.828125 6.6875 
Q 48.046875 6.6875 52.140625 7.59375 
Q 56.25 8.5 59.515625 10.40625 
z
" id="DejaVuSans-47"/>
      </defs>
      <g transform="translate(595.930208 669.353125)rotate(-90)scale(0.1 -0.1)">
       <use xlink:href="#DejaVuSans-41"/>
       <use x="68.392578" xlink:href="#DejaVuSans-63"/>
       <use x="123.373047" xlink:href="#DejaVuSans-74"/>
       <use x="162.582031" xlink:href="#DejaVuSans-6f"/>
       <use x="223.763672" xlink:href="#DejaVuSans-6e"/>
       <use x="287.142578" xlink:href="#DejaVuSans-2d"/>
       <use x="323.179688" xlink:href="#DejaVuSans-42"/>
       <use x="391.783203" xlink:href="#DejaVuSans-6f"/>
       <use x="452.917969" xlink:href="#DejaVuSans-78"/>
       <use x="512.097656" xlink:href="#DejaVuSans-62"/>
       <use x="575.574219" xlink:href="#DejaVuSans-6f"/>
       <use x="636.755859" xlink:href="#DejaVuSans-72"/>
       <use x="677.837891" xlink:href="#DejaVuSans-6f"/>
       <use x="739.019531" xlink:href="#DejaVuSans-75"/>
       <use x="802.398438" xlink:href="#DejaVuSans-67"/>
       <use x="865.875" xlink:href="#DejaVuSans-68"/>
       <use x="929.253906" xlink:href="#DejaVuSans-20"/>
       <use x="961.041016" xlink:href="#DejaVuSans-2d"/>
       <use x="997.125" xlink:href="#DejaVuSans-20"/>
       <use x="1028.912109" xlink:href="#DejaVuSans-50"/>
       <use x="1089.152344" xlink:href="#DejaVuSans-61"/>
       <use x="1150.431641" xlink:href="#DejaVuSans-75"/>
       <use x="1213.810547" xlink:href="#DejaVuSans-6c"/>
       <use x="1241.59375" xlink:href="#DejaVuSans-20"/>
       <use x="1273.380859" xlink:href="#DejaVuSans-50"/>
       <use x="1333.683594" xlink:href="#DejaVuSans-20"/>
       <use x="1365.470703" xlink:href="#DejaVuSans-47"/>
       <use x="1442.960938" xlink:href="#DejaVuSans-61"/>
       <use x="1504.240234" xlink:href="#DejaVuSans-74"/>
       <use x="1543.449219" xlink:href="#DejaVuSans-65"/>
       <use x="1604.972656" xlink:href="#DejaVuSans-73"/>
       <use x="1657.072266" xlink:href="#DejaVuSans-20"/>
       <use x="1688.859375" xlink:href="#DejaVuSans-45"/>
       <use x="1752.042969" xlink:href="#DejaVuSans-6c"/>
       <use x="1779.826172" xlink:href="#DejaVuSans-65"/>
       <use x="1841.349609" xlink:href="#DejaVuSans-6d"/>
       <use x="1938.761719" xlink:href="#DejaVuSans-65"/>
       <use x="2000.285156" xlink:href="#DejaVuSans-6e"/>
       <use x="2063.664062" xlink:href="#DejaVuSans-74"/>
       <use x="2102.873047" xlink:href="#DejaVuSans-61"/>
       <use x="2164.152344" xlink:href="#DejaVuSans-72"/>
       <use x="2205.265625" xlink:href="#DejaVuSans-79"/>
       <use x="2264.445312" xlink:href="#DejaVuSans-20"/>
       <use x="2296.232422" xlink:href="#DejaVuSans-53"/>
       <use x="2359.708984" xlink:href="#DejaVuSans-63"/>
       <use x="2414.689453" xlink:href="#DejaVuSans-68"/>
       <use x="2478.068359" xlink:href="#DejaVuSans-6f"/>
       <use x="2539.25" xlink:href="#DejaVuSans-6f"/>
       <use x="2600.431641" xlink:href="#DejaVuSans-6c"/>
      </g>
     </g>
    </g>
    <g id="xtick_9">
     <g id="line2d_9">
      <g>
       <use style="stroke:#000000;stroke-width:0.8;" x="668.190278" xlink:href="#m57378b1449" y="399.532812"/>
      </g>
     </g>
     <g id="text_9">
      <!-- Acton-Boxborough - Raymond J Grey Junior High -->
      <defs>
       <path d="M 9.8125 72.90625 
L 19.671875 72.90625 
L 19.671875 5.078125 
Q 19.671875 -8.109375 14.671875 -14.0625 
Q 9.671875 -20.015625 -1.421875 -20.015625 
L -5.171875 -20.015625 
L -5.171875 -11.71875 
L -2.09375 -11.71875 
Q 4.4375 -11.71875 7.125 -8.046875 
Q 9.8125 -4.390625 9.8125 5.078125 
z
" id="DejaVuSans-4a"/>
      </defs>
      <g transform="translate(670.949653 648.170313)rotate(-90)scale(0.1 -0.1)">
       <use xlink:href="#DejaVuSans-41"/>
       <use x="68.392578" xlink:href="#DejaVuSans-63"/>
       <use x="123.373047" xlink:href="#DejaVuSans-74"/>
       <use x="162.582031" xlink:href="#DejaVuSans-6f"/>
       <use x="223.763672" xlink:href="#DejaVuSans-6e"/>
       <use x="287.142578" xlink:href="#DejaVuSans-2d"/>
       <use x="323.179688" xlink:href="#DejaVuSans-42"/>
       <use x="391.783203" xlink:href="#DejaVuSans-6f"/>
       <use x="452.917969" xlink:href="#DejaVuSans-78"/>
       <use x="512.097656" xlink:href="#DejaVuSans-62"/>
       <use x="575.574219" xlink:href="#DejaVuSans-6f"/>
       <use x="636.755859" xlink:href="#DejaVuSans-72"/>
       <use x="677.837891" xlink:href="#DejaVuSans-6f"/>
       <use x="739.019531" xlink:href="#DejaVuSans-75"/>
       <use x="802.398438" xlink:href="#DejaVuSans-67"/>
       <use x="865.875" xlink:href="#DejaVuSans-68"/>
       <use x="929.253906" xlink:href="#DejaVuSans-20"/>
       <use x="961.041016" xlink:href="#DejaVuSans-2d"/>
       <use x="997.125" xlink:href="#DejaVuSans-20"/>
       <use x="1028.912109" xlink:href="#DejaVuSans-52"/>
       <use x="1098.363281" xlink:href="#DejaVuSans-61"/>
       <use x="1159.642578" xlink:href="#DejaVuSans-79"/>
       <use x="1218.822266" xlink:href="#DejaVuSans-6d"/>
       <use x="1316.234375" xlink:href="#DejaVuSans-6f"/>
       <use x="1377.416016" xlink:href="#DejaVuSans-6e"/>
       <use x="1440.794922" xlink:href="#DejaVuSans-64"/>
       <use x="1504.271484" xlink:href="#DejaVuSans-20"/>
       <use x="1536.058594" xlink:href="#DejaVuSans-4a"/>
       <use x="1565.550781" xlink:href="#DejaVuSans-20"/>
       <use x="1597.337891" xlink:href="#DejaVuSans-47"/>
       <use x="1674.828125" xlink:href="#DejaVuSans-72"/>
       <use x="1715.910156" xlink:href="#DejaVuSans-65"/>
       <use x="1777.433594" xlink:href="#DejaVuSans-79"/>
       <use x="1836.613281" xlink:href="#DejaVuSans-20"/>
       <use x="1868.400391" xlink:href="#DejaVuSans-4a"/>
       <use x="1897.892578" xlink:href="#DejaVuSans-75"/>
       <use x="1961.271484" xlink:href="#DejaVuSans-6e"/>
       <use x="2024.650391" xlink:href="#DejaVuSans-69"/>
       <use x="2052.433594" xlink:href="#DejaVuSans-6f"/>
       <use x="2113.615234" xlink:href="#DejaVuSans-72"/>
       <use x="2154.728516" xlink:href="#DejaVuSans-20"/>
       <use x="2186.515625" xlink:href="#DejaVuSans-48"/>
       <use x="2261.710938" xlink:href="#DejaVuSans-69"/>
       <use x="2289.494141" xlink:href="#DejaVuSans-67"/>
       <use x="2352.970703" xlink:href="#DejaVuSans-68"/>
      </g>
     </g>
    </g>
   </g>
   <g id="matplotlib.axis_2">
    <g id="ytick_1">
     <g id="line2d_10">
      <defs>
       <path d="M 0 0 
L -3.5 0 
" id="mb72debca11" style="stroke:#000000;stroke-width:0.8;"/>
      </defs>
      <g>
       <use style="stroke:#000000;stroke-width:0.8;" x="30.525" xlink:href="#mb72debca11" y="399.532812"/>
      </g>
     </g>
     <g id="text_10">
      <!-- 0 -->
      <defs>
       <path d="M 31.78125 66.40625 
Q 24.171875 66.40625 20.328125 58.90625 
Q 16.5 51.421875 16.5 36.375 
Q 16.5 21.390625 20.328125 13.890625 
Q 24.171875 6.390625 31.78125 6.390625 
Q 39.453125 6.390625 43.28125 13.890625 
Q 47.125 21.390625 47.125 36.375 
Q 47.125 51.421875 43.28125 58.90625 
Q 39.453125 66.40625 31.78125 66.40625 
z
M 31.78125 74.21875 
Q 44.046875 74.21875 50.515625 64.515625 
Q 56.984375 54.828125 56.984375 36.375 
Q 56.984375 17.96875 50.515625 8.265625 
Q 44.046875 -1.421875 31.78125 -1.421875 
Q 19.53125 -1.421875 13.0625 8.265625 
Q 6.59375 17.96875 6.59375 36.375 
Q 6.59375 54.828125 13.0625 64.515625 
Q 19.53125 74.21875 31.78125 74.21875 
z
" id="DejaVuSans-30"/>
      </defs>
      <g transform="translate(17.1625 403.332031)scale(0.1 -0.1)">
       <use xlink:href="#DejaVuSans-30"/>
      </g>
     </g>
    </g>
    <g id="ytick_2">
     <g id="line2d_11">
      <g>
       <use style="stroke:#000000;stroke-width:0.8;" x="30.525" xlink:href="#mb72debca11" y="314.604944"/>
      </g>
     </g>
     <g id="text_11">
      <!-- 10 -->
      <defs>
       <path d="M 12.40625 8.296875 
L 28.515625 8.296875 
L 28.515625 63.921875 
L 10.984375 60.40625 
L 10.984375 69.390625 
L 28.421875 72.90625 
L 38.28125 72.90625 
L 38.28125 8.296875 
L 54.390625 8.296875 
L 54.390625 0 
L 12.40625 0 
z
" id="DejaVuSans-31"/>
      </defs>
      <g transform="translate(10.8 318.404163)scale(0.1 -0.1)">
       <use xlink:href="#DejaVuSans-31"/>
       <use x="63.623047" xlink:href="#DejaVuSans-30"/>
      </g>
     </g>
    </g>
    <g id="ytick_3">
     <g id="line2d_12">
      <g>
       <use style="stroke:#000000;stroke-width:0.8;" x="30.525" xlink:href="#mb72debca11" y="229.677075"/>
      </g>
     </g>
     <g id="text_12">
      <!-- 20 -->
      <defs>
       <path d="M 19.1875 8.296875 
L 53.609375 8.296875 
L 53.609375 0 
L 7.328125 0 
L 7.328125 8.296875 
Q 12.9375 14.109375 22.625 23.890625 
Q 32.328125 33.6875 34.8125 36.53125 
Q 39.546875 41.84375 41.421875 45.53125 
Q 43.3125 49.21875 43.3125 52.78125 
Q 43.3125 58.59375 39.234375 62.25 
Q 35.15625 65.921875 28.609375 65.921875 
Q 23.96875 65.921875 18.8125 64.3125 
Q 13.671875 62.703125 7.8125 59.421875 
L 7.8125 69.390625 
Q 13.765625 71.78125 18.9375 73 
Q 24.125 74.21875 28.421875 74.21875 
Q 39.75 74.21875 46.484375 68.546875 
Q 53.21875 62.890625 53.21875 53.421875 
Q 53.21875 48.921875 51.53125 44.890625 
Q 49.859375 40.875 45.40625 35.40625 
Q 44.1875 33.984375 37.640625 27.21875 
Q 31.109375 20.453125 19.1875 8.296875 
z
" id="DejaVuSans-32"/>
      </defs>
      <g transform="translate(10.8 233.476294)scale(0.1 -0.1)">
       <use xlink:href="#DejaVuSans-32"/>
       <use x="63.623047" xlink:href="#DejaVuSans-30"/>
      </g>
     </g>
    </g>
    <g id="ytick_4">
     <g id="line2d_13">
      <g>
       <use style="stroke:#000000;stroke-width:0.8;" x="30.525" xlink:href="#mb72debca11" y="144.749206"/>
      </g>
     </g>
     <g id="text_13">
      <!-- 30 -->
      <defs>
       <path d="M 40.578125 39.3125 
Q 47.65625 37.796875 51.625 33 
Q 55.609375 28.21875 55.609375 21.1875 
Q 55.609375 10.40625 48.1875 4.484375 
Q 40.765625 -1.421875 27.09375 -1.421875 
Q 22.515625 -1.421875 17.65625 -0.515625 
Q 12.796875 0.390625 7.625 2.203125 
L 7.625 11.71875 
Q 11.71875 9.328125 16.59375 8.109375 
Q 21.484375 6.890625 26.8125 6.890625 
Q 36.078125 6.890625 40.9375 10.546875 
Q 45.796875 14.203125 45.796875 21.1875 
Q 45.796875 27.640625 41.28125 31.265625 
Q 36.765625 34.90625 28.71875 34.90625 
L 20.21875 34.90625 
L 20.21875 43.015625 
L 29.109375 43.015625 
Q 36.375 43.015625 40.234375 45.921875 
Q 44.09375 48.828125 44.09375 54.296875 
Q 44.09375 59.90625 40.109375 62.90625 
Q 36.140625 65.921875 28.71875 65.921875 
Q 24.65625 65.921875 20.015625 65.03125 
Q 15.375 64.15625 9.8125 62.3125 
L 9.8125 71.09375 
Q 15.4375 72.65625 20.34375 73.4375 
Q 25.25 74.21875 29.59375 74.21875 
Q 40.828125 74.21875 47.359375 69.109375 
Q 53.90625 64.015625 53.90625 55.328125 
Q 53.90625 49.265625 50.4375 45.09375 
Q 46.96875 40.921875 40.578125 39.3125 
z
" id="DejaVuSans-33"/>
      </defs>
      <g transform="translate(10.8 148.548425)scale(0.1 -0.1)">
       <use xlink:href="#DejaVuSans-33"/>
       <use x="63.623047" xlink:href="#DejaVuSans-30"/>
      </g>
     </g>
    </g>
    <g id="ytick_5">
     <g id="line2d_14">
      <g>
       <use style="stroke:#000000;stroke-width:0.8;" x="30.525" xlink:href="#mb72debca11" y="59.821338"/>
      </g>
     </g>
     <g id="text_14">
      <!-- 40 -->
      <defs>
       <path d="M 37.796875 64.3125 
L 12.890625 25.390625 
L 37.796875 25.390625 
z
M 35.203125 72.90625 
L 47.609375 72.90625 
L 47.609375 25.390625 
L 58.015625 25.390625 
L 58.015625 17.1875 
L 47.609375 17.1875 
L 47.609375 0 
L 37.796875 0 
L 37.796875 17.1875 
L 4.890625 17.1875 
L 4.890625 26.703125 
z
" id="DejaVuSans-34"/>
      </defs>
      <g transform="translate(10.8 63.620556)scale(0.1 -0.1)">
       <use xlink:href="#DejaVuSans-34"/>
       <use x="63.623047" xlink:href="#DejaVuSans-30"/>
      </g>
     </g>
    </g>
   </g>
   <g id="patch_30">
    <path d="M 30.525 399.532812 
L 30.525 14.3 
" style="fill:none;stroke:#000000;stroke-linecap:square;stroke-linejoin:miter;stroke-width:0.8;"/>
   </g>
   <g id="patch_31">
    <path d="M 705.7 399.532812 
L 705.7 14.3 
" style="fill:none;stroke:#000000;stroke-linecap:square;stroke-linejoin:miter;stroke-width:0.8;"/>
   </g>
   <g id="patch_32">
    <path d="M 30.525 399.532812 
L 705.7 399.532812 
" style="fill:none;stroke:#000000;stroke-linecap:square;stroke-linejoin:miter;stroke-width:0.8;"/>
   </g>
   <g id="patch_33">
    <path d="M 30.525 14.3 
L 705.7 14.3 
" style="fill:none;stroke:#000000;stroke-linecap:square;stroke-linejoin:miter;stroke-width:0.8;"/>
   </g>
   <g id="legend_1">
    <g id="patch_34">
     <path d="M 487.045313 66.334375 
L 698.7 66.334375 
Q 700.7 66.334375 700.7 64.334375 
L 700.7 21.3 
Q 700.7 19.3 698.7 19.3 
L 487.045313 19.3 
Q 485.045313 19.3 485.045313 21.3 
L 485.045313 64.334375 
Q 485.045313 66.334375 487.045313 66.334375 
z
" style="fill:#ffffff;opacity:0.8;stroke:#cccccc;stroke-linejoin:miter;"/>
    </g>
    <g id="patch_35">
     <path d="M 489.045313 30.898438 
L 509.045313 30.898438 
L 509.045313 23.898438 
L 489.045313 23.898438 
z
" style="fill:#1f77b4;"/>
    </g>
    <g id="text_15">
     <!-- StudentsWithDisabilitiesPercent -->
     <defs>
      <path d="M 3.328125 72.90625 
L 13.28125 72.90625 
L 28.609375 11.28125 
L 43.890625 72.90625 
L 54.984375 72.90625 
L 70.3125 11.28125 
L 85.59375 72.90625 
L 95.609375 72.90625 
L 77.296875 0 
L 64.890625 0 
L 49.515625 63.28125 
L 33.984375 0 
L 21.578125 0 
z
" id="DejaVuSans-57"/>
     </defs>
     <g transform="translate(517.045313 30.898438)scale(0.1 -0.1)">
      <use xlink:href="#DejaVuSans-53"/>
      <use x="63.476562" xlink:href="#DejaVuSans-74"/>
      <use x="102.685547" xlink:href="#DejaVuSans-75"/>
      <use x="166.064453" xlink:href="#DejaVuSans-64"/>
      <use x="229.541016" xlink:href="#DejaVuSans-65"/>
      <use x="291.064453" xlink:href="#DejaVuSans-6e"/>
      <use x="354.443359" xlink:href="#DejaVuSans-74"/>
      <use x="393.652344" xlink:href="#DejaVuSans-73"/>
      <use x="445.751953" xlink:href="#DejaVuSans-57"/>
      <use x="544.597656" xlink:href="#DejaVuSans-69"/>
      <use x="572.380859" xlink:href="#DejaVuSans-74"/>
      <use x="611.589844" xlink:href="#DejaVuSans-68"/>
      <use x="674.96875" xlink:href="#DejaVuSans-44"/>
      <use x="751.970703" xlink:href="#DejaVuSans-69"/>
      <use x="779.753906" xlink:href="#DejaVuSans-73"/>
      <use x="831.853516" xlink:href="#DejaVuSans-61"/>
      <use x="893.132812" xlink:href="#DejaVuSans-62"/>
      <use x="956.609375" xlink:href="#DejaVuSans-69"/>
      <use x="984.392578" xlink:href="#DejaVuSans-6c"/>
      <use x="1012.175781" xlink:href="#DejaVuSans-69"/>
      <use x="1039.958984" xlink:href="#DejaVuSans-74"/>
      <use x="1079.167969" xlink:href="#DejaVuSans-69"/>
      <use x="1106.951172" xlink:href="#DejaVuSans-65"/>
      <use x="1168.474609" xlink:href="#DejaVuSans-73"/>
      <use x="1220.574219" xlink:href="#DejaVuSans-50"/>
      <use x="1280.830078" xlink:href="#DejaVuSans-65"/>
      <use x="1342.353516" xlink:href="#DejaVuSans-72"/>
      <use x="1383.435547" xlink:href="#DejaVuSans-63"/>
      <use x="1438.416016" xlink:href="#DejaVuSans-65"/>
      <use x="1499.939453" xlink:href="#DejaVuSans-6e"/>
      <use x="1563.318359" xlink:href="#DejaVuSans-74"/>
     </g>
    </g>
    <g id="patch_36">
     <path d="M 489.045313 45.576563 
L 509.045313 45.576563 
L 509.045313 38.576563 
L 489.045313 38.576563 
z
" style="fill:#ff7f0e;"/>
    </g>
    <g id="text_16">
     <!-- HighNeedsPercent -->
     <defs>
      <path d="M 9.8125 72.90625 
L 23.09375 72.90625 
L 55.421875 11.921875 
L 55.421875 72.90625 
L 64.984375 72.90625 
L 64.984375 0 
L 51.703125 0 
L 19.390625 60.984375 
L 19.390625 0 
L 9.8125 0 
z
" id="DejaVuSans-4e"/>
     </defs>
     <g transform="translate(517.045313 45.576563)scale(0.1 -0.1)">
      <use xlink:href="#DejaVuSans-48"/>
      <use x="75.195312" xlink:href="#DejaVuSans-69"/>
      <use x="102.978516" xlink:href="#DejaVuSans-67"/>
      <use x="166.455078" xlink:href="#DejaVuSans-68"/>
      <use x="229.833984" xlink:href="#DejaVuSans-4e"/>
      <use x="304.638672" xlink:href="#DejaVuSans-65"/>
      <use x="366.162109" xlink:href="#DejaVuSans-65"/>
      <use x="427.685547" xlink:href="#DejaVuSans-64"/>
      <use x="491.162109" xlink:href="#DejaVuSans-73"/>
      <use x="543.261719" xlink:href="#DejaVuSans-50"/>
      <use x="603.517578" xlink:href="#DejaVuSans-65"/>
      <use x="665.041016" xlink:href="#DejaVuSans-72"/>
      <use x="706.123047" xlink:href="#DejaVuSans-63"/>
      <use x="761.103516" xlink:href="#DejaVuSans-65"/>
      <use x="822.626953" xlink:href="#DejaVuSans-6e"/>
      <use x="886.005859" xlink:href="#DejaVuSans-74"/>
     </g>
    </g>
    <g id="patch_37">
     <path d="M 489.045313 60.254688 
L 509.045313 60.254688 
L 509.045313 53.254688 
L 489.045313 53.254688 
z
" style="fill:#2ca02c;"/>
    </g>
    <g id="text_17">
     <!-- EconomicallyDisadvantagedPercent -->
     <defs>
      <path d="M 2.984375 54.6875 
L 12.5 54.6875 
L 29.59375 8.796875 
L 46.6875 54.6875 
L 56.203125 54.6875 
L 35.6875 0 
L 23.484375 0 
z
" id="DejaVuSans-76"/>
     </defs>
     <g transform="translate(517.045313 60.254688)scale(0.1 -0.1)">
      <use xlink:href="#DejaVuSans-45"/>
      <use x="63.183594" xlink:href="#DejaVuSans-63"/>
      <use x="118.164062" xlink:href="#DejaVuSans-6f"/>
      <use x="179.345703" xlink:href="#DejaVuSans-6e"/>
      <use x="242.724609" xlink:href="#DejaVuSans-6f"/>
      <use x="303.90625" xlink:href="#DejaVuSans-6d"/>
      <use x="401.318359" xlink:href="#DejaVuSans-69"/>
      <use x="429.101562" xlink:href="#DejaVuSans-63"/>
      <use x="484.082031" xlink:href="#DejaVuSans-61"/>
      <use x="545.361328" xlink:href="#DejaVuSans-6c"/>
      <use x="573.144531" xlink:href="#DejaVuSans-6c"/>
      <use x="600.927734" xlink:href="#DejaVuSans-79"/>
      <use x="660.107422" xlink:href="#DejaVuSans-44"/>
      <use x="737.109375" xlink:href="#DejaVuSans-69"/>
      <use x="764.892578" xlink:href="#DejaVuSans-73"/>
      <use x="816.992188" xlink:href="#DejaVuSans-61"/>
      <use x="878.271484" xlink:href="#DejaVuSans-64"/>
      <use x="941.748047" xlink:href="#DejaVuSans-76"/>
      <use x="1000.927734" xlink:href="#DejaVuSans-61"/>
      <use x="1062.207031" xlink:href="#DejaVuSans-6e"/>
      <use x="1125.585938" xlink:href="#DejaVuSans-74"/>
      <use x="1164.794922" xlink:href="#DejaVuSans-61"/>
      <use x="1226.074219" xlink:href="#DejaVuSans-67"/>
      <use x="1289.550781" xlink:href="#DejaVuSans-65"/>
      <use x="1351.074219" xlink:href="#DejaVuSans-64"/>
      <use x="1414.550781" xlink:href="#DejaVuSans-50"/>
      <use x="1474.806641" xlink:href="#DejaVuSans-65"/>
      <use x="1536.330078" xlink:href="#DejaVuSans-72"/>
      <use x="1577.412109" xlink:href="#DejaVuSans-63"/>
      <use x="1632.392578" xlink:href="#DejaVuSans-65"/>
      <use x="1693.916016" xlink:href="#DejaVuSans-6e"/>
      <use x="1757.294922" xlink:href="#DejaVuSans-74"/>
     </g>
    </g>
   </g>
  </g>
 </g>
 <defs>
  <clipPath id="pb6db6252e5">
   <rect height="385.232812" width="675.175" x="30.525" y="14.3"/>
  </clipPath>
 </defs>
</svg>
