<?xml version="1.0" encoding="utf-8" standalone="no"?>
<!DOCTYPE svg PUBLIC "-//W3C//DTD SVG 1.1//EN"
  "http://www.w3.org/Graphics/SVG/1.1/DTD/svg11.dtd">
<!-- Created with matplotlib (http://matplotlib.org/) -->
<svg height="720pt" version="1.1" viewBox="0 0 720 720" width="720pt" xmlns="http://www.w3.org/2000/svg" xmlns:xlink="http://www.w3.org/1999/xlink">
 <defs>
  <style type="text/css">
*{stroke-linecap:butt;stroke-linejoin:round;}
  </style>
 </defs>
 <g id="figure_1">
  <g id="patch_1">
   <path d="M 0 720 
L 720 720 
L 720 0 
L 0 0 
z
" style="fill:#ffffff;"/>
  </g>
  <g id="axes_1">
   <g id="patch_2">
    <path d="M 36.8875 491.973437 
L 705.7 491.973437 
L 705.7 14.3 
L 36.8875 14.3 
z
" style="fill:#ffffff;"/>
   </g>
   <g id="patch_3">
    <path clip-path="url(#p11c78fbca7)" d="M 60.773661 491.973437 
L 108.545982 491.973437 
L 108.545982 483.277648 
L 60.773661 483.277648 
z
" style="fill:#1f77b4;"/>
   </g>
   <g id="patch_4">
    <path clip-path="url(#p11c78fbca7)" d="M 156.318304 491.973437 
L 204.090625 491.973437 
L 204.090625 478.700917 
L 156.318304 478.700917 
z
" style="fill:#1f77b4;"/>
   </g>
   <g id="patch_5">
    <path clip-path="url(#p11c78fbca7)" d="M 251.862946 491.973437 
L 299.635268 491.973437 
L 299.635268 479.616263 
L 251.862946 479.616263 
z
" style="fill:#1f77b4;"/>
   </g>
   <g id="patch_6">
    <path clip-path="url(#p11c78fbca7)" d="M 347.407589 491.973437 
L 395.179911 491.973437 
L 395.179911 484.192994 
L 347.407589 484.192994 
z
" style="fill:#1f77b4;"/>
   </g>
   <g id="patch_7">
    <path clip-path="url(#p11c78fbca7)" d="M 442.952232 491.973437 
L 490.724554 491.973437 
L 490.724554 482.362302 
L 442.952232 482.362302 
z
" style="fill:#1f77b4;"/>
   </g>
   <g id="patch_8">
    <path clip-path="url(#p11c78fbca7)" d="M 538.496875 491.973437 
L 586.269196 491.973437 
L 586.269196 481.446956 
L 538.496875 481.446956 
z
" style="fill:#1f77b4;"/>
   </g>
   <g id="patch_9">
    <path clip-path="url(#p11c78fbca7)" d="M 634.041518 491.973437 
L 681.813839 491.973437 
L 681.813839 487.396706 
L 634.041518 487.396706 
z
" style="fill:#1f77b4;"/>
   </g>
   <g id="patch_10">
    <path clip-path="url(#p11c78fbca7)" d="M 60.773661 483.277648 
L 108.545982 483.277648 
L 108.545982 472.293493 
L 60.773661 472.293493 
z
" style="fill:#ff7f0e;"/>
   </g>
   <g id="patch_11">
    <path clip-path="url(#p11c78fbca7)" d="M 156.318304 478.700917 
L 204.090625 478.700917 
L 204.090625 469.089781 
L 156.318304 469.089781 
z
" style="fill:#ff7f0e;"/>
   </g>
   <g id="patch_12">
    <path clip-path="url(#p11c78fbca7)" d="M 251.862946 479.616263 
L 299.635268 479.616263 
L 299.635268 466.343743 
L 251.862946 466.343743 
z
" style="fill:#ff7f0e;"/>
   </g>
   <g id="patch_13">
    <path clip-path="url(#p11c78fbca7)" d="M 347.407589 484.192994 
L 395.179911 484.192994 
L 395.179911 470.920474 
L 347.407589 470.920474 
z
" style="fill:#ff7f0e;"/>
   </g>
   <g id="patch_14">
    <path clip-path="url(#p11c78fbca7)" d="M 442.952232 482.362302 
L 490.724554 482.362302 
L 490.724554 469.547455 
L 442.952232 469.547455 
z
" style="fill:#ff7f0e;"/>
   </g>
   <g id="patch_15">
    <path clip-path="url(#p11c78fbca7)" d="M 538.496875 481.446956 
L 586.269196 481.446956 
L 586.269196 465.88607 
L 538.496875 465.88607 
z
" style="fill:#ff7f0e;"/>
   </g>
   <g id="patch_16">
    <path clip-path="url(#p11c78fbca7)" d="M 634.041518 487.396706 
L 681.813839 487.396706 
L 681.813839 475.497205 
L 634.041518 475.497205 
z
" style="fill:#ff7f0e;"/>
   </g>
   <g id="patch_17">
    <path clip-path="url(#p11c78fbca7)" d="M 60.773661 472.293493 
L 108.545982 472.293493 
L 108.545982 69.083473 
L 60.773661 69.083473 
z
" style="fill:#2ca02c;"/>
   </g>
   <g id="patch_18">
    <path clip-path="url(#p11c78fbca7)" d="M 156.318304 469.089781 
L 204.090625 469.089781 
L 204.090625 103.408957 
L 156.318304 103.408957 
z
" style="fill:#2ca02c;"/>
   </g>
   <g id="patch_19">
    <path clip-path="url(#p11c78fbca7)" d="M 251.862946 466.343743 
L 299.635268 466.343743 
L 299.635268 93.340148 
L 251.862946 93.340148 
z
" style="fill:#2ca02c;"/>
   </g>
   <g id="patch_20">
    <path clip-path="url(#p11c78fbca7)" d="M 347.407589 470.920474 
L 395.179911 470.920474 
L 395.179911 80.982974 
L 347.407589 80.982974 
z
" style="fill:#2ca02c;"/>
   </g>
   <g id="patch_21">
    <path clip-path="url(#p11c78fbca7)" d="M 442.952232 469.547455 
L 490.724554 469.547455 
L 490.724554 81.440647 
L 442.952232 81.440647 
z
" style="fill:#2ca02c;"/>
   </g>
   <g id="patch_22">
    <path clip-path="url(#p11c78fbca7)" d="M 538.496875 465.88607 
L 586.269196 465.88607 
L 586.269196 91.051783 
L 538.496875 91.051783 
z
" style="fill:#2ca02c;"/>
   </g>
   <g id="patch_23">
    <path clip-path="url(#p11c78fbca7)" d="M 634.041518 475.497205 
L 681.813839 475.497205 
L 681.813839 57.641645 
L 634.041518 57.641645 
z
" style="fill:#2ca02c;"/>
   </g>
   <g id="patch_24">
    <path clip-path="url(#p11c78fbca7)" d="M 60.773661 69.083473 
L 108.545982 69.083473 
L 108.545982 42.996105 
L 60.773661 42.996105 
z
" style="fill:#d62728;"/>
   </g>
   <g id="patch_25">
    <path clip-path="url(#p11c78fbca7)" d="M 156.318304 103.408957 
L 204.090625 103.408957 
L 204.090625 59.93001 
L 156.318304 59.93001 
z
" style="fill:#d62728;"/>
   </g>
   <g id="patch_26">
    <path clip-path="url(#p11c78fbca7)" d="M 251.862946 93.340148 
L 299.635268 93.340148 
L 299.635268 55.353279 
L 251.862946 55.353279 
z
" style="fill:#d62728;"/>
   </g>
   <g id="patch_27">
    <path clip-path="url(#p11c78fbca7)" d="M 347.407589 80.982974 
L 395.179911 80.982974 
L 395.179911 48.030509 
L 347.407589 48.030509 
z
" style="fill:#d62728;"/>
   </g>
   <g id="patch_28">
    <path clip-path="url(#p11c78fbca7)" d="M 442.952232 81.440647 
L 490.724554 81.440647 
L 490.724554 45.742143 
L 442.952232 45.742143 
z
" style="fill:#d62728;"/>
   </g>
   <g id="patch_29">
    <path clip-path="url(#p11c78fbca7)" d="M 538.496875 91.051783 
L 586.269196 91.051783 
L 586.269196 47.115163 
L 538.496875 47.115163 
z
" style="fill:#d62728;"/>
   </g>
   <g id="patch_30">
    <path clip-path="url(#p11c78fbca7)" d="M 634.041518 57.641645 
L 681.813839 57.641645 
L 681.813839 37.046354 
L 634.041518 37.046354 
z
" style="fill:#d62728;"/>
   </g>
   <g id="matplotlib.axis_1">
    <g id="xtick_1">
     <g id="line2d_1">
      <defs>
       <path d="M 0 0 
L 0 3.5 
" id="mb89b40ac68" style="stroke:#000000;stroke-width:0.8;"/>
      </defs>
      <g>
       <use style="stroke:#000000;stroke-width:0.8;" x="84.659821" xlink:href="#mb89b40ac68" y="491.973437"/>
      </g>
     </g>
     <g id="text_1">
      <!-- Danvers - Danvers High -->
      <defs>
       <path d="M 19.671875 64.796875 
L 19.671875 8.109375 
L 31.59375 8.109375 
Q 46.6875 8.109375 53.6875 14.9375 
Q 60.6875 21.78125 60.6875 36.53125 
Q 60.6875 51.171875 53.6875 57.984375 
Q 46.6875 64.796875 31.59375 64.796875 
z
M 9.8125 72.90625 
L 30.078125 72.90625 
Q 51.265625 72.90625 61.171875 64.09375 
Q 71.09375 55.28125 71.09375 36.53125 
Q 71.09375 17.671875 61.125 8.828125 
Q 51.171875 0 30.078125 0 
L 9.8125 0 
z
" id="DejaVuSans-44"/>
       <path d="M 34.28125 27.484375 
Q 23.390625 27.484375 19.1875 25 
Q 14.984375 22.515625 14.984375 16.5 
Q 14.984375 11.71875 18.140625 8.90625 
Q 21.296875 6.109375 26.703125 6.109375 
Q 34.1875 6.109375 38.703125 11.40625 
Q 43.21875 16.703125 43.21875 25.484375 
L 43.21875 27.484375 
z
M 52.203125 31.203125 
L 52.203125 0 
L 43.21875 0 
L 43.21875 8.296875 
Q 40.140625 3.328125 35.546875 0.953125 
Q 30.953125 -1.421875 24.3125 -1.421875 
Q 15.921875 -1.421875 10.953125 3.296875 
Q 6 8.015625 6 15.921875 
Q 6 25.140625 12.171875 29.828125 
Q 18.359375 34.515625 30.609375 34.515625 
L 43.21875 34.515625 
L 43.21875 35.40625 
Q 43.21875 41.609375 39.140625 45 
Q 35.0625 48.390625 27.6875 48.390625 
Q 23 48.390625 18.546875 47.265625 
Q 14.109375 46.140625 10.015625 43.890625 
L 10.015625 52.203125 
Q 14.9375 54.109375 19.578125 55.046875 
Q 24.21875 56 28.609375 56 
Q 40.484375 56 46.34375 49.84375 
Q 52.203125 43.703125 52.203125 31.203125 
z
" id="DejaVuSans-61"/>
       <path d="M 54.890625 33.015625 
L 54.890625 0 
L 45.90625 0 
L 45.90625 32.71875 
Q 45.90625 40.484375 42.875 44.328125 
Q 39.84375 48.1875 33.796875 48.1875 
Q 26.515625 48.1875 22.3125 43.546875 
Q 18.109375 38.921875 18.109375 30.90625 
L 18.109375 0 
L 9.078125 0 
L 9.078125 54.6875 
L 18.109375 54.6875 
L 18.109375 46.1875 
Q 21.34375 51.125 25.703125 53.5625 
Q 30.078125 56 35.796875 56 
Q 45.21875 56 50.046875 50.171875 
Q 54.890625 44.34375 54.890625 33.015625 
z
" id="DejaVuSans-6e"/>
       <path d="M 2.984375 54.6875 
L 12.5 54.6875 
L 29.59375 8.796875 
L 46.6875 54.6875 
L 56.203125 54.6875 
L 35.6875 0 
L 23.484375 0 
z
" id="DejaVuSans-76"/>
       <path d="M 56.203125 29.59375 
L 56.203125 25.203125 
L 14.890625 25.203125 
Q 15.484375 15.921875 20.484375 11.0625 
Q 25.484375 6.203125 34.421875 6.203125 
Q 39.59375 6.203125 44.453125 7.46875 
Q 49.3125 8.734375 54.109375 11.28125 
L 54.109375 2.78125 
Q 49.265625 0.734375 44.1875 -0.34375 
Q 39.109375 -1.421875 33.890625 -1.421875 
Q 20.796875 -1.421875 13.15625 6.1875 
Q 5.515625 13.8125 5.515625 26.8125 
Q 5.515625 40.234375 12.765625 48.109375 
Q 20.015625 56 32.328125 56 
Q 43.359375 56 49.78125 48.890625 
Q 56.203125 41.796875 56.203125 29.59375 
z
M 47.21875 32.234375 
Q 47.125 39.59375 43.09375 43.984375 
Q 39.0625 48.390625 32.421875 48.390625 
Q 24.90625 48.390625 20.390625 44.140625 
Q 15.875 39.890625 15.1875 32.171875 
z
" id="DejaVuSans-65"/>
       <path d="M 41.109375 46.296875 
Q 39.59375 47.171875 37.8125 47.578125 
Q 36.03125 48 33.890625 48 
Q 26.265625 48 22.1875 43.046875 
Q 18.109375 38.09375 18.109375 28.8125 
L 18.109375 0 
L 9.078125 0 
L 9.078125 54.6875 
L 18.109375 54.6875 
L 18.109375 46.1875 
Q 20.953125 51.171875 25.484375 53.578125 
Q 30.03125 56 36.53125 56 
Q 37.453125 56 38.578125 55.875 
Q 39.703125 55.765625 41.0625 55.515625 
z
" id="DejaVuSans-72"/>
       <path d="M 44.28125 53.078125 
L 44.28125 44.578125 
Q 40.484375 46.53125 36.375 47.5 
Q 32.28125 48.484375 27.875 48.484375 
Q 21.1875 48.484375 17.84375 46.4375 
Q 14.5 44.390625 14.5 40.28125 
Q 14.5 37.15625 16.890625 35.375 
Q 19.28125 33.59375 26.515625 31.984375 
L 29.59375 31.296875 
Q 39.15625 29.25 43.1875 25.515625 
Q 47.21875 21.78125 47.21875 15.09375 
Q 47.21875 7.46875 41.1875 3.015625 
Q 35.15625 -1.421875 24.609375 -1.421875 
Q 20.21875 -1.421875 15.453125 -0.5625 
Q 10.6875 0.296875 5.421875 2 
L 5.421875 11.28125 
Q 10.40625 8.6875 15.234375 7.390625 
Q 20.0625 6.109375 24.8125 6.109375 
Q 31.15625 6.109375 34.5625 8.28125 
Q 37.984375 10.453125 37.984375 14.40625 
Q 37.984375 18.0625 35.515625 20.015625 
Q 33.0625 21.96875 24.703125 23.78125 
L 21.578125 24.515625 
Q 13.234375 26.265625 9.515625 29.90625 
Q 5.8125 33.546875 5.8125 39.890625 
Q 5.8125 47.609375 11.28125 51.796875 
Q 16.75 56 26.8125 56 
Q 31.78125 56 36.171875 55.265625 
Q 40.578125 54.546875 44.28125 53.078125 
z
" id="DejaVuSans-73"/>
       <path id="DejaVuSans-20"/>
       <path d="M 4.890625 31.390625 
L 31.203125 31.390625 
L 31.203125 23.390625 
L 4.890625 23.390625 
z
" id="DejaVuSans-2d"/>
       <path d="M 9.8125 72.90625 
L 19.671875 72.90625 
L 19.671875 43.015625 
L 55.515625 43.015625 
L 55.515625 72.90625 
L 65.375 72.90625 
L 65.375 0 
L 55.515625 0 
L 55.515625 34.71875 
L 19.671875 34.71875 
L 19.671875 0 
L 9.8125 0 
z
" id="DejaVuSans-48"/>
       <path d="M 9.421875 54.6875 
L 18.40625 54.6875 
L 18.40625 0 
L 9.421875 0 
z
M 9.421875 75.984375 
L 18.40625 75.984375 
L 18.40625 64.59375 
L 9.421875 64.59375 
z
" id="DejaVuSans-69"/>
       <path d="M 45.40625 27.984375 
Q 45.40625 37.75 41.375 43.109375 
Q 37.359375 48.484375 30.078125 48.484375 
Q 22.859375 48.484375 18.828125 43.109375 
Q 14.796875 37.75 14.796875 27.984375 
Q 14.796875 18.265625 18.828125 12.890625 
Q 22.859375 7.515625 30.078125 7.515625 
Q 37.359375 7.515625 41.375 12.890625 
Q 45.40625 18.265625 45.40625 27.984375 
z
M 54.390625 6.78125 
Q 54.390625 -7.171875 48.1875 -13.984375 
Q 42 -20.796875 29.203125 -20.796875 
Q 24.46875 -20.796875 20.265625 -20.09375 
Q 16.0625 -19.390625 12.109375 -17.921875 
L 12.109375 -9.1875 
Q 16.0625 -11.328125 19.921875 -12.34375 
Q 23.78125 -13.375 27.78125 -13.375 
Q 36.625 -13.375 41.015625 -8.765625 
Q 45.40625 -4.15625 45.40625 5.171875 
L 45.40625 9.625 
Q 42.625 4.78125 38.28125 2.390625 
Q 33.9375 0 27.875 0 
Q 17.828125 0 11.671875 7.65625 
Q 5.515625 15.328125 5.515625 27.984375 
Q 5.515625 40.671875 11.671875 48.328125 
Q 17.828125 56 27.875 56 
Q 33.9375 56 38.28125 53.609375 
Q 42.625 51.21875 45.40625 46.390625 
L 45.40625 54.6875 
L 54.390625 54.6875 
z
" id="DejaVuSans-67"/>
       <path d="M 54.890625 33.015625 
L 54.890625 0 
L 45.90625 0 
L 45.90625 32.71875 
Q 45.90625 40.484375 42.875 44.328125 
Q 39.84375 48.1875 33.796875 48.1875 
Q 26.515625 48.1875 22.3125 43.546875 
Q 18.109375 38.921875 18.109375 30.90625 
L 18.109375 0 
L 9.078125 0 
L 9.078125 75.984375 
L 18.109375 75.984375 
L 18.109375 46.1875 
Q 21.34375 51.125 25.703125 53.5625 
Q 30.078125 56 35.796875 56 
Q 45.21875 56 50.046875 50.171875 
Q 54.890625 44.34375 54.890625 33.015625 
z
" id="DejaVuSans-68"/>
      </defs>
      <g transform="translate(87.419196 618.215625)rotate(-90)scale(0.1 -0.1)">
       <use xlink:href="#DejaVuSans-44"/>
       <use x="77.001953" xlink:href="#DejaVuSans-61"/>
       <use x="138.28125" xlink:href="#DejaVuSans-6e"/>
       <use x="201.660156" xlink:href="#DejaVuSans-76"/>
       <use x="260.839844" xlink:href="#DejaVuSans-65"/>
       <use x="322.363281" xlink:href="#DejaVuSans-72"/>
       <use x="363.476562" xlink:href="#DejaVuSans-73"/>
       <use x="415.576172" xlink:href="#DejaVuSans-20"/>
       <use x="447.363281" xlink:href="#DejaVuSans-2d"/>
       <use x="483.447266" xlink:href="#DejaVuSans-20"/>
       <use x="515.234375" xlink:href="#DejaVuSans-44"/>
       <use x="592.236328" xlink:href="#DejaVuSans-61"/>
       <use x="653.515625" xlink:href="#DejaVuSans-6e"/>
       <use x="716.894531" xlink:href="#DejaVuSans-76"/>
       <use x="776.074219" xlink:href="#DejaVuSans-65"/>
       <use x="837.597656" xlink:href="#DejaVuSans-72"/>
       <use x="878.710938" xlink:href="#DejaVuSans-73"/>
       <use x="930.810547" xlink:href="#DejaVuSans-20"/>
       <use x="962.597656" xlink:href="#DejaVuSans-48"/>
       <use x="1037.792969" xlink:href="#DejaVuSans-69"/>
       <use x="1065.576172" xlink:href="#DejaVuSans-67"/>
       <use x="1129.052734" xlink:href="#DejaVuSans-68"/>
      </g>
     </g>
    </g>
    <g id="xtick_2">
     <g id="line2d_2">
      <g>
       <use style="stroke:#000000;stroke-width:0.8;" x="180.204464" xlink:href="#mb89b40ac68" y="491.973437"/>
      </g>
     </g>
     <g id="text_2">
      <!-- Danvers - Great Oak -->
      <defs>
       <path d="M 59.515625 10.40625 
L 59.515625 29.984375 
L 43.40625 29.984375 
L 43.40625 38.09375 
L 69.28125 38.09375 
L 69.28125 6.78125 
Q 63.578125 2.734375 56.6875 0.65625 
Q 49.8125 -1.421875 42 -1.421875 
Q 24.90625 -1.421875 15.25 8.5625 
Q 5.609375 18.5625 5.609375 36.375 
Q 5.609375 54.25 15.25 64.234375 
Q 24.90625 74.21875 42 74.21875 
Q 49.125 74.21875 55.546875 72.453125 
Q 61.96875 70.703125 67.390625 67.28125 
L 67.390625 56.78125 
Q 61.921875 61.421875 55.765625 63.765625 
Q 49.609375 66.109375 42.828125 66.109375 
Q 29.4375 66.109375 22.71875 58.640625 
Q 16.015625 51.171875 16.015625 36.375 
Q 16.015625 21.625 22.71875 14.15625 
Q 29.4375 6.6875 42.828125 6.6875 
Q 48.046875 6.6875 52.140625 7.59375 
Q 56.25 8.5 59.515625 10.40625 
z
" id="DejaVuSans-47"/>
       <path d="M 18.3125 70.21875 
L 18.3125 54.6875 
L 36.8125 54.6875 
L 36.8125 47.703125 
L 18.3125 47.703125 
L 18.3125 18.015625 
Q 18.3125 11.328125 20.140625 9.421875 
Q 21.96875 7.515625 27.59375 7.515625 
L 36.8125 7.515625 
L 36.8125 0 
L 27.59375 0 
Q 17.1875 0 13.234375 3.875 
Q 9.28125 7.765625 9.28125 18.015625 
L 9.28125 47.703125 
L 2.6875 47.703125 
L 2.6875 54.6875 
L 9.28125 54.6875 
L 9.28125 70.21875 
z
" id="DejaVuSans-74"/>
       <path d="M 39.40625 66.21875 
Q 28.65625 66.21875 22.328125 58.203125 
Q 16.015625 50.203125 16.015625 36.375 
Q 16.015625 22.609375 22.328125 14.59375 
Q 28.65625 6.59375 39.40625 6.59375 
Q 50.140625 6.59375 56.421875 14.59375 
Q 62.703125 22.609375 62.703125 36.375 
Q 62.703125 50.203125 56.421875 58.203125 
Q 50.140625 66.21875 39.40625 66.21875 
z
M 39.40625 74.21875 
Q 54.734375 74.21875 63.90625 63.9375 
Q 73.09375 53.65625 73.09375 36.375 
Q 73.09375 19.140625 63.90625 8.859375 
Q 54.734375 -1.421875 39.40625 -1.421875 
Q 24.03125 -1.421875 14.8125 8.828125 
Q 5.609375 19.09375 5.609375 36.375 
Q 5.609375 53.65625 14.8125 63.9375 
Q 24.03125 74.21875 39.40625 74.21875 
z
" id="DejaVuSans-4f"/>
       <path d="M 9.078125 75.984375 
L 18.109375 75.984375 
L 18.109375 31.109375 
L 44.921875 54.6875 
L 56.390625 54.6875 
L 27.390625 29.109375 
L 57.625 0 
L 45.90625 0 
L 18.109375 26.703125 
L 18.109375 0 
L 9.078125 0 
z
" id="DejaVuSans-6b"/>
      </defs>
      <g transform="translate(182.963839 601.521875)rotate(-90)scale(0.1 -0.1)">
       <use xlink:href="#DejaVuSans-44"/>
       <use x="77.001953" xlink:href="#DejaVuSans-61"/>
       <use x="138.28125" xlink:href="#DejaVuSans-6e"/>
       <use x="201.660156" xlink:href="#DejaVuSans-76"/>
       <use x="260.839844" xlink:href="#DejaVuSans-65"/>
       <use x="322.363281" xlink:href="#DejaVuSans-72"/>
       <use x="363.476562" xlink:href="#DejaVuSans-73"/>
       <use x="415.576172" xlink:href="#DejaVuSans-20"/>
       <use x="447.363281" xlink:href="#DejaVuSans-2d"/>
       <use x="483.447266" xlink:href="#DejaVuSans-20"/>
       <use x="515.234375" xlink:href="#DejaVuSans-47"/>
       <use x="592.724609" xlink:href="#DejaVuSans-72"/>
       <use x="633.806641" xlink:href="#DejaVuSans-65"/>
       <use x="695.330078" xlink:href="#DejaVuSans-61"/>
       <use x="756.609375" xlink:href="#DejaVuSans-74"/>
       <use x="795.818359" xlink:href="#DejaVuSans-20"/>
       <use x="827.605469" xlink:href="#DejaVuSans-4f"/>
       <use x="906.316406" xlink:href="#DejaVuSans-61"/>
       <use x="967.595703" xlink:href="#DejaVuSans-6b"/>
      </g>
     </g>
    </g>
    <g id="xtick_3">
     <g id="line2d_3">
      <g>
       <use style="stroke:#000000;stroke-width:0.8;" x="275.749107" xlink:href="#mb89b40ac68" y="491.973437"/>
      </g>
     </g>
     <g id="text_3">
      <!-- Danvers - Highlands -->
      <defs>
       <path d="M 9.421875 75.984375 
L 18.40625 75.984375 
L 18.40625 0 
L 9.421875 0 
z
" id="DejaVuSans-6c"/>
       <path d="M 45.40625 46.390625 
L 45.40625 75.984375 
L 54.390625 75.984375 
L 54.390625 0 
L 45.40625 0 
L 45.40625 8.203125 
Q 42.578125 3.328125 38.25 0.953125 
Q 33.9375 -1.421875 27.875 -1.421875 
Q 17.96875 -1.421875 11.734375 6.484375 
Q 5.515625 14.40625 5.515625 27.296875 
Q 5.515625 40.1875 11.734375 48.09375 
Q 17.96875 56 27.875 56 
Q 33.9375 56 38.25 53.625 
Q 42.578125 51.265625 45.40625 46.390625 
z
M 14.796875 27.296875 
Q 14.796875 17.390625 18.875 11.75 
Q 22.953125 6.109375 30.078125 6.109375 
Q 37.203125 6.109375 41.296875 11.75 
Q 45.40625 17.390625 45.40625 27.296875 
Q 45.40625 37.203125 41.296875 42.84375 
Q 37.203125 48.484375 30.078125 48.484375 
Q 22.953125 48.484375 18.875 42.84375 
Q 14.796875 37.203125 14.796875 27.296875 
z
" id="DejaVuSans-64"/>
      </defs>
      <g transform="translate(278.508482 600.28125)rotate(-90)scale(0.1 -0.1)">
       <use xlink:href="#DejaVuSans-44"/>
       <use x="77.001953" xlink:href="#DejaVuSans-61"/>
       <use x="138.28125" xlink:href="#DejaVuSans-6e"/>
       <use x="201.660156" xlink:href="#DejaVuSans-76"/>
       <use x="260.839844" xlink:href="#DejaVuSans-65"/>
       <use x="322.363281" xlink:href="#DejaVuSans-72"/>
       <use x="363.476562" xlink:href="#DejaVuSans-73"/>
       <use x="415.576172" xlink:href="#DejaVuSans-20"/>
       <use x="447.363281" xlink:href="#DejaVuSans-2d"/>
       <use x="483.447266" xlink:href="#DejaVuSans-20"/>
       <use x="515.234375" xlink:href="#DejaVuSans-48"/>
       <use x="590.429688" xlink:href="#DejaVuSans-69"/>
       <use x="618.212891" xlink:href="#DejaVuSans-67"/>
       <use x="681.689453" xlink:href="#DejaVuSans-68"/>
       <use x="745.068359" xlink:href="#DejaVuSans-6c"/>
       <use x="772.851562" xlink:href="#DejaVuSans-61"/>
       <use x="834.130859" xlink:href="#DejaVuSans-6e"/>
       <use x="897.509766" xlink:href="#DejaVuSans-64"/>
       <use x="960.986328" xlink:href="#DejaVuSans-73"/>
      </g>
     </g>
    </g>
    <g id="xtick_4">
     <g id="line2d_4">
      <g>
       <use style="stroke:#000000;stroke-width:0.8;" x="371.29375" xlink:href="#mb89b40ac68" y="491.973437"/>
      </g>
     </g>
     <g id="text_4">
      <!-- Danvers - Holten Richmond Middle School -->
      <defs>
       <path d="M 30.609375 48.390625 
Q 23.390625 48.390625 19.1875 42.75 
Q 14.984375 37.109375 14.984375 27.296875 
Q 14.984375 17.484375 19.15625 11.84375 
Q 23.34375 6.203125 30.609375 6.203125 
Q 37.796875 6.203125 41.984375 11.859375 
Q 46.1875 17.53125 46.1875 27.296875 
Q 46.1875 37.015625 41.984375 42.703125 
Q 37.796875 48.390625 30.609375 48.390625 
z
M 30.609375 56 
Q 42.328125 56 49.015625 48.375 
Q 55.71875 40.765625 55.71875 27.296875 
Q 55.71875 13.875 49.015625 6.21875 
Q 42.328125 -1.421875 30.609375 -1.421875 
Q 18.84375 -1.421875 12.171875 6.21875 
Q 5.515625 13.875 5.515625 27.296875 
Q 5.515625 40.765625 12.171875 48.375 
Q 18.84375 56 30.609375 56 
z
" id="DejaVuSans-6f"/>
       <path d="M 44.390625 34.1875 
Q 47.5625 33.109375 50.5625 29.59375 
Q 53.5625 26.078125 56.59375 19.921875 
L 66.609375 0 
L 56 0 
L 46.6875 18.703125 
Q 43.0625 26.03125 39.671875 28.421875 
Q 36.28125 30.8125 30.421875 30.8125 
L 19.671875 30.8125 
L 19.671875 0 
L 9.8125 0 
L 9.8125 72.90625 
L 32.078125 72.90625 
Q 44.578125 72.90625 50.734375 67.671875 
Q 56.890625 62.453125 56.890625 51.90625 
Q 56.890625 45.015625 53.6875 40.46875 
Q 50.484375 35.9375 44.390625 34.1875 
z
M 19.671875 64.796875 
L 19.671875 38.921875 
L 32.078125 38.921875 
Q 39.203125 38.921875 42.84375 42.21875 
Q 46.484375 45.515625 46.484375 51.90625 
Q 46.484375 58.296875 42.84375 61.546875 
Q 39.203125 64.796875 32.078125 64.796875 
z
" id="DejaVuSans-52"/>
       <path d="M 48.78125 52.59375 
L 48.78125 44.1875 
Q 44.96875 46.296875 41.140625 47.34375 
Q 37.3125 48.390625 33.40625 48.390625 
Q 24.65625 48.390625 19.8125 42.84375 
Q 14.984375 37.3125 14.984375 27.296875 
Q 14.984375 17.28125 19.8125 11.734375 
Q 24.65625 6.203125 33.40625 6.203125 
Q 37.3125 6.203125 41.140625 7.25 
Q 44.96875 8.296875 48.78125 10.40625 
L 48.78125 2.09375 
Q 45.015625 0.34375 40.984375 -0.53125 
Q 36.96875 -1.421875 32.421875 -1.421875 
Q 20.0625 -1.421875 12.78125 6.34375 
Q 5.515625 14.109375 5.515625 27.296875 
Q 5.515625 40.671875 12.859375 48.328125 
Q 20.21875 56 33.015625 56 
Q 37.15625 56 41.109375 55.140625 
Q 45.0625 54.296875 48.78125 52.59375 
z
" id="DejaVuSans-63"/>
       <path d="M 52 44.1875 
Q 55.375 50.25 60.0625 53.125 
Q 64.75 56 71.09375 56 
Q 79.640625 56 84.28125 50.015625 
Q 88.921875 44.046875 88.921875 33.015625 
L 88.921875 0 
L 79.890625 0 
L 79.890625 32.71875 
Q 79.890625 40.578125 77.09375 44.375 
Q 74.3125 48.1875 68.609375 48.1875 
Q 61.625 48.1875 57.5625 43.546875 
Q 53.515625 38.921875 53.515625 30.90625 
L 53.515625 0 
L 44.484375 0 
L 44.484375 32.71875 
Q 44.484375 40.625 41.703125 44.40625 
Q 38.921875 48.1875 33.109375 48.1875 
Q 26.21875 48.1875 22.15625 43.53125 
Q 18.109375 38.875 18.109375 30.90625 
L 18.109375 0 
L 9.078125 0 
L 9.078125 54.6875 
L 18.109375 54.6875 
L 18.109375 46.1875 
Q 21.1875 51.21875 25.484375 53.609375 
Q 29.78125 56 35.6875 56 
Q 41.65625 56 45.828125 52.96875 
Q 50 49.953125 52 44.1875 
z
" id="DejaVuSans-6d"/>
       <path d="M 9.8125 72.90625 
L 24.515625 72.90625 
L 43.109375 23.296875 
L 61.8125 72.90625 
L 76.515625 72.90625 
L 76.515625 0 
L 66.890625 0 
L 66.890625 64.015625 
L 48.09375 14.015625 
L 38.1875 14.015625 
L 19.390625 64.015625 
L 19.390625 0 
L 9.8125 0 
z
" id="DejaVuSans-4d"/>
       <path d="M 53.515625 70.515625 
L 53.515625 60.890625 
Q 47.90625 63.578125 42.921875 64.890625 
Q 37.9375 66.21875 33.296875 66.21875 
Q 25.25 66.21875 20.875 63.09375 
Q 16.5 59.96875 16.5 54.203125 
Q 16.5 49.359375 19.40625 46.890625 
Q 22.3125 44.4375 30.421875 42.921875 
L 36.375 41.703125 
Q 47.40625 39.59375 52.65625 34.296875 
Q 57.90625 29 57.90625 20.125 
Q 57.90625 9.515625 50.796875 4.046875 
Q 43.703125 -1.421875 29.984375 -1.421875 
Q 24.8125 -1.421875 18.96875 -0.25 
Q 13.140625 0.921875 6.890625 3.21875 
L 6.890625 13.375 
Q 12.890625 10.015625 18.65625 8.296875 
Q 24.421875 6.59375 29.984375 6.59375 
Q 38.421875 6.59375 43.015625 9.90625 
Q 47.609375 13.234375 47.609375 19.390625 
Q 47.609375 24.75 44.3125 27.78125 
Q 41.015625 30.8125 33.5 32.328125 
L 27.484375 33.5 
Q 16.453125 35.6875 11.515625 40.375 
Q 6.59375 45.0625 6.59375 53.421875 
Q 6.59375 63.09375 13.40625 68.65625 
Q 20.21875 74.21875 32.171875 74.21875 
Q 37.3125 74.21875 42.625 73.28125 
Q 47.953125 72.359375 53.515625 70.515625 
z
" id="DejaVuSans-53"/>
      </defs>
      <g transform="translate(374.053125 709.2)rotate(-90)scale(0.1 -0.1)">
       <use xlink:href="#DejaVuSans-44"/>
       <use x="77.001953" xlink:href="#DejaVuSans-61"/>
       <use x="138.28125" xlink:href="#DejaVuSans-6e"/>
       <use x="201.660156" xlink:href="#DejaVuSans-76"/>
       <use x="260.839844" xlink:href="#DejaVuSans-65"/>
       <use x="322.363281" xlink:href="#DejaVuSans-72"/>
       <use x="363.476562" xlink:href="#DejaVuSans-73"/>
       <use x="415.576172" xlink:href="#DejaVuSans-20"/>
       <use x="447.363281" xlink:href="#DejaVuSans-2d"/>
       <use x="483.447266" xlink:href="#DejaVuSans-20"/>
       <use x="515.234375" xlink:href="#DejaVuSans-48"/>
       <use x="590.429688" xlink:href="#DejaVuSans-6f"/>
       <use x="651.611328" xlink:href="#DejaVuSans-6c"/>
       <use x="679.394531" xlink:href="#DejaVuSans-74"/>
       <use x="718.603516" xlink:href="#DejaVuSans-65"/>
       <use x="780.126953" xlink:href="#DejaVuSans-6e"/>
       <use x="843.505859" xlink:href="#DejaVuSans-20"/>
       <use x="875.292969" xlink:href="#DejaVuSans-52"/>
       <use x="944.775391" xlink:href="#DejaVuSans-69"/>
       <use x="972.558594" xlink:href="#DejaVuSans-63"/>
       <use x="1027.539062" xlink:href="#DejaVuSans-68"/>
       <use x="1090.917969" xlink:href="#DejaVuSans-6d"/>
       <use x="1188.330078" xlink:href="#DejaVuSans-6f"/>
       <use x="1249.511719" xlink:href="#DejaVuSans-6e"/>
       <use x="1312.890625" xlink:href="#DejaVuSans-64"/>
       <use x="1376.367188" xlink:href="#DejaVuSans-20"/>
       <use x="1408.154297" xlink:href="#DejaVuSans-4d"/>
       <use x="1494.433594" xlink:href="#DejaVuSans-69"/>
       <use x="1522.216797" xlink:href="#DejaVuSans-64"/>
       <use x="1585.693359" xlink:href="#DejaVuSans-64"/>
       <use x="1649.169922" xlink:href="#DejaVuSans-6c"/>
       <use x="1676.953125" xlink:href="#DejaVuSans-65"/>
       <use x="1738.476562" xlink:href="#DejaVuSans-20"/>
       <use x="1770.263672" xlink:href="#DejaVuSans-53"/>
       <use x="1833.740234" xlink:href="#DejaVuSans-63"/>
       <use x="1888.720703" xlink:href="#DejaVuSans-68"/>
       <use x="1952.099609" xlink:href="#DejaVuSans-6f"/>
       <use x="2013.28125" xlink:href="#DejaVuSans-6f"/>
       <use x="2074.462891" xlink:href="#DejaVuSans-6c"/>
      </g>
     </g>
    </g>
    <g id="xtick_5">
     <g id="line2d_5">
      <g>
       <use style="stroke:#000000;stroke-width:0.8;" x="466.838393" xlink:href="#mb89b40ac68" y="491.973437"/>
      </g>
     </g>
     <g id="text_5">
      <!-- Danvers - Ivan G Smith -->
      <defs>
       <path d="M 9.8125 72.90625 
L 19.671875 72.90625 
L 19.671875 0 
L 9.8125 0 
z
" id="DejaVuSans-49"/>
      </defs>
      <g transform="translate(469.597768 615.059375)rotate(-90)scale(0.1 -0.1)">
       <use xlink:href="#DejaVuSans-44"/>
       <use x="77.001953" xlink:href="#DejaVuSans-61"/>
       <use x="138.28125" xlink:href="#DejaVuSans-6e"/>
       <use x="201.660156" xlink:href="#DejaVuSans-76"/>
       <use x="260.839844" xlink:href="#DejaVuSans-65"/>
       <use x="322.363281" xlink:href="#DejaVuSans-72"/>
       <use x="363.476562" xlink:href="#DejaVuSans-73"/>
       <use x="415.576172" xlink:href="#DejaVuSans-20"/>
       <use x="447.363281" xlink:href="#DejaVuSans-2d"/>
       <use x="483.447266" xlink:href="#DejaVuSans-20"/>
       <use x="515.234375" xlink:href="#DejaVuSans-49"/>
       <use x="544.726562" xlink:href="#DejaVuSans-76"/>
       <use x="603.90625" xlink:href="#DejaVuSans-61"/>
       <use x="665.185547" xlink:href="#DejaVuSans-6e"/>
       <use x="728.564453" xlink:href="#DejaVuSans-20"/>
       <use x="760.351562" xlink:href="#DejaVuSans-47"/>
       <use x="837.841797" xlink:href="#DejaVuSans-20"/>
       <use x="869.628906" xlink:href="#DejaVuSans-53"/>
       <use x="933.105469" xlink:href="#DejaVuSans-6d"/>
       <use x="1030.517578" xlink:href="#DejaVuSans-69"/>
       <use x="1058.300781" xlink:href="#DejaVuSans-74"/>
       <use x="1097.509766" xlink:href="#DejaVuSans-68"/>
      </g>
     </g>
    </g>
    <g id="xtick_6">
     <g id="line2d_6">
      <g>
       <use style="stroke:#000000;stroke-width:0.8;" x="562.383036" xlink:href="#mb89b40ac68" y="491.973437"/>
      </g>
     </g>
     <g id="text_6">
      <!-- Danvers - Riverside -->
      <g transform="translate(565.142411 596.89375)rotate(-90)scale(0.1 -0.1)">
       <use xlink:href="#DejaVuSans-44"/>
       <use x="77.001953" xlink:href="#DejaVuSans-61"/>
       <use x="138.28125" xlink:href="#DejaVuSans-6e"/>
       <use x="201.660156" xlink:href="#DejaVuSans-76"/>
       <use x="260.839844" xlink:href="#DejaVuSans-65"/>
       <use x="322.363281" xlink:href="#DejaVuSans-72"/>
       <use x="363.476562" xlink:href="#DejaVuSans-73"/>
       <use x="415.576172" xlink:href="#DejaVuSans-20"/>
       <use x="447.363281" xlink:href="#DejaVuSans-2d"/>
       <use x="483.447266" xlink:href="#DejaVuSans-20"/>
       <use x="515.234375" xlink:href="#DejaVuSans-52"/>
       <use x="584.716797" xlink:href="#DejaVuSans-69"/>
       <use x="612.5" xlink:href="#DejaVuSans-76"/>
       <use x="671.679688" xlink:href="#DejaVuSans-65"/>
       <use x="733.203125" xlink:href="#DejaVuSans-72"/>
       <use x="774.316406" xlink:href="#DejaVuSans-73"/>
       <use x="826.416016" xlink:href="#DejaVuSans-69"/>
       <use x="854.199219" xlink:href="#DejaVuSans-64"/>
       <use x="917.675781" xlink:href="#DejaVuSans-65"/>
      </g>
     </g>
    </g>
    <g id="xtick_7">
     <g id="line2d_7">
      <g>
       <use style="stroke:#000000;stroke-width:0.8;" x="657.927679" xlink:href="#mb89b40ac68" y="491.973437"/>
      </g>
     </g>
     <g id="text_7">
      <!-- Danvers - Willis E Thorpe -->
      <defs>
       <path d="M 3.328125 72.90625 
L 13.28125 72.90625 
L 28.609375 11.28125 
L 43.890625 72.90625 
L 54.984375 72.90625 
L 70.3125 11.28125 
L 85.59375 72.90625 
L 95.609375 72.90625 
L 77.296875 0 
L 64.890625 0 
L 49.515625 63.28125 
L 33.984375 0 
L 21.578125 0 
z
" id="DejaVuSans-57"/>
       <path d="M 9.8125 72.90625 
L 55.90625 72.90625 
L 55.90625 64.59375 
L 19.671875 64.59375 
L 19.671875 43.015625 
L 54.390625 43.015625 
L 54.390625 34.71875 
L 19.671875 34.71875 
L 19.671875 8.296875 
L 56.78125 8.296875 
L 56.78125 0 
L 9.8125 0 
z
" id="DejaVuSans-45"/>
       <path d="M -0.296875 72.90625 
L 61.375 72.90625 
L 61.375 64.59375 
L 35.5 64.59375 
L 35.5 0 
L 25.59375 0 
L 25.59375 64.59375 
L -0.296875 64.59375 
z
" id="DejaVuSans-54"/>
       <path d="M 18.109375 8.203125 
L 18.109375 -20.796875 
L 9.078125 -20.796875 
L 9.078125 54.6875 
L 18.109375 54.6875 
L 18.109375 46.390625 
Q 20.953125 51.265625 25.265625 53.625 
Q 29.59375 56 35.59375 56 
Q 45.5625 56 51.78125 48.09375 
Q 58.015625 40.1875 58.015625 27.296875 
Q 58.015625 14.40625 51.78125 6.484375 
Q 45.5625 -1.421875 35.59375 -1.421875 
Q 29.59375 -1.421875 25.265625 0.953125 
Q 20.953125 3.328125 18.109375 8.203125 
z
M 48.6875 27.296875 
Q 48.6875 37.203125 44.609375 42.84375 
Q 40.53125 48.484375 33.40625 48.484375 
Q 26.265625 48.484375 22.1875 42.84375 
Q 18.109375 37.203125 18.109375 27.296875 
Q 18.109375 17.390625 22.1875 11.75 
Q 26.265625 6.109375 33.40625 6.109375 
Q 40.53125 6.109375 44.609375 11.75 
Q 48.6875 17.390625 48.6875 27.296875 
z
" id="DejaVuSans-70"/>
      </defs>
      <g transform="translate(660.687054 624.553125)rotate(-90)scale(0.1 -0.1)">
       <use xlink:href="#DejaVuSans-44"/>
       <use x="77.001953" xlink:href="#DejaVuSans-61"/>
       <use x="138.28125" xlink:href="#DejaVuSans-6e"/>
       <use x="201.660156" xlink:href="#DejaVuSans-76"/>
       <use x="260.839844" xlink:href="#DejaVuSans-65"/>
       <use x="322.363281" xlink:href="#DejaVuSans-72"/>
       <use x="363.476562" xlink:href="#DejaVuSans-73"/>
       <use x="415.576172" xlink:href="#DejaVuSans-20"/>
       <use x="447.363281" xlink:href="#DejaVuSans-2d"/>
       <use x="483.447266" xlink:href="#DejaVuSans-20"/>
       <use x="515.234375" xlink:href="#DejaVuSans-57"/>
       <use x="614.080078" xlink:href="#DejaVuSans-69"/>
       <use x="641.863281" xlink:href="#DejaVuSans-6c"/>
       <use x="669.646484" xlink:href="#DejaVuSans-6c"/>
       <use x="697.429688" xlink:href="#DejaVuSans-69"/>
       <use x="725.212891" xlink:href="#DejaVuSans-73"/>
       <use x="777.3125" xlink:href="#DejaVuSans-20"/>
       <use x="809.099609" xlink:href="#DejaVuSans-45"/>
       <use x="872.283203" xlink:href="#DejaVuSans-20"/>
       <use x="904.070312" xlink:href="#DejaVuSans-54"/>
       <use x="965.154297" xlink:href="#DejaVuSans-68"/>
       <use x="1028.533203" xlink:href="#DejaVuSans-6f"/>
       <use x="1089.714844" xlink:href="#DejaVuSans-72"/>
       <use x="1130.828125" xlink:href="#DejaVuSans-70"/>
       <use x="1194.304688" xlink:href="#DejaVuSans-65"/>
      </g>
     </g>
    </g>
   </g>
   <g id="matplotlib.axis_2">
    <g id="ytick_1">
     <g id="line2d_8">
      <defs>
       <path d="M 0 0 
L -3.5 0 
" id="m185965399e" style="stroke:#000000;stroke-width:0.8;"/>
      </defs>
      <g>
       <use style="stroke:#000000;stroke-width:0.8;" x="36.8875" xlink:href="#m185965399e" y="491.973437"/>
      </g>
     </g>
     <g id="text_8">
      <!-- 0 -->
      <defs>
       <path d="M 31.78125 66.40625 
Q 24.171875 66.40625 20.328125 58.90625 
Q 16.5 51.421875 16.5 36.375 
Q 16.5 21.390625 20.328125 13.890625 
Q 24.171875 6.390625 31.78125 6.390625 
Q 39.453125 6.390625 43.28125 13.890625 
Q 47.125 21.390625 47.125 36.375 
Q 47.125 51.421875 43.28125 58.90625 
Q 39.453125 66.40625 31.78125 66.40625 
z
M 31.78125 74.21875 
Q 44.046875 74.21875 50.515625 64.515625 
Q 56.984375 54.828125 56.984375 36.375 
Q 56.984375 17.96875 50.515625 8.265625 
Q 44.046875 -1.421875 31.78125 -1.421875 
Q 19.53125 -1.421875 13.0625 8.265625 
Q 6.59375 17.96875 6.59375 36.375 
Q 6.59375 54.828125 13.0625 64.515625 
Q 19.53125 74.21875 31.78125 74.21875 
z
" id="DejaVuSans-30"/>
      </defs>
      <g transform="translate(23.525 495.772656)scale(0.1 -0.1)">
       <use xlink:href="#DejaVuSans-30"/>
      </g>
     </g>
    </g>
    <g id="ytick_2">
     <g id="line2d_9">
      <g>
       <use style="stroke:#000000;stroke-width:0.8;" x="36.8875" xlink:href="#m185965399e" y="400.438813"/>
      </g>
     </g>
     <g id="text_9">
      <!-- 20 -->
      <defs>
       <path d="M 19.1875 8.296875 
L 53.609375 8.296875 
L 53.609375 0 
L 7.328125 0 
L 7.328125 8.296875 
Q 12.9375 14.109375 22.625 23.890625 
Q 32.328125 33.6875 34.8125 36.53125 
Q 39.546875 41.84375 41.421875 45.53125 
Q 43.3125 49.21875 43.3125 52.78125 
Q 43.3125 58.59375 39.234375 62.25 
Q 35.15625 65.921875 28.609375 65.921875 
Q 23.96875 65.921875 18.8125 64.3125 
Q 13.671875 62.703125 7.8125 59.421875 
L 7.8125 69.390625 
Q 13.765625 71.78125 18.9375 73 
Q 24.125 74.21875 28.421875 74.21875 
Q 39.75 74.21875 46.484375 68.546875 
Q 53.21875 62.890625 53.21875 53.421875 
Q 53.21875 48.921875 51.53125 44.890625 
Q 49.859375 40.875 45.40625 35.40625 
Q 44.1875 33.984375 37.640625 27.21875 
Q 31.109375 20.453125 19.1875 8.296875 
z
" id="DejaVuSans-32"/>
      </defs>
      <g transform="translate(17.1625 404.238032)scale(0.1 -0.1)">
       <use xlink:href="#DejaVuSans-32"/>
       <use x="63.623047" xlink:href="#DejaVuSans-30"/>
      </g>
     </g>
    </g>
    <g id="ytick_3">
     <g id="line2d_10">
      <g>
       <use style="stroke:#000000;stroke-width:0.8;" x="36.8875" xlink:href="#m185965399e" y="308.904189"/>
      </g>
     </g>
     <g id="text_10">
      <!-- 40 -->
      <defs>
       <path d="M 37.796875 64.3125 
L 12.890625 25.390625 
L 37.796875 25.390625 
z
M 35.203125 72.90625 
L 47.609375 72.90625 
L 47.609375 25.390625 
L 58.015625 25.390625 
L 58.015625 17.1875 
L 47.609375 17.1875 
L 47.609375 0 
L 37.796875 0 
L 37.796875 17.1875 
L 4.890625 17.1875 
L 4.890625 26.703125 
z
" id="DejaVuSans-34"/>
      </defs>
      <g transform="translate(17.1625 312.703407)scale(0.1 -0.1)">
       <use xlink:href="#DejaVuSans-34"/>
       <use x="63.623047" xlink:href="#DejaVuSans-30"/>
      </g>
     </g>
    </g>
    <g id="ytick_4">
     <g id="line2d_11">
      <g>
       <use style="stroke:#000000;stroke-width:0.8;" x="36.8875" xlink:href="#m185965399e" y="217.369564"/>
      </g>
     </g>
     <g id="text_11">
      <!-- 60 -->
      <defs>
       <path d="M 33.015625 40.375 
Q 26.375 40.375 22.484375 35.828125 
Q 18.609375 31.296875 18.609375 23.390625 
Q 18.609375 15.53125 22.484375 10.953125 
Q 26.375 6.390625 33.015625 6.390625 
Q 39.65625 6.390625 43.53125 10.953125 
Q 47.40625 15.53125 47.40625 23.390625 
Q 47.40625 31.296875 43.53125 35.828125 
Q 39.65625 40.375 33.015625 40.375 
z
M 52.59375 71.296875 
L 52.59375 62.3125 
Q 48.875 64.0625 45.09375 64.984375 
Q 41.3125 65.921875 37.59375 65.921875 
Q 27.828125 65.921875 22.671875 59.328125 
Q 17.53125 52.734375 16.796875 39.40625 
Q 19.671875 43.65625 24.015625 45.921875 
Q 28.375 48.1875 33.59375 48.1875 
Q 44.578125 48.1875 50.953125 41.515625 
Q 57.328125 34.859375 57.328125 23.390625 
Q 57.328125 12.15625 50.6875 5.359375 
Q 44.046875 -1.421875 33.015625 -1.421875 
Q 20.359375 -1.421875 13.671875 8.265625 
Q 6.984375 17.96875 6.984375 36.375 
Q 6.984375 53.65625 15.1875 63.9375 
Q 23.390625 74.21875 37.203125 74.21875 
Q 40.921875 74.21875 44.703125 73.484375 
Q 48.484375 72.75 52.59375 71.296875 
z
" id="DejaVuSans-36"/>
      </defs>
      <g transform="translate(17.1625 221.168783)scale(0.1 -0.1)">
       <use xlink:href="#DejaVuSans-36"/>
       <use x="63.623047" xlink:href="#DejaVuSans-30"/>
      </g>
     </g>
    </g>
    <g id="ytick_5">
     <g id="line2d_12">
      <g>
       <use style="stroke:#000000;stroke-width:0.8;" x="36.8875" xlink:href="#m185965399e" y="125.83494"/>
      </g>
     </g>
     <g id="text_12">
      <!-- 80 -->
      <defs>
       <path d="M 31.78125 34.625 
Q 24.75 34.625 20.71875 30.859375 
Q 16.703125 27.09375 16.703125 20.515625 
Q 16.703125 13.921875 20.71875 10.15625 
Q 24.75 6.390625 31.78125 6.390625 
Q 38.8125 6.390625 42.859375 10.171875 
Q 46.921875 13.96875 46.921875 20.515625 
Q 46.921875 27.09375 42.890625 30.859375 
Q 38.875 34.625 31.78125 34.625 
z
M 21.921875 38.8125 
Q 15.578125 40.375 12.03125 44.71875 
Q 8.5 49.078125 8.5 55.328125 
Q 8.5 64.0625 14.71875 69.140625 
Q 20.953125 74.21875 31.78125 74.21875 
Q 42.671875 74.21875 48.875 69.140625 
Q 55.078125 64.0625 55.078125 55.328125 
Q 55.078125 49.078125 51.53125 44.71875 
Q 48 40.375 41.703125 38.8125 
Q 48.828125 37.15625 52.796875 32.3125 
Q 56.78125 27.484375 56.78125 20.515625 
Q 56.78125 9.90625 50.3125 4.234375 
Q 43.84375 -1.421875 31.78125 -1.421875 
Q 19.734375 -1.421875 13.25 4.234375 
Q 6.78125 9.90625 6.78125 20.515625 
Q 6.78125 27.484375 10.78125 32.3125 
Q 14.796875 37.15625 21.921875 38.8125 
z
M 18.3125 54.390625 
Q 18.3125 48.734375 21.84375 45.5625 
Q 25.390625 42.390625 31.78125 42.390625 
Q 38.140625 42.390625 41.71875 45.5625 
Q 45.3125 48.734375 45.3125 54.390625 
Q 45.3125 60.0625 41.71875 63.234375 
Q 38.140625 66.40625 31.78125 66.40625 
Q 25.390625 66.40625 21.84375 63.234375 
Q 18.3125 60.0625 18.3125 54.390625 
z
" id="DejaVuSans-38"/>
      </defs>
      <g transform="translate(17.1625 129.634159)scale(0.1 -0.1)">
       <use xlink:href="#DejaVuSans-38"/>
       <use x="63.623047" xlink:href="#DejaVuSans-30"/>
      </g>
     </g>
    </g>
    <g id="ytick_6">
     <g id="line2d_13">
      <g>
       <use style="stroke:#000000;stroke-width:0.8;" x="36.8875" xlink:href="#m185965399e" y="34.300315"/>
      </g>
     </g>
     <g id="text_13">
      <!-- 100 -->
      <defs>
       <path d="M 12.40625 8.296875 
L 28.515625 8.296875 
L 28.515625 63.921875 
L 10.984375 60.40625 
L 10.984375 69.390625 
L 28.421875 72.90625 
L 38.28125 72.90625 
L 38.28125 8.296875 
L 54.390625 8.296875 
L 54.390625 0 
L 12.40625 0 
z
" id="DejaVuSans-31"/>
      </defs>
      <g transform="translate(10.8 38.099534)scale(0.1 -0.1)">
       <use xlink:href="#DejaVuSans-31"/>
       <use x="63.623047" xlink:href="#DejaVuSans-30"/>
       <use x="127.246094" xlink:href="#DejaVuSans-30"/>
      </g>
     </g>
    </g>
   </g>
   <g id="patch_31">
    <path d="M 36.8875 491.973437 
L 36.8875 14.3 
" style="fill:none;stroke:#000000;stroke-linecap:square;stroke-linejoin:miter;stroke-width:0.8;"/>
   </g>
   <g id="patch_32">
    <path d="M 705.7 491.973437 
L 705.7 14.3 
" style="fill:none;stroke:#000000;stroke-linecap:square;stroke-linejoin:miter;stroke-width:0.8;"/>
   </g>
   <g id="patch_33">
    <path d="M 36.8875 491.973437 
L 705.7 491.973437 
" style="fill:none;stroke:#000000;stroke-linecap:square;stroke-linejoin:miter;stroke-width:0.8;"/>
   </g>
   <g id="patch_34">
    <path d="M 36.8875 14.3 
L 705.7 14.3 
" style="fill:none;stroke:#000000;stroke-linecap:square;stroke-linejoin:miter;stroke-width:0.8;"/>
   </g>
   <g id="legend_1">
    <g id="patch_35">
     <path d="M 313.895312 283.992969 
L 428.692187 283.992969 
Q 430.692187 283.992969 430.692187 281.992969 
L 430.692187 224.280469 
Q 430.692187 222.280469 428.692187 222.280469 
L 313.895312 222.280469 
Q 311.895312 222.280469 311.895312 224.280469 
L 311.895312 281.992969 
Q 311.895312 283.992969 313.895312 283.992969 
z
" style="fill:#ffffff;opacity:0.8;stroke:#cccccc;stroke-linejoin:miter;"/>
    </g>
    <g id="patch_36">
     <path d="M 315.895312 233.878906 
L 335.895312 233.878906 
L 335.895312 226.878906 
L 315.895312 226.878906 
z
" style="fill:#1f77b4;"/>
    </g>
    <g id="text_14">
     <!-- AfricanAmerican -->
     <defs>
      <path d="M 34.1875 63.1875 
L 20.796875 26.90625 
L 47.609375 26.90625 
z
M 28.609375 72.90625 
L 39.796875 72.90625 
L 67.578125 0 
L 57.328125 0 
L 50.6875 18.703125 
L 17.828125 18.703125 
L 11.1875 0 
L 0.78125 0 
z
" id="DejaVuSans-41"/>
      <path d="M 37.109375 75.984375 
L 37.109375 68.5 
L 28.515625 68.5 
Q 23.6875 68.5 21.796875 66.546875 
Q 19.921875 64.59375 19.921875 59.515625 
L 19.921875 54.6875 
L 34.71875 54.6875 
L 34.71875 47.703125 
L 19.921875 47.703125 
L 19.921875 0 
L 10.890625 0 
L 10.890625 47.703125 
L 2.296875 47.703125 
L 2.296875 54.6875 
L 10.890625 54.6875 
L 10.890625 58.5 
Q 10.890625 67.625 15.140625 71.796875 
Q 19.390625 75.984375 28.609375 75.984375 
z
" id="DejaVuSans-66"/>
     </defs>
     <g transform="translate(343.895312 233.878906)scale(0.1 -0.1)">
      <use xlink:href="#DejaVuSans-41"/>
      <use x="68.361328" xlink:href="#DejaVuSans-66"/>
      <use x="103.566406" xlink:href="#DejaVuSans-72"/>
      <use x="144.679688" xlink:href="#DejaVuSans-69"/>
      <use x="172.462891" xlink:href="#DejaVuSans-63"/>
      <use x="227.443359" xlink:href="#DejaVuSans-61"/>
      <use x="288.722656" xlink:href="#DejaVuSans-6e"/>
      <use x="352.101562" xlink:href="#DejaVuSans-41"/>
      <use x="420.509766" xlink:href="#DejaVuSans-6d"/>
      <use x="517.921875" xlink:href="#DejaVuSans-65"/>
      <use x="579.445312" xlink:href="#DejaVuSans-72"/>
      <use x="620.558594" xlink:href="#DejaVuSans-69"/>
      <use x="648.341797" xlink:href="#DejaVuSans-63"/>
      <use x="703.322266" xlink:href="#DejaVuSans-61"/>
      <use x="764.601562" xlink:href="#DejaVuSans-6e"/>
     </g>
    </g>
    <g id="patch_37">
     <path d="M 315.895312 248.557031 
L 335.895312 248.557031 
L 335.895312 241.557031 
L 315.895312 241.557031 
z
" style="fill:#ff7f0e;"/>
    </g>
    <g id="text_15">
     <!-- Asian -->
     <g transform="translate(343.895312 248.557031)scale(0.1 -0.1)">
      <use xlink:href="#DejaVuSans-41"/>
      <use x="68.408203" xlink:href="#DejaVuSans-73"/>
      <use x="120.507812" xlink:href="#DejaVuSans-69"/>
      <use x="148.291016" xlink:href="#DejaVuSans-61"/>
      <use x="209.570312" xlink:href="#DejaVuSans-6e"/>
     </g>
    </g>
    <g id="patch_38">
     <path d="M 315.895312 263.235156 
L 335.895312 263.235156 
L 335.895312 256.235156 
L 315.895312 256.235156 
z
" style="fill:#2ca02c;"/>
    </g>
    <g id="text_16">
     <!-- White -->
     <g transform="translate(343.895312 263.235156)scale(0.1 -0.1)">
      <use xlink:href="#DejaVuSans-57"/>
      <use x="98.876953" xlink:href="#DejaVuSans-68"/>
      <use x="162.255859" xlink:href="#DejaVuSans-69"/>
      <use x="190.039062" xlink:href="#DejaVuSans-74"/>
      <use x="229.248047" xlink:href="#DejaVuSans-65"/>
     </g>
    </g>
    <g id="patch_39">
     <path d="M 315.895312 277.913281 
L 335.895312 277.913281 
L 335.895312 270.913281 
L 315.895312 270.913281 
z
" style="fill:#d62728;"/>
    </g>
    <g id="text_17">
     <!-- Hispanic -->
     <g transform="translate(343.895312 277.913281)scale(0.1 -0.1)">
      <use xlink:href="#DejaVuSans-48"/>
      <use x="75.195312" xlink:href="#DejaVuSans-69"/>
      <use x="102.978516" xlink:href="#DejaVuSans-73"/>
      <use x="155.078125" xlink:href="#DejaVuSans-70"/>
      <use x="218.554688" xlink:href="#DejaVuSans-61"/>
      <use x="279.833984" xlink:href="#DejaVuSans-6e"/>
      <use x="343.212891" xlink:href="#DejaVuSans-69"/>
      <use x="370.996094" xlink:href="#DejaVuSans-63"/>
     </g>
    </g>
   </g>
  </g>
 </g>
 <defs>
  <clipPath id="p11c78fbca7">
   <rect height="477.673437" width="668.8125" x="36.8875" y="14.3"/>
  </clipPath>
 </defs>
</svg>
