<?xml version="1.0" encoding="utf-8" standalone="no"?>
<!DOCTYPE svg PUBLIC "-//W3C//DTD SVG 1.1//EN"
  "http://www.w3.org/Graphics/SVG/1.1/DTD/svg11.dtd">
<!-- Created with matplotlib (http://matplotlib.org/) -->
<svg height="720pt" version="1.1" viewBox="0 0 720 720" width="720pt" xmlns="http://www.w3.org/2000/svg" xmlns:xlink="http://www.w3.org/1999/xlink">
 <defs>
  <style type="text/css">
*{stroke-linecap:butt;stroke-linejoin:round;}
  </style>
 </defs>
 <g id="figure_1">
  <g id="patch_1">
   <path d="M 0 720 
L 720 720 
L 720 0 
L 0 0 
z
" style="fill:#ffffff;"/>
  </g>
  <g id="axes_1">
   <g id="patch_2">
    <path d="M 36.8875 475.432813 
L 705.7 475.432813 
L 705.7 14.3 
L 36.8875 14.3 
z
" style="fill:#ffffff;"/>
   </g>
   <g id="patch_3">
    <path clip-path="url(#p7a4f7472c9)" d="M 64.754688 475.432813 
L 120.489063 475.432813 
L 120.489063 475.432813 
L 64.754688 475.432813 
z
" style="fill:#1f77b4;"/>
   </g>
   <g id="patch_4">
    <path clip-path="url(#p7a4f7472c9)" d="M 176.223437 475.432813 
L 231.957812 475.432813 
L 231.957812 387.597991 
L 176.223437 387.597991 
z
" style="fill:#1f77b4;"/>
   </g>
   <g id="patch_5">
    <path clip-path="url(#p7a4f7472c9)" d="M 287.692187 475.432813 
L 343.426562 475.432813 
L 343.426562 471.041071 
L 287.692187 471.041071 
z
" style="fill:#1f77b4;"/>
   </g>
   <g id="patch_6">
    <path clip-path="url(#p7a4f7472c9)" d="M 399.160937 475.432813 
L 454.895312 475.432813 
L 454.895312 361.247545 
L 399.160937 361.247545 
z
" style="fill:#1f77b4;"/>
   </g>
   <g id="patch_7">
    <path clip-path="url(#p7a4f7472c9)" d="M 510.629687 475.432813 
L 566.364063 475.432813 
L 566.364063 282.196205 
L 510.629687 282.196205 
z
" style="fill:#1f77b4;"/>
   </g>
   <g id="patch_8">
    <path clip-path="url(#p7a4f7472c9)" d="M 622.098438 475.432813 
L 677.832813 475.432813 
L 677.832813 391.989732 
L 622.098438 391.989732 
z
" style="fill:#1f77b4;"/>
   </g>
   <g id="patch_9">
    <path clip-path="url(#p7a4f7472c9)" d="M 64.754688 475.432813 
L 120.489063 475.432813 
L 120.489063 427.123661 
L 64.754688 427.123661 
z
" style="fill:#ff7f0e;"/>
   </g>
   <g id="patch_10">
    <path clip-path="url(#p7a4f7472c9)" d="M 176.223437 387.597991 
L 231.957812 387.597991 
L 231.957812 194.361384 
L 176.223437 194.361384 
z
" style="fill:#ff7f0e;"/>
   </g>
   <g id="patch_11">
    <path clip-path="url(#p7a4f7472c9)" d="M 287.692187 471.041071 
L 343.426562 471.041071 
L 343.426562 295.371429 
L 287.692187 295.371429 
z
" style="fill:#ff7f0e;"/>
   </g>
   <g id="patch_12">
    <path clip-path="url(#p7a4f7472c9)" d="M 399.160937 361.247545 
L 454.895312 361.247545 
L 454.895312 273.412723 
L 399.160937 273.412723 
z
" style="fill:#ff7f0e;"/>
   </g>
   <g id="patch_13">
    <path clip-path="url(#p7a4f7472c9)" d="M 510.629687 282.196205 
L 566.364063 282.196205 
L 566.364063 88.959598 
L 510.629687 88.959598 
z
" style="fill:#ff7f0e;"/>
   </g>
   <g id="patch_14">
    <path clip-path="url(#p7a4f7472c9)" d="M 622.098438 391.989732 
L 677.832813 391.989732 
L 677.832813 277.804464 
L 622.098438 277.804464 
z
" style="fill:#ff7f0e;"/>
   </g>
   <g id="patch_15">
    <path clip-path="url(#p7a4f7472c9)" d="M 64.754688 427.123661 
L 120.489063 427.123661 
L 120.489063 176.79442 
L 64.754688 176.79442 
z
" style="fill:#2ca02c;"/>
   </g>
   <g id="patch_16">
    <path clip-path="url(#p7a4f7472c9)" d="M 176.223437 194.361384 
L 231.957812 194.361384 
L 231.957812 67.000893 
L 176.223437 67.000893 
z
" style="fill:#2ca02c;"/>
   </g>
   <g id="patch_17">
    <path clip-path="url(#p7a4f7472c9)" d="M 287.692187 295.371429 
L 343.426562 295.371429 
L 343.426562 106.526563 
L 287.692187 106.526563 
z
" style="fill:#2ca02c;"/>
   </g>
   <g id="patch_18">
    <path clip-path="url(#p7a4f7472c9)" d="M 399.160937 273.412723 
L 454.895312 273.412723 
L 454.895312 93.351339 
L 399.160937 93.351339 
z
" style="fill:#2ca02c;"/>
   </g>
   <g id="patch_19">
    <path clip-path="url(#p7a4f7472c9)" d="M 510.629687 88.959598 
L 566.364063 88.959598 
L 566.364063 45.042188 
L 510.629687 45.042188 
z
" style="fill:#2ca02c;"/>
   </g>
   <g id="patch_20">
    <path clip-path="url(#p7a4f7472c9)" d="M 622.098438 277.804464 
L 677.832813 277.804464 
L 677.832813 119.701786 
L 622.098438 119.701786 
z
" style="fill:#2ca02c;"/>
   </g>
   <g id="patch_21">
    <path clip-path="url(#p7a4f7472c9)" d="M 64.754688 176.79442 
L 120.489063 176.79442 
L 120.489063 40.650446 
L 64.754688 40.650446 
z
" style="fill:#d62728;"/>
   </g>
   <g id="patch_22">
    <path clip-path="url(#p7a4f7472c9)" d="M 176.223437 67.000893 
L 231.957812 67.000893 
L 231.957812 36.258705 
L 176.223437 36.258705 
z
" style="fill:#d62728;"/>
   </g>
   <g id="patch_23">
    <path clip-path="url(#p7a4f7472c9)" d="M 287.692187 106.526562 
L 343.426562 106.526562 
L 343.426562 36.258705 
L 287.692187 36.258705 
z
" style="fill:#d62728;"/>
   </g>
   <g id="patch_24">
    <path clip-path="url(#p7a4f7472c9)" d="M 399.160937 93.351339 
L 454.895312 93.351339 
L 454.895312 36.258705 
L 399.160937 36.258705 
z
" style="fill:#d62728;"/>
   </g>
   <g id="patch_25">
    <path clip-path="url(#p7a4f7472c9)" d="M 510.629687 45.042187 
L 566.364063 45.042187 
L 566.364063 36.258705 
L 510.629687 36.258705 
z
" style="fill:#d62728;"/>
   </g>
   <g id="patch_26">
    <path clip-path="url(#p7a4f7472c9)" d="M 622.098438 119.701786 
L 677.832813 119.701786 
L 677.832813 36.258705 
L 622.098438 36.258705 
z
" style="fill:#d62728;"/>
   </g>
   <g id="matplotlib.axis_1">
    <g id="xtick_1">
     <g id="line2d_1">
      <defs>
       <path d="M 0 0 
L 0 3.5 
" id="m5c7f911456" style="stroke:#000000;stroke-width:0.8;"/>
      </defs>
      <g>
       <use style="stroke:#000000;stroke-width:0.8;" x="92.621875" xlink:href="#m5c7f911456" y="475.432813"/>
      </g>
     </g>
     <g id="text_1">
      <!-- Northampton - Bridge Street -->
      <defs>
       <path d="M 9.8125 72.90625 
L 23.09375 72.90625 
L 55.421875 11.921875 
L 55.421875 72.90625 
L 64.984375 72.90625 
L 64.984375 0 
L 51.703125 0 
L 19.390625 60.984375 
L 19.390625 0 
L 9.8125 0 
z
" id="DejaVuSans-4e"/>
       <path d="M 30.609375 48.390625 
Q 23.390625 48.390625 19.1875 42.75 
Q 14.984375 37.109375 14.984375 27.296875 
Q 14.984375 17.484375 19.15625 11.84375 
Q 23.34375 6.203125 30.609375 6.203125 
Q 37.796875 6.203125 41.984375 11.859375 
Q 46.1875 17.53125 46.1875 27.296875 
Q 46.1875 37.015625 41.984375 42.703125 
Q 37.796875 48.390625 30.609375 48.390625 
z
M 30.609375 56 
Q 42.328125 56 49.015625 48.375 
Q 55.71875 40.765625 55.71875 27.296875 
Q 55.71875 13.875 49.015625 6.21875 
Q 42.328125 -1.421875 30.609375 -1.421875 
Q 18.84375 -1.421875 12.171875 6.21875 
Q 5.515625 13.875 5.515625 27.296875 
Q 5.515625 40.765625 12.171875 48.375 
Q 18.84375 56 30.609375 56 
z
" id="DejaVuSans-6f"/>
       <path d="M 41.109375 46.296875 
Q 39.59375 47.171875 37.8125 47.578125 
Q 36.03125 48 33.890625 48 
Q 26.265625 48 22.1875 43.046875 
Q 18.109375 38.09375 18.109375 28.8125 
L 18.109375 0 
L 9.078125 0 
L 9.078125 54.6875 
L 18.109375 54.6875 
L 18.109375 46.1875 
Q 20.953125 51.171875 25.484375 53.578125 
Q 30.03125 56 36.53125 56 
Q 37.453125 56 38.578125 55.875 
Q 39.703125 55.765625 41.0625 55.515625 
z
" id="DejaVuSans-72"/>
       <path d="M 18.3125 70.21875 
L 18.3125 54.6875 
L 36.8125 54.6875 
L 36.8125 47.703125 
L 18.3125 47.703125 
L 18.3125 18.015625 
Q 18.3125 11.328125 20.140625 9.421875 
Q 21.96875 7.515625 27.59375 7.515625 
L 36.8125 7.515625 
L 36.8125 0 
L 27.59375 0 
Q 17.1875 0 13.234375 3.875 
Q 9.28125 7.765625 9.28125 18.015625 
L 9.28125 47.703125 
L 2.6875 47.703125 
L 2.6875 54.6875 
L 9.28125 54.6875 
L 9.28125 70.21875 
z
" id="DejaVuSans-74"/>
       <path d="M 54.890625 33.015625 
L 54.890625 0 
L 45.90625 0 
L 45.90625 32.71875 
Q 45.90625 40.484375 42.875 44.328125 
Q 39.84375 48.1875 33.796875 48.1875 
Q 26.515625 48.1875 22.3125 43.546875 
Q 18.109375 38.921875 18.109375 30.90625 
L 18.109375 0 
L 9.078125 0 
L 9.078125 75.984375 
L 18.109375 75.984375 
L 18.109375 46.1875 
Q 21.34375 51.125 25.703125 53.5625 
Q 30.078125 56 35.796875 56 
Q 45.21875 56 50.046875 50.171875 
Q 54.890625 44.34375 54.890625 33.015625 
z
" id="DejaVuSans-68"/>
       <path d="M 34.28125 27.484375 
Q 23.390625 27.484375 19.1875 25 
Q 14.984375 22.515625 14.984375 16.5 
Q 14.984375 11.71875 18.140625 8.90625 
Q 21.296875 6.109375 26.703125 6.109375 
Q 34.1875 6.109375 38.703125 11.40625 
Q 43.21875 16.703125 43.21875 25.484375 
L 43.21875 27.484375 
z
M 52.203125 31.203125 
L 52.203125 0 
L 43.21875 0 
L 43.21875 8.296875 
Q 40.140625 3.328125 35.546875 0.953125 
Q 30.953125 -1.421875 24.3125 -1.421875 
Q 15.921875 -1.421875 10.953125 3.296875 
Q 6 8.015625 6 15.921875 
Q 6 25.140625 12.171875 29.828125 
Q 18.359375 34.515625 30.609375 34.515625 
L 43.21875 34.515625 
L 43.21875 35.40625 
Q 43.21875 41.609375 39.140625 45 
Q 35.0625 48.390625 27.6875 48.390625 
Q 23 48.390625 18.546875 47.265625 
Q 14.109375 46.140625 10.015625 43.890625 
L 10.015625 52.203125 
Q 14.9375 54.109375 19.578125 55.046875 
Q 24.21875 56 28.609375 56 
Q 40.484375 56 46.34375 49.84375 
Q 52.203125 43.703125 52.203125 31.203125 
z
" id="DejaVuSans-61"/>
       <path d="M 52 44.1875 
Q 55.375 50.25 60.0625 53.125 
Q 64.75 56 71.09375 56 
Q 79.640625 56 84.28125 50.015625 
Q 88.921875 44.046875 88.921875 33.015625 
L 88.921875 0 
L 79.890625 0 
L 79.890625 32.71875 
Q 79.890625 40.578125 77.09375 44.375 
Q 74.3125 48.1875 68.609375 48.1875 
Q 61.625 48.1875 57.5625 43.546875 
Q 53.515625 38.921875 53.515625 30.90625 
L 53.515625 0 
L 44.484375 0 
L 44.484375 32.71875 
Q 44.484375 40.625 41.703125 44.40625 
Q 38.921875 48.1875 33.109375 48.1875 
Q 26.21875 48.1875 22.15625 43.53125 
Q 18.109375 38.875 18.109375 30.90625 
L 18.109375 0 
L 9.078125 0 
L 9.078125 54.6875 
L 18.109375 54.6875 
L 18.109375 46.1875 
Q 21.1875 51.21875 25.484375 53.609375 
Q 29.78125 56 35.6875 56 
Q 41.65625 56 45.828125 52.96875 
Q 50 49.953125 52 44.1875 
z
" id="DejaVuSans-6d"/>
       <path d="M 18.109375 8.203125 
L 18.109375 -20.796875 
L 9.078125 -20.796875 
L 9.078125 54.6875 
L 18.109375 54.6875 
L 18.109375 46.390625 
Q 20.953125 51.265625 25.265625 53.625 
Q 29.59375 56 35.59375 56 
Q 45.5625 56 51.78125 48.09375 
Q 58.015625 40.1875 58.015625 27.296875 
Q 58.015625 14.40625 51.78125 6.484375 
Q 45.5625 -1.421875 35.59375 -1.421875 
Q 29.59375 -1.421875 25.265625 0.953125 
Q 20.953125 3.328125 18.109375 8.203125 
z
M 48.6875 27.296875 
Q 48.6875 37.203125 44.609375 42.84375 
Q 40.53125 48.484375 33.40625 48.484375 
Q 26.265625 48.484375 22.1875 42.84375 
Q 18.109375 37.203125 18.109375 27.296875 
Q 18.109375 17.390625 22.1875 11.75 
Q 26.265625 6.109375 33.40625 6.109375 
Q 40.53125 6.109375 44.609375 11.75 
Q 48.6875 17.390625 48.6875 27.296875 
z
" id="DejaVuSans-70"/>
       <path d="M 54.890625 33.015625 
L 54.890625 0 
L 45.90625 0 
L 45.90625 32.71875 
Q 45.90625 40.484375 42.875 44.328125 
Q 39.84375 48.1875 33.796875 48.1875 
Q 26.515625 48.1875 22.3125 43.546875 
Q 18.109375 38.921875 18.109375 30.90625 
L 18.109375 0 
L 9.078125 0 
L 9.078125 54.6875 
L 18.109375 54.6875 
L 18.109375 46.1875 
Q 21.34375 51.125 25.703125 53.5625 
Q 30.078125 56 35.796875 56 
Q 45.21875 56 50.046875 50.171875 
Q 54.890625 44.34375 54.890625 33.015625 
z
" id="DejaVuSans-6e"/>
       <path id="DejaVuSans-20"/>
       <path d="M 4.890625 31.390625 
L 31.203125 31.390625 
L 31.203125 23.390625 
L 4.890625 23.390625 
z
" id="DejaVuSans-2d"/>
       <path d="M 19.671875 34.8125 
L 19.671875 8.109375 
L 35.5 8.109375 
Q 43.453125 8.109375 47.28125 11.40625 
Q 51.125 14.703125 51.125 21.484375 
Q 51.125 28.328125 47.28125 31.5625 
Q 43.453125 34.8125 35.5 34.8125 
z
M 19.671875 64.796875 
L 19.671875 42.828125 
L 34.28125 42.828125 
Q 41.5 42.828125 45.03125 45.53125 
Q 48.578125 48.25 48.578125 53.8125 
Q 48.578125 59.328125 45.03125 62.0625 
Q 41.5 64.796875 34.28125 64.796875 
z
M 9.8125 72.90625 
L 35.015625 72.90625 
Q 46.296875 72.90625 52.390625 68.21875 
Q 58.5 63.53125 58.5 54.890625 
Q 58.5 48.1875 55.375 44.234375 
Q 52.25 40.28125 46.1875 39.3125 
Q 53.46875 37.75 57.5 32.78125 
Q 61.53125 27.828125 61.53125 20.40625 
Q 61.53125 10.640625 54.890625 5.3125 
Q 48.25 0 35.984375 0 
L 9.8125 0 
z
" id="DejaVuSans-42"/>
       <path d="M 9.421875 54.6875 
L 18.40625 54.6875 
L 18.40625 0 
L 9.421875 0 
z
M 9.421875 75.984375 
L 18.40625 75.984375 
L 18.40625 64.59375 
L 9.421875 64.59375 
z
" id="DejaVuSans-69"/>
       <path d="M 45.40625 46.390625 
L 45.40625 75.984375 
L 54.390625 75.984375 
L 54.390625 0 
L 45.40625 0 
L 45.40625 8.203125 
Q 42.578125 3.328125 38.25 0.953125 
Q 33.9375 -1.421875 27.875 -1.421875 
Q 17.96875 -1.421875 11.734375 6.484375 
Q 5.515625 14.40625 5.515625 27.296875 
Q 5.515625 40.1875 11.734375 48.09375 
Q 17.96875 56 27.875 56 
Q 33.9375 56 38.25 53.625 
Q 42.578125 51.265625 45.40625 46.390625 
z
M 14.796875 27.296875 
Q 14.796875 17.390625 18.875 11.75 
Q 22.953125 6.109375 30.078125 6.109375 
Q 37.203125 6.109375 41.296875 11.75 
Q 45.40625 17.390625 45.40625 27.296875 
Q 45.40625 37.203125 41.296875 42.84375 
Q 37.203125 48.484375 30.078125 48.484375 
Q 22.953125 48.484375 18.875 42.84375 
Q 14.796875 37.203125 14.796875 27.296875 
z
" id="DejaVuSans-64"/>
       <path d="M 45.40625 27.984375 
Q 45.40625 37.75 41.375 43.109375 
Q 37.359375 48.484375 30.078125 48.484375 
Q 22.859375 48.484375 18.828125 43.109375 
Q 14.796875 37.75 14.796875 27.984375 
Q 14.796875 18.265625 18.828125 12.890625 
Q 22.859375 7.515625 30.078125 7.515625 
Q 37.359375 7.515625 41.375 12.890625 
Q 45.40625 18.265625 45.40625 27.984375 
z
M 54.390625 6.78125 
Q 54.390625 -7.171875 48.1875 -13.984375 
Q 42 -20.796875 29.203125 -20.796875 
Q 24.46875 -20.796875 20.265625 -20.09375 
Q 16.0625 -19.390625 12.109375 -17.921875 
L 12.109375 -9.1875 
Q 16.0625 -11.328125 19.921875 -12.34375 
Q 23.78125 -13.375 27.78125 -13.375 
Q 36.625 -13.375 41.015625 -8.765625 
Q 45.40625 -4.15625 45.40625 5.171875 
L 45.40625 9.625 
Q 42.625 4.78125 38.28125 2.390625 
Q 33.9375 0 27.875 0 
Q 17.828125 0 11.671875 7.65625 
Q 5.515625 15.328125 5.515625 27.984375 
Q 5.515625 40.671875 11.671875 48.328125 
Q 17.828125 56 27.875 56 
Q 33.9375 56 38.28125 53.609375 
Q 42.625 51.21875 45.40625 46.390625 
L 45.40625 54.6875 
L 54.390625 54.6875 
z
" id="DejaVuSans-67"/>
       <path d="M 56.203125 29.59375 
L 56.203125 25.203125 
L 14.890625 25.203125 
Q 15.484375 15.921875 20.484375 11.0625 
Q 25.484375 6.203125 34.421875 6.203125 
Q 39.59375 6.203125 44.453125 7.46875 
Q 49.3125 8.734375 54.109375 11.28125 
L 54.109375 2.78125 
Q 49.265625 0.734375 44.1875 -0.34375 
Q 39.109375 -1.421875 33.890625 -1.421875 
Q 20.796875 -1.421875 13.15625 6.1875 
Q 5.515625 13.8125 5.515625 26.8125 
Q 5.515625 40.234375 12.765625 48.109375 
Q 20.015625 56 32.328125 56 
Q 43.359375 56 49.78125 48.890625 
Q 56.203125 41.796875 56.203125 29.59375 
z
M 47.21875 32.234375 
Q 47.125 39.59375 43.09375 43.984375 
Q 39.0625 48.390625 32.421875 48.390625 
Q 24.90625 48.390625 20.390625 44.140625 
Q 15.875 39.890625 15.1875 32.171875 
z
" id="DejaVuSans-65"/>
       <path d="M 53.515625 70.515625 
L 53.515625 60.890625 
Q 47.90625 63.578125 42.921875 64.890625 
Q 37.9375 66.21875 33.296875 66.21875 
Q 25.25 66.21875 20.875 63.09375 
Q 16.5 59.96875 16.5 54.203125 
Q 16.5 49.359375 19.40625 46.890625 
Q 22.3125 44.4375 30.421875 42.921875 
L 36.375 41.703125 
Q 47.40625 39.59375 52.65625 34.296875 
Q 57.90625 29 57.90625 20.125 
Q 57.90625 9.515625 50.796875 4.046875 
Q 43.703125 -1.421875 29.984375 -1.421875 
Q 24.8125 -1.421875 18.96875 -0.25 
Q 13.140625 0.921875 6.890625 3.21875 
L 6.890625 13.375 
Q 12.890625 10.015625 18.65625 8.296875 
Q 24.421875 6.59375 29.984375 6.59375 
Q 38.421875 6.59375 43.015625 9.90625 
Q 47.609375 13.234375 47.609375 19.390625 
Q 47.609375 24.75 44.3125 27.78125 
Q 41.015625 30.8125 33.5 32.328125 
L 27.484375 33.5 
Q 16.453125 35.6875 11.515625 40.375 
Q 6.59375 45.0625 6.59375 53.421875 
Q 6.59375 63.09375 13.40625 68.65625 
Q 20.21875 74.21875 32.171875 74.21875 
Q 37.3125 74.21875 42.625 73.28125 
Q 47.953125 72.359375 53.515625 70.515625 
z
" id="DejaVuSans-53"/>
      </defs>
      <g transform="translate(95.38125 625.340625)rotate(-90)scale(0.1 -0.1)">
       <use xlink:href="#DejaVuSans-4e"/>
       <use x="74.804688" xlink:href="#DejaVuSans-6f"/>
       <use x="135.986328" xlink:href="#DejaVuSans-72"/>
       <use x="177.099609" xlink:href="#DejaVuSans-74"/>
       <use x="216.308594" xlink:href="#DejaVuSans-68"/>
       <use x="279.6875" xlink:href="#DejaVuSans-61"/>
       <use x="340.966797" xlink:href="#DejaVuSans-6d"/>
       <use x="438.378906" xlink:href="#DejaVuSans-70"/>
       <use x="501.855469" xlink:href="#DejaVuSans-74"/>
       <use x="541.064453" xlink:href="#DejaVuSans-6f"/>
       <use x="602.246094" xlink:href="#DejaVuSans-6e"/>
       <use x="665.625" xlink:href="#DejaVuSans-20"/>
       <use x="697.412109" xlink:href="#DejaVuSans-2d"/>
       <use x="733.496094" xlink:href="#DejaVuSans-20"/>
       <use x="765.283203" xlink:href="#DejaVuSans-42"/>
       <use x="833.886719" xlink:href="#DejaVuSans-72"/>
       <use x="875" xlink:href="#DejaVuSans-69"/>
       <use x="902.783203" xlink:href="#DejaVuSans-64"/>
       <use x="966.259766" xlink:href="#DejaVuSans-67"/>
       <use x="1029.736328" xlink:href="#DejaVuSans-65"/>
       <use x="1091.259766" xlink:href="#DejaVuSans-20"/>
       <use x="1123.046875" xlink:href="#DejaVuSans-53"/>
       <use x="1186.523438" xlink:href="#DejaVuSans-74"/>
       <use x="1225.732422" xlink:href="#DejaVuSans-72"/>
       <use x="1266.814453" xlink:href="#DejaVuSans-65"/>
       <use x="1328.337891" xlink:href="#DejaVuSans-65"/>
       <use x="1389.861328" xlink:href="#DejaVuSans-74"/>
      </g>
     </g>
    </g>
    <g id="xtick_2">
     <g id="line2d_2">
      <g>
       <use style="stroke:#000000;stroke-width:0.8;" x="204.090625" xlink:href="#m5c7f911456" y="475.432813"/>
      </g>
     </g>
     <g id="text_2">
      <!-- Northampton - Jackson Street -->
      <defs>
       <path d="M 9.8125 72.90625 
L 19.671875 72.90625 
L 19.671875 5.078125 
Q 19.671875 -8.109375 14.671875 -14.0625 
Q 9.671875 -20.015625 -1.421875 -20.015625 
L -5.171875 -20.015625 
L -5.171875 -11.71875 
L -2.09375 -11.71875 
Q 4.4375 -11.71875 7.125 -8.046875 
Q 9.8125 -4.390625 9.8125 5.078125 
z
" id="DejaVuSans-4a"/>
       <path d="M 48.78125 52.59375 
L 48.78125 44.1875 
Q 44.96875 46.296875 41.140625 47.34375 
Q 37.3125 48.390625 33.40625 48.390625 
Q 24.65625 48.390625 19.8125 42.84375 
Q 14.984375 37.3125 14.984375 27.296875 
Q 14.984375 17.28125 19.8125 11.734375 
Q 24.65625 6.203125 33.40625 6.203125 
Q 37.3125 6.203125 41.140625 7.25 
Q 44.96875 8.296875 48.78125 10.40625 
L 48.78125 2.09375 
Q 45.015625 0.34375 40.984375 -0.53125 
Q 36.96875 -1.421875 32.421875 -1.421875 
Q 20.0625 -1.421875 12.78125 6.34375 
Q 5.515625 14.109375 5.515625 27.296875 
Q 5.515625 40.671875 12.859375 48.328125 
Q 20.21875 56 33.015625 56 
Q 37.15625 56 41.109375 55.140625 
Q 45.0625 54.296875 48.78125 52.59375 
z
" id="DejaVuSans-63"/>
       <path d="M 9.078125 75.984375 
L 18.109375 75.984375 
L 18.109375 31.109375 
L 44.921875 54.6875 
L 56.390625 54.6875 
L 27.390625 29.109375 
L 57.625 0 
L 45.90625 0 
L 18.109375 26.703125 
L 18.109375 0 
L 9.078125 0 
z
" id="DejaVuSans-6b"/>
       <path d="M 44.28125 53.078125 
L 44.28125 44.578125 
Q 40.484375 46.53125 36.375 47.5 
Q 32.28125 48.484375 27.875 48.484375 
Q 21.1875 48.484375 17.84375 46.4375 
Q 14.5 44.390625 14.5 40.28125 
Q 14.5 37.15625 16.890625 35.375 
Q 19.28125 33.59375 26.515625 31.984375 
L 29.59375 31.296875 
Q 39.15625 29.25 43.1875 25.515625 
Q 47.21875 21.78125 47.21875 15.09375 
Q 47.21875 7.46875 41.1875 3.015625 
Q 35.15625 -1.421875 24.609375 -1.421875 
Q 20.21875 -1.421875 15.453125 -0.5625 
Q 10.6875 0.296875 5.421875 2 
L 5.421875 11.28125 
Q 10.40625 8.6875 15.234375 7.390625 
Q 20.0625 6.109375 24.8125 6.109375 
Q 31.15625 6.109375 34.5625 8.28125 
Q 37.984375 10.453125 37.984375 14.40625 
Q 37.984375 18.0625 35.515625 20.015625 
Q 33.0625 21.96875 24.703125 23.78125 
L 21.578125 24.515625 
Q 13.234375 26.265625 9.515625 29.90625 
Q 5.8125 33.546875 5.8125 39.890625 
Q 5.8125 47.609375 11.28125 51.796875 
Q 16.75 56 26.8125 56 
Q 31.78125 56 36.171875 55.265625 
Q 40.578125 54.546875 44.28125 53.078125 
z
" id="DejaVuSans-73"/>
      </defs>
      <g transform="translate(206.85 630.773438)rotate(-90)scale(0.1 -0.1)">
       <use xlink:href="#DejaVuSans-4e"/>
       <use x="74.804688" xlink:href="#DejaVuSans-6f"/>
       <use x="135.986328" xlink:href="#DejaVuSans-72"/>
       <use x="177.099609" xlink:href="#DejaVuSans-74"/>
       <use x="216.308594" xlink:href="#DejaVuSans-68"/>
       <use x="279.6875" xlink:href="#DejaVuSans-61"/>
       <use x="340.966797" xlink:href="#DejaVuSans-6d"/>
       <use x="438.378906" xlink:href="#DejaVuSans-70"/>
       <use x="501.855469" xlink:href="#DejaVuSans-74"/>
       <use x="541.064453" xlink:href="#DejaVuSans-6f"/>
       <use x="602.246094" xlink:href="#DejaVuSans-6e"/>
       <use x="665.625" xlink:href="#DejaVuSans-20"/>
       <use x="697.412109" xlink:href="#DejaVuSans-2d"/>
       <use x="733.496094" xlink:href="#DejaVuSans-20"/>
       <use x="765.283203" xlink:href="#DejaVuSans-4a"/>
       <use x="794.775391" xlink:href="#DejaVuSans-61"/>
       <use x="856.054688" xlink:href="#DejaVuSans-63"/>
       <use x="911.035156" xlink:href="#DejaVuSans-6b"/>
       <use x="968.945312" xlink:href="#DejaVuSans-73"/>
       <use x="1021.044922" xlink:href="#DejaVuSans-6f"/>
       <use x="1082.226562" xlink:href="#DejaVuSans-6e"/>
       <use x="1145.605469" xlink:href="#DejaVuSans-20"/>
       <use x="1177.392578" xlink:href="#DejaVuSans-53"/>
       <use x="1240.869141" xlink:href="#DejaVuSans-74"/>
       <use x="1280.078125" xlink:href="#DejaVuSans-72"/>
       <use x="1321.160156" xlink:href="#DejaVuSans-65"/>
       <use x="1382.683594" xlink:href="#DejaVuSans-65"/>
       <use x="1444.207031" xlink:href="#DejaVuSans-74"/>
      </g>
     </g>
    </g>
    <g id="xtick_3">
     <g id="line2d_3">
      <g>
       <use style="stroke:#000000;stroke-width:0.8;" x="315.559375" xlink:href="#m5c7f911456" y="475.432813"/>
      </g>
     </g>
     <g id="text_3">
      <!-- Northampton - John F Kennedy Middle School -->
      <defs>
       <path d="M 9.8125 72.90625 
L 51.703125 72.90625 
L 51.703125 64.59375 
L 19.671875 64.59375 
L 19.671875 43.109375 
L 48.578125 43.109375 
L 48.578125 34.8125 
L 19.671875 34.8125 
L 19.671875 0 
L 9.8125 0 
z
" id="DejaVuSans-46"/>
       <path d="M 9.8125 72.90625 
L 19.671875 72.90625 
L 19.671875 42.09375 
L 52.390625 72.90625 
L 65.09375 72.90625 
L 28.90625 38.921875 
L 67.671875 0 
L 54.6875 0 
L 19.671875 35.109375 
L 19.671875 0 
L 9.8125 0 
z
" id="DejaVuSans-4b"/>
       <path d="M 32.171875 -5.078125 
Q 28.375 -14.84375 24.75 -17.8125 
Q 21.140625 -20.796875 15.09375 -20.796875 
L 7.90625 -20.796875 
L 7.90625 -13.28125 
L 13.1875 -13.28125 
Q 16.890625 -13.28125 18.9375 -11.515625 
Q 21 -9.765625 23.484375 -3.21875 
L 25.09375 0.875 
L 2.984375 54.6875 
L 12.5 54.6875 
L 29.59375 11.921875 
L 46.6875 54.6875 
L 56.203125 54.6875 
z
" id="DejaVuSans-79"/>
       <path d="M 9.8125 72.90625 
L 24.515625 72.90625 
L 43.109375 23.296875 
L 61.8125 72.90625 
L 76.515625 72.90625 
L 76.515625 0 
L 66.890625 0 
L 66.890625 64.015625 
L 48.09375 14.015625 
L 38.1875 14.015625 
L 19.390625 64.015625 
L 19.390625 0 
L 9.8125 0 
z
" id="DejaVuSans-4d"/>
       <path d="M 9.421875 75.984375 
L 18.40625 75.984375 
L 18.40625 0 
L 9.421875 0 
z
" id="DejaVuSans-6c"/>
      </defs>
      <g transform="translate(318.31875 709.2)rotate(-90)scale(0.1 -0.1)">
       <use xlink:href="#DejaVuSans-4e"/>
       <use x="74.804688" xlink:href="#DejaVuSans-6f"/>
       <use x="135.986328" xlink:href="#DejaVuSans-72"/>
       <use x="177.099609" xlink:href="#DejaVuSans-74"/>
       <use x="216.308594" xlink:href="#DejaVuSans-68"/>
       <use x="279.6875" xlink:href="#DejaVuSans-61"/>
       <use x="340.966797" xlink:href="#DejaVuSans-6d"/>
       <use x="438.378906" xlink:href="#DejaVuSans-70"/>
       <use x="501.855469" xlink:href="#DejaVuSans-74"/>
       <use x="541.064453" xlink:href="#DejaVuSans-6f"/>
       <use x="602.246094" xlink:href="#DejaVuSans-6e"/>
       <use x="665.625" xlink:href="#DejaVuSans-20"/>
       <use x="697.412109" xlink:href="#DejaVuSans-2d"/>
       <use x="733.496094" xlink:href="#DejaVuSans-20"/>
       <use x="765.283203" xlink:href="#DejaVuSans-4a"/>
       <use x="794.775391" xlink:href="#DejaVuSans-6f"/>
       <use x="855.957031" xlink:href="#DejaVuSans-68"/>
       <use x="919.335938" xlink:href="#DejaVuSans-6e"/>
       <use x="982.714844" xlink:href="#DejaVuSans-20"/>
       <use x="1014.501953" xlink:href="#DejaVuSans-46"/>
       <use x="1072.021484" xlink:href="#DejaVuSans-20"/>
       <use x="1103.808594" xlink:href="#DejaVuSans-4b"/>
       <use x="1169.306641" xlink:href="#DejaVuSans-65"/>
       <use x="1230.830078" xlink:href="#DejaVuSans-6e"/>
       <use x="1294.208984" xlink:href="#DejaVuSans-6e"/>
       <use x="1357.587891" xlink:href="#DejaVuSans-65"/>
       <use x="1419.111328" xlink:href="#DejaVuSans-64"/>
       <use x="1482.587891" xlink:href="#DejaVuSans-79"/>
       <use x="1541.767578" xlink:href="#DejaVuSans-20"/>
       <use x="1573.554688" xlink:href="#DejaVuSans-4d"/>
       <use x="1659.833984" xlink:href="#DejaVuSans-69"/>
       <use x="1687.617188" xlink:href="#DejaVuSans-64"/>
       <use x="1751.09375" xlink:href="#DejaVuSans-64"/>
       <use x="1814.570312" xlink:href="#DejaVuSans-6c"/>
       <use x="1842.353516" xlink:href="#DejaVuSans-65"/>
       <use x="1903.876953" xlink:href="#DejaVuSans-20"/>
       <use x="1935.664062" xlink:href="#DejaVuSans-53"/>
       <use x="1999.140625" xlink:href="#DejaVuSans-63"/>
       <use x="2054.121094" xlink:href="#DejaVuSans-68"/>
       <use x="2117.5" xlink:href="#DejaVuSans-6f"/>
       <use x="2178.681641" xlink:href="#DejaVuSans-6f"/>
       <use x="2239.863281" xlink:href="#DejaVuSans-6c"/>
      </g>
     </g>
    </g>
    <g id="xtick_4">
     <g id="line2d_4">
      <g>
       <use style="stroke:#000000;stroke-width:0.8;" x="427.028125" xlink:href="#m5c7f911456" y="475.432813"/>
      </g>
     </g>
     <g id="text_4">
      <!-- Northampton - Leeds -->
      <defs>
       <path d="M 9.8125 72.90625 
L 19.671875 72.90625 
L 19.671875 8.296875 
L 55.171875 8.296875 
L 55.171875 0 
L 9.8125 0 
z
" id="DejaVuSans-4c"/>
      </defs>
      <g transform="translate(429.7875 588.39375)rotate(-90)scale(0.1 -0.1)">
       <use xlink:href="#DejaVuSans-4e"/>
       <use x="74.804688" xlink:href="#DejaVuSans-6f"/>
       <use x="135.986328" xlink:href="#DejaVuSans-72"/>
       <use x="177.099609" xlink:href="#DejaVuSans-74"/>
       <use x="216.308594" xlink:href="#DejaVuSans-68"/>
       <use x="279.6875" xlink:href="#DejaVuSans-61"/>
       <use x="340.966797" xlink:href="#DejaVuSans-6d"/>
       <use x="438.378906" xlink:href="#DejaVuSans-70"/>
       <use x="501.855469" xlink:href="#DejaVuSans-74"/>
       <use x="541.064453" xlink:href="#DejaVuSans-6f"/>
       <use x="602.246094" xlink:href="#DejaVuSans-6e"/>
       <use x="665.625" xlink:href="#DejaVuSans-20"/>
       <use x="697.412109" xlink:href="#DejaVuSans-2d"/>
       <use x="733.496094" xlink:href="#DejaVuSans-20"/>
       <use x="765.283203" xlink:href="#DejaVuSans-4c"/>
       <use x="820.980469" xlink:href="#DejaVuSans-65"/>
       <use x="882.503906" xlink:href="#DejaVuSans-65"/>
       <use x="944.027344" xlink:href="#DejaVuSans-64"/>
       <use x="1007.503906" xlink:href="#DejaVuSans-73"/>
      </g>
     </g>
    </g>
    <g id="xtick_5">
     <g id="line2d_5">
      <g>
       <use style="stroke:#000000;stroke-width:0.8;" x="538.496875" xlink:href="#m5c7f911456" y="475.432813"/>
      </g>
     </g>
     <g id="text_5">
      <!-- Northampton - Northampton High -->
      <defs>
       <path d="M 9.8125 72.90625 
L 19.671875 72.90625 
L 19.671875 43.015625 
L 55.515625 43.015625 
L 55.515625 72.90625 
L 65.375 72.90625 
L 65.375 0 
L 55.515625 0 
L 55.515625 34.71875 
L 19.671875 34.71875 
L 19.671875 0 
L 9.8125 0 
z
" id="DejaVuSans-48"/>
      </defs>
      <g transform="translate(541.25625 651.684375)rotate(-90)scale(0.1 -0.1)">
       <use xlink:href="#DejaVuSans-4e"/>
       <use x="74.804688" xlink:href="#DejaVuSans-6f"/>
       <use x="135.986328" xlink:href="#DejaVuSans-72"/>
       <use x="177.099609" xlink:href="#DejaVuSans-74"/>
       <use x="216.308594" xlink:href="#DejaVuSans-68"/>
       <use x="279.6875" xlink:href="#DejaVuSans-61"/>
       <use x="340.966797" xlink:href="#DejaVuSans-6d"/>
       <use x="438.378906" xlink:href="#DejaVuSans-70"/>
       <use x="501.855469" xlink:href="#DejaVuSans-74"/>
       <use x="541.064453" xlink:href="#DejaVuSans-6f"/>
       <use x="602.246094" xlink:href="#DejaVuSans-6e"/>
       <use x="665.625" xlink:href="#DejaVuSans-20"/>
       <use x="697.412109" xlink:href="#DejaVuSans-2d"/>
       <use x="733.496094" xlink:href="#DejaVuSans-20"/>
       <use x="765.283203" xlink:href="#DejaVuSans-4e"/>
       <use x="840.087891" xlink:href="#DejaVuSans-6f"/>
       <use x="901.269531" xlink:href="#DejaVuSans-72"/>
       <use x="942.382812" xlink:href="#DejaVuSans-74"/>
       <use x="981.591797" xlink:href="#DejaVuSans-68"/>
       <use x="1044.970703" xlink:href="#DejaVuSans-61"/>
       <use x="1106.25" xlink:href="#DejaVuSans-6d"/>
       <use x="1203.662109" xlink:href="#DejaVuSans-70"/>
       <use x="1267.138672" xlink:href="#DejaVuSans-74"/>
       <use x="1306.347656" xlink:href="#DejaVuSans-6f"/>
       <use x="1367.529297" xlink:href="#DejaVuSans-6e"/>
       <use x="1430.908203" xlink:href="#DejaVuSans-20"/>
       <use x="1462.695312" xlink:href="#DejaVuSans-48"/>
       <use x="1537.890625" xlink:href="#DejaVuSans-69"/>
       <use x="1565.673828" xlink:href="#DejaVuSans-67"/>
       <use x="1629.150391" xlink:href="#DejaVuSans-68"/>
      </g>
     </g>
    </g>
    <g id="xtick_6">
     <g id="line2d_6">
      <g>
       <use style="stroke:#000000;stroke-width:0.8;" x="649.965625" xlink:href="#m5c7f911456" y="475.432813"/>
      </g>
     </g>
     <g id="text_6">
      <!-- Northampton - R. K. Finn Ryan Road -->
      <defs>
       <path d="M 44.390625 34.1875 
Q 47.5625 33.109375 50.5625 29.59375 
Q 53.5625 26.078125 56.59375 19.921875 
L 66.609375 0 
L 56 0 
L 46.6875 18.703125 
Q 43.0625 26.03125 39.671875 28.421875 
Q 36.28125 30.8125 30.421875 30.8125 
L 19.671875 30.8125 
L 19.671875 0 
L 9.8125 0 
L 9.8125 72.90625 
L 32.078125 72.90625 
Q 44.578125 72.90625 50.734375 67.671875 
Q 56.890625 62.453125 56.890625 51.90625 
Q 56.890625 45.015625 53.6875 40.46875 
Q 50.484375 35.9375 44.390625 34.1875 
z
M 19.671875 64.796875 
L 19.671875 38.921875 
L 32.078125 38.921875 
Q 39.203125 38.921875 42.84375 42.21875 
Q 46.484375 45.515625 46.484375 51.90625 
Q 46.484375 58.296875 42.84375 61.546875 
Q 39.203125 64.796875 32.078125 64.796875 
z
" id="DejaVuSans-52"/>
       <path d="M 10.6875 12.40625 
L 21 12.40625 
L 21 0 
L 10.6875 0 
z
" id="DejaVuSans-2e"/>
      </defs>
      <g transform="translate(652.725 663.585938)rotate(-90)scale(0.1 -0.1)">
       <use xlink:href="#DejaVuSans-4e"/>
       <use x="74.804688" xlink:href="#DejaVuSans-6f"/>
       <use x="135.986328" xlink:href="#DejaVuSans-72"/>
       <use x="177.099609" xlink:href="#DejaVuSans-74"/>
       <use x="216.308594" xlink:href="#DejaVuSans-68"/>
       <use x="279.6875" xlink:href="#DejaVuSans-61"/>
       <use x="340.966797" xlink:href="#DejaVuSans-6d"/>
       <use x="438.378906" xlink:href="#DejaVuSans-70"/>
       <use x="501.855469" xlink:href="#DejaVuSans-74"/>
       <use x="541.064453" xlink:href="#DejaVuSans-6f"/>
       <use x="602.246094" xlink:href="#DejaVuSans-6e"/>
       <use x="665.625" xlink:href="#DejaVuSans-20"/>
       <use x="697.412109" xlink:href="#DejaVuSans-2d"/>
       <use x="733.496094" xlink:href="#DejaVuSans-20"/>
       <use x="765.283203" xlink:href="#DejaVuSans-52"/>
       <use x="834.71875" xlink:href="#DejaVuSans-2e"/>
       <use x="866.505859" xlink:href="#DejaVuSans-20"/>
       <use x="898.292969" xlink:href="#DejaVuSans-4b"/>
       <use x="963.869141" xlink:href="#DejaVuSans-2e"/>
       <use x="995.65625" xlink:href="#DejaVuSans-20"/>
       <use x="1027.443359" xlink:href="#DejaVuSans-46"/>
       <use x="1084.853516" xlink:href="#DejaVuSans-69"/>
       <use x="1112.636719" xlink:href="#DejaVuSans-6e"/>
       <use x="1176.015625" xlink:href="#DejaVuSans-6e"/>
       <use x="1239.394531" xlink:href="#DejaVuSans-20"/>
       <use x="1271.181641" xlink:href="#DejaVuSans-52"/>
       <use x="1340.585938" xlink:href="#DejaVuSans-79"/>
       <use x="1399.765625" xlink:href="#DejaVuSans-61"/>
       <use x="1461.044922" xlink:href="#DejaVuSans-6e"/>
       <use x="1524.423828" xlink:href="#DejaVuSans-20"/>
       <use x="1556.210938" xlink:href="#DejaVuSans-52"/>
       <use x="1625.630859" xlink:href="#DejaVuSans-6f"/>
       <use x="1686.8125" xlink:href="#DejaVuSans-61"/>
       <use x="1748.091797" xlink:href="#DejaVuSans-64"/>
      </g>
     </g>
    </g>
   </g>
   <g id="matplotlib.axis_2">
    <g id="ytick_1">
     <g id="line2d_7">
      <defs>
       <path d="M 0 0 
L -3.5 0 
" id="m0f8733dca0" style="stroke:#000000;stroke-width:0.8;"/>
      </defs>
      <g>
       <use style="stroke:#000000;stroke-width:0.8;" x="36.8875" xlink:href="#m0f8733dca0" y="475.432813"/>
      </g>
     </g>
     <g id="text_7">
      <!-- 0 -->
      <defs>
       <path d="M 31.78125 66.40625 
Q 24.171875 66.40625 20.328125 58.90625 
Q 16.5 51.421875 16.5 36.375 
Q 16.5 21.390625 20.328125 13.890625 
Q 24.171875 6.390625 31.78125 6.390625 
Q 39.453125 6.390625 43.28125 13.890625 
Q 47.125 21.390625 47.125 36.375 
Q 47.125 51.421875 43.28125 58.90625 
Q 39.453125 66.40625 31.78125 66.40625 
z
M 31.78125 74.21875 
Q 44.046875 74.21875 50.515625 64.515625 
Q 56.984375 54.828125 56.984375 36.375 
Q 56.984375 17.96875 50.515625 8.265625 
Q 44.046875 -1.421875 31.78125 -1.421875 
Q 19.53125 -1.421875 13.0625 8.265625 
Q 6.59375 17.96875 6.59375 36.375 
Q 6.59375 54.828125 13.0625 64.515625 
Q 19.53125 74.21875 31.78125 74.21875 
z
" id="DejaVuSans-30"/>
      </defs>
      <g transform="translate(23.525 479.232031)scale(0.1 -0.1)">
       <use xlink:href="#DejaVuSans-30"/>
      </g>
     </g>
    </g>
    <g id="ytick_2">
     <g id="line2d_8">
      <g>
       <use style="stroke:#000000;stroke-width:0.8;" x="36.8875" xlink:href="#m0f8733dca0" y="387.597991"/>
      </g>
     </g>
     <g id="text_8">
      <!-- 20 -->
      <defs>
       <path d="M 19.1875 8.296875 
L 53.609375 8.296875 
L 53.609375 0 
L 7.328125 0 
L 7.328125 8.296875 
Q 12.9375 14.109375 22.625 23.890625 
Q 32.328125 33.6875 34.8125 36.53125 
Q 39.546875 41.84375 41.421875 45.53125 
Q 43.3125 49.21875 43.3125 52.78125 
Q 43.3125 58.59375 39.234375 62.25 
Q 35.15625 65.921875 28.609375 65.921875 
Q 23.96875 65.921875 18.8125 64.3125 
Q 13.671875 62.703125 7.8125 59.421875 
L 7.8125 69.390625 
Q 13.765625 71.78125 18.9375 73 
Q 24.125 74.21875 28.421875 74.21875 
Q 39.75 74.21875 46.484375 68.546875 
Q 53.21875 62.890625 53.21875 53.421875 
Q 53.21875 48.921875 51.53125 44.890625 
Q 49.859375 40.875 45.40625 35.40625 
Q 44.1875 33.984375 37.640625 27.21875 
Q 31.109375 20.453125 19.1875 8.296875 
z
" id="DejaVuSans-32"/>
      </defs>
      <g transform="translate(17.1625 391.39721)scale(0.1 -0.1)">
       <use xlink:href="#DejaVuSans-32"/>
       <use x="63.623047" xlink:href="#DejaVuSans-30"/>
      </g>
     </g>
    </g>
    <g id="ytick_3">
     <g id="line2d_9">
      <g>
       <use style="stroke:#000000;stroke-width:0.8;" x="36.8875" xlink:href="#m0f8733dca0" y="299.76317"/>
      </g>
     </g>
     <g id="text_9">
      <!-- 40 -->
      <defs>
       <path d="M 37.796875 64.3125 
L 12.890625 25.390625 
L 37.796875 25.390625 
z
M 35.203125 72.90625 
L 47.609375 72.90625 
L 47.609375 25.390625 
L 58.015625 25.390625 
L 58.015625 17.1875 
L 47.609375 17.1875 
L 47.609375 0 
L 37.796875 0 
L 37.796875 17.1875 
L 4.890625 17.1875 
L 4.890625 26.703125 
z
" id="DejaVuSans-34"/>
      </defs>
      <g transform="translate(17.1625 303.562388)scale(0.1 -0.1)">
       <use xlink:href="#DejaVuSans-34"/>
       <use x="63.623047" xlink:href="#DejaVuSans-30"/>
      </g>
     </g>
    </g>
    <g id="ytick_4">
     <g id="line2d_10">
      <g>
       <use style="stroke:#000000;stroke-width:0.8;" x="36.8875" xlink:href="#m0f8733dca0" y="211.928348"/>
      </g>
     </g>
     <g id="text_10">
      <!-- 60 -->
      <defs>
       <path d="M 33.015625 40.375 
Q 26.375 40.375 22.484375 35.828125 
Q 18.609375 31.296875 18.609375 23.390625 
Q 18.609375 15.53125 22.484375 10.953125 
Q 26.375 6.390625 33.015625 6.390625 
Q 39.65625 6.390625 43.53125 10.953125 
Q 47.40625 15.53125 47.40625 23.390625 
Q 47.40625 31.296875 43.53125 35.828125 
Q 39.65625 40.375 33.015625 40.375 
z
M 52.59375 71.296875 
L 52.59375 62.3125 
Q 48.875 64.0625 45.09375 64.984375 
Q 41.3125 65.921875 37.59375 65.921875 
Q 27.828125 65.921875 22.671875 59.328125 
Q 17.53125 52.734375 16.796875 39.40625 
Q 19.671875 43.65625 24.015625 45.921875 
Q 28.375 48.1875 33.59375 48.1875 
Q 44.578125 48.1875 50.953125 41.515625 
Q 57.328125 34.859375 57.328125 23.390625 
Q 57.328125 12.15625 50.6875 5.359375 
Q 44.046875 -1.421875 33.015625 -1.421875 
Q 20.359375 -1.421875 13.671875 8.265625 
Q 6.984375 17.96875 6.984375 36.375 
Q 6.984375 53.65625 15.1875 63.9375 
Q 23.390625 74.21875 37.203125 74.21875 
Q 40.921875 74.21875 44.703125 73.484375 
Q 48.484375 72.75 52.59375 71.296875 
z
" id="DejaVuSans-36"/>
      </defs>
      <g transform="translate(17.1625 215.727567)scale(0.1 -0.1)">
       <use xlink:href="#DejaVuSans-36"/>
       <use x="63.623047" xlink:href="#DejaVuSans-30"/>
      </g>
     </g>
    </g>
    <g id="ytick_5">
     <g id="line2d_11">
      <g>
       <use style="stroke:#000000;stroke-width:0.8;" x="36.8875" xlink:href="#m0f8733dca0" y="124.093527"/>
      </g>
     </g>
     <g id="text_11">
      <!-- 80 -->
      <defs>
       <path d="M 31.78125 34.625 
Q 24.75 34.625 20.71875 30.859375 
Q 16.703125 27.09375 16.703125 20.515625 
Q 16.703125 13.921875 20.71875 10.15625 
Q 24.75 6.390625 31.78125 6.390625 
Q 38.8125 6.390625 42.859375 10.171875 
Q 46.921875 13.96875 46.921875 20.515625 
Q 46.921875 27.09375 42.890625 30.859375 
Q 38.875 34.625 31.78125 34.625 
z
M 21.921875 38.8125 
Q 15.578125 40.375 12.03125 44.71875 
Q 8.5 49.078125 8.5 55.328125 
Q 8.5 64.0625 14.71875 69.140625 
Q 20.953125 74.21875 31.78125 74.21875 
Q 42.671875 74.21875 48.875 69.140625 
Q 55.078125 64.0625 55.078125 55.328125 
Q 55.078125 49.078125 51.53125 44.71875 
Q 48 40.375 41.703125 38.8125 
Q 48.828125 37.15625 52.796875 32.3125 
Q 56.78125 27.484375 56.78125 20.515625 
Q 56.78125 9.90625 50.3125 4.234375 
Q 43.84375 -1.421875 31.78125 -1.421875 
Q 19.734375 -1.421875 13.25 4.234375 
Q 6.78125 9.90625 6.78125 20.515625 
Q 6.78125 27.484375 10.78125 32.3125 
Q 14.796875 37.15625 21.921875 38.8125 
z
M 18.3125 54.390625 
Q 18.3125 48.734375 21.84375 45.5625 
Q 25.390625 42.390625 31.78125 42.390625 
Q 38.140625 42.390625 41.71875 45.5625 
Q 45.3125 48.734375 45.3125 54.390625 
Q 45.3125 60.0625 41.71875 63.234375 
Q 38.140625 66.40625 31.78125 66.40625 
Q 25.390625 66.40625 21.84375 63.234375 
Q 18.3125 60.0625 18.3125 54.390625 
z
" id="DejaVuSans-38"/>
      </defs>
      <g transform="translate(17.1625 127.892746)scale(0.1 -0.1)">
       <use xlink:href="#DejaVuSans-38"/>
       <use x="63.623047" xlink:href="#DejaVuSans-30"/>
      </g>
     </g>
    </g>
    <g id="ytick_6">
     <g id="line2d_12">
      <g>
       <use style="stroke:#000000;stroke-width:0.8;" x="36.8875" xlink:href="#m0f8733dca0" y="36.258705"/>
      </g>
     </g>
     <g id="text_12">
      <!-- 100 -->
      <defs>
       <path d="M 12.40625 8.296875 
L 28.515625 8.296875 
L 28.515625 63.921875 
L 10.984375 60.40625 
L 10.984375 69.390625 
L 28.421875 72.90625 
L 38.28125 72.90625 
L 38.28125 8.296875 
L 54.390625 8.296875 
L 54.390625 0 
L 12.40625 0 
z
" id="DejaVuSans-31"/>
      </defs>
      <g transform="translate(10.8 40.057924)scale(0.1 -0.1)">
       <use xlink:href="#DejaVuSans-31"/>
       <use x="63.623047" xlink:href="#DejaVuSans-30"/>
       <use x="127.246094" xlink:href="#DejaVuSans-30"/>
      </g>
     </g>
    </g>
   </g>
   <g id="patch_27">
    <path d="M 36.8875 475.432813 
L 36.8875 14.3 
" style="fill:none;stroke:#000000;stroke-linecap:square;stroke-linejoin:miter;stroke-width:0.8;"/>
   </g>
   <g id="patch_28">
    <path d="M 705.7 475.432813 
L 705.7 14.3 
" style="fill:none;stroke:#000000;stroke-linecap:square;stroke-linejoin:miter;stroke-width:0.8;"/>
   </g>
   <g id="patch_29">
    <path d="M 36.8875 475.432813 
L 705.7 475.432813 
" style="fill:none;stroke:#000000;stroke-linecap:square;stroke-linejoin:miter;stroke-width:0.8;"/>
   </g>
   <g id="patch_30">
    <path d="M 36.8875 14.3 
L 705.7 14.3 
" style="fill:none;stroke:#000000;stroke-linecap:square;stroke-linejoin:miter;stroke-width:0.8;"/>
   </g>
   <g id="legend_1">
    <g id="patch_31">
     <path d="M 609.496875 81.0125 
L 698.7 81.0125 
Q 700.7 81.0125 700.7 79.0125 
L 700.7 21.3 
Q 700.7 19.3 698.7 19.3 
L 609.496875 19.3 
Q 607.496875 19.3 607.496875 21.3 
L 607.496875 79.0125 
Q 607.496875 81.0125 609.496875 81.0125 
z
" style="fill:#ffffff;opacity:0.8;stroke:#cccccc;stroke-linejoin:miter;"/>
    </g>
    <g id="patch_32">
     <path d="M 611.496875 30.898438 
L 631.496875 30.898438 
L 631.496875 23.898438 
L 611.496875 23.898438 
z
" style="fill:#1f77b4;"/>
    </g>
    <g id="text_13">
     <!-- APercent -->
     <defs>
      <path d="M 34.1875 63.1875 
L 20.796875 26.90625 
L 47.609375 26.90625 
z
M 28.609375 72.90625 
L 39.796875 72.90625 
L 67.578125 0 
L 57.328125 0 
L 50.6875 18.703125 
L 17.828125 18.703125 
L 11.1875 0 
L 0.78125 0 
z
" id="DejaVuSans-41"/>
      <path d="M 19.671875 64.796875 
L 19.671875 37.40625 
L 32.078125 37.40625 
Q 38.96875 37.40625 42.71875 40.96875 
Q 46.484375 44.53125 46.484375 51.125 
Q 46.484375 57.671875 42.71875 61.234375 
Q 38.96875 64.796875 32.078125 64.796875 
z
M 9.8125 72.90625 
L 32.078125 72.90625 
Q 44.34375 72.90625 50.609375 67.359375 
Q 56.890625 61.8125 56.890625 51.125 
Q 56.890625 40.328125 50.609375 34.8125 
Q 44.34375 29.296875 32.078125 29.296875 
L 19.671875 29.296875 
L 19.671875 0 
L 9.8125 0 
z
" id="DejaVuSans-50"/>
     </defs>
     <g transform="translate(639.496875 30.898438)scale(0.1 -0.1)">
      <use xlink:href="#DejaVuSans-41"/>
      <use x="68.408203" xlink:href="#DejaVuSans-50"/>
      <use x="128.664062" xlink:href="#DejaVuSans-65"/>
      <use x="190.1875" xlink:href="#DejaVuSans-72"/>
      <use x="231.269531" xlink:href="#DejaVuSans-63"/>
      <use x="286.25" xlink:href="#DejaVuSans-65"/>
      <use x="347.773438" xlink:href="#DejaVuSans-6e"/>
      <use x="411.152344" xlink:href="#DejaVuSans-74"/>
     </g>
    </g>
    <g id="patch_33">
     <path d="M 611.496875 45.576563 
L 631.496875 45.576563 
L 631.496875 38.576563 
L 611.496875 38.576563 
z
" style="fill:#ff7f0e;"/>
    </g>
    <g id="text_14">
     <!-- PPercent -->
     <g transform="translate(639.496875 45.576563)scale(0.1 -0.1)">
      <use xlink:href="#DejaVuSans-50"/>
      <use x="60.302734" xlink:href="#DejaVuSans-50"/>
      <use x="120.558594" xlink:href="#DejaVuSans-65"/>
      <use x="182.082031" xlink:href="#DejaVuSans-72"/>
      <use x="223.164062" xlink:href="#DejaVuSans-63"/>
      <use x="278.144531" xlink:href="#DejaVuSans-65"/>
      <use x="339.667969" xlink:href="#DejaVuSans-6e"/>
      <use x="403.046875" xlink:href="#DejaVuSans-74"/>
     </g>
    </g>
    <g id="patch_34">
     <path d="M 611.496875 60.254688 
L 631.496875 60.254688 
L 631.496875 53.254688 
L 611.496875 53.254688 
z
" style="fill:#2ca02c;"/>
    </g>
    <g id="text_15">
     <!-- NIPercent -->
     <defs>
      <path d="M 9.8125 72.90625 
L 19.671875 72.90625 
L 19.671875 0 
L 9.8125 0 
z
" id="DejaVuSans-49"/>
     </defs>
     <g transform="translate(639.496875 60.254688)scale(0.1 -0.1)">
      <use xlink:href="#DejaVuSans-4e"/>
      <use x="74.804688" xlink:href="#DejaVuSans-49"/>
      <use x="104.296875" xlink:href="#DejaVuSans-50"/>
      <use x="164.552734" xlink:href="#DejaVuSans-65"/>
      <use x="226.076172" xlink:href="#DejaVuSans-72"/>
      <use x="267.158203" xlink:href="#DejaVuSans-63"/>
      <use x="322.138672" xlink:href="#DejaVuSans-65"/>
      <use x="383.662109" xlink:href="#DejaVuSans-6e"/>
      <use x="447.041016" xlink:href="#DejaVuSans-74"/>
     </g>
    </g>
    <g id="patch_35">
     <path d="M 611.496875 74.932812 
L 631.496875 74.932812 
L 631.496875 67.932812 
L 611.496875 67.932812 
z
" style="fill:#d62728;"/>
    </g>
    <g id="text_16">
     <!-- W/FPercent -->
     <defs>
      <path d="M 3.328125 72.90625 
L 13.28125 72.90625 
L 28.609375 11.28125 
L 43.890625 72.90625 
L 54.984375 72.90625 
L 70.3125 11.28125 
L 85.59375 72.90625 
L 95.609375 72.90625 
L 77.296875 0 
L 64.890625 0 
L 49.515625 63.28125 
L 33.984375 0 
L 21.578125 0 
z
" id="DejaVuSans-57"/>
      <path d="M 25.390625 72.90625 
L 33.6875 72.90625 
L 8.296875 -9.28125 
L 0 -9.28125 
z
" id="DejaVuSans-2f"/>
     </defs>
     <g transform="translate(639.496875 74.932812)scale(0.1 -0.1)">
      <use xlink:href="#DejaVuSans-57"/>
      <use x="98.876953" xlink:href="#DejaVuSans-2f"/>
      <use x="132.568359" xlink:href="#DejaVuSans-46"/>
      <use x="190.087891" xlink:href="#DejaVuSans-50"/>
      <use x="250.34375" xlink:href="#DejaVuSans-65"/>
      <use x="311.867188" xlink:href="#DejaVuSans-72"/>
      <use x="352.949219" xlink:href="#DejaVuSans-63"/>
      <use x="407.929688" xlink:href="#DejaVuSans-65"/>
      <use x="469.453125" xlink:href="#DejaVuSans-6e"/>
      <use x="532.832031" xlink:href="#DejaVuSans-74"/>
     </g>
    </g>
   </g>
  </g>
 </g>
 <defs>
  <clipPath id="p7a4f7472c9">
   <rect height="461.132812" width="668.8125" x="36.8875" y="14.3"/>
  </clipPath>
 </defs>
</svg>
