<?xml version="1.0" encoding="utf-8" standalone="no"?>
<!DOCTYPE svg PUBLIC "-//W3C//DTD SVG 1.1//EN"
  "http://www.w3.org/Graphics/SVG/1.1/DTD/svg11.dtd">
<!-- Created with matplotlib (http://matplotlib.org/) -->
<svg height="720pt" version="1.1" viewBox="0 0 720 720" width="720pt" xmlns="http://www.w3.org/2000/svg" xmlns:xlink="http://www.w3.org/1999/xlink">
 <defs>
  <style type="text/css">
*{stroke-linecap:butt;stroke-linejoin:round;}
  </style>
 </defs>
 <g id="figure_1">
  <g id="patch_1">
   <path d="M 0 720 
L 720 720 
L 720 0 
L 0 0 
z
" style="fill:#ffffff;"/>
  </g>
  <g id="axes_1">
   <g id="patch_2">
    <path d="M 30.525 38.354687 
L 705.7 38.354687 
L 705.7 14.3 
L 30.525 14.3 
z
" style="fill:#ffffff;"/>
   </g>
   <g id="patch_3">
    <path clip-path="url(#p7d81488466)" d="M 86.789583 38.354687 
L 143.054167 38.354687 
L 143.054167 15.445461 
L 86.789583 15.445461 
z
" style="fill:#1f77b4;"/>
   </g>
   <g id="patch_4">
    <path clip-path="url(#p7d81488466)" d="M 311.847917 38.354687 
L 368.1125 38.354687 
L 368.1125 16.094711 
L 311.847917 16.094711 
z
" style="fill:#1f77b4;"/>
   </g>
   <g id="patch_5">
    <path clip-path="url(#p7d81488466)" d="M 536.90625 38.354687 
L 593.170833 38.354687 
L 593.170833 19.804707 
L 536.90625 19.804707 
z
" style="fill:#1f77b4;"/>
   </g>
   <g id="patch_6">
    <path clip-path="url(#p7d81488466)" d="M 143.054167 38.354687 
L 199.31875 38.354687 
L 199.31875 29.357947 
L 143.054167 29.357947 
z
" style="fill:#ff7f0e;"/>
   </g>
   <g id="patch_7">
    <path clip-path="url(#p7d81488466)" d="M 368.1125 38.354687 
L 424.377083 38.354687 
L 424.377083 26.049867 
L 368.1125 26.049867 
z
" style="fill:#ff7f0e;"/>
   </g>
   <g id="patch_8">
    <path clip-path="url(#p7d81488466)" d="M 593.170833 38.354687 
L 649.435417 38.354687 
L 649.435417 29.852613 
L 593.170833 29.852613 
z
" style="fill:#ff7f0e;"/>
   </g>
   <g id="matplotlib.axis_1">
    <g id="xtick_1">
     <g id="line2d_1">
      <defs>
       <path d="M 0 0 
L 0 3.5 
" id="m21ac9426ac" style="stroke:#000000;stroke-width:0.8;"/>
      </defs>
      <g>
       <use style="stroke:#000000;stroke-width:0.8;" x="143.054167" xlink:href="#m21ac9426ac" y="38.354687"/>
      </g>
     </g>
     <g id="text_1">
      <!-- Community Day Charter Public School - Gateway (District) - Community Day Charter Public School - Gateway -->
      <defs>
       <path d="M 64.40625 67.28125 
L 64.40625 56.890625 
Q 59.421875 61.53125 53.78125 63.8125 
Q 48.140625 66.109375 41.796875 66.109375 
Q 29.296875 66.109375 22.65625 58.46875 
Q 16.015625 50.828125 16.015625 36.375 
Q 16.015625 21.96875 22.65625 14.328125 
Q 29.296875 6.6875 41.796875 6.6875 
Q 48.140625 6.6875 53.78125 8.984375 
Q 59.421875 11.28125 64.40625 15.921875 
L 64.40625 5.609375 
Q 59.234375 2.09375 53.4375 0.328125 
Q 47.65625 -1.421875 41.21875 -1.421875 
Q 24.65625 -1.421875 15.125 8.703125 
Q 5.609375 18.84375 5.609375 36.375 
Q 5.609375 53.953125 15.125 64.078125 
Q 24.65625 74.21875 41.21875 74.21875 
Q 47.75 74.21875 53.53125 72.484375 
Q 59.328125 70.75 64.40625 67.28125 
z
" id="DejaVuSans-43"/>
       <path d="M 30.609375 48.390625 
Q 23.390625 48.390625 19.1875 42.75 
Q 14.984375 37.109375 14.984375 27.296875 
Q 14.984375 17.484375 19.15625 11.84375 
Q 23.34375 6.203125 30.609375 6.203125 
Q 37.796875 6.203125 41.984375 11.859375 
Q 46.1875 17.53125 46.1875 27.296875 
Q 46.1875 37.015625 41.984375 42.703125 
Q 37.796875 48.390625 30.609375 48.390625 
z
M 30.609375 56 
Q 42.328125 56 49.015625 48.375 
Q 55.71875 40.765625 55.71875 27.296875 
Q 55.71875 13.875 49.015625 6.21875 
Q 42.328125 -1.421875 30.609375 -1.421875 
Q 18.84375 -1.421875 12.171875 6.21875 
Q 5.515625 13.875 5.515625 27.296875 
Q 5.515625 40.765625 12.171875 48.375 
Q 18.84375 56 30.609375 56 
z
" id="DejaVuSans-6f"/>
       <path d="M 52 44.1875 
Q 55.375 50.25 60.0625 53.125 
Q 64.75 56 71.09375 56 
Q 79.640625 56 84.28125 50.015625 
Q 88.921875 44.046875 88.921875 33.015625 
L 88.921875 0 
L 79.890625 0 
L 79.890625 32.71875 
Q 79.890625 40.578125 77.09375 44.375 
Q 74.3125 48.1875 68.609375 48.1875 
Q 61.625 48.1875 57.5625 43.546875 
Q 53.515625 38.921875 53.515625 30.90625 
L 53.515625 0 
L 44.484375 0 
L 44.484375 32.71875 
Q 44.484375 40.625 41.703125 44.40625 
Q 38.921875 48.1875 33.109375 48.1875 
Q 26.21875 48.1875 22.15625 43.53125 
Q 18.109375 38.875 18.109375 30.90625 
L 18.109375 0 
L 9.078125 0 
L 9.078125 54.6875 
L 18.109375 54.6875 
L 18.109375 46.1875 
Q 21.1875 51.21875 25.484375 53.609375 
Q 29.78125 56 35.6875 56 
Q 41.65625 56 45.828125 52.96875 
Q 50 49.953125 52 44.1875 
z
" id="DejaVuSans-6d"/>
       <path d="M 8.5 21.578125 
L 8.5 54.6875 
L 17.484375 54.6875 
L 17.484375 21.921875 
Q 17.484375 14.15625 20.5 10.265625 
Q 23.53125 6.390625 29.59375 6.390625 
Q 36.859375 6.390625 41.078125 11.03125 
Q 45.3125 15.671875 45.3125 23.6875 
L 45.3125 54.6875 
L 54.296875 54.6875 
L 54.296875 0 
L 45.3125 0 
L 45.3125 8.40625 
Q 42.046875 3.421875 37.71875 1 
Q 33.40625 -1.421875 27.6875 -1.421875 
Q 18.265625 -1.421875 13.375 4.4375 
Q 8.5 10.296875 8.5 21.578125 
z
M 31.109375 56 
z
" id="DejaVuSans-75"/>
       <path d="M 54.890625 33.015625 
L 54.890625 0 
L 45.90625 0 
L 45.90625 32.71875 
Q 45.90625 40.484375 42.875 44.328125 
Q 39.84375 48.1875 33.796875 48.1875 
Q 26.515625 48.1875 22.3125 43.546875 
Q 18.109375 38.921875 18.109375 30.90625 
L 18.109375 0 
L 9.078125 0 
L 9.078125 54.6875 
L 18.109375 54.6875 
L 18.109375 46.1875 
Q 21.34375 51.125 25.703125 53.5625 
Q 30.078125 56 35.796875 56 
Q 45.21875 56 50.046875 50.171875 
Q 54.890625 44.34375 54.890625 33.015625 
z
" id="DejaVuSans-6e"/>
       <path d="M 9.421875 54.6875 
L 18.40625 54.6875 
L 18.40625 0 
L 9.421875 0 
z
M 9.421875 75.984375 
L 18.40625 75.984375 
L 18.40625 64.59375 
L 9.421875 64.59375 
z
" id="DejaVuSans-69"/>
       <path d="M 18.3125 70.21875 
L 18.3125 54.6875 
L 36.8125 54.6875 
L 36.8125 47.703125 
L 18.3125 47.703125 
L 18.3125 18.015625 
Q 18.3125 11.328125 20.140625 9.421875 
Q 21.96875 7.515625 27.59375 7.515625 
L 36.8125 7.515625 
L 36.8125 0 
L 27.59375 0 
Q 17.1875 0 13.234375 3.875 
Q 9.28125 7.765625 9.28125 18.015625 
L 9.28125 47.703125 
L 2.6875 47.703125 
L 2.6875 54.6875 
L 9.28125 54.6875 
L 9.28125 70.21875 
z
" id="DejaVuSans-74"/>
       <path d="M 32.171875 -5.078125 
Q 28.375 -14.84375 24.75 -17.8125 
Q 21.140625 -20.796875 15.09375 -20.796875 
L 7.90625 -20.796875 
L 7.90625 -13.28125 
L 13.1875 -13.28125 
Q 16.890625 -13.28125 18.9375 -11.515625 
Q 21 -9.765625 23.484375 -3.21875 
L 25.09375 0.875 
L 2.984375 54.6875 
L 12.5 54.6875 
L 29.59375 11.921875 
L 46.6875 54.6875 
L 56.203125 54.6875 
z
" id="DejaVuSans-79"/>
       <path id="DejaVuSans-20"/>
       <path d="M 19.671875 64.796875 
L 19.671875 8.109375 
L 31.59375 8.109375 
Q 46.6875 8.109375 53.6875 14.9375 
Q 60.6875 21.78125 60.6875 36.53125 
Q 60.6875 51.171875 53.6875 57.984375 
Q 46.6875 64.796875 31.59375 64.796875 
z
M 9.8125 72.90625 
L 30.078125 72.90625 
Q 51.265625 72.90625 61.171875 64.09375 
Q 71.09375 55.28125 71.09375 36.53125 
Q 71.09375 17.671875 61.125 8.828125 
Q 51.171875 0 30.078125 0 
L 9.8125 0 
z
" id="DejaVuSans-44"/>
       <path d="M 34.28125 27.484375 
Q 23.390625 27.484375 19.1875 25 
Q 14.984375 22.515625 14.984375 16.5 
Q 14.984375 11.71875 18.140625 8.90625 
Q 21.296875 6.109375 26.703125 6.109375 
Q 34.1875 6.109375 38.703125 11.40625 
Q 43.21875 16.703125 43.21875 25.484375 
L 43.21875 27.484375 
z
M 52.203125 31.203125 
L 52.203125 0 
L 43.21875 0 
L 43.21875 8.296875 
Q 40.140625 3.328125 35.546875 0.953125 
Q 30.953125 -1.421875 24.3125 -1.421875 
Q 15.921875 -1.421875 10.953125 3.296875 
Q 6 8.015625 6 15.921875 
Q 6 25.140625 12.171875 29.828125 
Q 18.359375 34.515625 30.609375 34.515625 
L 43.21875 34.515625 
L 43.21875 35.40625 
Q 43.21875 41.609375 39.140625 45 
Q 35.0625 48.390625 27.6875 48.390625 
Q 23 48.390625 18.546875 47.265625 
Q 14.109375 46.140625 10.015625 43.890625 
L 10.015625 52.203125 
Q 14.9375 54.109375 19.578125 55.046875 
Q 24.21875 56 28.609375 56 
Q 40.484375 56 46.34375 49.84375 
Q 52.203125 43.703125 52.203125 31.203125 
z
" id="DejaVuSans-61"/>
       <path d="M 54.890625 33.015625 
L 54.890625 0 
L 45.90625 0 
L 45.90625 32.71875 
Q 45.90625 40.484375 42.875 44.328125 
Q 39.84375 48.1875 33.796875 48.1875 
Q 26.515625 48.1875 22.3125 43.546875 
Q 18.109375 38.921875 18.109375 30.90625 
L 18.109375 0 
L 9.078125 0 
L 9.078125 75.984375 
L 18.109375 75.984375 
L 18.109375 46.1875 
Q 21.34375 51.125 25.703125 53.5625 
Q 30.078125 56 35.796875 56 
Q 45.21875 56 50.046875 50.171875 
Q 54.890625 44.34375 54.890625 33.015625 
z
" id="DejaVuSans-68"/>
       <path d="M 41.109375 46.296875 
Q 39.59375 47.171875 37.8125 47.578125 
Q 36.03125 48 33.890625 48 
Q 26.265625 48 22.1875 43.046875 
Q 18.109375 38.09375 18.109375 28.8125 
L 18.109375 0 
L 9.078125 0 
L 9.078125 54.6875 
L 18.109375 54.6875 
L 18.109375 46.1875 
Q 20.953125 51.171875 25.484375 53.578125 
Q 30.03125 56 36.53125 56 
Q 37.453125 56 38.578125 55.875 
Q 39.703125 55.765625 41.0625 55.515625 
z
" id="DejaVuSans-72"/>
       <path d="M 56.203125 29.59375 
L 56.203125 25.203125 
L 14.890625 25.203125 
Q 15.484375 15.921875 20.484375 11.0625 
Q 25.484375 6.203125 34.421875 6.203125 
Q 39.59375 6.203125 44.453125 7.46875 
Q 49.3125 8.734375 54.109375 11.28125 
L 54.109375 2.78125 
Q 49.265625 0.734375 44.1875 -0.34375 
Q 39.109375 -1.421875 33.890625 -1.421875 
Q 20.796875 -1.421875 13.15625 6.1875 
Q 5.515625 13.8125 5.515625 26.8125 
Q 5.515625 40.234375 12.765625 48.109375 
Q 20.015625 56 32.328125 56 
Q 43.359375 56 49.78125 48.890625 
Q 56.203125 41.796875 56.203125 29.59375 
z
M 47.21875 32.234375 
Q 47.125 39.59375 43.09375 43.984375 
Q 39.0625 48.390625 32.421875 48.390625 
Q 24.90625 48.390625 20.390625 44.140625 
Q 15.875 39.890625 15.1875 32.171875 
z
" id="DejaVuSans-65"/>
       <path d="M 19.671875 64.796875 
L 19.671875 37.40625 
L 32.078125 37.40625 
Q 38.96875 37.40625 42.71875 40.96875 
Q 46.484375 44.53125 46.484375 51.125 
Q 46.484375 57.671875 42.71875 61.234375 
Q 38.96875 64.796875 32.078125 64.796875 
z
M 9.8125 72.90625 
L 32.078125 72.90625 
Q 44.34375 72.90625 50.609375 67.359375 
Q 56.890625 61.8125 56.890625 51.125 
Q 56.890625 40.328125 50.609375 34.8125 
Q 44.34375 29.296875 32.078125 29.296875 
L 19.671875 29.296875 
L 19.671875 0 
L 9.8125 0 
z
" id="DejaVuSans-50"/>
       <path d="M 48.6875 27.296875 
Q 48.6875 37.203125 44.609375 42.84375 
Q 40.53125 48.484375 33.40625 48.484375 
Q 26.265625 48.484375 22.1875 42.84375 
Q 18.109375 37.203125 18.109375 27.296875 
Q 18.109375 17.390625 22.1875 11.75 
Q 26.265625 6.109375 33.40625 6.109375 
Q 40.53125 6.109375 44.609375 11.75 
Q 48.6875 17.390625 48.6875 27.296875 
z
M 18.109375 46.390625 
Q 20.953125 51.265625 25.265625 53.625 
Q 29.59375 56 35.59375 56 
Q 45.5625 56 51.78125 48.09375 
Q 58.015625 40.1875 58.015625 27.296875 
Q 58.015625 14.40625 51.78125 6.484375 
Q 45.5625 -1.421875 35.59375 -1.421875 
Q 29.59375 -1.421875 25.265625 0.953125 
Q 20.953125 3.328125 18.109375 8.203125 
L 18.109375 0 
L 9.078125 0 
L 9.078125 75.984375 
L 18.109375 75.984375 
z
" id="DejaVuSans-62"/>
       <path d="M 9.421875 75.984375 
L 18.40625 75.984375 
L 18.40625 0 
L 9.421875 0 
z
" id="DejaVuSans-6c"/>
       <path d="M 48.78125 52.59375 
L 48.78125 44.1875 
Q 44.96875 46.296875 41.140625 47.34375 
Q 37.3125 48.390625 33.40625 48.390625 
Q 24.65625 48.390625 19.8125 42.84375 
Q 14.984375 37.3125 14.984375 27.296875 
Q 14.984375 17.28125 19.8125 11.734375 
Q 24.65625 6.203125 33.40625 6.203125 
Q 37.3125 6.203125 41.140625 7.25 
Q 44.96875 8.296875 48.78125 10.40625 
L 48.78125 2.09375 
Q 45.015625 0.34375 40.984375 -0.53125 
Q 36.96875 -1.421875 32.421875 -1.421875 
Q 20.0625 -1.421875 12.78125 6.34375 
Q 5.515625 14.109375 5.515625 27.296875 
Q 5.515625 40.671875 12.859375 48.328125 
Q 20.21875 56 33.015625 56 
Q 37.15625 56 41.109375 55.140625 
Q 45.0625 54.296875 48.78125 52.59375 
z
" id="DejaVuSans-63"/>
       <path d="M 53.515625 70.515625 
L 53.515625 60.890625 
Q 47.90625 63.578125 42.921875 64.890625 
Q 37.9375 66.21875 33.296875 66.21875 
Q 25.25 66.21875 20.875 63.09375 
Q 16.5 59.96875 16.5 54.203125 
Q 16.5 49.359375 19.40625 46.890625 
Q 22.3125 44.4375 30.421875 42.921875 
L 36.375 41.703125 
Q 47.40625 39.59375 52.65625 34.296875 
Q 57.90625 29 57.90625 20.125 
Q 57.90625 9.515625 50.796875 4.046875 
Q 43.703125 -1.421875 29.984375 -1.421875 
Q 24.8125 -1.421875 18.96875 -0.25 
Q 13.140625 0.921875 6.890625 3.21875 
L 6.890625 13.375 
Q 12.890625 10.015625 18.65625 8.296875 
Q 24.421875 6.59375 29.984375 6.59375 
Q 38.421875 6.59375 43.015625 9.90625 
Q 47.609375 13.234375 47.609375 19.390625 
Q 47.609375 24.75 44.3125 27.78125 
Q 41.015625 30.8125 33.5 32.328125 
L 27.484375 33.5 
Q 16.453125 35.6875 11.515625 40.375 
Q 6.59375 45.0625 6.59375 53.421875 
Q 6.59375 63.09375 13.40625 68.65625 
Q 20.21875 74.21875 32.171875 74.21875 
Q 37.3125 74.21875 42.625 73.28125 
Q 47.953125 72.359375 53.515625 70.515625 
z
" id="DejaVuSans-53"/>
       <path d="M 4.890625 31.390625 
L 31.203125 31.390625 
L 31.203125 23.390625 
L 4.890625 23.390625 
z
" id="DejaVuSans-2d"/>
       <path d="M 59.515625 10.40625 
L 59.515625 29.984375 
L 43.40625 29.984375 
L 43.40625 38.09375 
L 69.28125 38.09375 
L 69.28125 6.78125 
Q 63.578125 2.734375 56.6875 0.65625 
Q 49.8125 -1.421875 42 -1.421875 
Q 24.90625 -1.421875 15.25 8.5625 
Q 5.609375 18.5625 5.609375 36.375 
Q 5.609375 54.25 15.25 64.234375 
Q 24.90625 74.21875 42 74.21875 
Q 49.125 74.21875 55.546875 72.453125 
Q 61.96875 70.703125 67.390625 67.28125 
L 67.390625 56.78125 
Q 61.921875 61.421875 55.765625 63.765625 
Q 49.609375 66.109375 42.828125 66.109375 
Q 29.4375 66.109375 22.71875 58.640625 
Q 16.015625 51.171875 16.015625 36.375 
Q 16.015625 21.625 22.71875 14.15625 
Q 29.4375 6.6875 42.828125 6.6875 
Q 48.046875 6.6875 52.140625 7.59375 
Q 56.25 8.5 59.515625 10.40625 
z
" id="DejaVuSans-47"/>
       <path d="M 4.203125 54.6875 
L 13.1875 54.6875 
L 24.421875 12.015625 
L 35.59375 54.6875 
L 46.1875 54.6875 
L 57.421875 12.015625 
L 68.609375 54.6875 
L 77.59375 54.6875 
L 63.28125 0 
L 52.6875 0 
L 40.921875 44.828125 
L 29.109375 0 
L 18.5 0 
z
" id="DejaVuSans-77"/>
       <path d="M 31 75.875 
Q 24.46875 64.65625 21.28125 53.65625 
Q 18.109375 42.671875 18.109375 31.390625 
Q 18.109375 20.125 21.3125 9.0625 
Q 24.515625 -2 31 -13.1875 
L 23.1875 -13.1875 
Q 15.875 -1.703125 12.234375 9.375 
Q 8.59375 20.453125 8.59375 31.390625 
Q 8.59375 42.28125 12.203125 53.3125 
Q 15.828125 64.359375 23.1875 75.875 
z
" id="DejaVuSans-28"/>
       <path d="M 44.28125 53.078125 
L 44.28125 44.578125 
Q 40.484375 46.53125 36.375 47.5 
Q 32.28125 48.484375 27.875 48.484375 
Q 21.1875 48.484375 17.84375 46.4375 
Q 14.5 44.390625 14.5 40.28125 
Q 14.5 37.15625 16.890625 35.375 
Q 19.28125 33.59375 26.515625 31.984375 
L 29.59375 31.296875 
Q 39.15625 29.25 43.1875 25.515625 
Q 47.21875 21.78125 47.21875 15.09375 
Q 47.21875 7.46875 41.1875 3.015625 
Q 35.15625 -1.421875 24.609375 -1.421875 
Q 20.21875 -1.421875 15.453125 -0.5625 
Q 10.6875 0.296875 5.421875 2 
L 5.421875 11.28125 
Q 10.40625 8.6875 15.234375 7.390625 
Q 20.0625 6.109375 24.8125 6.109375 
Q 31.15625 6.109375 34.5625 8.28125 
Q 37.984375 10.453125 37.984375 14.40625 
Q 37.984375 18.0625 35.515625 20.015625 
Q 33.0625 21.96875 24.703125 23.78125 
L 21.578125 24.515625 
Q 13.234375 26.265625 9.515625 29.90625 
Q 5.8125 33.546875 5.8125 39.890625 
Q 5.8125 47.609375 11.28125 51.796875 
Q 16.75 56 26.8125 56 
Q 31.78125 56 36.171875 55.265625 
Q 40.578125 54.546875 44.28125 53.078125 
z
" id="DejaVuSans-73"/>
       <path d="M 8.015625 75.875 
L 15.828125 75.875 
Q 23.140625 64.359375 26.78125 53.3125 
Q 30.421875 42.28125 30.421875 31.390625 
Q 30.421875 20.453125 26.78125 9.375 
Q 23.140625 -1.703125 15.828125 -13.1875 
L 8.015625 -13.1875 
Q 14.5 -2 17.703125 9.0625 
Q 20.90625 20.125 20.90625 31.390625 
Q 20.90625 42.671875 17.703125 53.65625 
Q 14.5 64.65625 8.015625 75.875 
z
" id="DejaVuSans-29"/>
      </defs>
      <g transform="translate(145.813542 592.5875)rotate(-90)scale(0.1 -0.1)">
       <use xlink:href="#DejaVuSans-43"/>
       <use x="69.824219" xlink:href="#DejaVuSans-6f"/>
       <use x="131.005859" xlink:href="#DejaVuSans-6d"/>
       <use x="228.417969" xlink:href="#DejaVuSans-6d"/>
       <use x="325.830078" xlink:href="#DejaVuSans-75"/>
       <use x="389.208984" xlink:href="#DejaVuSans-6e"/>
       <use x="452.587891" xlink:href="#DejaVuSans-69"/>
       <use x="480.371094" xlink:href="#DejaVuSans-74"/>
       <use x="519.580078" xlink:href="#DejaVuSans-79"/>
       <use x="578.759766" xlink:href="#DejaVuSans-20"/>
       <use x="610.546875" xlink:href="#DejaVuSans-44"/>
       <use x="687.548828" xlink:href="#DejaVuSans-61"/>
       <use x="748.828125" xlink:href="#DejaVuSans-79"/>
       <use x="808.007812" xlink:href="#DejaVuSans-20"/>
       <use x="839.794922" xlink:href="#DejaVuSans-43"/>
       <use x="909.619141" xlink:href="#DejaVuSans-68"/>
       <use x="972.998047" xlink:href="#DejaVuSans-61"/>
       <use x="1034.277344" xlink:href="#DejaVuSans-72"/>
       <use x="1075.390625" xlink:href="#DejaVuSans-74"/>
       <use x="1114.599609" xlink:href="#DejaVuSans-65"/>
       <use x="1176.123047" xlink:href="#DejaVuSans-72"/>
       <use x="1217.236328" xlink:href="#DejaVuSans-20"/>
       <use x="1249.023438" xlink:href="#DejaVuSans-50"/>
       <use x="1309.310547" xlink:href="#DejaVuSans-75"/>
       <use x="1372.689453" xlink:href="#DejaVuSans-62"/>
       <use x="1436.166016" xlink:href="#DejaVuSans-6c"/>
       <use x="1463.949219" xlink:href="#DejaVuSans-69"/>
       <use x="1491.732422" xlink:href="#DejaVuSans-63"/>
       <use x="1546.712891" xlink:href="#DejaVuSans-20"/>
       <use x="1578.5" xlink:href="#DejaVuSans-53"/>
       <use x="1641.976562" xlink:href="#DejaVuSans-63"/>
       <use x="1696.957031" xlink:href="#DejaVuSans-68"/>
       <use x="1760.335938" xlink:href="#DejaVuSans-6f"/>
       <use x="1821.517578" xlink:href="#DejaVuSans-6f"/>
       <use x="1882.699219" xlink:href="#DejaVuSans-6c"/>
       <use x="1910.482422" xlink:href="#DejaVuSans-20"/>
       <use x="1942.269531" xlink:href="#DejaVuSans-2d"/>
       <use x="1978.353516" xlink:href="#DejaVuSans-20"/>
       <use x="2010.140625" xlink:href="#DejaVuSans-47"/>
       <use x="2087.630859" xlink:href="#DejaVuSans-61"/>
       <use x="2148.910156" xlink:href="#DejaVuSans-74"/>
       <use x="2188.119141" xlink:href="#DejaVuSans-65"/>
       <use x="2249.642578" xlink:href="#DejaVuSans-77"/>
       <use x="2331.429688" xlink:href="#DejaVuSans-61"/>
       <use x="2392.708984" xlink:href="#DejaVuSans-79"/>
       <use x="2451.888672" xlink:href="#DejaVuSans-20"/>
       <use x="2483.675781" xlink:href="#DejaVuSans-28"/>
       <use x="2522.689453" xlink:href="#DejaVuSans-44"/>
       <use x="2599.691406" xlink:href="#DejaVuSans-69"/>
       <use x="2627.474609" xlink:href="#DejaVuSans-73"/>
       <use x="2679.574219" xlink:href="#DejaVuSans-74"/>
       <use x="2718.783203" xlink:href="#DejaVuSans-72"/>
       <use x="2759.896484" xlink:href="#DejaVuSans-69"/>
       <use x="2787.679688" xlink:href="#DejaVuSans-63"/>
       <use x="2842.660156" xlink:href="#DejaVuSans-74"/>
       <use x="2881.869141" xlink:href="#DejaVuSans-29"/>
       <use x="2920.882812" xlink:href="#DejaVuSans-20"/>
       <use x="2952.669922" xlink:href="#DejaVuSans-2d"/>
       <use x="2988.753906" xlink:href="#DejaVuSans-20"/>
       <use x="3020.541016" xlink:href="#DejaVuSans-43"/>
       <use x="3090.365234" xlink:href="#DejaVuSans-6f"/>
       <use x="3151.546875" xlink:href="#DejaVuSans-6d"/>
       <use x="3248.958984" xlink:href="#DejaVuSans-6d"/>
       <use x="3346.371094" xlink:href="#DejaVuSans-75"/>
       <use x="3409.75" xlink:href="#DejaVuSans-6e"/>
       <use x="3473.128906" xlink:href="#DejaVuSans-69"/>
       <use x="3500.912109" xlink:href="#DejaVuSans-74"/>
       <use x="3540.121094" xlink:href="#DejaVuSans-79"/>
       <use x="3599.300781" xlink:href="#DejaVuSans-20"/>
       <use x="3631.087891" xlink:href="#DejaVuSans-44"/>
       <use x="3708.089844" xlink:href="#DejaVuSans-61"/>
       <use x="3769.369141" xlink:href="#DejaVuSans-79"/>
       <use x="3828.548828" xlink:href="#DejaVuSans-20"/>
       <use x="3860.335938" xlink:href="#DejaVuSans-43"/>
       <use x="3930.160156" xlink:href="#DejaVuSans-68"/>
       <use x="3993.539062" xlink:href="#DejaVuSans-61"/>
       <use x="4054.818359" xlink:href="#DejaVuSans-72"/>
       <use x="4095.931641" xlink:href="#DejaVuSans-74"/>
       <use x="4135.140625" xlink:href="#DejaVuSans-65"/>
       <use x="4196.664062" xlink:href="#DejaVuSans-72"/>
       <use x="4237.777344" xlink:href="#DejaVuSans-20"/>
       <use x="4269.564453" xlink:href="#DejaVuSans-50"/>
       <use x="4329.851562" xlink:href="#DejaVuSans-75"/>
       <use x="4393.230469" xlink:href="#DejaVuSans-62"/>
       <use x="4456.707031" xlink:href="#DejaVuSans-6c"/>
       <use x="4484.490234" xlink:href="#DejaVuSans-69"/>
       <use x="4512.273438" xlink:href="#DejaVuSans-63"/>
       <use x="4567.253906" xlink:href="#DejaVuSans-20"/>
       <use x="4599.041016" xlink:href="#DejaVuSans-53"/>
       <use x="4662.517578" xlink:href="#DejaVuSans-63"/>
       <use x="4717.498047" xlink:href="#DejaVuSans-68"/>
       <use x="4780.876953" xlink:href="#DejaVuSans-6f"/>
       <use x="4842.058594" xlink:href="#DejaVuSans-6f"/>
       <use x="4903.240234" xlink:href="#DejaVuSans-6c"/>
       <use x="4931.023438" xlink:href="#DejaVuSans-20"/>
       <use x="4962.810547" xlink:href="#DejaVuSans-2d"/>
       <use x="4998.894531" xlink:href="#DejaVuSans-20"/>
       <use x="5030.681641" xlink:href="#DejaVuSans-47"/>
       <use x="5108.171875" xlink:href="#DejaVuSans-61"/>
       <use x="5169.451172" xlink:href="#DejaVuSans-74"/>
       <use x="5208.660156" xlink:href="#DejaVuSans-65"/>
       <use x="5270.183594" xlink:href="#DejaVuSans-77"/>
       <use x="5351.970703" xlink:href="#DejaVuSans-61"/>
       <use x="5413.25" xlink:href="#DejaVuSans-79"/>
      </g>
     </g>
    </g>
    <g id="xtick_2">
     <g id="line2d_2">
      <g>
       <use style="stroke:#000000;stroke-width:0.8;" x="368.1125" xlink:href="#m21ac9426ac" y="38.354687"/>
      </g>
     </g>
     <g id="text_2">
      <!-- Community Day Charter Public School - Prospect (District) - Community Day Charter Public School - Prospect -->
      <defs>
       <path d="M 18.109375 8.203125 
L 18.109375 -20.796875 
L 9.078125 -20.796875 
L 9.078125 54.6875 
L 18.109375 54.6875 
L 18.109375 46.390625 
Q 20.953125 51.265625 25.265625 53.625 
Q 29.59375 56 35.59375 56 
Q 45.5625 56 51.78125 48.09375 
Q 58.015625 40.1875 58.015625 27.296875 
Q 58.015625 14.40625 51.78125 6.484375 
Q 45.5625 -1.421875 35.59375 -1.421875 
Q 29.59375 -1.421875 25.265625 0.953125 
Q 20.953125 3.328125 18.109375 8.203125 
z
M 48.6875 27.296875 
Q 48.6875 37.203125 44.609375 42.84375 
Q 40.53125 48.484375 33.40625 48.484375 
Q 26.265625 48.484375 22.1875 42.84375 
Q 18.109375 37.203125 18.109375 27.296875 
Q 18.109375 17.390625 22.1875 11.75 
Q 26.265625 6.109375 33.40625 6.109375 
Q 40.53125 6.109375 44.609375 11.75 
Q 48.6875 17.390625 48.6875 27.296875 
z
" id="DejaVuSans-70"/>
      </defs>
      <g transform="translate(370.871875 591.00625)rotate(-90)scale(0.1 -0.1)">
       <use xlink:href="#DejaVuSans-43"/>
       <use x="69.824219" xlink:href="#DejaVuSans-6f"/>
       <use x="131.005859" xlink:href="#DejaVuSans-6d"/>
       <use x="228.417969" xlink:href="#DejaVuSans-6d"/>
       <use x="325.830078" xlink:href="#DejaVuSans-75"/>
       <use x="389.208984" xlink:href="#DejaVuSans-6e"/>
       <use x="452.587891" xlink:href="#DejaVuSans-69"/>
       <use x="480.371094" xlink:href="#DejaVuSans-74"/>
       <use x="519.580078" xlink:href="#DejaVuSans-79"/>
       <use x="578.759766" xlink:href="#DejaVuSans-20"/>
       <use x="610.546875" xlink:href="#DejaVuSans-44"/>
       <use x="687.548828" xlink:href="#DejaVuSans-61"/>
       <use x="748.828125" xlink:href="#DejaVuSans-79"/>
       <use x="808.007812" xlink:href="#DejaVuSans-20"/>
       <use x="839.794922" xlink:href="#DejaVuSans-43"/>
       <use x="909.619141" xlink:href="#DejaVuSans-68"/>
       <use x="972.998047" xlink:href="#DejaVuSans-61"/>
       <use x="1034.277344" xlink:href="#DejaVuSans-72"/>
       <use x="1075.390625" xlink:href="#DejaVuSans-74"/>
       <use x="1114.599609" xlink:href="#DejaVuSans-65"/>
       <use x="1176.123047" xlink:href="#DejaVuSans-72"/>
       <use x="1217.236328" xlink:href="#DejaVuSans-20"/>
       <use x="1249.023438" xlink:href="#DejaVuSans-50"/>
       <use x="1309.310547" xlink:href="#DejaVuSans-75"/>
       <use x="1372.689453" xlink:href="#DejaVuSans-62"/>
       <use x="1436.166016" xlink:href="#DejaVuSans-6c"/>
       <use x="1463.949219" xlink:href="#DejaVuSans-69"/>
       <use x="1491.732422" xlink:href="#DejaVuSans-63"/>
       <use x="1546.712891" xlink:href="#DejaVuSans-20"/>
       <use x="1578.5" xlink:href="#DejaVuSans-53"/>
       <use x="1641.976562" xlink:href="#DejaVuSans-63"/>
       <use x="1696.957031" xlink:href="#DejaVuSans-68"/>
       <use x="1760.335938" xlink:href="#DejaVuSans-6f"/>
       <use x="1821.517578" xlink:href="#DejaVuSans-6f"/>
       <use x="1882.699219" xlink:href="#DejaVuSans-6c"/>
       <use x="1910.482422" xlink:href="#DejaVuSans-20"/>
       <use x="1942.269531" xlink:href="#DejaVuSans-2d"/>
       <use x="1978.353516" xlink:href="#DejaVuSans-20"/>
       <use x="2010.140625" xlink:href="#DejaVuSans-50"/>
       <use x="2070.427734" xlink:href="#DejaVuSans-72"/>
       <use x="2111.509766" xlink:href="#DejaVuSans-6f"/>
       <use x="2172.691406" xlink:href="#DejaVuSans-73"/>
       <use x="2224.791016" xlink:href="#DejaVuSans-70"/>
       <use x="2288.267578" xlink:href="#DejaVuSans-65"/>
       <use x="2349.791016" xlink:href="#DejaVuSans-63"/>
       <use x="2404.771484" xlink:href="#DejaVuSans-74"/>
       <use x="2443.980469" xlink:href="#DejaVuSans-20"/>
       <use x="2475.767578" xlink:href="#DejaVuSans-28"/>
       <use x="2514.78125" xlink:href="#DejaVuSans-44"/>
       <use x="2591.783203" xlink:href="#DejaVuSans-69"/>
       <use x="2619.566406" xlink:href="#DejaVuSans-73"/>
       <use x="2671.666016" xlink:href="#DejaVuSans-74"/>
       <use x="2710.875" xlink:href="#DejaVuSans-72"/>
       <use x="2751.988281" xlink:href="#DejaVuSans-69"/>
       <use x="2779.771484" xlink:href="#DejaVuSans-63"/>
       <use x="2834.751953" xlink:href="#DejaVuSans-74"/>
       <use x="2873.960938" xlink:href="#DejaVuSans-29"/>
       <use x="2912.974609" xlink:href="#DejaVuSans-20"/>
       <use x="2944.761719" xlink:href="#DejaVuSans-2d"/>
       <use x="2980.845703" xlink:href="#DejaVuSans-20"/>
       <use x="3012.632812" xlink:href="#DejaVuSans-43"/>
       <use x="3082.457031" xlink:href="#DejaVuSans-6f"/>
       <use x="3143.638672" xlink:href="#DejaVuSans-6d"/>
       <use x="3241.050781" xlink:href="#DejaVuSans-6d"/>
       <use x="3338.462891" xlink:href="#DejaVuSans-75"/>
       <use x="3401.841797" xlink:href="#DejaVuSans-6e"/>
       <use x="3465.220703" xlink:href="#DejaVuSans-69"/>
       <use x="3493.003906" xlink:href="#DejaVuSans-74"/>
       <use x="3532.212891" xlink:href="#DejaVuSans-79"/>
       <use x="3591.392578" xlink:href="#DejaVuSans-20"/>
       <use x="3623.179688" xlink:href="#DejaVuSans-44"/>
       <use x="3700.181641" xlink:href="#DejaVuSans-61"/>
       <use x="3761.460938" xlink:href="#DejaVuSans-79"/>
       <use x="3820.640625" xlink:href="#DejaVuSans-20"/>
       <use x="3852.427734" xlink:href="#DejaVuSans-43"/>
       <use x="3922.251953" xlink:href="#DejaVuSans-68"/>
       <use x="3985.630859" xlink:href="#DejaVuSans-61"/>
       <use x="4046.910156" xlink:href="#DejaVuSans-72"/>
       <use x="4088.023438" xlink:href="#DejaVuSans-74"/>
       <use x="4127.232422" xlink:href="#DejaVuSans-65"/>
       <use x="4188.755859" xlink:href="#DejaVuSans-72"/>
       <use x="4229.869141" xlink:href="#DejaVuSans-20"/>
       <use x="4261.65625" xlink:href="#DejaVuSans-50"/>
       <use x="4321.943359" xlink:href="#DejaVuSans-75"/>
       <use x="4385.322266" xlink:href="#DejaVuSans-62"/>
       <use x="4448.798828" xlink:href="#DejaVuSans-6c"/>
       <use x="4476.582031" xlink:href="#DejaVuSans-69"/>
       <use x="4504.365234" xlink:href="#DejaVuSans-63"/>
       <use x="4559.345703" xlink:href="#DejaVuSans-20"/>
       <use x="4591.132812" xlink:href="#DejaVuSans-53"/>
       <use x="4654.609375" xlink:href="#DejaVuSans-63"/>
       <use x="4709.589844" xlink:href="#DejaVuSans-68"/>
       <use x="4772.96875" xlink:href="#DejaVuSans-6f"/>
       <use x="4834.150391" xlink:href="#DejaVuSans-6f"/>
       <use x="4895.332031" xlink:href="#DejaVuSans-6c"/>
       <use x="4923.115234" xlink:href="#DejaVuSans-20"/>
       <use x="4954.902344" xlink:href="#DejaVuSans-2d"/>
       <use x="4990.986328" xlink:href="#DejaVuSans-20"/>
       <use x="5022.773438" xlink:href="#DejaVuSans-50"/>
       <use x="5083.060547" xlink:href="#DejaVuSans-72"/>
       <use x="5124.142578" xlink:href="#DejaVuSans-6f"/>
       <use x="5185.324219" xlink:href="#DejaVuSans-73"/>
       <use x="5237.423828" xlink:href="#DejaVuSans-70"/>
       <use x="5300.900391" xlink:href="#DejaVuSans-65"/>
       <use x="5362.423828" xlink:href="#DejaVuSans-63"/>
       <use x="5417.404297" xlink:href="#DejaVuSans-74"/>
      </g>
     </g>
    </g>
    <g id="xtick_3">
     <g id="line2d_3">
      <g>
       <use style="stroke:#000000;stroke-width:0.8;" x="593.170833" xlink:href="#m21ac9426ac" y="38.354687"/>
      </g>
     </g>
     <g id="text_3">
      <!-- Community Day Charter Public School - R. Kingman Webster (District) - Community Day Charter Public School - R. Kingman Webster -->
      <defs>
       <path d="M 44.390625 34.1875 
Q 47.5625 33.109375 50.5625 29.59375 
Q 53.5625 26.078125 56.59375 19.921875 
L 66.609375 0 
L 56 0 
L 46.6875 18.703125 
Q 43.0625 26.03125 39.671875 28.421875 
Q 36.28125 30.8125 30.421875 30.8125 
L 19.671875 30.8125 
L 19.671875 0 
L 9.8125 0 
L 9.8125 72.90625 
L 32.078125 72.90625 
Q 44.578125 72.90625 50.734375 67.671875 
Q 56.890625 62.453125 56.890625 51.90625 
Q 56.890625 45.015625 53.6875 40.46875 
Q 50.484375 35.9375 44.390625 34.1875 
z
M 19.671875 64.796875 
L 19.671875 38.921875 
L 32.078125 38.921875 
Q 39.203125 38.921875 42.84375 42.21875 
Q 46.484375 45.515625 46.484375 51.90625 
Q 46.484375 58.296875 42.84375 61.546875 
Q 39.203125 64.796875 32.078125 64.796875 
z
" id="DejaVuSans-52"/>
       <path d="M 10.6875 12.40625 
L 21 12.40625 
L 21 0 
L 10.6875 0 
z
" id="DejaVuSans-2e"/>
       <path d="M 9.8125 72.90625 
L 19.671875 72.90625 
L 19.671875 42.09375 
L 52.390625 72.90625 
L 65.09375 72.90625 
L 28.90625 38.921875 
L 67.671875 0 
L 54.6875 0 
L 19.671875 35.109375 
L 19.671875 0 
L 9.8125 0 
z
" id="DejaVuSans-4b"/>
       <path d="M 45.40625 27.984375 
Q 45.40625 37.75 41.375 43.109375 
Q 37.359375 48.484375 30.078125 48.484375 
Q 22.859375 48.484375 18.828125 43.109375 
Q 14.796875 37.75 14.796875 27.984375 
Q 14.796875 18.265625 18.828125 12.890625 
Q 22.859375 7.515625 30.078125 7.515625 
Q 37.359375 7.515625 41.375 12.890625 
Q 45.40625 18.265625 45.40625 27.984375 
z
M 54.390625 6.78125 
Q 54.390625 -7.171875 48.1875 -13.984375 
Q 42 -20.796875 29.203125 -20.796875 
Q 24.46875 -20.796875 20.265625 -20.09375 
Q 16.0625 -19.390625 12.109375 -17.921875 
L 12.109375 -9.1875 
Q 16.0625 -11.328125 19.921875 -12.34375 
Q 23.78125 -13.375 27.78125 -13.375 
Q 36.625 -13.375 41.015625 -8.765625 
Q 45.40625 -4.15625 45.40625 5.171875 
L 45.40625 9.625 
Q 42.625 4.78125 38.28125 2.390625 
Q 33.9375 0 27.875 0 
Q 17.828125 0 11.671875 7.65625 
Q 5.515625 15.328125 5.515625 27.984375 
Q 5.515625 40.671875 11.671875 48.328125 
Q 17.828125 56 27.875 56 
Q 33.9375 56 38.28125 53.609375 
Q 42.625 51.21875 45.40625 46.390625 
L 45.40625 54.6875 
L 54.390625 54.6875 
z
" id="DejaVuSans-67"/>
       <path d="M 3.328125 72.90625 
L 13.28125 72.90625 
L 28.609375 11.28125 
L 43.890625 72.90625 
L 54.984375 72.90625 
L 70.3125 11.28125 
L 85.59375 72.90625 
L 95.609375 72.90625 
L 77.296875 0 
L 64.890625 0 
L 49.515625 63.28125 
L 33.984375 0 
L 21.578125 0 
z
" id="DejaVuSans-57"/>
      </defs>
      <g transform="translate(595.930208 709.2)rotate(-90)scale(0.1 -0.1)">
       <use xlink:href="#DejaVuSans-43"/>
       <use x="69.824219" xlink:href="#DejaVuSans-6f"/>
       <use x="131.005859" xlink:href="#DejaVuSans-6d"/>
       <use x="228.417969" xlink:href="#DejaVuSans-6d"/>
       <use x="325.830078" xlink:href="#DejaVuSans-75"/>
       <use x="389.208984" xlink:href="#DejaVuSans-6e"/>
       <use x="452.587891" xlink:href="#DejaVuSans-69"/>
       <use x="480.371094" xlink:href="#DejaVuSans-74"/>
       <use x="519.580078" xlink:href="#DejaVuSans-79"/>
       <use x="578.759766" xlink:href="#DejaVuSans-20"/>
       <use x="610.546875" xlink:href="#DejaVuSans-44"/>
       <use x="687.548828" xlink:href="#DejaVuSans-61"/>
       <use x="748.828125" xlink:href="#DejaVuSans-79"/>
       <use x="808.007812" xlink:href="#DejaVuSans-20"/>
       <use x="839.794922" xlink:href="#DejaVuSans-43"/>
       <use x="909.619141" xlink:href="#DejaVuSans-68"/>
       <use x="972.998047" xlink:href="#DejaVuSans-61"/>
       <use x="1034.277344" xlink:href="#DejaVuSans-72"/>
       <use x="1075.390625" xlink:href="#DejaVuSans-74"/>
       <use x="1114.599609" xlink:href="#DejaVuSans-65"/>
       <use x="1176.123047" xlink:href="#DejaVuSans-72"/>
       <use x="1217.236328" xlink:href="#DejaVuSans-20"/>
       <use x="1249.023438" xlink:href="#DejaVuSans-50"/>
       <use x="1309.310547" xlink:href="#DejaVuSans-75"/>
       <use x="1372.689453" xlink:href="#DejaVuSans-62"/>
       <use x="1436.166016" xlink:href="#DejaVuSans-6c"/>
       <use x="1463.949219" xlink:href="#DejaVuSans-69"/>
       <use x="1491.732422" xlink:href="#DejaVuSans-63"/>
       <use x="1546.712891" xlink:href="#DejaVuSans-20"/>
       <use x="1578.5" xlink:href="#DejaVuSans-53"/>
       <use x="1641.976562" xlink:href="#DejaVuSans-63"/>
       <use x="1696.957031" xlink:href="#DejaVuSans-68"/>
       <use x="1760.335938" xlink:href="#DejaVuSans-6f"/>
       <use x="1821.517578" xlink:href="#DejaVuSans-6f"/>
       <use x="1882.699219" xlink:href="#DejaVuSans-6c"/>
       <use x="1910.482422" xlink:href="#DejaVuSans-20"/>
       <use x="1942.269531" xlink:href="#DejaVuSans-2d"/>
       <use x="1978.353516" xlink:href="#DejaVuSans-20"/>
       <use x="2010.140625" xlink:href="#DejaVuSans-52"/>
       <use x="2079.576172" xlink:href="#DejaVuSans-2e"/>
       <use x="2111.363281" xlink:href="#DejaVuSans-20"/>
       <use x="2143.150391" xlink:href="#DejaVuSans-4b"/>
       <use x="2208.726562" xlink:href="#DejaVuSans-69"/>
       <use x="2236.509766" xlink:href="#DejaVuSans-6e"/>
       <use x="2299.888672" xlink:href="#DejaVuSans-67"/>
       <use x="2363.365234" xlink:href="#DejaVuSans-6d"/>
       <use x="2460.777344" xlink:href="#DejaVuSans-61"/>
       <use x="2522.056641" xlink:href="#DejaVuSans-6e"/>
       <use x="2585.435547" xlink:href="#DejaVuSans-20"/>
       <use x="2617.222656" xlink:href="#DejaVuSans-57"/>
       <use x="2716.021484" xlink:href="#DejaVuSans-65"/>
       <use x="2777.544922" xlink:href="#DejaVuSans-62"/>
       <use x="2841.021484" xlink:href="#DejaVuSans-73"/>
       <use x="2893.121094" xlink:href="#DejaVuSans-74"/>
       <use x="2932.330078" xlink:href="#DejaVuSans-65"/>
       <use x="2993.853516" xlink:href="#DejaVuSans-72"/>
       <use x="3034.966797" xlink:href="#DejaVuSans-20"/>
       <use x="3066.753906" xlink:href="#DejaVuSans-28"/>
       <use x="3105.767578" xlink:href="#DejaVuSans-44"/>
       <use x="3182.769531" xlink:href="#DejaVuSans-69"/>
       <use x="3210.552734" xlink:href="#DejaVuSans-73"/>
       <use x="3262.652344" xlink:href="#DejaVuSans-74"/>
       <use x="3301.861328" xlink:href="#DejaVuSans-72"/>
       <use x="3342.974609" xlink:href="#DejaVuSans-69"/>
       <use x="3370.757812" xlink:href="#DejaVuSans-63"/>
       <use x="3425.738281" xlink:href="#DejaVuSans-74"/>
       <use x="3464.947266" xlink:href="#DejaVuSans-29"/>
       <use x="3503.960938" xlink:href="#DejaVuSans-20"/>
       <use x="3535.748047" xlink:href="#DejaVuSans-2d"/>
       <use x="3571.832031" xlink:href="#DejaVuSans-20"/>
       <use x="3603.619141" xlink:href="#DejaVuSans-43"/>
       <use x="3673.443359" xlink:href="#DejaVuSans-6f"/>
       <use x="3734.625" xlink:href="#DejaVuSans-6d"/>
       <use x="3832.037109" xlink:href="#DejaVuSans-6d"/>
       <use x="3929.449219" xlink:href="#DejaVuSans-75"/>
       <use x="3992.828125" xlink:href="#DejaVuSans-6e"/>
       <use x="4056.207031" xlink:href="#DejaVuSans-69"/>
       <use x="4083.990234" xlink:href="#DejaVuSans-74"/>
       <use x="4123.199219" xlink:href="#DejaVuSans-79"/>
       <use x="4182.378906" xlink:href="#DejaVuSans-20"/>
       <use x="4214.166016" xlink:href="#DejaVuSans-44"/>
       <use x="4291.167969" xlink:href="#DejaVuSans-61"/>
       <use x="4352.447266" xlink:href="#DejaVuSans-79"/>
       <use x="4411.626953" xlink:href="#DejaVuSans-20"/>
       <use x="4443.414062" xlink:href="#DejaVuSans-43"/>
       <use x="4513.238281" xlink:href="#DejaVuSans-68"/>
       <use x="4576.617188" xlink:href="#DejaVuSans-61"/>
       <use x="4637.896484" xlink:href="#DejaVuSans-72"/>
       <use x="4679.009766" xlink:href="#DejaVuSans-74"/>
       <use x="4718.21875" xlink:href="#DejaVuSans-65"/>
       <use x="4779.742188" xlink:href="#DejaVuSans-72"/>
       <use x="4820.855469" xlink:href="#DejaVuSans-20"/>
       <use x="4852.642578" xlink:href="#DejaVuSans-50"/>
       <use x="4912.929688" xlink:href="#DejaVuSans-75"/>
       <use x="4976.308594" xlink:href="#DejaVuSans-62"/>
       <use x="5039.785156" xlink:href="#DejaVuSans-6c"/>
       <use x="5067.568359" xlink:href="#DejaVuSans-69"/>
       <use x="5095.351562" xlink:href="#DejaVuSans-63"/>
       <use x="5150.332031" xlink:href="#DejaVuSans-20"/>
       <use x="5182.119141" xlink:href="#DejaVuSans-53"/>
       <use x="5245.595703" xlink:href="#DejaVuSans-63"/>
       <use x="5300.576172" xlink:href="#DejaVuSans-68"/>
       <use x="5363.955078" xlink:href="#DejaVuSans-6f"/>
       <use x="5425.136719" xlink:href="#DejaVuSans-6f"/>
       <use x="5486.318359" xlink:href="#DejaVuSans-6c"/>
       <use x="5514.101562" xlink:href="#DejaVuSans-20"/>
       <use x="5545.888672" xlink:href="#DejaVuSans-2d"/>
       <use x="5581.972656" xlink:href="#DejaVuSans-20"/>
       <use x="5613.759766" xlink:href="#DejaVuSans-52"/>
       <use x="5683.195312" xlink:href="#DejaVuSans-2e"/>
       <use x="5714.982422" xlink:href="#DejaVuSans-20"/>
       <use x="5746.769531" xlink:href="#DejaVuSans-4b"/>
       <use x="5812.345703" xlink:href="#DejaVuSans-69"/>
       <use x="5840.128906" xlink:href="#DejaVuSans-6e"/>
       <use x="5903.507812" xlink:href="#DejaVuSans-67"/>
       <use x="5966.984375" xlink:href="#DejaVuSans-6d"/>
       <use x="6064.396484" xlink:href="#DejaVuSans-61"/>
       <use x="6125.675781" xlink:href="#DejaVuSans-6e"/>
       <use x="6189.054688" xlink:href="#DejaVuSans-20"/>
       <use x="6220.841797" xlink:href="#DejaVuSans-57"/>
       <use x="6319.640625" xlink:href="#DejaVuSans-65"/>
       <use x="6381.164062" xlink:href="#DejaVuSans-62"/>
       <use x="6444.640625" xlink:href="#DejaVuSans-73"/>
       <use x="6496.740234" xlink:href="#DejaVuSans-74"/>
       <use x="6535.949219" xlink:href="#DejaVuSans-65"/>
       <use x="6597.472656" xlink:href="#DejaVuSans-72"/>
      </g>
     </g>
    </g>
   </g>
   <g id="matplotlib.axis_2">
    <g id="ytick_1">
     <g id="line2d_4">
      <defs>
       <path d="M 0 0 
L -3.5 0 
" id="mb656f83944" style="stroke:#000000;stroke-width:0.8;"/>
      </defs>
      <g>
       <use style="stroke:#000000;stroke-width:0.8;" x="30.525" xlink:href="#mb656f83944" y="38.354687"/>
      </g>
     </g>
     <g id="text_4">
      <!-- 0 -->
      <defs>
       <path d="M 31.78125 66.40625 
Q 24.171875 66.40625 20.328125 58.90625 
Q 16.5 51.421875 16.5 36.375 
Q 16.5 21.390625 20.328125 13.890625 
Q 24.171875 6.390625 31.78125 6.390625 
Q 39.453125 6.390625 43.28125 13.890625 
Q 47.125 21.390625 47.125 36.375 
Q 47.125 51.421875 43.28125 58.90625 
Q 39.453125 66.40625 31.78125 66.40625 
z
M 31.78125 74.21875 
Q 44.046875 74.21875 50.515625 64.515625 
Q 56.984375 54.828125 56.984375 36.375 
Q 56.984375 17.96875 50.515625 8.265625 
Q 44.046875 -1.421875 31.78125 -1.421875 
Q 19.53125 -1.421875 13.0625 8.265625 
Q 6.59375 17.96875 6.59375 36.375 
Q 6.59375 54.828125 13.0625 64.515625 
Q 19.53125 74.21875 31.78125 74.21875 
z
" id="DejaVuSans-30"/>
      </defs>
      <g transform="translate(17.1625 42.153906)scale(0.1 -0.1)">
       <use xlink:href="#DejaVuSans-30"/>
      </g>
     </g>
    </g>
    <g id="ytick_2">
     <g id="line2d_5">
      <g>
       <use style="stroke:#000000;stroke-width:0.8;" x="30.525" xlink:href="#mb656f83944" y="22.89637"/>
      </g>
     </g>
     <g id="text_5">
      <!-- 50 -->
      <defs>
       <path d="M 10.796875 72.90625 
L 49.515625 72.90625 
L 49.515625 64.59375 
L 19.828125 64.59375 
L 19.828125 46.734375 
Q 21.96875 47.46875 24.109375 47.828125 
Q 26.265625 48.1875 28.421875 48.1875 
Q 40.625 48.1875 47.75 41.5 
Q 54.890625 34.8125 54.890625 23.390625 
Q 54.890625 11.625 47.5625 5.09375 
Q 40.234375 -1.421875 26.90625 -1.421875 
Q 22.3125 -1.421875 17.546875 -0.640625 
Q 12.796875 0.140625 7.71875 1.703125 
L 7.71875 11.625 
Q 12.109375 9.234375 16.796875 8.0625 
Q 21.484375 6.890625 26.703125 6.890625 
Q 35.15625 6.890625 40.078125 11.328125 
Q 45.015625 15.765625 45.015625 23.390625 
Q 45.015625 31 40.078125 35.4375 
Q 35.15625 39.890625 26.703125 39.890625 
Q 22.75 39.890625 18.8125 39.015625 
Q 14.890625 38.140625 10.796875 36.28125 
z
" id="DejaVuSans-35"/>
      </defs>
      <g transform="translate(10.8 26.695589)scale(0.1 -0.1)">
       <use xlink:href="#DejaVuSans-35"/>
       <use x="63.623047" xlink:href="#DejaVuSans-30"/>
      </g>
     </g>
    </g>
   </g>
   <g id="patch_9">
    <path d="M 30.525 38.354687 
L 30.525 14.3 
" style="fill:none;stroke:#000000;stroke-linecap:square;stroke-linejoin:miter;stroke-width:0.8;"/>
   </g>
   <g id="patch_10">
    <path d="M 705.7 38.354687 
L 705.7 14.3 
" style="fill:none;stroke:#000000;stroke-linecap:square;stroke-linejoin:miter;stroke-width:0.8;"/>
   </g>
   <g id="patch_11">
    <path d="M 30.525 38.354687 
L 705.7 38.354687 
" style="fill:none;stroke:#000000;stroke-linecap:square;stroke-linejoin:miter;stroke-width:0.8;"/>
   </g>
   <g id="patch_12">
    <path d="M 30.525 14.3 
L 705.7 14.3 
" style="fill:none;stroke:#000000;stroke-linecap:square;stroke-linejoin:miter;stroke-width:0.8;"/>
   </g>
   <g id="legend_1">
    <g id="patch_13">
     <path d="M 503.764063 51.65625 
L 698.7 51.65625 
Q 700.7 51.65625 700.7 49.65625 
L 700.7 21.3 
Q 700.7 19.3 698.7 19.3 
L 503.764063 19.3 
Q 501.764063 19.3 501.764063 21.3 
L 501.764063 49.65625 
Q 501.764063 51.65625 503.764063 51.65625 
z
" style="fill:#ffffff;opacity:0.8;stroke:#cccccc;stroke-linejoin:miter;"/>
    </g>
    <g id="patch_14">
     <path d="M 505.764063 30.898438 
L 525.764063 30.898438 
L 525.764063 23.898438 
L 505.764063 23.898438 
z
" style="fill:#1f77b4;"/>
    </g>
    <g id="text_6">
     <!-- FirstLanguageNotEnglishPercent -->
     <defs>
      <path d="M 9.8125 72.90625 
L 51.703125 72.90625 
L 51.703125 64.59375 
L 19.671875 64.59375 
L 19.671875 43.109375 
L 48.578125 43.109375 
L 48.578125 34.8125 
L 19.671875 34.8125 
L 19.671875 0 
L 9.8125 0 
z
" id="DejaVuSans-46"/>
      <path d="M 9.8125 72.90625 
L 19.671875 72.90625 
L 19.671875 8.296875 
L 55.171875 8.296875 
L 55.171875 0 
L 9.8125 0 
z
" id="DejaVuSans-4c"/>
      <path d="M 9.8125 72.90625 
L 23.09375 72.90625 
L 55.421875 11.921875 
L 55.421875 72.90625 
L 64.984375 72.90625 
L 64.984375 0 
L 51.703125 0 
L 19.390625 60.984375 
L 19.390625 0 
L 9.8125 0 
z
" id="DejaVuSans-4e"/>
      <path d="M 9.8125 72.90625 
L 55.90625 72.90625 
L 55.90625 64.59375 
L 19.671875 64.59375 
L 19.671875 43.015625 
L 54.390625 43.015625 
L 54.390625 34.71875 
L 19.671875 34.71875 
L 19.671875 8.296875 
L 56.78125 8.296875 
L 56.78125 0 
L 9.8125 0 
z
" id="DejaVuSans-45"/>
     </defs>
     <g transform="translate(533.764063 30.898438)scale(0.1 -0.1)">
      <use xlink:href="#DejaVuSans-46"/>
      <use x="57.410156" xlink:href="#DejaVuSans-69"/>
      <use x="85.193359" xlink:href="#DejaVuSans-72"/>
      <use x="126.306641" xlink:href="#DejaVuSans-73"/>
      <use x="178.40625" xlink:href="#DejaVuSans-74"/>
      <use x="217.615234" xlink:href="#DejaVuSans-4c"/>
      <use x="273.328125" xlink:href="#DejaVuSans-61"/>
      <use x="334.607422" xlink:href="#DejaVuSans-6e"/>
      <use x="397.986328" xlink:href="#DejaVuSans-67"/>
      <use x="461.462891" xlink:href="#DejaVuSans-75"/>
      <use x="524.841797" xlink:href="#DejaVuSans-61"/>
      <use x="586.121094" xlink:href="#DejaVuSans-67"/>
      <use x="649.597656" xlink:href="#DejaVuSans-65"/>
      <use x="711.121094" xlink:href="#DejaVuSans-4e"/>
      <use x="785.925781" xlink:href="#DejaVuSans-6f"/>
      <use x="847.107422" xlink:href="#DejaVuSans-74"/>
      <use x="886.316406" xlink:href="#DejaVuSans-45"/>
      <use x="949.5" xlink:href="#DejaVuSans-6e"/>
      <use x="1012.878906" xlink:href="#DejaVuSans-67"/>
      <use x="1076.355469" xlink:href="#DejaVuSans-6c"/>
      <use x="1104.138672" xlink:href="#DejaVuSans-69"/>
      <use x="1131.921875" xlink:href="#DejaVuSans-73"/>
      <use x="1184.021484" xlink:href="#DejaVuSans-68"/>
      <use x="1247.400391" xlink:href="#DejaVuSans-50"/>
      <use x="1307.65625" xlink:href="#DejaVuSans-65"/>
      <use x="1369.179688" xlink:href="#DejaVuSans-72"/>
      <use x="1410.261719" xlink:href="#DejaVuSans-63"/>
      <use x="1465.242188" xlink:href="#DejaVuSans-65"/>
      <use x="1526.765625" xlink:href="#DejaVuSans-6e"/>
      <use x="1590.144531" xlink:href="#DejaVuSans-74"/>
     </g>
    </g>
    <g id="patch_15">
     <path d="M 505.764063 45.576563 
L 525.764063 45.576563 
L 525.764063 38.576563 
L 505.764063 38.576563 
z
" style="fill:#ff7f0e;"/>
    </g>
    <g id="text_7">
     <!-- EnglishLanguageLearnerPercent -->
     <g transform="translate(533.764063 45.576563)scale(0.1 -0.1)">
      <use xlink:href="#DejaVuSans-45"/>
      <use x="63.183594" xlink:href="#DejaVuSans-6e"/>
      <use x="126.5625" xlink:href="#DejaVuSans-67"/>
      <use x="190.039062" xlink:href="#DejaVuSans-6c"/>
      <use x="217.822266" xlink:href="#DejaVuSans-69"/>
      <use x="245.605469" xlink:href="#DejaVuSans-73"/>
      <use x="297.705078" xlink:href="#DejaVuSans-68"/>
      <use x="361.083984" xlink:href="#DejaVuSans-4c"/>
      <use x="416.796875" xlink:href="#DejaVuSans-61"/>
      <use x="478.076172" xlink:href="#DejaVuSans-6e"/>
      <use x="541.455078" xlink:href="#DejaVuSans-67"/>
      <use x="604.931641" xlink:href="#DejaVuSans-75"/>
      <use x="668.310547" xlink:href="#DejaVuSans-61"/>
      <use x="729.589844" xlink:href="#DejaVuSans-67"/>
      <use x="793.066406" xlink:href="#DejaVuSans-65"/>
      <use x="854.589844" xlink:href="#DejaVuSans-4c"/>
      <use x="910.287109" xlink:href="#DejaVuSans-65"/>
      <use x="971.810547" xlink:href="#DejaVuSans-61"/>
      <use x="1033.089844" xlink:href="#DejaVuSans-72"/>
      <use x="1074.1875" xlink:href="#DejaVuSans-6e"/>
      <use x="1137.566406" xlink:href="#DejaVuSans-65"/>
      <use x="1199.089844" xlink:href="#DejaVuSans-72"/>
      <use x="1240.203125" xlink:href="#DejaVuSans-50"/>
      <use x="1300.458984" xlink:href="#DejaVuSans-65"/>
      <use x="1361.982422" xlink:href="#DejaVuSans-72"/>
      <use x="1403.064453" xlink:href="#DejaVuSans-63"/>
      <use x="1458.044922" xlink:href="#DejaVuSans-65"/>
      <use x="1519.568359" xlink:href="#DejaVuSans-6e"/>
      <use x="1582.947266" xlink:href="#DejaVuSans-74"/>
     </g>
    </g>
   </g>
  </g>
 </g>
 <defs>
  <clipPath id="p7d81488466">
   <rect height="24.054687" width="675.175" x="30.525" y="14.3"/>
  </clipPath>
 </defs>
</svg>
